<svg width="257" height="165" viewBox="0 0 257 165" fill="none" xmlns="http://www.w3.org/2000/svg">
    <path d="M218.111 42.709C208.668 66.6412 208.691 112.769 212.062 132.078" stroke="#21261F" stroke-miterlimit="10" stroke-linecap="round" stroke-linejoin="round"/>
    <path d="M242.354 20.0434C238.557 27.4127 226.145 46.6502 218.111 42.7084C210.078 38.7666 212.051 18.3538 215.434 9.9075C218.816 1.46048 245.612 13.7187 242.354 20.0434Z" fill="#D67055"/>
    <path d="M238.408 7.213C230.375 17.3689 226.153 26.5715 226.153 26.5715L224.876 23.9148C224.876 23.9148 228.049 7.02148 230.374 1.32031" stroke="#21261F" stroke-miterlimit="10" stroke-linecap="round" stroke-linejoin="round"/>
    <path d="M215.433 9.90723C212.051 18.3536 210.078 38.7663 218.111 42.7081C226.145 46.6499 238.556 27.4124 242.353 20.0431C239.253 26.8006 213.46 13.567 215.433 9.90723Z" fill="white"/>
    <path d="M242.354 20.0428C242.416 19.9212 242.464 19.7967 242.505 19.6709C242.452 19.7946 242.41 19.9191 242.354 20.0428Z" fill="white"/>
    <path d="M224.839 17.8697C219.337 29.2105 218.112 42.7088 218.112 42.7088C215.258 39.2246 215.681 21.6981 219.388 14.7139" stroke="#D67055" stroke-width="0.5" stroke-miterlimit="10" stroke-linecap="round" stroke-linejoin="round"/>
    <path d="M231.642 20.6719C226.357 34.0513 218.112 42.7092 218.112 42.7092C218.112 42.7092 225.828 44.3234 237.773 21.9245" stroke="#D67055" stroke-width="0.5" stroke-miterlimit="10" stroke-linecap="round" stroke-linejoin="round"/>
    <path d="M113.885 83.4639C162.721 96.7673 199.295 136.824 199.295 136.824" stroke="#21261F" stroke-miterlimit="10" stroke-linecap="round" stroke-linejoin="round"/>
    <path d="M85.9773 63.4156C76.5895 64.5577 73.2922 90.6426 82.3832 91.6982C91.4741 92.7538 113.879 90.0273 113.884 83.4627C113.89 74.3831 93.6252 62.4852 85.9773 63.4156Z" fill="#D67055"/>
    <path d="M91.8815 79.71C80.8506 77.4052 73.4512 78.7775 73.4512 78.7775" stroke="#21261F" stroke-miterlimit="10" stroke-linecap="round" stroke-linejoin="round"/>
    <path d="M72.6055 71.5977C86.5585 74.7652 92.1619 75.7199 92.1619 75.7199" stroke="#21261F" stroke-miterlimit="10" stroke-linecap="round" stroke-linejoin="round"/>
    <path d="M85.9779 63.4156C93.2715 63.3645 92.2686 91.1507 82.3838 91.6982C91.4747 92.7538 113.88 90.0273 113.885 83.4627C113.891 74.3831 93.6258 62.4852 85.9779 63.4156Z" fill="white"/>
    <path d="M90.1855 68.917C100.777 71.004 111.59 77.9938 113.402 80.9138" stroke="#D67055" stroke-width="0.5" stroke-miterlimit="10" stroke-linecap="round" stroke-linejoin="round"/>
    <path d="M90.6917 76.2803C102.68 80.2947 113.885 83.4622 113.885 83.4622C113.885 83.4622 103.173 88.2515 88.9199 85.2762" stroke="#D67055" stroke-width="0.5" stroke-miterlimit="10" stroke-linecap="round" stroke-linejoin="round"/>
    <path d="M239.676 118.728C239.676 118.728 234.176 63.4158 226.143 63.4158C218.111 63.4158 212.45 114.683 212.45 114.683C212.45 114.683 177.247 67.7668 169.421 58.7571C161.595 49.7474 162.761 86.1907 183.283 123.795L195.04 139.422C195.04 139.422 168.641 128.019 133.123 120.839C97.6057 113.66 92.9546 120.417 103.525 124.218C114.096 128.019 156.67 146.409 169.421 153.896C182.171 161.383 209.232 152.092 209.232 152.092L239.676 118.728Z" fill="#588157"/>
    <path d="M226.144 63.4155C224.031 91.2757 228.695 137.356 228.695 137.356L218.112 149.98C218.112 149.98 177.858 90.7759 166.379 57.7676" stroke="#21261F" stroke-width="0.75" stroke-miterlimit="10" stroke-linecap="round" stroke-linejoin="round"/>
    <path d="M98.5928 120.109C143.906 126.541 199.296 153.537 199.296 153.537" stroke="#21261F" stroke-width="0.75" stroke-miterlimit="10" stroke-linecap="round" stroke-linejoin="round"/>
    <path d="M167.28 103.313C163.496 103.874 166.378 120.109 172.024 118.517C174.986 117.681 171.909 102.626 167.28 103.313Z" fill="#588157"/>
    <path d="M121.002 113.097C119.874 116.335 135.237 118.728 135.8 115.631C136.364 112.534 122.13 109.859 121.002 113.097Z" fill="#588157"/>
    <path d="M0 167.652C13.8866 157.581 48.981 163.072 48.981 163.072C48.981 163.072 50.6034 153.781 66.2825 155.892C81.9617 158.004 88.0164 161.615 88.0164 161.615C88.0164 161.615 89.6878 146.372 107.208 146.372C124.728 146.372 155.745 159.871 155.745 159.871C155.745 159.871 126.358 144.489 133.124 139.421C139.889 134.353 173.292 146.601 173.292 146.601C173.292 146.601 146.085 124.64 152.077 120.839C158.07 117.038 212.062 139.843 212.062 139.843C212.062 139.843 187.612 93.8096 195.04 87.4745C202.467 81.1394 231.641 127.563 231.641 127.563C231.641 127.563 238.034 66.5018 257.248 52.7041V167.652H0Z" fill="#7A9954"/>
    <g opacity="0.75">
        <path d="M249.462 61.7129C244.75 118.727 257.248 167.651 257.248 167.651L231.642 127.563" stroke="#7A9954" stroke-width="0.75" stroke-miterlimit="10" stroke-linecap="round" stroke-linejoin="round"/>
        <path d="M212.063 139.843C224.031 150.824 257.248 167.651 257.248 167.651C237.31 151.956 216.354 122.184 195.04 87.4746" stroke="#7A9954" stroke-width="0.75" stroke-miterlimit="10" stroke-linecap="round" stroke-linejoin="round"/>
        <path d="M152.077 120.839C152.077 120.839 182.594 140.688 209.232 152.091C235.87 163.494 257.248 167.652 257.248 167.652C257.248 167.652 217.265 165.606 173.292 146.601" stroke="#7A9954" stroke-width="0.75" stroke-miterlimit="10" stroke-linecap="round" stroke-linejoin="round"/>
        <path d="M133.123 139.422C172.446 163.072 257.248 167.652 257.248 167.652C257.248 167.652 197.003 167.531 155.745 159.872" stroke="#7A9954" stroke-width="0.75" stroke-miterlimit="10" stroke-linecap="round" stroke-linejoin="round"/>
    </g>
</svg>
