<svg width="24" height="24" viewBox="0 0 24 24" fill="none" xmlns="http://www.w3.org/2000/svg">
<g id="award">
<path id="Ic&#195;&#180;ne" fill-rule="evenodd" clip-rule="evenodd" d="M12 1.00071C15.397 1.00071 18.4235 3.14596 19.5485 6.35118C20.6736 9.55641 19.6518 13.1226 17 15.2457L17 22.1167C17.0001 22.2968 16.9032 22.463 16.7465 22.5518C16.5899 22.6406 16.3975 22.6383 16.243 22.5457L12 19.9997L7.75702 22.5457C7.60238 22.6384 7.40982 22.6406 7.25306 22.5516C7.09631 22.4625 6.99962 22.296 7.00002 22.1157L7.00002 15.2457C4.34829 13.1226 3.32648 9.55641 4.45151 6.35118C5.57655 3.14596 8.60309 1.00071 12 1.00071ZM12 2.99971C8.68631 2.99971 6.00002 5.686 6.00002 8.99971C6.00002 12.3134 8.68631 14.9997 12 14.9997C15.3137 14.9997 18 12.3134 18 8.99971C18 5.686 15.3137 2.99971 12 2.99971ZM12 4.99971C14.2092 4.99971 16 6.79057 16 8.99971C16 11.2089 14.2092 12.9997 12 12.9997C9.79088 12.9997 8.00002 11.2088 8.00002 8.99971C8.00002 6.79057 9.79088 4.99971 12 4.99971Z" fill="#161616"/>
</g>
</svg>
