<svg width="165" height="165" fill="none" xmlns="http://www.w3.org/2000/svg"><mask id="a" style="mask-type:alpha" maskUnits="userSpaceOnUse" x="3" y="31" width="159" height="114"><path d="M25.117 144.71c-13.23-14.014-20.943-34.483-21.133-53.753-.083-8.306 1.293-16.969 5.838-23.958 4.545-6.989 12.756-12.02 21.039-11.035 8.282.985 14.773 7.202 22.83 8.626 9.932 1.757 19.615-4.165 27.055-10.988 7.44-6.823 14.061-14.94 23.174-19.27 12.056-5.72 27.091-3.56 37.972 4.26s17.562 20.552 19.401 33.77c1.839 13.22-.902 26.818-6.265 39.028-5.364 12.21-13.267 23.187-21.953 33.32" fill="#A1E3D6"/></mask><g mask="url(#a)" fill="#A1E3D6"><path d="M-1.195 29a1.225 1.225 0 1 1 0 2.45 1.225 1.225 0 0 1 0-2.45Zm7.328 0a1.225 1.225 0 1 1 0 2.45 1.225 1.225 0 0 1 0-2.45Zm7.325 0a1.225 1.225 0 1 1 0 2.45 1.225 1.225 0 0 1 0-2.45Zm7.328 0a1.225 1.225 0 1 1 0 2.45 1.225 1.225 0 0 1 0-2.45Zm7.326 0a1.225 1.225 0 1 1 0 2.45 1.225 1.225 0 0 1 0-2.45Zm7.325 0a1.225 1.225 0 1 1 0 2.45 1.225 1.225 0 0 1 0-2.45Zm7.328 0a1.225 1.225 0 1 1 0 2.45 1.225 1.225 0 0 1 0-2.45Zm7.326 0a1.225 1.225 0 1 1 0 2.45 1.225 1.225 0 0 1 0-2.45Zm7.328 0a1.225 1.225 0 1 1-.013 0h.013Zm7.325 0a1.225 1.225 0 1 1 0 2.45 1.225 1.225 0 0 1 0-2.45Zm7.328 0a1.225 1.225 0 1 1 0 2.45 1.225 1.225 0 0 1 0-2.45Zm7.326 0a1.225 1.225 0 1 1 0 2.45 1.225 1.225 0 0 1 0-2.45Zm7.325 0a1.225 1.225 0 1 1 0 2.45 1.225 1.225 0 0 1 0-2.45Zm7.328 0a1.225 1.225 0 1 1 0 2.45 1.225 1.225 0 0 1 0-2.45Zm7.326 0a1.225 1.225 0 1 1 0 2.45 1.225 1.225 0 0 1 0-2.45Zm7.328 0a1.226 1.226 0 1 1-.002 2.453 1.226 1.226 0 0 1 .002-2.453Zm7.325 0a1.227 1.227 0 0 1 .867 2.092 1.227 1.227 0 0 1-2.092-.867A1.224 1.224 0 0 1 116.03 29Zm7.328 0a1.223 1.223 0 0 1 1.225 1.225A1.224 1.224 0 1 1 123.358 29Zm7.325 0a1.227 1.227 0 0 1 .867 2.092 1.227 1.227 0 0 1-2.092-.867 1.22 1.22 0 0 1 .36-.867 1.222 1.222 0 0 1 .868-.358h-.003Zm7.326 0a1.223 1.223 0 0 1 1.225 1.225A1.224 1.224 0 1 1 138.009 29Zm7.328 0a1.223 1.223 0 0 1 1.225 1.225A1.224 1.224 0 1 1 145.337 29Zm7.325 0a1.227 1.227 0 0 1 .867 2.092 1.227 1.227 0 0 1-1.999-1.336 1.228 1.228 0 0 1 1.132-.756Zm7.328 0a1.227 1.227 0 0 1 .867 2.092 1.227 1.227 0 0 1-1.999-1.336A1.228 1.228 0 0 1 159.99 29ZM2.706 33.011a1.226 1.226 0 1 1 0 2.452 1.226 1.226 0 0 1 0-2.452Zm7.326 0a1.226 1.226 0 1 1 0 2.452 1.226 1.226 0 0 1 0-2.452Zm7.328 0a1.226 1.226 0 1 1 0 2.452 1.226 1.226 0 0 1 0-2.452Zm7.325 0a1.226 1.226 0 1 1 0 2.452 1.226 1.226 0 0 1 0-2.452Zm7.328 0a1.226 1.226 0 1 1 0 2.452 1.226 1.226 0 0 1 0-2.452Zm7.326 0a1.226 1.226 0 1 1 0 2.452 1.226 1.226 0 0 1 0-2.452Zm7.328 0a1.226 1.226 0 1 1 0 2.452 1.226 1.226 0 0 1 0-2.452Zm7.325 0a1.226 1.226 0 1 1 0 2.452 1.226 1.226 0 0 1 0-2.452Zm7.335 0a1.226 1.226 0 1 1 0 2.452 1.226 1.226 0 0 1 0-2.452Zm7.328 0a1.226 1.226 0 1 1-.01 0h.01Zm7.326 0a1.226 1.226 0 1 1-.01 0h.01Zm7.328 0a1.226 1.226 0 1 1-.01 0h.01Zm7.325 0a1.226 1.226 0 1 1-.01 0h.01Zm7.326 0a1.226 1.226 0 1 1-.01 0h.01Zm7.328 0a1.225 1.225 0 1 1-.01 0h.01Zm7.325 0a1.227 1.227 0 0 1 1.226 1.226 1.225 1.225 0 1 1-1.236-1.226h.01Zm7.328 0a1.227 1.227 0 0 1 1.226 1.226 1.225 1.225 0 1 1-1.236-1.226h.01Zm7.313 0a1.227 1.227 0 0 1 1.226 1.226 1.225 1.225 0 1 1-1.226-1.226Zm7.328 0a1.227 1.227 0 0 1 1.226 1.226 1.225 1.225 0 1 1-1.223-1.226h-.003Zm7.326 0a1.223 1.223 0 0 1 1.225 1.226 1.225 1.225 0 1 1-1.223-1.226h-.002Zm7.325 0a1.227 1.227 0 0 1 1.226 1.226 1.225 1.225 0 1 1-1.223-1.226h-.003Zm7.328 0a1.227 1.227 0 0 1 1.226 1.226 1.225 1.225 0 1 1-1.223-1.226h-.003Zm7.326 0a1.223 1.223 0 0 1 1.225 1.226 1.225 1.225 0 1 1-1.223-1.226h-.002ZM-1.195 37.013a1.226 1.226 0 1 1 0 2.452 1.226 1.226 0 0 1 0-2.452Zm7.328 0a1.226 1.226 0 1 1 0 2.452 1.226 1.226 0 0 1 0-2.452Zm7.325 0a1.226 1.226 0 1 1 0 2.452 1.226 1.226 0 0 1 0-2.452Zm7.328 0a1.226 1.226 0 1 1 0 2.452 1.226 1.226 0 0 1 0-2.452Zm7.326 0a1.226 1.226 0 1 1 0 2.452 1.226 1.226 0 0 1 0-2.452Zm7.325 0a1.226 1.226 0 1 1 0 2.452 1.226 1.226 0 0 1 0-2.452Zm7.328 0a1.226 1.226 0 1 1 0 2.452 1.226 1.226 0 0 1 0-2.452Zm7.326 0a1.226 1.226 0 1 1 0 2.452 1.226 1.226 0 0 1 0-2.452Zm7.328 0a1.226 1.226 0 1 1-.013 0h.013Zm7.325 0a1.226 1.226 0 1 1 0 2.452 1.226 1.226 0 0 1 0-2.452Zm7.328 0a1.226 1.226 0 1 1 0 2.452 1.226 1.226 0 0 1 0-2.452Zm7.326 0a1.226 1.226 0 1 1 0 2.452 1.226 1.226 0 0 1 0-2.452Zm7.325 0a1.226 1.226 0 1 1 0 2.452 1.226 1.226 0 0 1 0-2.452Zm7.328 0a1.226 1.226 0 1 1 0 2.452 1.226 1.226 0 0 1 0-2.452Zm7.326 0a1.225 1.225 0 1 1 0 2.45 1.225 1.225 0 0 1 0-2.45Zm7.328 0a1.227 1.227 0 0 1 .866 2.092 1.227 1.227 0 0 1-2.092-.867 1.225 1.225 0 0 1 1.226-1.225Zm7.325 0a1.227 1.227 0 0 1 1.225 1.225 1.228 1.228 0 0 1-1.225 1.226 1.223 1.223 0 0 1-1.225-1.226 1.225 1.225 0 0 1 1.225-1.225Zm7.328 0a1.223 1.223 0 0 1 1.225 1.225 1.224 1.224 0 1 1-1.225-1.225Zm7.325 0a1.227 1.227 0 0 1 1.226 1.225 1.224 1.224 0 1 1-1.223-1.225h-.003Zm7.326 0a1.223 1.223 0 0 1 1.225 1.225 1.224 1.224 0 1 1-1.225-1.225Zm7.328 0a1.223 1.223 0 0 1 1.225 1.225 1.224 1.224 0 1 1-1.225-1.225Zm7.325 0a1.227 1.227 0 0 1 1.226 1.225 1.224 1.224 0 1 1-1.226-1.225Zm7.328 0a1.227 1.227 0 0 1 1.226 1.225 1.224 1.224 0 1 1-1.226-1.225ZM2.706 41.032a1.225 1.225 0 1 1 0 2.45 1.225 1.225 0 0 1 0-2.45Zm7.325 0a1.225 1.225 0 1 1 0 2.45 1.225 1.225 0 0 1 0-2.45Zm7.328 0a1.225 1.225 0 1 1 0 2.45 1.225 1.225 0 0 1 0-2.45Zm7.326 0a1.225 1.225 0 1 1 0 2.45 1.225 1.225 0 0 1 0-2.45Zm7.328 0a1.225 1.225 0 1 1 0 2.45 1.225 1.225 0 0 1 0-2.45Zm7.325 0a1.225 1.225 0 1 1 0 2.45 1.225 1.225 0 0 1 0-2.45Zm7.328 0a1.225 1.225 0 1 1 0 2.45 1.225 1.225 0 0 1 0-2.45Zm7.326 0a1.225 1.225 0 1 1 0 2.45 1.225 1.225 0 0 1 0-2.45Zm7.325 0a1.225 1.225 0 1 1-.462.09c.15-.061.31-.092.472-.09h-.01Zm7.328 0a1.225 1.225 0 1 1 0 2.45 1.225 1.225 0 0 1 0-2.45Zm7.326 0a1.225 1.225 0 1 1 0 2.45 1.225 1.225 0 0 1 0-2.45Zm7.328 0a1.225 1.225 0 1 1 0 2.45 1.225 1.225 0 0 1 0-2.45Zm7.325 0a1.225 1.225 0 1 1 0 2.45 1.225 1.225 0 0 1 0-2.45Zm7.326 0a1.225 1.225 0 1 1 0 2.45 1.225 1.225 0 0 1 0-2.45Zm7.328 0a1.225 1.225 0 1 1 0 2.449 1.225 1.225 0 0 1 0-2.45Zm7.325 0a1.227 1.227 0 0 1 .867 2.091 1.227 1.227 0 0 1-2.092-.866 1.236 1.236 0 0 1 .359-.867 1.233 1.233 0 0 1 .866-.358Zm7.328 0a1.227 1.227 0 0 1 .867 2.091 1.227 1.227 0 0 1-1.999-1.335 1.23 1.23 0 0 1 1.132-.756Zm7.326 0a1.225 1.225 0 1 1-.003 0h.003Zm7.328 0a1.225 1.225 0 1 1 0 2.449 1.225 1.225 0 0 1 0-2.45Zm7.325 0a1.227 1.227 0 0 1 .867 2.091 1.227 1.227 0 0 1-1.999-1.335 1.23 1.23 0 0 1 1.132-.756Zm7.326 0a1.225 1.225 0 1 1 0 2.449 1.225 1.225 0 0 1 0-2.45Zm7.328 0a1.225 1.225 0 1 1 0 2.449 1.225 1.225 0 0 1 0-2.45ZM-1.196 45.019a1.225 1.225 0 1 1 0 2.45 1.225 1.225 0 0 1 0-2.45Zm7.328 0a1.225 1.225 0 1 1 0 2.45 1.225 1.225 0 0 1 0-2.45Zm7.326 0a1.225 1.225 0 1 1 0 2.45 1.225 1.225 0 0 1 0-2.45Zm7.328 0a1.226 1.226 0 1 1 0 2.45 1.226 1.226 0 0 1 0-2.45Zm7.325 0a1.225 1.225 0 1 1 0 2.45 1.225 1.225 0 0 1 0-2.45Zm7.326 0a1.226 1.226 0 1 1 0 2.45 1.226 1.226 0 0 1 0-2.45Zm7.328 0a1.225 1.225 0 1 1 0 2.45 1.225 1.225 0 0 1 0-2.45Zm7.325 0a1.225 1.225 0 1 1 0 2.45 1.225 1.225 0 0 1 0-2.45Zm7.316 0a1.225 1.225 0 1 1 0 2.45 1.225 1.225 0 0 1 0-2.45Zm7.325 0a1.226 1.226 0 1 1-.46.09c.15-.062.31-.092.473-.09h-.013Zm7.328 0a1.225 1.225 0 1 1-.46.09c.15-.062.31-.092.473-.09h-.013Zm7.326 0a1.225 1.225 0 1 1-.46.09c.15-.062.31-.092.472-.09h-.012Zm7.325 0a1.225 1.225 0 1 1-.46.09c.15-.062.31-.092.473-.09h-.013Zm7.328 0a1.225 1.225 0 1 1-.46.09c.15-.062.31-.092.472-.09h-.012Zm7.326 0a1.225 1.225 0 1 1-.461.09c.15-.062.311-.092.473-.09h-.012Zm7.328 0a1.225 1.225 0 1 1-.461.09c.15-.062.311-.092.473-.09h-.012Zm7.325 0a1.227 1.227 0 0 1 .867 2.091 1.226 1.226 0 1 1-.854-2.091h-.013Zm7.328 0a1.227 1.227 0 0 1 .867 2.091 1.226 1.226 0 1 1-.855-2.091h-.012Zm7.34 0a1.227 1.227 0 0 1 .867 2.091 1.226 1.226 0 1 1-.867-2.091Zm7.326 0a1.223 1.223 0 0 1 1.225 1.225 1.217 1.217 0 0 1-.359.866 1.211 1.211 0 0 1-.866.36 1.226 1.226 0 0 1-.003-2.451h.003Zm7.328 0a1.223 1.223 0 0 1 1.225 1.225 1.217 1.217 0 0 1-.359.866 1.211 1.211 0 0 1-.866.36 1.226 1.226 0 0 1-.003-2.451h.003Zm7.325 0a1.227 1.227 0 0 1 .867 2.091 1.226 1.226 0 1 1-.869-2.091h.002Zm7.328 0a1.227 1.227 0 0 1 .867 2.091 1.226 1.226 0 1 1-.869-2.091h.002ZM2.706 49.045a1.225 1.225 0 1 1 0 2.45 1.225 1.225 0 0 1 0-2.45Zm7.325 0a1.225 1.225 0 1 1 0 2.45 1.225 1.225 0 0 1 0-2.45Zm7.328 0a1.225 1.225 0 1 1 0 2.45 1.225 1.225 0 0 1 0-2.45Zm7.326 0a1.225 1.225 0 1 1 0 2.45 1.225 1.225 0 0 1 0-2.45Zm7.328 0a1.225 1.225 0 1 1 0 2.45 1.225 1.225 0 0 1 0-2.45Zm7.325 0a1.226 1.226 0 1 1 0 2.45 1.226 1.226 0 0 1 0-2.45Zm7.328 0a1.225 1.225 0 1 1 0 2.45 1.225 1.225 0 0 1 0-2.45Zm7.326 0a1.225 1.225 0 1 1 0 2.45 1.225 1.225 0 0 1 0-2.45Zm7.325 0a1.225 1.225 0 1 1-.462.09c.15-.06.31-.092.472-.09h-.01Zm7.328 0a1.225 1.225 0 1 1 0 2.45 1.225 1.225 0 0 1 0-2.45Zm7.326 0a1.225 1.225 0 1 1 0 2.45 1.225 1.225 0 0 1 0-2.45Zm7.328 0a1.225 1.225 0 1 1 0 2.45 1.225 1.225 0 0 1 0-2.45Zm7.325 0a1.225 1.225 0 1 1 0 2.45 1.225 1.225 0 0 1 0-2.45Zm7.326 0a1.225 1.225 0 1 1 0 2.45 1.225 1.225 0 0 1 0-2.45Zm7.327 0a1.227 1.227 0 0 1 .867 2.091 1.227 1.227 0 0 1-2.092-.866 1.235 1.235 0 0 1 .359-.866 1.233 1.233 0 0 1 .866-.36Zm7.326 0a1.223 1.223 0 0 1 1.225 1.225 1.224 1.224 0 1 1-1.225-1.225Zm7.328 0a1.223 1.223 0 0 1 1.225 1.225 1.224 1.224 0 1 1-1.225-1.225Zm7.325 0a1.227 1.227 0 0 1 .867 2.091 1.227 1.227 0 0 1-2.092-.866 1.226 1.226 0 0 1 1.223-1.225h.002Zm7.328 0a1.227 1.227 0 0 1 .867 2.091 1.227 1.227 0 0 1-2.092-.866 1.235 1.235 0 0 1 .359-.866 1.233 1.233 0 0 1 .866-.36Zm7.326 0a1.223 1.223 0 0 1 1.225 1.225 1.224 1.224 0 1 1-1.225-1.225Zm7.325 0a1.227 1.227 0 0 1 .867 2.091 1.227 1.227 0 0 1-2.092-.866 1.235 1.235 0 0 1 .359-.866 1.233 1.233 0 0 1 .866-.36Zm7.328 0a1.227 1.227 0 0 1 .867 2.091 1.227 1.227 0 0 1-2.092-.866 1.235 1.235 0 0 1 .359-.866 1.233 1.233 0 0 1 .866-.36Zm7.326 0a1.223 1.223 0 0 1 1.225 1.225 1.224 1.224 0 1 1-1.225-1.225ZM-1.196 53.039a1.225 1.225 0 1 1 0 2.45 1.225 1.225 0 0 1 0-2.45Zm7.328 0a1.225 1.225 0 1 1 0 2.45 1.225 1.225 0 0 1 0-2.45Zm7.326 0a1.225 1.225 0 1 1 0 2.45 1.225 1.225 0 0 1 0-2.45Zm7.328 0a1.225 1.225 0 1 1 0 2.45 1.225 1.225 0 0 1 0-2.45Zm7.325 0a1.226 1.226 0 1 1 0 2.451 1.226 1.226 0 0 1 0-2.451Zm7.326 0a1.225 1.225 0 1 1 0 2.45 1.225 1.225 0 0 1 0-2.45Zm7.328 0a1.225 1.225 0 1 1 0 2.45 1.225 1.225 0 0 1 0-2.45Zm7.325 0a1.225 1.225 0 1 1 0 2.45 1.225 1.225 0 0 1 0-2.45Zm7.328 0a1.225 1.225 0 1 1-.012 0h.012Zm7.326 0a1.225 1.225 0 1 1 0 2.45 1.225 1.225 0 0 1 0-2.45Zm7.328 0a1.225 1.225 0 1 1 0 2.45 1.225 1.225 0 0 1 0-2.45Zm7.325 0a1.225 1.225 0 1 1 0 2.45 1.225 1.225 0 0 1 0-2.45Zm7.326 0a1.225 1.225 0 1 1 0 2.45 1.225 1.225 0 0 1 0-2.45Zm7.328 0a1.225 1.225 0 1 1 0 2.45 1.225 1.225 0 0 1 0-2.45Zm7.325 0a1.227 1.227 0 0 1 .867 2.091 1.227 1.227 0 0 1-2.092-.866 1.224 1.224 0 0 1 1.225-1.225Zm7.328 0a1.227 1.227 0 0 1 .867 2.091 1.227 1.227 0 0 1-2.092-.866 1.224 1.224 0 0 1 1.225-1.225Zm7.326 0a1.225 1.225 0 1 1 0 2.449 1.225 1.225 0 0 1 0-2.45Zm7.328 0a1.225 1.225 0 1 1 0 2.449 1.225 1.225 0 0 1 0-2.45Zm7.325 0a1.227 1.227 0 0 1 .867 2.091 1.227 1.227 0 0 1-1.999-1.335 1.217 1.217 0 0 1 .665-.664c.149-.061.308-.093.47-.092h-.003Zm7.326 0a1.225 1.225 0 1 1 0 2.449 1.225 1.225 0 0 1 0-2.45Zm7.328 0a1.225 1.225 0 1 1 0 2.449 1.225 1.225 0 0 1 0-2.45Zm7.325 0a1.227 1.227 0 0 1 .867 2.091 1.227 1.227 0 0 1-1.999-1.335 1.23 1.23 0 0 1 1.132-.756Zm7.328 0a1.227 1.227 0 0 1 .867 2.091 1.227 1.227 0 0 1-1.999-1.335 1.23 1.23 0 0 1 1.132-.756Zm7.326 0a1.225 1.225 0 1 1 0 2.449 1.225 1.225 0 0 1 0-2.45ZM2.706 57.058a1.225 1.225 0 1 1 0 2.45 1.225 1.225 0 0 1 0-2.45Zm7.325 0a1.225 1.225 0 1 1 0 2.45 1.225 1.225 0 0 1 0-2.45Zm7.328 0a1.225 1.225 0 1 1 0 2.45 1.225 1.225 0 0 1 0-2.45Zm7.326 0a1.225 1.225 0 1 1 0 2.45 1.225 1.225 0 0 1 0-2.45Zm7.328 0a1.225 1.225 0 1 1 0 2.45 1.225 1.225 0 0 1 0-2.45Zm7.325 0a1.226 1.226 0 1 1 0 2.451 1.226 1.226 0 0 1 0-2.451Zm7.328 0a1.225 1.225 0 1 1 0 2.45 1.225 1.225 0 0 1 0-2.45Zm7.326 0a1.225 1.225 0 1 1 0 2.45 1.225 1.225 0 0 1 0-2.45Zm7.325 0a1.225 1.225 0 1 1-.462.09c.15-.06.31-.091.472-.09h-.01Zm7.328 0a1.225 1.225 0 1 1 0 2.45 1.225 1.225 0 0 1 0-2.45Zm7.326 0a1.225 1.225 0 1 1 0 2.45 1.225 1.225 0 0 1 0-2.45Zm7.328 0a1.225 1.225 0 1 1 0 2.45 1.225 1.225 0 0 1 0-2.45Zm7.325 0a1.225 1.225 0 1 1 0 2.45 1.225 1.225 0 0 1 0-2.45Zm7.326 0a1.225 1.225 0 1 1 0 2.45 1.225 1.225 0 0 1 0-2.45Zm7.327 0a1.227 1.227 0 0 1 .867 2.092 1.227 1.227 0 0 1-1.999-1.336 1.229 1.229 0 0 1 1.132-.756Zm7.326 0a1.223 1.223 0 0 1 1.225 1.225 1.224 1.224 0 1 1-1.225-1.225Zm7.328 0a1.223 1.223 0 0 1 1.225 1.225 1.224 1.224 0 1 1-1.225-1.225Zm7.325 0a1.227 1.227 0 0 1 .867 2.092 1.227 1.227 0 0 1-2.092-.867 1.226 1.226 0 0 1 1.223-1.225h.002Zm7.328 0a1.227 1.227 0 0 1 .867 2.092 1.227 1.227 0 0 1-1.999-1.336 1.229 1.229 0 0 1 1.132-.756Zm7.326 0a1.223 1.223 0 0 1 1.225 1.225 1.224 1.224 0 1 1-1.225-1.225Zm7.325 0a1.227 1.227 0 0 1 .867 2.092 1.227 1.227 0 0 1-1.999-1.336 1.228 1.228 0 0 1 1.132-.756Zm7.328 0a1.227 1.227 0 0 1 .867 2.092 1.227 1.227 0 0 1-1.999-1.336 1.228 1.228 0 0 1 1.132-.756Zm7.326 0a1.223 1.223 0 0 1 1.225 1.225 1.224 1.224 0 1 1-1.225-1.225ZM-1.195 61.052a1.225 1.225 0 1 1 0 2.45 1.225 1.225 0 0 1 0-2.45Zm7.328 0a1.225 1.225 0 1 1 0 2.45 1.225 1.225 0 0 1 0-2.45Zm7.325 0a1.225 1.225 0 1 1 0 2.45 1.225 1.225 0 0 1 0-2.45Zm7.328 0a1.225 1.225 0 1 1 0 2.45 1.225 1.225 0 0 1 0-2.45Zm7.326 0a1.225 1.225 0 1 1 0 2.45 1.225 1.225 0 0 1 0-2.45Zm7.325 0a1.225 1.225 0 1 1 0 2.45 1.225 1.225 0 0 1 0-2.45Zm7.328 0a1.225 1.225 0 1 1 0 2.45 1.225 1.225 0 0 1 0-2.45Zm7.326 0a1.225 1.225 0 1 1 0 2.45 1.225 1.225 0 0 1 0-2.45Zm7.328 0a1.225 1.225 0 1 1-.013 0h.013Zm7.325 0a1.225 1.225 0 1 1 0 2.45 1.225 1.225 0 0 1 0-2.45Zm7.328 0a1.225 1.225 0 1 1 0 2.45 1.225 1.225 0 0 1 0-2.45Zm7.326 0a1.225 1.225 0 1 1 0 2.45 1.225 1.225 0 0 1 0-2.45Zm7.325 0a1.225 1.225 0 1 1 0 2.45 1.225 1.225 0 0 1 0-2.45Zm7.328 0a1.225 1.225 0 1 1 0 2.45 1.225 1.225 0 0 1 0-2.45Zm7.326 0a1.225 1.225 0 1 1 0 2.449 1.225 1.225 0 0 1 0-2.45Zm7.328 0a1.226 1.226 0 1 1-.001 2.452 1.226 1.226 0 0 1 .001-2.452Zm7.325 0a1.227 1.227 0 0 1 .867 2.091 1.227 1.227 0 0 1-2.092-.866 1.224 1.224 0 0 1 1.225-1.225Zm7.328 0a1.223 1.223 0 0 1 1.225 1.225 1.224 1.224 0 1 1-1.225-1.225Zm7.325 0a1.227 1.227 0 0 1 .867 2.091 1.227 1.227 0 0 1-2.092-.866 1.221 1.221 0 0 1 .36-.867 1.221 1.221 0 0 1 .868-.358h-.003Zm7.326 0a1.223 1.223 0 0 1 1.225 1.225 1.224 1.224 0 1 1-1.225-1.225Zm7.328 0a1.223 1.223 0 0 1 1.225 1.225 1.224 1.224 0 1 1-1.225-1.225Zm7.325 0a1.227 1.227 0 0 1 .867 2.091 1.227 1.227 0 0 1-2.092-.866 1.236 1.236 0 0 1 .359-.866 1.226 1.226 0 0 1 .866-.36Zm7.328 0a1.227 1.227 0 0 1 .867 2.091 1.227 1.227 0 0 1-2.092-.866 1.236 1.236 0 0 1 .359-.866 1.233 1.233 0 0 1 .866-.36ZM2.706 65.07a1.225 1.225 0 1 1 0 2.451 1.225 1.225 0 0 1 0-2.45Zm7.325 0a1.225 1.225 0 1 1 0 2.451 1.225 1.225 0 0 1 0-2.45Zm7.328 0a1.225 1.225 0 1 1 0 2.451 1.225 1.225 0 0 1 0-2.45Zm7.326 0a1.225 1.225 0 1 1 0 2.451 1.225 1.225 0 0 1 0-2.45Zm7.328 0a1.225 1.225 0 1 1 0 2.451 1.225 1.225 0 0 1 0-2.45Zm7.325 0a1.226 1.226 0 1 1 0 2.452 1.226 1.226 0 0 1 0-2.452Zm7.328 0a1.225 1.225 0 1 1 0 2.451 1.225 1.225 0 0 1 0-2.45Zm7.326 0a1.225 1.225 0 1 1 0 2.451 1.225 1.225 0 0 1 0-2.45Zm7.325 0a1.225 1.225 0 1 1-.462.09c.15-.06.31-.09.472-.09h-.01Zm7.328 0a1.225 1.225 0 1 1 0 2.451 1.225 1.225 0 0 1 0-2.45Zm7.326 0a1.225 1.225 0 1 1 0 2.451 1.225 1.225 0 0 1 0-2.45Zm7.328 0a1.225 1.225 0 1 1 0 2.451 1.225 1.225 0 0 1 0-2.45Zm7.325 0a1.225 1.225 0 1 1 0 2.451 1.225 1.225 0 0 1 0-2.45Zm7.326 0a1.225 1.225 0 1 1 0 2.451 1.225 1.225 0 0 1 0-2.45Zm7.327 0a1.227 1.227 0 0 1 .867 2.092 1.227 1.227 0 0 1-2.092-.866 1.236 1.236 0 0 1 .359-.867 1.233 1.233 0 0 1 .866-.359Zm7.326 0a1.223 1.223 0 0 1 1.225 1.226 1.224 1.224 0 1 1-1.225-1.226Zm7.328 0a1.223 1.223 0 0 1 1.225 1.226 1.224 1.224 0 0 1-2.092.866 1.228 1.228 0 0 1 0-1.733 1.226 1.226 0 0 1 .867-.359Zm7.325 0a1.227 1.227 0 0 1 .867 2.092 1.227 1.227 0 0 1-2.092-.866 1.226 1.226 0 0 1 1.223-1.226h.002Zm7.328 0a1.227 1.227 0 0 1 .867 2.092 1.227 1.227 0 0 1-2.092-.866 1.236 1.236 0 0 1 .359-.867 1.233 1.233 0 0 1 .866-.359Zm7.326 0a1.223 1.223 0 0 1 1.225 1.226 1.224 1.224 0 0 1-2.092.866 1.228 1.228 0 0 1 0-1.733 1.226 1.226 0 0 1 .867-.359Zm7.325 0a1.227 1.227 0 0 1 .867 2.092 1.227 1.227 0 0 1-2.092-.866 1.236 1.236 0 0 1 .359-.867 1.233 1.233 0 0 1 .866-.359Zm7.328 0a1.227 1.227 0 0 1 .867 2.092 1.227 1.227 0 0 1-2.092-.866 1.236 1.236 0 0 1 .359-.867 1.233 1.233 0 0 1 .866-.359Zm7.326 0a1.223 1.223 0 0 1 1.225 1.226 1.224 1.224 0 0 1-2.092.866 1.228 1.228 0 0 1 0-1.733 1.226 1.226 0 0 1 .867-.359ZM-1.195 69.065a1.225 1.225 0 1 1 0 2.45 1.225 1.225 0 0 1 0-2.45Zm7.328 0a1.225 1.225 0 1 1 0 2.45 1.225 1.225 0 0 1 0-2.45Zm7.325 0a1.225 1.225 0 1 1 0 2.45 1.225 1.225 0 0 1 0-2.45Zm7.328 0a1.225 1.225 0 1 1 0 2.45 1.225 1.225 0 0 1 0-2.45Zm7.326 0a1.225 1.225 0 1 1 0 2.45 1.225 1.225 0 0 1 0-2.45Zm7.325 0a1.225 1.225 0 1 1 0 2.45 1.225 1.225 0 0 1 0-2.45Zm7.328 0a1.225 1.225 0 1 1 0 2.45 1.225 1.225 0 0 1 0-2.45Zm7.326 0a1.225 1.225 0 1 1 0 2.45 1.225 1.225 0 0 1 0-2.45Zm7.328 0a1.225 1.225 0 1 1-.013 0h.013Zm7.325 0a1.225 1.225 0 1 1 0 2.45 1.225 1.225 0 0 1 0-2.45Zm7.328 0a1.225 1.225 0 1 1 0 2.45 1.225 1.225 0 0 1 0-2.45Zm7.326 0a1.225 1.225 0 1 1 0 2.45 1.225 1.225 0 0 1 0-2.45Zm7.325 0a1.225 1.225 0 1 1 0 2.45 1.225 1.225 0 0 1 0-2.45Zm7.328 0a1.225 1.225 0 1 1 0 2.45 1.225 1.225 0 0 1 0-2.45Zm7.326 0a1.225 1.225 0 1 1 0 2.449 1.225 1.225 0 0 1 0-2.45Zm7.328 0a1.226 1.226 0 1 1-.002 2.452 1.226 1.226 0 0 1 .002-2.452Zm7.325 0a1.227 1.227 0 0 1 .867 2.091 1.227 1.227 0 0 1-2.092-.866 1.224 1.224 0 0 1 1.225-1.225Zm7.328 0a1.223 1.223 0 0 1 1.225 1.225 1.224 1.224 0 1 1-1.225-1.225Zm7.325 0a1.227 1.227 0 0 1 .867 2.091 1.227 1.227 0 0 1-2.092-.866 1.22 1.22 0 0 1 .36-.867 1.222 1.222 0 0 1 .868-.358h-.003Zm7.326 0a1.223 1.223 0 0 1 1.225 1.225 1.224 1.224 0 1 1-1.225-1.225Zm7.328 0a1.223 1.223 0 0 1 1.225 1.225 1.224 1.224 0 1 1-1.225-1.225Zm7.325 0a1.227 1.227 0 0 1 .867 2.091 1.227 1.227 0 0 1-1.999-1.335 1.229 1.229 0 0 1 1.132-.756Zm7.328 0a1.227 1.227 0 0 1 .867 2.091 1.227 1.227 0 0 1-1.999-1.335 1.229 1.229 0 0 1 1.132-.756ZM2.706 73.083a1.226 1.226 0 1 1 0 2.452 1.226 1.226 0 0 1 0-2.452Zm7.325 0a1.226 1.226 0 1 1 0 2.452 1.226 1.226 0 0 1 0-2.452Zm7.328 0a1.226 1.226 0 1 1 0 2.452 1.226 1.226 0 0 1 0-2.452Zm7.326 0a1.226 1.226 0 1 1 0 2.452 1.226 1.226 0 0 1 0-2.452Zm7.328 0a1.226 1.226 0 1 1 0 2.451 1.226 1.226 0 0 1 0-2.45Zm7.325 0a1.226 1.226 0 1 1 0 2.452 1.226 1.226 0 0 1 0-2.452Zm7.328 0a1.226 1.226 0 1 1 0 2.452 1.226 1.226 0 0 1 0-2.452Zm7.326 0a1.226 1.226 0 1 1 0 2.452 1.226 1.226 0 0 1 0-2.452Zm7.325 0a1.226 1.226 0 1 1-.462.09c.15-.06.31-.091.472-.09h-.01Zm7.328 0a1.226 1.226 0 1 1 0 2.452 1.226 1.226 0 0 1 0-2.452Zm7.326 0a1.226 1.226 0 1 1 0 2.452 1.226 1.226 0 0 1 0-2.452Zm7.328 0a1.226 1.226 0 1 1 0 2.452 1.226 1.226 0 0 1 0-2.452Zm7.325 0a1.226 1.226 0 1 1 0 2.452 1.226 1.226 0 0 1 0-2.452Zm7.326 0a1.226 1.226 0 1 1 0 2.452 1.226 1.226 0 0 1 0-2.452Zm7.328 0a1.225 1.225 0 1 1 0 2.45 1.225 1.225 0 0 1 0-2.45Zm7.325 0a1.227 1.227 0 0 1 1.226 1.225 1.224 1.224 0 1 1-1.226-1.225Zm7.328 0a1.227 1.227 0 0 1 1.226 1.225 1.224 1.224 0 1 1-1.226-1.225Zm7.326 0a1.225 1.225 0 1 1-.003 0h.003Zm7.328 0a1.225 1.225 0 1 1 0 2.45 1.225 1.225 0 0 1 0-2.45Zm7.325 0a1.227 1.227 0 0 1 1.226 1.225 1.229 1.229 0 0 1-1.226 1.226 1.223 1.223 0 0 1-1.132-1.694 1.23 1.23 0 0 1 1.132-.757Zm7.326 0a1.225 1.225 0 1 1 0 2.45 1.225 1.225 0 0 1 0-2.45Zm7.328 0a1.225 1.225 0 1 1 0 2.45 1.225 1.225 0 0 1 0-2.45ZM-1.194 77.077a1.226 1.226 0 1 1 0 2.452 1.226 1.226 0 0 1 0-2.452Zm7.327 0a1.226 1.226 0 1 1 0 2.452 1.226 1.226 0 0 1 0-2.452Zm7.326 0a1.226 1.226 0 1 1 0 2.452 1.226 1.226 0 0 1 0-2.452Zm7.328 0a1.226 1.226 0 1 1 0 2.451 1.226 1.226 0 0 1 0-2.45Zm7.325 0a1.226 1.226 0 1 1 0 2.453 1.226 1.226 0 0 1 0-2.453Zm7.326 0a1.226 1.226 0 1 1 0 2.451 1.226 1.226 0 0 1 0-2.45Zm7.328 0a1.226 1.226 0 1 1 0 2.452 1.226 1.226 0 0 1 0-2.452Zm7.325 0a1.226 1.226 0 1 1 0 2.452 1.226 1.226 0 0 1 0-2.452Zm7.328 0a1.226 1.226 0 1 1-.012 0h.012Zm7.326 0a1.226 1.226 0 1 1 0 2.452 1.226 1.226 0 0 1 0-2.452Zm7.328 0a1.226 1.226 0 1 1 0 2.451 1.226 1.226 0 0 1 0-2.45Zm7.325 0a1.225 1.225 0 1 1 0 2.451 1.225 1.225 0 0 1 0-2.45Zm7.326 0a1.225 1.225 0 1 1 0 2.451 1.225 1.225 0 0 1 0-2.45Zm7.328 0a1.225 1.225 0 1 1 0 2.451 1.225 1.225 0 0 1 0-2.45Zm7.325 0a1.227 1.227 0 0 1 .867 2.092 1.227 1.227 0 0 1-2.092-.866 1.224 1.224 0 0 1 1.225-1.226Zm7.328 0a1.227 1.227 0 0 1 .867 2.092 1.227 1.227 0 0 1-2.092-.866 1.224 1.224 0 0 1 1.225-1.226Zm7.326 0a1.225 1.225 0 1 1 0 2.45 1.225 1.225 0 0 1 0-2.45Zm7.328 0a1.225 1.225 0 1 1 0 2.45 1.225 1.225 0 0 1 0-2.45Zm7.325 0a1.227 1.227 0 0 1 .867 2.092 1.227 1.227 0 0 1-1.999-1.336 1.232 1.232 0 0 1 1.135-.756h-.003Zm7.326 0a1.225 1.225 0 1 1 0 2.45 1.225 1.225 0 0 1 0-2.45Zm7.328 0a1.225 1.225 0 1 1 0 2.45 1.225 1.225 0 0 1 0-2.45Zm7.325 0a1.227 1.227 0 0 1 .867 2.092 1.227 1.227 0 0 1-1.999-1.335 1.229 1.229 0 0 1 1.132-.757ZM2.706 81.1a1.225 1.225 0 1 1 0 2.45 1.225 1.225 0 0 1 0-2.45Zm7.325 0a1.225 1.225 0 1 1 0 2.45 1.225 1.225 0 0 1 0-2.45Zm7.328 0a1.225 1.225 0 1 1 0 2.45 1.225 1.225 0 0 1 0-2.45Zm7.326 0a1.225 1.225 0 1 1 0 2.45 1.225 1.225 0 0 1 0-2.45Zm7.328 0a1.225 1.225 0 1 1 0 2.45 1.225 1.225 0 0 1 0-2.45Zm7.325 0a1.225 1.225 0 1 1 0 2.45 1.225 1.225 0 0 1 0-2.45Zm7.328 0a1.225 1.225 0 1 1 0 2.45 1.225 1.225 0 0 1 0-2.45Zm7.326 0a1.225 1.225 0 1 1 0 2.45 1.225 1.225 0 0 1 0-2.45Zm7.325 0a1.225 1.225 0 1 1-.462.09c.15-.061.31-.092.472-.09h-.01Zm7.328 0a1.225 1.225 0 1 1 0 2.45 1.225 1.225 0 0 1 0-2.45Zm7.326 0a1.225 1.225 0 1 1 0 2.45 1.225 1.225 0 0 1 0-2.45Zm7.328 0a1.225 1.225 0 1 1 0 2.45 1.225 1.225 0 0 1 0-2.45Zm7.325 0a1.225 1.225 0 1 1 0 2.45 1.225 1.225 0 0 1 0-2.45Zm7.326 0a1.225 1.225 0 1 1 0 2.45 1.225 1.225 0 0 1 0-2.45Zm7.328 0a1.225 1.225 0 1 1 0 2.448 1.225 1.225 0 0 1 0-2.449Zm7.325 0a1.227 1.227 0 0 1 .867 2.09 1.227 1.227 0 0 1-2.092-.866 1.236 1.236 0 0 1 .359-.866 1.233 1.233 0 0 1 .866-.359Zm7.328 0a1.227 1.227 0 0 1 .867 2.09 1.227 1.227 0 0 1-1.999-1.334 1.23 1.23 0 0 1 1.132-.757Zm7.326 0a1.225 1.225 0 1 1-.003 0h.003Zm7.328 0a1.225 1.225 0 1 1 0 2.448 1.225 1.225 0 0 1 0-2.449Zm7.325 0a1.227 1.227 0 0 1 .867 2.09 1.227 1.227 0 0 1-1.999-1.334 1.23 1.23 0 0 1 1.132-.757Zm7.326 0a1.225 1.225 0 1 1 0 2.448 1.225 1.225 0 0 1 0-2.449Zm7.328 0a1.225 1.225 0 1 1 0 2.448 1.225 1.225 0 0 1 0-2.449ZM-1.194 85.093a1.225 1.225 0 1 1 0 2.451 1.225 1.225 0 0 1 0-2.45Zm7.327 0a1.225 1.225 0 1 1 0 2.451 1.225 1.225 0 0 1 0-2.45Zm7.326 0a1.225 1.225 0 1 1 0 2.451 1.225 1.225 0 0 1 0-2.45Zm7.328 0a1.225 1.225 0 1 1 0 2.45 1.225 1.225 0 0 1 0-2.45Zm7.325 0a1.226 1.226 0 1 1 0 2.452 1.226 1.226 0 0 1 0-2.452Zm7.326 0a1.225 1.225 0 1 1 0 2.45 1.225 1.225 0 0 1 0-2.45Zm7.328 0a1.225 1.225 0 1 1 0 2.451 1.225 1.225 0 0 1 0-2.45Zm7.325 0a1.225 1.225 0 1 1 0 2.451 1.225 1.225 0 0 1 0-2.45Zm7.328 0a1.225 1.225 0 1 1-.012 0h.012Zm7.326 0a1.225 1.225 0 1 1 0 2.451 1.225 1.225 0 0 1 0-2.45Zm7.328 0a1.225 1.225 0 1 1 0 2.45 1.225 1.225 0 0 1 0-2.45Zm7.325 0a1.225 1.225 0 1 1 0 2.451 1.225 1.225 0 0 1 0-2.45Zm7.326 0a1.225 1.225 0 1 1 0 2.451 1.225 1.225 0 0 1 0-2.45Zm7.328 0a1.225 1.225 0 1 1 0 2.451 1.225 1.225 0 0 1 0-2.45Zm7.325 0a1.227 1.227 0 0 1 1.226 1.225 1.224 1.224 0 0 1-2.092.867 1.224 1.224 0 0 1 .866-2.092Zm7.328 0a1.227 1.227 0 0 1 1.226 1.225 1.224 1.224 0 0 1-2.092.867 1.224 1.224 0 0 1 .866-2.092Zm7.326 0a1.225 1.225 0 1 1 0 2.45 1.225 1.225 0 0 1 0-2.45Zm7.328 0a1.225 1.225 0 1 1 0 2.45 1.225 1.225 0 0 1 0-2.45Zm7.325 0a1.227 1.227 0 0 1 1.226 1.225 1.224 1.224 0 0 1-2.092.867 1.224 1.224 0 0 1 .869-2.092h-.003Zm7.326 0a1.225 1.225 0 1 1 0 2.45 1.225 1.225 0 0 1 0-2.45Zm7.328 0a1.225 1.225 0 1 1 0 2.45 1.225 1.225 0 0 1 0-2.45Zm7.325 0a1.227 1.227 0 0 1 1.226 1.225 1.224 1.224 0 0 1-2.092.867 1.224 1.224 0 0 1 .866-2.092ZM2.706 89.112a1.225 1.225 0 1 1 0 2.45 1.225 1.225 0 0 1 0-2.45Zm7.325 0a1.225 1.225 0 1 1 0 2.45 1.225 1.225 0 0 1 0-2.45Zm7.328 0a1.225 1.225 0 1 1 0 2.45 1.225 1.225 0 0 1 0-2.45Zm7.326 0a1.225 1.225 0 1 1 0 2.45 1.225 1.225 0 0 1 0-2.45Zm7.328 0a1.225 1.225 0 1 1 0 2.45 1.225 1.225 0 0 1 0-2.45Zm7.325 0a1.225 1.225 0 1 1 0 2.45 1.225 1.225 0 0 1 0-2.45Zm7.328 0a1.225 1.225 0 1 1 0 2.45 1.225 1.225 0 0 1 0-2.45Zm7.326 0a1.225 1.225 0 1 1 0 2.45 1.225 1.225 0 0 1 0-2.45Zm7.325 0a1.225 1.225 0 1 1-.462.09c.15-.06.31-.091.472-.09h-.01Zm7.328 0a1.225 1.225 0 1 1 0 2.45 1.225 1.225 0 0 1 0-2.45Zm7.326 0a1.225 1.225 0 1 1 0 2.45 1.225 1.225 0 0 1 0-2.45Zm7.328 0a1.225 1.225 0 1 1 0 2.45 1.225 1.225 0 0 1 0-2.45Zm7.325 0a1.225 1.225 0 1 1 0 2.45 1.225 1.225 0 0 1 0-2.45Zm7.326 0a1.225 1.225 0 1 1 0 2.45 1.225 1.225 0 0 1 0-2.45Zm7.328 0a1.225 1.225 0 1 1 0 2.449 1.225 1.225 0 0 1 0-2.45Zm7.325 0a1.227 1.227 0 0 1 .867 2.091 1.227 1.227 0 0 1-2.092-.866 1.236 1.236 0 0 1 .359-.866 1.233 1.233 0 0 1 .866-.36Zm7.328 0a1.227 1.227 0 0 1 .867 2.091 1.227 1.227 0 0 1-1.999-1.335 1.23 1.23 0 0 1 1.132-.756Zm7.326 0a1.225 1.225 0 1 1-.003 0h.003Zm7.328 0a1.225 1.225 0 1 1 0 2.449 1.225 1.225 0 0 1 0-2.45Zm7.325 0a1.227 1.227 0 0 1 .867 2.091 1.227 1.227 0 0 1-1.999-1.335 1.23 1.23 0 0 1 1.132-.756Zm7.326 0a1.225 1.225 0 1 1 0 2.449 1.225 1.225 0 0 1 0-2.45Zm7.328 0a1.225 1.225 0 1 1 0 2.449 1.225 1.225 0 0 1 0-2.45ZM-1.195 93.104a1.225 1.225 0 1 1 0 2.45 1.225 1.225 0 0 1 0-2.45Zm7.328 0a1.225 1.225 0 1 1 0 2.45 1.225 1.225 0 0 1 0-2.45Zm7.325 0a1.225 1.225 0 1 1 0 2.45 1.225 1.225 0 0 1 0-2.45Zm7.328 0a1.225 1.225 0 1 1 0 2.45 1.225 1.225 0 0 1 0-2.45Zm7.326 0a1.225 1.225 0 1 1 0 2.45 1.225 1.225 0 0 1 0-2.45Zm7.325 0a1.225 1.225 0 1 1 0 2.45 1.225 1.225 0 0 1 0-2.45Zm7.328 0a1.225 1.225 0 1 1 0 2.45 1.225 1.225 0 0 1 0-2.45Zm7.326 0a1.225 1.225 0 1 1 0 2.45 1.225 1.225 0 0 1 0-2.45Zm7.328 0a1.225 1.225 0 1 1-.013 0h.013Zm7.325 0a1.225 1.225 0 1 1 0 2.45 1.225 1.225 0 0 1 0-2.45Zm7.328 0a1.225 1.225 0 1 1 0 2.45 1.225 1.225 0 0 1 0-2.45Zm7.326 0a1.225 1.225 0 1 1 0 2.45 1.225 1.225 0 0 1 0-2.45Zm7.325 0a1.225 1.225 0 1 1 0 2.45 1.225 1.225 0 0 1 0-2.45Zm7.328 0a1.225 1.225 0 1 1 0 2.45 1.225 1.225 0 0 1 0-2.45Zm7.326 0a1.225 1.225 0 1 1 0 2.449 1.225 1.225 0 0 1 0-2.45Zm7.328 0a1.226 1.226 0 1 1-.001 2.452 1.226 1.226 0 0 1 .001-2.452Zm7.325 0a1.227 1.227 0 0 1 .867 2.091 1.227 1.227 0 0 1-2.092-.866 1.224 1.224 0 0 1 1.225-1.225Zm7.328 0a1.223 1.223 0 0 1 1.225 1.225 1.224 1.224 0 1 1-1.225-1.225Zm7.325 0a1.227 1.227 0 0 1 .867 2.091 1.227 1.227 0 0 1-2.092-.866 1.221 1.221 0 0 1 .36-.867 1.222 1.222 0 0 1 .868-.358h-.003Zm7.326 0a1.223 1.223 0 0 1 1.225 1.225 1.224 1.224 0 1 1-1.225-1.225Zm7.328 0a1.223 1.223 0 0 1 1.225 1.225 1.224 1.224 0 1 1-1.225-1.225Zm7.325 0a1.227 1.227 0 0 1 .867 2.091 1.227 1.227 0 0 1-2.092-.866 1.236 1.236 0 0 1 .359-.866 1.226 1.226 0 0 1 .866-.36Zm7.328 0a1.227 1.227 0 0 1 .867 2.091 1.227 1.227 0 0 1-2.092-.866 1.236 1.236 0 0 1 .359-.866 1.233 1.233 0 0 1 .866-.36ZM2.706 97.125a1.226 1.226 0 1 1 0 2.451 1.226 1.226 0 0 1 0-2.451Zm7.325 0a1.226 1.226 0 1 1 0 2.451 1.226 1.226 0 0 1 0-2.451Zm7.328 0a1.226 1.226 0 1 1 0 2.451 1.226 1.226 0 0 1 0-2.451Zm7.326 0a1.226 1.226 0 1 1 0 2.451 1.226 1.226 0 0 1 0-2.451Zm7.328 0a1.226 1.226 0 1 1 0 2.45 1.226 1.226 0 0 1 0-2.45Zm7.325 0a1.226 1.226 0 1 1 0 2.451 1.226 1.226 0 0 1 0-2.451Zm7.328 0a1.226 1.226 0 1 1 0 2.451 1.226 1.226 0 0 1 0-2.451Zm7.326 0a1.226 1.226 0 1 1 0 2.451 1.226 1.226 0 0 1 0-2.451Zm7.325 0a1.226 1.226 0 1 1-.462.09c.15-.06.31-.091.472-.09h-.01Zm7.328 0a1.226 1.226 0 1 1 0 2.451 1.226 1.226 0 0 1 0-2.451Zm7.326 0a1.226 1.226 0 1 1 0 2.451 1.226 1.226 0 0 1 0-2.451Zm7.328 0a1.226 1.226 0 1 1 0 2.451 1.226 1.226 0 0 1 0-2.451Zm7.325 0a1.226 1.226 0 1 1 0 2.451 1.226 1.226 0 0 1 0-2.451Zm7.326 0a1.226 1.226 0 1 1 0 2.451 1.226 1.226 0 0 1 0-2.451Zm7.328 0a1.225 1.225 0 1 1 0 2.45 1.225 1.225 0 0 1 0-2.45Zm7.325 0a1.227 1.227 0 0 1 1.226 1.225 1.224 1.224 0 1 1-1.226-1.225Zm7.328 0a1.227 1.227 0 0 1 1.226 1.225 1.224 1.224 0 1 1-1.226-1.225Zm7.326 0a1.225 1.225 0 1 1-.003 0h.003Zm7.328 0a1.225 1.225 0 1 1 0 2.45 1.225 1.225 0 0 1 0-2.45Zm7.325 0a1.227 1.227 0 0 1 1.226 1.225 1.229 1.229 0 0 1-1.226 1.225 1.223 1.223 0 0 1-1.132-1.694 1.23 1.23 0 0 1 1.132-.756Zm7.326 0a1.225 1.225 0 1 1 0 2.45 1.225 1.225 0 0 1 0-2.45Zm7.328 0a1.225 1.225 0 1 1 0 2.45 1.225 1.225 0 0 1 0-2.45ZM-1.195 101.119a1.225 1.225 0 1 1 0 2.45 1.225 1.225 0 0 1 0-2.45Zm7.328 0a1.225 1.225 0 1 1 0 2.45 1.225 1.225 0 0 1 0-2.45Zm7.325 0a1.225 1.225 0 1 1 0 2.45 1.225 1.225 0 0 1 0-2.45Zm7.328 0a1.225 1.225 0 1 1 0 2.45 1.225 1.225 0 0 1 0-2.45Zm7.326 0a1.225 1.225 0 1 1 0 2.45 1.225 1.225 0 0 1 0-2.45Zm7.325 0a1.225 1.225 0 1 1 0 2.45 1.225 1.225 0 0 1 0-2.45Zm7.328 0a1.225 1.225 0 1 1 0 2.45 1.225 1.225 0 0 1 0-2.45Zm7.326 0a1.225 1.225 0 1 1 0 2.45 1.225 1.225 0 0 1 0-2.45Zm7.328 0a1.225 1.225 0 1 1-.013 0h.013Zm7.325 0a1.225 1.225 0 1 1 0 2.45 1.225 1.225 0 0 1 0-2.45Zm7.328 0a1.225 1.225 0 1 1 0 2.45 1.225 1.225 0 0 1 0-2.45Zm7.326 0a1.225 1.225 0 1 1 0 2.45 1.225 1.225 0 0 1 0-2.45Zm7.325 0a1.225 1.225 0 1 1 0 2.45 1.225 1.225 0 0 1 0-2.45Zm7.328 0a1.225 1.225 0 1 1 0 2.45 1.225 1.225 0 0 1 0-2.45Zm7.326 0a1.224 1.224 0 1 1-.867 2.091 1.222 1.222 0 0 1 0-1.732c.23-.23.542-.359.867-.359Zm7.328 0a1.226 1.226 0 1 1-.001 2.451 1.226 1.226 0 0 1 .001-2.451Zm7.325 0a1.226 1.226 0 1 1 0 2.452 1.226 1.226 0 0 1 0-2.452Zm7.328 0a1.222 1.222 0 0 1 1.225 1.225 1.222 1.222 0 0 1-1.225 1.225 1.226 1.226 0 1 1 0-2.45Zm7.325 0a1.226 1.226 0 1 1-.467.092c.149-.061.309-.092.47-.092h-.003Zm7.326 0a1.222 1.222 0 0 1 1.225 1.225 1.222 1.222 0 0 1-1.225 1.225 1.226 1.226 0 1 1 0-2.45Zm7.328 0a1.222 1.222 0 0 1 1.225 1.225 1.222 1.222 0 0 1-1.225 1.225 1.226 1.226 0 1 1 0-2.45Zm7.325 0a1.226 1.226 0 1 1 0 2.452 1.226 1.226 0 0 1 0-2.452Zm7.328 0a1.226 1.226 0 1 1 0 2.452 1.226 1.226 0 0 1 0-2.452ZM2.706 105.138a1.225 1.225 0 1 1 0 2.45 1.225 1.225 0 0 1 0-2.45Zm7.325 0a1.225 1.225 0 1 1 0 2.45 1.225 1.225 0 0 1 0-2.45Zm7.328 0a1.225 1.225 0 1 1 0 2.45 1.225 1.225 0 0 1 0-2.45Zm7.326 0a1.225 1.225 0 1 1 0 2.45 1.225 1.225 0 0 1 0-2.45Zm7.328 0a1.224 1.224 0 1 1 0 2.449 1.224 1.224 0 0 1 0-2.449Zm7.325 0a1.225 1.225 0 1 1 0 2.45 1.225 1.225 0 0 1 0-2.45Zm7.328 0a1.225 1.225 0 1 1 0 2.45 1.225 1.225 0 0 1 0-2.45Zm7.326 0a1.225 1.225 0 1 1 0 2.45 1.225 1.225 0 0 1 0-2.45Zm7.325 0a1.224 1.224 0 1 1-.462.09c.15-.061.31-.092.472-.09h-.01Zm7.328 0a1.225 1.225 0 1 1 0 2.45 1.225 1.225 0 0 1 0-2.45Zm7.326 0a1.225 1.225 0 1 1 0 2.45 1.225 1.225 0 0 1 0-2.45Zm7.328 0a1.225 1.225 0 1 1 0 2.45 1.225 1.225 0 0 1 0-2.45Zm7.325 0a1.225 1.225 0 1 1 0 2.45 1.225 1.225 0 0 1 0-2.45Zm7.326 0a1.225 1.225 0 1 1 0 2.45 1.225 1.225 0 0 1 0-2.45Zm7.328 0a1.224 1.224 0 1 1-.867 2.091 1.222 1.222 0 0 1 .398-1.998c.148-.062.308-.093.469-.093Zm7.325 0a1.226 1.226 0 1 1 0 2.452 1.226 1.226 0 0 1 0-2.452Zm7.328 0a1.226 1.226 0 1 1 0 2.452 1.226 1.226 0 0 1 0-2.452Zm7.326 0a1.224 1.224 0 1 1-.867 2.091 1.222 1.222 0 0 1-.001-1.732c.23-.229.541-.359.865-.359h.003Zm7.328 0a1.224 1.224 0 1 1-.867 2.091 1.222 1.222 0 0 1 .398-1.998c.148-.062.308-.093.469-.093Zm7.325 0a1.226 1.226 0 1 1 0 2.452 1.226 1.226 0 0 1 0-2.452Zm7.326 0a1.224 1.224 0 1 1-.867 2.091 1.222 1.222 0 0 1 .398-1.998c.148-.062.308-.093.469-.093Zm7.328 0a1.224 1.224 0 1 1-.867 2.091 1.222 1.222 0 0 1 .398-1.998c.148-.062.308-.093.469-.093ZM-1.195 109.132a1.225 1.225 0 1 1 0 2.45 1.225 1.225 0 0 1 0-2.45Zm7.328 0a1.225 1.225 0 1 1 0 2.45 1.225 1.225 0 0 1 0-2.45Zm7.325 0a1.225 1.225 0 1 1 0 2.45 1.225 1.225 0 0 1 0-2.45Zm7.328 0a1.225 1.225 0 1 1 0 2.45 1.225 1.225 0 0 1 0-2.45Zm7.326 0a1.225 1.225 0 1 1 0 2.45 1.225 1.225 0 0 1 0-2.45Zm7.325 0a1.225 1.225 0 1 1 0 2.45 1.225 1.225 0 0 1 0-2.45Zm7.328 0a1.225 1.225 0 1 1 0 2.45 1.225 1.225 0 0 1 0-2.45Zm7.326 0a1.225 1.225 0 1 1 0 2.45 1.225 1.225 0 0 1 0-2.45Zm7.328 0a1.225 1.225 0 1 1-.013 0h.013Zm7.325 0a1.225 1.225 0 1 1 0 2.45 1.225 1.225 0 0 1 0-2.45Zm7.328 0a1.225 1.225 0 1 1 0 2.45 1.225 1.225 0 0 1 0-2.45Zm7.326 0a1.225 1.225 0 1 1 0 2.45 1.225 1.225 0 0 1 0-2.45Zm7.325 0a1.225 1.225 0 1 1 0 2.45 1.225 1.225 0 0 1 0-2.45Zm7.328 0a1.225 1.225 0 1 1 0 2.45 1.225 1.225 0 0 1 0-2.45Zm7.326 0a1.224 1.224 0 0 1 .866 2.092 1.228 1.228 0 0 1-1.733 0 1.226 1.226 0 0 1 .867-2.092Zm7.328 0a1.226 1.226 0 1 1-.001 2.451 1.226 1.226 0 0 1 .001-2.451Zm7.325 0a1.226 1.226 0 1 1 0 2.452 1.226 1.226 0 0 1 0-2.452Zm7.328 0a1.222 1.222 0 0 1 1.225 1.225 1.226 1.226 0 1 1-1.225-1.225Zm7.325 0a1.226 1.226 0 1 1-.467.093c.149-.062.309-.093.47-.093h-.003Zm7.326 0a1.222 1.222 0 0 1 1.225 1.225 1.226 1.226 0 1 1-1.225-1.225Zm7.328 0a1.222 1.222 0 0 1 1.225 1.225 1.226 1.226 0 1 1-1.225-1.225Zm7.325 0a1.226 1.226 0 1 1 0 2.452 1.226 1.226 0 0 1 0-2.452Zm7.328 0a1.226 1.226 0 1 1 0 2.452 1.226 1.226 0 0 1 0-2.452ZM2.706 113.141a1.225 1.225 0 1 1 0 2.45 1.225 1.225 0 0 1 0-2.45Zm7.326 0a1.225 1.225 0 1 1 0 2.45 1.225 1.225 0 0 1 0-2.45Zm7.328 0a1.225 1.225 0 1 1 0 2.45 1.225 1.225 0 0 1 0-2.45Zm7.325 0a1.225 1.225 0 1 1 0 2.45 1.225 1.225 0 0 1 0-2.45Zm7.328 0a1.225 1.225 0 1 1 0 2.45 1.225 1.225 0 0 1 0-2.45Zm7.326 0a1.225 1.225 0 1 1 0 2.45 1.225 1.225 0 0 1 0-2.45Zm7.328 0a1.225 1.225 0 1 1 0 2.45 1.225 1.225 0 0 1 0-2.45Zm7.325 0a1.225 1.225 0 1 1 0 2.45 1.225 1.225 0 0 1 0-2.45Zm7.336 0a1.225 1.225 0 1 1 0 2.45 1.225 1.225 0 0 1 0-2.45Zm7.328 0a1.225 1.225 0 1 1-.01 0h.01Zm7.325 0a1.225 1.225 0 1 1-.01 0h.01Zm7.328 0a1.225 1.225 0 1 1-.01 0h.01Zm7.326 0a1.225 1.225 0 1 1-.01 0h.01Zm7.325 0a1.225 1.225 0 1 1-.01 0h.01Zm7.328 0a1.226 1.226 0 1 1-.01 0h.01Zm7.326 0a1.224 1.224 0 1 1-.867 2.091 1.222 1.222 0 0 1-.003-1.729c.227-.229.536-.36.86-.362h.01Zm7.328 0a1.224 1.224 0 1 1-.867 2.091 1.222 1.222 0 0 1-.003-1.729c.227-.229.536-.36.86-.362h.01Zm7.313 0a1.224 1.224 0 1 1-.867 2.091 1.222 1.222 0 0 1 0-1.732c.23-.23.542-.359.867-.359Zm7.328 0a1.224 1.224 0 1 1-.867 2.091 1.222 1.222 0 0 1 .001-1.733c.114-.114.25-.204.398-.266.149-.061.309-.092.47-.092h-.002Zm7.325 0a1.226 1.226 0 1 1-.467.092c.149-.061.309-.092.47-.092h-.003Zm7.326 0a1.224 1.224 0 1 1-.867 2.091 1.222 1.222 0 0 1 .001-1.733c.114-.114.25-.204.398-.266.149-.061.309-.092.47-.092h-.002Zm7.328 0a1.224 1.224 0 1 1-.867 2.091 1.222 1.222 0 0 1 .001-1.733 1.23 1.23 0 0 1 .868-.358h-.002ZM-1.194 117.145a1.225 1.225 0 1 1 0 2.45 1.225 1.225 0 0 1 0-2.45Zm7.327 0a1.225 1.225 0 1 1 0 2.45 1.225 1.225 0 0 1 0-2.45Zm7.326 0a1.225 1.225 0 1 1 0 2.45 1.225 1.225 0 0 1 0-2.45Zm7.328 0a1.224 1.224 0 1 1 0 2.449 1.224 1.224 0 0 1 0-2.449Zm7.325 0a1.225 1.225 0 1 1 0 2.45 1.225 1.225 0 0 1 0-2.45Zm7.326 0a1.224 1.224 0 1 1 0 2.449 1.224 1.224 0 0 1 0-2.449Zm7.328 0a1.225 1.225 0 1 1 0 2.45 1.225 1.225 0 0 1 0-2.45Zm7.325 0a1.225 1.225 0 1 1 0 2.45 1.225 1.225 0 0 1 0-2.45Zm7.328 0a1.225 1.225 0 1 1-.012 0h.012Zm7.326 0a1.225 1.225 0 1 1 0 2.45 1.225 1.225 0 0 1 0-2.45Zm7.328 0a1.224 1.224 0 1 1 0 2.449 1.224 1.224 0 0 1 0-2.449Zm7.325 0a1.225 1.225 0 1 1 0 2.45 1.225 1.225 0 0 1 0-2.45Zm7.326 0a1.225 1.225 0 1 1 0 2.45 1.225 1.225 0 0 1 0-2.45Zm7.328 0a1.225 1.225 0 1 1 0 2.45 1.225 1.225 0 0 1 0-2.45Zm7.325 0a1.226 1.226 0 1 1 0 2.452 1.226 1.226 0 0 1 0-2.452Zm7.328 0a1.226 1.226 0 1 1 0 2.452 1.226 1.226 0 0 1 0-2.452Zm7.326 0a1.224 1.224 0 1 1 0 2.45 1.23 1.23 0 0 1-.867-.358 1.228 1.228 0 0 1 .867-2.092Zm7.328 0a1.224 1.224 0 1 1 0 2.45 1.226 1.226 0 0 1 0-2.45Zm7.325 0a1.226 1.226 0 1 1-.467.093c.149-.062.309-.093.47-.093h-.003Zm7.326 0a1.224 1.224 0 1 1 0 2.45 1.226 1.226 0 0 1 0-2.45Zm7.328 0a1.224 1.224 0 1 1 0 2.45 1.226 1.226 0 0 1 0-2.45Zm7.325 0a1.226 1.226 0 1 1 0 2.452 1.226 1.226 0 0 1 0-2.452ZM2.706 121.164a1.228 1.228 0 0 1 1.225 1.225 1.225 1.225 0 1 1-1.225-1.225Zm7.325 0a1.228 1.228 0 0 1 1.226 1.225 1.225 1.225 0 1 1-1.226-1.225Zm7.328 0a1.228 1.228 0 0 1 1.226 1.225 1.225 1.225 0 1 1-1.226-1.225Zm7.326 0a1.228 1.228 0 0 1 1.225 1.225 1.225 1.225 0 1 1-1.225-1.225Zm7.328 0a1.228 1.228 0 0 1 1.225 1.225 1.224 1.224 0 1 1-1.225-1.225Zm7.325 0a1.228 1.228 0 0 1 1.226 1.225 1.225 1.225 0 1 1-1.226-1.225Zm7.328 0a1.228 1.228 0 0 1 1.226 1.225 1.225 1.225 0 1 1-1.226-1.225Zm7.326 0a1.228 1.228 0 0 1 1.225 1.225 1.225 1.225 0 1 1-1.225-1.225Zm7.325 0a1.228 1.228 0 0 1 1.226 1.225 1.225 1.225 0 1 1-1.216-1.225h-.01Zm7.328 0a1.228 1.228 0 0 1 1.226 1.225 1.225 1.225 0 1 1-1.226-1.225Zm7.326 0a1.228 1.228 0 0 1 1.225 1.225 1.225 1.225 0 1 1-1.225-1.225Zm7.328 0a1.228 1.228 0 0 1 1.225 1.225 1.225 1.225 0 1 1-1.225-1.225Zm7.325 0a1.228 1.228 0 0 1 1.226 1.225 1.225 1.225 0 1 1-1.226-1.225Zm7.326 0a1.228 1.228 0 0 1 1.225 1.225 1.225 1.225 0 1 1-1.225-1.225Zm7.328 0a1.227 1.227 0 0 1 1.225 1.225 1.224 1.224 0 0 1-2.092.866 1.224 1.224 0 0 1 .867-2.091Zm7.325 0a1.226 1.226 0 1 1 0 2.45 1.226 1.226 0 0 1 0-2.45Zm7.328 0a1.226 1.226 0 1 1 0 2.45 1.226 1.226 0 0 1 0-2.45Zm7.326 0a1.227 1.227 0 0 1 1.225 1.225 1.224 1.224 0 0 1-2.092.866 1.224 1.224 0 0 1 .864-2.091h.003Zm7.328 0a1.227 1.227 0 0 1 1.225 1.225 1.224 1.224 0 0 1-2.092.866 1.224 1.224 0 0 1 .867-2.091Zm7.325 0c.325 0 .637.129.867.358a1.228 1.228 0 0 1-.867 2.092 1.222 1.222 0 0 1-1.225-1.225 1.219 1.219 0 0 1 .756-1.132c.149-.062.308-.093.469-.093Zm7.326 0a1.227 1.227 0 0 1 1.225 1.225 1.224 1.224 0 0 1-2.092.866 1.224 1.224 0 0 1 .867-2.091Zm7.328 0a1.227 1.227 0 0 1 1.225 1.225 1.224 1.224 0 0 1-2.092.866 1.224 1.224 0 0 1 .867-2.091ZM-1.196 125.148a1.229 1.229 0 0 1 1.226 1.226 1.225 1.225 0 1 1-1.226-1.226Zm7.328 0a1.229 1.229 0 0 1 1.226 1.226 1.225 1.225 0 1 1-1.226-1.226Zm7.326 0a1.229 1.229 0 0 1 1.225 1.226 1.225 1.225 0 1 1-1.225-1.226Zm7.328 0a1.229 1.229 0 0 1 1.225 1.226 1.224 1.224 0 1 1-1.225-1.226Zm7.325 0a1.23 1.23 0 0 1 1.226 1.226 1.225 1.225 0 1 1-1.226-1.226Zm7.326 0a1.229 1.229 0 0 1 1.225 1.226 1.224 1.224 0 1 1-1.225-1.226Zm7.328 0a1.229 1.229 0 0 1 1.225 1.226 1.225 1.225 0 1 1-1.225-1.226Zm7.325 0a1.229 1.229 0 0 1 1.226 1.226 1.225 1.225 0 1 1-1.226-1.226Zm7.328 0a1.229 1.229 0 0 1 1.226 1.226 1.225 1.225 0 1 1-1.238-1.226h.012Zm7.326 0a1.229 1.229 0 0 1 1.225 1.226 1.225 1.225 0 1 1-1.225-1.226Zm7.328 0a1.229 1.229 0 0 1 1.225 1.226 1.225 1.225 0 1 1-1.225-1.226Zm7.325 0a1.229 1.229 0 0 1 1.225 1.226 1.225 1.225 0 1 1-1.225-1.226Zm7.326 0a1.229 1.229 0 0 1 1.225 1.226 1.225 1.225 0 1 1-1.225-1.226Zm7.328 0a1.229 1.229 0 0 1 1.225 1.226 1.225 1.225 0 1 1-1.225-1.226Zm7.325 0c.325 0 .637.13.867.359a1.23 1.23 0 0 1 0 1.733 1.226 1.226 0 1 1-.867-2.092Zm7.328 0a1.226 1.226 0 0 1 0 2.451 1.222 1.222 0 0 1-1.225-1.225 1.226 1.226 0 0 1 1.225-1.226Zm7.326 0a1.228 1.228 0 0 1 1.225 1.226 1.224 1.224 0 0 1-2.092.866 1.224 1.224 0 0 1 .867-2.092Zm7.327 0a1.226 1.226 0 1 1 0 2.452 1.226 1.226 0 0 1 0-2.452Zm7.328 0a1.226 1.226 0 1 1 0 2.452 1.226 1.226 0 0 1 0-2.452Zm7.326 0a1.226 1.226 0 1 1-.003 0h.003Zm7.328 0a1.226 1.226 0 1 1-.003 0h.003Zm7.325 0a1.226 1.226 0 1 1-.002 0h.002Zm7.328 0a1.226 1.226 0 1 1-.002 0h.002ZM2.706 129.177a1.228 1.228 0 0 1 1.225 1.225 1.225 1.225 0 1 1-1.225-1.225Zm7.325 0a1.228 1.228 0 0 1 1.226 1.225 1.225 1.225 0 1 1-1.226-1.225Zm7.328 0a1.228 1.228 0 0 1 1.225 1.225 1.225 1.225 0 1 1-1.225-1.225Zm7.326 0a1.228 1.228 0 0 1 1.225 1.225 1.225 1.225 0 1 1-1.225-1.225Zm7.328 0a1.228 1.228 0 0 1 1.225 1.225 1.224 1.224 0 1 1-1.225-1.225Zm7.325 0a1.227 1.227 0 0 1 0 2.45 1.225 1.225 0 1 1 0-2.45Zm7.328 0a1.228 1.228 0 0 1 1.225 1.225 1.225 1.225 0 1 1-1.225-1.225Zm7.326 0a1.228 1.228 0 0 1 1.225 1.225 1.225 1.225 0 1 1-1.225-1.225Zm7.325 0a1.228 1.228 0 0 1 1.225 1.225 1.225 1.225 0 1 1-1.215-1.225h-.01Zm7.328 0a1.228 1.228 0 0 1 1.225 1.225 1.225 1.225 0 1 1-1.225-1.225Zm7.326 0a1.228 1.228 0 0 1 1.225 1.225 1.225 1.225 0 1 1-1.225-1.225Zm7.328 0a1.228 1.228 0 0 1 1.225 1.225 1.225 1.225 0 1 1-1.225-1.225Zm7.325 0a1.228 1.228 0 0 1 1.225 1.225 1.225 1.225 0 1 1-1.225-1.225Zm7.326 0a1.228 1.228 0 0 1 1.225 1.225 1.225 1.225 0 1 1-1.225-1.225Zm7.327 0a1.226 1.226 0 1 1 0 2.45 1.226 1.226 0 0 1 0-2.45Zm7.326 0a1.225 1.225 0 1 1 0 2.45 1.225 1.225 0 0 1 0-2.45Zm7.328 0a1.225 1.225 0 1 1 0 2.45 1.225 1.225 0 0 1 0-2.45Zm7.325 0a1.226 1.226 0 1 1-.002 0h.002Zm7.328 0a1.226 1.226 0 1 1 0 2.45 1.226 1.226 0 0 1 0-2.45Zm7.326 0a1.225 1.225 0 1 1 0 2.45 1.225 1.225 0 0 1 0-2.45Zm7.325 0a1.226 1.226 0 1 1 0 2.45 1.226 1.226 0 0 1 0-2.45Zm7.328 0a1.226 1.226 0 1 1 0 2.45 1.226 1.226 0 0 1 0-2.45Zm7.326 0a1.225 1.225 0 1 1 0 2.45 1.225 1.225 0 0 1 0-2.45ZM-1.196 133.171a1.225 1.225 0 1 1 0 2.45 1.225 1.225 0 0 1 0-2.45Zm7.328 0a1.225 1.225 0 1 1 0 2.45 1.225 1.225 0 0 1 0-2.45Zm7.326 0a1.225 1.225 0 1 1 0 2.45 1.225 1.225 0 0 1 0-2.45Zm7.328 0a1.225 1.225 0 1 1 0 2.45 1.225 1.225 0 0 1 0-2.45Zm7.325 0a1.225 1.225 0 1 1 0 2.45 1.225 1.225 0 0 1 0-2.45Zm7.326 0a1.225 1.225 0 1 1 0 2.45 1.225 1.225 0 0 1 0-2.45Zm7.328 0a1.225 1.225 0 1 1 0 2.45 1.225 1.225 0 0 1 0-2.45Zm7.325 0a1.225 1.225 0 1 1 0 2.45 1.225 1.225 0 0 1 0-2.45Zm7.328 0a1.225 1.225 0 1 1-.012 0h.012Zm7.326 0a1.225 1.225 0 1 1 0 2.45 1.225 1.225 0 0 1 0-2.45Zm7.328 0a1.224 1.224 0 1 1 0 2.449 1.224 1.224 0 0 1 0-2.449Zm7.325 0a1.225 1.225 0 1 1 0 2.45 1.225 1.225 0 0 1 0-2.45Zm7.326 0a1.225 1.225 0 1 1 0 2.45 1.225 1.225 0 0 1 0-2.45Zm7.328 0a1.225 1.225 0 1 1 0 2.45 1.225 1.225 0 0 1 0-2.45Zm7.325 0a1.226 1.226 0 1 1 0 2.452 1.226 1.226 0 0 1 0-2.452Zm7.328 0a1.226 1.226 0 1 1 0 2.452 1.226 1.226 0 0 1 0-2.452Zm7.326 0a1.224 1.224 0 1 1 0 2.448 1.224 1.224 0 0 1 0-2.448Zm7.328 0a1.224 1.224 0 1 1 0 2.448 1.224 1.224 0 0 1 0-2.448Zm7.325 0a1.226 1.226 0 1 1-.467.092c.149-.061.308-.093.47-.092h-.003Zm7.326 0a1.224 1.224 0 1 1 0 2.448 1.224 1.224 0 0 1 0-2.448Zm7.328 0a1.224 1.224 0 1 1 0 2.448 1.224 1.224 0 0 1 0-2.448Zm7.325 0a1.226 1.226 0 1 1 0 2.452 1.226 1.226 0 0 1 0-2.452Zm7.328 0a1.226 1.226 0 1 1 0 2.452 1.226 1.226 0 0 1 0-2.452Zm7.326 0a1.224 1.224 0 1 1 0 2.448 1.224 1.224 0 0 1 0-2.448ZM2.706 137.189a1.229 1.229 0 0 1 1.226 1.226 1.225 1.225 0 1 1-1.226-1.226Zm7.326 0a1.229 1.229 0 0 1 1.225 1.226 1.225 1.225 0 1 1-1.225-1.226Zm7.328 0a1.23 1.23 0 0 1 1.225 1.226 1.225 1.225 0 1 1-1.225-1.226Zm7.325 0a1.23 1.23 0 0 1 1.226 1.226 1.225 1.225 0 1 1-1.226-1.226Zm7.328 0a1.229 1.229 0 0 1 1.226 1.226 1.225 1.225 0 1 1-1.226-1.226Zm7.326 0a1.229 1.229 0 0 1 1.225 1.226 1.225 1.225 0 1 1-1.225-1.226Zm7.328 0a1.229 1.229 0 0 1 1.225 1.226 1.225 1.225 0 1 1-1.225-1.226Zm7.325 0a1.229 1.229 0 0 1 1.226 1.226 1.225 1.225 0 1 1-1.226-1.226Zm7.326 0a1.229 1.229 0 0 1 1.225 1.226 1.225 1.225 0 1 1-1.215-1.226h-.01Zm7.328 0a1.229 1.229 0 0 1 1.225 1.226 1.225 1.225 0 1 1-1.225-1.226Zm7.325 0a1.229 1.229 0 0 1 1.226 1.226 1.225 1.225 0 1 1-1.226-1.226Zm7.328 0a1.229 1.229 0 0 1 1.225 1.226 1.225 1.225 0 1 1-1.225-1.226Zm7.326 0a1.229 1.229 0 0 1 1.225 1.226 1.224 1.224 0 1 1-1.225-1.226Zm7.325 0a1.229 1.229 0 0 1 1.225 1.226 1.225 1.225 0 1 1-1.225-1.226Zm7.328 0c.325 0 .637.13.867.359a1.228 1.228 0 0 1-.867 2.092 1.222 1.222 0 0 1-1.225-1.225 1.215 1.215 0 0 1 .359-.867 1.22 1.22 0 0 1 .866-.359Zm7.326 0a1.228 1.228 0 0 1 1.225 1.226 1.224 1.224 0 0 1-2.092.866 1.224 1.224 0 0 1 .867-2.092Zm7.328 0a1.228 1.228 0 0 1 1.225 1.226 1.224 1.224 0 0 1-2.092.866 1.224 1.224 0 0 1 .867-2.092Zm7.325 0c.325 0 .637.13.867.359a1.23 1.23 0 0 1 0 1.733 1.226 1.226 0 1 1-.869-2.092h.002Zm7.328 0c.325 0 .637.13.867.359a1.23 1.23 0 0 1 0 1.733 1.226 1.226 0 1 1-.867-2.092Zm7.326 0a1.228 1.228 0 0 1 1.225 1.226 1.224 1.224 0 0 1-2.092.866 1.224 1.224 0 0 1 .867-2.092Zm7.325 0c.325 0 .637.13.867.359a1.23 1.23 0 0 1 0 1.733 1.226 1.226 0 1 1-.867-2.092Zm7.328 0a1.226 1.226 0 0 1 0 2.451 1.222 1.222 0 0 1-1.225-1.225 1.215 1.215 0 0 1 .359-.867 1.22 1.22 0 0 1 .866-.359Zm7.326 0a1.228 1.228 0 0 1 1.225 1.226 1.224 1.224 0 0 1-2.092.866 1.224 1.224 0 0 1 .867-2.092Zm7.325 0c.325 0 .637.13.867.359a1.23 1.23 0 0 1 0 1.733 1.226 1.226 0 1 1-.867-2.092ZM-1.196 141.184a1.225 1.225 0 1 1 0 2.45 1.225 1.225 0 0 1 0-2.45Zm7.328 0a1.225 1.225 0 1 1 0 2.45 1.225 1.225 0 0 1 0-2.45Zm7.326 0a1.225 1.225 0 1 1 0 2.45 1.225 1.225 0 0 1 0-2.45Zm7.328 0a1.225 1.225 0 1 1 0 2.45 1.225 1.225 0 0 1 0-2.45Zm7.325 0a1.225 1.225 0 1 1 0 2.45 1.225 1.225 0 0 1 0-2.45Zm7.326 0a1.225 1.225 0 1 1 0 2.45 1.225 1.225 0 0 1 0-2.45Zm7.328 0a1.225 1.225 0 1 1 0 2.45 1.225 1.225 0 0 1 0-2.45Zm7.325 0a1.225 1.225 0 1 1 0 2.45 1.225 1.225 0 0 1 0-2.45Zm7.328 0a1.225 1.225 0 1 1-.012 0h.012Zm7.326 0a1.225 1.225 0 1 1 0 2.45 1.225 1.225 0 0 1 0-2.45Zm7.328 0a1.224 1.224 0 1 1 0 2.449 1.224 1.224 0 0 1 0-2.449Zm7.325 0a1.225 1.225 0 1 1 0 2.45 1.225 1.225 0 0 1 0-2.45Zm7.326 0a1.225 1.225 0 1 1 0 2.45 1.225 1.225 0 0 1 0-2.45Zm7.328 0a1.225 1.225 0 1 1 0 2.45 1.225 1.225 0 0 1 0-2.45Zm7.325 0a1.226 1.226 0 1 1 0 2.452 1.226 1.226 0 0 1 0-2.452Zm7.328 0a1.226 1.226 0 1 1 0 2.452 1.226 1.226 0 0 1 0-2.452Zm7.326 0a1.224 1.224 0 1 1-.867 2.091 1.222 1.222 0 0 1 0-1.732c.23-.23.542-.359.867-.359Zm7.328 0a1.224 1.224 0 1 1-.867 2.091 1.222 1.222 0 0 1 .398-1.998c.148-.061.308-.093.469-.093Zm7.325 0a1.226 1.226 0 1 1-.467.092c.149-.061.308-.092.47-.092h-.003Zm7.326 0a1.224 1.224 0 1 1-.867 2.091 1.222 1.222 0 0 1 .398-1.998c.148-.061.308-.093.469-.093Zm7.328 0a1.224 1.224 0 1 1-.867 2.091 1.222 1.222 0 0 1 .398-1.998c.148-.061.308-.093.469-.093Zm7.325 0a1.226 1.226 0 1 1 0 2.452 1.226 1.226 0 0 1 0-2.452Zm7.328 0a1.226 1.226 0 1 1 0 2.452 1.226 1.226 0 0 1 0-2.452Zm7.326 0a1.224 1.224 0 1 1-.867 2.091 1.222 1.222 0 0 1 .398-1.998c.148-.061.308-.093.469-.093Z"/></g><path d="M31.803 129.913c-.584 0-1.082-.096-1.494-.289a2.675 2.675 0 0 1-.988-.813 3.573 3.573 0 0 1-.546-1.164 5.318 5.318 0 0 1-.175-1.37v-3.729h1.421v3.729c0 .302.027.597.082.886.062.281.162.535.3.762.137.227.318.405.545.536.227.13.508.195.845.195.343 0 .628-.065.855-.195.233-.138.415-.32.545-.546a2.49 2.49 0 0 0 .3-.763c.06-.288.092-.58.092-.875v-3.729h1.41v3.729c0 .501-.06.972-.184 1.411a3.235 3.235 0 0 1-.567 1.164c-.254.33-.584.59-.989.783-.405.185-.889.278-1.452.278Zm6.348.051c-.46 0-.9-.075-1.319-.226a2.967 2.967 0 0 1-1.081-.67l.494-.896c.323.261.639.453.948.577.316.124.618.185.906.185.268 0 .481-.048.639-.144a.469.469 0 0 0 .247-.432c0-.131-.044-.231-.134-.299a1.145 1.145 0 0 0-.391-.196 13.97 13.97 0 0 0-.608-.185 9.699 9.699 0 0 1-.999-.381c-.268-.124-.47-.278-.608-.464-.13-.192-.195-.436-.195-.731 0-.357.089-.663.268-.917.185-.261.439-.463.762-.608.33-.144.714-.216 1.153-.216.385 0 .749.062 1.092.186.343.116.656.309.937.576l-.556.876a3.188 3.188 0 0 0-.783-.464 1.939 1.939 0 0 0-.752-.154c-.144 0-.281.017-.411.051a.698.698 0 0 0-.31.175c-.075.076-.113.186-.113.33 0 .13.034.233.103.309.076.069.186.13.33.185.15.055.333.117.546.186.432.123.796.25 1.091.381.303.13.53.292.68.484.151.185.227.443.227.773 0 .535-.196.954-.587 1.256-.392.302-.917.453-1.576.453Zm5.604 0c-.432 0-.824-.072-1.174-.216a2.758 2.758 0 0 1-.896-.608 2.905 2.905 0 0 1-.577-.885 2.916 2.916 0 0 1-.195-1.061c0-.515.113-.986.34-1.411.233-.426.563-.766.988-1.02.433-.261.941-.392 1.525-.392.59 0 1.095.131 1.514.392.419.254.738.594.958 1.02.226.418.34.872.34 1.359a3.36 3.36 0 0 1-.031.464h-4.172c.028.274.107.515.237.721.138.206.31.364.515.473a1.589 1.589 0 0 0 1.452-.041c.248-.137.416-.316.505-.535l1.185.329c-.13.275-.32.519-.567.732-.24.212-.525.381-.855.504-.33.117-.693.175-1.092.175Zm-1.41-3.234h2.822a1.561 1.561 0 0 0-.237-.711 1.252 1.252 0 0 0-.495-.473 1.372 1.372 0 0 0-.69-.175c-.247 0-.474.058-.68.175a1.35 1.35 0 0 0-.494.473c-.124.2-.2.436-.227.711Zm4.955-4.182 1.803 3.441 1.833-3.441h1.535l-2.658 4.759v2.554h-1.41v-2.575l-2.648-4.738H47.3Zm7.389 7.416a3.09 3.09 0 0 1-1.184-.216 2.678 2.678 0 0 1-.897-.618 2.812 2.812 0 0 1-.556-.896 2.91 2.91 0 0 1-.196-1.061c0-.378.066-.735.196-1.071.13-.337.316-.635.556-.896.248-.261.546-.464.897-.608.35-.151.744-.227 1.184-.227.44 0 .83.076 1.174.227a2.556 2.556 0 0 1 1.453 1.504c.13.336.195.693.195 1.071 0 .371-.065.724-.196 1.061a2.591 2.591 0 0 1-.556.896c-.24.261-.535.467-.886.618a3.09 3.09 0 0 1-1.184.216Zm-1.411-2.791c0 .316.062.597.185.845.124.24.292.429.505.566.213.137.453.206.721.206.26 0 .498-.069.71-.206a1.52 1.52 0 0 0 .505-.577 1.78 1.78 0 0 0 .196-.844c0-.309-.065-.587-.196-.835a1.426 1.426 0 0 0-.504-.576 1.278 1.278 0 0 0-.711-.206c-.268 0-.508.072-.721.216-.213.137-.381.33-.505.577-.123.24-.185.518-.185.834Zm5.113.67v-3.379h1.38v3.08c0 .412.076.724.227.937.151.206.374.309.67.309a1.397 1.397 0 0 0 1.009-.432c.151-.145.278-.327.381-.546v-3.348h1.38v3.852c0 .145.024.248.072.309.055.062.141.1.258.114v1.122a4.58 4.58 0 0 1-.35.042 1.73 1.73 0 0 1-.248.02c-.247 0-.45-.055-.607-.165a.69.69 0 0 1-.268-.473l-.03-.433a2.4 2.4 0 0 1-.928.834 2.781 2.781 0 0 1-1.246.278c-.556 0-.979-.178-1.267-.535-.288-.364-.433-.893-.433-1.586Zm9.632-2.184c-.418 0-.793.082-1.122.247a1.45 1.45 0 0 0-.711.69v3.265h-1.38v-5.397h1.267v1.154c.192-.371.436-.663.731-.876.295-.213.608-.329.937-.35h.175c.042 0 .076.003.103.01v1.257Zm7.504-1.195a1.732 1.732 0 0 0-.268-.196 2.622 2.622 0 0 0-.463-.236 4.146 4.146 0 0 0-.588-.196 2.31 2.31 0 0 0-.648-.093c-.385 0-.677.072-.876.216a.717.717 0 0 0-.288.608c0 .199.061.357.185.474.124.117.31.216.556.299.248.082.556.171.927.267.481.117.896.261 1.247.433.357.165.628.385.813.659.193.268.289.625.289 1.071 0 .392-.072.728-.217 1.01a1.809 1.809 0 0 1-.597.669 2.727 2.727 0 0 1-.865.381 4.483 4.483 0 0 1-1.03.114c-.364 0-.728-.038-1.092-.114a5.985 5.985 0 0 1-1.05-.319 5.025 5.025 0 0 1-.928-.515l.629-1.226c.061.062.171.145.33.248.157.096.35.195.576.298.227.096.474.179.742.248.267.068.539.103.813.103.385 0 .677-.066.876-.196a.628.628 0 0 0 .299-.556.616.616 0 0 0-.237-.515c-.158-.124-.378-.23-.66-.32a21.259 21.259 0 0 0-.999-.309 6.36 6.36 0 0 1-1.153-.432c-.31-.165-.54-.371-.69-.618-.151-.247-.227-.556-.227-.927 0-.502.117-.92.35-1.257.24-.343.563-.601.968-.772a3.303 3.303 0 0 1 1.35-.268c.343 0 .666.038.968.113a4.946 4.946 0 0 1 1.586.701l-.628 1.153Zm4.94 5.119c-.117.048-.258.103-.423.165-.165.062-.343.11-.535.144a2.616 2.616 0 0 1-.567.062c-.254 0-.487-.045-.7-.134a1.145 1.145 0 0 1-.515-.422c-.124-.199-.186-.457-.186-.773v-3.1h-.71v-1.061h.71v-1.751h1.38v1.751h1.133v1.061h-1.133v2.637c.007.185.059.319.155.402a.536.536 0 0 0 .36.123c.145 0 .285-.024.423-.072a5.69 5.69 0 0 0 .33-.124l.277 1.092Zm3.932-3.924c-.419 0-.793.082-1.123.247a1.45 1.45 0 0 0-.71.69v3.265h-1.38v-5.397h1.266v1.154c.192-.371.436-.663.731-.876.296-.213.608-.329.938-.35h.175c.041 0 .075.003.103.01v1.257Zm3.202 4.305c-.433 0-.824-.072-1.174-.216a2.758 2.758 0 0 1-.896-.608 2.905 2.905 0 0 1-.577-.885 2.916 2.916 0 0 1-.196-1.061c0-.515.113-.986.34-1.411.234-.426.563-.766.989-1.02.432-.261.94-.392 1.524-.392.59 0 1.096.131 1.514.392.42.254.739.594.958 1.02.227.418.34.872.34 1.359a3.36 3.36 0 0 1-.03.464H86.22c.027.274.106.515.237.721.137.206.309.364.515.473a1.589 1.589 0 0 0 1.452-.041c.247-.137.415-.316.505-.535l1.184.329c-.13.275-.32.519-.566.732-.24.212-.526.381-.855.504-.33.117-.694.175-1.092.175Zm-1.411-3.234h2.822a1.561 1.561 0 0 0-.237-.711 1.252 1.252 0 0 0-.494-.473 1.372 1.372 0 0 0-.69-.175c-.248 0-.474.058-.68.175a1.35 1.35 0 0 0-.495.473c-.123.2-.199.436-.226.711Zm10.09 3.131H94.9v-3.028c0-.432-.076-.748-.227-.947a.742.742 0 0 0-.628-.299c-.186 0-.374.048-.567.144-.185.096-.353.23-.504.402-.151.165-.261.357-.33.577v3.151h-1.38v-5.397h1.246v.999c.138-.233.313-.429.525-.587.213-.165.457-.288.732-.371.281-.089.577-.134.886-.134.336 0 .61.062.824.186.22.117.384.278.494.484.117.199.196.426.237.68.048.254.072.511.072.772v3.368Zm3.312.031a2.35 2.35 0 0 1-.99-.206 2.409 2.409 0 0 1-.772-.597 2.806 2.806 0 0 1-.494-.876 3.115 3.115 0 0 1-.175-1.05c0-.392.062-.756.185-1.092.124-.337.295-.632.515-.886a2.3 2.3 0 0 1 .793-.597 2.385 2.385 0 0 1 1.02-.217c.419 0 .786.097 1.102.289.316.185.577.436.783.752v-.948h1.205v5.14c0 .535-.13.992-.391 1.37a2.39 2.39 0 0 1-1.061.875c-.453.206-.968.309-1.545.309-.584 0-1.078-.099-1.483-.298a2.957 2.957 0 0 1-1.04-.824l.751-.732c.206.254.464.453.773.598a2.38 2.38 0 0 0 .999.216c.295 0 .563-.055.803-.165.247-.103.443-.268.587-.494.151-.22.227-.505.227-.855v-.68a1.848 1.848 0 0 1-.762.721 2.233 2.233 0 0 1-1.03.247Zm.463-1.102c.151 0 .295-.024.433-.072a1.527 1.527 0 0 0 .69-.484c.089-.117.158-.234.206-.35v-1.288a1.673 1.673 0 0 0-.35-.556 1.475 1.475 0 0 0-.495-.36 1.238 1.238 0 0 0-.566-.134 1.222 1.222 0 0 0-1.02.515c-.124.158-.22.336-.288.535a1.974 1.974 0 0 0-.093.608 1.672 1.672 0 0 0 .422 1.123c.138.144.296.257.474.34.185.082.381.123.587.123Zm7.187.793c-.116.048-.257.103-.422.165-.165.062-.343.11-.536.144a2.61 2.61 0 0 1-.566.062c-.254 0-.488-.045-.7-.134a1.142 1.142 0 0 1-.515-.422c-.124-.199-.186-.457-.186-.773v-3.1h-.711v-1.061h.711v-1.751h1.38v1.751h1.133v1.061h-1.133v2.637c.007.185.059.319.155.402a.535.535 0 0 0 .36.123c.145 0 .285-.024.423-.072.137-.048.247-.089.329-.124l.278 1.092Zm5.735.278h-1.38v-3.028c0-.419-.082-.731-.247-.937-.158-.206-.378-.309-.659-.309-.165 0-.34.048-.526.144-.185.096-.353.23-.504.402a1.59 1.59 0 0 0-.32.577v3.151h-1.38v-7.519h1.38v3.121c.2-.343.471-.611.814-.803a2.263 2.263 0 0 1 1.123-.289c.35 0 .635.062.855.186.219.117.391.278.515.484.123.199.209.426.257.68.048.247.072.504.072.772v3.368Zm3.188.103c-.46 0-.899-.075-1.318-.226a2.976 2.976 0 0 1-1.082-.67l.495-.896c.323.261.638.453.947.577.316.124.618.185.907.185.268 0 .48-.048.638-.144a.47.47 0 0 0 .248-.432c0-.131-.045-.231-.134-.299a1.151 1.151 0 0 0-.392-.196 13.696 13.696 0 0 0-.607-.185 9.564 9.564 0 0 1-.999-.381c-.268-.124-.471-.278-.608-.464-.131-.192-.196-.436-.196-.731 0-.357.089-.663.268-.917.185-.261.439-.463.762-.608.33-.144.714-.216 1.154-.216.384 0 .748.062 1.092.186.343.116.655.309.937.576l-.556.876a3.198 3.198 0 0 0-.783-.464 1.939 1.939 0 0 0-.752-.154c-.144 0-.282.017-.412.051a.693.693 0 0 0-.309.175c-.076.076-.113.186-.113.33 0 .13.034.233.103.309.075.069.185.13.329.185.151.055.333.117.546.186.433.123.797.25 1.092.381.302.13.529.292.68.484.151.185.226.443.226.773 0 .535-.195.954-.587 1.256-.391.302-.916.453-1.576.453Z" fill="#000"/><path d="M54.084 81.096H3.368v55.771h50.716v-55.77Z" fill="#90D470"/><path d="M54.463 87.326H3v-6.61h51.463v6.61Zm-50.715-.748h49.98v-5.114H3.748v5.114Z" fill="#000"/><path d="M49.24 93.377H8.22v8.283h41.02v-8.283ZM49.24 107.724H8.22v8.282h41.02v-8.282ZM49.24 121.879H8.22v8.283h41.02v-8.283Z" fill="#fff"/><path d="M116.96 27.402a5.163 5.163 0 0 1-8.833 3.64 5.162 5.162 0 1 1 8.833-3.64Z" fill="#90D470"/><path d="M155.774 85.582a6.991 6.991 0 0 1-6.855-8.353 6.995 6.995 0 0 1 5.492-5.491 6.988 6.988 0 1 1 1.363 13.844Zm0-13.23a6.253 6.253 0 1 0-.023 12.504 6.253 6.253 0 0 0 .023-12.505ZM15.934 66.335l8.46-19.14 6.598 17.61-15.058 1.53Zm8.4-17.17-7.202 16.304 12.827-1.306-5.624-14.998Z" fill="#000"/><path d="m88.388 84.075-18.962-1.068 5.197-24.195 13.112.736.083 2.883.226 8.876.344 12.768Z" fill="#EEB47E"/><path d="M88.044 71.307a14.962 14.962 0 0 1-12.233-7.547c3.868-.38 7.712-.914 11.569-1.293h.439l.225 8.84Z" fill="#000"/><path d="M98.202 54.896a14.856 14.856 0 0 1-8.164 10.608 15.176 15.176 0 0 1-13.409-.403 15.427 15.427 0 0 1-7.76-10.964 4.354 4.354 0 0 1-5.008 1.839 6.137 6.137 0 0 1-4.26-4.035 6.348 6.348 0 0 1 .19-4.556 5.304 5.304 0 0 1 3.442-2.931 4.747 4.747 0 0 1 4.248.819l.154.142v-1.187a17.348 17.348 0 0 1 3.94-9.801 15.083 15.083 0 0 1 10.24-5.328h2.195a13.207 13.207 0 0 1 8.52 4.153 15.2 15.2 0 0 1 2.302 3.489 29.504 29.504 0 0 1 1.863 5.268c.166.641.32 1.294.475 1.935.925 3.63 1.649 7.333 1.032 10.952Z" fill="#EEB47E"/><path d="M65.806 52.036a2.563 2.563 0 0 0-3.405-1.103l-.333-.665a3.334 3.334 0 0 1 2.48-.178c.435.125.84.339 1.187.629l-.225-2.967.747-.059.297 4.141-.748.202ZM86.953 54.053a1.367 1.367 0 0 1-.486-.094l.273-.689a.617.617 0 0 0 .51 0 .605.605 0 0 0 .308-.285c.065-.305.065-.62 0-.925l-.89-5.708.736-.118.89 5.707c.095.414.095.844 0 1.258-.125.332-.377.6-.7.748-.203.083-.422.12-.64.106ZM84.958 56.902a3.11 3.11 0 0 1-3.133-3.121h.736a2.444 2.444 0 0 0 1.689 2.304c.316.104.65.143.98.116l.072.736-.344-.035ZM92.507 46.755c0 .51-.333.902-.665.878-.332-.023-.581-.439-.546-.937.036-.498.32-.902.653-.878.332.024.582.439.558.937ZM81.967 48.05c0 .77-.498 1.364-1.008 1.34-.51-.023-.89-.676-.843-1.447.048-.771.487-1.365.997-1.33.51.036.89.677.854 1.437ZM92.885 44.05c.338.054.683.054 1.02 0 .558-.166.547-.593 0-.866a5.778 5.778 0 0 0-1.98-.391 3.062 3.062 0 0 0-1.437.142.474.474 0 0 0-.154.795c.522.582 1.733.297 2.551.32ZM80.083 44.454a3.238 3.238 0 0 1-1.01 0c-.569-.13-.58-.558-.07-.866a5.627 5.627 0 0 1 1.946-.523c.475-.12.972-.12 1.447 0a.475.475 0 0 1 .202.784c-.498.735-1.72.534-2.515.605ZM84.094 29.158c-.32.676-.676 1.34-1.044 1.993a30.188 30.188 0 0 1-15.426 13.053 17.348 17.348 0 0 1 3.94-9.801 15.081 15.081 0 0 1 10.24-5.328H83.584l.51.083Z" fill="#000"/><path d="M96.778 42.069a27.067 27.067 0 0 1-13.73-10.917 26.41 26.41 0 0 1-1.186-2.017H84.058a13.207 13.207 0 0 1 8.52 4.153 15.203 15.203 0 0 1 2.301 3.489c.8 1.7 1.436 3.471 1.899 5.292Z" fill="#000"/><path d="M45.42 110.358s10.3-12.127 10.905-12.329c.605-.201 19.401-2.017 19.401-2.017s-11.522 59.603-38.399 46.681C13.24 131.1 46.702 81.167 50.38 79.898c3.679-1.27 19.983-1.448 19.983-1.448s9.22 9.208 17.989.855c0 0 15.236-.072 18.262 2.373 3.025 2.444 23.447 63.044 23.447 63.044H44.103" fill="#8893E3"/><path d="M77.85 80.788c.124-.5.172-1.016.143-1.53a1.685 1.685 0 0 0-.748-1.27 1.84 1.84 0 0 0-2.136.486 7.417 7.417 0 0 0-1.46 2.931 4.568 4.568 0 0 1-1.839 2.634 3.298 3.298 0 0 1-2.871 0 4.841 4.841 0 0 1-2.789-4.651 3.107 3.107 0 0 1 4.569-2.872c.842.226 1.66.178 2.005-.344a1.993 1.993 0 0 0-.107-1.981 3.94 3.94 0 0 0-1.803-1.626 5.934 5.934 0 0 0-8.615 5.541c-1.472-3.405-3.869-8.128-5.613-7.582-2.112.664-.403 7.915.95 12.65-1.425-3.43-4.13-9.02-6.337-8.189-3.346 1.27 5.079 23.009 5.079 23.009l1.566 4.034 17.894-5.933c.463-2.527 1.65-12.886 2.112-15.307Z" fill="#EEB47E"/><path d="m77.625 84.929-.735-.107c.284-2.172.474-3.441.605-4.106.107-.463.15-.938.13-1.412a1.317 1.317 0 0 0-.57-.997l.38-.64a2.04 2.04 0 0 1 .926 1.554 5.694 5.694 0 0 1-.142 1.638c-.166.842-.416 2.729-.594 4.07ZM57.178 83.232a60.98 60.98 0 0 1-1.78-7.89c-.427-3.145-.07-4.842 1.068-5.21l.226.712c-1.02.32-1.187 3.69 1.186 12.186l-.7.202Z" fill="#000"/><path d="m121.644 87.105-7.439 43.986s18.631-8.162 33.283 0l8.357-44.094s-15.6-11.563-34.201.108Z" fill="#A1E3D6"/><path d="m87.44 87.184-7.311 43.987s19.422-8.162 34.075 0l7.438-43.987s-15.551-11.651-34.202 0Z" fill="#A1E3D6"/><path d="m128.257 96.06 11.573 3.763-8.084 8.083-3.489-11.847Z" fill="#fff"/><path d="m135.249 101.129-2.205 2.205 4.707 4.707 2.205-2.205-4.707-4.707Z" fill="#fff"/><path d="m121.365 87.057-7.454 44.025.598.101 7.454-44.025-.598-.1ZM92.014 100.116l-.498-.342a13.548 13.548 0 0 1 4.79-4.35 2.561 2.561 0 0 1 2.54-.303 2.757 2.757 0 0 1 1.125 1.955c.089.51.289.994.586 1.417a2.22 2.22 0 0 0 2.327.42 8.295 8.295 0 0 0 1.661-.84c.264-.156.538-.322.812-.47a3.769 3.769 0 0 1 2.981-.488c.446.171.861.412 1.232.714.282.227.591.42.918.576a1.341 1.341 0 0 0 1.222-.107.475.475 0 0 0 .245-.44h.615a1.114 1.114 0 0 1-.508.977 1.955 1.955 0 0 1-1.818.157 5.531 5.531 0 0 1-1.036-.636 4.116 4.116 0 0 0-1.066-.625 3.205 3.205 0 0 0-2.502.44l-.772.45c-.562.369-1.166.67-1.799.899a2.785 2.785 0 0 1-2.932-.597 3.83 3.83 0 0 1-.714-1.661c-.185-.684-.332-1.28-.84-1.564-.508-.284-1.095-.157-1.955.303a13.186 13.186 0 0 0-4.614 4.115Z" fill="#000"/><path d="M111.398 112.236H89.023l.939-5.2h22.384l-.948 5.2Z" fill="#D4F5BD"/><path d="M61.818 78.141a6.36 6.36 0 0 1 9.161-5.933A4.153 4.153 0 0 1 72.937 74a2.301 2.301 0 0 1 .095 2.373l-.617-.403a1.708 1.708 0 0 0-.13-1.602 3.56 3.56 0 0 0-1.638-1.472 5.611 5.611 0 0 0-8.081 5.21l-.748.035ZM57.5 102.123 55.934 98.1c-.297-.77-7.31-18.985-5.613-22.735a1.307 1.307 0 0 1 .748-.76l.26.689a.628.628 0 0 0-.331.38c-1.306 2.907 3.56 16.98 5.636 22.153l1.554 4.023-.688.273ZM64.678 93.568a7.856 7.856 0 0 1 5.28-7.37l.237.713a7.19 7.19 0 0 0-4.746 6.657h-.771ZM76.058 59.072 72.931 80.19l.727.108 3.126-21.117-.727-.108Z" fill="#000"/><path d="M45.42 110.358s10.3-12.127 10.905-12.329c.605-.201 19.401-2.017 19.401-2.017s-11.522 59.604-38.399 46.681C13.24 131.1 46.702 81.168 50.38 79.898" fill="#8893E3"/><path d="M44.804 144.888a17.51 17.51 0 0 1-7.617-1.863l.32-.676a14.959 14.959 0 0 0 13.812.213c15.426-7.772 23.02-41.65 23.958-46.135-7.334.712-17.942 1.768-18.796 1.946-.736.546-6.966 7.749-10.775 12.222l-.64-.142-1.472-5.577.712-.19 1.305 4.889c3.904-4.593 10.027-11.7 10.609-11.866.581-.167 16.34-1.733 19.484-2.03l.403.44a146.487 146.487 0 0 1-5.838 20.326c-5.292 14.239-11.557 23.258-18.618 26.806a15.111 15.111 0 0 1-6.847 1.637ZM77.758 59.607a8.662 8.662 0 1 1 0-17.325 8.662 8.662 0 0 1 0 17.325Zm0-16.613a7.915 7.915 0 1 0 7.915 7.915 7.939 7.939 0 0 0-7.915-7.88v-.035ZM80.487 23.96A6.348 6.348 0 0 0 74.186 19a6.824 6.824 0 0 0-6.194 5.246 6.11 6.11 0 0 0 1.602 5.66c4.307 4.022 11.96-.237 10.893-5.945Z" fill="#000"/><path d="M149.203 139.193a27.426 27.426 0 0 1-3.37 5.518h-29.12a21.634 21.634 0 0 1-4.366-7.44c-.795-2.872-.19-6.349 2.207-8.105a5.567 5.567 0 0 1 5.724-.531 5.56 5.56 0 0 1 2.239 1.971c.554.848.865 1.831.901 2.844a19.932 19.932 0 0 1 5.316-12.412 13.528 13.528 0 0 1 12.59-3.868 13.316 13.316 0 0 1 8.994 9.03 18.797 18.797 0 0 1-1.115 12.993Z" fill="#D4F5BD"/><path d="m97.632 146.17-.44-1.353c0-.142-4.84-14.559-14.962-13.776v-.736c8.91-.7 13.86 9.612 15.283 13.136.807-2.931 2.183-4.687 4.129-5.233 5.032-1.412 11.867 5.933 12.139 6.194l-.534.51c-.071-.083-6.811-7.286-11.403-5.992-1.91.534-3.215 2.504-3.892 5.862l-.32 1.388Z" fill="#fff"/></svg>