<svg xmlns="http://www.w3.org/2000/svg" width="165" height="165" fill="none"><mask id="a" width="159" height="114" x="3" y="31" maskUnits="userSpaceOnUse" style="mask-type:alpha"><path fill="#A1E3D6" d="M25.117 144.71c-13.23-14.014-20.943-34.483-21.133-53.753-.083-8.306 1.293-16.969 5.838-23.958s12.756-12.02 21.039-11.035c8.282.985 14.773 7.202 22.83 8.626 9.932 1.757 19.615-4.165 27.055-10.988s14.061-14.94 23.174-19.27c12.056-5.72 27.091-3.56 37.972 4.26s17.562 20.552 19.401 33.77c1.839 13.22-.902 26.818-6.265 39.028-5.364 12.21-13.267 23.187-21.953 33.32"/></mask><g fill="#A1E3D6" mask="url(#a)"><path d="M-1.195 29a1.225 1.225 0 1 1 0 2.45 1.225 1.225 0 0 1 0-2.45m7.328 0a1.225 1.225 0 1 1 0 2.45 1.225 1.225 0 0 1 0-2.45m7.325 0a1.225 1.225 0 1 1 0 2.45 1.225 1.225 0 0 1 0-2.45m7.328 0a1.225 1.225 0 1 1 0 2.45 1.225 1.225 0 0 1 0-2.45m7.326 0a1.225 1.225 0 1 1 0 2.45 1.225 1.225 0 0 1 0-2.45m7.325 0a1.225 1.225 0 1 1 0 2.45 1.225 1.225 0 0 1 0-2.45m7.328 0a1.225 1.225 0 1 1 0 2.45 1.225 1.225 0 0 1 0-2.45m7.326 0a1.225 1.225 0 1 1 0 2.45 1.225 1.225 0 0 1 0-2.45m7.328 0a1.225 1.225 0 1 1-.013 0zm7.325 0a1.225 1.225 0 1 1 0 2.45 1.225 1.225 0 0 1 0-2.45m7.328 0a1.225 1.225 0 1 1 0 2.45 1.225 1.225 0 0 1 0-2.45m7.326 0a1.225 1.225 0 1 1 0 2.45 1.225 1.225 0 0 1 0-2.45m7.325 0a1.225 1.225 0 1 1 0 2.45 1.225 1.225 0 0 1 0-2.45m7.328 0a1.225 1.225 0 1 1 0 2.45 1.225 1.225 0 0 1 0-2.45m7.326 0a1.225 1.225 0 1 1 0 2.45 1.225 1.225 0 0 1 0-2.45m7.328 0a1.226 1.226 0 1 1-.002 2.453 1.226 1.226 0 0 1 .002-2.453m7.325 0a1.227 1.227 0 0 1 .867 2.092 1.227 1.227 0 0 1-2.092-.867A1.224 1.224 0 0 1 116.03 29m7.328 0a1.223 1.223 0 0 1 1.225 1.225A1.224 1.224 0 1 1 123.358 29m7.325 0a1.227 1.227 0 0 1 .867 2.092 1.227 1.227 0 0 1-2.092-.867 1.22 1.22 0 0 1 .36-.867 1.22 1.22 0 0 1 .868-.358zm7.326 0a1.223 1.223 0 0 1 1.225 1.225A1.224 1.224 0 1 1 138.009 29m7.328 0a1.223 1.223 0 0 1 1.225 1.225A1.224 1.224 0 1 1 145.337 29m7.325 0a1.227 1.227 0 0 1 .867 2.092 1.227 1.227 0 0 1-1.999-1.336 1.23 1.23 0 0 1 1.132-.756m7.328 0a1.227 1.227 0 0 1 .867 2.092 1.227 1.227 0 0 1-1.999-1.336A1.23 1.23 0 0 1 159.99 29M2.706 33.011a1.226 1.226 0 1 1 0 2.452 1.226 1.226 0 0 1 0-2.452m7.326 0a1.226 1.226 0 1 1 0 2.452 1.226 1.226 0 0 1 0-2.452m7.328 0a1.226 1.226 0 1 1 0 2.452 1.226 1.226 0 0 1 0-2.452m7.325 0a1.226 1.226 0 1 1 0 2.452 1.226 1.226 0 0 1 0-2.452m7.328 0a1.226 1.226 0 1 1 0 2.452 1.226 1.226 0 0 1 0-2.452m7.326 0a1.226 1.226 0 1 1 0 2.452 1.226 1.226 0 0 1 0-2.452m7.328 0a1.226 1.226 0 1 1 0 2.452 1.226 1.226 0 0 1 0-2.452m7.325 0a1.226 1.226 0 1 1 0 2.452 1.226 1.226 0 0 1 0-2.452m7.335 0a1.226 1.226 0 1 1 0 2.452 1.226 1.226 0 0 1 0-2.452m7.328 0a1.226 1.226 0 1 1-.01 0zm7.326 0a1.226 1.226 0 1 1-.01 0zm7.328 0a1.226 1.226 0 1 1-.01 0zm7.325 0a1.226 1.226 0 1 1-.01 0zm7.326 0a1.226 1.226 0 1 1-.01 0zm7.328 0a1.225 1.225 0 1 1-.01 0zm7.325 0a1.227 1.227 0 0 1 1.226 1.226 1.225 1.225 0 1 1-1.236-1.226zm7.328 0a1.227 1.227 0 0 1 1.226 1.226 1.225 1.225 0 1 1-1.236-1.226zm7.313 0a1.227 1.227 0 0 1 1.226 1.226 1.225 1.225 0 1 1-1.226-1.226m7.328 0a1.227 1.227 0 0 1 1.226 1.226 1.225 1.225 0 1 1-1.223-1.226zm7.326 0a1.223 1.223 0 0 1 1.225 1.226 1.225 1.225 0 1 1-1.223-1.226zm7.325 0a1.227 1.227 0 0 1 1.226 1.226 1.225 1.225 0 1 1-1.223-1.226zm7.328 0a1.227 1.227 0 0 1 1.226 1.226 1.225 1.225 0 1 1-1.223-1.226zm7.326 0a1.223 1.223 0 0 1 1.225 1.226 1.225 1.225 0 1 1-1.223-1.226zM-1.195 37.013a1.226 1.226 0 1 1 0 2.452 1.226 1.226 0 0 1 0-2.452m7.328 0a1.226 1.226 0 1 1 0 2.452 1.226 1.226 0 0 1 0-2.452m7.325 0a1.226 1.226 0 1 1 0 2.452 1.226 1.226 0 0 1 0-2.452m7.328 0a1.226 1.226 0 1 1 0 2.452 1.226 1.226 0 0 1 0-2.452m7.326 0a1.226 1.226 0 1 1 0 2.452 1.226 1.226 0 0 1 0-2.452m7.325 0a1.226 1.226 0 1 1 0 2.452 1.226 1.226 0 0 1 0-2.452m7.328 0a1.226 1.226 0 1 1 0 2.452 1.226 1.226 0 0 1 0-2.452m7.326 0a1.226 1.226 0 1 1 0 2.452 1.226 1.226 0 0 1 0-2.452m7.328 0a1.226 1.226 0 1 1-.013 0zm7.325 0a1.226 1.226 0 1 1 0 2.452 1.226 1.226 0 0 1 0-2.452m7.328 0a1.226 1.226 0 1 1 0 2.452 1.226 1.226 0 0 1 0-2.452m7.326 0a1.226 1.226 0 1 1 0 2.452 1.226 1.226 0 0 1 0-2.452m7.325 0a1.226 1.226 0 1 1 0 2.452 1.226 1.226 0 0 1 0-2.452m7.328 0a1.226 1.226 0 1 1 0 2.452 1.226 1.226 0 0 1 0-2.452m7.326 0a1.225 1.225 0 1 1 0 2.45 1.225 1.225 0 0 1 0-2.45m7.328 0a1.227 1.227 0 0 1 .866 2.092 1.227 1.227 0 0 1-2.092-.867 1.225 1.225 0 0 1 1.226-1.225m7.325 0a1.227 1.227 0 0 1 1.225 1.225 1.23 1.23 0 0 1-1.225 1.226 1.223 1.223 0 0 1-1.225-1.226 1.225 1.225 0 0 1 1.225-1.225m7.328 0a1.223 1.223 0 0 1 1.225 1.225 1.224 1.224 0 1 1-1.225-1.225m7.325 0a1.227 1.227 0 0 1 1.226 1.225 1.224 1.224 0 1 1-1.223-1.225zm7.326 0a1.223 1.223 0 0 1 1.225 1.225 1.224 1.224 0 1 1-1.225-1.225m7.328 0a1.223 1.223 0 0 1 1.225 1.225 1.224 1.224 0 1 1-1.225-1.225m7.325 0a1.227 1.227 0 0 1 1.226 1.225 1.224 1.224 0 1 1-1.226-1.225m7.328 0a1.227 1.227 0 0 1 1.226 1.225 1.224 1.224 0 1 1-1.226-1.225M2.706 41.032a1.225 1.225 0 1 1 0 2.45 1.225 1.225 0 0 1 0-2.45m7.325 0a1.225 1.225 0 1 1 0 2.45 1.225 1.225 0 0 1 0-2.45m7.328 0a1.225 1.225 0 1 1 0 2.45 1.225 1.225 0 0 1 0-2.45m7.326 0a1.225 1.225 0 1 1 0 2.45 1.225 1.225 0 0 1 0-2.45m7.328 0a1.225 1.225 0 1 1 0 2.45 1.225 1.225 0 0 1 0-2.45m7.325 0a1.225 1.225 0 1 1 0 2.45 1.225 1.225 0 0 1 0-2.45m7.328 0a1.225 1.225 0 1 1 0 2.45 1.225 1.225 0 0 1 0-2.45m7.326 0a1.225 1.225 0 1 1 0 2.45 1.225 1.225 0 0 1 0-2.45m7.325 0a1.225 1.225 0 1 1-.462.09c.15-.061.31-.092.472-.09zm7.328 0a1.225 1.225 0 1 1 0 2.45 1.225 1.225 0 0 1 0-2.45m7.326 0a1.225 1.225 0 1 1 0 2.45 1.225 1.225 0 0 1 0-2.45m7.328 0a1.225 1.225 0 1 1 0 2.45 1.225 1.225 0 0 1 0-2.45m7.325 0a1.225 1.225 0 1 1 0 2.45 1.225 1.225 0 0 1 0-2.45m7.326 0a1.225 1.225 0 1 1 0 2.45 1.225 1.225 0 0 1 0-2.45m7.328 0a1.225 1.225 0 1 1 0 2.449 1.225 1.225 0 0 1 0-2.45Zm7.325 0a1.227 1.227 0 0 1 .867 2.091 1.227 1.227 0 0 1-2.092-.866 1.24 1.24 0 0 1 .359-.867 1.23 1.23 0 0 1 .866-.358m7.328 0a1.227 1.227 0 0 1 .867 2.091 1.227 1.227 0 0 1-1.999-1.335 1.23 1.23 0 0 1 1.132-.756m7.326 0a1.225 1.225 0 1 1-.003 0zm7.328 0a1.225 1.225 0 1 1 0 2.449 1.225 1.225 0 0 1 0-2.45Zm7.325 0a1.227 1.227 0 0 1 .867 2.091 1.227 1.227 0 0 1-1.999-1.335 1.23 1.23 0 0 1 1.132-.756m7.326 0a1.225 1.225 0 1 1 0 2.449 1.225 1.225 0 0 1 0-2.45Zm7.328 0a1.225 1.225 0 1 1 0 2.449 1.225 1.225 0 0 1 0-2.45Zm-157.76 3.987a1.225 1.225 0 1 1 0 2.45 1.225 1.225 0 0 1 0-2.45m7.328 0a1.225 1.225 0 1 1 0 2.45 1.225 1.225 0 0 1 0-2.45m7.326 0a1.225 1.225 0 1 1 0 2.45 1.225 1.225 0 0 1 0-2.45m7.328 0a1.226 1.226 0 1 1 0 2.45 1.226 1.226 0 0 1 0-2.45m7.325 0a1.225 1.225 0 1 1 0 2.45 1.225 1.225 0 0 1 0-2.45m7.326 0a1.226 1.226 0 1 1 0 2.45 1.226 1.226 0 0 1 0-2.45m7.328 0a1.225 1.225 0 1 1 0 2.45 1.225 1.225 0 0 1 0-2.45m7.325 0a1.225 1.225 0 1 1 0 2.45 1.225 1.225 0 0 1 0-2.45m7.316 0a1.225 1.225 0 1 1 0 2.45 1.225 1.225 0 0 1 0-2.45m7.325 0a1.226 1.226 0 1 1-.46.09q.227-.093.473-.09zm7.328 0a1.225 1.225 0 1 1-.46.09q.227-.093.473-.09zm7.326 0a1.225 1.225 0 1 1-.46.09c.15-.062.31-.092.472-.09zm7.325 0a1.225 1.225 0 1 1-.46.09q.227-.093.473-.09zm7.328 0a1.225 1.225 0 1 1-.46.09q.227-.093.472-.09zm7.326 0a1.225 1.225 0 1 1-.461.09c.15-.062.311-.092.473-.09zm7.328 0a1.225 1.225 0 1 1-.461.09c.15-.062.311-.092.473-.09zm7.325 0a1.227 1.227 0 0 1 .867 2.091 1.226 1.226 0 1 1-.854-2.091zm7.328 0a1.227 1.227 0 0 1 .867 2.091 1.226 1.226 0 1 1-.855-2.091zm7.34 0a1.227 1.227 0 0 1 .867 2.091 1.226 1.226 0 1 1-.867-2.091m7.326 0a1.223 1.223 0 0 1 1.225 1.225 1.22 1.22 0 0 1-.359.866 1.2 1.2 0 0 1-.866.36 1.226 1.226 0 0 1-.003-2.451zm7.328 0a1.223 1.223 0 0 1 1.225 1.225 1.22 1.22 0 0 1-.359.866 1.2 1.2 0 0 1-.866.36 1.226 1.226 0 0 1-.003-2.451zm7.325 0a1.227 1.227 0 0 1 .867 2.091 1.226 1.226 0 1 1-.869-2.091zm7.328 0a1.227 1.227 0 0 1 .867 2.091 1.226 1.226 0 1 1-.869-2.091zM2.706 49.045a1.225 1.225 0 1 1 0 2.45 1.225 1.225 0 0 1 0-2.45m7.325 0a1.225 1.225 0 1 1 0 2.45 1.225 1.225 0 0 1 0-2.45m7.328 0a1.225 1.225 0 1 1 0 2.45 1.225 1.225 0 0 1 0-2.45m7.326 0a1.225 1.225 0 1 1 0 2.45 1.225 1.225 0 0 1 0-2.45m7.328 0a1.225 1.225 0 1 1 0 2.45 1.225 1.225 0 0 1 0-2.45m7.325 0a1.226 1.226 0 1 1 0 2.45 1.226 1.226 0 0 1 0-2.45m7.328 0a1.225 1.225 0 1 1 0 2.45 1.225 1.225 0 0 1 0-2.45m7.326 0a1.225 1.225 0 1 1 0 2.45 1.225 1.225 0 0 1 0-2.45m7.325 0a1.225 1.225 0 1 1-.462.09c.15-.06.31-.092.472-.09zm7.328 0a1.225 1.225 0 1 1 0 2.45 1.225 1.225 0 0 1 0-2.45m7.326 0a1.225 1.225 0 1 1 0 2.45 1.225 1.225 0 0 1 0-2.45m7.328 0a1.225 1.225 0 1 1 0 2.45 1.225 1.225 0 0 1 0-2.45m7.325 0a1.225 1.225 0 1 1 0 2.45 1.225 1.225 0 0 1 0-2.45m7.326 0a1.225 1.225 0 1 1 0 2.45 1.225 1.225 0 0 1 0-2.45m7.327 0a1.227 1.227 0 0 1 .867 2.091 1.227 1.227 0 0 1-2.092-.866 1.24 1.24 0 0 1 .359-.866 1.23 1.23 0 0 1 .866-.36Zm7.326 0a1.223 1.223 0 0 1 1.225 1.225 1.224 1.224 0 1 1-1.225-1.225m7.328 0a1.223 1.223 0 0 1 1.225 1.225 1.224 1.224 0 1 1-1.225-1.225m7.325 0a1.227 1.227 0 0 1 .867 2.091 1.227 1.227 0 0 1-2.092-.866 1.226 1.226 0 0 1 1.223-1.225zm7.328 0a1.227 1.227 0 0 1 .867 2.091 1.227 1.227 0 0 1-2.092-.866 1.24 1.24 0 0 1 .359-.866 1.23 1.23 0 0 1 .866-.36Zm7.326 0a1.223 1.223 0 0 1 1.225 1.225 1.224 1.224 0 1 1-1.225-1.225m7.325 0a1.227 1.227 0 0 1 .867 2.091 1.227 1.227 0 0 1-2.092-.866 1.24 1.24 0 0 1 .359-.866 1.23 1.23 0 0 1 .866-.36Zm7.328 0a1.227 1.227 0 0 1 .867 2.091 1.227 1.227 0 0 1-2.092-.866 1.24 1.24 0 0 1 .359-.866 1.23 1.23 0 0 1 .866-.36Zm7.326 0a1.223 1.223 0 0 1 1.225 1.225 1.224 1.224 0 1 1-1.225-1.225M-1.196 53.039a1.225 1.225 0 1 1 0 2.45 1.225 1.225 0 0 1 0-2.45m7.328 0a1.225 1.225 0 1 1 0 2.45 1.225 1.225 0 0 1 0-2.45m7.326 0a1.225 1.225 0 1 1 0 2.45 1.225 1.225 0 0 1 0-2.45m7.328 0a1.225 1.225 0 1 1 0 2.45 1.225 1.225 0 0 1 0-2.45m7.325 0a1.226 1.226 0 1 1 0 2.451 1.226 1.226 0 0 1 0-2.451m7.326 0a1.225 1.225 0 1 1 0 2.45 1.225 1.225 0 0 1 0-2.45m7.328 0a1.225 1.225 0 1 1 0 2.45 1.225 1.225 0 0 1 0-2.45m7.325 0a1.225 1.225 0 1 1 0 2.45 1.225 1.225 0 0 1 0-2.45m7.328 0a1.225 1.225 0 1 1-.012 0zm7.326 0a1.225 1.225 0 1 1 0 2.45 1.225 1.225 0 0 1 0-2.45m7.328 0a1.225 1.225 0 1 1 0 2.45 1.225 1.225 0 0 1 0-2.45m7.325 0a1.225 1.225 0 1 1 0 2.45 1.225 1.225 0 0 1 0-2.45m7.326 0a1.225 1.225 0 1 1 0 2.45 1.225 1.225 0 0 1 0-2.45m7.328 0a1.225 1.225 0 1 1 0 2.45 1.225 1.225 0 0 1 0-2.45m7.325 0a1.227 1.227 0 0 1 .867 2.091 1.227 1.227 0 0 1-2.092-.866 1.224 1.224 0 0 1 1.225-1.225m7.328 0a1.227 1.227 0 0 1 .867 2.091 1.227 1.227 0 0 1-2.092-.866 1.224 1.224 0 0 1 1.225-1.225m7.326 0a1.225 1.225 0 1 1 0 2.449 1.225 1.225 0 0 1 0-2.45Zm7.328 0a1.225 1.225 0 1 1 0 2.449 1.225 1.225 0 0 1 0-2.45Zm7.325 0a1.227 1.227 0 0 1 .867 2.091 1.227 1.227 0 0 1-1.999-1.335 1.22 1.22 0 0 1 .665-.664q.225-.093.47-.092zm7.326 0a1.225 1.225 0 1 1 0 2.449 1.225 1.225 0 0 1 0-2.45Zm7.328 0a1.225 1.225 0 1 1 0 2.449 1.225 1.225 0 0 1 0-2.45Zm7.325 0a1.227 1.227 0 0 1 .867 2.091 1.227 1.227 0 0 1-1.999-1.335 1.23 1.23 0 0 1 1.132-.756m7.328 0a1.227 1.227 0 0 1 .867 2.091 1.227 1.227 0 0 1-1.999-1.335 1.23 1.23 0 0 1 1.132-.756m7.326 0a1.225 1.225 0 1 1 0 2.449 1.225 1.225 0 0 1 0-2.45ZM2.706 57.058a1.225 1.225 0 1 1 0 2.45 1.225 1.225 0 0 1 0-2.45m7.325 0a1.225 1.225 0 1 1 0 2.45 1.225 1.225 0 0 1 0-2.45m7.328 0a1.225 1.225 0 1 1 0 2.45 1.225 1.225 0 0 1 0-2.45m7.326 0a1.225 1.225 0 1 1 0 2.45 1.225 1.225 0 0 1 0-2.45m7.328 0a1.225 1.225 0 1 1 0 2.45 1.225 1.225 0 0 1 0-2.45m7.325 0a1.226 1.226 0 1 1 0 2.451 1.226 1.226 0 0 1 0-2.451m7.328 0a1.225 1.225 0 1 1 0 2.45 1.225 1.225 0 0 1 0-2.45m7.326 0a1.225 1.225 0 1 1 0 2.45 1.225 1.225 0 0 1 0-2.45m7.325 0a1.225 1.225 0 1 1-.462.09c.15-.06.31-.091.472-.09zm7.328 0a1.225 1.225 0 1 1 0 2.45 1.225 1.225 0 0 1 0-2.45m7.326 0a1.225 1.225 0 1 1 0 2.45 1.225 1.225 0 0 1 0-2.45m7.328 0a1.225 1.225 0 1 1 0 2.45 1.225 1.225 0 0 1 0-2.45m7.325 0a1.225 1.225 0 1 1 0 2.45 1.225 1.225 0 0 1 0-2.45m7.326 0a1.225 1.225 0 1 1 0 2.45 1.225 1.225 0 0 1 0-2.45m7.327 0a1.227 1.227 0 0 1 .867 2.092 1.227 1.227 0 0 1-1.999-1.336 1.23 1.23 0 0 1 1.132-.756m7.326 0a1.223 1.223 0 0 1 1.225 1.225 1.224 1.224 0 1 1-1.225-1.225m7.328 0a1.223 1.223 0 0 1 1.225 1.225 1.224 1.224 0 1 1-1.225-1.225m7.325 0a1.227 1.227 0 0 1 .867 2.092 1.227 1.227 0 0 1-2.092-.867 1.226 1.226 0 0 1 1.223-1.225zm7.328 0a1.227 1.227 0 0 1 .867 2.092 1.227 1.227 0 0 1-1.999-1.336 1.23 1.23 0 0 1 1.132-.756m7.326 0a1.223 1.223 0 0 1 1.225 1.225 1.224 1.224 0 1 1-1.225-1.225m7.325 0a1.227 1.227 0 0 1 .867 2.092 1.227 1.227 0 0 1-1.999-1.336 1.23 1.23 0 0 1 1.132-.756m7.328 0a1.227 1.227 0 0 1 .867 2.092 1.227 1.227 0 0 1-1.999-1.336 1.23 1.23 0 0 1 1.132-.756m7.326 0a1.223 1.223 0 0 1 1.225 1.225 1.224 1.224 0 1 1-1.225-1.225M-1.195 61.052a1.225 1.225 0 1 1 0 2.45 1.225 1.225 0 0 1 0-2.45m7.328 0a1.225 1.225 0 1 1 0 2.45 1.225 1.225 0 0 1 0-2.45m7.325 0a1.225 1.225 0 1 1 0 2.45 1.225 1.225 0 0 1 0-2.45m7.328 0a1.225 1.225 0 1 1 0 2.45 1.225 1.225 0 0 1 0-2.45m7.326 0a1.225 1.225 0 1 1 0 2.45 1.225 1.225 0 0 1 0-2.45m7.325 0a1.225 1.225 0 1 1 0 2.45 1.225 1.225 0 0 1 0-2.45m7.328 0a1.225 1.225 0 1 1 0 2.45 1.225 1.225 0 0 1 0-2.45m7.326 0a1.225 1.225 0 1 1 0 2.45 1.225 1.225 0 0 1 0-2.45m7.328 0a1.225 1.225 0 1 1-.013 0zm7.325 0a1.225 1.225 0 1 1 0 2.45 1.225 1.225 0 0 1 0-2.45m7.328 0a1.225 1.225 0 1 1 0 2.45 1.225 1.225 0 0 1 0-2.45m7.326 0a1.225 1.225 0 1 1 0 2.45 1.225 1.225 0 0 1 0-2.45m7.325 0a1.225 1.225 0 1 1 0 2.45 1.225 1.225 0 0 1 0-2.45m7.328 0a1.225 1.225 0 1 1 0 2.45 1.225 1.225 0 0 1 0-2.45m7.326 0a1.225 1.225 0 1 1 0 2.449 1.225 1.225 0 0 1 0-2.45Zm7.328 0a1.226 1.226 0 1 1-.001 2.452 1.226 1.226 0 0 1 .001-2.452m7.325 0a1.227 1.227 0 0 1 .867 2.091 1.227 1.227 0 0 1-2.092-.866 1.224 1.224 0 0 1 1.225-1.225m7.328 0a1.223 1.223 0 0 1 1.225 1.225 1.224 1.224 0 1 1-1.225-1.225m7.325 0a1.227 1.227 0 0 1 .867 2.091 1.227 1.227 0 0 1-2.092-.866 1.22 1.22 0 0 1 .36-.867 1.22 1.22 0 0 1 .868-.358zm7.326 0a1.223 1.223 0 0 1 1.225 1.225 1.224 1.224 0 1 1-1.225-1.225m7.328 0a1.223 1.223 0 0 1 1.225 1.225 1.224 1.224 0 1 1-1.225-1.225m7.325 0a1.227 1.227 0 0 1 .867 2.091 1.227 1.227 0 0 1-2.092-.866 1.24 1.24 0 0 1 .359-.866 1.23 1.23 0 0 1 .866-.36Zm7.328 0a1.227 1.227 0 0 1 .867 2.091 1.227 1.227 0 0 1-2.092-.866 1.24 1.24 0 0 1 .359-.866 1.23 1.23 0 0 1 .866-.36ZM2.706 65.07a1.225 1.225 0 1 1 0 2.451 1.225 1.225 0 0 1 0-2.45Zm7.325 0a1.225 1.225 0 1 1 0 2.451 1.225 1.225 0 0 1 0-2.45Zm7.328 0a1.225 1.225 0 1 1 0 2.451 1.225 1.225 0 0 1 0-2.45Zm7.326 0a1.225 1.225 0 1 1 0 2.451 1.225 1.225 0 0 1 0-2.45Zm7.328 0a1.225 1.225 0 1 1 0 2.451 1.225 1.225 0 0 1 0-2.45Zm7.325 0a1.226 1.226 0 1 1 0 2.452 1.226 1.226 0 0 1 0-2.452m7.328 0a1.225 1.225 0 1 1 0 2.451 1.225 1.225 0 0 1 0-2.45Zm7.326 0a1.225 1.225 0 1 1 0 2.451 1.225 1.225 0 0 1 0-2.45Zm7.325 0a1.225 1.225 0 1 1-.462.09c.15-.06.31-.09.472-.09zm7.328 0a1.225 1.225 0 1 1 0 2.451 1.225 1.225 0 0 1 0-2.45Zm7.326 0a1.225 1.225 0 1 1 0 2.451 1.225 1.225 0 0 1 0-2.45Zm7.328 0a1.225 1.225 0 1 1 0 2.451 1.225 1.225 0 0 1 0-2.45Zm7.325 0a1.225 1.225 0 1 1 0 2.451 1.225 1.225 0 0 1 0-2.45Zm7.326 0a1.225 1.225 0 1 1 0 2.451 1.225 1.225 0 0 1 0-2.45Zm7.327 0a1.227 1.227 0 0 1 .867 2.092 1.227 1.227 0 0 1-2.092-.866 1.24 1.24 0 0 1 .359-.867 1.23 1.23 0 0 1 .866-.359m7.326 0a1.223 1.223 0 0 1 1.225 1.226 1.224 1.224 0 1 1-1.225-1.226m7.328 0a1.223 1.223 0 0 1 1.225 1.226 1.224 1.224 0 0 1-2.092.866 1.23 1.23 0 0 1 0-1.733 1.23 1.23 0 0 1 .867-.359m7.325 0a1.227 1.227 0 0 1 .867 2.092 1.227 1.227 0 0 1-2.092-.866 1.226 1.226 0 0 1 1.223-1.226zm7.328 0a1.227 1.227 0 0 1 .867 2.092 1.227 1.227 0 0 1-2.092-.866 1.24 1.24 0 0 1 .359-.867 1.23 1.23 0 0 1 .866-.359m7.326 0a1.223 1.223 0 0 1 1.225 1.226 1.224 1.224 0 0 1-2.092.866 1.23 1.23 0 0 1 0-1.733 1.23 1.23 0 0 1 .867-.359m7.325 0a1.227 1.227 0 0 1 .867 2.092 1.227 1.227 0 0 1-2.092-.866 1.24 1.24 0 0 1 .359-.867 1.23 1.23 0 0 1 .866-.359m7.328 0a1.227 1.227 0 0 1 .867 2.092 1.227 1.227 0 0 1-2.092-.866 1.24 1.24 0 0 1 .359-.867 1.23 1.23 0 0 1 .866-.359m7.326 0a1.223 1.223 0 0 1 1.225 1.226 1.224 1.224 0 0 1-2.092.866 1.23 1.23 0 0 1 0-1.733 1.23 1.23 0 0 1 .867-.359M-1.195 69.065a1.225 1.225 0 1 1 0 2.45 1.225 1.225 0 0 1 0-2.45m7.328 0a1.225 1.225 0 1 1 0 2.45 1.225 1.225 0 0 1 0-2.45m7.325 0a1.225 1.225 0 1 1 0 2.45 1.225 1.225 0 0 1 0-2.45m7.328 0a1.225 1.225 0 1 1 0 2.45 1.225 1.225 0 0 1 0-2.45m7.326 0a1.225 1.225 0 1 1 0 2.45 1.225 1.225 0 0 1 0-2.45m7.325 0a1.225 1.225 0 1 1 0 2.45 1.225 1.225 0 0 1 0-2.45m7.328 0a1.225 1.225 0 1 1 0 2.45 1.225 1.225 0 0 1 0-2.45m7.326 0a1.225 1.225 0 1 1 0 2.45 1.225 1.225 0 0 1 0-2.45m7.328 0a1.225 1.225 0 1 1-.013 0zm7.325 0a1.225 1.225 0 1 1 0 2.45 1.225 1.225 0 0 1 0-2.45m7.328 0a1.225 1.225 0 1 1 0 2.45 1.225 1.225 0 0 1 0-2.45m7.326 0a1.225 1.225 0 1 1 0 2.45 1.225 1.225 0 0 1 0-2.45m7.325 0a1.225 1.225 0 1 1 0 2.45 1.225 1.225 0 0 1 0-2.45m7.328 0a1.225 1.225 0 1 1 0 2.45 1.225 1.225 0 0 1 0-2.45m7.326 0a1.225 1.225 0 1 1 0 2.449 1.225 1.225 0 0 1 0-2.45Zm7.328 0a1.226 1.226 0 1 1-.002 2.452 1.226 1.226 0 0 1 .002-2.452m7.325 0a1.227 1.227 0 0 1 .867 2.091 1.227 1.227 0 0 1-2.092-.866 1.224 1.224 0 0 1 1.225-1.225m7.328 0a1.223 1.223 0 0 1 1.225 1.225 1.224 1.224 0 1 1-1.225-1.225m7.325 0a1.227 1.227 0 0 1 .867 2.091 1.227 1.227 0 0 1-2.092-.866 1.22 1.22 0 0 1 .36-.867 1.22 1.22 0 0 1 .868-.358zm7.326 0a1.223 1.223 0 0 1 1.225 1.225 1.224 1.224 0 1 1-1.225-1.225m7.328 0a1.223 1.223 0 0 1 1.225 1.225 1.224 1.224 0 1 1-1.225-1.225m7.325 0a1.227 1.227 0 0 1 .867 2.091 1.227 1.227 0 0 1-1.999-1.335 1.23 1.23 0 0 1 1.132-.756m7.328 0a1.227 1.227 0 0 1 .867 2.091 1.227 1.227 0 0 1-1.999-1.335 1.23 1.23 0 0 1 1.132-.756M2.706 73.083a1.226 1.226 0 1 1 0 2.452 1.226 1.226 0 0 1 0-2.452m7.325 0a1.226 1.226 0 1 1 0 2.452 1.226 1.226 0 0 1 0-2.452m7.328 0a1.226 1.226 0 1 1 0 2.452 1.226 1.226 0 0 1 0-2.452m7.326 0a1.226 1.226 0 1 1 0 2.452 1.226 1.226 0 0 1 0-2.452m7.328 0a1.226 1.226 0 1 1 0 2.451 1.226 1.226 0 0 1 0-2.45Zm7.325 0a1.226 1.226 0 1 1 0 2.452 1.226 1.226 0 0 1 0-2.452m7.328 0a1.226 1.226 0 1 1 0 2.452 1.226 1.226 0 0 1 0-2.452m7.326 0a1.226 1.226 0 1 1 0 2.452 1.226 1.226 0 0 1 0-2.452m7.325 0a1.226 1.226 0 1 1-.462.09c.15-.06.31-.091.472-.09zm7.328 0a1.226 1.226 0 1 1 0 2.452 1.226 1.226 0 0 1 0-2.452m7.326 0a1.226 1.226 0 1 1 0 2.452 1.226 1.226 0 0 1 0-2.452m7.328 0a1.226 1.226 0 1 1 0 2.452 1.226 1.226 0 0 1 0-2.452m7.325 0a1.226 1.226 0 1 1 0 2.452 1.226 1.226 0 0 1 0-2.452m7.326 0a1.226 1.226 0 1 1 0 2.452 1.226 1.226 0 0 1 0-2.452m7.328 0a1.225 1.225 0 1 1 0 2.45 1.225 1.225 0 0 1 0-2.45m7.325 0a1.227 1.227 0 0 1 1.226 1.225 1.224 1.224 0 1 1-1.226-1.225m7.328 0a1.227 1.227 0 0 1 1.226 1.225 1.224 1.224 0 1 1-1.226-1.225m7.326 0a1.225 1.225 0 1 1-.003 0zm7.328 0a1.225 1.225 0 1 1 0 2.45 1.225 1.225 0 0 1 0-2.45m7.325 0a1.227 1.227 0 0 1 1.226 1.225 1.23 1.23 0 0 1-1.226 1.226 1.223 1.223 0 0 1-1.132-1.694 1.23 1.23 0 0 1 1.132-.757m7.326 0a1.225 1.225 0 1 1 0 2.45 1.225 1.225 0 0 1 0-2.45m7.328 0a1.225 1.225 0 1 1 0 2.45 1.225 1.225 0 0 1 0-2.45M-1.194 77.077a1.226 1.226 0 1 1 0 2.452 1.226 1.226 0 0 1 0-2.452m7.327 0a1.226 1.226 0 1 1 0 2.452 1.226 1.226 0 0 1 0-2.452m7.326 0a1.226 1.226 0 1 1 0 2.452 1.226 1.226 0 0 1 0-2.452m7.328 0a1.226 1.226 0 1 1 0 2.451 1.226 1.226 0 0 1 0-2.45Zm7.325 0a1.226 1.226 0 1 1 0 2.453 1.226 1.226 0 0 1 0-2.453m7.326 0a1.226 1.226 0 1 1 0 2.451 1.226 1.226 0 0 1 0-2.45Zm7.328 0a1.226 1.226 0 1 1 0 2.452 1.226 1.226 0 0 1 0-2.452m7.325 0a1.226 1.226 0 1 1 0 2.452 1.226 1.226 0 0 1 0-2.452m7.328 0a1.226 1.226 0 1 1-.012 0zm7.326 0a1.226 1.226 0 1 1 0 2.452 1.226 1.226 0 0 1 0-2.452m7.328 0a1.226 1.226 0 1 1 0 2.451 1.226 1.226 0 0 1 0-2.45Zm7.325 0a1.225 1.225 0 1 1 0 2.451 1.225 1.225 0 0 1 0-2.45Zm7.326 0a1.225 1.225 0 1 1 0 2.451 1.225 1.225 0 0 1 0-2.45Zm7.328 0a1.225 1.225 0 1 1 0 2.451 1.225 1.225 0 0 1 0-2.45Zm7.325 0a1.227 1.227 0 0 1 .867 2.092 1.227 1.227 0 0 1-2.092-.866 1.224 1.224 0 0 1 1.225-1.226m7.328 0a1.227 1.227 0 0 1 .867 2.092 1.227 1.227 0 0 1-2.092-.866 1.224 1.224 0 0 1 1.225-1.226m7.326 0a1.225 1.225 0 1 1 0 2.45 1.225 1.225 0 0 1 0-2.45m7.328 0a1.225 1.225 0 1 1 0 2.45 1.225 1.225 0 0 1 0-2.45m7.325 0a1.227 1.227 0 0 1 .867 2.092 1.227 1.227 0 0 1-1.999-1.336 1.23 1.23 0 0 1 1.135-.756zm7.326 0a1.225 1.225 0 1 1 0 2.45 1.225 1.225 0 0 1 0-2.45m7.328 0a1.225 1.225 0 1 1 0 2.45 1.225 1.225 0 0 1 0-2.45m7.325 0a1.227 1.227 0 0 1 .867 2.092 1.227 1.227 0 0 1-1.999-1.335 1.23 1.23 0 0 1 1.132-.757M2.706 81.1a1.225 1.225 0 1 1 0 2.45 1.225 1.225 0 0 1 0-2.45m7.325 0a1.225 1.225 0 1 1 0 2.45 1.225 1.225 0 0 1 0-2.45m7.328 0a1.225 1.225 0 1 1 0 2.45 1.225 1.225 0 0 1 0-2.45m7.326 0a1.225 1.225 0 1 1 0 2.45 1.225 1.225 0 0 1 0-2.45m7.328 0a1.225 1.225 0 1 1 0 2.45 1.225 1.225 0 0 1 0-2.45m7.325 0a1.225 1.225 0 1 1 0 2.45 1.225 1.225 0 0 1 0-2.45m7.328 0a1.225 1.225 0 1 1 0 2.45 1.225 1.225 0 0 1 0-2.45m7.326 0a1.225 1.225 0 1 1 0 2.45 1.225 1.225 0 0 1 0-2.45m7.325 0a1.225 1.225 0 1 1-.462.09c.15-.061.31-.092.472-.09zm7.328 0a1.225 1.225 0 1 1 0 2.45 1.225 1.225 0 0 1 0-2.45m7.326 0a1.225 1.225 0 1 1 0 2.45 1.225 1.225 0 0 1 0-2.45m7.328 0a1.225 1.225 0 1 1 0 2.45 1.225 1.225 0 0 1 0-2.45m7.325 0a1.225 1.225 0 1 1 0 2.45 1.225 1.225 0 0 1 0-2.45m7.326 0a1.225 1.225 0 1 1 0 2.45 1.225 1.225 0 0 1 0-2.45m7.328 0a1.225 1.225 0 1 1 0 2.448 1.225 1.225 0 0 1 0-2.449Zm7.325 0a1.227 1.227 0 0 1 .867 2.09 1.227 1.227 0 0 1-2.092-.866 1.24 1.24 0 0 1 .359-.866 1.23 1.23 0 0 1 .866-.359Zm7.328 0a1.227 1.227 0 0 1 .867 2.09 1.227 1.227 0 0 1-1.999-1.334 1.23 1.23 0 0 1 1.132-.757Zm7.326 0a1.225 1.225 0 1 1-.003 0zm7.328 0a1.225 1.225 0 1 1 0 2.448 1.225 1.225 0 0 1 0-2.449Zm7.325 0a1.227 1.227 0 0 1 .867 2.09 1.227 1.227 0 0 1-1.999-1.334 1.23 1.23 0 0 1 1.132-.757Zm7.326 0a1.225 1.225 0 1 1 0 2.448 1.225 1.225 0 0 1 0-2.449Zm7.328 0a1.225 1.225 0 1 1 0 2.448 1.225 1.225 0 0 1 0-2.449ZM-1.194 85.093a1.225 1.225 0 1 1 0 2.451 1.225 1.225 0 0 1 0-2.45Zm7.327 0a1.225 1.225 0 1 1 0 2.451 1.225 1.225 0 0 1 0-2.45Zm7.326 0a1.225 1.225 0 1 1 0 2.451 1.225 1.225 0 0 1 0-2.45Zm7.328 0a1.225 1.225 0 1 1 0 2.45 1.225 1.225 0 0 1 0-2.45m7.325 0a1.226 1.226 0 1 1 0 2.452 1.226 1.226 0 0 1 0-2.452m7.326 0a1.225 1.225 0 1 1 0 2.45 1.225 1.225 0 0 1 0-2.45m7.328 0a1.225 1.225 0 1 1 0 2.451 1.225 1.225 0 0 1 0-2.45Zm7.325 0a1.225 1.225 0 1 1 0 2.451 1.225 1.225 0 0 1 0-2.45Zm7.328 0a1.225 1.225 0 1 1-.012 0zm7.326 0a1.225 1.225 0 1 1 0 2.451 1.225 1.225 0 0 1 0-2.45Zm7.328 0a1.225 1.225 0 1 1 0 2.45 1.225 1.225 0 0 1 0-2.45m7.325 0a1.225 1.225 0 1 1 0 2.451 1.225 1.225 0 0 1 0-2.45Zm7.326 0a1.225 1.225 0 1 1 0 2.451 1.225 1.225 0 0 1 0-2.45Zm7.328 0a1.225 1.225 0 1 1 0 2.451 1.225 1.225 0 0 1 0-2.45Zm7.325 0a1.227 1.227 0 0 1 1.226 1.225 1.224 1.224 0 0 1-2.092.867 1.224 1.224 0 0 1 .866-2.092m7.328 0a1.227 1.227 0 0 1 1.226 1.225 1.224 1.224 0 0 1-2.092.867 1.224 1.224 0 0 1 .866-2.092m7.326 0a1.225 1.225 0 1 1 0 2.45 1.225 1.225 0 0 1 0-2.45m7.328 0a1.225 1.225 0 1 1 0 2.45 1.225 1.225 0 0 1 0-2.45m7.325 0a1.227 1.227 0 0 1 1.226 1.225 1.224 1.224 0 0 1-2.092.867 1.224 1.224 0 0 1 .869-2.092zm7.326 0a1.225 1.225 0 1 1 0 2.45 1.225 1.225 0 0 1 0-2.45m7.328 0a1.225 1.225 0 1 1 0 2.45 1.225 1.225 0 0 1 0-2.45m7.325 0a1.227 1.227 0 0 1 1.226 1.225 1.224 1.224 0 0 1-2.092.867 1.224 1.224 0 0 1 .866-2.092M2.706 89.112a1.225 1.225 0 1 1 0 2.45 1.225 1.225 0 0 1 0-2.45m7.325 0a1.225 1.225 0 1 1 0 2.45 1.225 1.225 0 0 1 0-2.45m7.328 0a1.225 1.225 0 1 1 0 2.45 1.225 1.225 0 0 1 0-2.45m7.326 0a1.225 1.225 0 1 1 0 2.45 1.225 1.225 0 0 1 0-2.45m7.328 0a1.225 1.225 0 1 1 0 2.45 1.225 1.225 0 0 1 0-2.45m7.325 0a1.225 1.225 0 1 1 0 2.45 1.225 1.225 0 0 1 0-2.45m7.328 0a1.225 1.225 0 1 1 0 2.45 1.225 1.225 0 0 1 0-2.45m7.326 0a1.225 1.225 0 1 1 0 2.45 1.225 1.225 0 0 1 0-2.45m7.325 0a1.225 1.225 0 1 1-.462.09c.15-.06.31-.091.472-.09zm7.328 0a1.225 1.225 0 1 1 0 2.45 1.225 1.225 0 0 1 0-2.45m7.326 0a1.225 1.225 0 1 1 0 2.45 1.225 1.225 0 0 1 0-2.45m7.328 0a1.225 1.225 0 1 1 0 2.45 1.225 1.225 0 0 1 0-2.45m7.325 0a1.225 1.225 0 1 1 0 2.45 1.225 1.225 0 0 1 0-2.45m7.326 0a1.225 1.225 0 1 1 0 2.45 1.225 1.225 0 0 1 0-2.45m7.328 0a1.225 1.225 0 1 1 0 2.449 1.225 1.225 0 0 1 0-2.45Zm7.325 0a1.227 1.227 0 0 1 .867 2.091 1.227 1.227 0 0 1-2.092-.866 1.24 1.24 0 0 1 .359-.866 1.23 1.23 0 0 1 .866-.36Zm7.328 0a1.227 1.227 0 0 1 .867 2.091 1.227 1.227 0 0 1-1.999-1.335 1.23 1.23 0 0 1 1.132-.756m7.326 0a1.225 1.225 0 1 1-.003 0zm7.328 0a1.225 1.225 0 1 1 0 2.449 1.225 1.225 0 0 1 0-2.45Zm7.325 0a1.227 1.227 0 0 1 .867 2.091 1.227 1.227 0 0 1-1.999-1.335 1.23 1.23 0 0 1 1.132-.756m7.326 0a1.225 1.225 0 1 1 0 2.449 1.225 1.225 0 0 1 0-2.45Zm7.328 0a1.225 1.225 0 1 1 0 2.449 1.225 1.225 0 0 1 0-2.45ZM-1.195 93.104a1.225 1.225 0 1 1 0 2.45 1.225 1.225 0 0 1 0-2.45m7.328 0a1.225 1.225 0 1 1 0 2.45 1.225 1.225 0 0 1 0-2.45m7.325 0a1.225 1.225 0 1 1 0 2.45 1.225 1.225 0 0 1 0-2.45m7.328 0a1.225 1.225 0 1 1 0 2.45 1.225 1.225 0 0 1 0-2.45m7.326 0a1.225 1.225 0 1 1 0 2.45 1.225 1.225 0 0 1 0-2.45m7.325 0a1.225 1.225 0 1 1 0 2.45 1.225 1.225 0 0 1 0-2.45m7.328 0a1.225 1.225 0 1 1 0 2.45 1.225 1.225 0 0 1 0-2.45m7.326 0a1.225 1.225 0 1 1 0 2.45 1.225 1.225 0 0 1 0-2.45m7.328 0a1.225 1.225 0 1 1-.013 0zm7.325 0a1.225 1.225 0 1 1 0 2.45 1.225 1.225 0 0 1 0-2.45m7.328 0a1.225 1.225 0 1 1 0 2.45 1.225 1.225 0 0 1 0-2.45m7.326 0a1.225 1.225 0 1 1 0 2.45 1.225 1.225 0 0 1 0-2.45m7.325 0a1.225 1.225 0 1 1 0 2.45 1.225 1.225 0 0 1 0-2.45m7.328 0a1.225 1.225 0 1 1 0 2.45 1.225 1.225 0 0 1 0-2.45m7.326 0a1.225 1.225 0 1 1 0 2.449 1.225 1.225 0 0 1 0-2.45Zm7.328 0a1.226 1.226 0 1 1-.001 2.452 1.226 1.226 0 0 1 .001-2.452m7.325 0a1.227 1.227 0 0 1 .867 2.091 1.227 1.227 0 0 1-2.092-.866 1.224 1.224 0 0 1 1.225-1.225m7.328 0a1.223 1.223 0 0 1 1.225 1.225 1.224 1.224 0 1 1-1.225-1.225m7.325 0a1.227 1.227 0 0 1 .867 2.091 1.227 1.227 0 0 1-2.092-.866 1.22 1.22 0 0 1 .36-.867 1.22 1.22 0 0 1 .868-.358zm7.326 0a1.223 1.223 0 0 1 1.225 1.225 1.224 1.224 0 1 1-1.225-1.225m7.328 0a1.223 1.223 0 0 1 1.225 1.225 1.224 1.224 0 1 1-1.225-1.225m7.325 0a1.227 1.227 0 0 1 .867 2.091 1.227 1.227 0 0 1-2.092-.866 1.24 1.24 0 0 1 .359-.866 1.23 1.23 0 0 1 .866-.36Zm7.328 0a1.227 1.227 0 0 1 .867 2.091 1.227 1.227 0 0 1-2.092-.866 1.24 1.24 0 0 1 .359-.866 1.23 1.23 0 0 1 .866-.36ZM2.706 97.125a1.226 1.226 0 1 1 0 2.451 1.226 1.226 0 0 1 0-2.451m7.325 0a1.226 1.226 0 1 1 0 2.451 1.226 1.226 0 0 1 0-2.451m7.328 0a1.226 1.226 0 1 1 0 2.451 1.226 1.226 0 0 1 0-2.451m7.326 0a1.226 1.226 0 1 1 0 2.451 1.226 1.226 0 0 1 0-2.451m7.328 0a1.226 1.226 0 1 1 0 2.45 1.226 1.226 0 0 1 0-2.45m7.325 0a1.226 1.226 0 1 1 0 2.451 1.226 1.226 0 0 1 0-2.451m7.328 0a1.226 1.226 0 1 1 0 2.451 1.226 1.226 0 0 1 0-2.451m7.326 0a1.226 1.226 0 1 1 0 2.451 1.226 1.226 0 0 1 0-2.451m7.325 0a1.226 1.226 0 1 1-.462.09c.15-.06.31-.091.472-.09zm7.328 0a1.226 1.226 0 1 1 0 2.451 1.226 1.226 0 0 1 0-2.451m7.326 0a1.226 1.226 0 1 1 0 2.451 1.226 1.226 0 0 1 0-2.451m7.328 0a1.226 1.226 0 1 1 0 2.451 1.226 1.226 0 0 1 0-2.451m7.325 0a1.226 1.226 0 1 1 0 2.451 1.226 1.226 0 0 1 0-2.451m7.326 0a1.226 1.226 0 1 1 0 2.451 1.226 1.226 0 0 1 0-2.451m7.328 0a1.225 1.225 0 1 1 0 2.45 1.225 1.225 0 0 1 0-2.45m7.325 0a1.227 1.227 0 0 1 1.226 1.225 1.224 1.224 0 1 1-1.226-1.225m7.328 0a1.227 1.227 0 0 1 1.226 1.225 1.224 1.224 0 1 1-1.226-1.225m7.326 0a1.225 1.225 0 1 1-.003 0zm7.328 0a1.225 1.225 0 1 1 0 2.45 1.225 1.225 0 0 1 0-2.45m7.325 0a1.227 1.227 0 0 1 1.226 1.225 1.23 1.23 0 0 1-1.226 1.225 1.223 1.223 0 0 1-1.132-1.694 1.23 1.23 0 0 1 1.132-.756m7.326 0a1.225 1.225 0 1 1 0 2.45 1.225 1.225 0 0 1 0-2.45m7.328 0a1.225 1.225 0 1 1 0 2.45 1.225 1.225 0 0 1 0-2.45m-157.759 3.994a1.225 1.225 0 1 1 0 2.45 1.225 1.225 0 0 1 0-2.45m7.328 0a1.225 1.225 0 1 1 0 2.45 1.225 1.225 0 0 1 0-2.45m7.325 0a1.225 1.225 0 1 1 0 2.45 1.225 1.225 0 0 1 0-2.45m7.328 0a1.225 1.225 0 1 1 0 2.45 1.225 1.225 0 0 1 0-2.45m7.326 0a1.225 1.225 0 1 1 0 2.45 1.225 1.225 0 0 1 0-2.45m7.325 0a1.225 1.225 0 1 1 0 2.45 1.225 1.225 0 0 1 0-2.45m7.328 0a1.225 1.225 0 1 1 0 2.45 1.225 1.225 0 0 1 0-2.45m7.326 0a1.225 1.225 0 1 1 0 2.45 1.225 1.225 0 0 1 0-2.45m7.328 0a1.225 1.225 0 1 1-.013 0zm7.325 0a1.225 1.225 0 1 1 0 2.45 1.225 1.225 0 0 1 0-2.45m7.328 0a1.225 1.225 0 1 1 0 2.45 1.225 1.225 0 0 1 0-2.45m7.326 0a1.225 1.225 0 1 1 0 2.45 1.225 1.225 0 0 1 0-2.45m7.325 0a1.225 1.225 0 1 1 0 2.45 1.225 1.225 0 0 1 0-2.45m7.328 0a1.225 1.225 0 1 1 0 2.45 1.225 1.225 0 0 1 0-2.45m7.326 0a1.224 1.224 0 1 1-.867 2.091 1.22 1.22 0 0 1 0-1.732c.23-.23.542-.359.867-.359m7.328 0a1.226 1.226 0 1 1-.001 2.451 1.226 1.226 0 0 1 .001-2.451m7.325 0a1.226 1.226 0 1 1 0 2.452 1.226 1.226 0 0 1 0-2.452m7.328 0a1.22 1.22 0 0 1 1.225 1.225 1.22 1.22 0 0 1-1.225 1.225 1.226 1.226 0 1 1 0-2.45m7.325 0a1.226 1.226 0 1 1-.467.092c.149-.061.309-.092.47-.092zm7.326 0a1.22 1.22 0 0 1 1.225 1.225 1.22 1.22 0 0 1-1.225 1.225 1.226 1.226 0 1 1 0-2.45m7.328 0a1.22 1.22 0 0 1 1.225 1.225 1.22 1.22 0 0 1-1.225 1.225 1.226 1.226 0 1 1 0-2.45m7.325 0a1.226 1.226 0 1 1 0 2.452 1.226 1.226 0 0 1 0-2.452m7.328 0a1.226 1.226 0 1 1 0 2.452 1.226 1.226 0 0 1 0-2.452M2.706 105.138a1.225 1.225 0 1 1 0 2.45 1.225 1.225 0 0 1 0-2.45m7.325 0a1.225 1.225 0 1 1 0 2.45 1.225 1.225 0 0 1 0-2.45m7.328 0a1.225 1.225 0 1 1 0 2.45 1.225 1.225 0 0 1 0-2.45m7.326 0a1.225 1.225 0 1 1 0 2.45 1.225 1.225 0 0 1 0-2.45m7.328 0a1.224 1.224 0 1 1 0 2.449 1.224 1.224 0 0 1 0-2.449m7.325 0a1.225 1.225 0 1 1 0 2.45 1.225 1.225 0 0 1 0-2.45m7.328 0a1.225 1.225 0 1 1 0 2.45 1.225 1.225 0 0 1 0-2.45m7.326 0a1.225 1.225 0 1 1 0 2.45 1.225 1.225 0 0 1 0-2.45m7.325 0a1.224 1.224 0 1 1-.462.09c.15-.061.31-.092.472-.09zm7.328 0a1.225 1.225 0 1 1 0 2.45 1.225 1.225 0 0 1 0-2.45m7.326 0a1.225 1.225 0 1 1 0 2.45 1.225 1.225 0 0 1 0-2.45m7.328 0a1.225 1.225 0 1 1 0 2.45 1.225 1.225 0 0 1 0-2.45m7.325 0a1.225 1.225 0 1 1 0 2.45 1.225 1.225 0 0 1 0-2.45m7.326 0a1.225 1.225 0 1 1 0 2.45 1.225 1.225 0 0 1 0-2.45m7.328 0a1.224 1.224 0 1 1-.867 2.091 1.222 1.222 0 0 1 .398-1.998c.148-.062.308-.093.469-.093m7.325 0a1.226 1.226 0 1 1 0 2.452 1.226 1.226 0 0 1 0-2.452m7.328 0a1.226 1.226 0 1 1 0 2.452 1.226 1.226 0 0 1 0-2.452m7.326 0a1.224 1.224 0 1 1-.867 2.091 1.22 1.22 0 0 1-.001-1.732c.23-.229.541-.359.865-.359zm7.328 0a1.224 1.224 0 1 1-.867 2.091 1.222 1.222 0 0 1 .398-1.998c.148-.062.308-.093.469-.093m7.325 0a1.226 1.226 0 1 1 0 2.452 1.226 1.226 0 0 1 0-2.452m7.326 0a1.224 1.224 0 1 1-.867 2.091 1.222 1.222 0 0 1 .398-1.998c.148-.062.308-.093.469-.093m7.328 0a1.224 1.224 0 1 1-.867 2.091 1.222 1.222 0 0 1 .398-1.998c.148-.062.308-.093.469-.093m-157.759 3.994a1.225 1.225 0 1 1 0 2.45 1.225 1.225 0 0 1 0-2.45m7.328 0a1.225 1.225 0 1 1 0 2.45 1.225 1.225 0 0 1 0-2.45m7.325 0a1.225 1.225 0 1 1 0 2.45 1.225 1.225 0 0 1 0-2.45m7.328 0a1.225 1.225 0 1 1 0 2.45 1.225 1.225 0 0 1 0-2.45m7.326 0a1.225 1.225 0 1 1 0 2.45 1.225 1.225 0 0 1 0-2.45m7.325 0a1.225 1.225 0 1 1 0 2.45 1.225 1.225 0 0 1 0-2.45m7.328 0a1.225 1.225 0 1 1 0 2.45 1.225 1.225 0 0 1 0-2.45m7.326 0a1.225 1.225 0 1 1 0 2.45 1.225 1.225 0 0 1 0-2.45m7.328 0a1.225 1.225 0 1 1-.013 0zm7.325 0a1.225 1.225 0 1 1 0 2.45 1.225 1.225 0 0 1 0-2.45m7.328 0a1.225 1.225 0 1 1 0 2.45 1.225 1.225 0 0 1 0-2.45m7.326 0a1.225 1.225 0 1 1 0 2.45 1.225 1.225 0 0 1 0-2.45m7.325 0a1.225 1.225 0 1 1 0 2.45 1.225 1.225 0 0 1 0-2.45m7.328 0a1.225 1.225 0 1 1 0 2.45 1.225 1.225 0 0 1 0-2.45m7.326 0a1.224 1.224 0 0 1 .866 2.092 1.23 1.23 0 0 1-1.733 0 1.226 1.226 0 0 1 .867-2.092m7.328 0a1.226 1.226 0 1 1-.001 2.451 1.226 1.226 0 0 1 .001-2.451m7.325 0a1.226 1.226 0 1 1 0 2.452 1.226 1.226 0 0 1 0-2.452m7.328 0a1.22 1.22 0 0 1 1.225 1.225 1.226 1.226 0 1 1-1.225-1.225m7.325 0a1.226 1.226 0 1 1-.467.093c.149-.062.309-.093.47-.093zm7.326 0a1.22 1.22 0 0 1 1.225 1.225 1.226 1.226 0 1 1-1.225-1.225m7.328 0a1.22 1.22 0 0 1 1.225 1.225 1.226 1.226 0 1 1-1.225-1.225m7.325 0a1.226 1.226 0 1 1 0 2.452 1.226 1.226 0 0 1 0-2.452m7.328 0a1.226 1.226 0 1 1 0 2.452 1.226 1.226 0 0 1 0-2.452M2.706 113.141a1.225 1.225 0 1 1 0 2.45 1.225 1.225 0 0 1 0-2.45m7.326 0a1.225 1.225 0 1 1 0 2.45 1.225 1.225 0 0 1 0-2.45m7.328 0a1.225 1.225 0 1 1 0 2.45 1.225 1.225 0 0 1 0-2.45m7.325 0a1.225 1.225 0 1 1 0 2.45 1.225 1.225 0 0 1 0-2.45m7.328 0a1.225 1.225 0 1 1 0 2.45 1.225 1.225 0 0 1 0-2.45m7.326 0a1.225 1.225 0 1 1 0 2.45 1.225 1.225 0 0 1 0-2.45m7.328 0a1.225 1.225 0 1 1 0 2.45 1.225 1.225 0 0 1 0-2.45m7.325 0a1.225 1.225 0 1 1 0 2.45 1.225 1.225 0 0 1 0-2.45m7.336 0a1.225 1.225 0 1 1 0 2.45 1.225 1.225 0 0 1 0-2.45m7.328 0a1.225 1.225 0 1 1-.01 0zm7.325 0a1.225 1.225 0 1 1-.01 0zm7.328 0a1.225 1.225 0 1 1-.01 0zm7.326 0a1.225 1.225 0 1 1-.01 0zm7.325 0a1.225 1.225 0 1 1-.01 0zm7.328 0a1.226 1.226 0 1 1-.01 0zm7.326 0a1.224 1.224 0 1 1-.867 2.091 1.22 1.22 0 0 1-.003-1.729c.227-.229.536-.36.86-.362zm7.328 0a1.224 1.224 0 1 1-.867 2.091 1.22 1.22 0 0 1-.003-1.729c.227-.229.536-.36.86-.362zm7.313 0a1.224 1.224 0 1 1-.867 2.091 1.22 1.22 0 0 1 0-1.732c.23-.23.542-.359.867-.359m7.328 0a1.224 1.224 0 1 1-.867 2.091 1.22 1.22 0 0 1 .001-1.733c.114-.114.25-.204.398-.266.149-.061.309-.092.47-.092zm7.325 0a1.226 1.226 0 1 1-.467.092c.149-.061.309-.092.47-.092zm7.326 0a1.224 1.224 0 1 1-.867 2.091 1.22 1.22 0 0 1 .001-1.733c.114-.114.25-.204.398-.266.149-.061.309-.092.47-.092zm7.328 0a1.224 1.224 0 1 1-.867 2.091 1.22 1.22 0 0 1 .001-1.733 1.23 1.23 0 0 1 .868-.358zm-157.756 4.004a1.225 1.225 0 1 1 0 2.45 1.225 1.225 0 0 1 0-2.45m7.327 0a1.225 1.225 0 1 1 0 2.45 1.225 1.225 0 0 1 0-2.45m7.326 0a1.225 1.225 0 1 1 0 2.45 1.225 1.225 0 0 1 0-2.45m7.328 0a1.224 1.224 0 1 1 0 2.449 1.224 1.224 0 0 1 0-2.449m7.325 0a1.225 1.225 0 1 1 0 2.45 1.225 1.225 0 0 1 0-2.45m7.326 0a1.224 1.224 0 1 1 0 2.449 1.224 1.224 0 0 1 0-2.449m7.328 0a1.225 1.225 0 1 1 0 2.45 1.225 1.225 0 0 1 0-2.45m7.325 0a1.225 1.225 0 1 1 0 2.45 1.225 1.225 0 0 1 0-2.45m7.328 0a1.225 1.225 0 1 1-.012 0zm7.326 0a1.225 1.225 0 1 1 0 2.45 1.225 1.225 0 0 1 0-2.45m7.328 0a1.224 1.224 0 1 1 0 2.449 1.224 1.224 0 0 1 0-2.449m7.325 0a1.225 1.225 0 1 1 0 2.45 1.225 1.225 0 0 1 0-2.45m7.326 0a1.225 1.225 0 1 1 0 2.45 1.225 1.225 0 0 1 0-2.45m7.328 0a1.225 1.225 0 1 1 0 2.45 1.225 1.225 0 0 1 0-2.45m7.325 0a1.226 1.226 0 1 1 0 2.452 1.226 1.226 0 0 1 0-2.452m7.328 0a1.226 1.226 0 1 1 0 2.452 1.226 1.226 0 0 1 0-2.452m7.326 0a1.224 1.224 0 1 1 0 2.45 1.23 1.23 0 0 1-.867-.358 1.228 1.228 0 0 1 .867-2.092m7.328 0a1.224 1.224 0 1 1 0 2.45 1.226 1.226 0 0 1 0-2.45m7.325 0a1.226 1.226 0 1 1-.467.093c.149-.062.309-.093.47-.093zm7.326 0a1.224 1.224 0 1 1 0 2.45 1.226 1.226 0 0 1 0-2.45m7.328 0a1.224 1.224 0 1 1 0 2.45 1.226 1.226 0 0 1 0-2.45m7.325 0a1.226 1.226 0 1 1 0 2.452 1.226 1.226 0 0 1 0-2.452M2.706 121.164a1.23 1.23 0 0 1 1.225 1.225 1.225 1.225 0 1 1-1.225-1.225m7.325 0a1.23 1.23 0 0 1 1.226 1.225 1.225 1.225 0 1 1-1.226-1.225m7.328 0a1.23 1.23 0 0 1 1.226 1.225 1.225 1.225 0 1 1-1.226-1.225m7.326 0a1.23 1.23 0 0 1 1.225 1.225 1.225 1.225 0 1 1-1.225-1.225m7.328 0a1.23 1.23 0 0 1 1.225 1.225 1.224 1.224 0 1 1-1.225-1.225m7.325 0a1.23 1.23 0 0 1 1.226 1.225 1.225 1.225 0 1 1-1.226-1.225m7.328 0a1.23 1.23 0 0 1 1.226 1.225 1.225 1.225 0 1 1-1.226-1.225m7.326 0a1.23 1.23 0 0 1 1.225 1.225 1.225 1.225 0 1 1-1.225-1.225m7.325 0a1.23 1.23 0 0 1 1.226 1.225 1.225 1.225 0 1 1-1.216-1.225zm7.328 0a1.23 1.23 0 0 1 1.226 1.225 1.225 1.225 0 1 1-1.226-1.225m7.326 0a1.23 1.23 0 0 1 1.225 1.225 1.225 1.225 0 1 1-1.225-1.225m7.328 0a1.23 1.23 0 0 1 1.225 1.225 1.225 1.225 0 1 1-1.225-1.225m7.325 0a1.23 1.23 0 0 1 1.226 1.225 1.225 1.225 0 1 1-1.226-1.225m7.326 0a1.23 1.23 0 0 1 1.225 1.225 1.225 1.225 0 1 1-1.225-1.225m7.328 0a1.227 1.227 0 0 1 1.225 1.225 1.224 1.224 0 0 1-2.092.866 1.224 1.224 0 0 1 .867-2.091m7.325 0a1.226 1.226 0 1 1 0 2.45 1.226 1.226 0 0 1 0-2.45m7.328 0a1.226 1.226 0 1 1 0 2.45 1.226 1.226 0 0 1 0-2.45m7.326 0a1.227 1.227 0 0 1 1.225 1.225 1.224 1.224 0 0 1-2.092.866 1.224 1.224 0 0 1 .864-2.091zm7.328 0a1.227 1.227 0 0 1 1.225 1.225 1.224 1.224 0 0 1-2.092.866 1.224 1.224 0 0 1 .867-2.091m7.325 0c.325 0 .637.129.867.358a1.228 1.228 0 0 1-.867 2.092 1.22 1.22 0 0 1-1.225-1.225 1.22 1.22 0 0 1 .756-1.132q.226-.093.469-.093m7.326 0a1.227 1.227 0 0 1 1.225 1.225 1.224 1.224 0 0 1-2.092.866 1.224 1.224 0 0 1 .867-2.091m7.328 0a1.227 1.227 0 0 1 1.225 1.225 1.224 1.224 0 0 1-2.092.866 1.224 1.224 0 0 1 .867-2.091m-157.76 3.984a1.23 1.23 0 0 1 1.226 1.226 1.225 1.225 0 1 1-1.226-1.226m7.328 0a1.23 1.23 0 0 1 1.226 1.226 1.225 1.225 0 1 1-1.226-1.226m7.326 0a1.23 1.23 0 0 1 1.225 1.226 1.225 1.225 0 1 1-1.225-1.226m7.328 0a1.23 1.23 0 0 1 1.225 1.226 1.224 1.224 0 1 1-1.225-1.226m7.325 0a1.23 1.23 0 0 1 1.226 1.226 1.225 1.225 0 1 1-1.226-1.226m7.326 0a1.23 1.23 0 0 1 1.225 1.226 1.224 1.224 0 1 1-1.225-1.226m7.328 0a1.23 1.23 0 0 1 1.225 1.226 1.225 1.225 0 1 1-1.225-1.226m7.325 0a1.23 1.23 0 0 1 1.226 1.226 1.225 1.225 0 1 1-1.226-1.226m7.328 0a1.23 1.23 0 0 1 1.226 1.226 1.225 1.225 0 1 1-1.238-1.226zm7.326 0a1.23 1.23 0 0 1 1.225 1.226 1.225 1.225 0 1 1-1.225-1.226m7.328 0a1.23 1.23 0 0 1 1.225 1.226 1.225 1.225 0 1 1-1.225-1.226m7.325 0a1.23 1.23 0 0 1 1.225 1.226 1.225 1.225 0 1 1-1.225-1.226m7.326 0a1.23 1.23 0 0 1 1.225 1.226 1.225 1.225 0 1 1-1.225-1.226m7.328 0a1.23 1.23 0 0 1 1.225 1.226 1.225 1.225 0 1 1-1.225-1.226m7.325 0c.325 0 .637.13.867.359a1.23 1.23 0 0 1 0 1.733 1.226 1.226 0 1 1-.867-2.092m7.328 0a1.226 1.226 0 0 1 0 2.451 1.22 1.22 0 0 1-1.225-1.225 1.226 1.226 0 0 1 1.225-1.226m7.326 0a1.23 1.23 0 0 1 1.225 1.226 1.224 1.224 0 0 1-2.092.866 1.224 1.224 0 0 1 .867-2.092m7.327 0a1.226 1.226 0 1 1 0 2.452 1.226 1.226 0 0 1 0-2.452m7.328 0a1.226 1.226 0 1 1 0 2.452 1.226 1.226 0 0 1 0-2.452m7.326 0a1.226 1.226 0 1 1-.003 0zm7.328 0a1.226 1.226 0 1 1-.003 0zm7.325 0a1.226 1.226 0 1 1-.002 0zm7.328 0a1.226 1.226 0 1 1-.002 0zM2.706 129.177a1.23 1.23 0 0 1 1.225 1.225 1.225 1.225 0 1 1-1.225-1.225m7.325 0a1.23 1.23 0 0 1 1.226 1.225 1.225 1.225 0 1 1-1.226-1.225m7.328 0a1.23 1.23 0 0 1 1.225 1.225 1.225 1.225 0 1 1-1.225-1.225m7.326 0a1.23 1.23 0 0 1 1.225 1.225 1.225 1.225 0 1 1-1.225-1.225m7.328 0a1.23 1.23 0 0 1 1.225 1.225 1.224 1.224 0 1 1-1.225-1.225m7.325 0a1.227 1.227 0 0 1 0 2.45 1.225 1.225 0 1 1 0-2.45m7.328 0a1.23 1.23 0 0 1 1.225 1.225 1.225 1.225 0 1 1-1.225-1.225m7.326 0a1.23 1.23 0 0 1 1.225 1.225 1.225 1.225 0 1 1-1.225-1.225m7.325 0a1.23 1.23 0 0 1 1.225 1.225 1.225 1.225 0 1 1-1.215-1.225zm7.328 0a1.23 1.23 0 0 1 1.225 1.225 1.225 1.225 0 1 1-1.225-1.225m7.326 0a1.23 1.23 0 0 1 1.225 1.225 1.225 1.225 0 1 1-1.225-1.225m7.328 0a1.23 1.23 0 0 1 1.225 1.225 1.225 1.225 0 1 1-1.225-1.225m7.325 0a1.23 1.23 0 0 1 1.225 1.225 1.225 1.225 0 1 1-1.225-1.225m7.326 0a1.23 1.23 0 0 1 1.225 1.225 1.225 1.225 0 1 1-1.225-1.225m7.327 0a1.226 1.226 0 1 1 0 2.45 1.226 1.226 0 0 1 0-2.45m7.326 0a1.225 1.225 0 1 1 0 2.45 1.225 1.225 0 0 1 0-2.45m7.328 0a1.225 1.225 0 1 1 0 2.45 1.225 1.225 0 0 1 0-2.45m7.325 0a1.226 1.226 0 1 1-.002 0zm7.328 0a1.226 1.226 0 1 1 0 2.45 1.226 1.226 0 0 1 0-2.45m7.326 0a1.225 1.225 0 1 1 0 2.45 1.225 1.225 0 0 1 0-2.45m7.325 0a1.226 1.226 0 1 1 0 2.45 1.226 1.226 0 0 1 0-2.45m7.328 0a1.226 1.226 0 1 1 0 2.45 1.226 1.226 0 0 1 0-2.45m7.326 0a1.225 1.225 0 1 1 0 2.45 1.225 1.225 0 0 1 0-2.45m-165.085 3.994a1.225 1.225 0 1 1 0 2.45 1.225 1.225 0 0 1 0-2.45m7.328 0a1.225 1.225 0 1 1 0 2.45 1.225 1.225 0 0 1 0-2.45m7.326 0a1.225 1.225 0 1 1 0 2.45 1.225 1.225 0 0 1 0-2.45m7.328 0a1.225 1.225 0 1 1 0 2.45 1.225 1.225 0 0 1 0-2.45m7.325 0a1.225 1.225 0 1 1 0 2.45 1.225 1.225 0 0 1 0-2.45m7.326 0a1.225 1.225 0 1 1 0 2.45 1.225 1.225 0 0 1 0-2.45m7.328 0a1.225 1.225 0 1 1 0 2.45 1.225 1.225 0 0 1 0-2.45m7.325 0a1.225 1.225 0 1 1 0 2.45 1.225 1.225 0 0 1 0-2.45m7.328 0a1.225 1.225 0 1 1-.012 0zm7.326 0a1.225 1.225 0 1 1 0 2.45 1.225 1.225 0 0 1 0-2.45m7.328 0a1.224 1.224 0 1 1 0 2.449 1.224 1.224 0 0 1 0-2.449m7.325 0a1.225 1.225 0 1 1 0 2.45 1.225 1.225 0 0 1 0-2.45m7.326 0a1.225 1.225 0 1 1 0 2.45 1.225 1.225 0 0 1 0-2.45m7.328 0a1.225 1.225 0 1 1 0 2.45 1.225 1.225 0 0 1 0-2.45m7.325 0a1.226 1.226 0 1 1 0 2.452 1.226 1.226 0 0 1 0-2.452m7.328 0a1.226 1.226 0 1 1 0 2.452 1.226 1.226 0 0 1 0-2.452m7.326 0a1.224 1.224 0 1 1 0 2.448 1.224 1.224 0 0 1 0-2.448m7.328 0a1.224 1.224 0 1 1 0 2.448 1.224 1.224 0 0 1 0-2.448m7.325 0a1.226 1.226 0 1 1-.467.092q.225-.093.47-.092zm7.326 0a1.224 1.224 0 1 1 0 2.448 1.224 1.224 0 0 1 0-2.448m7.328 0a1.224 1.224 0 1 1 0 2.448 1.224 1.224 0 0 1 0-2.448m7.325 0a1.226 1.226 0 1 1 0 2.452 1.226 1.226 0 0 1 0-2.452m7.328 0a1.226 1.226 0 1 1 0 2.452 1.226 1.226 0 0 1 0-2.452m7.326 0a1.224 1.224 0 1 1 0 2.448 1.224 1.224 0 0 1 0-2.448m-164.61 4.018a1.23 1.23 0 0 1 1.226 1.226 1.225 1.225 0 1 1-1.226-1.226m7.326 0a1.23 1.23 0 0 1 1.225 1.226 1.225 1.225 0 1 1-1.225-1.226m7.328 0a1.23 1.23 0 0 1 1.225 1.226 1.225 1.225 0 1 1-1.225-1.226m7.325 0a1.23 1.23 0 0 1 1.226 1.226 1.225 1.225 0 1 1-1.226-1.226m7.328 0a1.23 1.23 0 0 1 1.226 1.226 1.225 1.225 0 1 1-1.226-1.226m7.326 0a1.23 1.23 0 0 1 1.225 1.226 1.225 1.225 0 1 1-1.225-1.226m7.328 0a1.23 1.23 0 0 1 1.225 1.226 1.225 1.225 0 1 1-1.225-1.226m7.325 0a1.23 1.23 0 0 1 1.226 1.226 1.225 1.225 0 1 1-1.226-1.226m7.326 0a1.23 1.23 0 0 1 1.225 1.226 1.225 1.225 0 1 1-1.215-1.226zm7.328 0a1.23 1.23 0 0 1 1.225 1.226 1.225 1.225 0 1 1-1.225-1.226m7.325 0a1.23 1.23 0 0 1 1.226 1.226 1.225 1.225 0 1 1-1.226-1.226m7.328 0a1.23 1.23 0 0 1 1.225 1.226 1.225 1.225 0 1 1-1.225-1.226m7.326 0a1.23 1.23 0 0 1 1.225 1.226 1.224 1.224 0 1 1-1.225-1.226m7.325 0a1.23 1.23 0 0 1 1.225 1.226 1.225 1.225 0 1 1-1.225-1.226m7.328 0c.325 0 .637.13.867.359a1.228 1.228 0 0 1-.867 2.092 1.22 1.22 0 0 1-1.225-1.225 1.22 1.22 0 0 1 .359-.867 1.22 1.22 0 0 1 .866-.359m7.326 0a1.23 1.23 0 0 1 1.225 1.226 1.224 1.224 0 0 1-2.092.866 1.224 1.224 0 0 1 .867-2.092m7.328 0a1.23 1.23 0 0 1 1.225 1.226 1.224 1.224 0 0 1-2.092.866 1.224 1.224 0 0 1 .867-2.092m7.325 0c.325 0 .637.13.867.359a1.23 1.23 0 0 1 0 1.733 1.226 1.226 0 1 1-.869-2.092zm7.328 0c.325 0 .637.13.867.359a1.23 1.23 0 0 1 0 1.733 1.226 1.226 0 1 1-.867-2.092m7.326 0a1.23 1.23 0 0 1 1.225 1.226 1.224 1.224 0 0 1-2.092.866 1.224 1.224 0 0 1 .867-2.092m7.325 0c.325 0 .637.13.867.359a1.23 1.23 0 0 1 0 1.733 1.226 1.226 0 1 1-.867-2.092m7.328 0a1.226 1.226 0 0 1 0 2.451 1.22 1.22 0 0 1-1.225-1.225 1.22 1.22 0 0 1 .359-.867 1.22 1.22 0 0 1 .866-.359m7.326 0a1.23 1.23 0 0 1 1.225 1.226 1.224 1.224 0 0 1-2.092.866 1.224 1.224 0 0 1 .867-2.092m7.325 0c.325 0 .637.13.867.359a1.23 1.23 0 0 1 0 1.733 1.226 1.226 0 1 1-.867-2.092m-172.411 3.995a1.225 1.225 0 1 1 0 2.45 1.225 1.225 0 0 1 0-2.45m7.328 0a1.225 1.225 0 1 1 0 2.45 1.225 1.225 0 0 1 0-2.45m7.326 0a1.225 1.225 0 1 1 0 2.45 1.225 1.225 0 0 1 0-2.45m7.328 0a1.225 1.225 0 1 1 0 2.45 1.225 1.225 0 0 1 0-2.45m7.325 0a1.225 1.225 0 1 1 0 2.45 1.225 1.225 0 0 1 0-2.45m7.326 0a1.225 1.225 0 1 1 0 2.45 1.225 1.225 0 0 1 0-2.45m7.328 0a1.225 1.225 0 1 1 0 2.45 1.225 1.225 0 0 1 0-2.45m7.325 0a1.225 1.225 0 1 1 0 2.45 1.225 1.225 0 0 1 0-2.45m7.328 0a1.225 1.225 0 1 1-.012 0zm7.326 0a1.225 1.225 0 1 1 0 2.45 1.225 1.225 0 0 1 0-2.45m7.328 0a1.224 1.224 0 1 1 0 2.449 1.224 1.224 0 0 1 0-2.449m7.325 0a1.225 1.225 0 1 1 0 2.45 1.225 1.225 0 0 1 0-2.45m7.326 0a1.225 1.225 0 1 1 0 2.45 1.225 1.225 0 0 1 0-2.45m7.328 0a1.225 1.225 0 1 1 0 2.45 1.225 1.225 0 0 1 0-2.45m7.325 0a1.226 1.226 0 1 1 0 2.452 1.226 1.226 0 0 1 0-2.452m7.328 0a1.226 1.226 0 1 1 0 2.452 1.226 1.226 0 0 1 0-2.452m7.326 0a1.224 1.224 0 1 1-.867 2.091 1.22 1.22 0 0 1 0-1.732c.23-.23.542-.359.867-.359m7.328 0a1.224 1.224 0 1 1-.867 2.091 1.222 1.222 0 0 1 .398-1.998c.148-.061.308-.093.469-.093m7.325 0a1.226 1.226 0 1 1-.467.092q.225-.092.47-.092zm7.326 0a1.224 1.224 0 1 1-.867 2.091 1.222 1.222 0 0 1 .398-1.998c.148-.061.308-.093.469-.093m7.328 0a1.224 1.224 0 1 1-.867 2.091 1.222 1.222 0 0 1 .398-1.998c.148-.061.308-.093.469-.093m7.325 0a1.226 1.226 0 1 1 0 2.452 1.226 1.226 0 0 1 0-2.452m7.328 0a1.226 1.226 0 1 1 0 2.452 1.226 1.226 0 0 1 0-2.452m7.326 0a1.224 1.224 0 1 1-.867 2.091 1.222 1.222 0 0 1 .398-1.998c.148-.061.308-.093.469-.093"/></g><path fill="#000" d="M31.803 129.913q-.876 0-1.494-.289a2.7 2.7 0 0 1-.988-.813 3.6 3.6 0 0 1-.546-1.164 5.3 5.3 0 0 1-.175-1.37v-3.729h1.421v3.729q0 .453.082.886.093.422.3.762.205.34.545.536.34.195.845.195.515 0 .855-.195.35-.207.545-.546a2.5 2.5 0 0 0 .3-.763q.091-.432.092-.875v-3.729h1.41v3.729q.001.752-.184 1.411a3.2 3.2 0 0 1-.567 1.164q-.381.494-.989.783-.608.278-1.452.278m6.348.051q-.69 0-1.319-.226a3 3 0 0 1-1.081-.67l.494-.896q.485.391.948.577.474.185.906.185.402 0 .639-.144a.47.47 0 0 0 .247-.432q0-.197-.134-.299a1.2 1.2 0 0 0-.391-.196 14 14 0 0 0-.608-.185 10 10 0 0 1-.999-.381q-.402-.185-.608-.464-.195-.288-.195-.731 0-.536.268-.917.277-.391.762-.608.495-.216 1.153-.216.578 0 1.092.186.515.175.937.576l-.556.876a3.2 3.2 0 0 0-.783-.464 1.9 1.9 0 0 0-.752-.154q-.216 0-.411.051a.7.7 0 0 0-.31.175q-.113.114-.113.33 0 .195.103.309.114.103.33.185.226.083.546.186.648.184 1.091.381.455.195.68.484.227.278.227.773 0 .803-.587 1.256-.588.453-1.576.453m5.604 0q-.649 0-1.174-.216a2.8 2.8 0 0 1-.896-.608 2.9 2.9 0 0 1-.577-.885 2.9 2.9 0 0 1-.195-1.061q0-.773.34-1.411.35-.639.988-1.02.65-.392 1.525-.392.885 0 1.514.392.628.381.958 1.02.34.628.34 1.359a3 3 0 0 1-.031.464h-4.172q.042.412.237.721.207.31.515.473a1.59 1.59 0 0 0 1.452-.041q.372-.206.505-.535l1.185.329q-.196.413-.567.732-.36.319-.855.504-.494.175-1.092.175m-1.41-3.234h2.822a1.56 1.56 0 0 0-.237-.711 1.25 1.25 0 0 0-.495-.473 1.4 1.4 0 0 0-.69-.175q-.37 0-.68.175a1.35 1.35 0 0 0-.494.473q-.186.3-.227.711Zm4.955-4.182 1.803 3.441 1.833-3.441h1.535l-2.658 4.759v2.554h-1.41v-2.575l-2.648-4.738zm7.389 7.416a3.1 3.1 0 0 1-1.184-.216 2.7 2.7 0 0 1-.897-.618 2.8 2.8 0 0 1-.556-.896 2.9 2.9 0 0 1-.196-1.061q0-.567.196-1.071a2.8 2.8 0 0 1 .556-.896 2.6 2.6 0 0 1 .897-.608q.524-.227 1.184-.227t1.174.227a2.56 2.56 0 0 1 1.453 1.504q.195.504.195 1.071a2.9 2.9 0 0 1-.196 1.061 2.6 2.6 0 0 1-.556.896q-.36.392-.886.618a3.1 3.1 0 0 1-1.184.216m-1.411-2.791q0 .474.185.845.186.36.505.566.32.206.721.206.391 0 .71-.206a1.5 1.5 0 0 0 .505-.577 1.8 1.8 0 0 0 .196-.844q0-.463-.196-.835a1.43 1.43 0 0 0-.504-.576 1.3 1.3 0 0 0-.711-.206q-.402 0-.721.216-.32.206-.505.577-.185.36-.185.834m5.113.67v-3.379h1.38v3.08q0 .618.227.937.226.309.67.309a1.4 1.4 0 0 0 1.009-.432q.227-.218.381-.546v-3.348h1.38v3.852q0 .218.072.309.083.093.258.114v1.122a5 5 0 0 1-.35.042 2 2 0 0 1-.248.02q-.371 0-.607-.165a.7.7 0 0 1-.268-.473l-.03-.433a2.4 2.4 0 0 1-.928.834 2.8 2.8 0 0 1-1.246.278q-.834 0-1.267-.535-.432-.546-.433-1.586m9.632-2.184q-.628 0-1.122.247a1.45 1.45 0 0 0-.711.69v3.265h-1.38v-5.397h1.267v1.154q.288-.556.731-.876t.937-.35h.175q.063 0 .103.01zm7.504-1.195a1.7 1.7 0 0 0-.268-.196 2.6 2.6 0 0 0-.463-.236 4 4 0 0 0-.588-.196 2.3 2.3 0 0 0-.648-.093q-.578 0-.876.216a.72.72 0 0 0-.288.608.62.62 0 0 0 .185.474q.187.175.556.299.371.123.927.267.721.175 1.247.433.536.248.813.659.29.402.289 1.071 0 .587-.217 1.01a1.8 1.8 0 0 1-.597.669 2.7 2.7 0 0 1-.865.381 4.5 4.5 0 0 1-1.03.114 5.3 5.3 0 0 1-1.092-.114 6 6 0 0 1-1.05-.319 5 5 0 0 1-.928-.515l.629-1.226q.091.093.33.248.236.144.576.298.34.144.742.248.401.103.813.103.578 0 .876-.196a.63.63 0 0 0 .299-.556.62.62 0 0 0-.237-.515q-.237-.186-.66-.32a21 21 0 0 0-.999-.309 6.4 6.4 0 0 1-1.153-.432q-.465-.248-.69-.618-.227-.37-.227-.927 0-.752.35-1.257.36-.515.968-.772a3.3 3.3 0 0 1 1.35-.268q.515 0 .968.113a5 5 0 0 1 1.586.701zm4.94 5.119q-.175.072-.423.165-.247.093-.535.144a2.6 2.6 0 0 1-.567.062q-.38 0-.7-.134a1.15 1.15 0 0 1-.515-.422q-.186-.299-.186-.773v-3.1h-.71v-1.061h.71v-1.751h1.38v1.751h1.133v1.061h-1.133v2.637q.01.278.155.402a.54.54 0 0 0 .36.123q.217 0 .423-.072a6 6 0 0 0 .33-.124zm3.932-3.924q-.628 0-1.123.247a1.45 1.45 0 0 0-.71.69v3.265h-1.38v-5.397h1.266v1.154q.288-.556.731-.876.444-.319.938-.35h.175q.061 0 .103.01zm3.202 4.305q-.65 0-1.174-.216a2.8 2.8 0 0 1-.896-.608 2.9 2.9 0 0 1-.577-.885 2.9 2.9 0 0 1-.196-1.061q0-.773.34-1.411a2.66 2.66 0 0 1 .989-1.02q.648-.392 1.524-.392.886 0 1.514.392.63.381.958 1.02.34.628.34 1.359a3 3 0 0 1-.03.464H86.22q.04.412.237.721.206.31.515.473a1.59 1.59 0 0 0 1.452-.041q.37-.206.505-.535l1.184.329q-.196.412-.566.732-.36.319-.855.504-.495.175-1.092.175Zm-1.411-3.234h2.822a1.56 1.56 0 0 0-.237-.711 1.25 1.25 0 0 0-.494-.473 1.4 1.4 0 0 0-.69-.175 1.35 1.35 0 0 0-.68.175 1.35 1.35 0 0 0-.495.473q-.185.3-.226.711m10.09 3.131H94.9v-3.028q0-.648-.227-.947a.74.74 0 0 0-.628-.299q-.278 0-.567.144-.277.144-.504.402a1.5 1.5 0 0 0-.33.577v3.151h-1.38v-5.397h1.246v.999q.207-.35.525-.587.32-.247.732-.371a3 3 0 0 1 .886-.134q.503 0 .824.186.33.175.494.484.175.299.237.68.072.38.072.772zm3.312.031a2.35 2.35 0 0 1-.99-.206 2.4 2.4 0 0 1-.772-.597 2.8 2.8 0 0 1-.494-.876 3.1 3.1 0 0 1-.175-1.05q0-.588.185-1.092a2.8 2.8 0 0 1 .515-.886 2.3 2.3 0 0 1 .793-.597 2.4 2.4 0 0 1 1.02-.217q.628 0 1.102.289.474.278.783.752v-.948h1.205v5.14q0 .803-.391 1.37a2.4 2.4 0 0 1-1.061.875q-.68.309-1.545.309-.876 0-1.483-.298a2.96 2.96 0 0 1-1.04-.824l.751-.732q.31.38.773.598a2.4 2.4 0 0 0 .999.216q.443 0 .803-.165.37-.155.587-.494.227-.33.227-.855v-.68a1.85 1.85 0 0 1-.762.721 2.2 2.2 0 0 1-1.03.247m.463-1.102q.226 0 .433-.072a1.53 1.53 0 0 0 .69-.484q.134-.176.206-.35v-1.288a1.7 1.7 0 0 0-.35-.556 1.5 1.5 0 0 0-.495-.36 1.24 1.24 0 0 0-.566-.134 1.22 1.22 0 0 0-1.02.515q-.186.237-.288.535a2 2 0 0 0-.093.608 1.67 1.67 0 0 0 .422 1.123q.207.216.474.34.278.123.587.123m7.187.793q-.174.072-.422.165-.247.093-.536.144a2.6 2.6 0 0 1-.566.062q-.382 0-.7-.134a1.14 1.14 0 0 1-.515-.422q-.186-.299-.186-.773v-3.1h-.711v-1.061h.711v-1.751h1.38v1.751h1.133v1.061h-1.133v2.637q.01.278.155.402a.54.54 0 0 0 .36.123q.217 0 .423-.072t.329-.124zm5.735.278h-1.38v-3.028q0-.628-.247-.937-.237-.309-.659-.309-.247 0-.526.144-.278.144-.504.402a1.6 1.6 0 0 0-.32.577v3.151h-1.38v-7.519h1.38v3.121q.3-.515.814-.803a2.26 2.26 0 0 1 1.123-.289q.525 0 .855.186.329.175.515.484.185.299.257.68.072.37.072.772zm3.188.103q-.69 0-1.318-.226a3 3 0 0 1-1.082-.67l.495-.896q.484.391.947.577.474.185.907.185.401 0 .638-.144a.47.47 0 0 0 .248-.432q0-.197-.134-.299a1.2 1.2 0 0 0-.392-.196 14 14 0 0 0-.607-.185 10 10 0 0 1-.999-.381q-.402-.186-.608-.464-.196-.288-.196-.731 0-.536.268-.917.277-.391.762-.608.494-.216 1.154-.216.576 0 1.092.186.514.175.937.576l-.556.876a3.2 3.2 0 0 0-.783-.464 1.9 1.9 0 0 0-.752-.154q-.216 0-.412.051a.7.7 0 0 0-.309.175q-.113.114-.113.33 0 .195.103.309.113.103.329.185.226.083.546.186.65.185 1.092.381.453.196.68.484.226.278.226.773 0 .803-.587 1.256-.586.453-1.576.453"/><path fill="#90D470" d="M54.084 81.096H3.368v55.771h50.716v-55.77Z"/><path fill="#000" d="M54.463 87.326H3v-6.61h51.463zm-50.715-.748h49.98v-5.114H3.748z"/><path fill="#fff" d="M49.24 93.377H8.22v8.283h41.02zm0 14.347H8.22v8.282h41.02zm0 14.155H8.22v8.283h41.02z"/><path fill="#90D470" d="M116.96 27.402a5.163 5.163 0 0 1-8.833 3.64 5.162 5.162 0 1 1 8.833-3.64"/><path fill="#000" d="M155.774 85.582a6.99 6.99 0 0 1-6.855-8.353 6.995 6.995 0 0 1 5.492-5.491 6.988 6.988 0 1 1 1.363 13.844m0-13.23a6.253 6.253 0 1 0-.023 12.504 6.253 6.253 0 0 0 .023-12.505Zm-139.84-6.017 8.46-19.14 6.598 17.61zm8.4-17.17-7.202 16.304 12.827-1.306z"/><path fill="#EEB47E" d="m88.388 84.075-18.962-1.068 5.197-24.195 13.112.736.083 2.883.226 8.876z"/><path fill="#000" d="M88.044 71.307a14.96 14.96 0 0 1-12.233-7.547c3.868-.38 7.712-.914 11.569-1.293h.439z"/><path fill="#EEB47E" d="M98.202 54.896a14.86 14.86 0 0 1-8.164 10.608 15.18 15.18 0 0 1-13.409-.403 15.43 15.43 0 0 1-7.76-10.964 4.354 4.354 0 0 1-5.008 1.839 6.14 6.14 0 0 1-4.26-4.035 6.35 6.35 0 0 1 .19-4.556 5.3 5.3 0 0 1 3.442-2.931 4.75 4.75 0 0 1 4.248.819l.154.142v-1.187a17.35 17.35 0 0 1 3.94-9.801 15.08 15.08 0 0 1 10.24-5.328h2.195a13.2 13.2 0 0 1 8.52 4.153 15.2 15.2 0 0 1 2.302 3.489 29.5 29.5 0 0 1 1.863 5.268c.166.641.32 1.294.475 1.935.925 3.63 1.649 7.333 1.032 10.952"/><path fill="#000" d="M65.806 52.036a2.563 2.563 0 0 0-3.405-1.103l-.333-.665a3.33 3.33 0 0 1 2.48-.178c.435.125.84.339 1.187.629l-.225-2.967.747-.059.297 4.141zm21.147 2.017a1.4 1.4 0 0 1-.486-.094l.273-.689a.62.62 0 0 0 .51 0 .6.6 0 0 0 .308-.285c.065-.305.065-.62 0-.925l-.89-5.708.736-.118.89 5.707c.095.414.095.844 0 1.258-.125.332-.377.6-.7.748-.203.083-.422.12-.64.106Zm-1.995 2.849a3.11 3.11 0 0 1-3.133-3.121h.736a2.44 2.44 0 0 0 1.689 2.304c.316.104.65.143.98.116l.072.736zm7.549-10.147c0 .51-.333.902-.665.878-.332-.023-.581-.439-.546-.937.036-.498.32-.902.653-.878.332.024.582.439.558.937m-10.54 1.295c0 .77-.498 1.364-1.008 1.34-.51-.023-.89-.676-.843-1.447s.487-1.365.997-1.33c.51.036.89.677.854 1.437m10.918-4c.338.054.683.054 1.02 0 .558-.166.547-.593 0-.866a5.8 5.8 0 0 0-1.98-.391 3.06 3.06 0 0 0-1.437.142.474.474 0 0 0-.154.795c.522.582 1.733.297 2.551.32m-12.802.404a3.2 3.2 0 0 1-1.01 0c-.569-.13-.58-.558-.07-.866a5.6 5.6 0 0 1 1.946-.523c.475-.12.972-.12 1.447 0a.475.475 0 0 1 .202.784c-.498.735-1.72.534-2.515.605m4.011-15.296c-.32.676-.676 1.34-1.044 1.993a30.2 30.2 0 0 1-15.426 13.053 17.35 17.35 0 0 1 3.94-9.801 15.08 15.08 0 0 1 10.24-5.328h1.78z"/><path fill="#000" d="M96.778 42.069a27.07 27.07 0 0 1-13.73-10.917 26 26 0 0 1-1.186-2.017h2.196a13.2 13.2 0 0 1 8.52 4.153 15.2 15.2 0 0 1 2.301 3.489c.8 1.7 1.436 3.471 1.899 5.292"/><path fill="#8893E3" d="M45.42 110.358s10.3-12.127 10.905-12.329 19.401-2.017 19.401-2.017-11.522 59.603-38.399 46.681C13.24 131.1 46.702 81.167 50.38 79.898c3.679-1.27 19.983-1.448 19.983-1.448s9.22 9.208 17.989.855c0 0 15.236-.072 18.262 2.373 3.025 2.444 23.447 63.044 23.447 63.044H44.103"/><path fill="#EEB47E" d="M77.85 80.788c.124-.5.172-1.016.143-1.53a1.69 1.69 0 0 0-.748-1.27 1.84 1.84 0 0 0-2.136.486 7.4 7.4 0 0 0-1.46 2.931 4.57 4.57 0 0 1-1.839 2.634 3.3 3.3 0 0 1-2.871 0 4.84 4.84 0 0 1-2.789-4.651 3.107 3.107 0 0 1 4.569-2.872c.842.226 1.66.178 2.005-.344a1.99 1.99 0 0 0-.107-1.981 3.94 3.94 0 0 0-1.803-1.626 5.934 5.934 0 0 0-8.615 5.541c-1.472-3.405-3.869-8.128-5.613-7.582-2.112.664-.403 7.915.95 12.65-1.425-3.43-4.13-9.02-6.337-8.189-3.346 1.27 5.079 23.009 5.079 23.009l1.566 4.034 17.894-5.933c.463-2.527 1.65-12.886 2.112-15.307"/><path fill="#000" d="m77.625 84.929-.735-.107c.284-2.172.474-3.441.605-4.106.107-.463.15-.938.13-1.412a1.32 1.32 0 0 0-.57-.997l.38-.64a2.04 2.04 0 0 1 .926 1.554 5.7 5.7 0 0 1-.142 1.638c-.166.842-.416 2.729-.594 4.07m-20.447-1.697a61 61 0 0 1-1.78-7.89c-.427-3.145-.07-4.842 1.068-5.21l.226.712c-1.02.32-1.187 3.69 1.186 12.186z"/><path fill="#A1E3D6" d="m121.644 87.105-7.439 43.986s18.631-8.162 33.283 0l8.357-44.094s-15.6-11.563-34.201.108"/><path fill="#A1E3D6" d="m87.44 87.184-7.311 43.987s19.422-8.162 34.075 0l7.438-43.987s-15.551-11.651-34.202 0"/><path fill="#fff" d="m128.257 96.06 11.573 3.763-8.084 8.083z"/><path fill="#fff" d="m135.249 101.129-2.205 2.205 4.707 4.707 2.205-2.205z"/><path fill="#000" d="m121.365 87.057-7.454 44.025.598.101 7.454-44.025zm-29.351 13.059-.498-.342a13.55 13.55 0 0 1 4.79-4.35 2.56 2.56 0 0 1 2.54-.303 2.76 2.76 0 0 1 1.125 1.955c.089.51.289.994.586 1.417a2.22 2.22 0 0 0 2.327.42 8.3 8.3 0 0 0 1.661-.84c.264-.156.538-.322.812-.47a3.77 3.77 0 0 1 2.981-.488c.446.171.861.412 1.232.714.282.227.591.42.918.576a1.34 1.34 0 0 0 1.222-.107.48.48 0 0 0 .245-.44h.615a1.11 1.11 0 0 1-.508.977 1.96 1.96 0 0 1-1.818.157 5.5 5.5 0 0 1-1.036-.636 4.1 4.1 0 0 0-1.066-.625 3.2 3.2 0 0 0-2.502.44l-.772.45a8.6 8.6 0 0 1-1.799.899 2.79 2.79 0 0 1-2.932-.597 3.8 3.8 0 0 1-.714-1.661c-.185-.684-.332-1.28-.84-1.564s-1.095-.157-1.955.303a13.2 13.2 0 0 0-4.614 4.115"/><path fill="#D4F5BD" d="M111.398 112.236H89.023l.939-5.2h22.384z"/><path fill="#000" d="M61.818 78.141a6.36 6.36 0 0 1 9.161-5.933A4.15 4.15 0 0 1 72.937 74a2.3 2.3 0 0 1 .095 2.373l-.617-.403a1.71 1.71 0 0 0-.13-1.602 3.56 3.56 0 0 0-1.638-1.472 5.61 5.61 0 0 0-8.081 5.21zM57.5 102.123 55.934 98.1c-.297-.77-7.31-18.985-5.613-22.735a1.3 1.3 0 0 1 .748-.76l.26.689a.63.63 0 0 0-.331.38c-1.306 2.907 3.56 16.98 5.636 22.153l1.554 4.023zm7.178-8.555a7.86 7.86 0 0 1 5.28-7.37l.237.713a7.19 7.19 0 0 0-4.746 6.657zm11.38-34.496L72.931 80.19l.727.108 3.126-21.117-.727-.108Z"/><path fill="#8893E3" d="M45.42 110.358s10.3-12.127 10.905-12.329 19.401-2.017 19.401-2.017-11.522 59.604-38.399 46.681C13.24 131.1 46.702 81.168 50.38 79.898"/><path fill="#000" d="M44.804 144.888a17.5 17.5 0 0 1-7.617-1.863l.32-.676a14.96 14.96 0 0 0 13.812.213c15.426-7.772 23.02-41.65 23.958-46.135-7.334.712-17.942 1.768-18.796 1.946-.736.546-6.966 7.749-10.775 12.222l-.64-.142-1.472-5.577.712-.19 1.305 4.889c3.904-4.593 10.027-11.7 10.609-11.866.581-.167 16.34-1.733 19.484-2.03l.403.44a146.5 146.5 0 0 1-5.838 20.326c-5.292 14.239-11.557 23.258-18.618 26.806a15.1 15.1 0 0 1-6.847 1.637m32.954-85.281a8.662 8.662 0 1 1 0-17.325 8.662 8.662 0 0 1 0 17.325m0-16.613a7.915 7.915 0 1 0 7.915 7.915 7.94 7.94 0 0 0-7.915-7.88zm2.729-19.034A6.35 6.35 0 0 0 74.186 19a6.82 6.82 0 0 0-6.194 5.246 6.11 6.11 0 0 0 1.602 5.66c4.307 4.022 11.96-.237 10.893-5.945Z"/><path fill="#D4F5BD" d="M149.203 139.193a27.4 27.4 0 0 1-3.37 5.518h-29.12a21.6 21.6 0 0 1-4.366-7.44c-.795-2.872-.19-6.349 2.207-8.105a5.57 5.57 0 0 1 5.724-.531 5.56 5.56 0 0 1 2.239 1.971c.554.848.865 1.831.901 2.844a19.93 19.93 0 0 1 5.316-12.412 13.53 13.53 0 0 1 12.59-3.868 13.32 13.32 0 0 1 8.994 9.03 18.8 18.8 0 0 1-1.115 12.993"/><path fill="#fff" d="m97.632 146.17-.44-1.353c0-.142-4.84-14.559-14.962-13.776v-.736c8.91-.7 13.86 9.612 15.283 13.136.807-2.931 2.183-4.687 4.129-5.233 5.032-1.412 11.867 5.933 12.139 6.194l-.534.51c-.071-.083-6.811-7.286-11.403-5.992-1.91.534-3.215 2.504-3.892 5.862z"/></svg>