<svg width="165" height="165" fill="none" xmlns="http://www.w3.org/2000/svg"><mask id="a" style="mask-type:luminance" maskUnits="userSpaceOnUse" x="2" y="30" width="162" height="105"><path d="M13.731 134.715C2.686 122.451-.211 105.588 3.579 95.473A21.076 21.076 0 0 1 22.82 82.038c6.591.084 12.711 3.742 19.314 4.02 9.886.41 18.505-6.869 24.142-15.005 5.637-8.136 9.403-17.539 15.837-25.059 12.565-14.702 35.15-19.76 52.786-11.83 17.14 7.702 28.149 26.279 28.897 45.05.749 18.77-9.813 42.247-23.128 55.525" fill="#fff"/></mask><g mask="url(#a)" fill="#C8E9B9"><path d="M4.847 29.645a1.158 1.158 0 1 1 0 2.317 1.158 1.158 0 0 1 0-2.317Zm6.924 0a1.159 1.159 0 1 1 0 2.318 1.159 1.159 0 0 1 0-2.318Zm6.926 0a1.159 1.159 0 1 1 0 2.318 1.159 1.159 0 0 1 0-2.318Zm6.923 0a1.159 1.159 0 1 1 0 2.317 1.159 1.159 0 0 1 0-2.317Zm6.927 0a1.159 1.159 0 1 1 0 2.317 1.159 1.159 0 0 1 0-2.317Zm6.923 0a1.159 1.159 0 1 1 0 2.317 1.159 1.159 0 0 1 0-2.317Zm6.926 0a1.159 1.159 0 1 1 0 2.317 1.159 1.159 0 0 1 0-2.317Zm6.924 0a1.159 1.159 0 1 1 0 2.317 1.159 1.159 0 0 1 0-2.317Zm6.933 0a1.159 1.159 0 1 1 0 2.317 1.159 1.159 0 0 1 0-2.317Zm6.926 0a1.159 1.159 0 1 1-.009 0h.01Zm6.924 0a1.159 1.159 0 1 1-.01 0h.01Zm6.926 0a1.159 1.159 0 1 1-.01 0h.01Zm6.924 0a1.159 1.159 0 1 1-.01 0h.01Zm6.924 0a1.159 1.159 0 1 1-.01 0h.01Zm6.926 0a1.159 1.159 0 1 1-.009 0h.009Zm6.924 0a1.16 1.16 0 0 1 1.158 1.158 1.158 1.158 0 1 1-1.168-1.158h.01Zm6.926 0a1.159 1.159 0 1 1-.01 0h.01Zm6.912 0a1.159 1.159 0 1 1 0 2.317 1.159 1.159 0 0 1 0-2.317Zm6.926 0a1.159 1.159 0 1 1-.442.088c.141-.058.292-.088.444-.088h-.002Zm6.924 0a1.159 1.159 0 1 1-.442.088c.141-.058.292-.088.444-.088h-.002Zm6.924 0a1.16 1.16 0 0 1 1.158 1.158 1.158 1.158 0 1 1-1.156-1.158h-.002Zm6.926 0a1.16 1.16 0 0 1 1.158 1.158 1.158 1.158 0 1 1-1.156-1.158h-.002Zm6.923 0a1.157 1.157 0 1 1 0 2.316 1.16 1.16 0 0 1-1.158-1.158 1.164 1.164 0 0 1 .717-1.07c.141-.058.291-.088.444-.088h-.003ZM1.159 33.428a1.158 1.158 0 1 1 0 2.316 1.158 1.158 0 0 1 0-2.316Zm6.926 0a1.158 1.158 0 1 1 0 2.316 1.158 1.158 0 0 1 0-2.316Zm6.923 0a1.158 1.158 0 1 1 0 2.316 1.158 1.158 0 0 1 0-2.316Zm6.927 0a1.158 1.158 0 1 1 0 2.316 1.158 1.158 0 0 1 0-2.316Zm6.923 0a1.158 1.158 0 1 1 0 2.316 1.158 1.158 0 0 1 0-2.316Zm6.924 0a1.158 1.158 0 1 1 0 2.316 1.158 1.158 0 0 1 0-2.316Zm6.926 0a1.158 1.158 0 1 1 0 2.316 1.158 1.158 0 0 1 0-2.316Zm6.924 0a1.158 1.158 0 1 1 0 2.316 1.158 1.158 0 0 1 0-2.316Zm6.926 0a1.158 1.158 0 1 1-.011 0h.011Zm6.924 0a1.158 1.158 0 1 1 0 2.316 1.158 1.158 0 0 1 0-2.316Zm6.926 0a1.158 1.158 0 1 1 0 2.316 1.158 1.158 0 0 1 0-2.316Zm6.924 0a1.158 1.158 0 1 1 0 2.316 1.158 1.158 0 0 1 0-2.316Zm6.924 0a1.158 1.158 0 1 1 0 2.316 1.158 1.158 0 0 1 0-2.316Zm6.926 0a1.158 1.158 0 1 1 0 2.316 1.158 1.158 0 0 1 0-2.316Zm6.923 0a1.159 1.159 0 1 1 0 2.317 1.159 1.159 0 0 1 0-2.317Zm6.926 0a1.156 1.156 0 0 1 .819 1.977 1.156 1.156 0 0 1-1.977-.82 1.159 1.159 0 0 1 1.158-1.157Zm6.924 0a1.158 1.158 0 1 1 0 2.316 1.158 1.158 0 0 1 0-2.316Zm6.926 0a1.156 1.156 0 0 1 .819 1.977 1.156 1.156 0 0 1-1.977-.82 1.162 1.162 0 0 1 .715-1.07 1.16 1.16 0 0 1 .443-.087Zm6.924 0a1.158 1.158 0 1 1-.442.087c.141-.058.292-.088.444-.087h-.002Zm6.924 0a1.158 1.158 0 1 1 0 2.316 1.158 1.158 0 0 1 0-2.316Zm6.926 0a1.158 1.158 0 1 1 0 2.316 1.158 1.158 0 0 1 0-2.316Zm6.924 0a1.158 1.158 0 1 1 0 2.316 1.158 1.158 0 0 1 0-2.316Zm6.926 0a1.158 1.158 0 1 1 0 2.316 1.158 1.158 0 0 1 0-2.316ZM4.846 37.226a1.158 1.158 0 1 1 0 2.316 1.158 1.158 0 0 1 0-2.316Zm6.924 0a1.158 1.158 0 1 1 0 2.316 1.158 1.158 0 0 1 0-2.316Zm6.926 0a1.158 1.158 0 1 1 0 2.316 1.158 1.158 0 0 1 0-2.316Zm6.924 0a1.158 1.158 0 1 1 0 2.316 1.158 1.158 0 0 1 0-2.316Zm6.926 0a1.158 1.158 0 1 1 0 2.316 1.158 1.158 0 0 1 0-2.316Zm6.924 0a1.158 1.158 0 1 1 0 2.316 1.158 1.158 0 0 1 0-2.316Zm6.926 0a1.158 1.158 0 1 1 0 2.316 1.158 1.158 0 0 1 0-2.316Zm6.924 0a1.158 1.158 0 1 1 0 2.316 1.158 1.158 0 0 1 0-2.316Zm6.924 0a1.158 1.158 0 1 1-.437.085c.141-.058.293-.087.446-.085h-.01Zm6.926 0a1.158 1.158 0 1 1 0 2.316 1.158 1.158 0 0 1 0-2.316Zm6.923 0a1.158 1.158 0 1 1 0 2.316 1.158 1.158 0 0 1 0-2.316Zm6.926 0a1.158 1.158 0 1 1 0 2.316 1.158 1.158 0 0 1 0-2.316Zm6.924 0a1.158 1.158 0 1 1 0 2.316 1.158 1.158 0 0 1 0-2.316Zm6.924 0a1.158 1.158 0 1 1 0 2.316 1.158 1.158 0 0 1 0-2.316Zm6.926 0a1.158 1.158 0 1 1 0 2.316 1.158 1.158 0 0 1 0-2.316Zm6.924 0a1.158 1.158 0 1 1 0 2.316 1.158 1.158 0 0 1 0-2.316Zm6.926 0a1.158 1.158 0 1 1 0 2.316 1.158 1.158 0 0 1 0-2.316Zm6.924 0a1.158 1.158 0 1 1-.002 0h.002Zm6.926 0a1.158 1.158 0 1 1 0 2.316 1.158 1.158 0 0 1 0-2.316Zm6.924 0a1.16 1.16 0 0 1 1.158 1.158 1.159 1.159 0 1 1-1.158-1.158Zm6.923 0a1.156 1.156 0 0 1 .819 1.977 1.156 1.156 0 0 1-1.977-.82 1.162 1.162 0 0 1 .715-1.07 1.16 1.16 0 0 1 .443-.087Zm6.927 0a1.16 1.16 0 0 1 1.158 1.158 1.159 1.159 0 1 1-1.158-1.158ZM1.16 40.994a1.159 1.159 0 1 1-.001 2.317 1.159 1.159 0 0 1 0-2.317Zm6.925 0a1.159 1.159 0 1 1 0 2.317 1.159 1.159 0 0 1 0-2.317Zm6.924 0a1.159 1.159 0 1 1 0 2.317 1.159 1.159 0 0 1 0-2.317Zm6.926 0a1.159 1.159 0 1 1 0 2.317 1.159 1.159 0 0 1 0-2.317Zm6.924 0a1.159 1.159 0 1 1 0 2.317 1.159 1.159 0 0 1 0-2.317Zm6.924 0a1.159 1.159 0 1 1 0 2.317 1.159 1.159 0 0 1 0-2.317Zm6.926 0a1.159 1.159 0 1 1 0 2.317 1.159 1.159 0 0 1 0-2.317Zm6.924 0a1.159 1.159 0 1 1 0 2.318 1.159 1.159 0 0 1 0-2.318Zm6.914 0a1.159 1.159 0 1 1 0 2.317 1.159 1.159 0 0 1 0-2.317Zm6.924 0a1.159 1.159 0 1 1-.435.085c.142-.058.293-.087.447-.085h-.012Zm6.926 0a1.159 1.159 0 1 1-.435.085c.142-.058.293-.087.447-.085h-.012Zm6.924 0a1.159 1.159 0 1 1-.436.085c.142-.058.294-.087.447-.085h-.011Zm6.924 0a1.159 1.159 0 1 1-.436.085c.142-.058.294-.087.447-.085h-.011Zm6.926 0a1.159 1.159 0 1 1-.436.085c.142-.058.294-.087.447-.085h-.011Zm6.923 0a1.159 1.159 0 1 1-.435.085c.142-.058.294-.087.447-.085h-.012Zm6.926 0a1.157 1.157 0 1 1 0 2.316 1.16 1.16 0 1 1 .012-2.316h-.012Zm6.924 0a1.159 1.159 0 1 1-.435.085c.142-.058.294-.087.447-.085h-.012Zm6.926 0a1.157 1.157 0 1 1 0 2.316 1.16 1.16 0 1 1 .012-2.316h-.012Zm6.938 0a1.159 1.159 0 1 1 0 2.317 1.159 1.159 0 0 1 0-2.317Zm6.924 0a1.159 1.159 0 1 1-.002 0h.002Zm6.926 0a1.159 1.159 0 1 1-.002 0h.002Zm6.924 0a1.16 1.16 0 0 1 1.07 1.601 1.163 1.163 0 0 1-1.07.715 1.164 1.164 0 0 1-.819-.34 1.147 1.147 0 0 1-.251-.375 1.157 1.157 0 0 1 1.067-1.601h.003Zm6.926 0a1.159 1.159 0 1 1-.003 0h.003ZM4.846 44.8a1.159 1.159 0 1 1 0 2.317 1.159 1.159 0 0 1 0-2.318Zm6.924 0a1.159 1.159 0 1 1 0 2.317 1.159 1.159 0 0 1 0-2.318Zm6.926 0a1.159 1.159 0 1 1 0 2.317 1.159 1.159 0 0 1 0-2.318Zm6.924 0a1.159 1.159 0 1 1 0 2.316 1.159 1.159 0 0 1 0-2.317Zm6.926 0a1.159 1.159 0 1 1 0 2.316 1.159 1.159 0 0 1 0-2.317Zm6.924 0a1.159 1.159 0 1 1 0 2.317 1.159 1.159 0 0 1 0-2.318Zm6.926 0a1.159 1.159 0 1 1 0 2.317 1.159 1.159 0 0 1 0-2.318Zm6.924 0a1.159 1.159 0 1 1 0 2.317 1.159 1.159 0 0 1 0-2.318Zm6.924 0a1.159 1.159 0 1 1-.437.085 1.16 1.16 0 0 1 .446-.086h-.01Zm6.926 0a1.159 1.159 0 1 1 0 2.317 1.159 1.159 0 0 1 0-2.318Zm6.924 0a1.159 1.159 0 1 1 0 2.317 1.159 1.159 0 0 1 0-2.318Zm6.926 0a1.159 1.159 0 1 1 0 2.316 1.159 1.159 0 0 1 0-2.317Zm6.923 0a1.159 1.159 0 1 1 0 2.316 1.159 1.159 0 0 1 0-2.317Zm6.924 0a1.159 1.159 0 1 1 0 2.316 1.159 1.159 0 0 1 0-2.317Zm6.926 0a1.159 1.159 0 1 1 0 2.316 1.159 1.159 0 0 1 0-2.317Zm6.924 0a1.159 1.159 0 1 1 0 2.316 1.159 1.159 0 0 1 0-2.317Zm6.926 0a1.159 1.159 0 1 1 0 2.316 1.159 1.159 0 0 1 0-2.317Zm6.924 0a1.159 1.159 0 1 1-.002 0h.002Zm6.926 0a1.159 1.159 0 1 1 0 2.316 1.159 1.159 0 0 1 0-2.317Zm6.924 0a1.159 1.159 0 1 1 0 2.316 1.159 1.159 0 0 1 0-2.317Zm6.924 0a1.16 1.16 0 0 1 1.158 1.157 1.158 1.158 0 1 1-1.158-1.158Zm6.926 0a1.16 1.16 0 0 1 1.158 1.157 1.158 1.158 0 1 1-1.158-1.158Zm6.923 0a1.157 1.157 0 1 1 0 2.315 1.16 1.16 0 0 1-1.07-1.6 1.17 1.17 0 0 1 1.07-.715ZM1.159 48.575a1.159 1.159 0 1 1 0 2.317 1.159 1.159 0 0 1 0-2.318Zm6.926 0a1.159 1.159 0 1 1 0 2.317 1.159 1.159 0 0 1 0-2.318Zm6.923 0a1.159 1.159 0 1 1 0 2.317 1.159 1.159 0 0 1 0-2.318Zm6.927 0a1.159 1.159 0 1 1 0 2.317 1.159 1.159 0 0 1 0-2.318Zm6.923 0a1.159 1.159 0 1 1 0 2.317 1.159 1.159 0 0 1 0-2.318Zm6.924 0a1.159 1.159 0 1 1 0 2.317 1.159 1.159 0 0 1 0-2.318Zm6.926 0a1.159 1.159 0 1 1 0 2.317 1.159 1.159 0 0 1 0-2.318Zm6.924 0a1.159 1.159 0 1 1 0 2.317 1.159 1.159 0 0 1 0-2.318Zm6.926 0a1.159 1.159 0 1 1-.011 0h.011Zm6.924 0a1.159 1.159 0 1 1 0 2.317 1.159 1.159 0 0 1 0-2.318Zm6.926 0a1.159 1.159 0 1 1 0 2.317 1.159 1.159 0 0 1 0-2.318Zm6.924 0a1.159 1.159 0 1 1 0 2.317 1.159 1.159 0 0 1 0-2.318Zm6.924 0a1.158 1.158 0 1 1 0 2.316 1.158 1.158 0 0 1 0-2.316Zm6.926 0a1.158 1.158 0 1 1 0 2.316 1.158 1.158 0 0 1 0-2.316Zm6.923 0a1.159 1.159 0 1 1 0 2.317 1.159 1.159 0 0 1 0-2.318Zm6.927 0a1.156 1.156 0 0 1 1.158 1.157 1.156 1.156 0 0 1-1.977.819 1.155 1.155 0 0 1 0-1.637c.217-.218.511-.34.819-.34Zm6.923 0a1.159 1.159 0 1 1 0 2.317 1.159 1.159 0 0 1 0-2.318Zm6.926 0a1.157 1.157 0 1 1 0 2.316 1.16 1.16 0 0 1-1.07-1.602 1.17 1.17 0 0 1 1.07-.715Zm6.924 0a1.159 1.159 0 1 1-.441.087c.14-.058.291-.088.443-.087h-.002Zm6.924 0a1.159 1.159 0 1 1 0 2.317 1.159 1.159 0 0 1 0-2.318Zm6.926 0a1.159 1.159 0 1 1 0 2.317 1.159 1.159 0 0 1 0-2.318Zm6.924 0a1.159 1.159 0 1 1 0 2.317 1.159 1.159 0 0 1 0-2.318Zm6.926 0a1.159 1.159 0 1 1 0 2.317 1.159 1.159 0 0 1 0-2.318Zm6.924 0a1.16 1.16 0 0 1 1.158 1.157 1.158 1.158 0 1 1-1.158-1.157ZM4.846 52.373a1.158 1.158 0 1 1 0 2.317 1.158 1.158 0 0 1 0-2.317Zm6.924 0a1.158 1.158 0 1 1 0 2.317 1.158 1.158 0 0 1 0-2.317Zm6.926 0a1.158 1.158 0 1 1 0 2.317 1.158 1.158 0 0 1 0-2.317Zm6.924 0a1.158 1.158 0 1 1 0 2.316 1.158 1.158 0 0 1 0-2.316Zm6.926 0a1.158 1.158 0 1 1 0 2.316 1.158 1.158 0 0 1 0-2.316Zm6.924 0a1.158 1.158 0 1 1 0 2.317 1.158 1.158 0 0 1 0-2.317Zm6.926 0a1.158 1.158 0 1 1 0 2.317 1.158 1.158 0 0 1 0-2.317Zm6.924 0a1.158 1.158 0 1 1 0 2.317 1.158 1.158 0 0 1 0-2.317Zm6.924 0a1.158 1.158 0 1 1-.437.086c.141-.058.293-.087.446-.086h-.01Zm6.926 0a1.158 1.158 0 1 1 0 2.317 1.158 1.158 0 0 1 0-2.317Zm6.924 0a1.158 1.158 0 1 1 0 2.317 1.158 1.158 0 0 1 0-2.317Zm6.926 0a1.158 1.158 0 1 1 0 2.317 1.158 1.158 0 0 1 0-2.317Zm6.923 0a1.158 1.158 0 1 1 0 2.317 1.158 1.158 0 0 1 0-2.317Zm6.924 0a1.158 1.158 0 1 1 0 2.317 1.158 1.158 0 0 1 0-2.317Zm6.926 0a1.158 1.158 0 1 1 0 2.317 1.158 1.158 0 0 1 0-2.317Zm6.924 0a1.158 1.158 0 1 1 0 2.317 1.158 1.158 0 0 1 0-2.317Zm6.926 0a1.158 1.158 0 1 1 0 2.317 1.158 1.158 0 0 1 0-2.317Zm6.924 0a1.158 1.158 0 1 1-.002 0h.002Zm6.926 0a1.158 1.158 0 1 1 0 2.317 1.158 1.158 0 0 1 0-2.317Zm6.924 0a1.158 1.158 0 1 1 0 2.317 1.158 1.158 0 0 1 0-2.317Zm6.924 0a1.16 1.16 0 0 1 1.158 1.158 1.159 1.159 0 1 1-1.158-1.158Zm6.926 0a1.16 1.16 0 0 1 1.158 1.158 1.159 1.159 0 1 1-1.158-1.158Zm6.923 0a1.156 1.156 0 0 1 .819 1.977 1.157 1.157 0 0 1-1.889-1.262 1.169 1.169 0 0 1 1.07-.715ZM1.159 56.148a1.158 1.158 0 1 1 0 2.317 1.158 1.158 0 0 1 0-2.317Zm6.926 0a1.158 1.158 0 1 1 0 2.317 1.158 1.158 0 0 1 0-2.317Zm6.923 0a1.158 1.158 0 1 1 0 2.317 1.158 1.158 0 0 1 0-2.317Zm6.927 0a1.158 1.158 0 1 1 0 2.317 1.158 1.158 0 0 1 0-2.317Zm6.923 0a1.158 1.158 0 1 1 0 2.317 1.158 1.158 0 0 1 0-2.317Zm6.924 0a1.158 1.158 0 1 1 0 2.316 1.158 1.158 0 0 1 0-2.316Zm6.926 0a1.158 1.158 0 1 1 0 2.317 1.158 1.158 0 0 1 0-2.317Zm6.924 0a1.158 1.158 0 1 1 0 2.316 1.158 1.158 0 0 1 0-2.316Zm6.926 0a1.158 1.158 0 1 1-.011 0h.011Zm6.924 0a1.158 1.158 0 1 1 0 2.317 1.158 1.158 0 0 1 0-2.317Zm6.926 0a1.158 1.158 0 1 1 0 2.317 1.158 1.158 0 0 1 0-2.317Zm6.924 0a1.158 1.158 0 1 1 0 2.317 1.158 1.158 0 0 1 0-2.317Zm6.924 0a1.158 1.158 0 1 1 0 2.317 1.158 1.158 0 0 1 0-2.317Zm6.926 0a1.158 1.158 0 1 1 0 2.317 1.158 1.158 0 0 1 0-2.317Zm6.923 0a1.159 1.159 0 1 1 0 2.317 1.159 1.159 0 0 1 0-2.317Zm6.926 0a1.156 1.156 0 0 1 .819 1.977 1.156 1.156 0 0 1-1.977-.819 1.158 1.158 0 0 1 1.158-1.158Zm6.924 0a1.158 1.158 0 1 1 0 2.317 1.158 1.158 0 0 1 0-2.317Zm6.926 0a1.156 1.156 0 0 1 .819 1.977 1.156 1.156 0 0 1-1.977-.819 1.162 1.162 0 0 1 .715-1.07c.141-.058.291-.088.443-.088Zm6.924 0a1.158 1.158 0 1 1-.442.088 1.16 1.16 0 0 1 .444-.088h-.002Zm6.924 0a1.158 1.158 0 1 1 0 2.317 1.158 1.158 0 0 1 0-2.317Zm6.926 0a1.158 1.158 0 1 1 0 2.317 1.158 1.158 0 0 1 0-2.317Zm6.924 0a1.158 1.158 0 1 1 0 2.317 1.158 1.158 0 0 1 0-2.317Zm6.926 0a1.158 1.158 0 1 1 0 2.317 1.158 1.158 0 0 1 0-2.317ZM4.846 59.946a1.158 1.158 0 1 1 0 2.317 1.158 1.158 0 0 1 0-2.317Zm6.924 0a1.158 1.158 0 1 1 0 2.317 1.158 1.158 0 0 1 0-2.317Zm6.926 0a1.158 1.158 0 1 1 0 2.317 1.158 1.158 0 0 1 0-2.317Zm6.924 0a1.158 1.158 0 1 1 0 2.317 1.158 1.158 0 0 1 0-2.317Zm6.926 0a1.158 1.158 0 1 1 0 2.317 1.158 1.158 0 0 1 0-2.317Zm6.924 0a1.158 1.158 0 1 1 0 2.317 1.158 1.158 0 0 1 0-2.317Zm6.926 0a1.158 1.158 0 1 1 0 2.317 1.158 1.158 0 0 1 0-2.317Zm6.924 0a1.158 1.158 0 1 1 0 2.317 1.158 1.158 0 0 1 0-2.317Zm6.924 0a1.158 1.158 0 1 1-.437.086 1.16 1.16 0 0 1 .446-.086h-.01Zm6.926 0a1.158 1.158 0 1 1 0 2.317 1.158 1.158 0 0 1 0-2.317Zm6.924 0a1.158 1.158 0 1 1 0 2.317 1.158 1.158 0 0 1 0-2.317Zm6.926 0a1.158 1.158 0 1 1 0 2.317 1.158 1.158 0 0 1 0-2.317Zm6.923 0a1.158 1.158 0 1 1 0 2.317 1.158 1.158 0 0 1 0-2.317Zm6.924 0a1.158 1.158 0 1 1 0 2.317 1.158 1.158 0 0 1 0-2.317Zm6.926 0a1.158 1.158 0 1 1 0 2.317 1.158 1.158 0 0 1 0-2.317Zm6.924 0a1.158 1.158 0 1 1 0 2.317 1.158 1.158 0 0 1 0-2.317Zm6.926 0a1.158 1.158 0 1 1 0 2.317 1.158 1.158 0 0 1 0-2.317Zm6.924 0a1.158 1.158 0 1 1-.002 0h.002Zm6.926 0a1.158 1.158 0 1 1 0 2.317 1.158 1.158 0 0 1 0-2.317Zm6.924 0a1.158 1.158 0 1 1 0 2.317 1.158 1.158 0 0 1 0-2.317Zm6.924 0a1.16 1.16 0 0 1 1.158 1.158 1.159 1.159 0 1 1-1.158-1.158Zm6.926 0a1.16 1.16 0 0 1 1.158 1.158 1.159 1.159 0 1 1-1.158-1.158Zm6.923 0a1.156 1.156 0 0 1 .819 1.977 1.156 1.156 0 0 1-1.977-.819 1.162 1.162 0 0 1 .715-1.07 1.16 1.16 0 0 1 .443-.088ZM1.159 63.722a1.158 1.158 0 1 1 0 2.316 1.158 1.158 0 0 1 0-2.316Zm6.926 0a1.158 1.158 0 1 1 0 2.316 1.158 1.158 0 0 1 0-2.316Zm6.923 0a1.158 1.158 0 1 1 0 2.316 1.158 1.158 0 0 1 0-2.316Zm6.927 0a1.158 1.158 0 1 1 0 2.316 1.158 1.158 0 0 1 0-2.316Zm6.923 0a1.158 1.158 0 1 1 0 2.316 1.158 1.158 0 0 1 0-2.316Zm6.924 0a1.158 1.158 0 1 1 0 2.316 1.158 1.158 0 0 1 0-2.316Zm6.926 0a1.158 1.158 0 1 1 0 2.317 1.158 1.158 0 0 1 0-2.317Zm6.924 0a1.158 1.158 0 1 1 0 2.316 1.158 1.158 0 0 1 0-2.316Zm6.926 0a1.158 1.158 0 1 1-.011 0h.011Zm6.924 0a1.158 1.158 0 1 1 0 2.316 1.158 1.158 0 0 1 0-2.316Zm6.926 0a1.158 1.158 0 1 1 0 2.316 1.158 1.158 0 0 1 0-2.316Zm6.924 0a1.158 1.158 0 1 1 0 2.316 1.158 1.158 0 0 1 0-2.316Zm6.924 0a1.158 1.158 0 1 1 0 2.316 1.158 1.158 0 0 1 0-2.316Zm6.926 0a1.158 1.158 0 1 1 0 2.316 1.158 1.158 0 0 1 0-2.316Zm6.923 0a1.159 1.159 0 1 1 0 2.317 1.159 1.159 0 0 1 0-2.317Zm6.926 0a1.156 1.156 0 0 1 .819 1.977 1.156 1.156 0 0 1-1.977-.819 1.159 1.159 0 0 1 1.158-1.158Zm6.924 0a1.158 1.158 0 1 1 0 2.316 1.158 1.158 0 0 1 0-2.316Zm6.926 0a1.156 1.156 0 0 1 .819 1.977 1.156 1.156 0 0 1-1.977-.819 1.162 1.162 0 0 1 .715-1.07 1.16 1.16 0 0 1 .443-.088Zm6.924 0a1.158 1.158 0 1 1-.442.087 1.16 1.16 0 0 1 .444-.087h-.002Zm6.924 0a1.158 1.158 0 1 1 0 2.316 1.158 1.158 0 0 1 0-2.316Zm6.926 0a1.158 1.158 0 1 1 0 2.316 1.158 1.158 0 0 1 0-2.316Zm6.924 0a1.158 1.158 0 1 1 0 2.316 1.158 1.158 0 0 1 0-2.316Zm6.926 0a1.158 1.158 0 1 1 0 2.316 1.158 1.158 0 0 1 0-2.316ZM4.846 67.52a1.158 1.158 0 1 1 0 2.316 1.158 1.158 0 0 1 0-2.316Zm6.924 0a1.158 1.158 0 1 1 0 2.316 1.158 1.158 0 0 1 0-2.316Zm6.926 0a1.158 1.158 0 1 1 0 2.316 1.158 1.158 0 0 1 0-2.316Zm6.924 0a1.158 1.158 0 1 1 0 2.316 1.158 1.158 0 0 1 0-2.316Zm6.926 0a1.158 1.158 0 1 1 0 2.316 1.158 1.158 0 0 1 0-2.316Zm6.924 0a1.158 1.158 0 1 1 0 2.316 1.158 1.158 0 0 1 0-2.316Zm6.926 0a1.158 1.158 0 1 1 0 2.316 1.158 1.158 0 0 1 0-2.316Zm6.924 0a1.158 1.158 0 1 1 0 2.316 1.158 1.158 0 0 1 0-2.316Zm6.924 0a1.158 1.158 0 1 1-.437.085c.141-.057.293-.086.446-.085h-.01Zm6.926 0a1.158 1.158 0 1 1 0 2.316 1.158 1.158 0 0 1 0-2.316Zm6.923 0a1.158 1.158 0 1 1 0 2.316 1.158 1.158 0 0 1 0-2.316Zm6.926 0a1.158 1.158 0 1 1 0 2.316 1.158 1.158 0 0 1 0-2.316Zm6.924 0a1.158 1.158 0 1 1 0 2.316 1.158 1.158 0 0 1 0-2.316Zm6.924 0a1.158 1.158 0 1 1 0 2.316 1.158 1.158 0 0 1 0-2.316Zm6.926 0a1.158 1.158 0 1 1 0 2.316 1.158 1.158 0 0 1 0-2.316Zm6.924 0a1.158 1.158 0 1 1 0 2.316 1.158 1.158 0 0 1 0-2.316Zm6.926 0a1.158 1.158 0 1 1 0 2.316 1.158 1.158 0 0 1 0-2.316Zm6.924 0a1.158 1.158 0 1 1-.002 0h.002Zm6.926 0a1.158 1.158 0 1 1 0 2.316 1.158 1.158 0 0 1 0-2.316Zm6.924 0a1.16 1.16 0 0 1 1.158 1.158 1.159 1.159 0 1 1-1.158-1.158Zm6.923 0a1.156 1.156 0 0 1 .819 1.977 1.156 1.156 0 0 1-1.977-.82 1.162 1.162 0 0 1 .715-1.069 1.16 1.16 0 0 1 .443-.088Zm6.927 0a1.16 1.16 0 0 1 1.158 1.158 1.159 1.159 0 1 1-1.158-1.158ZM1.159 71.295a1.159 1.159 0 1 1 0 2.317 1.159 1.159 0 0 1 0-2.317Zm6.926 0a1.159 1.159 0 1 1 0 2.317 1.159 1.159 0 0 1 0-2.317Zm6.924 0a1.159 1.159 0 1 1 0 2.317 1.159 1.159 0 0 1 0-2.317Zm6.926 0a1.158 1.158 0 1 1 0 2.317 1.158 1.158 0 0 1 0-2.317Zm6.924 0a1.159 1.159 0 1 1 0 2.317 1.159 1.159 0 0 1 0-2.317Zm6.923 0a1.159 1.159 0 1 1 0 2.317 1.159 1.159 0 0 1 0-2.317Zm6.927 0a1.159 1.159 0 1 1 0 2.317 1.159 1.159 0 0 1 0-2.317Zm6.923 0a1.159 1.159 0 1 1 0 2.317 1.159 1.159 0 0 1 0-2.317Zm6.926 0a1.158 1.158 0 1 1-.011 0h.011Zm6.924 0a1.158 1.158 0 1 1 0 2.317 1.158 1.158 0 0 1 0-2.317Zm6.926 0a1.158 1.158 0 1 1 0 2.317 1.158 1.158 0 0 1 0-2.317Zm6.924 0a1.159 1.159 0 1 1 0 2.317 1.159 1.159 0 0 1 0-2.317Zm6.924 0a1.159 1.159 0 1 1 0 2.317 1.159 1.159 0 0 1 0-2.317Zm6.926 0a1.159 1.159 0 1 1 0 2.317 1.159 1.159 0 0 1 0-2.317Zm6.924 0a1.159 1.159 0 1 1 0 2.317 1.159 1.159 0 0 1 0-2.317Zm6.926 0a1.159 1.159 0 1 1 0 2.317 1.159 1.159 0 0 1 0-2.317Zm6.924 0a1.16 1.16 0 0 1 1.158 1.158 1.159 1.159 0 1 1-1.158-1.158Zm6.926 0a1.16 1.16 0 0 1 1.158 1.158 1.159 1.159 0 1 1-1.158-1.158Zm6.923 0a1.157 1.157 0 1 1 0 2.316 1.16 1.16 0 0 1-1.158-1.158c0-.152.03-.303.089-.444a1.148 1.148 0 0 1 .628-.626c.141-.058.291-.088.444-.088h-.003Zm6.924 0a1.159 1.159 0 1 1 0 2.317 1.159 1.159 0 0 1 0-2.317Zm6.926 0a1.159 1.159 0 1 1 0 2.317 1.159 1.159 0 0 1 0-2.317Zm6.924 0a1.159 1.159 0 1 1 0 2.317 1.159 1.159 0 0 1 0-2.317ZM4.846 75.096a1.158 1.158 0 1 1 0 2.316 1.158 1.158 0 0 1 0-2.316Zm6.924 0a1.158 1.158 0 1 1 0 2.316 1.158 1.158 0 0 1 0-2.316Zm6.926 0a1.158 1.158 0 1 1 0 2.316 1.158 1.158 0 0 1 0-2.316Zm6.924 0a1.158 1.158 0 1 1 0 2.316 1.158 1.158 0 0 1 0-2.316Zm6.926 0a1.158 1.158 0 1 1 0 2.316 1.158 1.158 0 0 1 0-2.316Zm6.924 0a1.158 1.158 0 1 1 0 2.316 1.158 1.158 0 0 1 0-2.316Zm6.926 0a1.158 1.158 0 1 1 0 2.316 1.158 1.158 0 0 1 0-2.316Zm6.924 0a1.158 1.158 0 1 1 0 2.316 1.158 1.158 0 0 1 0-2.316Zm6.924 0a1.158 1.158 0 1 1-.437.085c.141-.057.293-.086.446-.085h-.01Zm6.926 0a1.158 1.158 0 1 1 0 2.316 1.158 1.158 0 0 1 0-2.316Zm6.923 0a1.158 1.158 0 1 1 0 2.316 1.158 1.158 0 0 1 0-2.316Zm6.926 0a1.158 1.158 0 1 1 0 2.316 1.158 1.158 0 0 1 0-2.316Zm6.924 0a1.158 1.158 0 1 1 0 2.316 1.158 1.158 0 0 1 0-2.316Zm6.924 0a1.158 1.158 0 1 1 0 2.316 1.158 1.158 0 0 1 0-2.316Zm6.926 0a1.158 1.158 0 1 1 0 2.316 1.158 1.158 0 0 1 0-2.316Zm6.924 0a1.158 1.158 0 1 1 0 2.316 1.158 1.158 0 0 1 0-2.316Zm6.926 0a1.158 1.158 0 1 1 0 2.316 1.158 1.158 0 0 1 0-2.316Zm6.924 0a1.158 1.158 0 1 1-.002 0h.002Zm6.926 0a1.158 1.158 0 1 1 0 2.316 1.158 1.158 0 0 1 0-2.316Zm6.924 0a1.16 1.16 0 0 1 1.158 1.158 1.159 1.159 0 1 1-1.158-1.158Zm6.923 0a1.156 1.156 0 0 1 .819 1.977 1.157 1.157 0 1 1-1.637-1.638 1.154 1.154 0 0 1 .818-.339Zm6.927 0a1.16 1.16 0 0 1 1.158 1.158 1.159 1.159 0 1 1-1.158-1.158ZM1.159 78.871a1.158 1.158 0 1 1 0 2.317 1.158 1.158 0 0 1 0-2.317Zm6.926 0a1.158 1.158 0 1 1 0 2.316 1.158 1.158 0 0 1 0-2.316Zm6.924 0a1.158 1.158 0 1 1 0 2.317 1.158 1.158 0 0 1 0-2.317Zm6.926 0a1.158 1.158 0 1 1 0 2.316 1.158 1.158 0 0 1 0-2.316Zm6.924 0a1.158 1.158 0 1 1 0 2.317 1.158 1.158 0 0 1 0-2.317Zm6.923 0a1.158 1.158 0 1 1 0 2.317 1.158 1.158 0 0 1 0-2.317Zm6.927 0a1.158 1.158 0 1 1 0 2.317 1.158 1.158 0 0 1 0-2.317Zm6.923 0a1.158 1.158 0 1 1 0 2.317 1.158 1.158 0 0 1 0-2.317Zm6.926 0a1.158 1.158 0 1 1-.011 0h.011Zm6.924 0a1.158 1.158 0 1 1 0 2.316 1.158 1.158 0 0 1 0-2.316Zm6.926 0a1.158 1.158 0 1 1 0 2.316 1.158 1.158 0 0 1 0-2.316Zm6.924 0a1.158 1.158 0 1 1 0 2.317 1.158 1.158 0 0 1 0-2.317Zm6.924 0a1.158 1.158 0 1 1 0 2.317 1.158 1.158 0 0 1 0-2.317Zm6.926 0a1.158 1.158 0 1 1 0 2.317 1.158 1.158 0 0 1 0-2.317Zm6.924 0a1.158 1.158 0 1 1 0 2.317 1.158 1.158 0 0 1 0-2.317Zm6.926 0a1.158 1.158 0 1 1 0 2.317 1.158 1.158 0 0 1 0-2.317Zm6.924 0a1.16 1.16 0 0 1 1.158 1.158 1.159 1.159 0 1 1-1.158-1.158Zm6.926 0a1.16 1.16 0 0 1 1.158 1.158 1.159 1.159 0 1 1-1.158-1.158Zm6.923 0a1.156 1.156 0 0 1 .819 1.977 1.156 1.156 0 0 1-1.977-.819c0-.152.03-.303.089-.444a1.147 1.147 0 0 1 .628-.626c.141-.059.291-.088.444-.088h-.003Zm6.924 0a1.158 1.158 0 1 1 0 2.317 1.158 1.158 0 0 1 0-2.317Zm6.926 0a1.158 1.158 0 1 1 0 2.317 1.158 1.158 0 0 1 0-2.317Zm6.924 0a1.158 1.158 0 1 1 0 2.317 1.158 1.158 0 0 1 0-2.317ZM4.846 82.67a1.158 1.158 0 1 1 0 2.316 1.158 1.158 0 0 1 0-2.317Zm6.924 0a1.158 1.158 0 1 1 0 2.316 1.158 1.158 0 0 1 0-2.317Zm6.926 0a1.158 1.158 0 1 1 0 2.316 1.158 1.158 0 0 1 0-2.317Zm6.924 0a1.158 1.158 0 1 1 0 2.316 1.158 1.158 0 0 1 0-2.317Zm6.926 0a1.158 1.158 0 1 1 0 2.316 1.158 1.158 0 0 1 0-2.317Zm6.924 0a1.158 1.158 0 1 1 0 2.316 1.158 1.158 0 0 1 0-2.317Zm6.926 0a1.158 1.158 0 1 1 0 2.316 1.158 1.158 0 0 1 0-2.317Zm6.924 0a1.158 1.158 0 1 1 0 2.316 1.158 1.158 0 0 1 0-2.317Zm6.924 0a1.158 1.158 0 1 1-.437.085 1.16 1.16 0 0 1 .446-.086h-.01Zm6.926 0a1.158 1.158 0 1 1 0 2.315 1.158 1.158 0 0 1 0-2.316Zm6.923 0a1.158 1.158 0 1 1 0 2.316 1.158 1.158 0 0 1 0-2.317Zm6.926 0a1.158 1.158 0 1 1 0 2.316 1.158 1.158 0 0 1 0-2.317Zm6.924 0a1.158 1.158 0 1 1 0 2.316 1.158 1.158 0 0 1 0-2.317Zm6.924 0a1.158 1.158 0 1 1 0 2.316 1.158 1.158 0 0 1 0-2.317Zm6.926 0a1.158 1.158 0 1 1 0 2.316 1.158 1.158 0 0 1 0-2.317Zm6.924 0a1.158 1.158 0 1 1 0 2.316 1.158 1.158 0 0 1 0-2.317Zm6.926 0a1.158 1.158 0 1 1 0 2.316 1.158 1.158 0 0 1 0-2.317Zm6.924 0a1.158 1.158 0 1 1-.002 0h.002Zm6.926 0a1.158 1.158 0 1 1 0 2.316 1.158 1.158 0 0 1 0-2.317Zm6.924 0a1.16 1.16 0 0 1 1.158 1.157 1.159 1.159 0 1 1-1.158-1.158Zm6.923 0a1.156 1.156 0 0 1 .819 1.976 1.156 1.156 0 0 1-1.977-.819 1.162 1.162 0 0 1 .715-1.07 1.16 1.16 0 0 1 .443-.088Zm6.927 0a1.16 1.16 0 0 1 1.158 1.157 1.159 1.159 0 1 1-1.158-1.158ZM1.159 86.442a1.158 1.158 0 1 1 0 2.317 1.158 1.158 0 0 1 0-2.317Zm6.926 0a1.158 1.158 0 1 1 0 2.317 1.158 1.158 0 0 1 0-2.317Zm6.923 0a1.158 1.158 0 1 1 0 2.317 1.158 1.158 0 0 1 0-2.317Zm6.927 0a1.158 1.158 0 1 1 0 2.317 1.158 1.158 0 0 1 0-2.317Zm6.923 0a1.158 1.158 0 1 1 0 2.317 1.158 1.158 0 0 1 0-2.317Zm6.924 0a1.158 1.158 0 1 1 0 2.317 1.158 1.158 0 0 1 0-2.317Zm6.926 0a1.158 1.158 0 1 1 0 2.317 1.158 1.158 0 0 1 0-2.317Zm6.924 0a1.158 1.158 0 1 1 0 2.317 1.158 1.158 0 0 1 0-2.317Zm6.926 0a1.158 1.158 0 1 1-.011 0h.011Zm6.924 0a1.158 1.158 0 1 1 0 2.317 1.158 1.158 0 0 1 0-2.317Zm6.926 0a1.158 1.158 0 1 1 0 2.317 1.158 1.158 0 0 1 0-2.317Zm6.924 0a1.158 1.158 0 1 1 0 2.317 1.158 1.158 0 0 1 0-2.317Zm6.924 0a1.158 1.158 0 1 1 0 2.317 1.158 1.158 0 0 1 0-2.317Zm6.926 0a1.158 1.158 0 1 1 0 2.317 1.158 1.158 0 0 1 0-2.317Zm6.923 0a1.159 1.159 0 1 1 0 2.318 1.159 1.159 0 0 1 0-2.318Zm6.926 0a1.156 1.156 0 0 1 .819 1.977 1.157 1.157 0 0 1-1.977-.819 1.158 1.158 0 0 1 1.158-1.158Zm6.924 0a1.158 1.158 0 1 1 0 2.317 1.158 1.158 0 0 1 0-2.317Zm6.926 0a1.156 1.156 0 0 1 .819 1.977 1.157 1.157 0 0 1-1.889-1.262 1.163 1.163 0 0 1 1.07-.715Zm6.924 0a1.158 1.158 0 1 1-.442.088 1.16 1.16 0 0 1 .444-.088h-.002Zm6.924 0a1.158 1.158 0 1 1 0 2.317 1.158 1.158 0 0 1 0-2.317Zm6.926 0a1.158 1.158 0 1 1 0 2.317 1.158 1.158 0 0 1 0-2.317Zm6.924 0a1.158 1.158 0 1 1 0 2.317 1.158 1.158 0 0 1 0-2.317Zm6.926 0a1.158 1.158 0 1 1 0 2.317 1.158 1.158 0 0 1 0-2.317ZM4.846 90.243a1.158 1.158 0 1 1 0 2.316 1.158 1.158 0 0 1 0-2.316Zm6.924 0a1.158 1.158 0 1 1 0 2.316 1.158 1.158 0 0 1 0-2.316Zm6.926 0a1.158 1.158 0 1 1 0 2.316 1.158 1.158 0 0 1 0-2.316Zm6.924 0a1.158 1.158 0 1 1 0 2.316 1.158 1.158 0 0 1 0-2.316Zm6.926 0a1.158 1.158 0 1 1 0 2.316 1.158 1.158 0 0 1 0-2.316Zm6.924 0a1.158 1.158 0 1 1 0 2.316 1.158 1.158 0 0 1 0-2.316Zm6.926 0a1.158 1.158 0 1 1 0 2.316 1.158 1.158 0 0 1 0-2.316Zm6.924 0a1.158 1.158 0 1 1 0 2.316 1.158 1.158 0 0 1 0-2.316Zm6.924 0a1.158 1.158 0 1 1-.437.085c.141-.058.293-.087.446-.085h-.01Zm6.926 0a1.158 1.158 0 1 1 0 2.316 1.158 1.158 0 0 1 0-2.316Zm6.923 0a1.158 1.158 0 1 1 0 2.316 1.158 1.158 0 0 1 0-2.316Zm6.926 0a1.158 1.158 0 1 1 0 2.316 1.158 1.158 0 0 1 0-2.316Zm6.924 0a1.158 1.158 0 1 1 0 2.316 1.158 1.158 0 0 1 0-2.316Zm6.924 0a1.158 1.158 0 1 1 0 2.316 1.158 1.158 0 0 1 0-2.316Zm6.926 0a1.158 1.158 0 1 1 0 2.316 1.158 1.158 0 0 1 0-2.316Zm6.924 0a1.158 1.158 0 1 1 0 2.316 1.158 1.158 0 0 1 0-2.316Zm6.926 0a1.158 1.158 0 1 1 0 2.316 1.158 1.158 0 0 1 0-2.316Zm6.924 0a1.158 1.158 0 1 1-.002 0h.002Zm6.926 0a1.158 1.158 0 1 1 0 2.316 1.158 1.158 0 0 1 0-2.316Zm6.924 0a1.16 1.16 0 0 1 1.158 1.158 1.159 1.159 0 1 1-1.158-1.158Zm6.923 0a1.156 1.156 0 0 1 .819 1.977 1.156 1.156 0 0 1-1.977-.82 1.162 1.162 0 0 1 .715-1.07 1.16 1.16 0 0 1 .443-.087Zm6.927 0a1.16 1.16 0 0 1 1.158 1.158 1.159 1.159 0 1 1-1.158-1.158ZM1.159 94.018a1.159 1.159 0 1 1 0 2.317 1.159 1.159 0 0 1 0-2.317Zm6.926 0a1.159 1.159 0 1 1 0 2.317 1.159 1.159 0 0 1 0-2.317Zm6.923 0a1.159 1.159 0 1 1 0 2.317 1.159 1.159 0 0 1 0-2.317Zm6.927 0a1.159 1.159 0 1 1 0 2.317 1.159 1.159 0 0 1 0-2.317Zm6.923 0a1.159 1.159 0 1 1 0 2.317 1.159 1.159 0 0 1 0-2.317Zm6.924 0a1.158 1.158 0 1 1 0 2.317 1.158 1.158 0 0 1 0-2.317Zm6.926 0a1.159 1.159 0 1 1 0 2.318 1.159 1.159 0 0 1 0-2.318Zm6.924 0a1.158 1.158 0 1 1 0 2.317 1.158 1.158 0 0 1 0-2.317Zm6.926 0a1.158 1.158 0 1 1-.011 0h.011Zm6.924 0a1.159 1.159 0 1 1 0 2.317 1.159 1.159 0 0 1 0-2.317Zm6.926 0a1.159 1.159 0 1 1 0 2.317 1.159 1.159 0 0 1 0-2.317Zm6.924 0a1.159 1.159 0 1 1 0 2.317 1.159 1.159 0 0 1 0-2.317Zm6.924 0a1.159 1.159 0 1 1 0 2.317 1.159 1.159 0 0 1 0-2.317Zm6.926 0a1.159 1.159 0 1 1 0 2.317 1.159 1.159 0 0 1 0-2.317Zm6.923 0a1.159 1.159 0 1 1 0 2.318 1.159 1.159 0 0 1 0-2.318Zm6.926 0a1.157 1.157 0 1 1 0 2.316 1.16 1.16 0 0 1-1.158-1.158 1.159 1.159 0 0 1 1.158-1.158Zm6.924 0a1.159 1.159 0 1 1 0 2.317 1.159 1.159 0 0 1 0-2.317Zm6.926 0a1.157 1.157 0 1 1 0 2.316 1.16 1.16 0 0 1-1.07-1.601 1.164 1.164 0 0 1 .627-.627 1.16 1.16 0 0 1 .443-.088Zm6.924 0a1.159 1.159 0 1 1-.442.088c.141-.058.292-.088.444-.088h-.002Zm6.924 0a1.159 1.159 0 1 1 0 2.317 1.159 1.159 0 0 1 0-2.317Zm6.926 0a1.158 1.158 0 1 1 0 2.317 1.158 1.158 0 0 1 0-2.317Zm6.924 0a1.158 1.158 0 1 1 0 2.317 1.158 1.158 0 0 1 0-2.317Zm6.926 0a1.158 1.158 0 1 1 0 2.317 1.158 1.158 0 0 1 0-2.317ZM4.846 97.816a1.158 1.158 0 1 1 0 2.317 1.158 1.158 0 0 1 0-2.317Zm6.924 0a1.158 1.158 0 1 1 0 2.317 1.158 1.158 0 0 1 0-2.317Zm6.926 0a1.158 1.158 0 1 1 0 2.317 1.158 1.158 0 0 1 0-2.317Zm6.924 0a1.158 1.158 0 1 1 0 2.317 1.158 1.158 0 0 1 0-2.317Zm6.926 0a1.158 1.158 0 1 1 0 2.317 1.158 1.158 0 0 1 0-2.317Zm6.924 0a1.158 1.158 0 1 1 0 2.317 1.158 1.158 0 0 1 0-2.317Zm6.926 0a1.158 1.158 0 1 1 0 2.317 1.158 1.158 0 0 1 0-2.317Zm6.924 0a1.158 1.158 0 1 1 0 2.317 1.158 1.158 0 0 1 0-2.317Zm6.924 0a1.158 1.158 0 1 1-.437.086 1.16 1.16 0 0 1 .446-.086h-.01Zm6.926 0a1.158 1.158 0 1 1 0 2.317 1.158 1.158 0 0 1 0-2.317Zm6.923 0a1.158 1.158 0 1 1 0 2.317 1.158 1.158 0 0 1 0-2.317Zm6.926 0a1.158 1.158 0 1 1 0 2.317 1.158 1.158 0 0 1 0-2.317Zm6.924 0a1.158 1.158 0 1 1 0 2.317 1.158 1.158 0 0 1 0-2.317Zm6.924 0a1.159 1.159 0 1 1 0 2.318 1.159 1.159 0 0 1 0-2.318Zm6.926 0a1.159 1.159 0 1 1 0 2.318 1.159 1.159 0 0 1 0-2.318Zm6.924 0a1.159 1.159 0 1 1 0 2.318 1.159 1.159 0 0 1 0-2.318Zm6.926 0a1.159 1.159 0 1 1 0 2.318 1.159 1.159 0 0 1 0-2.318Zm6.924 0a1.159 1.159 0 1 1-.002 0h.002Zm6.926 0a1.159 1.159 0 1 1 0 2.318 1.159 1.159 0 0 1 0-2.318Zm6.924 0a1.16 1.16 0 0 1 1.158 1.159 1.158 1.158 0 1 1-1.158-1.159Zm6.923 0a1.157 1.157 0 0 1 .819 1.977 1.159 1.159 0 0 1-1.889-1.262 1.167 1.167 0 0 1 1.07-.715Zm6.927 0a1.16 1.16 0 0 1 1.158 1.159 1.158 1.158 0 1 1-1.158-1.159ZM1.159 101.592a1.159 1.159 0 1 1 0 2.318 1.159 1.159 0 0 1 0-2.318Zm6.926 0a1.159 1.159 0 1 1 0 2.318 1.159 1.159 0 0 1 0-2.318Zm6.923 0a1.159 1.159 0 1 1 0 2.318 1.159 1.159 0 0 1 0-2.318Zm6.927 0a1.159 1.159 0 1 1 0 2.318 1.159 1.159 0 0 1 0-2.318Zm6.923 0a1.159 1.159 0 1 1 0 2.318 1.159 1.159 0 0 1 0-2.318Zm6.924 0a1.159 1.159 0 1 1 0 2.318 1.159 1.159 0 0 1 0-2.318Zm6.926 0a1.159 1.159 0 1 1 0 2.318 1.159 1.159 0 0 1 0-2.318Zm6.924 0a1.159 1.159 0 1 1 0 2.318 1.159 1.159 0 0 1 0-2.318Zm6.926 0a1.159 1.159 0 1 1-.011 0h.011Zm6.924 0a1.159 1.159 0 1 1 0 2.318 1.159 1.159 0 0 1 0-2.318Zm6.926 0a1.159 1.159 0 1 1 0 2.318 1.159 1.159 0 0 1 0-2.318Zm6.924 0a1.159 1.159 0 1 1 0 2.318 1.159 1.159 0 0 1 0-2.318Zm6.924 0a1.159 1.159 0 1 1 0 2.318 1.159 1.159 0 0 1 0-2.318Zm6.926 0a1.159 1.159 0 1 1 0 2.318 1.159 1.159 0 0 1 0-2.318Zm6.923 0a1.16 1.16 0 0 1 0 2.316 1.156 1.156 0 0 1-1.158-1.158 1.157 1.157 0 0 1 1.158-1.158Zm6.926 0a1.157 1.157 0 1 1 .001 2.314 1.157 1.157 0 0 1-.001-2.314Zm6.924 0a1.159 1.159 0 1 1 0 2.318 1.159 1.159 0 0 1 0-2.318Zm6.926 0a1.157 1.157 0 1 1 .001 2.314 1.157 1.157 0 0 1-.001-2.314Zm6.924 0a1.159 1.159 0 1 1-.442.087c.141-.058.292-.088.444-.087h-.002Zm6.924 0a1.159 1.159 0 1 1 0 2.318 1.159 1.159 0 0 1 0-2.318Zm6.926 0a1.159 1.159 0 1 1 0 2.318 1.159 1.159 0 0 1 0-2.318Zm6.924 0a1.159 1.159 0 1 1 0 2.318 1.159 1.159 0 0 1 0-2.318Zm6.926 0a1.159 1.159 0 1 1 0 2.318 1.159 1.159 0 0 1 0-2.318ZM4.847 105.381a1.159 1.159 0 1 1 0 2.318 1.159 1.159 0 0 1 0-2.318Zm6.923 0a1.159 1.159 0 1 1 0 2.318 1.159 1.159 0 0 1 0-2.318Zm6.927 0a1.159 1.159 0 1 1 0 2.318 1.159 1.159 0 0 1 0-2.318Zm6.923 0a1.159 1.159 0 1 1 0 2.318 1.159 1.159 0 0 1 0-2.318Zm6.927 0a1.159 1.159 0 1 1 0 2.318 1.159 1.159 0 0 1 0-2.318Zm6.923 0a1.159 1.159 0 1 1 0 2.318 1.159 1.159 0 0 1 0-2.318Zm6.926 0a1.159 1.159 0 1 1 0 2.318 1.159 1.159 0 0 1 0-2.318Zm6.924 0a1.159 1.159 0 1 1 0 2.318 1.159 1.159 0 0 1 0-2.318Zm6.933 0a1.159 1.159 0 1 1 0 2.318 1.159 1.159 0 0 1 0-2.318Zm6.926 0a1.159 1.159 0 1 1-.009 0h.01Zm6.924 0a1.159 1.159 0 1 1-.01 0h.01Zm6.926 0a1.159 1.159 0 1 1-.01 0h.01Zm6.924 0a1.159 1.159 0 1 1-.01 0h.01Zm6.924 0a1.159 1.159 0 1 1-.01 0h.01Zm6.926 0a1.159 1.159 0 1 1-.009 0h.009Zm6.924 0a1.16 1.16 0 0 1 1.158 1.158 1.159 1.159 0 1 1-1.168-1.158h.01Zm6.926 0a1.16 1.16 0 0 1 1.158 1.158 1.159 1.159 0 1 1-1.168-1.158h.01Zm6.912 0a1.159 1.159 0 1 1 0 2.318 1.159 1.159 0 0 1 0-2.318Zm6.926 0a1.159 1.159 0 1 1-.442.087c.141-.058.292-.087.444-.087h-.002Zm6.924 0a1.159 1.159 0 1 1-.442.087c.141-.058.292-.087.444-.087h-.002Zm6.924 0a1.16 1.16 0 0 1 1.158 1.158 1.159 1.159 0 1 1-1.156-1.158h-.002Zm6.926 0a1.16 1.16 0 0 1 1.158 1.158 1.159 1.159 0 1 1-1.156-1.158h-.002ZM1.159 109.165a1.159 1.159 0 1 1 0 2.318 1.159 1.159 0 0 1 0-2.318Zm6.926 0a1.159 1.159 0 1 1 0 2.318 1.159 1.159 0 0 1 0-2.318Zm6.924 0a1.159 1.159 0 1 1 0 2.318 1.159 1.159 0 0 1 0-2.318Zm6.926 0a1.159 1.159 0 1 1 0 2.318 1.159 1.159 0 0 1 0-2.318Zm6.924 0a1.159 1.159 0 1 1 0 2.318 1.159 1.159 0 0 1 0-2.318Zm6.923 0a1.159 1.159 0 1 1 0 2.318 1.159 1.159 0 0 1 0-2.318Zm6.927 0a1.159 1.159 0 1 1 0 2.318 1.159 1.159 0 0 1 0-2.318Zm6.923 0a1.159 1.159 0 1 1 0 2.318 1.159 1.159 0 0 1 0-2.318Zm6.926 0a1.159 1.159 0 1 1-.011 0h.011Zm6.924 0a1.159 1.159 0 1 1 0 2.318 1.159 1.159 0 0 1 0-2.318Zm6.926 0a1.159 1.159 0 1 1 0 2.318 1.159 1.159 0 0 1 0-2.318Zm6.924 0a1.159 1.159 0 1 1 0 2.318 1.159 1.159 0 0 1 0-2.318Zm6.924 0a1.159 1.159 0 1 1 0 2.318 1.159 1.159 0 0 1 0-2.318Zm6.926 0a1.159 1.159 0 1 1 0 2.318 1.159 1.159 0 0 1 0-2.318Zm6.924 0a1.159 1.159 0 1 1 0 2.318 1.159 1.159 0 0 1 0-2.318Zm6.926 0a1.159 1.159 0 1 1 0 2.318 1.159 1.159 0 0 1 0-2.318Zm6.924 0a1.16 1.16 0 0 1 1.158 1.158 1.159 1.159 0 1 1-1.158-1.158Zm6.926 0a1.16 1.16 0 0 1 1.158 1.158 1.159 1.159 0 1 1-1.158-1.158Zm6.923 0a1.157 1.157 0 1 1-.441.088c.141-.058.291-.088.444-.088h-.003Zm6.924 0a1.159 1.159 0 1 1 0 2.318 1.159 1.159 0 0 1 0-2.318Zm6.926 0a1.159 1.159 0 1 1 0 2.318 1.159 1.159 0 0 1 0-2.318Zm6.924 0a1.159 1.159 0 1 1 0 2.318 1.159 1.159 0 0 1 0-2.318ZM4.846 112.963a1.156 1.156 0 0 1 1.159 1.158 1.156 1.156 0 0 1-1.978.819 1.156 1.156 0 0 1 .82-1.977Zm6.924 0a1.156 1.156 0 0 1 1.158 1.158 1.157 1.157 0 0 1-1.977.819 1.157 1.157 0 0 1 .82-1.977Zm6.926 0a1.156 1.156 0 0 1 1.159 1.158 1.156 1.156 0 0 1-1.159 1.158 1.159 1.159 0 0 1 0-2.316Zm6.924 0a1.156 1.156 0 0 1 1.158 1.158 1.156 1.156 0 0 1-1.977.819 1.156 1.156 0 0 1 0-1.637c.217-.218.512-.34.819-.34Zm6.926 0a1.156 1.156 0 0 1 1.158 1.158 1.156 1.156 0 0 1-1.977.819 1.156 1.156 0 0 1 0-1.637c.217-.218.512-.34.82-.34Zm6.924 0a1.156 1.156 0 0 1 1.158 1.158 1.156 1.156 0 0 1-1.977.819 1.156 1.156 0 0 1 .819-1.977Zm6.926 0a1.156 1.156 0 0 1 1.158 1.158 1.156 1.156 0 0 1-1.977.819 1.156 1.156 0 0 1 .819-1.977Zm6.924 0a1.156 1.156 0 0 1 1.158 1.158 1.156 1.156 0 0 1-1.977.819 1.156 1.156 0 0 1 .819-1.977Zm6.924 0a1.155 1.155 0 0 1 1.158 1.158 1.157 1.157 0 0 1-1.977.819 1.156 1.156 0 0 1 .828-1.977h-.01Zm6.926 0a1.156 1.156 0 0 1 1.158 1.158 1.157 1.157 0 0 1-1.977.819 1.156 1.156 0 0 1 .819-1.977Zm6.923 0a1.156 1.156 0 0 1 1.159 1.158 1.156 1.156 0 0 1-1.977.819 1.157 1.157 0 0 1 .818-1.977Zm6.926 0a1.156 1.156 0 0 1 1.159 1.158 1.157 1.157 0 0 1-1.977.819 1.156 1.156 0 0 1 .819-1.977Zm6.924 0a1.156 1.156 0 0 1 1.159 1.158 1.156 1.156 0 0 1-1.978.819 1.156 1.156 0 0 1 .82-1.977Zm6.924 0a1.156 1.156 0 0 1 1.158 1.158 1.156 1.156 0 0 1-1.977.819 1.156 1.156 0 0 1 .82-1.977Zm6.926 0a1.156 1.156 0 0 1 1.158 1.158 1.157 1.157 0 1 1-1.158-1.158Zm6.924 0a1.156 1.156 0 0 1 1.158 1.158 1.157 1.157 0 1 1-1.158-1.158Zm6.926 0a1.156 1.156 0 0 1 1.158 1.158 1.157 1.157 0 1 1-1.158-1.158Zm6.924 0a1.156 1.156 0 0 1 1.158 1.158 1.157 1.157 0 1 1-1.16-1.158h.002Zm6.926 0a1.156 1.156 0 0 1 1.158 1.158 1.157 1.157 0 1 1-1.158-1.158Zm6.924 0a1.157 1.157 0 1 1 0 2.315 1.157 1.157 0 0 1 0-2.315Zm6.923 0c.308 0 .602.122.819.34a1.153 1.153 0 0 1 0 1.637 1.157 1.157 0 1 1-.819-1.977Zm6.927 0a1.157 1.157 0 1 1 0 2.315 1.157 1.157 0 0 1 0-2.315ZM1.158 116.729a1.156 1.156 0 0 1 1.158 1.159 1.156 1.156 0 0 1-1.158 1.158A1.156 1.156 0 0 1 0 117.888a1.156 1.156 0 0 1 1.158-1.159Zm6.926 0a1.156 1.156 0 0 1 1.159 1.159 1.156 1.156 0 0 1-1.159 1.158 1.156 1.156 0 0 1-1.158-1.158 1.156 1.156 0 0 1 1.158-1.159Zm6.924 0a1.156 1.156 0 0 1 1.158 1.159 1.156 1.156 0 0 1-1.158 1.158 1.156 1.156 0 0 1-1.158-1.158 1.157 1.157 0 0 1 1.158-1.159Zm6.926 0a1.156 1.156 0 0 1 1.158 1.159 1.156 1.156 0 0 1-1.158 1.158 1.156 1.156 0 0 1-1.158-1.158 1.157 1.157 0 0 1 1.158-1.159Zm6.924 0a1.156 1.156 0 0 1 1.158 1.159 1.156 1.156 0 0 1-1.158 1.158 1.156 1.156 0 0 1-1.158-1.158 1.157 1.157 0 0 1 1.158-1.159Zm6.924 0a1.156 1.156 0 0 1 1.158 1.159 1.156 1.156 0 0 1-1.158 1.158 1.156 1.156 0 0 1-1.158-1.158 1.156 1.156 0 0 1 1.158-1.159Zm6.926 0a1.156 1.156 0 0 1 1.158 1.159 1.156 1.156 0 0 1-1.158 1.158 1.156 1.156 0 0 1-1.158-1.158 1.156 1.156 0 0 1 1.158-1.159Zm6.924 0a1.156 1.156 0 0 1 1.158 1.159 1.156 1.156 0 0 1-1.158 1.158 1.156 1.156 0 0 1-1.159-1.158 1.156 1.156 0 0 1 1.159-1.159Zm6.926 0a1.156 1.156 0 0 1 1.158 1.159 1.156 1.156 0 0 1-1.158 1.158 1.156 1.156 0 0 1-1.158-1.158 1.157 1.157 0 0 1 1.146-1.159h.012Zm6.923 0a1.156 1.156 0 0 1 1.159 1.159 1.156 1.156 0 0 1-1.159 1.158 1.156 1.156 0 0 1-1.158-1.158 1.156 1.156 0 0 1 1.158-1.159Zm6.927 0a1.156 1.156 0 0 1 1.158 1.159 1.156 1.156 0 0 1-1.158 1.158 1.156 1.156 0 0 1-1.159-1.158 1.156 1.156 0 0 1 1.159-1.159Zm6.923 0a1.156 1.156 0 0 1 1.159 1.159 1.156 1.156 0 0 1-1.159 1.158 1.156 1.156 0 0 1-1.158-1.158 1.157 1.157 0 0 1 1.158-1.159Zm6.924 0a1.156 1.156 0 0 1 1.158 1.159 1.156 1.156 0 0 1-1.158 1.158 1.156 1.156 0 0 1-1.158-1.158 1.156 1.156 0 0 1 1.158-1.159Zm6.926 0a1.156 1.156 0 0 1 1.158 1.159 1.156 1.156 0 0 1-1.158 1.158 1.156 1.156 0 0 1-1.158-1.158 1.156 1.156 0 0 1 1.158-1.159Zm6.924 0a1.156 1.156 0 0 1 1.158 1.159 1.156 1.156 0 0 1-1.158 1.158 1.156 1.156 0 0 1-1.158-1.158 1.156 1.156 0 0 1 1.158-1.159Zm6.926 0a1.156 1.156 0 0 1 1.158 1.159 1.157 1.157 0 0 1-1.977.818 1.157 1.157 0 0 1 .819-1.977Zm6.924 0a1.156 1.156 0 0 1 1.158 1.159 1.157 1.157 0 0 1-1.977.818 1.157 1.157 0 0 1 .819-1.977Zm6.926 0a1.156 1.156 0 0 1 1.158 1.159 1.157 1.157 0 0 1-1.977.818 1.157 1.157 0 0 1 .819-1.977Zm6.926 0a1.16 1.16 0 0 1 .819 1.977 1.156 1.156 0 0 1-1.638 0 1.157 1.157 0 0 1 .819-1.977Zm6.924 0a1.16 1.16 0 0 1 .819 1.977 1.156 1.156 0 0 1-1.638 0 1.157 1.157 0 0 1 .817-1.977h.002Zm6.926 0a1.16 1.16 0 0 1 .819 1.977 1.156 1.156 0 0 1-1.638 0 1.157 1.157 0 0 1 .817-1.977h.002Zm6.924 0a1.16 1.16 0 0 1 .819 1.977 1.156 1.156 0 0 1-1.638 0 1.157 1.157 0 0 1 .816-1.977h.003Zm6.926 0a1.16 1.16 0 0 1 .819 1.977 1.156 1.156 0 0 1-1.638 0 1.157 1.157 0 0 1 .817-1.977h.002ZM4.846 120.537a1.159 1.159 0 1 1 0 2.318 1.159 1.159 0 0 1 0-2.318Zm6.924 0a1.159 1.159 0 1 1 0 2.318 1.159 1.159 0 0 1 0-2.318Zm6.926 0a1.159 1.159 0 1 1 0 2.318 1.159 1.159 0 0 1 0-2.318Zm6.924 0a1.159 1.159 0 1 1 0 2.318 1.159 1.159 0 0 1 0-2.318Zm6.926 0a1.159 1.159 0 1 1 0 2.318 1.159 1.159 0 0 1 0-2.318Zm6.924 0a1.159 1.159 0 1 1 0 2.318 1.159 1.159 0 0 1 0-2.318Zm6.926 0a1.159 1.159 0 1 1 0 2.318 1.159 1.159 0 0 1 0-2.318Zm6.924 0a1.159 1.159 0 1 1 0 2.318 1.159 1.159 0 0 1 0-2.318Zm6.924 0a1.159 1.159 0 1 1-.437.085c.141-.057.293-.086.446-.085h-.01Zm6.926 0a1.159 1.159 0 1 1 0 2.318 1.159 1.159 0 0 1 0-2.318Zm6.924 0a1.159 1.159 0 1 1 0 2.318 1.159 1.159 0 0 1 0-2.318Zm6.926 0a1.159 1.159 0 1 1 0 2.318 1.159 1.159 0 0 1 0-2.318Zm6.923 0a1.159 1.159 0 1 1 0 2.318 1.159 1.159 0 0 1 0-2.318Zm6.924 0a1.159 1.159 0 1 1 0 2.318 1.159 1.159 0 0 1 0-2.318Zm6.926 0a1.159 1.159 0 1 1 0 2.318 1.159 1.159 0 0 1 0-2.318Zm6.924 0a1.159 1.159 0 1 1 0 2.318 1.159 1.159 0 0 1 0-2.318Zm6.926 0a1.159 1.159 0 1 1 0 2.318 1.159 1.159 0 0 1 0-2.318Zm6.924 0a1.159 1.159 0 1 1-.002 0h.002Zm6.926 0a1.159 1.159 0 1 1 0 2.318 1.159 1.159 0 0 1 0-2.318Zm6.924 0a1.159 1.159 0 1 1 0 2.318 1.159 1.159 0 0 1 0-2.318Zm6.924 0a1.16 1.16 0 0 1 1.158 1.158 1.159 1.159 0 1 1-1.158-1.158Zm6.926 0a1.16 1.16 0 0 1 1.158 1.158 1.159 1.159 0 1 1-1.158-1.158Zm6.923 0a1.157 1.157 0 1 1 .001 2.314 1.157 1.157 0 0 1-.001-2.314ZM1.159 124.312a1.159 1.159 0 1 1 0 2.318 1.159 1.159 0 0 1 0-2.318Zm6.926 0a1.159 1.159 0 1 1 0 2.318 1.159 1.159 0 0 1 0-2.318Zm6.923 0a1.159 1.159 0 1 1 0 2.318 1.159 1.159 0 0 1 0-2.318Zm6.927 0a1.159 1.159 0 1 1 0 2.318 1.159 1.159 0 0 1 0-2.318Zm6.923 0a1.16 1.16 0 1 1 0 2.318 1.16 1.16 0 0 1 0-2.318Zm6.924 0a1.159 1.159 0 1 1 0 2.318 1.159 1.159 0 0 1 0-2.318Zm6.926 0a1.159 1.159 0 1 1 0 2.318 1.159 1.159 0 0 1 0-2.318Zm6.924 0a1.159 1.159 0 1 1 0 2.318 1.159 1.159 0 0 1 0-2.318Zm6.926 0a1.159 1.159 0 1 1-.011 0h.011Zm6.924 0a1.159 1.159 0 1 1 0 2.318 1.159 1.159 0 0 1 0-2.318Zm6.926 0a1.159 1.159 0 1 1 0 2.318 1.159 1.159 0 0 1 0-2.318Zm6.924 0a1.159 1.159 0 1 1 0 2.318 1.159 1.159 0 0 1 0-2.318Zm6.924 0a1.159 1.159 0 1 1 0 2.318 1.159 1.159 0 0 1 0-2.318Zm6.926 0a1.159 1.159 0 1 1 0 2.318 1.159 1.159 0 0 1 0-2.318Zm6.923 0a1.159 1.159 0 1 1 0 2.318 1.159 1.159 0 0 1 0-2.318Zm6.927 0a1.157 1.157 0 0 1 .818 1.977 1.157 1.157 0 0 1-1.977-.819 1.156 1.156 0 0 1 1.159-1.158Zm6.923 0a1.159 1.159 0 1 1 0 2.318 1.159 1.159 0 0 1 0-2.318Zm6.926 0a1.157 1.157 0 1 1 .001 2.314 1.157 1.157 0 0 1-.001-2.314Zm6.924 0a1.159 1.159 0 1 1-.441.088 1.14 1.14 0 0 1 .443-.088h-.002Zm6.924 0a1.159 1.159 0 1 1 0 2.318 1.159 1.159 0 0 1 0-2.318Zm6.926 0a1.159 1.159 0 1 1 0 2.318 1.159 1.159 0 0 1 0-2.318Zm6.924 0a1.159 1.159 0 1 1 0 2.318 1.159 1.159 0 0 1 0-2.318Zm6.926 0a1.159 1.159 0 1 1 0 2.318 1.159 1.159 0 0 1 0-2.318Zm6.924 0a1.16 1.16 0 0 1 1.158 1.158 1.159 1.159 0 1 1-1.158-1.158ZM4.846 128.111a1.159 1.159 0 1 1 0 2.318 1.159 1.159 0 0 1 0-2.318Zm6.924 0a1.159 1.159 0 1 1 0 2.318 1.159 1.159 0 0 1 0-2.318Zm6.926 0a1.159 1.159 0 1 1 0 2.318 1.159 1.159 0 0 1 0-2.318Zm6.924 0a1.159 1.159 0 1 1 0 2.318 1.159 1.159 0 0 1 0-2.318Zm6.926 0a1.159 1.159 0 1 1 0 2.318 1.159 1.159 0 0 1 0-2.318Zm6.924 0a1.159 1.159 0 1 1 0 2.318 1.159 1.159 0 0 1 0-2.318Zm6.926 0a1.159 1.159 0 1 1 0 2.318 1.159 1.159 0 0 1 0-2.318Zm6.924 0a1.159 1.159 0 1 1 0 2.318 1.159 1.159 0 0 1 0-2.318Zm6.924 0a1.159 1.159 0 1 1-.437.085c.141-.058.293-.087.446-.085h-.01Zm6.926 0a1.159 1.159 0 1 1 0 2.318 1.159 1.159 0 0 1 0-2.318Zm6.924 0a1.159 1.159 0 1 1 0 2.318 1.159 1.159 0 0 1 0-2.318Zm6.926 0a1.159 1.159 0 1 1 0 2.318 1.159 1.159 0 0 1 0-2.318Zm6.923 0a1.159 1.159 0 1 1 0 2.318 1.159 1.159 0 0 1 0-2.318Zm6.924 0a1.159 1.159 0 1 1 0 2.318 1.159 1.159 0 0 1 0-2.318Zm6.926 0a1.159 1.159 0 1 1 0 2.318 1.159 1.159 0 0 1 0-2.318Zm6.924 0a1.159 1.159 0 1 1 0 2.318 1.159 1.159 0 0 1 0-2.318Zm6.926 0a1.159 1.159 0 1 1 0 2.318 1.159 1.159 0 0 1 0-2.318Zm6.924 0a1.159 1.159 0 1 1-.002 0h.002Zm6.926 0a1.159 1.159 0 1 1 0 2.318 1.159 1.159 0 0 1 0-2.318Zm6.924 0a1.159 1.159 0 1 1 0 2.318 1.159 1.159 0 0 1 0-2.318Zm6.924 0a1.16 1.16 0 0 1 1.158 1.158 1.16 1.16 0 0 1-1.158 1.158 1.157 1.157 0 1 1 0-2.316Zm6.926 0a1.16 1.16 0 0 1 1.158 1.158 1.16 1.16 0 0 1-1.158 1.158 1.159 1.159 0 0 1 0-2.316Zm6.923 0a1.157 1.157 0 1 1 .001 2.314 1.157 1.157 0 0 1-.001-2.314Zm6.924 0a1.159 1.159 0 1 1 0 2.318 1.159 1.159 0 0 1 0-2.318ZM1.159 131.886a1.159 1.159 0 1 1 0 2.318 1.159 1.159 0 0 1 0-2.318Zm6.926 0a1.159 1.159 0 1 1 0 2.318 1.159 1.159 0 0 1 0-2.318Zm6.923 0a1.159 1.159 0 1 1 0 2.318 1.159 1.159 0 0 1 0-2.318Zm6.927 0a1.159 1.159 0 1 1 0 2.318 1.159 1.159 0 0 1 0-2.318Zm6.923 0a1.16 1.16 0 1 1 0 2.318 1.16 1.16 0 0 1 0-2.318Zm6.924 0a1.159 1.159 0 1 1 0 2.318 1.159 1.159 0 0 1 0-2.318Zm6.926 0a1.159 1.159 0 1 1 0 2.318 1.159 1.159 0 0 1 0-2.318Zm6.924 0a1.159 1.159 0 1 1 0 2.318 1.159 1.159 0 0 1 0-2.318Zm6.926 0a1.159 1.159 0 1 1-.011 0h.011Zm6.924 0a1.159 1.159 0 1 1 0 2.318 1.159 1.159 0 0 1 0-2.318Zm6.926 0a1.159 1.159 0 1 1 0 2.318 1.159 1.159 0 0 1 0-2.318Zm6.924 0a1.159 1.159 0 1 1 0 2.318 1.159 1.159 0 0 1 0-2.318Zm6.924 0a1.159 1.159 0 1 1 0 2.318 1.159 1.159 0 0 1 0-2.318Zm6.926 0a1.159 1.159 0 1 1 0 2.318 1.159 1.159 0 0 1 0-2.318Zm6.923 0a1.159 1.159 0 1 1 0 2.318 1.159 1.159 0 0 1 0-2.318Zm6.927 0a1.157 1.157 0 0 1 .818 1.977 1.157 1.157 0 0 1-1.977-.819 1.156 1.156 0 0 1 1.159-1.158Zm6.923 0a1.159 1.159 0 1 1 0 2.318 1.159 1.159 0 0 1 0-2.318Zm6.926 0a1.157 1.157 0 1 1 .001 2.314 1.157 1.157 0 0 1-.001-2.314Zm6.924 0a1.159 1.159 0 1 1-.441.087 1.14 1.14 0 0 1 .443-.087h-.002Zm6.924 0a1.159 1.159 0 1 1 0 2.318 1.159 1.159 0 0 1 0-2.318Zm6.926 0a1.159 1.159 0 1 1 0 2.318 1.159 1.159 0 0 1 0-2.318Zm6.924 0a1.159 1.159 0 1 1 0 2.318 1.159 1.159 0 0 1 0-2.318Zm6.926 0a1.159 1.159 0 1 1 0 2.318 1.159 1.159 0 0 1 0-2.318Zm6.924 0a1.16 1.16 0 0 1 1.158 1.158 1.16 1.16 0 0 1-1.158 1.158 1.159 1.159 0 0 1 0-2.316Z"/></g><path d="M154.308 79.02h-44.107v55.695h44.107V79.02Z" fill="#A1E3D6"/><path d="M154.309 85.104h-44.107l-.387-.374v-5.71l.387-.374h44.107l.374.374v5.734l-.374.35Zm-43.733-.749h43.359v-4.96h-43.359v4.96Z" fill="#000"/><path d="M149.504 92.467h-34.498v7.375h34.498v-7.375ZM149.504 105.914h-34.498v7.375h34.498v-7.375ZM149.504 119.361h-34.498v7.375h34.498v-7.375Z" fill="#fff"/><path d="M115.537 52.56H38.67v82.155h76.867V52.56Z" fill="#13BF89"/><path d="M115.537 52.56H38.67v8.076h76.867V52.56Z" fill="#BEE9E8"/><path d="M45.587 58.5a1.895 1.895 0 1 0 0-3.79 1.895 1.895 0 0 0 0 3.79ZM51.767 58.5a1.895 1.895 0 1 0 0-3.79 1.895 1.895 0 0 0 0 3.79ZM57.933 58.5a1.895 1.895 0 1 0 0-3.79 1.895 1.895 0 0 0 0 3.79ZM76.306 110.827a7.242 7.242 0 0 1-3.923-1.063 8.363 8.363 0 0 1-3.416-5.311 33.469 33.469 0 0 1-2.306 2.028c-1.472 1.207-6.59 4.828-10.73 2.342-2.09-1.207-3.344-3.73-3.827-7.569a38.349 38.349 0 0 1 2.112-18.215l.7.266a37.614 37.614 0 0 0-2.064 17.853c.459 3.621 1.593 5.902 3.464 7.025.942.555 4.442 2.064 9.874-2.293a33.73 33.73 0 0 0 2.596-2.318 19.313 19.313 0 0 1-.278-3.452 37.178 37.178 0 0 1 5.07-18.602c.808-1.4 2.148-2.981 3.874-2.631 1.944.398 2.475 2.849 2.137 5.094a36.077 36.077 0 0 1-9.97 19.844 7.92 7.92 0 0 0 3.186 5.3 7.58 7.58 0 0 0 6.64.374 18.724 18.724 0 0 0 5.817-3.984 60.338 60.338 0 0 0 9.27-11.02 32.762 32.762 0 0 1 2.934-15.693 4.828 4.828 0 0 1 2.45-2.498 1.788 1.788 0 0 1 1.509.169c1.026.615 1.207 2.004.664 3.899a60.47 60.47 0 0 1-6.82 14.388 32.223 32.223 0 0 0 4.998 15.342l-.628.411a32.821 32.821 0 0 1-5.046-14.763 60.128 60.128 0 0 1-8.848 10.345 19.307 19.307 0 0 1-6.035 4.128 9.67 9.67 0 0 1-3.404.604Zm.688-31.228c-1.207 0-2.245 1.412-2.764 2.294a36.406 36.406 0 0 0-4.974 18.239c-.003.928.058 1.856.181 2.776a35.308 35.308 0 0 0 9.404-19.036c.217-1.412.132-3.899-1.533-4.237l-.314-.036Zm23.49-2.692a1.207 1.207 0 0 0-.35 0 4.067 4.067 0 0 0-2.004 2.125 32.073 32.073 0 0 0-2.921 14.304 59.465 59.465 0 0 0 6.156-13.278c.229-.712.652-2.414-.326-3.018a1.048 1.048 0 0 0-.555-.133Z" fill="#fff"/><path d="M13.297 45.088a31.637 31.637 0 0 0 4.828 12.337 13.835 13.835 0 0 0 3.139 3.356l2.559-3.272-1.075 4.261a10.984 10.984 0 0 0 7.412 1.46 16.523 16.523 0 0 0-16.9-18.105l.037-.037Z" fill="#CCED9F"/><path d="m20.612 36.989 4.286.954-4.093.82c.06.41.133.81.206 1.208a17.888 17.888 0 0 0 4.007 8.377 12.457 12.457 0 0 0 8.8 3.995A18.89 18.89 0 0 0 20.443 30c.037 2.16-.012 4.647.17 6.989Z" fill="#06A787"/><path d="M39.285 91.585C34.94 69.411 28.241 60.201 21.638 53.562l.53-.531c10.55 10.61 14.691 23.32 17.31 35.706.628-13.773-3.452-34.378-12.01-47.596l.628-.41c9.234 14.267 13.278 37.045 11.926 50.818l-.737.036Z" fill="#000"/><path d="M38.793 134.715c15.08 0 27.304-10.668 27.304-23.828S53.872 87.059 38.793 87.059c-15.08 0-27.305 10.668-27.305 23.828s12.225 23.828 27.305 23.828Z" fill="#6987F3"/><path d="M32.996 92.382H44.56V81.977H32.996v10.405Z" fill="#6987F3"/><path d="m116.032 65.21 25.639 69.505 12.638-4.66-25.639-69.504-10.803-9.825-1.835 14.485Z" fill="#90D470"/><path d="m152.551 125.217-12.638 4.665.263.714 12.638-4.665-.263-.714Z" fill="#000"/><path d="m116.032 65.21 12.638-4.659-6.916-6.289-3.887-3.536-.664 5.214-1.171 9.27Z" fill="#fff"/><path d="m117.202 55.94 4.551-1.678-3.887-3.536-.664 5.214Z" fill="#000"/><path d="M143.48 65.585a7.219 7.219 0 1 0 0-14.437 7.219 7.219 0 0 0 0 14.437Z" fill="#D4F5BD"/><path d="M21.674 98.285a5.685 5.685 0 1 1 5.698-5.686 5.697 5.697 0 0 1-5.698 5.686Zm0-10.61a4.938 4.938 0 1 0-.024 9.875 4.938 4.938 0 0 0 .024-9.876Z" fill="#000"/><path d="M59.444 134.715c0-7.243 3.79-10.212 6.712-10.731a7.93 7.93 0 0 1 7.882 3.91c2.788-5.661 6.542-10.96 11.528-13.121a10.468 10.468 0 0 1 8.11-.109 10.461 10.461 0 0 1 5.747 5.722c1.823 4.298 1.292 9.512.712 14.329" fill="#fff"/><path d="m80.485 134.92-.555-.507c.253-.278 6.252-6.687 10.682-5.444 1.69.471 2.897 1.967 3.622 4.466a28.018 28.018 0 0 1 2.873-5.347c2.969-4.261 6.602-6.35 10.513-6.036v.749c-8.836-.688-13.012 11.902-13.048 12.071h-.737c-.58-2.922-1.714-4.636-3.367-5.094-4.068-1.207-9.983 5.082-9.983 5.142ZM48.17 43.58l-.496-.302-1.388-8.812.495-.422 14.014 4.937v.724L48.17 43.58Zm-1.039-8.607 1.207 7.75 11.105-3.404-12.312-4.346Z" fill="#000"/><path d="m106.061 53.973-4.647-2.052 3.621-3.621-5.54-8.595-4.732 1.835v-5.07l-10.007-2.16-2.04 4.634-3.56-3.62-8.595 5.552 1.834 4.732h-5.081l-2.149 9.994 4.635 2.052-3.621 3.561 5.553 8.595 4.731-1.835v5.082l10.055 2.16 2.052-4.635 3.55 3.622 8.606-5.553-1.835-4.732h5.07l2.1-9.946Zm-17.442 5.432a5.505 5.505 0 1 1 1.641-7.617 5.517 5.517 0 0 1-1.641 7.617Z" fill="#6987F3"/></svg>