<svg xmlns="http://www.w3.org/2000/svg" width="165" height="165" fill="none"><g clip-path="url(#a)"><path fill="#000" d="m24.621 69.875-.511-.362-1.696-32.676.274-.386 23.147-7.146.499.336.985 11.749c1.322-.424 4.989-1.397 7.309.1a4.53 4.53 0 0 1 1.92 3.816c.312 5.936-6.236 7.483-7.807 7.844l.673 8.892-.261.4-7.221 2.32-.5-.275s-1.247-4.752-4.651-4.14c-3.405.61-4.103 6.746-4.116 6.809l-.274.337zm-1.397-32.776 1.659 31.878 7.109-2.158c.174-1.247 1.122-6.585 4.714-7.233 3.018-.55 4.801 2.382 5.425 4.302l6.485-2.157-.66-8.88.336-.424c1.368-.2 2.695-.622 3.929-1.247a5.94 5.94 0 0 0 3.566-5.787 3.82 3.82 0 0 0-1.571-3.205c-2.494-1.609-7.046.124-7.096.137l-.524-.324-.985-11.773z"/><path fill="#F8C49E" d="m79.258 90.615 22.648-1.646-6.684-28.834-15.665 1.135-.037 3.454-.112 10.614z"/><path fill="#000" d="M79.408 75.337A17.91 17.91 0 0 0 93.9 66.083c-4.627-.386-9.23-.947-13.856-1.334h-.524z"/><path fill="#F8C49E" d="M112.471 49.858a6.23 6.23 0 0 1-3.629 5.15 7.37 7.37 0 0 1-6.822-.573 18.62 18.62 0 0 1-5.625 10.713 17.6 17.6 0 0 1-3.442 2.494h-.087a18.15 18.15 0 0 1-13.395 1.609 17 17 0 0 1-2.494-.91A17.72 17.72 0 0 1 67 55.869c-.836-4.315 0-8.73.935-13.045a38.3 38.3 0 0 1 3.006-9.379q.089-.192.2-.374l.15-.274a16.6 16.6 0 0 1 1.982-2.844l.225-.25a15.85 15.85 0 0 1 10.376-4.925q1.06-.075 2.12 0a18.07 18.07 0 0 1 12.397 6.235 20.84 20.84 0 0 1 4.988 13.02 6.38 6.38 0 0 1 6.348.213l.362.261a6.3 6.3 0 0 1 2.382 5.35"/><path fill="#000" d="m105 51.617-.736-.2.275-4.988h.785l-.212 3.679a3.94 3.94 0 0 1 4.353-.686l-.337.698A3.156 3.156 0 0 0 105 51.53zm-24.695 3.017a1.7 1.7 0 0 1-1.51-.997 3.3 3.3 0 0 1 0-1.484l.949-6.847.773.112-.948 6.834c-.089.378-.089.77 0 1.148a.76.76 0 0 0 .4.374.86.86 0 0 0 .648 0l.3.723a1.6 1.6 0 0 1-.612.137m2.471 3.369h-.3v-.774a3.02 3.02 0 0 0 2.233-.773 2.9 2.9 0 0 0 .91-2.17h.786a3.74 3.74 0 0 1-3.741 3.742zm3.454-11.637c0 .599.412 1.06.811 1.035s.686-.536.636-1.134c-.05-.6-.399-1.06-.798-1.036s-.686.6-.648 1.135m-12.621-.299c0 .598.411 1.06.81 1.035s.686-.537.636-1.135c-.05-.599-.399-1.06-.798-1.035s-.686.536-.648 1.134m14.641-3.067c.37.075.752.075 1.123 0 .623-.25.66-.91.1-1.335a4.44 4.44 0 0 0-2.108-.648 2.5 2.5 0 0 0-1.584.187.947.947 0 0 0-.262 1.247c.511.885 1.87.499 2.731.549M73.41 43a2.6 2.6 0 0 1-1.11 0c-.636-.25-.661-.911-.1-1.335a4.34 4.34 0 0 1 2.12-.636 2.5 2.5 0 0 1 1.571.2.935.935 0 0 1 .262 1.246c-.548.86-1.87.487-2.743.524"/><path fill="#D4F5BD" d="M103.328 43.984c-3.455-.112-6.884-6.024-8.393-10.252a42.2 42.2 0 0 1-19.331 1.934 8.8 8.8 0 0 1-4.665-2.183l-.15-.15a6.672 6.672 0 0 1 3.63-11.224 13.93 13.93 0 0 1 9.454 2.719q1.06-.075 2.12 0a18.07 18.07 0 0 1 12.396 6.236 20.84 20.84 0 0 1 4.939 12.92"/><path fill="#A1E3D6" d="M47.692 102.239s7.657-13.357 12.608-17.56 18.957-3.467 18.957-3.467c5.587 14.84 20.853 0 20.853 0s18.57-.25 25.741 3.454 18.794 57.631 18.794 57.631H62.77"/><path fill="#A1E3D6" d="M87.515 108.674s-17.81 33.885-44.274 29.682-28.435-56.122-28.435-56.122L34.76 71.109l15.215 28.41"/><path fill="#6CC485" d="M129.12 67.792a6.397 6.397 0 0 0 6.397-6.398 6.397 6.397 0 1 0-12.795 0 6.4 6.4 0 0 0 6.398 6.398"/><path fill="#F8C49E" d="M17.661 51.442c-2.133.374-1.422 7.645-.71 12.472Z"/><path fill="#F8C49E" d="M16.989 63.864c-.948-3.517-2.856-9.304-5.101-8.73-3.43.798 1.958 23.035 1.958 23.035l.998 4.115L34.798 71.16c-2.719-5.625 1.122-10.726-1.247-11.586s-4.59 4.989-4.59 4.989-2.556-12.697-5.3-12.173c-1.36.25-1.247 4.989-1.11 7.795-1.247-3.742-3.268-8.98-4.74-8.73"/><path fill="#000" d="M22.127 61.619c-.55-9.291.86-9.553 1.322-9.64l.137.76s-1.172.462-.674 8.83zm-5.563 2.295c-1.247-8.319-.898-12.472 1.023-12.858l.137.773c-1.023.175-1.659 3.417-.387 11.973z"/><path fill="#90D470" d="M59.965 136.049a30.6 30.6 0 0 1-3.816 6.235H23.087a24.8 24.8 0 0 1-4.988-8.443c-.886-3.255-.213-7.196 2.494-9.191a6.311 6.311 0 0 1 10.052 4.851 22.7 22.7 0 0 1 6.036-14.08 15.31 15.31 0 0 1 14.292-4.378 15.09 15.09 0 0 1 10.215 10.239 21.2 21.2 0 0 1-1.223 14.767"/><path fill="#000" d="m35.56 142.522-.575-.536c.325-.349 7.995-8.556 13.644-6.959 2.195.611 3.742 2.606 4.652 5.936a35.6 35.6 0 0 1 3.742-7.109c3.741-5.437 8.43-8.106 13.431-7.72v.774c-11.411-.886-16.811 15.365-16.861 15.527h-.76c-.762-3.742-2.233-6.024-4.39-6.623-5.264-1.434-12.747 6.623-12.884 6.71"/><path fill="#6987F3" d="M10.627 142.309s14.08-17.821 17.535 0z"/><path fill="#000" d="M130.553 70.474H113.23l-.336-.574 8.406-15.09h.686l8.904 15.078zm-16.661-.773h15.976l-8.219-13.894zM16.34 107.689a5.858 5.858 0 0 1-5.763-6.997 5.861 5.861 0 0 1 11.612 1.135 5.873 5.873 0 0 1-5.85 5.862m0-10.937a5.088 5.088 0 1 0 5.075 5.075 5.075 5.075 0 0 0-5.076-5.076m34.96 6.61-4.938-1.234-.112-.711 3.155-2.02-15.04-28.099.685-.374 15.215 28.423-.137.51-2.706 1.734 4.078 1.023z"/><path fill="#13BF89" d="m22.326 66.383-1.709-32.675 23.147-7.146 1.023 12.247s8.83-3.405 9.191 3.404c.337 6.473-7.832 7.483-7.832 7.483l.686 9.192-7.146 2.382s-1.372-5.101-5.113-4.415S30.145 64 30.145 64z"/><path fill="#424D99" d="M130.324 129.868H72.992l22.923 13.158h57.344z"/><path fill="#000" d="m87.67 132.598-.385.671 9.488 5.44.385-.671z"/><path fill="#424D99" d="M162.426 101.895h-57.331l-9.18 41.131h57.345z"/><path fill="#000" d="m104.717 101.817-9.172 41.131.767.171 9.172-41.131z"/><path fill="#fff" d="M134.428 122.46a5.25 5.25 0 0 1-3.241 4.851 5.24 5.24 0 0 1-5.722-1.138 5.252 5.252 0 0 1 3.712-8.963 5.25 5.25 0 0 1 5.251 5.25"/><path fill="#000" d="M129.178 125.978h-.2v-.786a2.66 2.66 0 0 0 1.983-.686 2.75 2.75 0 0 0 .923-1.896h.773a3.53 3.53 0 0 1-3.517 3.318z"/><path fill="#A1E3D6" d="M160.872 105.618a4.24 4.24 0 1 1-8.481.025 4.24 4.24 0 0 1 8.481-.025"/></g><defs><clipPath id="a"><path fill="#fff" d="M0 0h165v165H0z"/></clipPath></defs></svg>