<svg xmlns="http://www.w3.org/2000/svg" width="165" height="165" fill="none"><g clip-path="url(#a)"><mask id="b" width="147" height="108" x="2" y="36" maskUnits="userSpaceOnUse" style="mask-type:luminance"><path fill="#fff" d="M4.398 72.993c4.628-14.734 12.543-25.55 26.38-32.414 8.381-4.151 22.141-5.723 30.455-1.461C75.237 46.28 82.443 57.77 95.12 65.443c10.051 6.089 24.697 2.546 35.325 7.55 13.284 6.255 19.926 24.587 18.299 39.2a36.53 36.53 0 0 1-27.676 30.731c-19.539 4.296-31.993-11.967-50.082-16.838-13.793-3.719-37.318 8.192-55.661-7.749C4.653 109.016.535 85.392 4.398 72.993"/></mask><g fill="#A9DBFF" mask="url(#b)"><path d="M-11.502 37.699a1.177 1.177 0 1 1 0 2.355 1.177 1.177 0 0 1 0-2.355m7.04 0a1.177 1.177 0 1 1 0 2.354 1.177 1.177 0 0 1 0-2.354m7.039 0a1.178 1.178 0 1 1 0 2.355 1.178 1.178 0 0 1 0-2.355m7.04 0a1.178 1.178 0 1 1 0 2.355 1.178 1.178 0 0 1 0-2.355m7.038 0a1.178 1.178 0 1 1 0 2.355 1.178 1.178 0 0 1 0-2.355m7.039 0a1.178 1.178 0 1 1 0 2.355 1.178 1.178 0 0 1 0-2.355m7.04 0a1.178 1.178 0 1 1 0 2.355 1.178 1.178 0 0 1 0-2.355m7.038 0a1.178 1.178 0 1 1 0 2.355 1.178 1.178 0 0 1 0-2.355m7.041 0a1.178 1.178 0 1 1-.012 0zm7.038 0a1.178 1.178 0 1 1 0 2.355 1.178 1.178 0 0 1 0-2.355m7.041 0a1.178 1.178 0 1 1 0 2.355 1.178 1.178 0 0 1 0-2.355m7.038 0a1.178 1.178 0 1 1 0 2.355 1.178 1.178 0 0 1 0-2.355m7.038 0a1.178 1.178 0 1 1 0 2.355 1.178 1.178 0 0 1 0-2.355m7.041 0a1.178 1.178 0 1 1 0 2.355 1.178 1.178 0 0 1 0-2.355m7.038 0a1.178 1.178 0 1 1 0 2.355 1.178 1.178 0 0 1 0-2.355m7.04 0a1.178 1.178 0 1 1 0 2.355 1.178 1.178 0 0 1 0-2.355m7.039 0a1.18 1.18 0 0 1 1.178 1.177 1.18 1.18 0 0 1-1.178 1.177 1.175 1.175 0 0 1-1.177-1.177 1.177 1.177 0 0 1 1.177-1.177m7.041 0a1.177 1.177 0 1 1 0 2.354 1.177 1.177 0 0 1 0-2.354m7.038 0a1.18 1.18 0 0 1 1.177 1.177 1.18 1.18 0 0 1-1.177 1.177 1.18 1.18 0 0 1-1.088-1.628 1.18 1.18 0 0 1 1.09-.726zm7.038 0a1.18 1.18 0 0 1 1.178 1.177 1.176 1.176 0 1 1-2.355 0 1.18 1.18 0 0 1 .727-1.088c.143-.059.296-.09.45-.09Zm7.041 0a1.176 1.176 0 0 1 .832 2.01 1.175 1.175 0 0 1-1.665 0 1.18 1.18 0 0 1 0-1.666 1.18 1.18 0 0 1 .833-.344m7.038 0a1.18 1.18 0 0 1 1.177 1.177 1.18 1.18 0 0 1-1.177 1.177 1.175 1.175 0 0 1-1.177-1.177 1.18 1.18 0 0 1 .727-1.088c.142-.059.295-.09.45-.09Zm7.041 0a1.177 1.177 0 1 1 0 2.354 1.177 1.177 0 0 1 0-2.354M-7.754 41.56a1.178 1.178 0 1 1 0 2.355 1.178 1.178 0 0 1 0-2.355m7.039 0a1.178 1.178 0 1 1 0 2.355 1.178 1.178 0 0 1 0-2.355m7.04 0a1.178 1.178 0 1 1 0 2.355 1.178 1.178 0 0 1 0-2.355m7.038 0a1.178 1.178 0 1 1 0 2.355 1.178 1.178 0 0 1 0-2.355m7.041 0a1.178 1.178 0 1 1 0 2.355 1.178 1.178 0 0 1 0-2.355m7.038 0a1.178 1.178 0 1 1 0 2.355 1.178 1.178 0 0 1 0-2.355m7.04 0a1.178 1.178 0 1 1 0 2.355 1.178 1.178 0 0 1 0-2.355m7.04 0a1.178 1.178 0 1 1-.001 2.355 1.178 1.178 0 0 1 0-2.355Zm7.037 0a1.178 1.178 0 1 1-.444.087c.144-.059.298-.088.454-.087zm7.041 0a1.178 1.178 0 1 1 0 2.355 1.178 1.178 0 0 1 0-2.355m7.038 0a1.178 1.178 0 1 1 0 2.355 1.178 1.178 0 0 1 0-2.355m7.04 0a1.178 1.178 0 1 1 0 2.355 1.178 1.178 0 0 1 0-2.355m7.04 0a1.178 1.178 0 1 1-.001 2.355 1.178 1.178 0 0 1 0-2.355Zm7.037 0a1.178 1.178 0 1 1 0 2.355 1.178 1.178 0 0 1 0-2.355m7.04 0a1.178 1.178 0 1 1 0 2.355 1.178 1.178 0 0 1 0-2.355m7.04 0a1.178 1.178 0 1 1 0 2.355 1.178 1.178 0 0 1 0-2.355m7.04 0a1.177 1.177 0 1 1 0 2.354 1.177 1.177 0 0 1 0-2.354m7.038 0a1.18 1.18 0 0 1 1.177 1.177 1.18 1.18 0 0 1-1.177 1.177 1.18 1.18 0 0 1-1.177-1.177 1.174 1.174 0 0 1 1.175-1.177zm7.041 0a1.177 1.177 0 1 1 0 2.354 1.177 1.177 0 0 1 0-2.354m7.038 0a1.175 1.175 0 0 1 .832 2.01 1.175 1.175 0 0 1-1.665 0 1.18 1.18 0 0 1 0-1.665 1.18 1.18 0 0 1 .833-.345m7.038 0a1.18 1.18 0 0 1 1.177 1.177 1.18 1.18 0 0 1-1.177 1.177 1.175 1.175 0 0 1-1.177-1.177 1.18 1.18 0 0 1 .345-.832 1.17 1.17 0 0 1 .832-.345m7.041 0a1.177 1.177 0 1 1 0 2.354 1.177 1.177 0 0 1 0-2.354m-151.573 3.83a1.177 1.177 0 1 1 0 2.355 1.177 1.177 0 0 1 0-2.355m7.04 0a1.177 1.177 0 1 1 .001 2.355 1.177 1.177 0 0 1 0-2.355Zm7.04 0a1.177 1.177 0 1 1 0 2.355 1.177 1.177 0 0 1 0-2.355m7.04 0a1.177 1.177 0 1 1 0 2.355 1.177 1.177 0 0 1 0-2.355m7.038 0a1.177 1.177 0 1 1 0 2.355 1.177 1.177 0 0 1 0-2.355m7.038 0a1.177 1.177 0 1 1 0 2.355 1.177 1.177 0 0 1 0-2.355m7.04 0a1.177 1.177 0 1 1 .001 2.355 1.177 1.177 0 0 1 0-2.355Zm7.04 0a1.177 1.177 0 1 1 0 2.355 1.177 1.177 0 0 1 0-2.355m7.028 0a1.177 1.177 0 1 1 0 2.355 1.177 1.177 0 0 1 0-2.355m7.038 0a1.177 1.177 0 1 1-.442.086q.218-.087.454-.086zm7.04 0a1.177 1.177 0 1 1-.442.086q.22-.087.455-.086zm7.039 0a1.177 1.177 0 1 1-.442.086q.218-.087.454-.086zm7.038 0a1.177 1.177 0 1 1-.442.086q.218-.087.454-.086zm7.04 0a1.177 1.177 0 1 1-.442.086q.22-.087.455-.086zm7.04 0a1.177 1.177 0 1 1-.443.086q.218-.087.454-.086zm7.04 0a1.177 1.177 0 1 1-.443.086c.144-.058.299-.087.454-.086zm7.038 0a1.175 1.175 0 0 1 1.177 1.177 1.18 1.18 0 0 1-.726 1.088 1.178 1.178 0 1 1-.439-2.265zm7.041 0a1.177 1.177 0 1 1-.443.086c.144-.058.299-.087.454-.086zm7.052 0a1.175 1.175 0 0 1 1.177 1.177 1.18 1.18 0 0 1-.345.833 1.17 1.17 0 0 1-.832.345 1.178 1.178 0 1 1 0-2.355m7.038 0a1.18 1.18 0 0 1 1.088 1.628 1.18 1.18 0 0 1-1.088.727 1.17 1.17 0 0 1-.832-.345 1.18 1.18 0 0 1-.345-.833 1.18 1.18 0 0 1 1.175-1.177zm7.041 0a1.177 1.177 0 1 1-.003 0zm7.038 0a1.18 1.18 0 0 1 1.088 1.628 1.18 1.18 0 0 1-1.921.382 1.18 1.18 0 0 1 0-1.664c.22-.22.519-.345.831-.346zm7.041 0a1.177 1.177 0 1 1-.003 0zM-7.753 49.259a1.177 1.177 0 1 1 0 2.354 1.177 1.177 0 0 1 0-2.354m7.038 0a1.177 1.177 0 1 1 0 2.354 1.177 1.177 0 0 1 0-2.354m7.041 0a1.177 1.177 0 1 1 0 2.354 1.177 1.177 0 0 1 0-2.354m7.038 0a1.177 1.177 0 1 1 0 2.354 1.177 1.177 0 0 1 0-2.354m7.04 0a1.177 1.177 0 1 1 .001 2.354 1.177 1.177 0 0 1 0-2.354Zm7.04 0a1.177 1.177 0 1 1 0 2.354 1.177 1.177 0 0 1 0-2.354m7.04 0a1.177 1.177 0 1 1 0 2.354 1.177 1.177 0 0 1 0-2.354m7.038 0a1.177 1.177 0 1 1 0 2.354 1.177 1.177 0 0 1 0-2.354m7.038 0a1.177 1.177 0 1 1-.444.087 1.1 1.1 0 0 1 .454-.087zm7.04 0a1.177 1.177 0 1 1 0 2.354 1.177 1.177 0 0 1 0-2.354m7.039 0a1.177 1.177 0 1 1 0 2.354 1.177 1.177 0 0 1 0-2.354m7.04 0a1.177 1.177 0 1 1 0 2.354 1.177 1.177 0 0 1 0-2.354m7.039 0a1.177 1.177 0 1 1 0 2.354 1.177 1.177 0 0 1 0-2.354m7.038 0a1.177 1.177 0 1 1 0 2.354 1.177 1.177 0 0 1 0-2.354m7.04 0a1.177 1.177 0 1 1 0 2.354 1.177 1.177 0 0 1 0-2.354m7.039 0a1.177 1.177 0 1 1 0 2.354 1.177 1.177 0 0 1 0-2.354m7.041 0a1.177 1.177 0 1 1 0 2.353 1.177 1.177 0 0 1 0-2.353m7.038 0a1.175 1.175 0 0 1 1.177 1.177 1.176 1.176 0 0 1-2.01.832 1.176 1.176 0 0 1 .83-2.01zm7.04 0a1.177 1.177 0 1 1 0 2.355 1.177 1.177 0 0 1 0-2.355m7.039 0a1.177 1.177 0 1 1 0 2.353 1.177 1.177 0 0 1 0-2.353m7.038 0a1.175 1.175 0 0 1 1.177 1.177 1.176 1.176 0 1 1-1.177-1.177m7.04 0a1.177 1.177 0 1 1 0 2.355 1.177 1.177 0 0 1 0-2.355m7.039 0a1.177 1.177 0 1 1 0 2.353 1.177 1.177 0 0 1 0-2.353m-158.612 3.837a1.177 1.177 0 1 1 0 2.355 1.177 1.177 0 0 1 0-2.355m7.04 0a1.177 1.177 0 1 1 0 2.355 1.177 1.177 0 0 1 0-2.355m7.038 0a1.177 1.177 0 1 1 0 2.355 1.177 1.177 0 0 1 0-2.355m7.041 0a1.177 1.177 0 1 1 0 2.355 1.177 1.177 0 0 1 0-2.355m7.038 0a1.177 1.177 0 1 1 0 2.355 1.177 1.177 0 0 1 0-2.355m7.038 0a1.177 1.177 0 1 1 0 2.355 1.177 1.177 0 0 1 0-2.355m7.041 0a1.177 1.177 0 1 1 0 2.355 1.177 1.177 0 0 1 0-2.355m7.038 0a1.177 1.177 0 1 1 0 2.355 1.177 1.177 0 0 1 0-2.355m7.041 0a1.177 1.177 0 1 1-.012 0zm7.038 0a1.177 1.177 0 1 1 0 2.355 1.177 1.177 0 0 1 0-2.355m7.04 0a1.177 1.177 0 1 1 .001 2.355 1.177 1.177 0 0 1 0-2.355Zm7.039 0a1.177 1.177 0 1 1 0 2.355 1.177 1.177 0 0 1 0-2.355m7.038 0a1.177 1.177 0 1 1 0 2.355 1.177 1.177 0 0 1 0-2.355m7.04 0a1.177 1.177 0 1 1 .001 2.355 1.177 1.177 0 0 1 0-2.355Zm7.04 0a1.177 1.177 0 1 1 0 2.355 1.177 1.177 0 0 1 0-2.355m7.04 0a1.177 1.177 0 1 1 0 2.355 1.177 1.177 0 0 1 0-2.355m7.038 0a1.18 1.18 0 0 1 1.177 1.177 1.18 1.18 0 0 1-1.177 1.177 1.18 1.18 0 0 1-1.177-1.177 1.18 1.18 0 0 1 1.177-1.177m7.041 0a1.177 1.177 0 1 1 0 2.354 1.177 1.177 0 0 1 0-2.354m7.038 0a1.175 1.175 0 0 1 1.177 1.177 1.176 1.176 0 1 1-1.175-1.177zm7.038 0a1.18 1.18 0 0 1 1.177 1.177 1.18 1.18 0 0 1-1.177 1.177 1.175 1.175 0 0 1-.832-2.009 1.17 1.17 0 0 1 .832-.345m7.041 0a1.177 1.177 0 1 1 0 2.354 1.177 1.177 0 0 1 0-2.354m7.038 0a1.175 1.175 0 0 1 1.177 1.177 1.176 1.176 0 1 1-1.177-1.177m7.041 0a1.177 1.177 0 1 1 0 2.354 1.177 1.177 0 0 1 0-2.354m7.038 0a1.177 1.177 0 1 1 0 2.354 1.177 1.177 0 0 1 0-2.354M-7.753 56.958a1.178 1.178 0 1 1 0 2.355 1.178 1.178 0 0 1 0-2.355m7.038 0a1.178 1.178 0 1 1 0 2.355 1.178 1.178 0 0 1 0-2.355m7.041 0a1.178 1.178 0 1 1 0 2.355 1.178 1.178 0 0 1 0-2.355m7.038 0a1.177 1.177 0 1 1 0 2.354 1.177 1.177 0 0 1 0-2.354m7.04 0a1.178 1.178 0 1 1 0 2.355 1.178 1.178 0 0 1 0-2.355m7.04 0a1.178 1.178 0 1 1 0 2.355 1.178 1.178 0 0 1 0-2.355m7.04 0a1.178 1.178 0 1 1 0 2.355 1.178 1.178 0 0 1 0-2.355m7.038 0a1.178 1.178 0 1 1 0 2.355 1.178 1.178 0 0 1 0-2.355m7.038 0a1.178 1.178 0 1 1-.444.086c.144-.058.298-.088.454-.086zm7.04 0a1.178 1.178 0 1 1 0 2.355 1.178 1.178 0 0 1 0-2.355m7.039 0a1.177 1.177 0 1 1 0 2.354 1.177 1.177 0 0 1 0-2.354m7.04 0a1.178 1.178 0 1 1 0 2.355 1.178 1.178 0 0 1 0-2.355m7.039 0a1.178 1.178 0 1 1 0 2.355 1.178 1.178 0 0 1 0-2.355m7.038 0a1.178 1.178 0 1 1 0 2.355 1.178 1.178 0 0 1 0-2.355m7.04 0a1.178 1.178 0 1 1 0 2.355 1.178 1.178 0 0 1 0-2.355m7.039 0a1.178 1.178 0 1 1 0 2.355 1.178 1.178 0 0 1 0-2.355m7.041 0a1.177 1.177 0 1 1 0 2.354 1.177 1.177 0 0 1 0-2.354m7.038 0a1.175 1.175 0 0 1 .832 2.01 1.175 1.175 0 0 1-1.665 0 1.176 1.176 0 0 1 .83-2.01zm7.04 0a1.178 1.178 0 1 1 0 2.355 1.178 1.178 0 0 1 0-2.355m7.039 0a1.177 1.177 0 1 1 0 2.354 1.177 1.177 0 0 1 0-2.354m7.038 0a1.175 1.175 0 0 1 .832 2.01 1.175 1.175 0 0 1-2.009-.833 1.18 1.18 0 0 1 .726-1.088q.217-.09.451-.09Zm7.04 0a1.178 1.178 0 1 1 0 2.355 1.178 1.178 0 0 1 0-2.355m7.039 0a1.177 1.177 0 1 1 0 2.354 1.177 1.177 0 0 1 0-2.354m-158.612 3.837a1.177 1.177 0 1 1 0 2.355 1.177 1.177 0 0 1 0-2.355m7.04 0a1.177 1.177 0 1 1 0 2.355 1.177 1.177 0 0 1 0-2.355m7.039 0a1.177 1.177 0 1 1 0 2.355 1.177 1.177 0 0 1 0-2.355m7.04 0a1.177 1.177 0 1 1 0 2.355 1.177 1.177 0 0 1 0-2.355m7.038 0a1.177 1.177 0 1 1 0 2.354 1.177 1.177 0 0 1 0-2.354m7.039 0a1.177 1.177 0 1 1 0 2.355 1.177 1.177 0 0 1 0-2.355m7.04 0a1.177 1.177 0 1 1 0 2.355 1.177 1.177 0 0 1 0-2.355m7.038 0a1.177 1.177 0 1 1 0 2.354 1.177 1.177 0 0 1 0-2.354m7.041 0a1.177 1.177 0 1 1-.012 0zm7.038 0a1.177 1.177 0 1 1 0 2.355 1.177 1.177 0 0 1 0-2.355m7.041 0a1.177 1.177 0 1 1 0 2.355 1.177 1.177 0 0 1 0-2.355m7.038 0a1.177 1.177 0 1 1 0 2.355 1.177 1.177 0 0 1 0-2.355m7.038 0a1.177 1.177 0 1 1 0 2.355 1.177 1.177 0 0 1 0-2.355m7.041 0a1.177 1.177 0 1 1 0 2.355 1.177 1.177 0 0 1 0-2.355m7.038 0a1.177 1.177 0 1 1 0 2.355 1.177 1.177 0 0 1 0-2.355m7.04 0a1.177 1.177 0 1 1 0 2.355 1.177 1.177 0 0 1 0-2.355m7.039 0a1.18 1.18 0 0 1 1.178 1.177 1.18 1.18 0 0 1-1.178 1.177 1.175 1.175 0 0 1-1.177-1.177 1.177 1.177 0 0 1 1.177-1.177m7.041 0a1.177 1.177 0 1 1 0 2.354 1.177 1.177 0 0 1 0-2.354m7.038 0a1.18 1.18 0 0 1 1.177 1.177 1.18 1.18 0 0 1-1.177 1.177 1.18 1.18 0 0 1-1.088-1.628 1.18 1.18 0 0 1 1.09-.726zm7.038 0a1.18 1.18 0 0 1 1.178 1.177 1.176 1.176 0 1 1-2.355 0 1.18 1.18 0 0 1 .727-1.087c.143-.06.296-.09.45-.09m7.041 0a1.175 1.175 0 0 1 1.177 1.177 1.176 1.176 0 1 1-1.177-1.177m7.038 0a1.18 1.18 0 0 1 1.177 1.177 1.18 1.18 0 0 1-1.177 1.177 1.175 1.175 0 0 1-1.177-1.177 1.18 1.18 0 0 1 .727-1.087c.142-.06.295-.09.45-.09m7.041 0a1.177 1.177 0 1 1 0 2.355 1.177 1.177 0 0 1 0-2.355M-7.753 64.656a1.178 1.178 0 1 1 0 2.355 1.178 1.178 0 0 1 0-2.355m7.038 0a1.178 1.178 0 1 1 0 2.356 1.178 1.178 0 0 1 0-2.356m7.041 0a1.178 1.178 0 1 1 0 2.356 1.178 1.178 0 0 1 0-2.356m7.038 0a1.177 1.177 0 1 1 0 2.355 1.177 1.177 0 0 1 0-2.355m7.04 0a1.178 1.178 0 1 1 0 2.356 1.178 1.178 0 0 1 0-2.356m7.04 0a1.178 1.178 0 1 1-.001 2.356 1.178 1.178 0 0 1 0-2.356Zm7.04 0a1.178 1.178 0 1 1 0 2.356 1.178 1.178 0 0 1 0-2.356m7.038 0a1.178 1.178 0 1 1 0 2.355 1.178 1.178 0 0 1 0-2.355m7.038 0a1.178 1.178 0 1 1-.444.087c.144-.059.298-.088.454-.087zm7.04 0a1.178 1.178 0 1 1 0 2.356 1.178 1.178 0 0 1 0-2.356m7.039 0a1.177 1.177 0 1 1 0 2.355 1.177 1.177 0 0 1 0-2.355m7.04 0a1.178 1.178 0 1 1 0 2.356 1.178 1.178 0 0 1 0-2.356m7.039 0a1.178 1.178 0 1 1 0 2.356 1.178 1.178 0 0 1 0-2.356m7.038 0a1.178 1.178 0 1 1 0 2.355 1.178 1.178 0 0 1 0-2.355m7.04 0a1.178 1.178 0 1 1 0 2.355 1.178 1.178 0 0 1 0-2.355m7.039 0a1.178 1.178 0 1 1 0 2.356 1.178 1.178 0 0 1 0-2.356m7.041 0a1.177 1.177 0 1 1 0 2.355 1.177 1.177 0 0 1 0-2.355m7.038 0a1.176 1.176 0 0 1 .832 2.01 1.175 1.175 0 0 1-1.665 0 1.176 1.176 0 0 1 .83-2.01zm7.04 0a1.178 1.178 0 1 1 0 2.356 1.178 1.178 0 0 1 0-2.356m7.039 0a1.177 1.177 0 1 1 0 2.355 1.177 1.177 0 0 1 0-2.355m7.038 0a1.176 1.176 0 0 1 .832 2.01 1.175 1.175 0 0 1-2.009-.833 1.18 1.18 0 0 1 .726-1.087q.217-.09.451-.09m7.04 0a1.178 1.178 0 1 1 0 2.356 1.178 1.178 0 0 1 0-2.356m7.039 0a1.177 1.177 0 1 1 0 2.355 1.177 1.177 0 0 1 0-2.355m-158.612 3.838a1.177 1.177 0 1 1 0 2.355 1.177 1.177 0 0 1 0-2.355m7.04 0a1.177 1.177 0 1 1 0 2.355 1.177 1.177 0 0 1 0-2.355m7.039 0a1.177 1.177 0 1 1 0 2.355 1.177 1.177 0 0 1 0-2.355m7.04 0a1.177 1.177 0 1 1 0 2.355 1.177 1.177 0 0 1 0-2.355m7.038 0a1.177 1.177 0 1 1 0 2.354 1.177 1.177 0 0 1 0-2.354m7.039 0a1.177 1.177 0 1 1 0 2.355 1.177 1.177 0 0 1 0-2.355m7.04 0a1.177 1.177 0 1 1 0 2.355 1.177 1.177 0 0 1 0-2.355m7.038 0a1.177 1.177 0 1 1 0 2.354 1.177 1.177 0 0 1 0-2.354m7.041 0a1.177 1.177 0 1 1-.012 0zm7.038 0a1.177 1.177 0 1 1 0 2.355 1.177 1.177 0 0 1 0-2.355m7.041 0a1.177 1.177 0 1 1 0 2.355 1.177 1.177 0 0 1 0-2.355m7.038 0a1.177 1.177 0 1 1 0 2.355 1.177 1.177 0 0 1 0-2.355m7.038 0a1.177 1.177 0 1 1 0 2.355 1.177 1.177 0 0 1 0-2.355m7.041 0a1.177 1.177 0 1 1 0 2.355 1.177 1.177 0 0 1 0-2.355m7.038 0a1.177 1.177 0 1 1 0 2.355 1.177 1.177 0 0 1 0-2.355m7.04 0a1.177 1.177 0 1 1 0 2.355 1.177 1.177 0 0 1 0-2.355m7.039 0a1.18 1.18 0 0 1 1.178 1.177 1.18 1.18 0 0 1-1.178 1.177 1.175 1.175 0 0 1-.832-2.01c.22-.22.52-.344.832-.344m7.041 0a1.177 1.177 0 1 1 0 2.354 1.177 1.177 0 0 1 0-2.354m7.038 0a1.18 1.18 0 0 1 1.177 1.177 1.18 1.18 0 0 1-1.177 1.177 1.18 1.18 0 0 1-1.088-1.628 1.18 1.18 0 0 1 1.09-.726zm7.038 0a1.18 1.18 0 0 1 1.178 1.177 1.176 1.176 0 1 1-2.355 0 1.18 1.18 0 0 1 .727-1.088c.143-.059.296-.09.45-.09Zm7.041 0a1.175 1.175 0 0 1 1.177 1.177 1.176 1.176 0 1 1-1.177-1.177m7.038 0a1.18 1.18 0 0 1 1.177 1.177 1.18 1.18 0 0 1-1.177 1.177 1.176 1.176 0 0 1-.832-2.01 1.17 1.17 0 0 1 .832-.344m7.041 0a1.177 1.177 0 1 1 0 2.354 1.177 1.177 0 0 1 0-2.354M-7.754 72.355a1.177 1.177 0 1 1 0 2.354 1.177 1.177 0 0 1 0-2.354m7.039 0a1.177 1.177 0 1 1 0 2.355 1.177 1.177 0 0 1 0-2.355m7.04 0a1.177 1.177 0 1 1 0 2.355 1.177 1.177 0 0 1 0-2.355m7.038 0a1.177 1.177 0 1 1 0 2.354 1.177 1.177 0 0 1 0-2.354m7.041 0a1.177 1.177 0 1 1 0 2.355 1.177 1.177 0 0 1 0-2.355m7.038 0a1.177 1.177 0 1 1 0 2.355 1.177 1.177 0 0 1 0-2.355m7.04 0a1.177 1.177 0 1 1 0 2.355 1.177 1.177 0 0 1 0-2.355m7.04 0a1.177 1.177 0 1 1 0 2.354 1.177 1.177 0 0 1 0-2.354m7.037 0a1.177 1.177 0 1 1-.444.087c.144-.059.298-.088.454-.087zm7.041 0a1.177 1.177 0 1 1 0 2.355 1.177 1.177 0 0 1 0-2.355m7.038 0a1.177 1.177 0 1 1 0 2.354 1.177 1.177 0 0 1 0-2.354m7.04 0a1.177 1.177 0 1 1 .001 2.354 1.177 1.177 0 0 1 0-2.354Zm7.04 0a1.177 1.177 0 1 1 0 2.355 1.177 1.177 0 0 1 0-2.355m7.037 0a1.177 1.177 0 1 1 0 2.354 1.177 1.177 0 0 1 0-2.354m7.04 0a1.177 1.177 0 1 1 .001 2.354 1.177 1.177 0 0 1 0-2.354Zm7.04 0a1.177 1.177 0 1 1 0 2.355 1.177 1.177 0 0 1 0-2.355m7.04 0a1.177 1.177 0 1 1 0 2.354 1.177 1.177 0 0 1 0-2.354m7.038 0a1.18 1.18 0 0 1 1.177 1.177 1.18 1.18 0 0 1-1.177 1.177 1.18 1.18 0 0 1-1.177-1.177 1.174 1.174 0 0 1 1.175-1.177zm7.041 0a1.177 1.177 0 1 1 0 2.354 1.177 1.177 0 0 1 0-2.354m7.038 0a1.175 1.175 0 0 1 1.177 1.177 1.176 1.176 0 0 1-2.01.832 1.18 1.18 0 0 1 0-1.664 1.18 1.18 0 0 1 .833-.345m7.038 0a1.18 1.18 0 0 1 1.177 1.177 1.18 1.18 0 0 1-1.177 1.177 1.175 1.175 0 0 1-1.177-1.177 1.18 1.18 0 0 1 .727-1.088c.142-.059.295-.09.45-.09Zm7.041 0a1.177 1.177 0 1 1 0 2.354 1.177 1.177 0 0 1 0-2.354m-151.574 3.837a1.177 1.177 0 1 1 0 2.355 1.177 1.177 0 0 1 0-2.355m7.04 0a1.177 1.177 0 1 1 .001 2.355 1.177 1.177 0 0 1 0-2.355Zm7.04 0a1.177 1.177 0 1 1 0 2.355 1.177 1.177 0 0 1 0-2.355m7.04 0a1.177 1.177 0 1 1 0 2.355 1.177 1.177 0 0 1 0-2.355m7.038 0a1.177 1.177 0 1 1 0 2.355 1.177 1.177 0 0 1 0-2.355m7.038 0a1.177 1.177 0 1 1 0 2.355 1.177 1.177 0 0 1 0-2.355m7.04 0a1.177 1.177 0 1 1 0 2.355 1.177 1.177 0 0 1 0-2.355m7.04 0a1.177 1.177 0 1 1 0 2.355 1.177 1.177 0 0 1 0-2.355m7.04 0a1.177 1.177 0 1 1-.012 0zm7.038 0a1.177 1.177 0 1 1 0 2.355 1.177 1.177 0 0 1 0-2.355m7.04 0a1.177 1.177 0 1 1 0 2.355 1.177 1.177 0 0 1 0-2.355m7.039 0a1.177 1.177 0 1 1 0 2.355 1.177 1.177 0 0 1 0-2.355m7.038 0a1.177 1.177 0 1 1 0 2.355 1.177 1.177 0 0 1 0-2.355m7.04 0a1.177 1.177 0 1 1 0 2.355 1.177 1.177 0 0 1 0-2.355m7.039 0a1.177 1.177 0 1 1 0 2.355 1.177 1.177 0 0 1 0-2.355m7.04 0a1.177 1.177 0 1 1 0 2.355 1.177 1.177 0 0 1 0-2.355m7.039 0a1.177 1.177 0 1 1 0 2.354 1.177 1.177 0 0 1 0-2.354m7.04 0a1.177 1.177 0 1 1 0 2.355 1.177 1.177 0 0 1 0-2.355m7.039 0a1.177 1.177 0 1 1-.449.09c.143-.06.296-.09.451-.09zm7.038 0a1.175 1.175 0 0 1 1.177 1.178 1.176 1.176 0 1 1-1.177-1.178m7.04 0a1.177 1.177 0 1 1 0 2.355 1.177 1.177 0 0 1 0-2.355m7.039 0a1.177 1.177 0 1 1 0 2.354 1.177 1.177 0 0 1 0-2.354M-7.754 80.056a1.178 1.178 0 1 1 0 2.355 1.178 1.178 0 0 1 0-2.355m7.039 0a1.178 1.178 0 1 1 0 2.355 1.178 1.178 0 0 1 0-2.355m7.04 0a1.178 1.178 0 1 1 0 2.355 1.178 1.178 0 0 1 0-2.355m7.038 0a1.178 1.178 0 1 1 0 2.355 1.178 1.178 0 0 1 0-2.355m7.041 0a1.178 1.178 0 1 1 0 2.356 1.178 1.178 0 0 1 0-2.356m7.038 0a1.178 1.178 0 1 1 0 2.355 1.178 1.178 0 0 1 0-2.355m7.04 0a1.178 1.178 0 1 1 0 2.355 1.178 1.178 0 0 1 0-2.355m7.04 0a1.178 1.178 0 1 1-.001 2.355 1.178 1.178 0 0 1 0-2.355Zm7.037 0a1.178 1.178 0 1 1-.444.087c.144-.059.298-.088.454-.087zm7.041 0a1.178 1.178 0 1 1 0 2.355 1.178 1.178 0 0 1 0-2.355m7.038 0a1.178 1.178 0 1 1 0 2.355 1.178 1.178 0 0 1 0-2.355m7.04 0a1.178 1.178 0 1 1 0 2.355 1.178 1.178 0 0 1 0-2.355m7.04 0a1.178 1.178 0 1 1-.001 2.355 1.178 1.178 0 0 1 0-2.355Zm7.037 0a1.178 1.178 0 1 1 0 2.355 1.178 1.178 0 0 1 0-2.355m7.04 0a1.178 1.178 0 1 1 0 2.355 1.178 1.178 0 0 1 0-2.355m7.04 0a1.178 1.178 0 1 1-.001 2.356 1.178 1.178 0 0 1 0-2.356Zm7.04 0a1.177 1.177 0 1 1 0 2.355 1.177 1.177 0 0 1 0-2.355m7.038 0a1.18 1.18 0 0 1 1.177 1.177 1.18 1.18 0 0 1-1.177 1.177 1.18 1.18 0 0 1-1.177-1.177 1.174 1.174 0 0 1 1.175-1.177zm7.041 0a1.177 1.177 0 1 1 0 2.355 1.177 1.177 0 0 1 0-2.355m7.038 0a1.176 1.176 0 0 1 .832 2.01 1.175 1.175 0 0 1-1.665 0 1.18 1.18 0 0 1 0-1.665 1.18 1.18 0 0 1 .833-.345m7.038 0a1.18 1.18 0 0 1 1.177 1.177 1.18 1.18 0 0 1-1.177 1.177 1.175 1.175 0 0 1-1.177-1.177 1.18 1.18 0 0 1 .345-.832 1.17 1.17 0 0 1 .832-.345m7.041 0a1.177 1.177 0 1 1 0 2.355 1.177 1.177 0 0 1 0-2.355m-151.574 3.838a1.178 1.178 0 1 1 0 2.355 1.178 1.178 0 0 1 0-2.355m7.04 0a1.178 1.178 0 1 1 .001 2.355 1.178 1.178 0 0 1 0-2.355Zm7.04 0a1.178 1.178 0 1 1 0 2.355 1.178 1.178 0 0 1 0-2.355m7.04 0a1.178 1.178 0 1 1 0 2.355 1.178 1.178 0 0 1 0-2.355m7.038 0a1.178 1.178 0 1 1 0 2.355 1.178 1.178 0 0 1 0-2.355m7.038 0a1.178 1.178 0 1 1 0 2.355 1.178 1.178 0 0 1 0-2.355m7.04 0a1.178 1.178 0 1 1 0 2.355 1.178 1.178 0 0 1 0-2.355m7.04 0a1.178 1.178 0 1 1 0 2.355 1.178 1.178 0 0 1 0-2.355m7.04 0a1.178 1.178 0 1 1-.012 0zm7.038 0a1.178 1.178 0 1 1 0 2.355 1.178 1.178 0 0 1 0-2.355m7.04 0a1.178 1.178 0 1 1 0 2.355 1.178 1.178 0 0 1 0-2.355m7.039 0a1.178 1.178 0 1 1 0 2.355 1.178 1.178 0 0 1 0-2.355m7.038 0a1.178 1.178 0 1 1 0 2.355 1.178 1.178 0 0 1 0-2.355m7.04 0a1.178 1.178 0 1 1 0 2.355 1.178 1.178 0 0 1 0-2.355m7.039 0a1.178 1.178 0 1 1 0 2.355 1.178 1.178 0 0 1 0-2.355m7.04 0a1.178 1.178 0 1 1 0 2.355 1.178 1.178 0 0 1 0-2.355m7.039 0a1.177 1.177 0 1 1 0 2.354 1.177 1.177 0 0 1 0-2.354m7.04 0a1.178 1.178 0 1 1 0 2.355 1.178 1.178 0 0 1 0-2.355m7.039 0a1.177 1.177 0 1 1-.449.088 1.2 1.2 0 0 1 .451-.088zm7.038 0a1.175 1.175 0 0 1 .832 2.01 1.175 1.175 0 0 1-1.665 0 1.176 1.176 0 0 1 .833-2.01m7.04 0a1.178 1.178 0 1 1 0 2.355 1.178 1.178 0 0 1 0-2.355m7.039 0a1.177 1.177 0 1 1 0 2.354 1.177 1.177 0 0 1 0-2.354M-7.754 87.755a1.177 1.177 0 1 1 0 2.354 1.177 1.177 0 0 1 0-2.354m7.039 0a1.177 1.177 0 1 1 0 2.354 1.177 1.177 0 0 1 0-2.354m7.04 0a1.177 1.177 0 1 1 0 2.354 1.177 1.177 0 0 1 0-2.354m7.038 0a1.177 1.177 0 1 1 0 2.354 1.177 1.177 0 0 1 0-2.354m7.041 0a1.177 1.177 0 1 1 0 2.355 1.177 1.177 0 0 1 0-2.355m7.038 0a1.177 1.177 0 1 1 0 2.354 1.177 1.177 0 0 1 0-2.354m7.04 0a1.177 1.177 0 1 1 0 2.354 1.177 1.177 0 0 1 0-2.354m7.04 0a1.177 1.177 0 1 1 0 2.354 1.177 1.177 0 0 1 0-2.354m7.037 0a1.177 1.177 0 1 1-.444.087c.144-.059.298-.089.454-.087zm7.041 0a1.177 1.177 0 1 1 0 2.354 1.177 1.177 0 0 1 0-2.354m7.038 0a1.177 1.177 0 1 1 0 2.354 1.177 1.177 0 0 1 0-2.354m7.04 0a1.177 1.177 0 1 1 .001 2.354 1.177 1.177 0 0 1 0-2.354Zm7.04 0a1.177 1.177 0 1 1 0 2.354 1.177 1.177 0 0 1 0-2.354m7.037 0a1.177 1.177 0 1 1 0 2.354 1.177 1.177 0 0 1 0-2.354m7.04 0a1.177 1.177 0 1 1 .001 2.354 1.177 1.177 0 0 1 0-2.354Zm7.04 0a1.177 1.177 0 1 1 0 2.355 1.177 1.177 0 0 1 0-2.355m7.04 0a1.177 1.177 0 1 1 0 2.354 1.177 1.177 0 0 1 0-2.354m7.038 0a1.18 1.18 0 0 1 1.177 1.177 1.18 1.18 0 0 1-1.177 1.177 1.18 1.18 0 0 1-1.177-1.177 1.174 1.174 0 0 1 1.175-1.177zm7.041 0a1.177 1.177 0 1 1 0 2.354 1.177 1.177 0 0 1 0-2.354m7.038 0a1.175 1.175 0 0 1 1.177 1.177 1.176 1.176 0 0 1-2.01.832 1.18 1.18 0 0 1 0-1.664 1.18 1.18 0 0 1 .833-.345m7.038 0a1.18 1.18 0 0 1 1.177 1.177 1.18 1.18 0 0 1-1.177 1.177 1.175 1.175 0 0 1-1.177-1.177 1.18 1.18 0 0 1 .727-1.088c.142-.059.295-.09.45-.09Zm7.041 0a1.177 1.177 0 1 1 0 2.354 1.177 1.177 0 0 1 0-2.354M-11.502 91.59a1.178 1.178 0 1 1 0 2.355 1.178 1.178 0 0 1 0-2.355m7.04 0a1.178 1.178 0 1 1 0 2.355 1.178 1.178 0 0 1 0-2.355m7.039 0a1.178 1.178 0 1 1 0 2.355 1.178 1.178 0 0 1 0-2.355m7.04 0a1.178 1.178 0 1 1 0 2.355 1.178 1.178 0 0 1 0-2.355m7.038 0a1.178 1.178 0 1 1 0 2.355 1.178 1.178 0 0 1 0-2.355m7.039 0a1.178 1.178 0 1 1 0 2.355 1.178 1.178 0 0 1 0-2.355m7.04 0a1.178 1.178 0 1 1 0 2.355 1.178 1.178 0 0 1 0-2.355m7.038 0a1.178 1.178 0 1 1 0 2.355 1.178 1.178 0 0 1 0-2.355m7.041 0a1.178 1.178 0 1 1-.012 0zm7.038 0a1.178 1.178 0 1 1 0 2.355 1.178 1.178 0 0 1 0-2.355m7.041 0a1.178 1.178 0 1 1 0 2.355 1.178 1.178 0 0 1 0-2.355m7.038 0a1.178 1.178 0 1 1 0 2.355 1.178 1.178 0 0 1 0-2.355m7.038 0a1.178 1.178 0 1 1 0 2.355 1.178 1.178 0 0 1 0-2.355m7.041 0a1.178 1.178 0 1 1 0 2.355 1.178 1.178 0 0 1 0-2.355m7.038 0a1.178 1.178 0 1 1 0 2.355 1.178 1.178 0 0 1 0-2.355m7.04 0a1.178 1.178 0 1 1 0 2.355 1.178 1.178 0 0 1 0-2.355m7.039 0a1.18 1.18 0 0 1 1.178 1.177 1.18 1.18 0 0 1-1.178 1.177 1.175 1.175 0 0 1-1.177-1.177 1.177 1.177 0 0 1 1.177-1.177m7.041 0a1.177 1.177 0 1 1 0 2.354 1.177 1.177 0 0 1 0-2.354m7.038 0a1.18 1.18 0 0 1 1.177 1.177 1.18 1.18 0 0 1-1.177 1.177 1.18 1.18 0 0 1-1.088-1.628 1.18 1.18 0 0 1 1.09-.726zm7.038 0a1.18 1.18 0 0 1 1.178 1.177 1.176 1.176 0 1 1-2.355 0 1.18 1.18 0 0 1 .345-.832 1.17 1.17 0 0 1 .832-.345m7.041 0a1.176 1.176 0 0 1 .832 2.01 1.175 1.175 0 0 1-1.665 0 1.18 1.18 0 0 1 0-1.665 1.18 1.18 0 0 1 .833-.345m7.038 0a1.18 1.18 0 0 1 1.177 1.177 1.18 1.18 0 0 1-1.177 1.177 1.175 1.175 0 0 1-1.177-1.177 1.18 1.18 0 0 1 .345-.832 1.17 1.17 0 0 1 .832-.345m7.041 0a1.177 1.177 0 1 1 0 2.354 1.177 1.177 0 0 1 0-2.354M-7.754 95.453a1.177 1.177 0 1 1 0 2.355 1.177 1.177 0 0 1 0-2.355m7.039 0a1.177 1.177 0 1 1 0 2.355 1.177 1.177 0 0 1 0-2.355m7.04 0a1.177 1.177 0 1 1 0 2.355 1.177 1.177 0 0 1 0-2.355m7.038 0a1.177 1.177 0 1 1 0 2.355 1.177 1.177 0 0 1 0-2.355m7.041 0a1.177 1.177 0 1 1 0 2.355 1.177 1.177 0 0 1 0-2.355m7.038 0a1.177 1.177 0 1 1 0 2.355 1.177 1.177 0 0 1 0-2.355m7.04 0a1.177 1.177 0 1 1 0 2.355 1.177 1.177 0 0 1 0-2.355m7.04 0a1.177 1.177 0 1 1 0 2.355 1.177 1.177 0 0 1 0-2.355m7.037 0a1.177 1.177 0 1 1-.444.087c.144-.058.298-.088.454-.087zm7.041 0a1.177 1.177 0 1 1 0 2.355 1.177 1.177 0 0 1 0-2.355m7.038 0a1.177 1.177 0 1 1 0 2.355 1.177 1.177 0 0 1 0-2.355m7.04 0a1.177 1.177 0 1 1 .001 2.355 1.177 1.177 0 0 1 0-2.355Zm7.04 0a1.177 1.177 0 1 1 0 2.355 1.177 1.177 0 0 1 0-2.355m7.037 0a1.177 1.177 0 1 1 0 2.355 1.177 1.177 0 0 1 0-2.355m7.04 0a1.177 1.177 0 1 1 .001 2.355 1.177 1.177 0 0 1 0-2.355Zm7.04 0a1.177 1.177 0 1 1 0 2.355 1.177 1.177 0 0 1 0-2.355m7.04 0a1.177 1.177 0 1 1 0 2.354 1.177 1.177 0 0 1 0-2.354m7.038 0a1.18 1.18 0 0 1 1.177 1.178 1.18 1.18 0 0 1-1.177 1.177 1.18 1.18 0 0 1-1.177-1.177 1.174 1.174 0 0 1 1.175-1.178zm7.041 0a1.177 1.177 0 1 1 0 2.354 1.177 1.177 0 0 1 0-2.354m7.038 0a1.175 1.175 0 0 1 1.177 1.178 1.176 1.176 0 1 1-1.177-1.178m7.038 0a1.18 1.18 0 0 1 1.177 1.178 1.18 1.18 0 0 1-1.177 1.177 1.176 1.176 0 0 1-.832-2.01 1.17 1.17 0 0 1 .832-.345m7.041 0a1.177 1.177 0 1 1 0 2.354 1.177 1.177 0 0 1 0-2.354M-11.502 99.29a1.177 1.177 0 1 1 0 2.356 1.177 1.177 0 0 1 0-2.355Zm7.04 0a1.177 1.177 0 1 1 0 2.355 1.177 1.177 0 0 1 0-2.354Zm7.039 0a1.177 1.177 0 1 1 0 2.355 1.177 1.177 0 0 1 0-2.354Zm7.04 0a1.177 1.177 0 1 1 0 2.355 1.177 1.177 0 0 1 0-2.354Zm7.038 0a1.177 1.177 0 1 1 0 2.355 1.177 1.177 0 0 1 0-2.354Zm7.039 0a1.177 1.177 0 1 1 0 2.356 1.177 1.177 0 0 1 0-2.355Zm7.04 0a1.177 1.177 0 1 1 0 2.356 1.177 1.177 0 0 1 0-2.355Zm7.038 0a1.177 1.177 0 1 1 0 2.355 1.177 1.177 0 0 1 0-2.354Zm7.041 0a1.177 1.177 0 1 1-.012 0zm7.038 0a1.177 1.177 0 1 1 0 2.356 1.177 1.177 0 0 1 0-2.355Zm7.041 0a1.177 1.177 0 1 1 0 2.356 1.177 1.177 0 0 1 0-2.355Zm7.038 0a1.177 1.177 0 1 1 0 2.356 1.177 1.177 0 0 1 0-2.355Zm7.038 0a1.177 1.177 0 1 1 0 2.356 1.177 1.177 0 0 1 0-2.355Zm7.041 0a1.177 1.177 0 1 1 0 2.356 1.177 1.177 0 0 1 0-2.355Zm7.038 0a1.177 1.177 0 1 1 0 2.356 1.177 1.177 0 0 1 0-2.355Zm7.04 0a1.177 1.177 0 1 1 0 2.356 1.177 1.177 0 0 1 0-2.355Zm7.039 0a1.18 1.18 0 0 1 1.178 1.178 1.179 1.179 0 0 1-2.355 0 1.177 1.177 0 0 1 1.177-1.177Zm7.041 0a1.177 1.177 0 1 1 0 2.355 1.177 1.177 0 0 1 0-2.354Zm7.038 0a1.18 1.18 0 0 1 1.177 1.178 1.178 1.178 0 1 1-1.175-1.177zm7.038 0a1.18 1.18 0 0 1 1.178 1.178 1.175 1.175 0 0 1-1.178 1.177 1.176 1.176 0 0 1 0-2.354Zm7.041 0a1.175 1.175 0 0 1 1.177 1.178 1.175 1.175 0 0 1-1.177 1.177 1.179 1.179 0 0 1-.833-2.01 1.18 1.18 0 0 1 .833-.344Zm7.038 0a1.18 1.18 0 0 1 1.177 1.178 1.178 1.178 0 1 1-1.177-1.177Zm7.041 0a1.177 1.177 0 1 1 0 2.355 1.177 1.177 0 0 1 0-2.354Zm-151.117 3.862a1.177 1.177 0 1 1 0 2.353 1.177 1.177 0 0 1 0-2.353m7.039 0a1.177 1.177 0 1 1 0 2.353 1.177 1.177 0 0 1 0-2.353m7.04 0a1.177 1.177 0 1 1 0 2.353 1.177 1.177 0 0 1 0-2.353m7.038 0a1.177 1.177 0 1 1 0 2.353 1.177 1.177 0 0 1 0-2.353m7.041 0a1.177 1.177 0 1 1 0 2.354 1.177 1.177 0 0 1 0-2.354m7.038 0a1.177 1.177 0 1 1 0 2.353 1.177 1.177 0 0 1 0-2.353m7.04 0a1.177 1.177 0 1 1 .001 2.353 1.177 1.177 0 0 1 0-2.353Zm7.04 0a1.177 1.177 0 1 1 0 2.353 1.177 1.177 0 0 1 0-2.353m7.037 0a1.177 1.177 0 1 1-.444.087c.144-.058.298-.088.454-.087zm7.041 0a1.177 1.177 0 1 1 0 2.353 1.177 1.177 0 0 1 0-2.353m7.038 0a1.177 1.177 0 1 1 0 2.353 1.177 1.177 0 0 1 0-2.353m7.04 0a1.177 1.177 0 1 1 .001 2.353 1.177 1.177 0 0 1 0-2.353Zm7.04 0a1.177 1.177 0 1 1 0 2.353 1.177 1.177 0 0 1 0-2.353m7.037 0a1.177 1.177 0 1 1 0 2.353 1.177 1.177 0 0 1 0-2.353m7.04 0a1.177 1.177 0 1 1 .001 2.353 1.177 1.177 0 0 1 0-2.353Zm7.04 0a1.177 1.177 0 1 1 0 2.354 1.177 1.177 0 0 1 0-2.354m7.04 0a1.176 1.176 0 1 1 0 2.353 1.176 1.176 0 0 1 0-2.353m7.038 0a1.179 1.179 0 1 1-.002 0zm7.041 0a1.176 1.176 0 1 1 0 2.353 1.176 1.176 0 0 1 0-2.353m7.038 0a1.175 1.175 0 0 1 1.177 1.178 1.176 1.176 0 1 1-1.177-1.178m7.038 0a1.179 1.179 0 1 1 0 2.357 1.179 1.179 0 0 1 0-2.357m7.041 0a1.176 1.176 0 1 1 0 2.353 1.176 1.176 0 0 1 0-2.353m-151.573 3.838a1.177 1.177 0 1 1 0 2.354 1.177 1.177 0 0 1 0-2.354m7.04 0a1.177 1.177 0 1 1 0 2.353 1.177 1.177 0 0 1 0-2.353m7.039 0a1.177 1.177 0 1 1 0 2.353 1.177 1.177 0 0 1 0-2.353m7.04 0a1.177 1.177 0 1 1 0 2.353 1.177 1.177 0 0 1 0-2.353m7.038 0a1.177 1.177 0 1 1 0 2.353 1.177 1.177 0 0 1 0-2.353m7.039 0a1.177 1.177 0 1 1 0 2.354 1.177 1.177 0 0 1 0-2.354m7.04 0a1.177 1.177 0 1 1 0 2.353 1.177 1.177 0 0 1 0-2.353m7.038 0a1.177 1.177 0 1 1 0 2.353 1.177 1.177 0 0 1 0-2.353m7.041 0a1.177 1.177 0 1 1-.012 0zm7.038 0a1.177 1.177 0 1 1 0 2.353 1.177 1.177 0 0 1 0-2.353m7.041 0a1.177 1.177 0 1 1 0 2.353 1.177 1.177 0 0 1 0-2.353m7.038 0a1.177 1.177 0 1 1 0 2.353 1.177 1.177 0 0 1 0-2.353m7.038 0a1.177 1.177 0 1 1 0 2.354 1.177 1.177 0 0 1 0-2.354m7.041 0a1.177 1.177 0 1 1 0 2.353 1.177 1.177 0 0 1 0-2.353m7.038 0a1.177 1.177 0 1 1 0 2.353 1.177 1.177 0 0 1 0-2.353m7.04 0a1.177 1.177 0 1 1 .001 2.353 1.177 1.177 0 0 1 0-2.353Zm7.039 0a1.179 1.179 0 0 1 .833 2.009 1.179 1.179 0 0 1-2.01-.832 1.175 1.175 0 0 1 1.177-1.177m7.041 0a1.176 1.176 0 1 1 0 2.353 1.176 1.176 0 0 1 0-2.353m7.038 0a1.179 1.179 0 0 1 .833 2.009 1.179 1.179 0 0 1-1.665-1.665 1.17 1.17 0 0 1 .834-.344zm7.038 0a1.179 1.179 0 0 1 .833 2.009 1.179 1.179 0 0 1-1.921-1.283 1.18 1.18 0 0 1 1.088-.726m7.041 0a1.175 1.175 0 0 1 1.177 1.177 1.175 1.175 0 0 1-1.177 1.177 1.179 1.179 0 0 1-.451-2.265c.143-.059.296-.089.451-.089m7.038 0a1.179 1.179 0 0 1 .833 2.009 1.179 1.179 0 0 1-1.921-1.283 1.18 1.18 0 0 1 1.088-.726m7.041 0a1.176 1.176 0 1 1 0 2.353 1.176 1.176 0 0 1 0-2.353m-151.116 3.851a1.177 1.177 0 1 1 0 2.353 1.177 1.177 0 0 1 0-2.353m7.038 0a1.177 1.177 0 1 1 0 2.353 1.177 1.177 0 0 1 0-2.353m7.04 0a1.177 1.177 0 1 1 0 2.353 1.177 1.177 0 0 1 0-2.353m7.039 0a1.177 1.177 0 1 1 0 2.354 1.177 1.177 0 0 1 0-2.354m7.04 0a1.177 1.177 0 1 1 0 2.354 1.177 1.177 0 0 1 0-2.354m7.039 0a1.177 1.177 0 1 1 0 2.353 1.177 1.177 0 0 1 0-2.353m7.04 0a1.177 1.177 0 1 1 0 2.353 1.177 1.177 0 0 1 0-2.353m7.039 0a1.177 1.177 0 1 1 0 2.353 1.177 1.177 0 0 1 0-2.353m7.047 0a1.177 1.177 0 1 1 0 2.353 1.177 1.177 0 0 1 0-2.353m7.04 0a1.177 1.177 0 1 1-.009 0zm7.039 0a1.177 1.177 0 1 1-.01 0zm7.04 0a1.177 1.177 0 1 1-.009 0zm7.039 0a1.177 1.177 0 1 1-.01 0zm7.038 0a1.177 1.177 0 1 1-.01 0zm7.04 0a1.177 1.177 0 1 1-.009 0zm7.039 0a1.177 1.177 0 1 1-.01 0zm7.041 0a1.176 1.176 0 1 1-.01 0zm7.026 0a1.179 1.179 0 1 1 0 2.357 1.179 1.179 0 0 1 0-2.357m7.041 0a1.176 1.176 0 1 1-.449.089c.143-.059.296-.089.451-.089zm7.038 0a1.175 1.175 0 0 1 1.177 1.177 1.177 1.177 0 1 1-1.175-1.177zm7.038 0a1.179 1.179 0 1 1-.449.089c.143-.059.297-.089.451-.089zm7.041 0a1.176 1.176 0 1 1-.449.089q.217-.089.451-.089zm-151.572 3.847a1.177 1.177 0 1 1 0 2.354 1.177 1.177 0 0 1 0-2.354m7.04 0a1.177 1.177 0 1 1 .001 2.353 1.177 1.177 0 0 1 0-2.353Zm7.04 0a1.177 1.177 0 1 1 0 2.353 1.177 1.177 0 0 1 0-2.353m7.04 0a1.177 1.177 0 1 1 0 2.353 1.177 1.177 0 0 1 0-2.353m7.038 0a1.177 1.177 0 1 1 0 2.353 1.177 1.177 0 0 1 0-2.353m7.038 0a1.18 1.18 0 0 1 1.178 1.178 1.177 1.177 0 1 1-1.178-1.178m7.04 0a1.18 1.18 0 0 1 1.178 1.178 1.177 1.177 0 1 1-1.177-1.178Zm7.04 0a1.18 1.18 0 0 1 1.176 1.178 1.177 1.177 0 1 1-1.177-1.178Zm7.04 0a1.18 1.18 0 0 1 1.177 1.178 1.177 1.177 0 1 1-1.19-1.178zm7.038 0a1.18 1.18 0 0 1 1.177 1.178 1.177 1.177 0 1 1-1.177-1.178m7.04 0a1.18 1.18 0 0 1 1.178 1.178 1.177 1.177 0 1 1-1.177-1.178Zm7.039 0a1.18 1.18 0 0 1 1.177 1.178 1.177 1.177 0 1 1-1.177-1.178m7.038 0a1.18 1.18 0 0 1 1.177 1.178 1.177 1.177 0 1 1-1.177-1.178m7.04 0a1.18 1.18 0 0 1 1.178 1.178 1.177 1.177 0 1 1-1.177-1.178Zm7.039 0a1.18 1.18 0 0 1 1.177 1.178 1.177 1.177 0 1 1-1.177-1.178m7.04 0a1.18 1.18 0 0 1 1.178 1.178 1.177 1.177 0 1 1-1.177-1.178Zm7.039 0a1.18 1.18 0 0 1 1.177 1.178 1.176 1.176 0 1 1-1.177-1.178m7.04 0a1.18 1.18 0 0 1 1.178 1.178 1.176 1.176 0 0 1-2.355 0 1.17 1.17 0 0 1 .727-1.088c.143-.059.296-.09.45-.09m7.039 0a1.18 1.18 0 0 1 1.177 1.178 1.176 1.176 0 1 1-1.175-1.178zm7.038 0a1.179 1.179 0 0 1 0 2.355 1.179 1.179 0 0 1 0-2.355m7.04 0a1.18 1.18 0 0 1 1.178 1.178 1.176 1.176 0 1 1-1.178-1.178m7.039 0a1.18 1.18 0 0 1 1.177 1.178 1.176 1.176 0 1 1-1.177-1.178M-7.754 118.55a1.18 1.18 0 0 1 1.178 1.177 1.177 1.177 0 1 1-1.178-1.177m7.039 0a1.18 1.18 0 0 1 1.177 1.177 1.177 1.177 0 1 1-1.177-1.177m7.04 0a1.18 1.18 0 0 1 1.178 1.177 1.177 1.177 0 1 1-1.178-1.177m7.038 0a1.18 1.18 0 0 1 1.178 1.177 1.177 1.177 0 1 1-1.178-1.177m7.041 0a1.18 1.18 0 0 1 1.177 1.177 1.177 1.177 0 1 1-1.177-1.177m7.038 0a1.18 1.18 0 0 1 1.178 1.177 1.177 1.177 0 1 1-1.178-1.177m7.04 0a1.18 1.18 0 0 1 1.178 1.177 1.177 1.177 0 1 1-1.177-1.177Zm7.04 0a1.18 1.18 0 0 1 1.177 1.177 1.177 1.177 0 1 1-1.178-1.177Zm7.037 0a1.18 1.18 0 0 1 1.178 1.177 1.177 1.177 0 1 1-1.168-1.177zm7.041 0a1.18 1.18 0 0 1 1.177 1.177 1.177 1.177 0 1 1-1.177-1.177m7.038 0a1.18 1.18 0 0 1 1.178 1.177 1.177 1.177 0 1 1-1.178-1.177m7.04 0a1.18 1.18 0 0 1 1.178 1.177 1.177 1.177 0 1 1-1.177-1.177Zm7.04 0a1.18 1.18 0 0 1 1.176 1.177 1.177 1.177 0 1 1-1.177-1.177Zm7.037 0a1.18 1.18 0 0 1 1.178 1.177 1.177 1.177 0 1 1-1.178-1.177m7.04 0a1.18 1.18 0 0 1 1.178 1.177 1.177 1.177 0 1 1-1.177-1.177Zm7.04 0a1.18 1.18 0 0 1 1.177 1.177 1.177 1.177 0 1 1-1.178-1.177Zm7.04 0a1.18 1.18 0 0 1 1.177 1.177 1.176 1.176 0 1 1-1.177-1.177m7.038 0c.312 0 .612.124.833.344a1.18 1.18 0 0 1 0 1.665 1.179 1.179 0 0 1-1.666-1.664c.22-.22.519-.345.831-.345zm7.041 0a1.18 1.18 0 0 1 1.177 1.177 1.176 1.176 0 1 1-1.177-1.177m7.038 0a1.178 1.178 0 1 1 0 2.356 1.178 1.178 0 0 1 0-2.356m7.038 0c.312 0 .612.124.833.344a1.18 1.18 0 0 1 0 1.665 1.179 1.179 0 0 1-1.665-1.665 1.17 1.17 0 0 1 .832-.344m7.041 0a1.18 1.18 0 0 1 1.177 1.177 1.176 1.176 0 1 1-1.177-1.177m-151.573 3.828a1.177 1.177 0 1 1 0 2.353 1.177 1.177 0 0 1 0-2.353m7.04 0a1.177 1.177 0 1 1 .001 2.353 1.177 1.177 0 0 1 0-2.353Zm7.04 0a1.177 1.177 0 1 1 0 2.353 1.177 1.177 0 0 1 0-2.353m7.04 0a1.177 1.177 0 1 1 0 2.353 1.177 1.177 0 0 1 0-2.353m7.038 0a1.177 1.177 0 1 1 0 2.353 1.177 1.177 0 0 1 0-2.353m7.038 0a1.177 1.177 0 1 1 0 2.353 1.177 1.177 0 0 1 0-2.353m7.04 0a1.177 1.177 0 1 1 .001 2.353 1.177 1.177 0 0 1 0-2.353Zm7.04 0a1.177 1.177 0 1 1 0 2.353 1.177 1.177 0 0 1 0-2.353m7.04 0a1.177 1.177 0 1 1-.012 0zm7.038 0a1.177 1.177 0 1 1 0 2.354 1.177 1.177 0 0 1 0-2.354m7.04 0a1.177 1.177 0 1 1 0 2.354 1.177 1.177 0 0 1 0-2.354m7.039 0a1.177 1.177 0 1 1 0 2.353 1.177 1.177 0 0 1 0-2.353m7.038 0a1.177 1.177 0 1 1 0 2.353 1.177 1.177 0 0 1 0-2.353m7.04 0a1.176 1.176 0 1 1 .001 2.353 1.176 1.176 0 0 1 0-2.353Zm7.039 0a1.177 1.177 0 1 1 0 2.353 1.177 1.177 0 0 1 0-2.353m7.04 0a1.177 1.177 0 1 1 0 2.353 1.177 1.177 0 0 1 0-2.353m7.039 0a1.176 1.176 0 1 1 0 2.353 1.176 1.176 0 0 1 0-2.353m7.04 0a1.177 1.177 0 1 1 .001 2.354 1.177 1.177 0 0 1-.001-2.354m7.041 0a1.175 1.175 0 0 1 1.177 1.177 1.175 1.175 0 0 1-1.177 1.177 1.179 1.179 0 0 1-.833-2.009c.221-.221.521-.345.833-.345m7.038 0a1.179 1.179 0 0 1 .833 2.009 1.179 1.179 0 0 1-2.01-.832 1.175 1.175 0 0 1 1.175-1.177zm7.041 0a1.176 1.176 0 1 1-.003 0zm7.038 0a1.179 1.179 0 0 1 .833 2.009 1.179 1.179 0 0 1-2.01-.832 1.177 1.177 0 0 1 1.175-1.177zm7.041 0a1.176 1.176 0 1 1-.003 0zm-151.119 3.871a1.18 1.18 0 0 1 1.178 1.177 1.177 1.177 0 1 1-1.178-1.177m7.038 0a1.18 1.18 0 0 1 1.178 1.177 1.177 1.177 0 1 1-1.178-1.177m7.041 0a1.18 1.18 0 0 1 1.177 1.177 1.177 1.177 0 1 1-1.177-1.177m7.038 0a1.18 1.18 0 0 1 1.178 1.177 1.177 1.177 0 1 1-1.178-1.177m7.04 0a1.18 1.18 0 0 1 1.178 1.177 1.177 1.177 0 1 1-1.177-1.177Zm7.04 0a1.18 1.18 0 0 1 1.176 1.177 1.177 1.177 0 1 1-1.177-1.177Zm7.04 0a1.18 1.18 0 0 1 1.177 1.177 1.177 1.177 0 1 1-1.177-1.177m7.038 0a1.18 1.18 0 0 1 1.177 1.177 1.177 1.177 0 1 1-1.177-1.177m7.038 0a1.18 1.18 0 0 1 1.177 1.177 1.177 1.177 0 1 1-1.167-1.177zm7.04 0a1.18 1.18 0 0 1 1.178 1.177 1.177 1.177 0 1 1-1.177-1.177Zm7.039 0a1.18 1.18 0 0 1 1.177 1.177 1.177 1.177 0 1 1-1.177-1.177m7.04 0a1.18 1.18 0 0 1 1.178 1.177 1.177 1.177 0 1 1-1.177-1.177Zm7.039 0a1.18 1.18 0 0 1 1.177 1.177 1.177 1.177 0 1 1-1.177-1.177m7.038 0a1.18 1.18 0 0 1 1.177 1.177 1.177 1.177 0 1 1-1.177-1.177m7.04 0a1.18 1.18 0 0 1 1.178 1.177 1.177 1.177 0 1 1-1.177-1.177Zm7.039 0a1.18 1.18 0 0 1 1.177 1.177 1.177 1.177 0 1 1-1.177-1.177m7.041 0a1.18 1.18 0 0 1 1.177 1.177 1.176 1.176 0 1 1-1.177-1.177m7.038 0a1.178 1.178 0 1 1-.003 0zm7.04 0a1.18 1.18 0 0 1 1.178 1.177 1.176 1.176 0 0 1-2.355 0 1.19 1.19 0 0 1 .727-1.088 1.2 1.2 0 0 1 .45-.089m7.039 0a1.18 1.18 0 0 1 1.177 1.177 1.176 1.176 0 1 1-1.177-1.177m7.038 0a1.178 1.178 0 1 1 0 2.356 1.178 1.178 0 0 1 0-2.356m7.04 0a1.18 1.18 0 0 1 1.178 1.177 1.176 1.176 0 1 1-1.178-1.177m7.039 0a1.18 1.18 0 0 1 1.177 1.177 1.176 1.176 0 1 1-1.177-1.177m-158.612 3.837a1.177 1.177 0 1 1 0 2.353 1.177 1.177 0 0 1 0-2.353m7.04 0a1.177 1.177 0 1 1 0 2.353 1.177 1.177 0 0 1 0-2.353m7.038 0a1.177 1.177 0 1 1 0 2.353 1.177 1.177 0 0 1 0-2.353m7.041 0a1.177 1.177 0 1 1 0 2.353 1.177 1.177 0 0 1 0-2.353m7.038 0a1.177 1.177 0 1 1 0 2.354 1.177 1.177 0 0 1 0-2.354m7.038 0a1.177 1.177 0 1 1 0 2.353 1.177 1.177 0 0 1 0-2.353m7.041 0a1.177 1.177 0 1 1 0 2.353 1.177 1.177 0 0 1 0-2.353m7.038 0a1.177 1.177 0 1 1 0 2.353 1.177 1.177 0 0 1 0-2.353m7.041 0a1.177 1.177 0 1 1-.012 0zm7.038 0a1.177 1.177 0 1 1 0 2.353 1.177 1.177 0 0 1 0-2.353m7.04 0a1.177 1.177 0 1 1 .001 2.353 1.177 1.177 0 0 1 0-2.353Zm7.039 0a1.177 1.177 0 1 1 0 2.354 1.177 1.177 0 0 1 0-2.354m7.038 0a1.177 1.177 0 1 1 0 2.353 1.177 1.177 0 0 1 0-2.353m7.04 0a1.177 1.177 0 1 1 .001 2.353 1.177 1.177 0 0 1 0-2.353Zm7.04 0a1.177 1.177 0 1 1 0 2.354 1.177 1.177 0 0 1 0-2.354m7.04 0a1.177 1.177 0 1 1 0 2.354 1.177 1.177 0 0 1 0-2.354m7.038 0a1.179 1.179 0 0 1 .833 2.01 1.18 1.18 0 0 1-1.666 0 1.18 1.18 0 0 1 0-1.665c.221-.221.521-.345.833-.345m7.041 0a1.176 1.176 0 1 1 0 2.353 1.176 1.176 0 0 1 0-2.353m7.038 0a1.175 1.175 0 0 1 1.177 1.177 1.179 1.179 0 1 1-2.265-.451 1.2 1.2 0 0 1 .639-.637q.216-.089.451-.089zm7.038 0a1.179 1.179 0 0 1 .833 2.01 1.18 1.18 0 0 1-1.665 0 1.179 1.179 0 0 1 .832-2.01m7.041 0a1.176 1.176 0 1 1 0 2.353 1.176 1.176 0 0 1 0-2.353m7.038 0a1.175 1.175 0 0 1 1.177 1.177 1.179 1.179 0 0 1-2.01.833 1.18 1.18 0 0 1 0-1.665 1.18 1.18 0 0 1 .833-.345m7.041 0a1.176 1.176 0 1 1 0 2.353 1.176 1.176 0 0 1 0-2.353m7.038 0a1.176 1.176 0 1 1 0 2.353 1.176 1.176 0 0 1 0-2.353m-158.155 3.861a1.177 1.177 0 1 1 0 2.353 1.177 1.177 0 0 1 0-2.353m7.038 0a1.177 1.177 0 1 1 0 2.353 1.177 1.177 0 0 1 0-2.353m7.04 0a1.177 1.177 0 1 1 .001 2.353 1.177 1.177 0 0 1 0-2.353Zm7.04 0a1.177 1.177 0 1 1 0 2.353 1.177 1.177 0 0 1 0-2.353m7.04 0a1.177 1.177 0 1 1 0 2.353 1.177 1.177 0 0 1 0-2.353m7.038 0a1.177 1.177 0 1 1 0 2.353 1.177 1.177 0 0 1 0-2.353m7.04 0a1.177 1.177 0 1 1 0 2.354 1.177 1.177 0 0 1 0-2.354m7.039 0a1.177 1.177 0 1 1 0 2.353 1.177 1.177 0 0 1 0-2.353m7.038 0a1.177 1.177 0 1 1-.444.087c.144-.058.298-.088.453-.087zm7.04 0a1.177 1.177 0 1 1 0 2.353 1.177 1.177 0 0 1 0-2.353m7.039 0a1.177 1.177 0 1 1 0 2.353 1.177 1.177 0 0 1 0-2.353m7.04 0a1.177 1.177 0 1 1 0 2.353 1.177 1.177 0 0 1 0-2.353m7.039 0a1.177 1.177 0 1 1 0 2.354 1.177 1.177 0 0 1 0-2.354m7.038 0a1.177 1.177 0 1 1 0 2.353 1.177 1.177 0 0 1 0-2.353m7.04 0a1.177 1.177 0 1 1 0 2.353 1.177 1.177 0 0 1 0-2.353m7.039 0a1.177 1.177 0 1 1 0 2.354 1.177 1.177 0 0 1 0-2.354m7.04 0a1.177 1.177 0 1 1 .001 2.354 1.177 1.177 0 0 1-.001-2.354m7.039 0a1.176 1.176 0 1 1-.003 0zm7.04 0a1.177 1.177 0 1 1 .001 2.354 1.177 1.177 0 0 1-.001-2.354m7.039 0a1.176 1.176 0 1 1 0 2.353 1.176 1.176 0 0 1 0-2.353m7.038 0a1.176 1.176 0 1 1 0 2.353 1.176 1.176 0 0 1 0-2.353m7.04 0a1.177 1.177 0 1 1 .001 2.354 1.177 1.177 0 0 1-.001-2.354m7.039 0a1.176 1.176 0 1 1 0 2.353 1.176 1.176 0 0 1 0-2.353m7.038 0a1.175 1.175 0 0 1 1.177 1.177 1.177 1.177 0 1 1-1.177-1.177m-165.649 3.838a1.18 1.18 0 0 1 1.177 1.177 1.177 1.177 0 1 1-1.177-1.177m7.04 0a1.18 1.18 0 0 1 1.178 1.177 1.177 1.177 0 1 1-1.178-1.177m7.038 0a1.18 1.18 0 0 1 1.178 1.177 1.177 1.177 0 1 1-1.178-1.177m7.041 0a1.18 1.18 0 0 1 1.177 1.177 1.177 1.177 0 1 1-1.177-1.177m7.038 0a1.18 1.18 0 0 1 1.178 1.177 1.177 1.177 0 1 1-1.178-1.177m7.038 0a1.18 1.18 0 0 1 1.178 1.177 1.177 1.177 0 1 1-1.177-1.177Zm7.041 0a1.18 1.18 0 0 1 1.177 1.177 1.177 1.177 0 1 1-1.177-1.177m7.038 0a1.18 1.18 0 0 1 1.178 1.177 1.177 1.177 0 1 1-1.178-1.177m7.041 0a1.18 1.18 0 0 1 1.177 1.177 1.177 1.177 0 1 1-1.189-1.177zm7.038 0a1.18 1.18 0 0 1 1.178 1.177 1.177 1.177 0 1 1-1.178-1.177m7.04 0a1.18 1.18 0 0 1 1.178 1.177 1.177 1.177 0 1 1-1.177-1.177Zm7.039 0a1.18 1.18 0 0 1 1.177 1.177 1.177 1.177 0 1 1-1.177-1.177m7.038 0a1.18 1.18 0 0 1 1.178 1.177 1.177 1.177 0 1 1-1.178-1.177m7.04 0a1.18 1.18 0 0 1 1.178 1.177 1.177 1.177 0 1 1-1.177-1.177Zm7.04 0a1.18 1.18 0 0 1 1.177 1.177 1.177 1.177 0 1 1-1.178-1.177Zm7.04 0a1.18 1.18 0 0 1 1.177 1.177 1.177 1.177 0 1 1-1.177-1.177m7.038 0c.312 0 .612.124.833.344a1.18 1.18 0 0 1 0 1.665 1.179 1.179 0 0 1-1.666-1.665c.221-.22.521-.344.833-.344m7.041 0a1.18 1.18 0 0 1 1.177 1.177 1.176 1.176 0 1 1-1.177-1.177m7.038 0a1.178 1.178 0 1 1-.449.089q.216-.09.451-.089zm7.038 0c.312 0 .612.124.833.344a1.18 1.18 0 0 1 0 1.665 1.179 1.179 0 0 1-1.665-1.665 1.17 1.17 0 0 1 .832-.344m7.041 0a1.18 1.18 0 0 1 1.177 1.177 1.176 1.176 0 1 1-1.177-1.177m7.038 0a1.178 1.178 0 1 1 0 2.356 1.178 1.178 0 0 1 0-2.356m7.041 0a1.18 1.18 0 0 1 1.177 1.177 1.176 1.176 0 1 1-1.177-1.177m7.038 0a1.18 1.18 0 0 1 1.177 1.177 1.176 1.176 0 1 1-1.177-1.177m-158.154 3.861a1.177 1.177 0 1 1 0 2.353 1.177 1.177 0 0 1 0-2.353m7.038 0a1.177 1.177 0 1 1 0 2.353 1.177 1.177 0 0 1 0-2.353m7.041 0a1.177 1.177 0 1 1 0 2.353 1.177 1.177 0 0 1 0-2.353m7.038 0a1.176 1.176 0 1 1 0 2.353 1.176 1.176 0 0 1 0-2.353m7.04 0a1.177 1.177 0 1 1 .001 2.354 1.177 1.177 0 0 1 0-2.354Zm7.04 0a1.177 1.177 0 1 1 0 2.353 1.177 1.177 0 0 1 0-2.353m7.04 0a1.177 1.177 0 1 1 0 2.353 1.177 1.177 0 0 1 0-2.353m7.038 0a1.177 1.177 0 1 1 0 2.353 1.177 1.177 0 0 1 0-2.353m7.038 0a1.177 1.177 0 1 1-.444.087c.144-.059.298-.088.454-.087zm7.04 0a1.177 1.177 0 1 1 .001 2.353 1.177 1.177 0 0 1 0-2.353Zm7.039 0a1.176 1.176 0 1 1 0 2.353 1.176 1.176 0 0 1 0-2.353m7.04 0a1.177 1.177 0 1 1 0 2.354 1.177 1.177 0 0 1 0-2.354m7.039 0a1.177 1.177 0 1 1 0 2.353 1.177 1.177 0 0 1 0-2.353m7.038 0a1.177 1.177 0 1 1 0 2.353 1.177 1.177 0 0 1 0-2.353m7.04 0a1.177 1.177 0 1 1 .001 2.353 1.177 1.177 0 0 1 0-2.353Zm7.039 0a1.177 1.177 0 1 1 0 2.353 1.177 1.177 0 0 1 0-2.353m7.041 0a1.176 1.176 0 1 1 0 2.353 1.176 1.176 0 0 1 0-2.353m7.038 0a1.175 1.175 0 0 1 1.177 1.177 1.175 1.175 0 0 1-1.177 1.177 1.179 1.179 0 0 1-.834-2.009c.221-.22.52-.345.831-.345zm7.04 0a1.177 1.177 0 1 1 .001 2.354 1.177 1.177 0 0 1-.001-2.354m7.039 0a1.176 1.176 0 1 1 0 2.353 1.176 1.176 0 0 1 0-2.353m7.038 0a1.175 1.175 0 0 1 1.177 1.177 1.175 1.175 0 0 1-1.177 1.177 1.179 1.179 0 0 1-.833-2.009 1.18 1.18 0 0 1 .833-.345m7.04 0a1.177 1.177 0 1 1 .001 2.354 1.177 1.177 0 0 1-.001-2.354m7.039 0a1.176 1.176 0 1 1 0 2.353 1.176 1.176 0 0 1 0-2.353"/></g><path fill="#000" d="M117.217 59.034a7.12 7.12 0 0 1-4.705-1.66l.465-.51c2.092 1.86 5.734 1.96 8.468.21a12.6 12.6 0 0 0 4.539-5.645 6.64 6.64 0 0 1-2.9-1.44 4.54 4.54 0 0 1-1.472-4.572 3.5 3.5 0 0 1 1.782-2.059 2.9 2.9 0 0 1 2.325-.188 3.64 3.64 0 0 1 2.214 3.022 8.2 8.2 0 0 1-.554 3.632c-.122.376-.254.73-.398 1.107q.346.06.697.077a10.902 10.902 0 0 0 11.336-13.473l.675-.166a11.6 11.6 0 0 1-2.394 10.22 11.6 11.6 0 0 1-9.661 4.105 7 7 0 0 1-.93-.1 13.3 13.3 0 0 1-4.849 6.09 8.6 8.6 0 0 1-4.638 1.35m7.583-15.332a2.34 2.34 0 0 0-1.107.276 2.77 2.77 0 0 0-1.428 1.638 3.82 3.82 0 0 0 1.273 3.853 6.1 6.1 0 0 0 2.701 1.318c.155-.388.31-.775.443-1.185a7.6 7.6 0 0 0 .52-3.321 2.92 2.92 0 0 0-1.738-2.458 2 2 0 0 0-.664-.121m-6.452 83.37-90.877-21.499-.155-.598 59.78-53.735.554.122 31.107 75.278zm-90.08-22.019 89.581 21.188-30.664-74.17z"/><path fill="#A1E3D6" d="M45.138 51.562a4.163 4.163 0 1 1-4.162-4.151 4.15 4.15 0 0 1 4.162 4.151"/><path fill="#93C3E6" d="M62.684 105.153a30.996 30.996 0 1 1-30.997-30.997 30.91 30.91 0 0 1 30.997 30.997"/><path fill="#424D99" d="M22.432 76.747c-.399 3.32-2.214 6.221-4.196 8.856a65 65 0 0 0-5.823 8.026c-1.572 2.911-2.413 6.421-1.34 9.554a8.526 8.526 0 0 0 14.137 3.199c2.546 3.055 5.724 6.111 9.62 6.919a14.2 14.2 0 0 0 11.325-2.38 11.79 11.79 0 0 0 4.661-10.417c-.531-4.672-3.996-8.37-6.963-12.023s-5.712-8.258-4.428-12.797"/><path fill="#F8C49E" d="M38.543 110.123h-15.31l3.088-19.705h10.594l.188 2.314.587 7.13z"/><path fill="#000" d="M37.687 99.872a12.08 12.08 0 0 1-10.185-5.535c3.089-.476 6.155-1.107 9.255-1.56l.343-.056z"/><path fill="#F8C49E" d="M45.115 86.2a11.94 11.94 0 0 1-6.089 8.912 12.23 12.23 0 0 1-10.805.277 12.48 12.48 0 0 1-6.741-8.48 3.5 3.5 0 0 1-3.941 1.716 4.94 4.94 0 0 1-3.61-3.066 5.07 5.07 0 0 1-.055-3.676 4.25 4.25 0 0 1 2.635-2.502 3.84 3.84 0 0 1 3.454.465l.133.111a13.97 13.97 0 0 1 2.712-9 12.18 12.18 0 0 1 8.037-4.76c.366 0 .742-.067 1.107-.078h.299c2.753-.003 5.4 1.06 7.384 2.967a12 12 0 0 1 2.015 2.701 27.7 27.7 0 0 1 2.214 5.69 21.6 21.6 0 0 1 1.25 8.724Z"/><path fill="#000" d="M18.878 85.337a2.03 2.03 0 0 0-1.99-.958 2 2 0 0 0-.733.25l-.344-.61a2.76 2.76 0 0 1 2.026-.265c.307.087.599.221.864.398l-.299-2.214.686-.088.432 3.32zm17.125.742a1.2 1.2 0 0 1-.343-.056l.222-.653a.5.5 0 0 0 .365 0 .5.5 0 0 0 .21-.221 1.7 1.7 0 0 0-.055-.731l-.974-4.55.675-.144.974 4.55c.098.338.117.694.056 1.04a1.1 1.1 0 0 1-.554.654 1.2 1.2 0 0 1-.576.11Zm-1.59 2.391a2.58 2.58 0 0 1-2.568-2.425h.686a1.94 1.94 0 0 0 .697 1.362 1.9 1.9 0 0 0 1.473.388l.11.686a2.4 2.4 0 0 1-.398-.011M31.7 80.732c0 .398-.222.73-.487.73-.266 0-.487-.332-.487-.73 0-.399.21-.742.487-.742.276 0 .487.355.487.742m8.47-.819c0 .41-.222.73-.488.73-.265 0-.487-.32-.487-.73s.21-.73.487-.73.487.32.487.73Zm.164-2.193q.414.018.819-.066c.443-.166.41-.498 0-.697a4.3 4.3 0 0 0-1.605-.222 2.5 2.5 0 0 0-1.107.166.388.388 0 0 0-.089.653c.366.454 1.35.177 1.982.166m-10.262.897a3 3 0 0 1-.819.089c-.465-.089-.487-.432-.088-.698.478-.26 1-.432 1.538-.509a2.45 2.45 0 0 1 1.108 0 .4.4 0 0 1 .21.631c-.321.498-1.318.388-1.949.487"/><path fill="#424D99" d="m32.262 66.12-.1.376a20.54 20.54 0 0 1-12.066 13.461 13.97 13.97 0 0 1 2.712-9 12.18 12.18 0 0 1 8.037-4.76c.366 0 .742-.067 1.107-.078h.31Z"/><path fill="#424D99" d="M41.661 71.787a14.9 14.9 0 0 1-5.535-1.362 9.6 9.6 0 0 1-3.985-3.93l-.2-.376h.3a10.64 10.64 0 0 1 7.383 2.967c.803.8 1.489 1.71 2.037 2.701m-22.071-1.56a3.32 3.32 0 0 0 3.575.564 3.7 3.7 0 0 0 1.787-4.782 3.7 3.7 0 0 0-1.067-1.428 3.4 3.4 0 0 0-3.399-.454c-2.159.963-2.557 4.505-.897 6.1Z"/><path fill="#C9CCE4" d="M144.734 51.074c10.628.775 19.134 8.917 20.533 19.415.584 4.38-.261 8.46-2.097 12.408-2.01 4.32-4.59 8.3-7.257 12.225-4.658 6.855-9.581 13.524-14.351 20.299-.467.662-.917 1.336-1.403 1.983-.489.652-1.05.61-1.397-.116-4.65-9.731-9.713-19.263-14.076-29.132-1.755-3.97-3.1-8.076-3.952-12.338-.415-2.076-.194-4.13.195-6.175.778-4.087 2.349-7.819 5.122-10.97 4.256-4.837 9.645-7.325 16.061-7.645.925-.046 1.846.024 2.622.046m-2.663 32.914c5.752.478 10.891-3.78 11.364-9.417.492-5.857-3.753-10.95-9.529-11.432-5.819-.486-10.935 3.83-11.423 9.638-.476 5.663 3.861 10.734 9.588 11.21Z"/><path fill="#CCED9F" d="M59.842 118.15a30.995 30.995 0 0 1-44.12 13.647 31 31 0 0 1-11.686-12.54c1.395-3.498 3.653-8.535 5.225-9.166 2.447-.975 14.624-4.074 14.624-4.074s10.218 5.347 14.325-.155c0 0 11.768 0 14.048 1.461 1.794 1.185 5.912 7.982 7.584 10.827"/><path fill="#13BF89" d="M82.711 125.998a30.995 30.995 0 0 0 37.044 30.402 30.997 30.997 0 0 0-6.047-61.399 30.876 30.876 0 0 0-30.997 30.997"/><path fill="#B77548" d="M106.854 130.969h15.311l-3.089-19.705h-10.594l-.188 2.314-.587 7.14z"/><path fill="#000" d="M107.707 120.719a12.09 12.09 0 0 0 10.185-5.536c-3.089-.476-6.155-1.107-9.255-1.56h-.343z"/><path fill="#B77548" d="M131.464 106.404a4.94 4.94 0 0 1-3.609 3.066 3.51 3.51 0 0 1-3.941-1.716 12.44 12.44 0 0 1-6.742 8.48 12.23 12.23 0 0 1-10.805-.276 11.94 11.94 0 0 1-6.088-8.857 21.6 21.6 0 0 1 1.251-8.723c.254-.841.509-1.683.808-2.513a21.4 21.4 0 0 1 1.395-3.177 12 12 0 0 1 2.014-2.701 10.7 10.7 0 0 1 7.384-2.967h.299q.556.011 1.107.088a12.18 12.18 0 0 1 8.037 4.75 13.7 13.7 0 0 1 2.602 6.465c.114.84.151 1.688.111 2.535l.132-.111a3.85 3.85 0 0 1 3.454-.465 4.26 4.26 0 0 1 2.635 2.502 5 5 0 0 1-.044 3.62"/><path fill="#000" d="m126.516 106.183-.642-.222.432-3.321.686.089-.299 2.269c.263-.184.555-.323.864-.409a2.76 2.76 0 0 1 2.026.265l-.332.609a2.03 2.03 0 0 0-1.512-.201 2.03 2.03 0 0 0-1.223.91zm-17.124.73a1.1 1.1 0 0 1-.575-.155 1.1 1.1 0 0 1-.543-.653 2.3 2.3 0 0 1 0-1.041l.974-4.55.676.144-.975 4.55a2.1 2.1 0 0 0-.055.731.5.5 0 0 0 .21.221.5.5 0 0 0 .377 0l.21.653a1.3 1.3 0 0 1-.299.1m1.59 2.403a2.3 2.3 0 0 1-.387 0l.099-.687a1.86 1.86 0 0 0 1.501-.367 1.87 1.87 0 0 0 .713-1.371h.687a2.583 2.583 0 0 1-2.569 2.425zm2.712-7.739c0 .399.222.731.487.731.266 0 .488-.332.488-.731s-.211-.73-.488-.73c-.276 0-.487.321-.487.73m-8.467-.819c0 .41.221.731.487.731.265 0 .487-.321.487-.731s-.211-.731-.487-.731c-.277 0-.487.332-.487.731m-.166-2.192a2.8 2.8 0 0 1-.819-.066c-.443-.166-.41-.498 0-.698a4.3 4.3 0 0 1 1.605-.22 2.5 2.5 0 0 1 1.107.165.38.38 0 0 1 .226.302.39.39 0 0 1-.138.351c-.387.465-1.35.177-1.981.166m10.264.897q.404.1.82.089c.465-.089.487-.432.088-.698a4.6 4.6 0 0 0-1.539-.509 2.6 2.6 0 0 0-1.107 0 .4.4 0 0 0-.275.26.4.4 0 0 0-.014.193.4.4 0 0 0 .079.178c.321.498 1.317.388 1.948.487m3.763-13.273a4.43 4.43 0 0 1-4.76.752 4.92 4.92 0 0 1-2.768-4.03 4.98 4.98 0 0 1 1.805-4.24 4.51 4.51 0 0 1 4.527-.597c2.879 1.273 3.399 5.99 1.196 8.115"/><path fill="#6987F3" d="M85.556 139.018a31 31 0 0 0 27.555 18.058 30.99 30.99 0 0 0 28.25-16.951c-1.395-3.499-4.339-10.163-5.922-10.794-2.436-.974-13.927-2.447-13.927-2.447s-9.853 8.469-14.325-.155c0 0-11.325.975-13.605 2.436-1.794 1.162-6.355 6.985-8.026 9.853"/><path fill="#000" d="M125.187 98.267a10.1 10.1 0 0 1-6.188-.11 10.34 10.34 0 0 1-6.842-8.591 12.5 12.5 0 0 1-9.819 6.243 21.4 21.4 0 0 1 1.395-3.177c.541-.99 1.219-1.9 2.015-2.701a10.68 10.68 0 0 1 7.383-2.967h.299q.556.012 1.107.089a12.17 12.17 0 0 1 8.037 4.749 13.7 13.7 0 0 1 2.613 6.465"/><path fill="#CCED9F" d="M117.814 51.561a31 31 0 0 1-1.871 10.617 30 30 0 0 1-1.528 3.52 31 31 0 0 1-27.067 16.86h-1.107a31 31 0 0 1-27.598-17.99 25 25 0 0 1-.753-1.77 30.7 30.7 0 0 1-2.125-11.237 31.025 31.025 0 1 1 62.049 0"/><path fill="#F8C49E" d="M79.91 56.543h15.31l-3.088-19.705H81.537l-.188 2.313-.587 7.13z"/><path fill="#000" d="M80.784 46.281a11.9 11.9 0 0 0 4.428-.819 12.2 12.2 0 0 0 5.746-4.694c-3.089-.487-6.155-1.107-9.244-1.56l-.354-.056z"/><path fill="#F8C49E" d="M104.518 31.978a4.9 4.9 0 0 1-3.609 3.055 3.496 3.496 0 0 1-3.94-1.704 12.44 12.44 0 0 1-6.742 8.48 12.18 12.18 0 0 1-10.805-.288 11.93 11.93 0 0 1-6.089-8.857 21.8 21.8 0 0 1 1.251-8.778 23.3 23.3 0 0 1 2.99-6.941q.2-.288.43-.554.365-.48.798-.897a10.78 10.78 0 0 1 8.856-2.889 12.18 12.18 0 0 1 8.026 4.76q.499.653.897 1.373a13.2 13.2 0 0 1 1.384 3.442 14.4 14.4 0 0 1 .442 4.186 3.71 3.71 0 0 1 3.576-.576 4.24 4.24 0 0 1 2.635 2.502 5.02 5.02 0 0 1-.1 3.686"/><path fill="#000" d="m99.604 31.757-.642-.221.432-3.321.686.088-.299 2.214a3 3 0 0 1 .864-.398 2.75 2.75 0 0 1 2.026.265l-.333.598a2.047 2.047 0 0 0-2.734.72zm-17.157.741a1.2 1.2 0 0 1-.576-.154 1.1 1.1 0 0 1-.542-.654 2.5 2.5 0 0 1 0-1.04l.974-4.55.686.144-.974 4.55c-.07.236-.092.485-.066.73a.5.5 0 0 0 .221.222.48.48 0 0 0 .365 0l.21.653q-.142.07-.298.1Zm1.593 2.392a2 2 0 0 1-.387 0l.1-.687a1.87 1.87 0 0 0 2.214-1.749h.686a2.53 2.53 0 0 1-.952 1.849 2.6 2.6 0 0 1-1.66.587Zm2.713-7.75c0 .41.221.742.487.742s.498-.332.498-.741c0-.41-.221-.731-.498-.731s-.487.332-.487.73m-8.47-.807c0 .399.222.73.487.73.266 0 .499-.331.499-.73s-.222-.73-.499-.73c-.276 0-.487.32-.487.73m9.997-1.341c.247.055.504.055.752 0 .432-.143.487-.575.133-.896a3 3 0 0 0-1.395-.532 1.66 1.66 0 0 0-1.107 0 .64.64 0 0 0-.243.83c.343.72 1.284.51 1.86.599Zm-9.977-.729a1.9 1.9 0 0 1-.753-.078c-.41-.199-.398-.642 0-.896a2.85 2.85 0 0 1 1.45-.321c.381-.06.771.01 1.107.199a.63.63 0 0 1 .111.852c-.443.598-1.34.255-1.915.244"/><path fill="#13BF89" d="M115.943 62.189a30 30 0 0 1-1.527 3.52 31 31 0 0 1-27.067 16.85h-1.107a31 31 0 0 1-27.599-17.99 25 25 0 0 1-.752-1.771c2.214-3.155 5.192-7.041 6.498-7.882 2.28-1.473 15.875-2.613 15.875-2.613 2.524 7.66 14.391.166 14.391.166s14.591 2.07 16.849 3.42c1.506.953 3.122 3.599 4.439 6.3"/><path fill="#000" d="M98.362 26.377a5.3 5.3 0 0 1-2.502-3.233 15.8 15.8 0 0 1-.52-4.206c.408.05.822-.016 1.195-.188a14.2 14.2 0 0 1 1.827 7.627m-20.669-9.676a3.9 3.9 0 0 0-2.214 1.295 2.31 2.31 0 0 0 .288 2.746 3.22 3.22 0 0 0 2.8.93 5.23 5.23 0 0 0 2.68-1.196 10.5 10.5 0 0 0 2.214-2.38"/><path fill="#6987F3" d="M97.722 21.461a13.2 13.2 0 0 0-2.07-4.085 12.18 12.18 0 0 0-8.026-4.76 10.78 10.78 0 0 0-8.857 2.89 9 9 0 0 0-.797.885l-8.524-2.214-.166.63 8.259 2.115 20.347 5.236a3 3 0 0 0-.166-.697"/><path fill="#000" d="m60.592 135.32-13.428-1.938 3.443-15.963zm-12.598-2.524 11.314 1.638-8.413-15.067z"/></g><defs><clipPath id="a"><path fill="#fff" d="M0 0h165v165H0z"/></clipPath></defs></svg>