<svg xmlns="http://www.w3.org/2000/svg" width="165" height="165" fill="none"><path fill="#9B7EDE" d="M83.78 60.345H52.871v30.727h30.907z"/><path fill="#66D7D1" d="M83.78 60.345H52.871v3.337h30.907z"/><path fill="#fff" d="M76.806 87.254a10.8 10.8 0 0 1-7.55-4.02 10.7 10.7 0 0 1-2.064-4.418 7.107 7.107 0 0 1-5.786-11.127l.624.409a6.363 6.363 0 0 0 5.03 9.914c-.15-1.027-.15-2.07 0-3.097.24-1.536 1.116-3.409 2.844-3.66a2.84 2.84 0 0 1 2.917 1.764 3.6 3.6 0 0 1-.432 3.385 5.35 5.35 0 0 1-2.7 2.088c-.56.19-1.14.311-1.73.36a9.87 9.87 0 0 0 8.907 7.706zm-6.566-15.22h-.216c-1.32.193-2.016 1.753-2.208 3.025a9.6 9.6 0 0 0 0 2.989 6.3 6.3 0 0 0 1.62-.324 4.64 4.64 0 0 0 2.34-1.705 2.86 2.86 0 0 0 .36-2.676 2.12 2.12 0 0 0-1.896-1.309"/><path fill="#F8C49E" d="m83.083 88.383 22.205-2.677-7.933-28.05-15.364 1.86.12 3.397.408 10.442z"/><path fill="#000" d="M82.52 73.356a17.6 17.6 0 0 0 6.29-1.969 17.77 17.77 0 0 0 7.513-7.814c-4.573-.168-9.122-.492-13.695-.66h-.504z"/><path fill="#F8C49E" d="M113.836 46.72a6.24 6.24 0 0 1-3.337 5.246 7.2 7.2 0 0 1-6.734-.24 18.34 18.34 0 0 1-5.03 10.803 17.7 17.7 0 0 1-3.264 2.652h-.084a18 18 0 0 1-13.095 2.22 16 16 0 0 1-2.545-.78 17.43 17.43 0 0 1-10.406-11.846c-1.032-4.201-.432-8.618.288-12.88a36.5 36.5 0 0 1 2.7-9.746q.055-.142.133-.276a16.5 16.5 0 0 1 1.812-2.892l.204-.253a15.7 15.7 0 0 1 9.986-5.34 15 15 0 0 1 2.077-.133 17.78 17.78 0 0 1 12.495 5.498 18.4 18.4 0 0 1 2.028 2.496 21 21 0 0 1 3.493 10.07 6.29 6.29 0 0 1 6.254-.083l.372.228a6.24 6.24 0 0 1 2.653 5.257"/><path fill="#000" d="m106.55 48.81-.708-.156v-4.885h.744v3.6a3.95 3.95 0 0 1 1.368-.924 3.85 3.85 0 0 1 2.881 0l-.288.684c-.743-.3-1.574-.3-2.317 0a3.15 3.15 0 0 0-1.68 1.68m-24.211 4.129c-.21 0-.418-.04-.612-.12a1.5 1.5 0 0 1-.84-.78 3.4 3.4 0 0 1-.097-1.465l.613-6.77.756.073-.624 6.77c-.06.376-.039.76.06 1.128a.76.76 0 0 0 .42.348.78.78 0 0 0 .636 0l.324.672a1.5 1.5 0 0 1-.636.144m2.484 3.206h-.12v-.756a2.92 2.92 0 0 0 2.16-.865 2.86 2.86 0 0 0 .805-2.184h.756a3.6 3.6 0 0 1-3.6 3.853zm3.025-11.608c.072.588.444 1.032.84.984s.648-.564.576-1.2-.444-1.02-.828-.972-.66.6-.588 1.188m-12.423.348c.072.576.444 1.02.84.972s.648-.564.576-1.2-.444-1.02-.84-.972-.648.576-.576 1.2m14.26-3.756c.365.049.736.024 1.092-.072.612-.288.6-.936 0-1.32a4.3 4.3 0 0 0-2.1-.54 2.4 2.4 0 0 0-1.549.264.924.924 0 0 0-.204 1.2c.588.924 1.909.456 2.76.468m-14.607.708c-.36.078-.732.078-1.092 0-.636-.216-.696-.864-.168-1.308a4.3 4.3 0 0 1 2.052-.72 2.4 2.4 0 0 1 1.573.12.924.924 0 0 1 .312 1.2c-.48.972-1.825.624-2.677.708"/><path fill="#F8C49E" d="M15.759 40.695c-2.401.396-1.753 8.762-1.02 14.272Z"/><path fill="#F8C49E" d="M14.715 54.967c-1.02-4.057-3.133-10.803-5.726-10.179-3.949.864 2.245 31.928 2.245 31.928l23.814-12.627c-3.037-6.506 1.452-12.82-1.32-13.851-2.773-1.033-5.354 5.677-5.354 5.677s-2.737-14.632-5.893-14.08c-1.585.277-1.56 5.798-1.417 8.955-1.344-4.37-3.6-10.37-5.305-10.107"/><path fill="#000" d="M20.8 52.47c-.312-7.045.228-10.742 1.608-10.994l.133.744c-.697.12-1.297 3.373-.985 10.214zm-6.433 2.546c-1.26-9.399-.816-14.344 1.332-14.68l.12.732c-.588.096-2.4 1.38-.708 13.852zm8.281 11.15a9.11 9.11 0 0 1 4.13-7.994l.407.624a8.4 8.4 0 0 0-3.793 7.334zm.547-10.751-10.091 3.542.25.713 10.092-3.541z"/><path fill="#13BF89" d="M149.148 142.672s-15.796-59.859-23.85-63.615-22.914-3.925-22.914-3.925-16.684 15.147-19.696.864c0 0-12.075.588-17.032 2.856-4.958 2.269-18.137 7.562-18.137 7.562L35.05 64.09 11.26 76.705s5.185 62.667 49.667 42.838v23.118z"/><path fill="#000" d="m114.087 82.01-.504-.373.792-17.224.612-.276 14.608 11.559-.108.648zm1.008-16.805-.756 15.904 14.248-5.245z"/><path fill="#D4F5BD" d="M86.624 135.698a34.2 34.2 0 0 1-4.285 7.034H45.262c-2.28-2.905-4.585-5.917-5.557-9.47s-.24-8.078 2.808-10.323a7.082 7.082 0 0 1 11.283 5.449 25.42 25.42 0 0 1 6.77-15.795c4.117-4.141 10.358-6.374 16.023-4.91a16.91 16.91 0 0 1 11.45 11.487 23.8 23.8 0 0 1-1.415 16.528"/><path fill="#fff" d="m57.578 142.852-.553-.504a43 43 0 0 1 5.522-4.802c4.285-3.108 7.886-4.273 10.73-3.48 2.653.744 4.525 3.204 5.582 7.333a43 43 0 0 1 4.633-8.774c4.525-6.481 10.058-9.674 16.012-9.206v.744c-13.756-1.068-20.25 18.473-20.31 18.677h-.72c-.924-4.573-2.724-7.202-5.34-8.006-6.326-1.861-15.472 7.922-15.556 8.018"/><path fill="#000" d="M104.556 41.38a7 7 0 0 1-4.8-4.117 18.2 18.2 0 0 1-1.441-6.362c.657.39 1.427.547 2.184.445h.601a21 21 0 0 1 3.456 10.034M70.924 28.572a2.65 2.65 0 0 0-.9 2.989 3.6 3.6 0 0 0 2.4 2.185 5.57 5.57 0 0 0 3.313-.096 7.92 7.92 0 0 0 4.201-3.085 4.61 4.61 0 0 0 3.601 3.457 4.35 4.35 0 0 0 4.273-2.197"/><path fill="#18284E" d="M102.791 34.442 74.26 29.064l.204-.252a15.7 15.7 0 0 1 9.986-5.34 15 15 0 0 1 2.077-.133 17.78 17.78 0 0 1 12.495 5.498 19.6 19.6 0 0 1 3.769 5.605"/><path fill="#18284E" d="m58.34 25.684-.14.743 44.527 8.39.14-.744z"/><path fill="#06A787" d="M156.193 70.967a25.3 25.3 0 0 1-3.841 9.866 11.4 11.4 0 0 1-2.509 2.689l-2.052-2.629.864 3.421a8.76 8.76 0 0 1-5.929 1.2 13.2 13.2 0 0 1 8.009-13.479 13.2 13.2 0 0 1 5.458-1.032z"/><path fill="#CCED9F" d="m150.347 64.485-3.433.756 3.277.66c0 .325-.108.649-.168.949a14.3 14.3 0 0 1-3.205 6.71 9.92 9.92 0 0 1-7.045 3.192 15.1 15.1 0 0 1 10.706-17.872c-.036 1.74.012 3.733-.132 5.605"/><path fill="#000" d="M135.477 108.176h-.733c-1.116-11.031 2.149-29.276 9.603-40.702l.624.408c-6.722 10.382-9.986 26.406-9.602 37.461 2.088-9.746 5.449-19.697 13.743-28.039l.528.528c-8.99 8.942-12.111 19.865-14.163 30.344"/><path fill="#8893E3" d="M135.799 142.672c12.065 0 21.846-8.534 21.846-19.061s-9.781-19.06-21.846-19.06-21.845 8.534-21.845 19.06c0 10.527 9.781 19.061 21.845 19.061"/><path fill="#8893E3" d="M140.434 100.47h-9.254v8.33h9.254z"/><path fill="#000" d="M55.261 106.015a4.898 4.898 0 1 1-.18-9.794 4.896 4.896 0 1 1 .36 9.782zm-.156-9.05a4.153 4.153 0 1 0 4.297 3.997 4.165 4.165 0 0 0-4.297-3.997"/><path fill="#13BF89" d="M50.64 45.353a3.397 3.397 0 1 0 .244 6.789 3.397 3.397 0 0 0-.244-6.79"/></svg>