<svg xmlns="http://www.w3.org/2000/svg" width="218" height="206" fill="none"><path fill="#D7E3EF" d="M100.505 1.467s-71.063 4.298-69.312 44.33c.502 11.477-2.367 22.963-10.816 31.527C15.072 82.701 7.993 86.62 4.267 93.3c-7.366 13.206-2.517 29.356 1.545 42.598 4.038 13.163 6.676 27.001 14.552 38.716 4.305 6.406 10.119 12.665 16.492 17.286 8.84 6.41 20.194 9.146 31.212 9.314 63.272.962 133.163-3.485 140.24-82.737 7.078-79.252-39.993-127.329-107.803-117.01"/><path fill="#92B2EF" d="M46.746 67.599c1.637.828 3.692.068 4.592-1.698.9-1.765.302-3.867-1.334-4.695a3 3 0 0 0-.258-.113c.304-.977.533-1.962.687-2.947q.14.002.283-.01c1.867-.166 3.349-1.875 3.31-3.818s-1.585-3.383-3.451-3.218a3 3 0 0 0-.289.041 19 19 0 0 0-.8-2.813q.13-.074.256-.16c1.597-1.115 2.107-3.316 1.14-4.915s-3.046-1.993-4.643-.878a4 4 0 0 0-.235.182 17 17 0 0 0-2.072-1.927 4 4 0 0 0 .151-.264c.9-1.766 2.075-3.694.426-4.496-3.815-1.856-5.452-.267-6.351 1.498a4 4 0 0 0-.126.277 17 17 0 0 0-2.783-.53q.01-.146.008-.295c-.039-1.943.54-2.994-1.334-3.03-4.086-.08-5.465 1.688-5.426 3.63q.004.152.02.3a19 19 0 0 0-2.75 1.017 3 3 0 0 0-.138-.256c-.967-1.6-3.046-1.993-4.643-.878s-2.108 3.316-1.14 4.915q.075.122.158.235-1.062 1.058-1.982 2.29a3 3 0 0 0-.244-.14c-1.636-.828-3.692-.068-4.591 1.698-.9 1.765-.303 3.867 1.334 4.695q.127.063.258.114a20.6 20.6 0 0 0-.687 2.946q-.14-.001-.284.01c-1.867.166-3.348 1.875-3.31 3.818.04 1.943 1.585 3.383 3.452 3.217.097-.008.193-.024.289-.04.195.962.462 1.903.799 2.813a4 4 0 0 0-.255.16c-1.597 1.115-2.108 3.316-1.14 4.915.967 1.6 4.17 2.343 5.766 1.228.082-.057-.964-.47-.888-.532.63.695 1.323 1.339 2.071 1.927a4 4 0 0 0-.15.264c-.9 1.766-.303 3.868 1.333 4.696 1.637.827 3.692.067 4.592-1.698q.068-.137.125-.278 1.378.384 2.784.53-.01.146-.009.296c.04 1.943 1.584 3.383 3.451 3.217s3.349-1.875 3.31-3.817q-.005-.152-.021-.3a19 19 0 0 0 2.751-1.017q.063.13.137.256c.968 1.6 3.046 1.993 4.644.878 1.597-1.115 2.108-3.316 1.14-4.916a3 3 0 0 0-.159-.234q1.063-1.058 1.982-2.29.119.075.244.14m-20.398.258c-5.94-3.006-8.11-10.638-4.843-17.048s10.73-9.17 16.671-6.164 8.11 10.638 4.843 17.048-10.73 9.17-16.67 6.164"/><path fill="#92B2EF" d="M50.716 58.136c1.867-.166 3.348-1.875 3.31-3.818-.04-1.943-1.585-3.383-3.452-3.218a3 3 0 0 0-.289.041 19 19 0 0 0-.799-2.813q.13-.074.255-.16c1.597-1.115 3.573-3.81 2.446-5.301-2.138-2.833-4.352-1.607-5.949-.492a4 4 0 0 0-.235.182 17 17 0 0 0-2.071-1.927q.08-.128.15-.264c.49-.961.533-2.02.21-2.921a532 532 0 0 0-4.56 8.154c4.74 3.46 6.25 10.28 3.287 16.094-2.51 4.927-7.501 7.693-12.374 7.347-.217.561-.43 1.126-.663 1.682-.632 1.51-1.35 2.988-2.068 4.465q.678.128 1.36.2-.01.146-.008.295c.04 1.943 1.223 3.593 4.607 3.415 1.871-.1 2.193-2.072 2.154-4.015q-.004-.152-.02-.3a19 19 0 0 0 2.75-1.017q.063.131.138.256c.967 1.6 4.323 2.28 5.92 1.165 1.597-1.116.83-3.603-.136-5.202a3 3 0 0 0-.16-.235 21 21 0 0 0 1.983-2.29q.117.075.244.14c1.636.828 3.692.068 4.591-1.698.9-1.765.303-3.867-1.334-4.695a3 3 0 0 0-.258-.113 20.5 20.5 0 0 0 .687-2.947q.14.001.284-.01"/><path fill="#B9D8F6" d="M48.506 67.798c1.636.828 3.692.068 4.592-1.697s.302-3.868-1.334-4.695a3 3 0 0 0-.259-.114q.457-1.467.688-2.946.14.001.283-.01c1.867-.166 3.349-1.876 3.31-3.818S54.2 51.134 52.334 51.3a3 3 0 0 0-.288.04 19 19 0 0 0-.8-2.813q.13-.074.255-.16c1.597-1.115 2.108-3.315 1.14-4.915-.966-1.6-3.045-1.992-4.643-.877a4 4 0 0 0-.234.181 17 17 0 0 0-2.072-1.926 4 4 0 0 0 .151-.265c.9-1.765.302-3.867-1.334-4.695s-3.692-.068-4.592 1.698a4 4 0 0 0-.125.277 17 17 0 0 0-2.783-.53q.01-.147.008-.296c-.039-1.942-1.584-3.383-3.45-3.217-1.868.166-3.35 1.875-3.31 3.818q.004.15.02.3-1.406.398-2.75 1.017a3 3 0 0 0-.138-.257c-.967-1.6-3.046-1.992-4.643-.877-1.598 1.115-2.108 3.315-1.14 4.915q.074.122.158.234-1.062 1.058-1.982 2.291-.118-.076-.244-.14c-1.636-.828-3.692-.068-4.591 1.697-.9 1.766-.303 3.868 1.333 4.696q.128.063.259.113a20.6 20.6 0 0 0-.687 2.946q-.14-.001-.284.01c-1.867.166-3.348 1.876-3.31 3.819.04 1.942 1.585 3.383 3.452 3.217q.145-.015.288-.04.293 1.445.8 2.813-.13.073-.255.16c-1.597 1.115-2.108 3.315-1.14 4.915.967 1.6 3.045 1.992 4.643.877q.122-.086.235-.181.947 1.044 2.07 1.926a4 4 0 0 0-.15.265c-.9 1.765-.302 3.868 1.334 4.695s3.692.068 4.592-1.697q.068-.138.125-.278 1.379.383 2.783.53-.01.146-.008.296c.039 1.942 1.584 3.383 3.45 3.217 1.868-.166 3.35-1.875 3.31-3.818q-.004-.15-.02-.3a19 19 0 0 0 2.75-1.016q.063.13.138.256c.967 1.6 3.046 1.992 4.643.877 1.598-1.115 2.108-3.315 1.141-4.915a3 3 0 0 0-.159-.234q1.062-1.058 1.982-2.291.118.075.244.14m-20.398.258c-5.94-3.005-8.11-10.638-4.843-17.048s10.73-9.169 16.67-6.164c5.942 3.006 8.11 10.639 4.844 17.048-3.266 6.41-10.73 9.17-16.67 6.164"/><path fill="#92B2EF" d="M76.75 33.274c1.306.66 2.945.054 3.662-1.354s.241-3.085-1.063-3.745a3 3 0 0 0-.206-.09q.363-1.17.548-2.35.112.001.226-.008c1.489-.132 2.67-1.495 2.639-3.045s-1.263-2.698-2.752-2.565q-.117.01-.23.032a15 15 0 0 0-.638-2.244q.104-.058.203-.127c1.274-.89 1.681-2.644.91-3.92s-2.43-1.589-3.703-.7a3 3 0 0 0-.187.145 13.4 13.4 0 0 0-1.652-1.536 3 3 0 0 0 .12-.211c.717-1.408 1.655-2.946.34-3.586-3.043-1.48-4.348-.213-5.065 1.195q-.056.11-.1.221a13.5 13.5 0 0 0-2.22-.422q.008-.117.007-.236c-.031-1.55.43-2.388-1.064-2.417-3.26-.063-4.359 1.347-4.328 2.896q.004.12.017.239-1.122.319-2.194.81a3 3 0 0 0-.11-.204c-.771-1.275-2.429-1.588-3.703-.7-1.273.89-1.68 2.645-.91 3.92q.061.098.128.187a16.5 16.5 0 0 0-1.58 1.827 3 3 0 0 0-.196-.112c-1.305-.66-2.944-.054-3.661 1.354s-.241 3.084 1.063 3.744q.102.051.206.09a16.4 16.4 0 0 0-.547 2.35q-.112 0-.226.009c-1.49.132-2.67 1.495-2.64 3.044.032 1.55 1.264 2.698 2.752 2.566q.117-.011.23-.032.235 1.152.638 2.243-.103.059-.203.128c-1.274.89-1.681 2.644-.91 3.92.772 1.275 3.325 1.868 4.6.979.065-.046-.77-.374-.71-.424a13.4 13.4 0 0 0 1.653 1.536 3 3 0 0 0-.12.211c-.718 1.408-.242 3.084 1.063 3.744s2.944.054 3.662-1.353q.055-.11.1-.222a13.5 13.5 0 0 0 2.22.423 3 3 0 0 0-.007.236c.03 1.549 1.263 2.698 2.752 2.566s2.67-1.496 2.639-3.045a3 3 0 0 0-.017-.239q1.122-.319 2.194-.811.05.104.11.204c.771 1.276 2.43 1.59 3.703.7s1.68-2.644.91-3.92a3 3 0 0 0-.127-.186 16.5 16.5 0 0 0 1.58-1.828q.094.06.195.113m-16.266.205c-4.738-2.396-6.467-8.483-3.863-13.595 2.605-5.111 8.557-7.312 13.295-4.915 4.738 2.396 6.467 8.483 3.862 13.595-2.604 5.111-8.556 7.312-13.294 4.915"/><path fill="#92B2EF" d="M79.916 25.727c1.489-.132 2.67-1.495 2.64-3.044-.032-1.55-1.264-2.699-2.753-2.566q-.117.011-.23.032a15 15 0 0 0-.637-2.243q.102-.06.203-.128c1.273-.89 2.85-3.038 1.95-4.228-1.705-2.258-3.47-1.28-4.744-.392a3 3 0 0 0-.187.145 13.4 13.4 0 0 0-1.652-1.536 423 423 0 0 0-3.349 3.962c3.78 2.76 4.983 8.198 2.621 12.835-2.002 3.929-5.982 6.135-9.868 5.858-.173.449-.343.899-.529 1.342-.503 1.204-1.076 2.383-1.649 3.56q.54.103 1.086.16a3 3 0 0 0-.007.236c.031 1.55.975 2.865 3.673 2.723 1.493-.08 1.75-1.653 1.718-3.202a3 3 0 0 0-.016-.239q1.121-.319 2.194-.811.05.104.11.204c.77 1.276 3.447 1.818 4.72.929 1.274-.89.663-2.873-.108-4.149a3 3 0 0 0-.127-.186 16.5 16.5 0 0 0 1.58-1.828q.094.06.195.112c1.305.66 2.944.054 3.662-1.353.717-1.408.241-3.085-1.064-3.745a3 3 0 0 0-.206-.09q.364-1.17.548-2.35.112.001.226-.008"/><path fill="#B9D8F6" d="M78.155 33.433c1.305.66 2.944.054 3.662-1.354.717-1.408.24-3.085-1.064-3.745a2 2 0 0 0-.206-.09q.364-1.17.548-2.35.112.001.226-.008c1.489-.132 2.67-1.495 2.64-3.045-.032-1.549-1.264-2.698-2.753-2.565q-.117.01-.23.032a15 15 0 0 0-.637-2.244q.102-.058.203-.127c1.273-.89 1.68-2.644.91-3.92-.772-1.276-2.43-1.589-3.704-.7a3 3 0 0 0-.187.145 13.4 13.4 0 0 0-1.652-1.536q.064-.103.12-.211c.718-1.408.241-3.085-1.064-3.745-1.304-.66-2.944-.054-3.661 1.354q-.055.11-.1.221a13.5 13.5 0 0 0-2.22-.422 3 3 0 0 0 .007-.236c-.031-1.55-1.263-2.698-2.752-2.566s-2.67 1.495-2.64 3.045q.005.12.017.239-1.122.319-2.194.81a3 3 0 0 0-.11-.204c-.77-1.275-2.428-1.589-3.702-.7-1.274.89-1.681 2.645-.91 3.92q.06.098.127.187a16.5 16.5 0 0 0-1.58 1.827 3 3 0 0 0-.195-.112c-1.305-.66-2.945-.054-3.662 1.354s-.241 3.084 1.064 3.744q.102.05.206.09-.364 1.171-.548 2.35-.112 0-.226.009c-1.489.132-2.67 1.495-2.64 3.044.032 1.55 1.264 2.698 2.753 2.566a3 3 0 0 0 .23-.032q.233 1.152.637 2.243-.102.059-.203.128c-1.274.889-1.68 2.644-.91 3.92.772 1.275 2.43 1.588 3.703.7q.098-.07.188-.145a13.4 13.4 0 0 0 1.652 1.536 3 3 0 0 0-.12.211c-.718 1.408-.242 3.084 1.063 3.744s2.945.054 3.662-1.353a3 3 0 0 0 .1-.221 13.5 13.5 0 0 0 2.22.422 3 3 0 0 0-.007.236c.031 1.549 1.263 2.698 2.752 2.566s2.67-1.496 2.64-3.045a3 3 0 0 0-.017-.239q1.122-.319 2.194-.811.05.103.11.204c.77 1.276 2.428 1.59 3.702.7s1.681-2.644.91-3.92a3 3 0 0 0-.127-.186 16.5 16.5 0 0 0 1.58-1.828q.095.06.195.113m-16.267.205c-4.738-2.396-6.467-8.483-3.862-13.595 2.604-5.111 8.557-7.312 13.294-4.915 4.738 2.396 6.468 8.483 3.863 13.595-2.605 5.111-8.557 7.312-13.295 4.915"/><path fill="#80A9F9" d="M133.126 178.772c3.038-8.078 6.248-20.349 3.605-34.167-3.466-18.122-13.954-22.982-26.595-50.33-7.993-17.293-13.396-29.441-7.917-40.056 4.294-8.319 14.756-14.7 23.696-13.345 7.433 1.126 14.684 7.732 18.552 13.09 3.153 4.367 4.227 8.136 8.221 9.289 4.083 1.177 6.401-1.767 9.972-1.164 7.241 1.223 10.468 15.488 10.989 17.793 5.801 25.646-7.73 51.523-13.769 62.74-4.993 9.275-13.3 22.447-26.754 36.15"/><mask id="a" width="77" height="139" x="99" y="40" maskUnits="userSpaceOnUse" style="mask-type:luminance"><path fill="#fff" d="M133.126 178.772c3.038-8.078 6.248-20.349 3.605-34.167-3.466-18.122-13.954-22.982-26.595-50.33-7.993-17.293-13.396-29.441-7.917-40.056 4.294-8.319 14.756-14.7 23.696-13.345 7.433 1.126 14.684 7.732 18.552 13.09 3.153 4.367 4.227 8.136 8.221 9.289 4.083 1.177 6.401-1.767 9.972-1.164 7.241 1.223 10.468 15.488 10.989 17.793 5.801 25.646-7.73 51.523-13.769 62.74-4.993 9.275-13.3 22.447-26.754 36.15"/></mask><g fill="#fff" mask="url(#a)" opacity=".5"><path d="m128.759 186.192-.394-.364c7.986-8.558 14.244-17.156 18.602-25.556 6.425-12.385 8.497-23.986 6.158-34.48-1.832-8.219-6.236-15.502-12.331-25.583-4.865-8.047-9.042-13.313-12.728-17.96-4.816-6.072-8.621-10.868-11.676-19.04-3.1-8.293-4.377-17.425-3.794-27.142l.537.032c-.579 9.642.687 18.7 3.761 26.923 3.025 8.093 6.807 12.86 11.594 18.895 3.695 4.66 7.883 9.94 12.766 18.016 5.891 9.743 10.545 17.438 12.396 25.743 2.366 10.62.278 22.342-6.206 34.842-4.38 8.443-10.666 17.081-18.685 25.674"/><path d="M136.728 94.451c-1.791 0-7.731-.21-14.803-2.71-7.8-2.76-18.623-8.95-25.884-22.77l.476-.248c7.175 13.656 17.864 19.776 25.567 22.505 7.354 2.605 13.461 2.695 14.867 2.687-2.923-17.454.54-31.005 3.973-39.316 3.745-9.066 8.273-14.039 8.319-14.088l.396.362c-.045.048-4.52 4.968-8.228 13.954-3.421 8.29-6.871 21.84-3.878 39.304l.051.298-.304.014c-.011 0-.202.008-.552.008"/><path d="m150.109 116.542-.17-.095c-.095-.054-9.625-5.372-20.225-8.841-10.545-3.449-28.375 2.321-28.554 2.38l-.168-.509c.181-.059 18.179-5.883 28.889-2.379 9.867 3.228 18.809 8.051 20.149 8.787 6.101-5.733 10.327-18.605 12.226-37.247 1.449-14.226 1.034-26.909 1.03-27.036l.537-.018c.005.127.42 12.846-1.033 27.108-1.954 19.19-6.172 31.88-12.537 37.718z"/><path d="m149.139 157.122.034-.533c.349-5.452-.949-10.333-3.857-14.508-2.332-3.346-5.7-6.253-10.011-8.64-7.364-4.077-15.024-5.231-15.1-5.242l.078-.53c.077.011 7.821 1.176 15.27 5.297 6.805 3.764 14.734 10.818 14.186 23.118 1.78-1.216 8.678-6.106 16.461-13.999 8.306-8.424 19.35-22.09 24.789-39.357l10.565-33.533.512.16-10.564 33.534c-5.473 17.373-16.577 31.113-24.928 39.581-9.047 9.173-16.908 14.31-16.986 14.361z"/></g><path fill="#8DBFE3" d="M134.414 176.506c13.669-.043 31.077-2.041 47.691-9.727 4.24-1.962 30.433-14.079 27.207-25.989-1.137-4.195-4.964-4.822-6.582-10.404-1.917-6.615 2.23-9.969 5.044-18.265 1.68-4.95 6.595-19.435-2.165-27.342-5.234-4.725-15.114-6.888-22.601-5.068-10.98 2.669-14.658 13.381-20.566 31.613-5.237 16.162-3.811 20.103-7.786 31.676-2.951 8.588-8.549 20.429-20.242 33.506"/><mask id="b" width="77" height="98" x="134" y="79" maskUnits="userSpaceOnUse" style="mask-type:luminance"><path fill="#fff" d="M134.414 176.506c13.669-.043 31.077-2.041 47.691-9.727 4.24-1.962 30.433-14.079 27.207-25.989-1.137-4.195-4.964-4.822-6.582-10.404-1.917-6.615 2.23-9.969 5.044-18.265 1.68-4.95 6.595-19.435-2.165-27.342-5.234-4.725-15.114-6.888-22.601-5.068-10.98 2.669-14.658 13.381-20.566 31.613-5.237 16.162-3.811 20.103-7.786 31.676-2.951 8.588-8.549 20.429-20.242 33.506"/></mask><g fill="#fff" mask="url(#b)" opacity=".5"><path d="M99.3 184.231c-7.64 0-15.461-1.012-23.403-3.035l.132-.519c15.007 3.823 29.573 4.016 43.296.573 18.281-4.587 34.067-15.681 46.92-32.977 13.386-18.012 20.237-38.236 23.628-52.03 2.347-9.551 1.771-20.095-1.713-31.338l.513-.157c3.514 11.336 4.093 21.976 1.722 31.623-3.403 13.841-10.279 34.137-23.718 52.221-12.929 17.397-28.816 28.56-47.221 33.177-6.543 1.641-13.277 2.462-20.156 2.462"/><path d="m180.865 123.733-.154-.186c-.039-.047-3.921-4.77-7.092-12.008-2.929-6.688-5.838-16.957-3.058-27.901l.522.131c-2.742 10.792.13 20.933 3.022 27.541 2.787 6.368 6.127 10.767 6.869 11.708 28.814-19.078 28.313-40.566 27.47-46.709a3 3 0 0 1-.035-.305h.538-.269l.269-.003q.003.053.03.235c.856 6.236 1.374 28.08-27.911 47.364z"/><path d="M177.082 149.132c-3.214 0-6.687-.224-10.435-.735l-.142-.02-.063-.129c-.081-.165-8.055-16.794-6.568-39.526l1.5-22.925.536.035-1.499 22.925c-1.409 21.53 5.717 37.54 6.454 39.128 9.813 1.322 23.944 1.42 35.825-5.517 7.122-4.158 10.079-8.93 10.108-8.978l.46.278c-.03.049-3.059 4.937-10.296 9.162-5.272 3.078-13.704 6.302-25.88 6.302"/></g><path fill="#B9D8F6" d="M142.453 182.634c-.035-1.384-.116-9.542 5.913-14.541 5.046-4.184 11.632-3.88 13.157-3.81 6.143.284 7.665 3.119 11.444 1.828 4.488-1.533 4.8-6.371 8.385-6.486 2.472-.079 4.941 2.14 5.697 4.432 1.327 4.024-2.304 9.235-6.531 11.293-5.824 2.835-9.643-1.841-16.529 1.027-4.001 1.667-3.923 3.751-8.112 5.611-4.864 2.16-9.892 1.535-13.424.646"/><mask id="c" width="46" height="25" x="142" y="159" maskUnits="userSpaceOnUse" style="mask-type:luminance"><path fill="#fff" d="M142.453 182.634c-.035-1.384-.116-9.542 5.913-14.541 5.046-4.184 11.632-3.88 13.157-3.81 6.143.284 7.665 3.119 11.444 1.828 4.488-1.533 4.8-6.371 8.385-6.486 2.472-.079 4.941 2.14 5.697 4.432 1.327 4.024-2.304 9.235-6.531 11.293-5.824 2.835-9.643-1.841-16.529 1.027-4.001 1.667-3.923 3.751-8.112 5.611-4.864 2.16-9.892 1.535-13.424.646"/></mask><g fill="#fff" mask="url(#c)" opacity=".5"><path d="m140.532 185.697-.214-.163a85 85 0 0 1 6.707-7.711c4.779-4.867 7.176-7.309 10.097-8.331 3.798-1.329 6.761-.256 9.627.781 2.54.92 4.939 1.789 7.811 1.013 4.559-1.232 8.225-6.21 10.896-14.796l.256.08c-2.699 8.678-6.428 13.716-11.082 14.974-2.954.799-5.391-.084-7.973-1.019-2.821-1.021-5.738-2.077-9.446-.78-2.861 1.001-5.244 3.428-9.992 8.264a84 84 0 0 0-6.687 7.688"/><path d="M180.215 172.167c-.494 0-.939-.026-1.335-.067-2.143-.219-3.286-.884-3.333-.912l-.039-.023-.017-.042c-1.899-4.704 1.183-11.488 1.215-11.556l.244.112c-.031.067-3.046 6.705-1.228 11.3.458.243 4.944 2.426 12.383-.985l.112.243c-3.318 1.521-6.039 1.93-8.002 1.93m-8.286 7.248c-1.978-5.603-14.674-9.629-14.802-9.669l-.115-.036.023-.117c.403-2.046 2.682-3.463 6.772-4.212 3.015-.552 5.951-.516 5.982-.516l-.004.268c-.112.001-11.382-.113-12.461 4.395a53 53 0 0 1 6.588 2.697c4.637 2.301 7.42 4.69 8.271 7.101z"/><path d="M163.645 181.562c-3.439-8.005-15.847-4.078-15.972-4.037l-.151.049-.024-.157c-1.118-7.598 5.738-14.486 5.807-14.554l.19.19c-.068.067-6.737 6.768-5.752 14.171 1.456-.431 12.824-3.504 16.149 4.232z"/></g><path fill="#26264F" d="m217.953 188.195-211.52-1.796v5.315c0 1.443.923 2.67 2.173 2.889l59.811 10.467c.71.124 1.43.157 2.146.098l145.092-11.934c1.295-.107 2.298-1.337 2.298-2.82z"/><path fill="#26264F" d="M141.194 179.677 8.621 189.401c-2.372.174-4.3-1.675-4.3-4.13V86.903c0-2.455 1.928-4.446 4.3-4.446h132.573c1.955 0 3.535 1.8 3.535 4.02v88.922c0 2.22-1.58 4.135-3.535 4.278"/><path fill="#444B8C" d="m143.308 179.677-132.573 9.724c-2.373.174-4.301-1.675-4.301-4.13V86.903c0-2.455 1.928-4.446 4.3-4.446h132.574c1.954 0 3.534 1.8 3.534 4.019v88.923c0 2.219-1.58 4.135-3.534 4.278"/><path fill="#8DBFE3" d="m139.178 173.408-123.477 8.447c-1.931.132-3.5-1.386-3.5-3.39V92.343c0-2.004 1.569-3.636 3.5-3.644l123.477-.53c1.612-.007 2.917 1.467 2.917 3.293v78.441c0 1.825-1.305 3.395-2.917 3.505"/><path fill="#fff" d="M81.704 85.148c0 .914-.683 1.657-1.525 1.66-.844.002-1.529-.738-1.529-1.654s.685-1.66 1.529-1.66c.842 0 1.525.74 1.525 1.654"/><path fill="#fff" d="m10.734 189.401 131.902-9.675.672-.049c.896-.066 1.712-.507 2.335-1.177-9.492-.518-15.388-3.874-19.191-7.342-7.637-6.965-6.312-13.833-14.548-18.412-10.273-5.711-18.35 1.526-26.145-5.615-4.726-4.329-2.406-7.557-8.221-14.026-6.44-7.165-10.634-4.757-17.107-11.205-8.184-8.154-4.09-14.498-11.14-20.352-8.553-7.103-17.777-.529-25.918-7.34-3.511-2.938-5.438-7.209-6.444-11.75h-6.194c-2.372 0-4.301 1.99-4.301 4.445v98.368c0 2.455 1.928 4.304 4.3 4.13" opacity=".48"/><path fill="#444B8C" d="M148.592 179.138 6.434 189.373l61.983 10.848c.71.124 1.43.157 2.146.098l147.39-12.124-67.1-8.988a11 11 0 0 0-2.261-.069"/><path fill="#26264F" d="m27.178 189.461 118.35-8.648 36.629 4.867-117.331 9.245z"/><path fill="#F3F5F9" d="M159.768 153.241c0 10.883-8.91 20.269-20.054 20.974L15.57 182.069c13.127-.83 23.61-11.06 23.61-22.862V23.451l120.588 4.597z"/><path fill="#80A9F9" d="m55.064 102.606-7.379-.019.004-54.678 7.396.213zm14.601.037-7.556-.019.026-37.236 7.568.155zm14.121.036-7.452-.019.062-46.772 7.467.189zm13.928.036-6.804-.018.073-36.979 6.815.141zm14.276.036-7.517-.019.068-26.56 7.525.117zm13.285.034-6.621-.017.169-52.81 6.636.19zm13.894.035-7.054-.018.06-15.66 7.058.074zm13.188.034-6.961-.018.184-41.871 6.972.165zm-.075 15.734-104.598.565v-5.342l104.622-.296zm-.182 38.986-104.418 2.621v-5.322l104.442-2.354zM97.86 38.598l-50.17-1.71v-5.65l50.182 1.847z"/><path fill="#80A9F9" d="M87.037 126.011 87 145.628l-40.741.751v-20.007z" opacity=".5"/><path fill="#80A9F9" d="M46.26 138.055v8.324l40.74-.751.028-15.268c-2.466-.826-5.2-1.268-7.355.096-4.507 2.855-3.949 4.471-8.634 3.72-3.66-.587-7.732-1.122-10.862 1.256-1.937 1.471-2.936 3.034-5.722 2.839-2.618-.183-5.778-1.904-8.196-.216m105.975-9.074-55.394.59.008-3.647 55.403-.491zm-.035 7.598-55.377.802.008-3.384 55.384-.71zm-.039 7.846-55.357 1.022.008-3.642 55.366-.923z"/><path fill="#444B8C" d="m197.914 127.079.338-.99c.538-1.579-.347-3.263-1.977-3.757l-63.902-19.396-1.947 6.576 63.579 19.512c1.621.498 3.372-.372 3.909-1.945"/><path fill="#444B8C" d="M68.873 85.12c4.886-19.233 24.031-30.824 42.966-25.392 19.282 5.532 30.321 26.349 24.462 45.972-5.72 19.162-25.339 29.499-43.646 23.587-17.99-5.81-28.557-25.372-23.782-44.167m61.867 18.882c4.841-16.422-4.397-33.815-20.498-38.483-15.859-4.597-31.97 5.052-36.127 21.2-4.078 15.839 4.826 32.348 20.017 37.211 15.416 4.935 31.861-3.829 36.608-19.928"/><path fill="#D8DEE8" d="m132.373 102.936 8.148 2.473c.559 2.589 1.646 4.073 2.74 4.976 4.115 3.4 9.611-.308 17.278 3.678 3.847 2 3.116 3.273 6.722 4.669 5.962 2.307 8.691-.889 13.968 1.211 5.336 2.124 5.862 6.715 8.889 6.55 1.295-.07 2.962-1.009 4.821-4.567l1.336.406c1.63.494 2.515 2.178 1.977 3.757l-.338.99c-.537 1.573-2.288 2.443-3.909 1.945l-63.579-19.512z" opacity=".3"/><path fill="#fff" d="M92.624 126.562c15.946 5.113 32.971-3.941 37.894-20.6 5.025-17.006-4.542-35.023-21.222-39.85-16.42-4.75-33.088 5.251-37.38 21.964-4.207 16.38 5.002 33.45 20.708 38.486" opacity=".56"/><path fill="#444B8C" d="M67.635 86.769C72.52 67.536 91.666 55.946 110.6 61.378c19.281 5.532 30.321 26.348 24.462 45.971-5.721 19.162-25.339 29.5-43.646 23.588-17.991-5.81-28.557-25.373-23.782-44.168m61.866 18.883c4.842-16.422-4.396-33.816-20.498-38.483-15.858-4.597-31.97 5.052-36.127 21.2-4.078 15.838 4.827 32.347 20.018 37.211 15.416 4.935 31.861-3.83 36.607-19.928"/><path fill="#444B8C" d="M69.486 87.334c4.63-18.142 22.704-29.042 40.549-23.904 18.153 5.227 28.554 24.83 23.059 43.318-5.374 18.079-23.869 27.863-41.155 22.298-17.004-5.474-26.984-23.96-22.453-41.712m60.016 18.318c4.842-16.422-4.396-33.816-20.498-38.483-15.858-4.597-31.97 5.052-36.127 21.2-4.078 15.838 4.827 32.347 20.018 37.211 15.416 4.935 31.861-3.83 36.607-19.928"/></svg>