<svg width="218" height="206" viewBox="0 0 218 206" fill="none" xmlns="http://www.w3.org/2000/svg">
<path d="M100.505 1.46655C100.505 1.46655 29.4417 5.7652 31.1926 45.7968C31.6946 57.2737 28.8259 68.7604 20.377 77.3241C15.0724 82.7005 7.99263 86.6186 4.26616 93.2997C-3.0995 106.506 1.74999 122.656 5.81202 135.898C9.84968 149.061 12.4884 162.899 20.3636 174.614C24.6693 181.02 30.4826 187.279 36.8555 191.9C45.6965 198.31 57.0499 201.046 68.0681 201.214C131.34 202.176 201.231 197.729 208.308 118.477C215.386 39.2248 168.315 -8.85151 100.505 1.46655Z" fill="#D7E3EF"/>
<path d="M46.7463 67.599C48.3826 68.4268 50.4383 67.6667 51.3379 65.9014C52.2375 64.136 51.6402 62.0338 50.0039 61.206C49.9191 61.1631 49.8327 61.127 49.7458 61.0926C50.0498 60.1157 50.279 59.1312 50.4327 58.1463C50.5265 58.146 50.6206 58.1446 50.7163 58.136C52.5831 57.9702 54.0648 56.261 54.0257 54.3181C53.9866 52.3753 52.4415 50.9347 50.5747 51.1005C50.4771 51.1093 50.3813 51.1246 50.286 51.1415C50.091 50.1787 49.8238 49.2382 49.4867 48.3279C49.5726 48.2779 49.6581 48.2261 49.7415 48.1678C51.3387 47.0529 51.8492 44.8524 50.882 43.2527C49.9148 41.6532 47.8358 41.2603 46.2387 42.3752C46.1568 42.4324 46.0799 42.4941 46.0037 42.5567C45.3729 41.8619 44.681 41.2179 43.9324 40.6302C43.9851 40.5442 44.0365 40.4571 44.0832 40.3657C44.9828 38.6003 46.1583 36.6718 44.5092 35.8697C40.6943 34.0141 39.0573 35.6026 38.1577 37.368C38.1111 37.4594 38.071 37.5523 38.0323 37.6454C37.1144 37.39 36.1844 37.2134 35.2491 37.1159C35.255 37.0177 35.2595 36.9195 35.2575 36.8199C35.2184 34.8771 35.797 33.8258 33.923 33.7895C29.8367 33.7103 28.458 35.4776 28.4971 37.4202C28.4991 37.5219 28.5077 37.6211 28.5178 37.7197C27.5813 37.9857 26.6616 38.3258 25.7665 38.737C25.7239 38.6504 25.6798 38.5643 25.6293 38.4806C24.662 36.881 22.583 36.4882 20.9858 37.6032C19.3887 38.7183 18.8781 40.9188 19.8453 42.5183C19.8948 42.6003 19.9491 42.677 20.0042 42.7526C19.2969 43.4574 18.6345 44.2227 18.0224 45.0438C17.9433 44.9943 17.863 44.946 17.7783 44.9031C16.1421 44.0753 14.0863 44.8353 13.1867 46.6007C12.2871 48.3661 12.8844 50.4683 14.5207 51.2961C14.6055 51.339 14.692 51.375 14.7787 51.4095C14.4747 52.3864 14.2455 53.3708 14.0918 54.3557C13.998 54.356 13.9039 54.3575 13.8083 54.3659C11.9414 54.5318 10.4598 56.2411 10.4988 58.1839C10.5378 60.1266 12.083 61.5671 13.9499 61.4014C14.0474 61.3927 14.1433 61.3774 14.2386 61.3605C14.4336 62.3233 14.7007 63.2638 15.0378 64.174C14.952 64.2241 14.8665 64.2759 14.7831 64.3341C13.186 65.449 12.6753 67.6497 13.6426 69.2493C14.6099 70.8488 17.8122 71.592 19.4094 70.477C19.4912 70.4199 18.4448 70.0078 18.5209 69.9452C19.1517 70.64 19.8436 71.284 20.5922 71.8717C20.5396 71.9577 20.4881 72.0448 20.4415 72.1362C19.5419 73.9016 20.1391 76.0038 21.7754 76.8315C23.4116 77.6593 25.4674 76.8993 26.3669 75.1339C26.4134 75.0425 26.4537 74.9496 26.4923 74.8565C27.4102 75.1119 28.3403 75.2885 29.2755 75.3859C29.2697 75.484 29.2652 75.5823 29.2671 75.6819C29.3061 77.6247 30.8513 79.0652 32.7181 78.8994C34.585 78.7336 36.0666 77.0242 36.0275 75.0815C36.0255 74.98 36.017 74.8807 36.0068 74.7821C36.9433 74.5161 37.863 74.1761 38.7581 73.7647C38.8006 73.8514 38.8448 73.9375 38.8954 74.0211C39.8626 75.6206 41.9415 76.0136 43.5388 74.8986C45.136 73.7836 45.6466 71.583 44.6793 69.9834C44.6297 69.9015 44.5754 69.8248 44.5203 69.7493C45.2277 69.0445 45.89 68.2791 46.5021 67.4581C46.5812 67.5078 46.6615 67.5561 46.7463 67.599ZM26.3483 67.8569C20.4074 64.8514 18.2389 57.2189 21.5051 50.8091C24.7711 44.3993 32.235 41.6397 38.176 44.6452C44.1169 47.6508 46.2855 55.2833 43.0193 61.6931C39.7531 68.1027 32.2894 70.8624 26.3483 67.8569Z" fill="#92B2EF"/>
<path d="M50.7157 58.136C52.5826 57.9701 54.0643 56.2608 54.0251 54.3181C53.986 52.3753 52.4409 50.9347 50.5741 51.1005C50.4765 51.1092 50.3807 51.1246 50.2854 51.1414C50.0904 50.1786 49.8232 49.2382 49.4861 48.3279C49.572 48.2779 49.6575 48.2261 49.7409 48.1678C51.3381 47.0529 53.314 44.3589 52.1872 42.8666C50.0486 40.0344 47.8353 41.2603 46.2381 42.3752C46.1563 42.4324 46.0793 42.4941 46.0032 42.5567C45.3723 41.8618 44.6804 41.218 43.9318 40.6302C43.9845 40.5442 44.036 40.4572 44.0826 40.3657C44.5722 39.4049 44.6154 38.3456 44.2921 37.445C42.7494 40.1505 41.2274 42.8673 39.7328 45.5988C44.4724 49.0594 45.9813 55.879 43.0188 61.693C40.5083 66.6199 35.518 69.3863 30.6453 69.0396C30.4279 69.6013 30.2145 70.166 29.9818 70.7223C29.3501 72.2318 28.6325 73.7103 27.9141 75.1869C28.3659 75.2717 28.8198 75.3386 29.2748 75.3861C29.269 75.4842 29.2644 75.5826 29.2664 75.6821C29.3055 77.6249 30.4893 79.2755 33.8727 79.0967C35.7443 78.9978 36.066 77.0245 36.0268 75.0817C36.0248 74.9802 36.0163 74.8808 36.0062 74.7823C36.9426 74.5163 37.8623 74.1762 38.7575 73.765C38.8 73.8517 38.8442 73.9377 38.8948 74.0213C39.862 75.6209 43.2176 76.3006 44.8147 75.1855C46.412 74.0705 45.6459 71.5832 44.6787 69.9836C44.6291 69.9016 44.5747 69.825 44.5197 69.7494C45.227 69.0446 45.8893 68.2793 46.5015 67.4583C46.5806 67.5078 46.6609 67.5561 46.7457 67.5989C48.382 68.4268 50.4377 67.6666 51.3373 65.9012C52.2369 64.1359 51.6396 62.0336 50.0034 61.2059C49.9185 61.163 49.8321 61.127 49.7452 61.0926C50.0492 60.1157 50.2785 59.1311 50.4321 58.1464C50.526 58.1461 50.6201 58.1445 50.7157 58.136Z" fill="#92B2EF"/>
<path d="M48.506 67.7984C50.1423 68.6262 52.198 67.8661 53.0976 66.1008C53.9972 64.3354 53.3999 62.2332 51.7636 61.4055C51.6788 61.3625 51.5923 61.3265 51.5055 61.2921C51.8096 60.3152 52.0388 59.3307 52.1925 58.3458C52.2863 58.3455 52.3803 58.344 52.476 58.3354C54.3428 58.1697 55.8245 56.4603 55.7855 54.5175C55.7465 52.5747 54.2013 51.1341 52.3345 51.3C52.2368 51.3087 52.1411 51.324 52.0458 51.3409C51.8508 50.3781 51.5835 49.4377 51.2464 48.5274C51.3323 48.4773 51.4178 48.4255 51.5012 48.3673C53.0983 47.2523 53.6091 45.0518 52.6418 43.4521C51.6745 41.8526 49.5955 41.4597 47.9984 42.5747C47.9166 42.6318 47.8395 42.6936 47.7635 42.7562C47.1327 42.0613 46.4407 41.4173 45.6922 40.8297C45.7448 40.7437 45.7964 40.6566 45.843 40.5652C46.7426 38.7998 46.1453 36.6976 44.509 35.8698C42.8727 35.042 40.817 35.8022 39.9175 37.5675C39.8709 37.659 39.8307 37.7518 39.792 37.8449C38.8741 37.5895 37.944 37.4129 37.0088 37.3155C37.0147 37.2173 37.0192 37.1189 37.0173 37.0194C36.9781 35.0767 35.4331 33.6361 33.5663 33.8019C31.6994 33.9678 30.2177 35.6771 30.2568 37.6198C30.2588 37.7214 30.2674 37.8207 30.2775 37.9194C29.341 38.1853 28.4215 38.5254 27.5262 38.9367C27.4837 38.8501 27.4395 38.764 27.389 38.6803C26.4217 37.0807 24.3428 36.6878 22.7456 37.8028C21.1484 38.9178 20.6378 41.1183 21.6051 42.718C21.6545 42.8 21.7088 42.8766 21.764 42.9522C21.0566 43.657 20.3942 44.4223 19.7822 45.2433C19.703 45.1939 19.6228 45.1455 19.538 45.1026C17.9017 44.2748 15.846 45.0349 14.9465 46.8003C14.0469 48.5657 14.6441 50.668 16.2804 51.4957C16.3652 51.5385 16.4517 51.5746 16.5386 51.6091C16.2345 52.586 16.0052 53.5704 15.8516 54.5553C15.7578 54.5555 15.6637 54.5571 15.568 54.5655C13.7012 54.7314 12.2196 56.4407 12.2586 58.3835C12.2976 60.3264 13.8428 61.7668 15.7096 61.6009C15.8071 61.5924 15.9031 61.577 15.9983 61.5601C16.1933 62.5228 16.4604 63.4634 16.7976 64.3736C16.7117 64.4236 16.6262 64.4754 16.5428 64.5337C14.9456 65.6486 14.435 67.8493 15.4023 69.4488C16.3696 71.0484 18.4485 71.4412 20.0456 70.3263C20.1275 70.2692 20.2045 70.2075 20.2806 70.1449C20.9115 70.8397 21.6033 71.4837 22.3518 72.0714C22.2992 72.1574 22.2477 72.2445 22.2011 72.3359C21.3015 74.1013 21.8987 76.2035 23.535 77.0313C25.1713 77.8591 27.227 77.0989 28.1266 75.3336C28.1732 75.2422 28.2134 75.1492 28.252 75.0562C29.17 75.3115 30.0999 75.4881 31.0352 75.5856C31.0293 75.6837 31.0248 75.782 31.0268 75.8817C31.0659 77.8244 32.611 79.2648 34.4778 79.0991C36.3447 78.9333 37.8264 77.2239 37.7872 75.2812C37.7852 75.1797 37.7766 75.0804 37.7665 74.9818C38.703 74.7159 39.6226 74.3758 40.5178 73.9645C40.5604 74.0511 40.6045 74.1372 40.6551 74.2208C41.6224 75.8204 43.7013 76.2133 45.2985 75.0983C46.8956 73.9833 47.4062 71.7827 46.439 70.1831C46.3894 70.1013 46.3352 70.0246 46.28 69.949C46.9873 69.2442 47.6497 68.4788 48.2618 67.6578C48.341 67.7073 48.4212 67.7555 48.506 67.7984ZM28.1081 68.0562C22.1671 65.0507 19.9987 57.4182 23.2647 51.0084C26.5309 44.5987 33.9947 41.839 39.9357 44.8445C45.8768 47.85 48.0452 55.4826 44.779 61.8924C41.5129 68.3022 34.049 71.0618 28.1081 68.0562Z" fill="#B9D8F6"/>
<path d="M76.7507 33.2737C78.0556 33.9338 79.695 33.3277 80.4125 31.9198C81.1298 30.5119 80.6535 28.8355 79.3486 28.1754C79.281 28.1412 79.212 28.1124 79.1428 28.0849C79.3853 27.3059 79.568 26.5207 79.6906 25.7353C79.7654 25.7351 79.8405 25.7339 79.9167 25.727C81.4055 25.5948 82.5871 24.2318 82.5559 22.6824C82.5247 21.133 81.2926 19.9843 79.8039 20.1165C79.726 20.1234 79.6496 20.1357 79.5736 20.1491C79.4181 19.3813 79.205 18.6314 78.9362 17.9054C79.0047 17.8655 79.0729 17.8242 79.1394 17.7777C80.4131 16.8886 80.8203 15.1337 80.049 13.8581C79.2776 12.5825 77.6197 12.2692 76.3459 13.1583C76.2807 13.2039 76.2193 13.2531 76.1586 13.303C75.6555 12.7489 75.1037 12.2354 74.5067 11.7667C74.5487 11.6981 74.5898 11.6286 74.6269 11.5557C75.3444 10.1478 76.2817 8.60994 74.9667 7.97023C71.9244 6.49041 70.6189 7.75721 69.9015 9.16506C69.8644 9.23801 69.8323 9.312 69.8016 9.38629C69.0695 9.18261 68.3279 9.04179 67.582 8.96407C67.5866 8.88575 67.5902 8.80743 67.5886 8.72798C67.5575 7.17872 68.0188 6.34033 66.5245 6.31129C63.2657 6.2482 62.1662 7.65754 62.1974 9.2068C62.199 9.28781 62.2058 9.36695 62.2139 9.44564C61.4671 9.65776 60.7337 9.92894 60.0198 10.2569C59.9858 10.1879 59.9506 10.1192 59.9104 10.0524C59.139 8.77681 57.4811 8.46353 56.2074 9.35269C54.9337 10.2419 54.5265 11.9968 55.2978 13.2724C55.3373 13.3378 55.3806 13.3989 55.4246 13.4592C54.8605 14.0212 54.3323 14.6315 53.8441 15.2863C53.781 15.2468 53.717 15.2083 53.6494 15.1741C52.3445 14.5139 50.7051 15.1201 49.9877 16.528C49.2704 17.9357 49.7466 19.6122 51.0515 20.2724C51.1191 20.3066 51.1882 20.3353 51.2574 20.3629C51.015 21.1419 50.8321 21.9269 50.7096 22.7124C50.6348 22.7126 50.5598 22.7138 50.4836 22.7206C48.9948 22.8528 47.8132 24.2159 47.8444 25.7654C47.8755 27.3147 49.1077 28.4634 50.5965 28.3311C50.6743 28.3243 50.7507 28.312 50.8267 28.2986C50.9822 29.0664 51.1952 29.8164 51.464 30.5423C51.3956 30.5822 51.3274 30.6235 51.2609 30.67C49.9871 31.5591 49.5799 33.314 50.3513 34.5896C51.1227 35.8652 53.6764 36.4579 54.9502 35.5688C55.0155 35.5232 54.181 35.1946 54.2416 35.1447C54.7447 35.6988 55.2966 36.2124 55.8935 36.681C55.8516 36.7496 55.8105 36.8191 55.7733 36.892C55.0559 38.2999 55.5322 39.9763 56.8372 40.6364C58.142 41.2965 59.7814 40.6905 60.4987 39.2826C60.5359 39.2097 60.568 39.1356 60.5987 39.0614C61.3307 39.265 62.0724 39.4058 62.8183 39.4836C62.8137 39.5618 62.81 39.6402 62.8116 39.7197C62.8428 41.269 64.075 42.4178 65.5637 42.2855C67.0524 42.1533 68.234 40.7901 68.2028 39.2408C68.2012 39.1598 68.1944 39.0807 68.1863 39.0021C68.9331 38.79 69.6665 38.5188 70.3804 38.1908C70.4143 38.2599 70.4496 38.3285 70.4899 38.3952C71.2612 39.6708 72.9191 39.9842 74.1928 39.095C75.4665 38.2059 75.8738 36.451 75.1024 35.1753C75.0629 35.11 75.0196 35.0489 74.9757 34.9886C75.5397 34.4266 76.068 33.8162 76.5561 33.1615C76.6191 33.201 76.6831 33.2394 76.7507 33.2737ZM60.4839 33.4793C55.7461 31.0825 54.0168 24.9958 56.6215 19.8841C59.2262 14.7725 65.1784 12.5717 69.9161 14.9685C74.6539 17.3654 76.3832 23.4521 73.7785 28.5637C71.174 33.6754 65.2218 35.8762 60.4839 33.4793Z" fill="#92B2EF"/>
<path d="M79.916 25.7272C81.4048 25.595 82.5864 24.2318 82.5552 22.6825C82.524 21.1332 81.2919 19.9843 79.8032 20.1166C79.7253 20.1236 79.6489 20.1358 79.5729 20.1492C79.4174 19.3814 79.2043 18.6314 78.9355 17.9056C79.004 17.8657 79.0722 17.8243 79.1387 17.7778C80.4124 16.8887 81.9883 14.7403 81.0896 13.5502C79.3841 11.2916 77.619 12.2692 76.3453 13.1583C76.2801 13.204 76.2187 13.2531 76.158 13.303C75.6549 12.7489 75.1031 12.2354 74.5061 11.7667C74.5481 11.6981 74.5892 11.6286 74.6263 11.5558C75.0168 10.7896 75.0512 9.94476 74.7934 9.22665C73.5631 11.3841 72.3494 13.5507 71.1575 15.7291C74.9372 18.4888 76.1405 23.9273 73.778 28.5638C71.7759 32.4928 67.7963 34.699 63.9105 34.4225C63.7371 34.8705 63.5669 35.3208 63.3814 35.7644C62.8777 36.9682 62.3054 38.1472 61.7324 39.3248C62.0928 39.3925 62.4547 39.4458 62.8176 39.4836C62.8129 39.562 62.8093 39.6404 62.8109 39.7197C62.8421 41.2691 63.7862 42.5854 66.4843 42.4428C67.9769 42.3639 68.2334 40.7902 68.2022 39.2409C68.2006 39.16 68.1938 39.0808 68.1858 39.0021C68.9325 38.79 69.666 38.5188 70.3798 38.1908C70.4137 38.26 70.449 38.3286 70.4893 38.3953C71.2606 39.671 73.9366 40.2129 75.2103 39.3237C76.4841 38.4345 75.8731 36.451 75.1018 35.1753C75.0623 35.11 75.0189 35.0488 74.975 34.9885C75.5391 34.4265 76.0673 33.8161 76.5554 33.1614C76.6185 33.201 76.6826 33.2394 76.7502 33.2735C78.0551 33.9337 79.6944 33.3275 80.4119 31.9197C81.1292 30.5119 80.653 28.8353 79.3481 28.1752C79.2804 28.1411 79.2115 28.1123 79.1423 28.0848C79.3847 27.3058 79.5675 26.5206 79.6901 25.7353C79.7647 25.7352 79.8397 25.7339 79.916 25.7272Z" fill="#92B2EF"/>
<path d="M78.1551 33.4327C79.46 34.0928 81.0994 33.4866 81.8168 32.0788C82.5341 30.6709 82.0578 28.9945 80.7529 28.3344C80.6854 28.3002 80.6163 28.2713 80.5471 28.2439C80.7896 27.4648 80.9724 26.6797 81.0949 25.8943C81.1698 25.8941 81.2448 25.8929 81.3211 25.886C82.8098 25.7538 83.9914 24.3907 83.9603 22.8413C83.9291 21.292 82.6969 20.1432 81.2082 20.2755C81.1303 20.2825 81.0539 20.2946 80.9779 20.3081C80.8224 19.5402 80.6093 18.7903 80.3405 18.0644C80.409 18.0244 80.4772 17.9832 80.5437 17.9367C81.8174 17.0475 82.2246 15.2927 81.4533 14.017C80.6819 12.7414 79.024 12.4281 77.7503 13.3173C77.6851 13.3629 77.6236 13.4121 77.563 13.462C77.0599 12.9079 76.5081 12.3943 75.9112 11.9257C75.9531 11.8571 75.9942 11.7876 76.0314 11.7147C76.7487 10.3067 76.2724 8.63033 74.9675 7.97016C73.6626 7.31006 72.0232 7.91618 71.3059 9.32403C71.2687 9.39697 71.2366 9.47104 71.2059 9.54525C70.4738 9.34157 69.7322 9.20075 68.9863 9.1231C68.991 9.04478 68.9946 8.96639 68.993 8.88702C68.9618 7.33776 67.7297 6.18892 66.2409 6.32115C64.7521 6.45338 63.5704 7.8165 63.6017 9.36576C63.6033 9.44677 63.6102 9.52591 63.6182 9.60461C62.8714 9.81673 62.138 10.0879 61.4242 10.4158C61.3902 10.3468 61.355 10.2781 61.3147 10.2113C60.5434 8.9357 58.8855 8.62242 57.6117 9.51165C56.3379 10.4009 55.9308 12.1557 56.7022 13.4313C56.7417 13.4966 56.7849 13.5578 56.829 13.6181C56.2649 14.1802 55.7366 14.7906 55.2485 15.4452C55.1853 15.4058 55.1214 15.3673 55.0538 15.3331C53.7489 14.6729 52.1095 15.2791 51.3922 16.6869C50.6748 18.0947 51.151 19.7713 52.456 20.4314C52.5236 20.4655 52.5926 20.4943 52.6618 20.5218C52.4193 21.3009 52.2365 22.0859 52.114 22.8713C52.0391 22.8715 51.9641 22.8728 51.8879 22.8795C50.3991 23.0118 49.2175 24.3749 49.2486 25.9242C49.2798 27.4736 50.512 28.6223 52.0008 28.4901C52.0786 28.4832 52.1551 28.4711 52.231 28.4576C52.3865 29.2253 52.5995 29.9754 52.8683 30.7013C52.7999 30.7412 52.7317 30.7824 52.6651 30.8289C51.3914 31.718 50.9842 33.473 51.7556 34.7486C52.527 36.0243 54.1849 36.3375 55.4585 35.4484C55.5238 35.4029 55.5853 35.3537 55.6459 35.3037C56.149 35.8579 56.7008 36.3714 57.2978 36.8401C57.2558 36.9086 57.2147 36.9781 57.1776 37.0511C56.4602 38.4588 56.9364 40.1353 58.2414 40.7955C59.5463 41.4556 61.1857 40.8495 61.903 39.4416C61.9402 39.3687 61.9723 39.2946 62.003 39.2205C62.7351 39.4241 63.4767 39.5649 64.2226 39.6426C64.2179 39.7209 64.2143 39.7993 64.2159 39.8787C64.2471 41.428 65.4793 42.5766 66.968 42.4445C68.4568 42.3123 69.6384 40.9491 69.6072 39.3998C69.6055 39.3189 69.5988 39.2397 69.5907 39.161C70.3375 38.9489 71.0709 38.6777 71.7848 38.3497C71.8187 38.4188 71.8539 38.4875 71.8943 38.5542C72.6656 39.8299 74.3235 40.1432 75.5972 39.254C76.871 38.3648 77.2781 36.6099 76.5068 35.3342C76.4672 35.269 76.424 35.2078 76.38 35.1476C76.944 34.5855 77.4723 33.9752 77.9604 33.3204C78.0235 33.3599 78.0875 33.3985 78.1551 33.4327ZM61.8883 33.6384C57.1504 31.2415 55.4212 25.1548 58.0259 20.0432C60.6305 14.9315 66.5827 12.7308 71.3205 15.1277C76.0583 17.5245 77.7876 23.6113 75.183 28.7228C72.5783 33.8344 66.6261 36.0352 61.8883 33.6384Z" fill="#B9D8F6"/>
<path d="M133.126 178.772C136.164 170.694 139.374 158.423 136.731 144.605C133.265 126.483 122.777 121.623 110.136 94.2746C102.143 76.9822 96.7402 64.8339 102.219 54.2189C106.513 45.9004 116.975 39.5194 125.915 40.8739C133.348 42.0001 140.599 48.606 144.467 53.9643C147.62 58.3312 148.694 62.1003 152.688 63.2525C156.771 64.4301 159.089 61.4858 162.66 62.0889C169.901 63.3121 173.128 77.5768 173.649 79.8822C179.45 105.528 165.919 131.405 159.88 142.622C154.887 151.897 146.58 165.069 133.126 178.772Z" fill="#80A9F9"/>
<mask id="mask0_4980_67460" style="mask-type:luminance" maskUnits="userSpaceOnUse" x="99" y="40" width="77" height="139">
<path d="M133.126 178.772C136.164 170.694 139.374 158.423 136.731 144.605C133.265 126.483 122.777 121.623 110.136 94.2746C102.143 76.9822 96.7402 64.8339 102.219 54.2189C106.513 45.9004 116.975 39.5194 125.915 40.8739C133.348 42.0001 140.599 48.606 144.467 53.9643C147.62 58.3312 148.694 62.1003 152.688 63.2525C156.771 64.4301 159.089 61.4858 162.66 62.0889C169.901 63.3121 173.128 77.5768 173.649 79.8822C179.45 105.528 165.919 131.405 159.88 142.622C154.887 151.897 146.58 165.069 133.126 178.772Z" fill="white"/>
</mask>
<g mask="url(#mask0_4980_67460)">
<g opacity="0.5">
<path d="M128.759 186.192L128.365 185.828C136.351 177.27 142.609 168.672 146.967 160.272C153.392 147.887 155.464 136.286 153.125 125.792C151.293 117.573 146.889 110.29 140.794 100.209C135.929 92.1619 131.752 86.8957 128.066 82.2495C123.25 76.1772 119.445 71.3808 116.39 63.2089C113.29 54.9158 112.013 45.7841 112.596 36.0674L113.133 36.0993C112.554 45.7409 113.82 54.7993 116.894 63.0222C119.919 71.115 123.701 75.882 128.488 81.9174C132.183 86.5763 136.371 91.8566 141.254 99.9329C147.145 109.676 151.799 117.371 153.65 125.676C156.016 136.296 153.928 148.018 147.444 160.518C143.064 168.961 136.778 177.599 128.759 186.192Z" fill="white"/>
<path d="M136.728 94.4514C134.937 94.4514 128.997 94.2418 121.925 91.7402C114.125 88.9808 103.302 82.7906 96.041 68.971L96.517 68.7226C103.692 82.3794 114.381 88.4992 122.084 91.228C129.438 93.8331 135.545 93.9233 136.951 93.9152C134.028 76.4606 137.491 62.9102 140.924 54.5992C144.669 45.5333 149.197 40.5602 149.243 40.511L149.639 40.8728C149.594 40.9214 145.119 45.8407 141.411 54.8266C137.99 63.1173 134.54 76.6661 137.533 94.1306L137.584 94.4287L137.28 94.4431C137.269 94.4436 137.078 94.4514 136.728 94.4514Z" fill="white"/>
<path d="M150.109 116.542L149.939 116.447C149.844 116.393 140.314 111.075 129.714 107.606C119.169 104.157 101.339 109.927 101.16 109.986L100.992 109.477C101.173 109.418 119.171 103.594 129.881 107.098C139.748 110.326 148.69 115.149 150.03 115.885C156.131 110.152 160.357 97.2804 162.256 78.6383C163.705 64.4119 163.29 51.729 163.286 51.6024L163.823 51.5841C163.828 51.7109 164.243 64.4301 162.79 78.6921C160.836 97.8815 156.618 110.572 150.253 116.41L150.109 116.542Z" fill="white"/>
<path d="M149.139 157.122L149.173 156.589C149.522 151.137 148.224 146.256 145.316 142.081C142.984 138.735 139.616 135.828 135.305 133.441C127.941 129.364 120.281 128.21 120.205 128.199L120.283 127.669C120.36 127.68 128.104 128.845 135.553 132.966C142.358 136.73 150.287 143.784 149.739 156.084C151.519 154.868 158.417 149.978 166.2 142.085C174.506 133.661 185.55 119.995 190.989 102.728L201.554 69.1945L202.066 69.3551L191.502 102.889C186.029 120.262 174.925 134.002 166.574 142.47C157.527 151.643 149.666 156.78 149.588 156.831L149.139 157.122Z" fill="white"/>
</g>
</g>
<path d="M134.414 176.506C148.083 176.463 165.491 174.465 182.105 166.779C186.345 164.817 212.538 152.7 209.312 140.79C208.175 136.595 204.348 135.968 202.73 130.386C200.813 123.771 204.96 120.417 207.774 112.121C209.454 107.171 214.369 92.6857 205.609 84.7786C200.375 80.0536 190.495 77.8915 183.008 79.7111C172.028 82.38 168.35 93.092 162.442 111.324C157.205 127.486 158.631 131.427 154.656 143C151.705 151.588 146.107 163.429 134.414 176.506Z" fill="#8DBFE3"/>
<mask id="mask1_4980_67460" style="mask-type:luminance" maskUnits="userSpaceOnUse" x="134" y="79" width="77" height="98">
<path d="M134.414 176.506C148.083 176.463 165.491 174.465 182.105 166.779C186.345 164.817 212.538 152.7 209.312 140.79C208.175 136.595 204.348 135.968 202.73 130.386C200.813 123.771 204.96 120.417 207.774 112.121C209.454 107.171 214.369 92.6857 205.609 84.7786C200.375 80.0536 190.495 77.8915 183.008 79.7111C172.028 82.38 168.35 93.092 162.442 111.324C157.205 127.486 158.631 131.427 154.656 143C151.705 151.588 146.107 163.429 134.414 176.506Z" fill="white"/>
</mask>
<g mask="url(#mask1_4980_67460)">
<g opacity="0.5">
<path d="M99.2996 184.231C91.6595 184.231 83.8387 183.219 75.8965 181.196L76.0295 180.677C91.036 184.5 105.602 184.693 119.325 181.25C137.606 176.663 153.392 165.569 166.245 148.273C179.631 130.261 186.482 110.037 189.873 96.2429C192.22 86.6918 191.644 76.1484 188.16 64.9054L188.673 64.7475C192.187 76.0844 192.766 86.724 190.395 96.3705C186.992 110.212 180.116 130.508 166.677 148.592C153.748 165.989 137.861 177.152 119.456 181.769C112.913 183.41 106.179 184.231 99.2996 184.231Z" fill="white"/>
<path d="M180.865 123.733L180.711 123.547C180.672 123.5 176.79 118.777 173.619 111.539C170.69 104.851 167.781 94.5817 170.561 83.6378L171.083 83.769C168.341 94.5605 171.213 104.702 174.105 111.31C176.892 117.678 180.232 122.077 180.974 123.018C209.788 103.94 209.287 82.4516 208.444 76.309C208.418 76.1208 208.409 76.053 208.409 76.0041H208.947H208.678L208.947 76.001C208.948 76.0358 208.96 76.115 208.977 76.2363C209.833 82.472 210.351 104.316 181.066 123.6L180.865 123.733Z" fill="white"/>
<path d="M177.082 149.132C173.868 149.132 170.395 148.908 166.647 148.397L166.505 148.377L166.442 148.248C166.361 148.083 158.387 131.454 159.874 108.722L161.374 85.7973L161.91 85.8323L160.411 108.757C159.002 130.287 166.128 146.297 166.865 147.885C176.678 149.207 190.809 149.305 202.69 142.368C209.812 138.21 212.769 133.438 212.798 133.39L213.258 133.668C213.228 133.717 210.199 138.605 202.962 142.83C197.69 145.908 189.258 149.132 177.082 149.132Z" fill="white"/>
</g>
</g>
<path d="M142.453 182.634C142.418 181.25 142.337 173.092 148.366 168.093C153.412 163.909 159.998 164.213 161.523 164.283C167.666 164.567 169.188 167.402 172.967 166.111C177.455 164.578 177.767 159.74 181.352 159.625C183.824 159.546 186.293 161.765 187.049 164.057C188.376 168.081 184.745 173.292 180.518 175.35C174.694 178.185 170.875 173.509 163.989 176.377C159.988 178.044 160.066 180.128 155.877 181.988C151.013 184.148 145.985 183.523 142.453 182.634Z" fill="#B9D8F6"/>
<mask id="mask2_4980_67460" style="mask-type:luminance" maskUnits="userSpaceOnUse" x="142" y="159" width="46" height="25">
<path d="M142.453 182.634C142.418 181.25 142.337 173.092 148.366 168.093C153.412 163.909 159.998 164.213 161.523 164.283C167.666 164.567 169.188 167.402 172.967 166.111C177.455 164.578 177.767 159.74 181.352 159.625C183.824 159.546 186.293 161.765 187.049 164.057C188.376 168.081 184.745 173.292 180.518 175.35C174.694 178.185 170.875 173.509 163.989 176.377C159.988 178.044 160.066 180.128 155.877 181.988C151.013 184.148 145.985 183.523 142.453 182.634Z" fill="white"/>
</mask>
<g mask="url(#mask2_4980_67460)">
<g opacity="0.5">
<path d="M140.532 185.697L140.318 185.534C142.383 182.848 144.639 180.253 147.025 177.823C151.804 172.956 154.201 170.514 157.122 169.492C160.92 168.163 163.883 169.236 166.749 170.273C169.289 171.193 171.688 172.062 174.56 171.286C179.119 170.054 182.785 165.076 185.456 156.49L185.712 156.57C183.013 165.248 179.284 170.286 174.63 171.544C171.676 172.343 169.239 171.46 166.657 170.525C163.836 169.504 160.919 168.448 157.211 169.745C154.35 170.746 151.967 173.173 147.219 178.009C144.839 180.433 142.589 183.019 140.532 185.697Z" fill="white"/>
<path d="M180.215 172.167C179.721 172.167 179.276 172.141 178.88 172.1C176.737 171.881 175.594 171.216 175.547 171.188L175.508 171.165L175.491 171.123C173.592 166.419 176.674 159.635 176.706 159.567L176.95 159.679C176.919 159.746 173.904 166.384 175.722 170.979C176.18 171.222 180.666 173.405 188.105 169.994L188.217 170.237C184.899 171.758 182.178 172.167 180.215 172.167Z" fill="white"/>
<path d="M171.929 179.415C169.951 173.812 157.255 169.786 157.127 169.746L157.012 169.71L157.035 169.593C157.438 167.547 159.717 166.13 163.807 165.381C166.822 164.829 169.758 164.865 169.789 164.865L169.785 165.133C169.673 165.134 158.403 165.02 157.324 169.528C157.935 169.727 160.842 170.702 163.912 172.225C168.549 174.526 171.332 176.915 172.183 179.326L171.929 179.415Z" fill="white"/>
<path d="M163.645 181.562C160.206 173.557 147.798 177.484 147.673 177.525L147.522 177.574L147.498 177.417C146.38 169.819 153.236 162.931 153.305 162.863L153.495 163.053C153.427 163.12 146.758 169.821 147.743 177.224C149.199 176.793 160.567 173.72 163.892 181.456L163.645 181.562Z" fill="white"/>
</g>
</g>
<path d="M217.953 188.195L6.43359 186.399V191.714C6.43359 193.157 7.35616 194.384 8.60559 194.603L68.4171 205.07C69.1269 205.194 69.8468 205.227 70.563 205.168L215.655 193.234C216.95 193.127 217.953 191.897 217.953 190.414V188.195Z" fill="#26264F"/>
<path d="M141.194 179.677L8.62144 189.401C6.24915 189.575 4.32031 187.726 4.32031 185.271V86.903C4.32031 84.4477 6.24915 82.4573 8.62144 82.4573H141.194C143.149 82.4573 144.729 84.2566 144.729 86.4762V175.399C144.729 177.619 143.149 179.534 141.194 179.677Z" fill="#26264F"/>
<path d="M143.308 179.677L10.7348 189.401C8.36244 189.575 6.43359 187.726 6.43359 185.271V86.9029C6.43359 84.4476 8.36244 82.4572 10.7348 82.4572H143.308C145.262 82.4572 146.842 84.2565 146.842 86.476V175.399C146.842 177.618 145.262 179.534 143.308 179.677Z" fill="#444B8C"/>
<path d="M139.178 173.408L15.7005 181.855C13.77 181.987 12.2012 180.469 12.2012 178.465V92.3432C12.2012 90.3388 13.77 88.7071 15.7005 88.6989L139.178 88.1685C140.79 88.1615 142.095 89.6359 142.095 91.4616V169.903C142.095 171.728 140.79 173.298 139.178 173.408Z" fill="#8DBFE3"/>
<path d="M81.7037 85.1478C81.7037 86.0618 81.0213 86.8049 80.1787 86.8076C79.335 86.8102 78.6504 86.0698 78.6504 85.1537C78.6504 84.2376 79.335 83.4945 80.1787 83.4939C81.0213 83.4933 81.7037 84.2338 81.7037 85.1478Z" fill="white"/>
<path opacity="0.48" d="M10.7343 189.401L142.636 179.726L143.308 179.677C144.204 179.611 145.02 179.17 145.643 178.5C136.151 177.982 130.255 174.626 126.452 171.158C118.815 164.193 120.14 157.325 111.904 152.746C101.631 147.035 93.5538 154.272 85.7586 147.131C81.0328 142.802 83.353 139.574 77.5378 133.105C71.0971 125.94 66.9039 128.348 60.4311 121.9C52.2468 113.746 56.3401 107.402 49.2903 101.548C40.7378 94.4455 31.5144 101.019 23.3732 94.2078C19.8617 91.2701 17.935 86.9993 16.929 82.4572H10.7348C8.36251 82.4572 6.43359 84.4476 6.43359 86.9029V185.271C6.43359 187.726 8.36206 189.575 10.7343 189.401Z" fill="white"/>
<path d="M148.592 179.138L6.43359 189.373L68.4171 200.221C69.1269 200.345 69.8468 200.378 70.563 200.319L217.953 188.195L150.853 179.207C150.103 179.107 149.346 179.083 148.592 179.138Z" fill="#444B8C"/>
<path d="M27.1777 189.461L145.528 180.813L182.157 185.68L64.8258 194.925L27.1777 189.461Z" fill="#26264F"/>
<path d="M159.768 153.241C159.768 164.124 150.858 173.51 139.714 174.215L15.5703 182.069C28.6973 181.239 39.1792 171.009 39.1792 159.207V23.4512L159.768 28.048L159.768 153.241Z" fill="#F3F5F9"/>
<path d="M55.0635 102.606L47.6855 102.587L47.689 47.9088L55.0847 48.1218L55.0635 102.606Z" fill="#80A9F9"/>
<path d="M69.6645 102.643L62.1094 102.624L62.1354 65.388L69.7029 65.5435L69.6645 102.643Z" fill="#80A9F9"/>
<path d="M83.7858 102.679L76.334 102.66L76.3961 55.8875L83.8631 56.0765L83.7858 102.679Z" fill="#80A9F9"/>
<path d="M97.7144 102.715L90.9102 102.697L90.9831 65.7181L97.7981 65.859L97.7144 102.715Z" fill="#80A9F9"/>
<path d="M111.99 102.751L104.473 102.732L104.541 76.1711L112.066 76.2889L111.99 102.751Z" fill="#80A9F9"/>
<path d="M125.275 102.785L118.654 102.768L118.823 49.9572L125.459 50.1482L125.275 102.785Z" fill="#80A9F9"/>
<path d="M139.169 102.82L132.115 102.802L132.175 87.1422L139.233 87.2155L139.169 102.82Z" fill="#80A9F9"/>
<path d="M152.357 102.854L145.396 102.836L145.58 60.965L152.552 61.1297L152.357 102.854Z" fill="#80A9F9"/>
<path d="M152.282 118.588L47.6836 119.153L47.684 113.811L152.306 113.515L152.282 118.588Z" fill="#80A9F9"/>
<path d="M152.1 157.574L47.6816 160.195L47.6819 154.873L152.124 152.519L152.1 157.574Z" fill="#80A9F9"/>
<path d="M97.8597 38.5978L47.6895 36.8877L47.6898 31.2386L97.8722 33.0852L97.8597 38.5978Z" fill="#80A9F9"/>
<path opacity="0.5" d="M87.0368 126.011L87.0014 145.628L46.2598 146.379V126.372L87.0368 126.011Z" fill="#80A9F9"/>
<path d="M46.2598 138.055V146.379L87.0013 145.628L87.0288 130.36C84.5632 129.534 81.8292 129.092 79.6742 130.456C75.1667 133.311 75.7251 134.927 71.0399 134.176C67.3796 133.589 63.3084 133.054 60.1781 135.432C58.241 136.903 57.2417 138.466 54.4559 138.271C51.8377 138.088 48.6781 136.367 46.2598 138.055Z" fill="#80A9F9"/>
<path d="M152.234 128.981L96.8398 129.571L96.8479 125.924L152.251 125.433L152.234 128.981Z" fill="#80A9F9"/>
<path d="M152.199 136.579L96.8223 137.381L96.8298 133.997L152.214 133.287L152.199 136.579Z" fill="#80A9F9"/>
<path d="M152.16 144.425L96.8027 145.447L96.8108 141.805L152.177 140.882L152.16 144.425Z" fill="#80A9F9"/>
<path d="M197.914 127.079L198.252 126.089C198.79 124.51 197.905 122.826 196.275 122.332L132.373 102.936L130.426 109.512L194.005 129.024C195.626 129.522 197.377 128.652 197.914 127.079Z" fill="#444B8C"/>
<path d="M68.8729 85.1196C73.7587 65.8869 92.9044 54.2963 111.839 59.7284C131.121 65.2602 142.16 86.0769 136.301 105.7C130.581 124.862 110.962 135.199 92.6549 129.287C74.6642 123.477 64.0982 103.915 68.8729 85.1196ZM130.74 104.002C135.581 87.5802 126.343 70.1867 110.242 65.5193C94.3834 60.9225 78.2719 70.5711 74.1145 86.7194C70.0367 102.558 78.9412 119.067 94.1322 123.93C109.548 128.865 125.993 120.101 130.74 104.002Z" fill="#444B8C"/>
<path opacity="0.3" d="M132.373 102.936L140.521 105.409C141.08 107.998 142.167 109.482 143.261 110.385C147.376 113.785 152.872 110.077 160.539 114.063C164.386 116.063 163.655 117.336 167.261 118.732C173.223 121.039 175.952 117.843 181.229 119.943C186.565 122.067 187.091 126.658 190.118 126.493C191.413 126.423 193.08 125.484 194.939 121.926L196.275 122.332C197.905 122.826 198.79 124.51 198.252 126.089L197.914 127.079C197.377 128.652 195.626 129.522 194.005 129.024L130.426 109.512L132.373 102.936Z" fill="#D8DEE8"/>
<path opacity="0.56" d="M92.6239 126.562C108.57 131.675 125.595 122.621 130.518 105.962C135.543 88.9556 125.976 70.9385 109.296 66.1124C92.8759 61.3619 76.2085 71.3632 71.9163 88.0756C67.7092 104.456 76.9185 121.526 92.6239 126.562Z" fill="white"/>
<path d="M67.6346 86.769C72.5204 67.5363 91.6661 55.9458 110.601 61.3778C129.882 66.9096 140.922 87.7264 135.063 107.349C129.342 126.511 109.724 136.849 91.4166 130.937C73.426 125.127 62.8599 105.564 67.6346 86.769ZM129.501 105.652C134.343 89.2296 125.105 71.8361 109.003 67.1688C93.1451 62.572 77.0337 72.2206 72.8762 88.3688C68.7985 104.207 77.703 120.716 92.894 125.58C108.31 130.515 124.755 121.75 129.501 105.652Z" fill="#444B8C"/>
<path d="M69.486 87.3339C74.1166 69.1922 92.1905 58.2922 110.035 63.4304C128.188 68.6575 138.589 88.2595 133.094 106.748C127.72 124.827 109.225 134.611 91.9387 129.046C74.9347 123.572 64.9549 105.086 69.486 87.3339ZM129.502 105.652C134.344 89.2296 125.106 71.8361 109.004 67.1688C93.1459 62.572 77.0345 72.2206 72.8769 88.3688C68.7992 104.207 77.7037 120.716 92.8947 125.58C108.311 130.515 124.756 121.75 129.502 105.652Z" fill="#444B8C"/>
</svg>
