<svg xmlns="http://www.w3.org/2000/svg" width="175" height="54" fill="none"><path fill="#131313" d="M0 .27h175v53.46H0z"/><path fill="#fff" d="M43.085 27.477a5.73 5.73 0 0 1 2.727-4.804 5.86 5.86 0 0 0-4.618-2.497c-1.944-.204-3.828 1.163-4.818 1.163-1.01 0-2.535-1.143-4.176-1.109a6.15 6.15 0 0 0-5.176 3.157c-2.238 3.875-.57 9.57 1.575 12.702 1.073 1.534 2.326 3.246 3.967 3.186 1.605-.067 2.204-1.024 4.143-1.024 1.919 0 2.481 1.024 4.154.986 1.722-.029 2.808-1.541 3.843-3.09a12.7 12.7 0 0 0 1.757-3.578 5.53 5.53 0 0 1-3.378-5.092m-3.161-9.362a5.64 5.64 0 0 0 1.29-4.039 5.74 5.74 0 0 0-3.712 1.921 5.37 5.37 0 0 0-1.324 3.889 4.74 4.74 0 0 0 3.746-1.771m15.756 2.884v-5.93h-2.172v-.976h5.412v.976h-2.168v5.93zm8.228-1.407a2.115 2.115 0 0 1-2.26 1.508 2.37 2.37 0 0 1-2.406-2.691 2.404 2.404 0 0 1 2.403-2.722c1.45 0 2.324.99 2.324 2.627v.359h-3.68v.058a1.377 1.377 0 0 0 1.389 1.492 1.25 1.25 0 0 0 1.239-.631zm-3.618-1.678h2.632a1.257 1.257 0 0 0-1.283-1.352 1.334 1.334 0 0 0-1.349 1.35zm.736-2.998 1.201-1.646h1.206l-1.344 1.646zm4.372-1.164h1.028V21h-1.028zm7.123 5.84a2.115 2.115 0 0 1-2.258 1.508 2.37 2.37 0 0 1-2.407-2.691 2.404 2.404 0 0 1 2.403-2.722c1.45 0 2.325.99 2.325 2.627v.359h-3.68v.058a1.377 1.377 0 0 0 1.388 1.492 1.25 1.25 0 0 0 1.238-.631zm-3.618-1.678h2.632a1.257 1.257 0 0 0-1.282-1.352 1.334 1.334 0 0 0-1.35 1.35zm.738-2.998 1.2-1.646h1.207l-1.345 1.646zm7.735 2.574a1.16 1.16 0 0 0-1.23-.884c-.862 0-1.39.66-1.39 1.77 0 1.13.533 1.806 1.39 1.806a1.133 1.133 0 0 0 1.23-.857h1a2.04 2.04 0 0 1-2.225 1.774 2.393 2.393 0 0 1-2.446-2.722 2.378 2.378 0 0 1 2.44-2.69 2.057 2.057 0 0 1 2.232 1.803zm2.365-3.738h1.02v2.872h.08a1.605 1.605 0 0 1 1.59-.932 1.716 1.716 0 0 1 1.794 1.942v3.365h-1.03v-3.11c0-.834-.386-1.255-1.113-1.255a1.22 1.22 0 0 0-1.312 1.321V21h-1.03zm5.778 5.772c0-.937.698-1.479 1.937-1.555l1.412-.08v-.451c0-.55-.363-.861-1.067-.861-.574 0-.972.21-1.085.579h-.995c.104-.895.946-1.47 2.129-1.47 1.305 0 2.041.651 2.041 1.752v3.56h-.99v-.732h-.08a1.75 1.75 0 0 1-1.566.818 1.575 1.575 0 0 1-1.736-1.56m3.35-.445v-.435l-1.274.08c-.717.05-1.042.294-1.042.753 0 .469.407.74.966.74a1.23 1.23 0 0 0 1.35-1.138m2.633-3.29h.99v.798h.077a1.41 1.41 0 0 1 1.407-.885q.232-.002.459.043v1.015a3 3 0 0 0-.574-.063 1.22 1.22 0 0 0-1.331 1.227V21h-1.028zm3.878 5.732h1.053c.087.378.52.622 1.215.622.857 0 1.366-.407 1.366-1.096v-1h-.078a1.75 1.75 0 0 1-1.608.875c-1.331 0-2.153-1.027-2.153-2.588 0-1.59.831-2.632 2.163-2.632a1.8 1.8 0 0 1 1.637.919h.08v-.833h.986v5.254c0 1.192-.933 1.948-2.407 1.948-1.302 0-2.144-.584-2.254-1.47m3.652-3.192c0-1.038-.537-1.704-1.413-1.704-.885 0-1.381.666-1.381 1.704 0 1.04.497 1.703 1.381 1.703.882 0 1.413-.66 1.413-1.703m7.054 1.264a2.116 2.116 0 0 1-2.257 1.508 2.37 2.37 0 0 1-2.326-1.676 2.4 2.4 0 0 1-.081-1.015 2.4 2.4 0 0 1 1.402-2.513c.314-.14.655-.212.999-.209 1.45 0 2.326.99 2.326 2.627v.359h-3.68v.058a1.37 1.37 0 0 0 .364 1.053 1.38 1.38 0 0 0 1.024.44 1.25 1.25 0 0 0 1.238-.632zm-3.618-1.678h2.633a1.26 1.26 0 0 0-.771-1.256 1.3 1.3 0 0 0-.512-.096 1.33 1.33 0 0 0-.959.391 1.34 1.34 0 0 0-.391.96m5.062-2.126h.989v.798h.077a1.41 1.41 0 0 1 1.407-.885q.232-.002.459.043v1.015a3 3 0 0 0-.574-.063 1.223 1.223 0 0 0-1.33 1.227V21h-1.029zm6.638 2.604c0-1.648.846-2.69 2.163-2.69a1.72 1.72 0 0 1 1.597.913h.077v-2.863h1.029v7.245h-.986v-.822h-.081a1.81 1.81 0 0 1-1.636.908c-1.326 0-2.164-1.041-2.164-2.694zm1.062 0c0 1.104.521 1.77 1.392 1.77.867 0 1.403-.676 1.403-1.767 0-1.085-.542-1.77-1.403-1.77-.865 0-1.392.672-1.392 1.767m5.194 1.134c0-.938.699-1.48 1.938-1.557l1.412-.08v-.45c0-.552-.364-.862-1.067-.862-.574 0-.972.21-1.086.579h-.996c.105-.895.947-1.47 2.13-1.47 1.306 0 2.042.652 2.042 1.752V21h-.989v-.732h-.081a1.75 1.75 0 0 1-1.566.819 1.573 1.573 0 0 1-1.736-1.56zm3.35-.447v-.435l-1.273.08c-.717.05-1.042.294-1.042.753 0 .469.406.74.966.74a1.23 1.23 0 0 0 1.349-1.138m2.634-3.291h.99v.827h.077a1.56 1.56 0 0 1 1.555-.928 1.696 1.696 0 0 1 1.803 1.939V21h-1.027v-3.116c0-.838-.365-1.255-1.125-1.255a1.194 1.194 0 0 0-1.187.813 1.2 1.2 0 0 0-.057.507V21h-1.029zm7.922-.1c1.171 0 1.937.544 2.037 1.463h-.986c-.094-.382-.468-.627-1.053-.627-.572 0-1.009.273-1.009.68 0 .312.263.508.829.636l.865.201c.991.231 1.455.656 1.455 1.423 0 .98-.914 1.636-2.158 1.636-1.24 0-2.048-.56-2.14-1.484h1.03a1.06 1.06 0 0 0 1.134.65c.64 0 1.096-.287 1.096-.703 0-.311-.244-.512-.766-.637l-.908-.21c-.992-.235-1.451-.68-1.451-1.455 0-.924.846-1.574 2.025-1.574M55.15 24.89h2.153v14.37h-2.152zm4.746 5.257 1.174-5.257h2.091l-1.423 5.258zm11.396 5.231h-5.477l-1.316 3.883h-2.32l5.189-14.371h2.41l5.188 14.37h-2.36zm-4.91-1.794h4.342l-2.141-6.304h-.06zm19.789.44c0 3.254-1.743 5.346-4.372 5.346a3.55 3.55 0 0 1-3.297-1.833h-.05v5.19h-2.15V28.786h2.08v1.743h.041a3.71 3.71 0 0 1 3.335-1.852c2.66 0 4.413 2.103 4.413 5.35m-2.21 0c0-2.122-1.096-3.518-2.77-3.518-1.643 0-2.748 1.423-2.748 3.518 0 2.11 1.105 3.524 2.748 3.524 1.674 0 2.77-1.383 2.77-3.524m13.74 0c0 3.254-1.742 5.346-4.371 5.346a3.55 3.55 0 0 1-3.297-1.833h-.05v5.19h-2.15V28.786h2.083v1.743h.039a3.72 3.72 0 0 1 3.336-1.852c2.66 0 4.412 2.102 4.412 5.349zm-2.21 0c0-2.122-1.096-3.518-2.768-3.518-1.643 0-2.748 1.423-2.748 3.518 0 2.11 1.105 3.524 2.748 3.524 1.672 0 2.768-1.383 2.768-3.524m9.832 1.233c.16 1.425 1.544 2.36 3.436 2.36 1.812 0 3.116-.935 3.116-2.22 0-1.115-.786-1.783-2.648-2.24l-1.864-.45c-2.638-.636-3.863-1.871-3.863-3.874 0-2.48 2.161-4.183 5.23-4.183 3.037 0 5.117 1.704 5.188 4.183h-2.171c-.13-1.435-1.316-2.3-3.048-2.3-1.733 0-2.918.876-2.918 2.15 0 1.016.757 1.615 2.61 2.072l1.583.389c2.949.698 4.173 1.883 4.173 3.984 0 2.688-2.141 4.372-5.548 4.372-3.187 0-5.338-1.643-5.477-4.243zm13.467-8.952v2.479h1.993v1.704h-1.993v5.776c0 .897.399 1.315 1.275 1.315q.355-.005.706-.05v1.693a5.8 5.8 0 0 1-1.193.1c-2.121 0-2.949-.796-2.949-2.828V30.49h-1.524v-1.706h1.524v-2.477zm3.145 7.719c0-3.298 1.941-5.37 4.97-5.37 3.037 0 4.97 2.072 4.97 5.37 0 3.305-1.923 5.37-4.97 5.37s-4.97-2.065-4.97-5.37m7.748 0c0-2.262-1.036-3.597-2.778-3.597-1.743 0-2.778 1.345-2.778 3.597 0 2.27 1.035 3.594 2.778 3.594 1.742 0 2.778-1.323 2.778-3.594m3.965-5.24h2.051v1.783h.049a2.5 2.5 0 0 1 2.521-1.893q.372 0 .737.081v2.011a3 3 0 0 0-.966-.13 2.17 2.17 0 0 0-2.148 1.489 2.2 2.2 0 0 0-.094.922v6.215h-2.15zm15.272 7.4c-.289 1.903-2.141 3.209-4.511 3.209-3.048 0-4.94-2.043-4.94-5.32 0-3.286 1.902-5.417 4.849-5.417 2.899 0 4.721 1.99 4.721 5.168v.737h-7.399v.13a2.726 2.726 0 0 0 2.819 2.968 2.37 2.37 0 0 0 2.419-1.474zm-7.27-3.126h5.238a2.53 2.53 0 0 0-1.556-2.471 2.5 2.5 0 0 0-1.013-.189 2.65 2.65 0 0 0-2.669 2.66"/></svg>