<svg width="861.333" height="255.209" xmlns="http://www.w3.org/2000/svg">
    <defs>
        <clipPath clipPathUnits="userSpaceOnUse" id="prefix__a">
            <path d="M0 2207.03h6460V292.961H0z" />
        </clipPath>
        <clipPath clipPathUnits="userSpaceOnUse" id="prefix__b">
            <path d="M0 2207.04h6460V292.961H0z" />
        </clipPath>
    </defs>
    <g clip-path="url(#prefix__a)" transform="matrix(.13333 0 0 -.13333 0 294.27)">
        <path
            d="M6220.74 292.969H239.262C107.668 292.969 0 400.629 0 532.23v1435.55c0 131.6 107.668 239.26 239.262 239.26H6220.74c131.59 0 239.26-107.66 239.26-239.26V532.23c0-131.601-107.67-239.261-239.26-239.261"
            fill="#100f0d" />
        <path
            d="M6220.74 2207.03H239.262C107.668 2207.03 0 2099.36 0 1967.77V532.219c0-131.598 107.668-239.258 239.262-239.258H6220.74c131.59 0 239.26 107.66 239.26 239.258V1967.77c0 131.59-107.67 239.26-239.26 239.26m0-38.28c110.83 0 200.98-90.15 200.98-200.98V532.219c0-110.828-90.15-200.981-200.98-200.981H239.262c-110.828 0-200.977 90.153-200.977 200.981V1967.77c0 110.83 90.149 200.98 200.977 200.98H6220.74"
            fill="#a2a2a1" />
        <path
            d="M5117.09 771.48h89.29v598.19h-89.29zm804.24 382.72l-102.35-259.36h-3.07l-106.23 259.36h-96.18l159.3-362.481-90.82-201.649h93.12l245.53 564.13zm-506.36-314.77c-29.29 0-70.06 14.64-70.06 50.808 0 46.184 50.77 63.844 94.65 63.844 39.24 0 57.71-8.473 81.59-20-6.94-55.422-54.65-94.652-106.18-94.652m10.76 327.83c-64.65 0-131.64-28.47-159.34-91.54l79.28-33.12c16.94 33.12 48.48 43.89 81.59 43.89 46.18 0 93.12-27.71 93.89-76.95v-6.17c-16.17 9.23-50.82 23.06-93.12 23.06-85.42 0-172.41-46.942-172.41-134.649 0-80.062 70.05-131.601 148.53-131.601 60.05 0 93.12 26.898 113.94 58.48h3.06v-46.18h86.18v229.36c0 106.18-79.24 165.42-181.6 165.42m-551.83-85.89h-127v205.09h127c66.76 0 104.65-55.32 104.65-102.55 0-46.37-37.89-102.54-104.65-102.54m-2.29 288.3h-213.95V771.48h89.24v226.622h124.71c98.96 0 196.24 71.688 196.24 185.808 0 114.13-97.28 185.76-196.24 185.76M3704.93 839.328c-61.68 0-113.31 51.633-113.31 122.551 0 71.681 51.63 124.131 113.31 124.131 60.91 0 108.67-52.45 108.67-124.131 0-70.918-47.76-122.551-108.67-122.551m102.5 281.372h-3.06c-20.05 23.88-58.57 45.51-107.14 45.51-101.79 0-195.05-89.44-195.05-204.331 0-114.078 93.26-202.75 195.05-202.75 48.57 0 87.09 21.582 107.14 46.269h3.06v-29.277c0-77.902-41.59-119.492-108.67-119.492-54.75 0-88.67 39.293-102.55 72.453l-77.86-32.402c22.35-53.969 81.74-120.25 180.41-120.25 104.84 0 193.51 61.679 193.51 211.992v365.438h-84.84zm146.47-349.22h89.44v598.24h-89.44zm221.27 197.34c-2.29 78.67 60.91 118.72 106.37 118.72 35.51 0 65.56-17.71 75.56-43.16zm277.54 67.85c-16.99 45.51-68.62 129.54-174.23 129.54-104.84 0-191.93-82.5-191.93-203.569 0-114.071 86.33-203.512 201.94-203.512 93.31 0 147.23 57.043 169.63 90.199l-69.38 46.274c-23.17-33.922-54.75-56.274-100.25-56.274-45.47 0-77.86 20.82-98.68 61.633l272.14 112.599zm-2168.07 67.04v-86.32h206.58c-6.18-48.57-22.35-84.031-46.99-108.671-30.1-30.098-77.14-63.219-159.59-63.219-127.24 0-226.67 102.5-226.67 229.74 0 127.19 99.43 229.69 226.67 229.69 68.62 0 118.72-26.94 155.71-61.63l60.91 60.86c-51.67 49.34-120.25 87.14-216.62 87.14-174.23 0-320.7-141.88-320.7-316.06 0-174.279 146.47-316.111 320.7-316.111 94.03 0 164.95 30.871 220.45 88.672 57.04 57.039 74.8 137.187 74.8 201.979 0 20.05-1.54 38.52-4.65 53.93zm530.1-264.382c-61.63 0-114.84 50.871-114.84 123.313 0 73.269 53.21 123.369 114.84 123.369 61.68 0 114.89-50.1 114.89-123.369 0-72.442-53.21-123.313-114.89-123.313m0 326.882c-112.55 0-204.28-85.61-204.28-203.569 0-117.141 91.73-203.512 204.28-203.512s204.33 86.371 204.33 203.512c0 117.959-91.78 203.569-204.33 203.569m445.69-326.882c-61.67 0-114.89 50.871-114.89 123.313 0 73.269 53.22 123.369 114.89 123.369 61.69 0 114.85-50.1 114.85-123.369 0-72.442-53.16-123.313-114.85-123.313m0 326.882c-112.54 0-204.28-85.61-204.28-203.569 0-117.141 91.74-203.512 204.28-203.512 112.55 0 204.28 86.371 204.28 203.512 0 117.959-91.73 203.569-204.28 203.569"
            fill="#fff" />
        <path
            d="M991.355 1277.56L481.879 736.828c.047-.09.047-.238.098-.328 15.644-58.719 69.238-101.93 132.882-101.93 25.457 0 49.336 6.891 69.817 18.95l1.625.96 573.459 330.891-268.405 292.189"
            fill="#eb3131" />
        <path
            d="M1506.77 1369.63l-.48.34-247.59 143.51-278.927-248.21L1259.7 985.43l246.25 142.07c43.16 23.36 72.5 68.86 72.5 121.31 0 52.16-28.91 97.42-71.68 120.82"
            fill="#f6b60b" />
        <path
            d="M481.871 1763.11c-3.066-11.29-4.691-23.16-4.691-35.41V772.191c0-12.25 1.625-24.113 4.738-35.363l526.942 526.902-526.989 499.38"
            fill="#5778c5" />
        <path
            d="M995.121 1249.95l263.659 263.62-572.784 332.09c-20.816 12.49-45.125 19.67-71.109 19.67-63.641 0-117.332-43.31-132.981-102.07 0-.05-.047-.1-.047-.15l513.262-513.16"
            fill="#3bad49" />
    </g>
    <g clip-path="url(#prefix__b)" fill="#fff" transform="matrix(.13333 0 0 -.13333 0 294.27)">
        <path
            d="M2093.55 1621.88c33.86 0 60.16 9.36 78.89 28.09 18.73 18.74 28.1 44.61 28.1 77.64s-9.37 58.92-28.1 77.65c-18.73 18.73-45.03 28.1-78.89 28.1h-48.3v-211.48zm-94.09 254.78h95.34c30.81 0 57.66-6.25 80.55-18.74 22.9-12.49 40.52-30.04 52.87-52.66 12.36-22.63 18.53-48.5 18.53-77.65 0-29.14-6.17-55.02-18.53-77.64-12.35-22.62-29.97-40.17-52.87-52.66-22.89-12.49-49.74-18.73-80.55-18.73h-95.34v298.08M2306.28 1876.66h45.79v-298.08h-45.79v298.08M2447.82 1593.56c-19.7 14.43-33.44 34.69-41.21 60.78l43.29 17.49c4.45-16.65 12.36-30.26 23.73-40.8 11.38-10.55 25.12-15.82 41.22-15.82 14.98 0 27.69 3.88 38.09 11.66 10.41 7.77 15.61 18.45 15.61 32.05 0 12.49-4.58 22.83-13.74 31.02-9.16 8.19-24.98 16.17-47.46 23.94l-18.73 6.66c-20.26 7.21-37.12 17.28-50.58 30.18-13.46 12.91-20.19 30.04-20.19 51.42 0 14.7 3.96 28.31 11.87 40.79 7.91 12.49 19 22.34 33.3 29.56 14.29 7.22 30.46 10.83 48.5 10.83 25.81 0 46.49-6.32 62.03-18.94 15.54-12.64 26.09-26.86 31.65-42.68l-41.23-17.49c-2.77 10-8.6 18.6-17.48 25.82-8.88 7.21-20.4 10.82-34.56 10.82-13.59 0-25.11-3.61-34.55-10.82-9.43-7.22-14.15-16.38-14.15-27.48 0-10.27 4.23-18.8 12.7-25.6 8.45-6.81 21.57-13.25 39.33-19.36l19.15-6.66c25.54-8.89 45.24-20.4 59.13-34.55 13.87-14.16 20.81-33.04 20.81-56.62 0-19.43-4.93-35.74-14.78-48.92-9.85-13.19-22.48-22.96-37.88-29.35-15.41-6.38-31.16-9.57-47.26-9.57-24.7 0-46.9 7.21-66.61 21.64M2777.96 1737.61c15.26 0 27.54 4.78 36.84 14.36 9.3 9.58 13.95 20.74 13.95 33.51s-4.65 23.94-13.95 33.52c-9.3 9.57-21.58 14.36-36.84 14.36h-57.87v-95.75zm-103.66 139.05h102.41c17.76 0 34.06-3.89 48.92-11.66 14.84-7.78 26.64-18.6 35.39-32.47 8.74-13.89 13.11-29.57 13.11-47.05 0-17.48-4.37-33.16-13.11-47.04-8.75-13.88-20.55-24.71-35.39-32.47-14.86-7.77-31.16-11.66-48.92-11.66h-56.62v-115.73h-45.79v298.08M3122.03 1629.57c16.52 9.58 29.56 22.9 39.13 39.97 9.58 17.07 14.37 36.43 14.37 58.07 0 21.66-4.79 41.01-14.37 58.08-9.57 17.07-22.61 30.39-39.13 39.97-16.51 9.57-34.76 14.36-54.74 14.36-19.99 0-38.24-4.79-54.75-14.36-16.51-9.58-29.55-22.9-39.13-39.97-9.57-17.07-14.37-36.42-14.37-58.08 0-21.64 4.8-41 14.37-58.07 9.58-17.07 22.62-30.39 39.13-39.97 16.51-9.57 34.76-14.36 54.75-14.36 19.98 0 38.23 4.79 54.74 14.36zm-133.43-36.84c-23.59 13.88-42.12 32.68-55.57 56.41-13.47 23.74-20.2 49.89-20.2 78.47 0 28.59 6.73 54.75 20.2 78.48 13.45 23.73 31.98 42.53 55.57 56.41 23.59 13.88 49.82 20.82 78.69 20.82 28.86 0 55.01-6.94 78.47-20.82 23.45-13.88 41.91-32.68 55.37-56.41 13.46-23.73 20.19-49.89 20.19-78.48 0-28.58-6.73-54.73-20.19-78.47-13.46-23.73-31.92-42.53-55.37-56.41-23.46-13.88-49.61-20.81-78.47-20.81-28.87 0-55.1 6.93-78.69 20.81M3280.43 1876.66h54.12l134.88-218.99h2.5l-2.5 57.46v161.53h45.38v-298.08h-47.46l-141.54 230.22h-2.5l2.5-57.46v-172.76h-45.38v298.08M3590.17 1876.66h45.79v-298.08h-45.79v298.08M3827.47 1621.04c14.42 0 26.02 4.37 34.76 13.11 8.74 8.75 13.11 19.22 13.11 31.43 0 12.22-4.51 22.76-13.52 31.64-9.03 8.89-21.03 13.33-36.02 13.33h-69.11v-89.51zm-7.08 130.3c13.88 0 24.98 4.23 33.3 12.71 8.33 8.46 12.49 18.24 12.49 29.34 0 11.1-4.1 20.75-12.27 28.94-8.2 8.18-18.81 12.28-31.86 12.28h-65.36v-83.27zm-109.49 125.32h111.57c15.82 0 30.53-3.48 44.13-10.41 13.6-6.94 24.36-16.45 32.27-28.52 7.91-12.07 11.86-25.47 11.86-40.18s-3.68-27.54-11.03-38.5c-7.36-10.97-17.14-19.36-29.36-25.19v-2.08c15.55-5.28 27.9-14.02 37.06-26.23 9.15-12.21 13.73-26.64 13.73-43.3 0-16.37-4.23-30.87-12.69-43.5-8.47-12.63-19.85-22.48-34.14-29.56-14.3-7.07-29.91-10.61-46.83-10.61H3710.9v298.08M3981.49 1876.66h45.8v-254.78h128.22v-43.3h-174.02v298.08M4203.81 1876.66h180.68v-43.3H4249.6v-84.09h121.56v-43.3H4249.6v-84.09h134.89v-43.3h-180.68v298.08M4558.91 1593.56c-19.71 14.43-33.45 34.69-41.21 60.78l43.29 17.49c4.44-16.65 12.35-30.26 23.73-40.8 11.37-10.55 25.11-15.82 41.22-15.82 14.98 0 27.68 3.88 38.08 11.66 10.41 7.77 15.62 18.45 15.62 32.05 0 12.49-4.58 22.83-13.74 31.02-9.16 8.19-24.98 16.17-47.46 23.94l-18.73 6.66c-20.27 7.21-37.12 17.28-50.59 30.18-13.46 12.91-20.18 30.04-20.18 51.42 0 14.7 3.95 28.31 11.86 40.79 7.91 12.49 19 22.34 33.3 29.56 14.3 7.22 30.46 10.83 48.51 10.83 25.81 0 46.48-6.32 62.03-18.94 15.54-12.64 26.08-26.86 31.64-42.68l-41.22-17.49c-2.77 10-8.6 18.6-17.48 25.82-8.89 7.21-20.4 10.82-34.56 10.82-13.6 0-25.12-3.61-34.55-10.82-9.44-7.22-14.15-16.38-14.15-27.48 0-10.27 4.23-18.8 12.69-25.6 8.46-6.81 21.57-13.25 39.34-19.36l19.15-6.66c25.54-8.89 45.23-20.4 59.12-34.55 13.88-14.16 20.81-33.04 20.81-56.62 0-19.43-4.92-35.74-14.78-48.92-9.85-13.19-22.48-22.96-37.88-29.35-15.41-6.38-31.16-9.57-47.25-9.57-24.71 0-46.91 7.21-66.61 21.64M4832.22 1586.9c-17.07 9.99-30.26 24.15-39.55 42.47-9.31 18.31-13.95 39.55-13.95 63.69v183.6h45.37v-186.1c0-22.48 5.83-40.65 17.49-54.53 11.65-13.89 28.17-20.82 49.54-20.82 21.65 0 38.3 6.93 49.95 20.82 11.66 13.88 17.49 32.05 17.49 54.53v186.1h45.39v-183.6c0-23.87-4.58-44.96-13.74-63.28-9.16-18.31-22.21-32.54-39.14-42.67-16.93-10.13-36.92-15.19-59.95-15.19-22.2 0-41.84 4.99-58.9 14.98M5178.37 1737.61c14.43 0 26.57 4.57 36.43 13.73 9.85 9.16 14.78 20.68 14.78 34.56 0 12.76-4.51 23.94-13.53 33.51-9.02 9.58-21.02 14.37-36.01 14.37h-59.12v-96.17zm-103.24 139.05h104.49c18.04 0 34.35-3.89 48.92-11.66 14.57-7.78 26.08-18.6 34.56-32.47 8.45-13.89 12.69-29.57 12.69-47.05 0-19.98-6.45-37.68-19.35-53.07-12.91-15.41-29.09-25.75-48.51-31.02l-.42-2.08 82.02-118.23v-2.5h-52.87l-79.52 116.98h-36.22v-116.98h-45.79v298.08" />
    </g>
</svg>