<svg xmlns="http://www.w3.org/2000/svg" width="175" height="54" fill="none"><path fill="#131313" d="M0 0h175v54H0z"/><path fill="#fff" d="M87.763 29.462c-2.582 0-4.69 1.965-4.69 4.673s2.105 4.671 4.69 4.671c2.584 0 4.69-1.983 4.69-4.671s-2.106-4.673-4.69-4.673m0 7.503c-1.416 0-2.637-1.168-2.637-2.83s1.22-2.832 2.637-2.832c1.416 0 2.635 1.15 2.635 2.832 0 1.683-1.221 2.83-2.635 2.83m-10.23-7.503c-2.583 0-4.69 1.965-4.69 4.673s2.105 4.671 4.69 4.671c2.584 0 4.689-1.983 4.689-4.671s-2.107-4.673-4.69-4.673m0 7.503c-1.414 0-2.635-1.168-2.635-2.83s1.22-2.832 2.635-2.832 2.637 1.15 2.637 2.832c0 1.683-1.221 2.83-2.637 2.83m-12.168-6.069v1.981h4.742c-.142 1.116-.512 1.928-1.079 2.495-.69.691-1.77 1.45-3.663 1.45-2.92 0-5.203-2.352-5.203-5.272s2.281-5.272 5.203-5.272c1.575 0 2.725.617 3.574 1.414l1.398-1.398c-1.187-1.131-2.761-2-4.972-2-3.998 0-7.361 3.258-7.361 7.256s3.363 7.256 7.361 7.256c2.158 0 3.785-.71 5.061-2.036 1.309-1.308 1.717-3.15 1.717-4.637 0-.459-.034-.883-.105-1.237zm49.766 1.538c-.391-1.044-1.575-2.972-3.999-2.972s-4.405 1.893-4.405 4.673c0 2.619 1.981 4.671 4.635 4.671 2.141 0 3.378-1.308 3.893-2.07l-1.593-1.063c-.533.778-1.256 1.292-2.3 1.292-1.045 0-1.788-.477-2.266-1.414l6.246-2.584-.211-.53zm-6.37 1.559c-.053-1.807 1.398-2.725 2.442-2.725.815 0 1.506.406 1.736.992l-4.176 1.735zm-5.08 4.528h2.053v-13.73h-2.053zm-3.362-8.015h-.071c-.46-.549-1.345-1.044-2.46-1.044-2.336 0-4.475 2.052-4.475 4.69 0 2.636 2.142 4.652 4.476 4.652 1.116 0 2-.496 2.459-1.063h.071v.672c0 1.789-.955 2.743-2.495 2.743-1.256 0-2.037-.902-2.353-1.661l-1.788.743c.511 1.24 1.875 2.762 4.14 2.762 2.406 0 4.442-1.417 4.442-4.867v-8.387h-1.946v.762zm-2.353 6.46c-1.416 0-2.6-1.185-2.6-2.813 0-1.627 1.183-2.848 2.6-2.848 1.416 0 2.495 1.203 2.495 2.848 0 1.646-1.097 2.812-2.495 2.812m26.78-12.173h-4.91v13.73h2.047v-5.2h2.863c2.272 0 4.503-1.646 4.503-4.265 0-2.62-2.233-4.265-4.503-4.265m.053 6.617h-2.916v-4.707h2.916c1.533 0 2.403 1.269 2.403 2.352 0 1.084-.87 2.353-2.403 2.353m12.665-1.972c-1.483 0-3.02.655-3.656 2.1l1.82.76c.388-.76 1.113-1.007 1.873-1.007 1.06 0 2.137.636 2.155 1.765v.142c-.372-.211-1.166-.53-2.137-.53-1.96 0-3.957 1.077-3.957 3.092 0 1.838 1.609 3.02 3.409 3.02 1.379 0 2.137-.617 2.614-1.342h.071v1.06h1.979V33.23c0-2.438-1.818-3.797-4.168-3.797m-.248 7.524c-.673 0-1.609-.335-1.609-1.166 0-1.06 1.166-1.464 2.173-1.464.9 0 1.325.195 1.873.459a2.484 2.484 0 0 1-2.437 2.174m11.623-7.226-2.35 5.954h-.071l-2.438-5.954h-2.208l3.656 8.32-2.084 4.628h2.137l5.635-12.948h-2.279zm-18.459 8.784h2.05V24.79h-2.05z"/><path fill="#E43629" d="m35.683 26.907-11.695 12.41v.007a3.155 3.155 0 0 0 3.05 2.34c.586 0 1.132-.16 1.603-.435l.037-.023 13.163-7.595-6.16-6.707z"/><path fill="#F9BD00" d="m47.512 24.793-.011-.007-5.683-3.294-6.402 5.697 6.425 6.423 5.65-3.262a3.16 3.16 0 0 0 1.665-2.784 3.15 3.15 0 0 0-1.646-2.773"/><path fill="#587DBE" d="M23.989 15.762q-.107.39-.108.812v21.932q0 .423.108.813l12.094-12.094-12.097-11.463z"/><path fill="#30A043" d="m35.768 27.542 6.053-6.051-13.148-7.623a3.163 3.163 0 0 0-4.685 1.891v.003l11.782 11.78z"/><path fill="#fff" d="M58.822 13.157h2.188q1.06 0 1.85.429.788.429 1.214 1.21.426.778.425 1.78t-.425 1.782a3 3 0 0 1-1.214 1.21q-.788.429-1.85.429h-2.188v-6.843zm2.16 5.848q1.167 0 1.811-.645.645-.645.645-1.781 0-1.137-.645-1.781-.644-.645-1.81-.645h-1.11v4.854h1.11zm4.881-5.849h1.052V20h-1.052zm3.249 6.498q-.678-.496-.946-1.395l.994-.402c.1.381.285.695.544.936q.392.364.946.363.516 0 .874-.268a.87.87 0 0 0 .358-.737.92.92 0 0 0-.314-.712q-.317-.283-1.09-.548l-.43-.154a3.2 3.2 0 0 1-1.161-.693q-.465-.444-.464-1.18 0-.507.273-.937a1.9 1.9 0 0 1 .765-.68Q69.954 13 70.574 13q.888 0 1.423.434.535.433.725.98l-.945.402a1.15 1.15 0 0 0-.402-.593q-.305-.248-.794-.248c-.326 0-.576.083-.794.248a.76.76 0 0 0-.324.632.72.72 0 0 0 .291.587q.293.235.902.445l.441.154q.878.307 1.357.794.478.488.477 1.3.001.668-.34 1.122a2.05 2.05 0 0 1-.87.675q-.53.22-1.085.22a2.53 2.53 0 0 1-1.529-.495zm5.198-6.498h2.35q.615 0 1.123.269.51.268.813.746.3.48.3 1.079c0 .399-.1.762-.3 1.078-.202.32-.47.567-.813.746q-.513.27-1.122.269h-1.3v2.656h-1.05zm2.38 3.19q.527 0 .845-.33.32-.329.32-.769 0-.439-.32-.769t-.844-.33h-1.33v2.196h1.33zm4.835 3.326a3.47 3.47 0 0 1-1.276-1.294 3.6 3.6 0 0 1-.464-1.802q0-.984.464-1.802a3.49 3.49 0 0 1 3.083-1.772q.993 0 1.801.477.806.48 1.272 1.295.465.816.464 1.802 0 .983-.464 1.802a3.48 3.48 0 0 1-3.073 1.772 3.5 3.5 0 0 1-1.807-.478m3.062-.844q.57-.33.897-.919.33-.587.331-1.333 0-.746-.33-1.334a2.4 2.4 0 0 0-.898-.918 2.46 2.46 0 0 0-1.255-.33q-.686 0-1.256.33a2.4 2.4 0 0 0-.897.918q-.33.588-.331 1.334 0 .745.33 1.333t.898.919q.57.33 1.256.33.685 0 1.255-.33m3.636-5.672h1.242l3.096 5.027h.057l-.057-1.32v-3.707h1.042V20h-1.09l-3.248-5.284h-.058l.058 1.32V20h-1.042zm7.111.001h1.051V20h-1.051zm2.77 0h2.562q.543 0 1.012.239.469.237.741.654.274.416.274.923 0 .505-.253.883c-.17.253-.392.446-.675.579v.048q.535.182.852.602.314.42.314.993c0 .384-.096.71-.291.999q-.292.434-.783.68a2.4 2.4 0 0 1-1.074.243h-2.677v-6.843zm2.514 2.876q.478 0 .764-.291a.94.94 0 0 0 .287-.673.9.9 0 0 0-.282-.663q-.282-.282-.733-.282h-1.501v1.912h1.462zm.163 2.991q.495 0 .798-.3.3-.3.301-.721a.98.98 0 0 0-.31-.726q-.31-.306-.826-.305h-1.587v2.054h1.626zm3.535-5.867h1.051v5.849h2.942V20h-3.993zm5.102 0h4.148v.994h-3.097v1.93h2.791v.994h-2.791v1.93h3.097V20h-4.148zm8.151 6.498q-.678-.496-.946-1.395l.994-.402q.154.573.544.936.392.364.946.363.516 0 .874-.268a.87.87 0 0 0 .358-.737.92.92 0 0 0-.314-.712q-.316-.283-1.09-.548l-.43-.154a3.2 3.2 0 0 1-1.161-.693q-.465-.444-.464-1.18 0-.507.273-.937a1.9 1.9 0 0 1 .765-.68q.493-.247 1.113-.247.888 0 1.423.434.535.433.725.98l-.945.402a1.15 1.15 0 0 0-.402-.593q-.305-.248-.794-.248c-.326 0-.576.083-.794.248a.77.77 0 0 0-.326.632.72.72 0 0 0 .291.587q.293.235.902.445l.439.154q.877.307 1.356.794.478.488.478 1.3 0 .668-.34 1.122a2.05 2.05 0 0 1-.87.675q-.53.22-1.086.22a2.52 2.52 0 0 1-1.528-.495zm6.272.152a2.3 2.3 0 0 1-.909-.975q-.32-.632-.319-1.462v-4.215h1.042v4.272q0 .775.402 1.25.402.479 1.136.478c.489 0 .879-.158 1.148-.477q.402-.48.401-1.251v-4.272h1.042v4.215q0 .822-.314 1.453-.316.629-.898.98-.582.348-1.377.349c-.53 0-.959-.115-1.352-.345zm5.577-6.65h2.399q.62 0 1.122.269.502.268.794.746.292.48.292 1.079-.001.689-.446 1.218-.445.53-1.113.712l-.009.048 1.882 2.713V20h-1.214l-1.825-2.686h-.831V20h-1.051zm2.369 3.19q.496 0 .835-.314.339-.315.34-.794 0-.44-.31-.769-.31-.33-.826-.33h-1.357v2.208h1.32z"/></svg>