<svg width="187" height="187" viewBox="0 0 187 187" fill="none" xmlns="http://www.w3.org/2000/svg">
<path d="M185.971 105.681C187.679 92.5541 186.572 79.2141 182.725 66.5481C178.877 53.8821 172.378 42.1803 163.657 32.221C154.937 22.2617 144.196 14.2732 132.149 8.78666C120.102 3.30013 107.025 0.44136 93.788 0.400469L93.6152 56.3502C98.9102 56.3666 104.141 57.5101 108.96 59.7047C113.779 61.8993 118.075 65.0947 121.563 69.0784C125.051 73.0621 127.651 77.7428 129.19 82.8093C130.729 87.8757 131.171 93.2117 130.488 98.4624L185.971 105.681Z" fill="#000091"/>
<path d="M81.2701 186.095C93.4101 187.701 105.748 186.9 117.578 183.738C129.409 180.576 140.5 175.115 150.22 167.666C159.94 160.217 168.098 150.927 174.227 140.326C180.357 129.725 184.338 118.02 185.945 105.88L130.478 98.542C129.835 103.398 128.243 108.08 125.791 112.32C123.339 116.561 120.076 120.277 116.188 123.256C112.3 126.236 107.863 128.42 103.131 129.685C98.399 130.95 93.464 131.27 88.608 130.628L81.2701 186.095Z" fill="#000091" fill-opacity="0.6"/>
<path d="M3.35976 117.531C8.08434 135.364 17.9925 151.395 31.8305 163.596C45.6686 175.797 62.8146 183.618 81.0993 186.072L88.5397 130.619C81.2259 129.637 74.3674 126.509 68.8322 121.628C63.297 116.748 59.3337 110.336 57.4439 103.202L3.35976 117.531Z" fill="#000091" fill-opacity="0.4"/>
<path d="M25.3319 30.0208C14.5247 41.5989 6.84464 55.7388 3.01583 71.1072C-0.812977 86.4756 -0.664299 102.566 3.44784 117.861L57.4791 103.334C55.8343 97.2164 55.7748 90.7803 57.3063 84.6329C58.8379 78.4855 61.9099 72.8296 66.2328 68.1983L25.3319 30.0208Z" fill="#000091" fill-opacity="0.2"/>
<path d="M93.5 0.400024C80.7076 0.400024 68.0521 3.03209 56.3205 8.13251C44.5889 13.2329 34.0322 20.6926 25.3069 30.0476L66.2228 68.2091C69.7129 64.4671 73.9355 61.4832 78.6282 59.443C83.3208 57.4029 88.383 56.35 93.5 56.35V0.400024Z" fill="#000091" fill-opacity="0.1"/>
</svg>
