<svg xmlns="http://www.w3.org/2000/svg" width="187" height="187" fill="none"><path fill="#000091" d="M185.971 105.681A93.253 93.253 0 0 0 93.788.401l-.173 55.95a37.3 37.3 0 0 1 35.575 26.458 37.3 37.3 0 0 1 1.298 15.653z"/><path fill="#000091" fill-opacity=".6" d="M81.27 186.095a93.25 93.25 0 0 0 104.675-80.215l-55.467-7.338a37.3 37.3 0 0 1-41.87 32.086z"/><path fill="#000091" fill-opacity=".4" d="M3.36 117.531a93.25 93.25 0 0 0 77.74 68.541l7.44-55.453a37.3 37.3 0 0 1-31.096-27.417z"/><path fill="#000091" fill-opacity=".2" d="M25.332 30.02a93.25 93.25 0 0 0-21.884 87.841l54.031-14.527a37.3 37.3 0 0 1 8.754-35.136z"/><path fill="#000091" fill-opacity=".1" d="M93.5.4a93.25 93.25 0 0 0-68.193 29.648l40.916 38.161A37.3 37.3 0 0 1 93.5 56.35z"/></svg>