<svg width="165" height="216" viewBox="0 0 165 216" fill="none" xmlns="http://www.w3.org/2000/svg">
    <g>
        <rect width="165" height="216" fill="#F7F8FC"/>
        <path d="M162.883 94.402C163.309 95.303 163.412 96.4084 163.083 97.3646L153.43 125.458C152.553 128.012 149.182 131.186 148.756 132.426C148.184 134.091 148.658 138.381 147.937 140.478C146.952 143.346 142.336 147.903 142.336 147.903C140.853 152.221 139.774 154.721 138.902 156.099L139.395 156.05L138.21 157.015C138.046 157.184 137.89 157.308 137.737 157.4L137.723 157.411L137.725 157.407C136.966 157.855 136.33 157.417 135.582 156.909C133.778 155.684 132.6 154.938 136.402 143.873C136.402 143.873 136.072 135.958 137.058 133.09C137.779 130.993 140.464 128.849 141.036 127.184C141.462 125.944 141.135 120.258 142.012 117.704L151.665 89.6118C152.191 88.0818 153.615 87.53 154.86 88.3743L158.324 90.726L161.787 93.0781C162.254 93.3946 162.626 93.8615 162.883 94.402Z" fill="#7F97C3"/>
        <path d="M189.158 67.1932C190.733 69.5901 191.268 72.489 190.347 74.9551L180.363 101.699C180.041 102.562 179.567 103.298 178.98 103.898L179.527 103.837L178.015 104.694C177.763 104.861 177.5 105.012 177.224 105.142L177.223 105.143C175.169 106.108 172.51 106.003 169.983 104.61L160.064 99.2006L141.908 89.2972L131.991 83.8877C127.714 81.5549 126.084 76.8419 128.334 73.3198L143.597 49.4561C144.216 48.4865 145.064 47.7122 146.057 47.1459L146.055 47.1452L146.119 47.1086L147.686 46.2148L147.617 46.464C150.001 45.7031 152.859 45.9344 155.378 47.3081L157.215 48.3104L183.452 62.6216L185.29 63.6234C186.894 64.4976 188.213 65.7554 189.158 67.1932ZM181.728 66.1441C181.395 65.5817 180.907 65.0871 180.316 64.7647L175.013 61.8721L162.631 55.1186L157.329 52.2263C155.978 51.4899 154.231 51.7297 153.411 52.7647L152.355 54.0971C151.535 55.1323 151.962 56.5587 153.313 57.2951L160.953 61.4621L170.997 66.9412L178.637 71.1083C179.988 71.8452 181.351 71.3949 181.694 70.0996L182.134 68.4324C182.328 67.7036 182.156 66.8672 181.728 66.1441Z" fill="#373F5E"/>
        <path d="M184.05 64.889C184.101 64.973 184.149 65.0582 184.192 65.1448C184.543 65.8379 184.667 66.6081 184.482 67.3049L184.043 68.9632C183.858 69.6602 183.379 70.1523 182.76 70.3547C182.439 70.4597 182.085 70.4864 181.717 70.4347C181.774 70.3208 181.823 70.1989 181.86 70.0663C182.134 70.0936 182.393 70.0685 182.624 69.9932C183.115 69.8322 183.492 69.4572 183.649 68.8662L184.087 67.2093C184.243 66.6188 184.128 65.9323 183.813 65.308C183.498 64.6842 182.984 64.1229 182.346 63.7795L177.004 60.9094L164.532 54.2078L159.191 51.3388C157.913 50.6523 156.262 50.8891 155.513 51.8263L155.467 51.8849C155.274 51.8931 155.085 51.9157 154.901 51.9543L155.188 51.5937C156.084 50.4721 157.947 50.2304 159.39 51.0057L164.731 53.8756L177.203 60.5761L182.544 63.4462C183.175 63.7871 183.695 64.3015 184.05 64.889ZM147.596 46.3381L147.528 46.5858C147.558 46.5764 147.589 46.5691 147.619 46.5596C146.833 47.0766 146.157 47.7355 145.646 48.5309L130.359 72.2607C128.169 75.6638 129.768 80.2248 133.992 82.4943L143.982 87.8602L162.269 97.6871L172.261 103.055L172.261 103.056C174.368 104.198 176.55 104.441 178.378 103.931C178.678 103.847 178.967 103.741 179.246 103.618C179.24 103.624 179.235 103.631 179.229 103.636L179.779 103.575L178.487 104.3C176.543 104.84 174.25 104.574 172.061 103.387L162.071 98.0186L143.783 88.1924L133.794 82.8239C129.402 80.4645 127.694 75.6602 130.012 72.0583L145.297 48.3293C145.612 47.8395 145.987 47.4005 146.405 47.01L147.596 46.3381Z" fill="#505A79"/>
        <path fill-rule="evenodd" clip-rule="evenodd" d="M148.616 93.7459L146.736 94.9335L148.226 96.5879L148.616 93.7459Z" fill="#7F97C3"/>
        <path d="M152.424 87.8048C152.366 87.9254 152.312 88.0511 152.269 88.1878L143.21 116.705C142.818 117.938 142.72 120.008 142.682 121.913C142.664 122.865 142.659 123.779 142.633 124.539C142.607 125.298 142.57 125.892 142.449 126.271C142.154 127.2 141.346 128.168 140.533 129.2C139.719 130.231 138.901 131.317 138.584 132.316C138.145 133.695 138.032 136.414 138.046 138.759C138.06 141.103 138.188 143.086 138.188 143.086C138.191 143.12 138.187 143.154 138.176 143.185C136.396 148.792 135.817 151.773 135.899 153.428C135.94 154.255 136.132 154.74 136.42 155.114C136.709 155.488 137.111 155.749 137.572 156.047C138.034 156.344 138.438 156.6 138.82 156.661C138.964 156.684 139.106 156.682 139.252 156.645C139.235 156.674 139.217 156.706 139.2 156.735L139.695 156.673L139.203 157.094C139.061 157.117 138.921 157.119 138.784 157.097C138.315 157.023 137.881 156.733 137.42 156.436C136.96 156.139 136.52 155.864 136.175 155.417C135.83 154.969 135.599 154.351 135.554 153.445C135.465 151.64 136.07 148.647 137.842 143.061C137.839 143.016 137.713 141.086 137.7 138.751C137.686 136.388 137.776 133.674 138.262 132.142C138.621 131.012 139.468 129.919 140.284 128.884C141.1 127.849 141.885 126.86 142.128 126.098C142.207 125.849 142.262 125.256 142.287 124.508C142.313 123.762 142.319 122.847 142.338 121.89C142.375 119.975 142.457 117.891 142.889 116.531L151.948 88.0146C151.964 87.963 151.985 87.9163 152.003 87.867C152.139 87.8309 152.281 87.8108 152.424 87.8048Z" fill="#ACBFE0"/>
        <path d="M163.633 91.4632C164.877 92.3081 165.455 94.2197 164.929 95.75L155.277 123.842C154.399 126.397 151.028 129.571 150.602 130.811C150.03 132.476 150.504 136.765 149.783 138.863C148.798 141.73 144.182 146.287 144.182 146.287C140.38 157.352 139.232 156.519 137.428 155.294C135.624 154.069 134.446 153.323 138.248 142.257C138.248 142.257 137.918 134.342 138.903 131.475C139.624 129.378 142.309 127.233 142.881 125.568C143.307 124.328 142.98 118.643 143.858 116.089L153.511 87.9963C154.037 86.4663 155.461 85.9145 156.705 86.7588L160.169 89.1111L163.633 91.4632Z" fill="#9AB2D4"/>
        <path d="M160.564 111.896L155.851 121.49L141.543 117.988C141.697 117.036 141.907 116.153 142.225 115.506L145.776 108.275L160.564 111.896Z" fill="#ACBFE0"/>
        <path d="M163.137 91.1746L152.612 121.934L155.28 123.743L155.239 123.864C155.182 124.029 155.114 124.197 155.039 124.367L152.117 122.387L151.843 122.201L151.844 122.199C151.844 122.199 151.843 122.199 151.842 122.198L151.951 121.88L162.586 90.8005L163.137 91.1746ZM160.37 89.2983L137.704 155.535C137.614 155.475 137.522 155.414 137.428 155.35C137.334 155.285 137.243 155.224 137.152 155.161L159.817 88.924L160.093 89.1114L160.37 89.2983ZM157.601 87.4217L146.966 118.501L146.857 118.819C146.857 118.819 146.856 118.818 146.855 118.818L146.854 118.82L146.58 118.634L143.659 116.654C143.706 116.464 143.757 116.285 143.813 116.119L143.855 115.998L146.523 117.807L157.048 87.0478L157.601 87.4217ZM150.566 130.864C150.501 131.059 150.45 131.29 150.41 131.547L149.528 130.949L144.313 146.189C144.246 146.256 144.171 146.332 144.171 146.332C142.73 150.544 141.671 153.03 140.812 154.431L149.085 130.254L149.194 129.936C149.194 129.936 149.195 129.937 149.196 129.938L149.197 129.936L149.471 130.121L150.566 130.864ZM144.21 126.557L144.101 126.875L135.828 151.051C136.071 149.233 136.792 146.519 138.233 142.306C138.233 142.306 138.229 142.176 138.224 142.06L143.439 126.82L142.557 126.222C142.674 126.018 142.771 125.818 142.839 125.625L143.934 126.367L144.208 126.553L144.207 126.555C144.208 126.556 144.21 126.557 144.21 126.557Z" fill="#7F97C3"/>
        <path d="M164.972 93.2885C165.254 94.1057 165.283 95.034 164.987 95.8502L160.914 107.08L148.019 103.375L152.932 89.8296L164.972 93.2885ZM151.239 128.87C150.694 129.534 150.258 130.104 150.121 130.483C149.524 132.128 149.948 136.391 149.196 138.464C148.761 139.665 147.666 141.156 146.549 142.479L137.519 139.885C137.515 137.396 137.614 132.991 138.334 131.005C138.943 129.328 140.846 127.635 141.866 126.177L151.239 128.87Z" fill="#879FC9"/>
        <path d="M162.175 92.0584L157.646 105.891L157.021 105.726L161.551 91.8928L162.175 92.0584ZM159.046 91.2295L154.517 105.062L153.892 104.896L158.422 91.0639L159.046 91.2295ZM155.917 90.3994L151.387 104.232L150.763 104.066L155.292 90.2338L155.917 90.3994ZM150.538 130.671L150.537 130.673C150.475 130.869 150.427 131.101 150.39 131.359L149.499 130.769L145.675 142.447L145.051 142.282L149.048 130.077L149.152 129.757C149.153 129.757 149.154 129.758 149.155 129.758L149.155 129.756L149.432 129.939L150.538 130.671ZM147.075 127.785L142.546 141.617L141.922 141.452L146.452 127.619L147.075 127.785ZM143.947 126.956L139.417 140.788L138.793 140.623L143.322 126.79L143.947 126.956Z" fill="#7185B5"/>
        <path d="M187.118 62.0196C191.393 64.3532 193.647 69.409 192.172 73.355L182.188 100.107C180.713 104.053 176.075 105.369 171.809 103.018L161.894 97.606L143.744 87.6997L133.829 82.2883C129.554 79.9547 127.925 75.2403 130.175 71.7173L145.438 47.8469C147.688 44.3239 152.942 43.3654 157.216 45.6988L159.053 46.7009L185.282 61.017L187.118 62.0196ZM182.146 63.1614L176.845 60.2678L164.468 53.5119L159.166 50.6183C157.816 49.8817 156.069 50.1216 155.249 51.1571L154.194 52.4897C153.374 53.5253 153.801 54.9515 155.151 55.6887L162.789 59.8572L172.829 65.3374L180.467 69.5064C181.817 70.243 183.18 69.7932 183.522 68.4975L183.963 66.8299C184.307 65.5343 183.496 63.898 182.146 63.1614Z" fill="#505A79"/>
        <path fill-rule="evenodd" clip-rule="evenodd" d="M140.707 57.6064C143.041 72.6164 173.161 91.4173 188.875 89.1129L184.637 100.346C183.204 104.136 178.435 105.435 173.962 103.22L163.567 98.1222L144.539 88.7902L134.145 83.6925C129.663 81.4941 127.862 76.9944 130.107 73.6029L140.707 57.6064Z" fill="#414C6D"/>
        <path d="M129.56 77.4106C128.651 80.4299 130.855 83.8358 135.05 85.5002L146.141 89.9003L166.445 97.9552L177.536 102.355C181.725 104.034 185.942 103.163 187.717 100.483L187.678 100.6C186.491 104.215 181.677 105.615 176.903 103.701L165.812 99.3013L145.508 91.2458L134.418 86.8458C129.636 84.9483 127.44 80.7878 129.494 77.5166L129.56 77.4106Z" fill="#373F5E"/>
        <path d="M189.883 61.9986C190.18 62.4727 190.438 62.9677 190.651 63.4751C191.506 65.5061 191.669 67.7505 190.93 69.7671L186.611 81.5686C186.307 82.3366 184.796 82.2448 185.172 80.8962L189.442 69.2283L189.441 69.2272C190.021 67.6458 189.871 65.7842 189.15 64.0734C188.428 62.3623 187.134 60.803 185.429 59.8276L183.826 58.9093L175.117 53.9278C173.998 53.2491 174.101 51.7025 175.885 52.5534L184.616 57.5477L186.218 58.4654C187.74 59.3364 188.992 60.5762 189.883 61.9986Z" fill="#778EA9"/>
        <path d="M156.748 111.22L152.06 120.921L151.355 120.743L156.043 111.041L156.748 111.22ZM153.213 110.33L148.525 120.032L147.82 119.854L152.508 110.153L153.213 110.33ZM149.678 109.439L145.55 117.979L145.413 118.264C145.413 118.264 145.412 118.262 145.41 118.262L145.409 118.264L145.103 118.086L141.833 116.194C141.836 116.185 141.84 116.177 141.842 116.168C141.857 116.128 141.872 116.089 141.887 116.05C141.89 116.044 141.892 116.039 141.894 116.033C141.903 116.009 141.912 115.985 141.921 115.963C141.933 115.935 141.945 115.908 141.957 115.881C141.981 115.825 142.005 115.768 142.03 115.715L142.031 115.715L142.063 115.647L142.083 115.606L145.07 117.335L148.971 109.261L149.678 109.439Z" fill="#97AAD6"/>
        <path d="M49.8409 122.071C51.5301 121.025 53.8658 121.574 54.9121 123.263L55.4936 124.202C55.5361 124.271 55.4753 124.172 55.5039 124.221C55.5337 124.268 55.4747 124.172 55.5161 124.239C55.5161 124.24 55.5167 124.24 55.5167 124.24L55.6006 124.375C56.2989 124.142 56.9966 123.904 57.6924 123.654C60.4923 120.897 62.384 115.76 70.9356 110.464C71.2355 110.278 71.5336 110.1 71.8298 109.929C71.8298 109.929 71.8298 109.929 71.8304 109.929C71.8967 109.891 71.9156 109.881 71.8864 109.897C72.4563 109.57 73.0244 109.269 73.5895 108.994C73.5068 109.034 73.5305 109.021 73.6619 108.957C75.1759 108.227 76.6856 107.677 78.2276 107.408C79.3212 107.217 80.4106 107.099 81.4891 107.04C81.7056 107.028 81.9216 107.02 82.1345 107.012C82.5627 106.998 82.9903 106.993 83.4149 106.995C83.6266 106.996 83.8382 106.999 84.0493 107.005C85.104 107.032 86.1417 107.107 87.1569 107.216C87.9696 107.304 88.767 107.414 89.5468 107.54C89.9367 107.603 90.3224 107.67 90.7037 107.74C92.6155 108.092 94.371 108.524 95.9939 108.945C99.8357 107.474 102.884 106.312 105.237 105.684C105.519 105.608 105.78 105.546 106.021 105.491C106.32 105.423 106.611 105.366 106.896 105.318C107.016 105.299 107.135 105.281 107.253 105.265C107.331 105.254 107.462 105.234 107.664 105.216C107.764 105.207 107.864 105.203 107.964 105.203C108.322 105.206 108.636 105.245 108.895 105.29C108.898 105.29 108.9 105.29 108.903 105.291C108.904 105.291 108.906 105.291 108.907 105.291L108.91 105.292C108.952 105.299 108.994 105.308 109.035 105.317C109.038 105.318 109.039 105.318 109.042 105.319C109.17 105.344 109.298 105.373 109.427 105.408H109.427C109.43 105.408 109.428 105.408 109.43 105.408C109.431 105.408 109.432 105.409 109.432 105.409C109.536 105.438 109.631 105.473 109.729 105.506C109.737 105.508 109.767 105.515 109.767 105.515C109.824 105.533 109.881 105.552 109.937 105.574C109.938 105.574 109.94 105.575 109.942 105.576H109.943C109.946 105.577 109.94 105.574 109.944 105.577C109.921 105.568 109.884 105.554 109.949 105.579H109.95C109.951 105.579 109.952 105.579 109.953 105.58C109.955 105.58 109.957 105.581 109.958 105.582C109.992 105.595 109.986 105.592 109.967 105.584C109.964 105.583 109.972 105.586 109.969 105.585C109.976 105.587 109.982 105.59 109.989 105.593C109.948 105.574 109.978 105.58 110.178 105.666C110.247 105.696 110.314 105.728 110.38 105.762C110.38 105.763 110.438 105.79 110.428 105.785C110.429 105.785 110.43 105.786 110.431 105.786C110.393 105.768 110.4 105.77 110.45 105.795C110.475 105.808 110.502 105.822 110.528 105.835C110.713 103.905 111.789 102.172 113.438 101.151C116.353 99.3463 120.179 100.245 121.983 103.16C123.788 106.074 122.889 109.9 119.974 111.705C118.427 112.663 116.538 112.894 114.806 112.337C115.107 114.449 114.528 116.696 112.845 118.513C112.26 119.191 111.833 119.476 111.163 119.982C110.467 120.509 109.598 121.128 108.568 121.837C108.152 122.124 107.672 122.303 107.17 122.36C106.685 123.096 106.042 123.742 105.236 124.241C104.544 124.67 103.803 124.918 103.054 125.054C102.808 125.512 102.45 125.899 102.014 126.182C92.7621 132.165 79.4155 140.354 70.2957 145.615C69.9332 145.824 69.5318 145.957 69.1163 146.006C68.6449 146.676 68.0482 147.273 67.3012 147.735C66.3493 148.325 65.314 148.593 64.2788 148.64C64.0081 149.019 63.6553 149.332 63.2472 149.555C63.1346 149.616 63.0123 149.683 62.8943 149.746C61.5628 150.49 60.4041 151.111 59.4455 151.58C58.5215 152.032 58.1833 152.384 56.8013 152.563C54.7794 152.921 53.1262 152.15 51.8592 151.235C50.6305 150.348 49.6566 149.221 48.9662 147.878C48.7904 147.624 48.6146 147.37 48.4577 147.096C48.4237 147.039 48.3914 146.982 48.361 146.923L48.3933 146.98C48.3829 146.96 48.3714 146.943 48.3616 146.923C48.3616 146.923 48.3616 146.923 48.361 146.923C48.3202 146.844 48.2819 146.763 48.2436 146.682C48.2205 146.637 48.198 146.592 48.1767 146.546C48.1767 146.546 48.1767 146.545 48.1761 146.545C47.6475 145.39 47.2747 143.983 47.7217 142.375C47.7528 142.265 47.7899 142.155 47.8324 142.049C47.9121 141.851 47.9973 141.647 48.0903 141.434C48.1402 141.319 48.2016 141.195 48.2582 141.074C48.2491 141.059 48.24 141.045 48.2308 141.03C48.0636 140.751 47.9005 140.471 47.7418 140.189C46.7947 138.503 46.0283 136.823 45.549 135.211C45.4882 135.007 45.4377 134.804 45.3866 134.601C45.386 134.599 45.386 134.597 45.3854 134.596C45.3665 134.533 45.3495 134.47 45.3349 134.406C45.3349 134.406 45.3349 134.406 45.3349 134.405C45.3106 134.301 45.2911 134.205 45.2716 134.109C45.2704 134.104 45.2698 134.1 45.2686 134.096C45.2613 134.065 45.2546 134.034 45.2479 134.003C45.2297 133.91 45.2144 133.815 45.1986 133.721C45.1907 133.68 45.1834 133.639 45.1767 133.597C45.139 133.355 45.1348 133.103 45.1177 132.855C45.0904 132.688 45.0764 132.517 45.077 132.348C45.018 132.269 44.9492 132.2 44.8969 132.116L44.3154 131.177C44.2643 131.095 44.3391 131.216 44.3045 131.157C44.268 131.1 44.3428 131.221 44.2923 131.139C44.2923 131.138 44.2917 131.138 44.2917 131.138L43.7108 130.2L43.7102 130.199C43.0563 129.142 42.9991 127.824 43.4839 126.748C43.58 126.534 43.6993 126.325 43.8392 126.128C44.1153 125.739 44.4784 125.393 44.903 125.129L49.8409 122.071ZM114.819 103.382C114.817 103.382 114.816 103.383 114.815 103.383C113.131 104.426 112.612 106.636 113.654 108.319C114.697 110.002 116.907 110.523 118.59 109.48C120.273 108.437 120.794 106.228 119.751 104.544C118.709 102.862 116.501 102.342 114.819 103.382Z" fill="#9BAADA"/>
        <path d="M43.25 129.058C43.284 129.122 43.3199 129.185 43.3582 129.246L43.3589 129.247L43.9367 130.181C43.9367 130.181 43.9398 130.184 43.9404 130.185C43.944 130.191 43.9464 130.195 43.9513 130.203C43.9525 130.204 43.9531 130.206 43.9544 130.208C43.9586 130.216 43.9616 130.22 43.9647 130.226C43.9647 130.226 43.9671 130.23 43.9671 130.23L44.5456 131.165C44.5815 131.223 44.6453 131.288 44.7159 131.383C44.742 131.418 44.7566 131.462 44.7566 131.505C44.756 131.653 44.7688 131.8 44.7907 131.946L44.315 131.179C44.2645 131.097 44.3388 131.218 44.3041 131.16C44.2676 131.103 44.3424 131.224 44.2919 131.142C44.2919 131.141 44.2913 131.141 44.2913 131.14L43.7932 130.336C43.798 130.34 43.8534 130.379 43.9008 130.412C43.9209 130.363 43.9361 130.326 43.9507 130.289C43.9032 130.302 43.7944 130.331 43.7907 130.331L43.7104 130.203L43.7098 130.201C43.489 129.845 43.3376 129.458 43.2512 129.061L43.25 129.058ZM54.0942 122.352C54.4111 122.603 54.6909 122.905 54.9117 123.26L54.9658 123.348C54.964 123.349 54.964 123.349 54.9622 123.351C54.9646 123.354 54.967 123.357 54.9695 123.36C54.9688 123.36 54.9561 123.358 54.9536 123.357C54.9421 123.365 54.9415 123.366 54.9305 123.374C54.9445 123.369 54.9694 123.362 54.9707 123.361C54.9719 123.363 54.9749 123.366 54.9755 123.368C54.9761 123.367 54.9762 123.367 54.978 123.366L55.1897 123.708C55.1744 123.713 55.1592 123.719 55.144 123.724C55.054 123.754 54.9549 123.718 54.9044 123.638L54.8223 123.505L54.8204 123.503C54.8204 123.503 54.8186 123.501 54.8186 123.5C54.8162 123.496 54.8131 123.492 54.8095 123.485C54.8083 123.484 54.807 123.482 54.8064 123.48C54.8028 123.473 54.8003 123.469 54.7973 123.465C54.7967 123.464 54.7955 123.461 54.7949 123.46L54.2158 122.524C54.1787 122.464 54.1361 122.409 54.096 122.352L54.0942 122.352ZM43.7469 130.13C43.7494 130.131 43.75 130.13 43.7524 130.131V130.128C43.7524 130.128 43.7475 130.13 43.7469 130.13ZM54.8277 123.444C54.8235 123.447 54.7998 123.464 54.7991 123.464C54.8004 123.467 54.8022 123.472 54.8022 123.472C54.8022 123.472 54.8034 123.474 54.8034 123.476C54.804 123.475 54.8551 123.444 54.8843 123.425C54.8563 123.434 54.8435 123.439 54.8277 123.444ZM45.7201 135.756C46.1654 136.899 46.7335 138.07 47.3941 139.245C47.5516 139.525 47.7134 139.803 47.8795 140.081C47.8862 140.092 47.8953 140.106 47.9069 140.125C47.9421 140.183 47.9458 140.256 47.9166 140.318C47.9008 140.352 47.8874 140.382 47.871 140.416C47.8278 140.34 47.7828 140.266 47.7396 140.191C46.8989 138.693 46.2019 137.201 45.7201 135.756ZM114.187 102.361C115.965 101.263 118.302 101.813 119.403 103.59C119.633 103.962 119.787 104.358 119.876 104.763C119.837 104.688 119.795 104.614 119.751 104.542C119.53 104.186 119.249 103.872 118.92 103.612C117.892 102.182 115.925 101.77 114.403 102.71H114.403L114.4 102.712C112.879 103.654 112.369 105.599 113.192 107.157C113.277 107.568 113.433 107.96 113.654 108.317C113.698 108.388 113.745 108.458 113.795 108.527C113.473 108.266 113.187 107.952 112.957 107.58C111.856 105.802 112.406 103.463 114.184 102.362L114.187 102.36C114.187 102.361 114.187 102.361 114.187 102.361ZM47.77 145.463C47.7925 145.514 47.8126 145.567 47.8357 145.616L47.8363 145.617L47.8369 145.618C47.8564 145.661 47.8777 145.703 47.8996 145.745C47.9008 145.747 47.9014 145.749 47.902 145.751C47.9409 145.833 47.978 145.911 48.0163 145.985V145.986L48.0169 145.986C48.02 145.992 48.0273 146.006 48.034 146.017C48.0376 146.024 48.0401 146.028 48.0449 146.037C48.0462 146.039 48.0461 146.039 48.0468 146.041C48.0474 146.042 48.048 146.044 48.0486 146.045C48.0674 146.08 48.0857 146.114 48.1058 146.148C48.1064 146.149 48.1076 146.151 48.1082 146.152C48.2597 146.416 48.4312 146.665 48.607 146.919C48.6118 146.927 48.6167 146.935 48.621 146.942C49.2974 148.258 50.2475 149.358 51.4512 150.228C52.6939 151.125 54.2845 151.866 56.2371 151.52C56.2401 151.519 56.2432 151.518 56.2468 151.518C57.5996 151.342 57.8837 151.015 58.8277 150.554C59.7808 150.088 60.9372 149.468 62.2668 148.725C62.268 148.724 62.2693 148.723 62.2705 148.722C62.3879 148.66 62.5095 148.593 62.6221 148.531C63.0034 148.323 63.3325 148.031 63.585 147.678C63.6215 147.627 63.6799 147.595 63.7425 147.592C64.7492 147.546 65.7479 147.287 66.6664 146.718C67.3878 146.271 67.9645 145.695 68.4213 145.045C68.4547 144.997 68.5077 144.966 68.5654 144.959C68.9535 144.913 69.3276 144.789 69.6664 144.594C78.7807 139.336 92.1273 131.147 101.376 125.166C101.783 124.903 102.116 124.541 102.346 124.114C102.376 124.06 102.429 124.021 102.49 124.01C103.22 123.877 103.934 123.637 104.602 123.224C105.381 122.742 106.002 122.117 106.471 121.405C106.505 121.354 106.56 121.321 106.62 121.314C107.088 121.26 107.536 121.093 107.925 120.826C108.953 120.117 109.82 119.5 110.513 118.976C111.186 118.466 111.591 118.198 112.164 117.536C112.165 117.534 112.167 117.532 112.168 117.53C113.809 115.758 114.368 113.579 114.076 111.523C114.06 111.41 114.138 111.306 114.251 111.29C114.282 111.286 114.313 111.289 114.342 111.298C116.018 111.837 117.844 111.613 119.339 110.687C122.159 108.941 123.029 105.245 121.282 102.425C121.143 102.201 120.99 101.99 120.828 101.79C121.277 102.189 121.665 102.651 121.982 103.162C122.121 103.387 122.246 103.62 122.355 103.861C123.103 106.539 122.038 109.5 119.556 111.037C118.039 111.976 116.206 112.214 114.493 111.747C114.714 113.832 114.121 116.025 112.473 117.807C111.874 118.498 111.426 118.8 110.762 119.303C110.061 119.833 109.19 120.453 108.158 121.164C107.74 121.451 107.26 121.628 106.759 121.7C106.264 122.429 105.623 123.075 104.819 123.573C104.128 124.001 103.391 124.248 102.651 124.391C102.391 124.84 102.037 125.229 101.6 125.512C92.3432 131.497 78.9966 139.687 69.8726 144.95C69.5119 145.158 69.1129 145.288 68.7017 145.348C68.2242 146.009 67.6299 146.605 66.8836 147.068C65.928 147.66 64.8897 147.927 63.8562 147.987C63.5758 148.357 63.2273 148.67 62.8198 148.893C62.7084 148.953 62.5868 149.02 62.4682 149.083C61.1349 149.828 59.9737 150.45 59.0096 150.922C58.1069 151.363 57.714 151.74 56.307 151.923C54.2182 152.292 52.5029 151.492 51.2128 150.56C50.8503 150.298 50.5121 150.013 50.1939 149.711C49.7177 149.155 49.3065 148.544 48.9652 147.88C48.7895 147.627 48.6137 147.373 48.4567 147.099C48.4227 147.042 48.3904 146.984 48.36 146.926L48.3923 146.983C48.3819 146.963 48.3691 146.945 48.36 146.926V146.925C48.3193 146.846 48.2809 146.765 48.242 146.685C48.2189 146.64 48.1964 146.595 48.1751 146.548L48.1745 146.548C48.0194 146.207 47.8813 145.843 47.77 145.463Z" fill="white"/>
        <path d="M49.3176 121.229C51.0068 120.183 53.3426 120.732 54.3888 122.421L54.9703 123.36C55.0129 123.429 54.952 123.331 54.9812 123.379C55.011 123.426 54.952 123.33 54.9934 123.397C54.9934 123.398 54.994 123.398 54.994 123.398L55.0779 123.533C55.7762 123.3 56.4739 123.062 57.1698 122.812C59.9696 120.055 61.8614 114.918 70.4124 109.622C70.7123 109.436 71.0103 109.258 71.3065 109.087C71.3728 109.049 71.3923 109.039 71.3631 109.055C71.933 108.728 72.5012 108.427 73.0663 108.152C72.9835 108.192 73.0073 108.179 73.1386 108.116C74.6526 107.385 76.1623 106.835 77.7043 106.566C78.7974 106.375 79.8874 106.257 80.9658 106.198C81.1824 106.186 81.3983 106.178 81.6112 106.17C82.0394 106.156 82.467 106.151 82.8916 106.153C83.1033 106.155 83.315 106.158 83.526 106.163C84.5808 106.19 85.6185 106.265 86.6337 106.374C87.4463 106.462 88.2437 106.572 89.0235 106.698C89.4134 106.761 89.7991 106.828 90.1805 106.898C92.0923 107.25 93.8477 107.682 95.4706 108.103C99.3124 106.632 102.36 105.47 104.713 104.842C104.995 104.767 105.256 104.704 105.497 104.649C105.796 104.582 106.087 104.524 106.372 104.476C106.492 104.457 106.611 104.439 106.729 104.423C106.807 104.413 106.938 104.393 107.14 104.374C107.24 104.365 107.34 104.361 107.441 104.361C107.798 104.364 108.113 104.403 108.372 104.448C108.374 104.448 108.377 104.448 108.379 104.449C108.38 104.449 108.383 104.45 108.383 104.45L108.387 104.45C108.429 104.457 108.47 104.466 108.512 104.475C108.514 104.476 108.516 104.476 108.519 104.476C108.647 104.502 108.775 104.53 108.904 104.565C108.904 104.565 108.904 104.565 108.905 104.565C108.907 104.566 108.905 104.565 108.908 104.566C108.908 104.566 108.909 104.566 108.91 104.566C109.014 104.594 109.109 104.63 109.207 104.663C109.215 104.665 109.245 104.673 109.245 104.673C109.302 104.69 109.359 104.71 109.415 104.731C109.416 104.732 109.418 104.732 109.42 104.733H109.421C109.424 104.734 109.418 104.732 109.422 104.734C109.399 104.725 109.362 104.711 109.427 104.736H109.427C109.428 104.737 109.428 104.737 109.429 104.737C109.431 104.738 109.433 104.738 109.435 104.74C109.468 104.753 109.463 104.75 109.443 104.742C109.44 104.742 109.449 104.744 109.445 104.743C109.452 104.745 109.458 104.748 109.464 104.751C109.424 104.733 109.453 104.738 109.654 104.824C109.722 104.854 109.789 104.886 109.856 104.92C109.856 104.921 109.913 104.948 109.904 104.943C109.905 104.943 109.906 104.944 109.907 104.945C109.869 104.926 109.876 104.929 109.926 104.954C109.952 104.967 109.978 104.981 110.004 104.994C110.189 103.064 111.265 101.331 112.914 100.31C115.829 98.505 119.655 99.404 121.459 102.319C123.283 105.221 122.442 109.032 119.539 110.856C119.517 110.87 119.494 110.884 119.45 110.864C117.903 111.822 116.014 112.053 114.282 111.496C114.583 113.609 114.004 115.855 112.322 117.672C111.736 118.35 111.309 118.635 110.64 119.141C109.944 119.668 109.074 120.286 108.045 120.996C107.629 121.283 107.149 121.462 106.647 121.519C106.162 122.255 105.519 122.901 104.714 123.4C104.021 123.829 103.281 124.077 102.531 124.213C102.285 124.671 101.927 125.058 101.492 125.34C92.2395 131.324 78.8929 139.513 69.7731 144.774C69.4106 144.983 69.0091 145.116 68.5937 145.165C68.1222 145.834 67.5255 146.432 66.7786 146.894C65.8267 147.484 64.7914 147.752 63.7555 147.798C63.4854 148.177 63.1326 148.49 62.7239 148.713C62.6113 148.774 62.4891 148.841 62.3711 148.904C61.0402 149.648 59.8808 150.269 58.9222 150.738C57.9982 151.19 57.66 151.542 56.2781 151.721C54.2562 152.079 52.6029 151.308 51.3359 150.393C50.1072 149.506 49.1333 148.379 48.443 147.036C48.2672 146.782 48.0914 146.528 47.9345 146.254C47.9004 146.198 47.8682 146.14 47.8377 146.081L47.87 146.139C47.8596 146.119 47.8481 146.101 47.8377 146.081C47.797 146.002 47.7587 145.921 47.7197 145.84C47.6966 145.795 47.6741 145.75 47.6528 145.704C47.6528 145.704 47.6528 145.703 47.6522 145.703C47.1236 144.548 46.7508 143.141 47.1978 141.533C47.2289 141.422 47.266 141.313 47.3086 141.206C47.3882 141.008 47.4734 140.804 47.5665 140.591C47.6163 140.477 47.6778 140.352 47.7343 140.232C47.7252 140.217 47.7161 140.203 47.7069 140.187C47.5397 139.909 47.3767 139.628 47.2179 139.346C46.2702 137.66 45.5044 135.981 45.0251 134.368C44.9643 134.164 44.9138 133.961 44.8627 133.758C44.8621 133.756 44.8621 133.755 44.8615 133.753C44.8426 133.69 44.8262 133.627 44.811 133.563C44.7867 133.459 44.7672 133.363 44.7477 133.267C44.7471 133.262 44.7459 133.257 44.7447 133.253C44.7374 133.222 44.7307 133.19 44.724 133.159C44.7058 133.066 44.6906 132.972 44.6747 132.878C44.6668 132.836 44.6595 132.796 44.6528 132.754C44.6151 132.512 44.6109 132.26 44.5938 132.012C44.5665 131.844 44.5525 131.674 44.5531 131.504C44.4947 131.425 44.4254 131.357 44.3731 131.272L43.7916 130.333C43.7405 130.251 43.8153 130.372 43.7806 130.313C43.7441 130.256 43.8189 130.377 43.7684 130.295C43.7684 130.295 43.7678 130.295 43.7678 130.295L43.1869 129.356L43.1863 129.355C42.5324 128.298 42.4753 126.98 42.9601 125.904C43.0562 125.691 43.1754 125.481 43.3153 125.284C43.5914 124.896 43.954 124.549 44.3792 124.286L49.3176 121.229ZM114.296 102.54C114.295 102.54 114.294 102.541 114.293 102.541C112.61 103.584 112.09 105.794 113.133 107.477C114.175 109.161 116.385 109.68 118.069 108.638C119.752 107.595 120.271 105.386 119.23 103.702C118.187 102.02 115.979 101.499 114.296 102.54Z" fill="#DBE8F7"/>
        <path fill-rule="evenodd" clip-rule="evenodd" d="M44.4398 124.249C57.8648 133.726 75.4304 137.59 105.819 122.528C105.491 122.852 105.122 123.146 104.711 123.401C104.018 123.83 103.277 124.078 102.528 124.215C102.282 124.672 101.924 125.059 101.489 125.342C92.2362 131.325 78.8896 139.514 69.7699 144.775C69.4073 144.984 69.0059 145.117 68.5904 145.166C68.119 145.836 67.5223 146.433 66.7753 146.895C65.8234 147.485 64.7881 147.753 63.7529 147.8C63.4828 148.179 63.13 148.491 62.7212 148.714C62.6087 148.775 62.4865 148.842 62.3685 148.906C61.0376 149.65 59.8782 150.271 58.9196 150.74C57.9956 151.192 57.6574 151.544 56.2754 151.723C54.2536 152.081 52.6003 151.31 51.3333 150.395C50.1046 149.507 49.1307 148.38 48.4404 147.037C48.2646 146.783 48.0887 146.53 47.9318 146.255C47.8977 146.199 47.8655 146.141 47.8345 146.083L47.8667 146.14C47.8564 146.12 47.8448 146.102 47.8345 146.083C47.7937 146.004 47.7554 145.922 47.7165 145.842C47.6934 145.797 47.6709 145.751 47.6496 145.705L47.649 145.704C47.1204 144.549 46.7475 143.142 47.1952 141.534C47.2262 141.423 47.2633 141.314 47.3059 141.208C47.3856 141.01 47.4701 140.805 47.5638 140.593C47.6137 140.478 47.6751 140.354 47.7311 140.233C47.722 140.218 47.7128 140.204 47.7037 140.189C47.5364 139.91 47.3734 139.63 47.2147 139.347C46.267 137.661 45.5006 135.982 45.0219 134.369C44.9616 134.166 44.9106 133.963 44.8595 133.759C44.8589 133.758 44.8589 133.756 44.8582 133.754C44.8394 133.692 44.8223 133.629 44.8078 133.565C44.8078 133.565 44.8078 133.565 44.8078 133.564C44.7834 133.459 44.764 133.364 44.7445 133.268C44.7433 133.264 44.7427 133.259 44.7414 133.255C44.7341 133.223 44.7275 133.192 44.7214 133.161C44.7031 133.068 44.6879 132.974 44.6721 132.88C44.6642 132.838 44.6569 132.798 44.6502 132.756C44.6125 132.514 44.6083 132.262 44.5912 132.014V132.013C44.5639 131.846 44.5499 131.676 44.5505 131.506C44.4921 131.427 44.4227 131.359 44.3704 131.274L43.7889 130.335C43.7384 130.253 43.8126 130.374 43.778 130.316C43.7415 130.259 43.8163 130.38 43.7658 130.298C43.7658 130.297 43.7658 130.297 43.7652 130.297L43.1843 129.359L43.1837 129.358C42.5298 128.301 42.4726 126.983 42.9574 125.907C43.0535 125.693 43.1727 125.484 43.3126 125.287C43.5888 124.898 43.9519 124.552 44.3765 124.288L44.4398 124.249Z" fill="#BDCEE7"/>
        <path d="M51.5451 124.821C51.8289 124.646 52.1996 124.733 52.3753 125.016L52.9563 125.956C53.132 126.24 53.0451 126.611 52.7613 126.786L51.5009 127.567L52.8054 128.794C54.7901 128.004 57.0788 127.351 59.4554 126.465C63.3252 123.057 64.3423 118.354 72.6395 113.215C74.8471 111.848 76.9809 110.899 78.8381 110.575C85.0056 109.499 91.374 111.007 96.2573 112.303C102.051 110.085 105.918 108.61 108.024 108.418C108.747 108.423 109.382 108.719 109.891 109.2C111.416 110.641 111.806 113.741 110.03 115.621C109.659 116.061 108.309 117.072 106.294 118.459L105.69 117.483L105.965 117.108C105.849 116.811 105.705 116.525 105.536 116.252C104.595 114.731 102.963 113.808 101.287 113.847C102.405 114.002 103.43 114.687 104.056 115.699C105.164 117.488 104.731 119.764 103.089 120.781C103.089 120.781 103.089 120.781 103.088 120.781C101.446 121.798 99.2163 121.172 98.1082 119.383C97.4816 118.372 97.3249 117.149 97.6843 116.079C96.9023 117.562 97.0023 119.434 97.9438 120.955C98.1622 121.307 98.4212 121.633 98.7149 121.923L99.21 121.778L99.8145 122.754C90.6204 128.7 77.2768 136.887 68.2296 142.106L67.6247 141.13L67.9193 140.752C67.7985 140.431 67.6467 140.122 67.4657 139.83C66.658 138.526 65.3328 137.649 63.8909 137.462C64.8004 137.734 65.599 138.355 66.1188 139.195C67.2269 140.984 66.794 143.259 65.1517 144.276C63.5098 145.294 61.2797 144.668 60.1711 142.88C59.4599 141.731 59.3594 140.323 59.9076 139.178C58.8306 140.7 58.8171 142.826 59.8734 144.532C59.995 144.729 60.1288 144.916 60.2747 145.095L60.6387 145.034L61.2436 146.011C61.1319 146.073 61.0139 146.137 60.9108 146.192C58.2658 147.672 56.3495 148.629 55.7559 148.693C53.3586 149.138 50.1564 145.528 50.7658 143.339C51.0523 142.629 51.3577 141.952 51.914 141.093C49.2212 137.135 47.3807 132.447 48.6379 131.244C49.1244 130.778 49.6798 130.374 50.2861 130.01L49.2032 128.992L47.8185 129.85C47.5348 130.025 47.164 129.938 46.9879 129.654L46.4064 128.715C46.2303 128.431 46.3181 128.061 46.6019 127.885L51.5451 124.821Z" fill="#373F5E"/>
        <path d="M109.287 108.222C110.813 109.663 111.202 112.764 109.426 114.643C109.056 115.083 107.705 116.094 105.691 117.482C105.611 116.706 105.351 115.949 104.933 115.274C103.991 113.754 102.359 112.83 100.683 112.87C101.802 113.025 102.827 113.71 103.453 114.722C104.561 116.511 104.128 118.786 102.485 119.803C100.843 120.82 98.6132 120.194 97.5051 118.405C96.8786 117.394 96.7218 116.171 97.0812 115.101C96.2997 116.583 96.3993 118.456 97.3407 119.977C97.8078 120.73 98.4542 121.352 99.2114 121.776C90.0174 127.722 76.6738 135.909 67.6261 141.128C67.5549 140.329 67.2928 139.546 66.8626 138.852C66.055 137.548 64.7297 136.67 63.2874 136.483C64.1969 136.756 64.9955 137.377 65.5153 138.216C66.6234 140.006 66.1906 142.281 64.5482 143.298C62.9063 144.315 60.6762 143.69 59.5676 141.901C58.8564 140.753 58.7559 139.344 59.3041 138.2C58.2267 139.721 58.2136 141.848 59.2699 143.554C59.6289 144.133 60.096 144.637 60.6406 145.032C60.5289 145.094 60.4109 145.158 60.3077 145.213C57.6627 146.693 55.7465 147.65 55.1528 147.714C52.7555 148.159 49.5538 144.548 50.1628 142.36C50.4493 141.65 50.7542 140.973 51.3109 140.114C48.6182 136.156 46.7777 131.468 48.0349 130.265C48.5213 129.799 49.0767 129.395 49.6826 129.031L48.5993 128.012L47.2141 128.87C46.9304 129.046 46.5596 128.959 46.3835 128.675L45.802 127.735C45.6263 127.452 45.7137 127.081 45.9975 126.906L50.9389 123.845C51.2227 123.67 51.5934 123.757 51.7691 124.041L52.3506 124.98C52.5263 125.263 52.4398 125.634 52.1555 125.81L50.8943 126.591L52.1997 127.818C54.1843 127.028 56.4731 126.375 58.8492 125.488C62.7194 122.08 63.7361 117.377 72.0333 112.239C74.2409 110.871 76.3747 109.922 78.2319 109.598C84.3994 108.522 90.7678 110.03 95.6506 111.325C101.445 109.108 105.311 107.633 107.418 107.441C108.144 107.446 108.778 107.742 109.287 108.222Z" fill="#505A79"/>
        <path fill-rule="evenodd" clip-rule="evenodd" d="M72.7427 113.589C74.3462 112.631 76.0566 111.883 77.8404 111.493C86.002 109.709 91.7213 112.881 91.7213 112.881L91.6772 112.899C93.1497 113.597 93.797 114.432 94.5735 115.648C95.1231 116.509 95.7195 117.664 96.3163 118.927L96.7546 118.656C96.8014 118.82 96.8564 118.982 96.9195 119.141L96.5289 119.383C96.6681 119.683 96.8064 119.988 96.9447 120.295L97.3731 120.03C97.4627 120.171 97.5586 120.307 97.6609 120.439L97.1501 120.756C97.4208 121.368 97.6879 121.986 97.9451 122.591C97.8875 122.629 97.8267 122.667 97.7681 122.704C97.5105 122.098 97.2429 121.479 96.9717 120.865L81.5399 130.422C81.9426 130.947 82.3696 131.489 82.8304 132.053C82.7709 132.089 82.7124 132.124 82.6534 132.16C82.1935 131.597 81.7669 131.056 81.3646 130.531L67.1328 139.345C67.0603 139.195 66.9805 139.048 66.8945 138.905L81.0597 130.132C80.8525 129.858 80.6588 129.593 80.4669 129.33L66.3008 138.103C66.186 137.975 66.0657 137.854 65.94 137.739L80.1764 128.922C78.5678 126.673 77.5201 124.865 76.8895 123.592C76.5426 122.892 76.2899 121.814 76.1566 120.783C76.0692 120.108 76.0327 119.461 76.062 118.947L72.7427 113.589ZM70.6801 114.971L73.8593 120.104L61.4833 125.018C62.927 122.792 66.2801 118.244 70.6801 114.971ZM76.2633 119.149C76.2525 119.612 76.2836 120.176 76.3588 120.757C76.4904 121.773 76.7453 122.842 77.0728 123.501C77.6994 124.766 78.7435 126.568 80.3507 128.814L96.1384 119.037C95.5402 117.768 94.9443 116.612 94.3992 115.76C93.5961 114.503 92.9794 113.703 91.4141 113.005L76.2633 119.149ZM50.1348 135.389C51.0834 134.802 52.5266 134.92 53.3703 135.653C54.214 136.388 54.1298 137.452 53.1811 138.04L58.5455 134.718C58.6158 134.675 58.7072 134.696 58.7509 134.767L58.8189 134.876C58.8621 134.946 58.841 135.038 58.7703 135.081L51.1176 139.82C51.0384 139.702 50.9591 139.584 50.8821 139.463C50.1627 138.347 49.5213 137.194 48.9996 136.091L50.1348 135.389ZM80.3854 119.887C80.6331 119.734 80.9552 119.809 81.1083 120.057C81.2615 120.305 81.1858 120.627 80.9381 120.78L78.9944 121.984C78.7471 122.138 78.4246 122.061 78.271 121.814C78.1178 121.566 78.1935 121.245 78.4408 121.091L80.3854 119.887ZM107.847 107.485C108.735 107.638 109.462 108.24 109.946 109.064L106.614 111.127C106.013 111.5 105.116 111.413 104.604 110.932C104.092 110.451 104.166 109.764 104.768 109.391L107.847 107.485ZM99.5789 115.113C100.315 114.657 101.316 114.938 101.813 115.74C102.31 116.543 102.115 117.563 101.379 118.02C100.642 118.476 99.6424 118.195 99.1456 117.393C98.6483 116.59 98.8424 115.57 99.5789 115.113ZM61.6423 138.607C62.3788 138.151 63.3788 138.432 63.8761 139.235C64.3729 140.037 64.1788 141.057 63.4423 141.514C62.7058 141.97 61.7054 141.689 61.2085 140.887C60.7112 140.084 60.9058 139.064 61.6423 138.607ZM110.417 110.194C110.463 110.363 110.503 110.535 110.531 110.71L104.369 114.527C104.254 114.399 104.134 114.278 104.008 114.163L110.417 110.194ZM58.6847 142.233C58.7315 142.397 58.7865 142.559 58.8495 142.718L52.3199 146.762C52.1838 146.655 52.051 146.541 51.9221 146.421L58.6847 142.233ZM96.351 119.493L80.6417 129.222C80.8336 129.485 81.0277 129.749 81.2349 130.024L96.7663 120.405C96.628 120.097 96.4897 119.793 96.351 119.493ZM110.593 111.842C110.581 112.055 110.556 112.267 110.516 112.478L105.202 115.769C105.13 115.619 105.05 115.471 104.964 115.329L110.593 111.842ZM59.3031 143.607C59.3928 143.748 59.4887 143.884 59.591 144.016L53.8136 147.595C53.623 147.532 53.4329 147.454 53.2451 147.359L59.3031 143.607Z" fill="#7686AD"/>
        <path fill-rule="evenodd" clip-rule="evenodd" d="M47.191 126.169C59.4315 132.695 72.4786 134.41 86.6636 129.692C79.984 133.823 73.0385 138.007 67.6264 141.129C67.5557 140.33 67.2926 139.548 66.8625 138.853C66.0548 137.548 64.7296 136.671 63.2877 136.484C64.1972 136.757 64.9958 137.378 65.5156 138.217C66.6237 140.007 66.1909 142.282 64.549 143.299C62.9067 144.316 60.6769 143.691 59.5684 141.902C58.8571 140.754 58.7567 139.346 59.3049 138.201C58.2279 139.723 58.2144 141.849 59.2707 143.555C59.6297 144.135 60.0963 144.638 60.6405 145.034C60.5287 145.095 60.4107 145.159 60.3076 145.215C57.6626 146.695 55.7468 147.652 55.1531 147.716C52.7558 148.161 49.5541 144.55 50.1635 142.361C50.45 141.652 50.755 140.975 51.3117 140.115C48.6189 136.158 46.778 131.47 48.0356 130.266C48.5221 129.8 49.0771 129.397 49.6838 129.032L48.6005 128.014L47.2158 128.872C46.932 129.047 46.5613 128.96 46.3852 128.676L45.8041 127.737C45.628 127.452 45.7154 127.083 45.9996 126.907L47.191 126.169Z" fill="#414C6D"/>
        <path d="M74.4129 112.694C74.9057 112.459 75.4066 112.245 75.9156 112.058L81.2908 117.111L79.7683 117.728L74.4129 112.694ZM76.5377 111.844C76.9674 111.707 77.4021 111.589 77.8413 111.493C79.6845 111.09 81.4016 110.942 82.9579 110.951L87.0335 114.783L81.8836 116.87L76.5377 111.844ZM67.4747 117.723L71.1517 121.179L65.9693 123.237L64.0806 121.461C65.0436 120.269 66.1846 118.977 67.4747 117.723Z" fill="#9FB4D9"/>
        <path fill-rule="evenodd" clip-rule="evenodd" d="M50.1339 135.392C51.0826 134.804 52.5254 134.922 53.3695 135.656C54.2132 136.391 54.1289 137.455 53.1803 138.043L58.5447 134.721C58.6149 134.677 58.7064 134.699 58.7501 134.769L58.8181 134.879C58.8613 134.949 58.8402 135.04 58.7694 135.084L51.1168 139.823C51.0956 139.792 51.0749 139.76 51.0542 139.728C50.9952 139.639 50.9362 139.551 50.8781 139.461C50.1596 138.346 49.5195 137.195 48.9988 136.094L50.1339 135.392ZM61.6415 138.61C62.378 138.154 63.378 138.435 63.8753 139.238C64.3721 140.04 64.1779 141.06 63.4415 141.516C62.705 141.973 61.7045 141.692 61.2077 140.89C60.7104 140.087 60.905 139.066 61.6415 138.61ZM74.9026 132.19C75.2805 132.157 75.6598 132.117 76.0395 132.074L66.2991 138.107C66.2982 138.106 66.2973 138.105 66.2964 138.104C66.2013 137.998 66.1013 137.896 65.9977 137.799C65.9779 137.78 65.9581 137.761 65.9383 137.743L74.9026 132.19ZM58.6838 142.235C58.6996 142.29 58.7163 142.344 58.7334 142.398C58.7411 142.423 58.7496 142.448 58.7577 142.472C58.7582 142.474 58.7595 142.477 58.76 142.479C58.7681 142.503 58.7771 142.528 58.7857 142.552C58.7866 142.555 58.7879 142.557 58.7884 142.56C58.7974 142.584 58.8064 142.608 58.8154 142.633C58.8158 142.635 58.8172 142.637 58.8176 142.639C58.8266 142.664 58.8361 142.688 58.8456 142.712C58.8465 142.715 58.8478 142.717 58.8487 142.72L52.3191 146.764C52.3191 146.764 52.3172 146.763 52.3163 146.762C52.2501 146.71 52.1848 146.656 52.12 146.601C52.1191 146.6 52.1181 146.599 52.1163 146.598C52.1055 146.589 52.0956 146.579 52.0848 146.57C52.0294 146.522 51.9745 146.474 51.9204 146.423L58.6838 142.235ZM78.4783 131.734C78.9215 131.661 79.3665 131.581 79.812 131.495L67.132 139.348C67.0932 139.268 67.0522 139.189 67.0095 139.111C66.982 139.061 66.954 139.011 66.9252 138.962C66.9149 138.944 66.9049 138.926 66.8937 138.908L78.4783 131.734ZM59.3023 143.61C59.3068 143.617 59.3113 143.624 59.3158 143.631C59.3266 143.648 59.3379 143.665 59.3487 143.681C59.3532 143.688 59.3582 143.695 59.3631 143.703C59.3744 143.72 59.3857 143.736 59.3969 143.753C59.4019 143.76 59.4068 143.766 59.4113 143.774C59.4226 143.79 59.4343 143.806 59.4456 143.823C59.4505 143.83 59.4555 143.838 59.4604 143.844C59.4721 143.861 59.4839 143.877 59.4951 143.893C59.5001 143.9 59.5055 143.907 59.5104 143.914C59.5221 143.93 59.5343 143.946 59.5465 143.962C59.5514 143.969 59.5568 143.976 59.5618 143.983C59.5712 143.995 59.5802 144.007 59.5897 144.02L53.8123 147.598C53.6231 147.536 53.433 147.457 53.2461 147.363L53.2438 147.362L59.3023 143.61ZM81.7836 131.074C81.8566 131.057 81.9305 131.039 82.0034 131.022C82.2674 131.359 82.5386 131.7 82.8269 132.053C82.7674 132.089 82.7093 132.125 82.6498 132.161C82.3462 131.789 82.0611 131.429 81.7836 131.074Z" fill="#4E5A7E"/>
        <path d="M72.0362 112.24C74.2438 110.873 76.3776 109.924 78.2348 109.6C84.4023 108.523 90.7702 110.031 95.6535 111.327C101.448 109.109 105.314 107.634 107.421 107.443C108.143 107.448 108.778 107.744 109.287 108.224C109.716 108.63 110.052 109.17 110.278 109.774C110.168 109.629 110.051 109.493 109.925 109.369C109.419 108.876 108.784 108.566 108.054 108.548C105.923 108.705 101.995 110.127 96.1067 112.264C91.1995 110.87 84.7969 109.237 78.5523 110.216C76.6722 110.51 74.501 111.431 72.2483 112.773C63.7822 117.816 62.6732 122.545 58.7066 125.918C56.2922 126.771 53.9706 127.39 51.9535 128.153L50.6571 126.892L50.9985 126.688L52.2017 127.819C54.1863 127.029 56.4746 126.376 58.8512 125.49C62.7214 122.082 63.739 117.379 72.0362 112.24Z" fill="#768BB2"/>
        <path d="M107.848 107.485L107.85 107.486C108.013 107.514 108.171 107.558 108.323 107.615C108.327 107.616 108.331 107.618 108.335 107.619C108.484 107.677 108.628 107.748 108.765 107.83C108.771 107.834 108.778 107.837 108.784 107.841C108.869 107.894 108.953 107.951 109.033 108.013C109.04 108.018 109.047 108.023 109.054 108.028C109.14 108.095 109.223 108.167 109.303 108.243C109.375 108.312 109.443 108.386 109.51 108.462C109.526 108.481 109.543 108.499 109.56 108.518C109.62 108.589 109.676 108.663 109.731 108.739C109.761 108.78 109.788 108.822 109.816 108.864C109.838 108.897 109.859 108.93 109.879 108.963C109.901 108.997 109.921 109.031 109.942 109.067L109.731 109.197C109.261 108.805 108.693 108.565 108.053 108.55C107.308 108.604 106.337 108.818 105.145 109.158L107.848 107.485Z" fill="#9FB4D9"/>
        <path d="M70.6401 109.489C70.8633 109.353 71.0859 109.218 71.3073 109.091H71.308C71.3743 109.052 71.3931 109.043 71.3639 109.059C71.9339 108.732 72.502 108.431 73.0671 108.156C72.9843 108.196 73.0081 108.182 73.1395 108.119C74.6534 107.389 76.1631 106.839 77.7051 106.57C78.7988 106.379 79.8882 106.261 80.9666 106.202C81.1832 106.19 81.3991 106.181 81.612 106.174C82.0402 106.16 82.4678 106.155 82.8924 106.157C83.1041 106.158 83.3158 106.162 83.5268 106.167C84.5816 106.193 85.6193 106.268 86.6345 106.378C87.4471 106.465 88.2446 106.575 89.0244 106.701C89.4143 106.765 89.7999 106.832 90.1813 106.902C92.0931 107.254 93.8485 107.686 95.4714 108.106C99.3132 106.636 102.361 105.473 104.715 104.846C104.996 104.77 105.257 104.708 105.499 104.653C105.798 104.585 106.088 104.527 106.373 104.48C106.493 104.46 106.612 104.442 106.73 104.426C106.809 104.416 106.94 104.396 107.142 104.377C107.241 104.368 107.342 104.364 107.442 104.364C107.8 104.367 108.114 104.406 108.373 104.451C108.376 104.451 108.378 104.451 108.381 104.452C108.382 104.452 108.384 104.453 108.385 104.453L108.389 104.454C108.431 104.461 108.472 104.47 108.514 104.479C108.516 104.479 108.518 104.48 108.521 104.48C108.649 104.506 108.777 104.534 108.906 104.569L108.907 104.569C108.909 104.57 108.907 104.569 108.91 104.57L108.912 104.571C109.016 104.599 109.111 104.635 109.209 104.667C109.216 104.67 109.246 104.677 109.246 104.677C109.303 104.695 109.36 104.714 109.416 104.735L109.421 104.737H109.422H109.423C109.426 104.739 109.419 104.736 109.424 104.738C109.401 104.729 109.364 104.715 109.428 104.74H109.429L109.431 104.741L109.436 104.743C109.469 104.756 109.464 104.753 109.445 104.746C109.441 104.745 109.45 104.748 109.446 104.746C109.452 104.749 109.459 104.752 109.466 104.754C109.425 104.736 109.455 104.742 109.655 104.828C109.724 104.858 109.791 104.889 109.857 104.924C109.857 104.925 109.915 104.951 109.905 104.947L109.909 104.948C109.871 104.93 109.878 104.933 109.927 104.958C109.953 104.97 109.979 104.985 110.005 104.998C110.19 103.067 111.267 101.334 112.916 100.313C115.735 98.5677 119.428 99.3457 121.303 102.08C121.335 102.138 121.366 102.197 121.396 102.256C118.904 99.9728 116.075 99.6559 113.626 101.09C111.913 102.093 110.935 104.108 110.696 106.078C110.67 106.064 110.644 106.048 110.618 106.034C110.568 106.007 110.561 106.005 110.599 106.024L110.597 106.023C110.606 106.028 110.548 105.999 110.548 105.998C110.481 105.961 110.413 105.926 110.344 105.895C110.141 105.801 110.111 105.795 110.152 105.814C110.146 105.811 110.139 105.808 110.132 105.805C110.136 105.807 110.128 105.804 110.13 105.805C110.15 105.813 110.156 105.815 110.122 105.802L110.116 105.8L110.114 105.799C110.048 105.772 110.084 105.787 110.108 105.797C110.103 105.795 110.109 105.798 110.107 105.796H110.106H110.106L110.1 105.794C110.044 105.771 109.986 105.75 109.928 105.731C109.928 105.731 109.897 105.722 109.889 105.72C109.789 105.683 109.694 105.645 109.588 105.613L109.586 105.613L109.583 105.612L109.581 105.611C109.451 105.572 109.32 105.54 109.19 105.51C109.188 105.51 109.186 105.509 109.184 105.509C109.142 105.499 109.099 105.489 109.057 105.48L109.053 105.479C109.052 105.48 109.05 105.479 109.049 105.479C109.047 105.478 109.044 105.478 109.042 105.478C108.778 105.425 108.457 105.377 108.092 105.366C107.989 105.363 107.887 105.364 107.784 105.371C107.577 105.384 107.443 105.402 107.362 105.411C107.241 105.424 107.119 105.439 106.996 105.456C106.703 105.497 106.404 105.549 106.097 105.611C105.848 105.661 105.58 105.718 105.289 105.788C102.867 106.37 99.7189 107.482 95.7512 108.888C94.1022 108.417 92.3175 107.93 90.3705 107.521C89.9824 107.44 89.5894 107.361 89.1922 107.287C88.3978 107.139 87.5846 107.006 86.7561 106.895C85.7209 106.757 84.6613 106.654 83.5828 106.6C83.3669 106.589 83.1503 106.58 82.9338 106.574C82.4995 106.56 82.0621 106.554 81.6236 106.558C81.4052 106.56 81.185 106.563 80.963 106.57C79.8584 106.603 78.7404 106.696 77.6175 106.863C76.0336 107.099 74.4758 107.624 72.9083 108.332C72.7727 108.394 72.7477 108.406 72.8335 108.367C72.2483 108.634 71.6595 108.928 71.0683 109.248C71.0987 109.232 71.0793 109.242 71.0105 109.279H71.0099C70.8883 109.345 70.7654 109.417 70.6437 109.486L70.6401 109.489Z" fill="white"/>
    </g>
</svg>
