<svg width="165" height="216" viewBox="0 0 165 216" fill="none" xmlns="http://www.w3.org/2000/svg">
    <rect width="165" height="216" fill="#F7F8FC"/>
    <path opacity="0.67" d="M69.9983 177.204C59.3078 177.204 49.2572 173.045 41.6978 165.493C34.1383 157.941 29.9751 147.901 29.9751 137.222C29.9751 132.638 30.7475 128.139 32.2705 123.85C33.7427 119.706 35.8809 115.851 38.6258 112.394C42.2536 107.824 44.8086 102.402 46.0144 96.7139C47.0921 91.6286 51.6502 87.9375 56.8526 87.9375H83.144C88.3459 87.9375 92.9038 91.6284 93.9821 96.7136C95.188 102.402 97.743 107.824 101.371 112.394C104.114 115.849 106.252 119.702 107.724 123.844C109.247 128.13 110.02 132.626 110.022 137.208C110.025 147.819 105.895 157.822 98.3925 165.374C90.8888 172.927 80.9069 177.128 70.2853 177.203C70.1914 177.204 70.0952 177.204 69.9983 177.204Z" fill="#FFFCC7"/>
    <path opacity="0.77" d="M69.9984 172.523C60.5594 172.523 51.6853 168.851 45.0108 162.184C38.3362 155.516 34.6604 146.651 34.6604 137.221C34.6604 133.172 35.342 129.2 36.6862 125.415C37.9854 121.757 39.873 118.355 42.2967 115.302C46.3722 110.168 49.243 104.076 50.5981 97.6834C51.2201 94.7483 53.8506 92.6177 56.8527 92.6177H83.144C86.1458 92.6177 88.7763 94.7481 89.3986 97.6833C90.7537 104.075 93.6243 110.168 97.7 115.302C100.123 118.353 102.009 121.754 103.309 125.41C104.653 129.192 105.335 133.162 105.336 137.209C105.339 146.576 101.692 155.408 95.0669 162.077C88.4409 168.747 79.6283 172.457 70.2523 172.522C70.1674 172.523 70.0832 172.523 69.9984 172.523Z" fill="#FFFBB9"/>
    <path d="M70.2242 168.511C87.4032 168.39 101.326 154.373 101.32 137.211C101.318 129.874 98.7882 123.129 94.5536 117.794C90.0485 112.12 86.9538 105.513 85.47 98.5144C85.2372 97.4159 84.2681 96.6294 83.1441 96.6294H56.8529C55.7289 96.6294 54.7599 97.4159 54.527 98.5144C53.0432 105.513 49.9484 112.12 45.4434 117.794C41.2067 123.131 38.6765 129.881 38.6765 137.221C38.6763 154.577 52.8219 168.633 70.2242 168.511Z" fill="#FFFAAA"/>
    <path d="M101.321 137.21C101.326 154.372 87.4032 168.389 70.2239 168.51C52.8215 168.633 38.6765 154.577 38.6765 137.221C38.6765 129.881 41.2066 123.131 45.4434 117.794C49.9479 112.12 53.0424 105.513 54.5272 98.5139C54.7592 97.4162 55.7287 96.6294 56.8531 96.6294H83.1441C84.2675 96.6294 85.2368 97.4162 85.47 98.5139C86.9537 105.513 90.0482 112.12 94.5538 117.794C98.7884 123.129 101.317 129.874 101.321 137.21Z" fill="url(#paint0_linear_19032_253415)"/>
    <path opacity="0.8" d="M81.5434 120.412C81.4552 119.236 81.1217 118.253 80.5506 117.489C79.1416 115.605 77.147 115.922 74.627 116.363C74.511 111.791 75.2027 105.17 76.6885 96.6294H74.6516C73.1579 105.291 72.4785 112.018 72.628 116.677C71.0696 116.86 69.5168 116.867 68.0008 116.696C68.1826 112.035 67.5501 105.301 66.1177 96.6294H64.083C65.5086 105.179 66.1523 111.805 66.0028 116.377C63.4861 115.921 61.4938 115.593 60.0715 117.469C59.4959 118.228 59.1545 119.209 59.0586 120.383C58.937 121.846 59.4435 123.313 60.414 124.306C61.245 125.157 62.3271 125.59 63.4572 125.524C63.9569 125.495 64.4277 125.369 64.8583 125.15C66.4925 124.318 67.4764 122.215 67.8546 118.736L67.8769 118.739L67.8791 118.7C69.4744 118.873 71.1019 118.867 72.7351 118.685L72.7373 118.716L72.7596 118.712C73.1121 122.194 74.0826 124.302 75.7113 125.144C76.1397 125.364 76.6093 125.492 77.1113 125.526C77.1928 125.53 77.2742 125.534 77.3556 125.534C78.3964 125.534 79.3848 125.109 80.1601 124.324C81.1373 123.337 81.6538 121.874 81.5434 120.412ZM63.9469 123.363C63.7628 123.456 63.5631 123.509 63.3389 123.522C62.6462 123.561 62.1475 123.209 61.8508 122.905C61.2807 122.322 60.9851 121.442 61.0599 120.548C61.1246 119.759 61.3298 119.13 61.6723 118.68C62.0237 118.216 62.4454 118.028 63.1705 118.028C63.7773 118.028 64.5961 118.16 65.7641 118.371C65.7998 118.378 65.8355 118.385 65.8723 118.391C65.4975 122.031 64.5225 123.07 63.9469 123.363ZM78.7322 122.915C78.4333 123.217 77.9324 123.568 77.2407 123.523C77.0143 123.509 76.8157 123.455 76.6328 123.362C76.0594 123.065 75.0922 122.021 74.7442 118.379C74.781 118.372 74.8167 118.367 74.8535 118.36C77.4192 117.91 78.3038 117.836 78.9419 118.69C79.2811 119.143 79.4819 119.772 79.541 120.562C79.609 121.455 79.3067 122.334 78.7322 122.915Z" fill="white"/>
    <path d="M54.7303 96.6293H85.2097C86.5746 96.6293 87.6811 95.5239 87.6811 94.1603V81.2344C87.6811 79.8708 86.5746 78.7654 85.2097 78.7654C84.6524 78.7654 84.1058 78.6129 83.6293 78.3245L75.0365 73.1231C73.5105 72.1994 71.7602 71.7109 69.9757 71.7109C68.2215 71.7109 66.4996 72.183 64.9911 73.0775L55.974 78.4244C55.5976 78.6476 55.168 78.7654 54.7303 78.7654C53.3653 78.7654 52.2588 79.8708 52.2588 81.2344V94.1603C52.2588 95.5239 53.3653 96.6293 54.7303 96.6293Z" fill="#2C3163"/>
    <path d="M71.8583 -32H68.1436V72.8662H71.8583V-32Z" fill="#2C3163"/>
    <path d="M170.923 71.0155C170.929 88.1773 157.005 102.194 139.827 102.316C122.425 102.438 108.279 88.3823 108.279 71.0266C108.279 63.6861 110.809 56.9361 115.046 51.5993C119.551 45.9247 122.646 39.3186 124.13 32.319C124.363 31.2213 125.332 30.4346 126.455 30.4346H152.746C153.871 30.4346 154.84 31.2213 155.072 32.319C156.556 39.3186 159.652 45.9247 164.156 51.5993C168.391 56.9339 170.921 63.6794 170.923 71.0155Z" fill="#ECD76B"/>
    <path d="M150.821 54.9971C150.733 53.8214 150.399 52.8385 149.828 52.074C148.419 50.1907 146.425 50.5072 143.905 50.9485C143.785 46.2379 144.523 39.3531 146.103 30.4346H144.065C142.477 39.4724 141.752 46.4652 141.906 51.2627C140.347 51.4455 138.794 51.4522 137.278 51.2817C137.466 46.4819 136.79 39.4835 135.265 30.4346H133.229C134.746 39.362 135.434 46.2524 135.28 50.9618C132.764 50.506 130.771 50.1784 129.349 52.0539C128.773 52.8129 128.432 53.7946 128.336 54.9681C128.215 56.4313 128.721 57.8979 129.692 58.8908C130.523 59.7422 131.605 60.1757 132.735 60.1088C133.234 60.0799 133.705 59.9539 134.136 59.7355C135.77 58.9031 136.754 56.8002 137.132 53.321L137.154 53.3244L137.157 53.2854C138.752 53.4581 140.38 53.4525 142.013 53.2698L142.015 53.301L142.037 53.2976C142.39 56.779 143.36 58.8875 144.989 59.7288C145.417 59.9495 145.887 60.0776 146.389 60.1111C146.47 60.1155 146.552 60.1189 146.633 60.1189C147.674 60.1189 148.662 59.6943 149.438 58.9097C150.415 57.9224 150.931 56.4592 150.821 54.9971ZM133.224 57.948C133.04 58.0416 132.841 58.094 132.616 58.1074C131.924 58.1475 131.425 57.7942 131.128 57.49C130.558 56.9072 130.263 56.0268 130.337 55.133C130.402 54.344 130.607 53.7155 130.95 53.2653C131.301 52.8017 131.723 52.6134 132.448 52.6134C133.055 52.6134 133.874 52.7449 135.042 52.9566C135.077 52.9633 135.113 52.97 135.15 52.9767C134.775 56.6163 133.8 57.6549 133.224 57.948ZM148.01 57.5C147.711 57.802 147.21 58.1531 146.518 58.1085C146.292 58.094 146.093 58.0405 145.91 57.9469C145.337 57.6505 144.37 56.6063 144.022 52.9644C144.059 52.9577 144.094 52.9522 144.131 52.9455C146.697 52.4953 147.581 52.4217 148.219 53.2753C148.559 53.7278 148.759 54.3574 148.819 55.1475C148.887 56.0402 148.584 56.9194 148.01 57.5Z" fill="#F2E998"/>
    <path d="M124.333 30.434H154.812C156.177 30.434 157.284 29.3286 157.284 27.965V15.0391C157.284 13.6755 156.177 12.5701 154.812 12.5701C154.255 12.5701 153.708 12.4176 153.232 12.1291L144.639 6.92779C143.113 6.00407 141.363 5.51562 139.578 5.51562C137.824 5.51562 136.102 5.98769 134.594 6.88221L125.576 12.2291C125.2 12.4523 124.77 12.5701 124.333 12.5701C122.968 12.5701 121.861 13.6755 121.861 15.0391V27.965C121.861 29.3286 122.968 30.434 124.333 30.434Z" fill="#2C3163"/>
    <path d="M141.466 -32H137.75V6.67083H141.466V-32Z" fill="#2C3163"/>
    <defs>
        <linearGradient id="paint0_linear_19032_253415" x1="69.9986" y1="96.6294" x2="69.9986" y2="168.511" gradientUnits="userSpaceOnUse">
            <stop stop-color="#FFF777"/>
            <stop offset="1" stop-color="#FFF444"/>
        </linearGradient>
    </defs>
</svg>
