<svg width="165" height="216" viewBox="0 0 165 216" fill="none" xmlns="http://www.w3.org/2000/svg">
    <rect width="165" height="216" fill="#F7F8FC"/>
    <path d="M107.608 149.473V49.8863C107.608 48.7119 108.665 47.7603 109.968 47.7603C111.272 47.7603 112.328 48.7119 112.328 49.8863V149.473C112.328 150.648 111.272 151.599 109.968 151.599C108.665 151.599 107.608 150.647 107.608 149.473Z" fill="#42281F"/>
    <path d="M110.371 37H-13.1573C-14.2004 37 -15.0464 37.8454 -15.0464 38.8884V42.3325H112.259V38.8884C112.26 37.8454 111.414 37 110.371 37Z" fill="#E97A43"/>
    <path d="M120.215 63.7417H104.302L98.1133 42.3325H112.259L120.215 63.7417Z" fill="#FAC46A"/>
    <path d="M104.308 63.7427C104.308 63.7427 104.608 71.7899 112.264 71.7899C119.921 71.7899 120.221 63.7427 120.221 63.7427H104.308Z" fill="#FFCD85"/>
    <path d="M8.82465 63.7417H-7.08838L-0.900284 42.3325H13.245L8.82465 63.7417Z" fill="#EAD5C7"/>
    <path d="M-7.08838 63.7427C-7.08838 63.7427 -6.78842 71.7899 0.868133 71.7899C8.52468 71.7899 8.82465 63.7427 8.82465 63.7427H-7.08838Z" fill="#F4E6DB"/>
    <path d="M24.7377 63.7417H8.82471L13.2451 42.3325H27.3904L24.7377 63.7417Z" fill="#FAC46A"/>
    <path d="M8.82471 63.7427C8.82471 63.7427 9.12467 71.7899 16.7812 71.7899C24.4378 71.7899 24.7377 63.7427 24.7377 63.7427H8.82471Z" fill="#FFCD85"/>
    <path d="M40.65 63.7417H24.7363L27.389 42.3325H41.5336L40.65 63.7417Z" fill="#EAD5C7"/>
    <path d="M24.7363 63.7427C24.7363 63.7427 25.0363 71.7899 32.6928 71.7899C40.3494 71.7899 40.6494 63.7427 40.6494 63.7427H24.7363Z" fill="#F4E6DB"/>
    <path d="M56.5683 63.7417H40.6553L41.5388 42.3325H55.6841L56.5683 63.7417Z" fill="#FAC46A"/>
    <path d="M40.6553 63.7427C40.6553 63.7427 40.9552 71.7899 48.6118 71.7899C56.2683 71.7899 56.5683 63.7427 56.5683 63.7427H40.6553Z" fill="#FFCD85"/>
    <path d="M72.4808 63.7417H56.5678L55.6836 42.3325H69.8289L72.4808 63.7417Z" fill="#EAD5C7"/>
    <path d="M56.5664 63.7427C56.5664 63.7427 56.8671 71.7899 64.5229 71.7899C72.1795 71.7899 72.4794 63.7427 72.4794 63.7427H56.5664Z" fill="#F4E6DB"/>
    <path d="M88.3951 63.7417H72.482L69.8301 42.3325H83.9747L88.3951 63.7417Z" fill="#FAC46A"/>
    <path d="M72.4805 63.7427C72.4805 63.7427 72.7804 71.7899 80.437 71.7899C88.0935 71.7899 88.3935 63.7427 88.3935 63.7427H72.4805Z" fill="#FFCD85"/>
    <path d="M104.308 63.7417H88.3945L83.9741 42.3325H98.1194L104.308 63.7417Z" fill="#EAD5C7"/>
    <path d="M88.3921 63.7427C88.3921 63.7427 88.692 71.7899 96.3486 71.7899C104.005 71.7899 104.305 63.7427 104.305 63.7427H88.3921Z" fill="#F4E6DB"/>
    <path d="M108.74 182.205H-11.5233C-13.4683 182.205 -15.0444 180.628 -15.0444 178.684V117.867C-15.0444 115.922 -13.4676 114.346 -11.5233 114.346H108.74C110.684 114.346 112.261 115.922 112.261 117.867V178.684C112.261 180.628 110.684 182.205 108.74 182.205Z" fill="#C55E3F"/>
    <path d="M112.261 119.285H-15.0444V126.783H112.261V119.285Z" fill="#AD422A"/>
    <path d="M114.784 120.525H-17.5602C-19.2571 120.525 -20.6328 119.149 -20.6328 117.453V117.418C-20.6328 115.721 -19.2571 114.346 -17.5602 114.346H114.784C116.481 114.346 117.857 115.722 117.857 117.418V117.453C117.857 119.149 116.481 120.525 114.784 120.525Z" fill="#E97A43"/>
</svg>
