<svg width="165" height="216" viewBox="0 0 165 216" fill="none" xmlns="http://www.w3.org/2000/svg">
    <rect width="165" height="216" fill="#F7F8FC"/>
    <path d="M130.126 81.9161L126.608 81.541L124.207 108.388L127.725 108.763L130.126 81.9161Z" fill="#BCB5B3"/>
    <path d="M113.607 170.982L170.86 177.339L176.353 126.143L150.909 72.848L119.101 119.786L113.607 170.982Z"
          fill="#D5AE9E"/>
    <path d="M174.998 135.883L176.172 125.455L150.243 72.8687L117.681 119.052L116.506 129.481L174.998 135.883Z"
          fill="#212834"/>
    <path d="M150.714 73.0473L181.302 125.442L176.253 124.9L150.232 77.2181L117.15 118.547L113.393 118.143L150.714 73.0473Z"
          fill="#1B2230"/>
    <path d="M160.68 157.538L158.104 156.838L157.433 159.258L160.008 159.958L160.68 157.538Z" fill="#242E36"/>
    <path d="M160.915 154.18L158.315 153.48L157.684 155.667L160.284 156.367L160.915 154.18Z" fill="#242E36"/>
    <path d="M164.682 154.449L162.045 153.74L161.412 155.921L164.049 156.63L164.682 154.449Z" fill="#242E36"/>
    <path d="M160.431 161.132L157.837 160.432L157.196 162.675L159.789 163.376L160.431 161.132Z" fill="#242E36"/>
    <path d="M164.196 161.4L161.565 160.691L160.922 162.929L163.553 163.638L164.196 161.4Z" fill="#242E36"/>
    <path d="M164.446 157.807L161.834 157.098L161.16 159.512L163.772 160.221L164.446 157.807Z" fill="#242E36"/>
    <path d="M130.473 154.534L127.897 153.834L127.226 156.254L129.801 156.954L130.473 154.534Z" fill="#242E36"/>
    <path d="M130.706 151.174L128.106 150.475L127.475 152.661L130.075 153.361L130.706 151.174Z" fill="#242E36"/>
    <path d="M134.474 151.443L131.837 150.734L131.204 152.915L133.841 153.624L134.474 151.443Z" fill="#242E36"/>
    <path d="M130.22 158.124L127.626 157.424L126.985 159.668L129.578 160.368L130.22 158.124Z" fill="#242E36"/>
    <path d="M133.987 158.395L131.356 157.686L130.713 159.923L133.344 160.632L133.987 158.395Z" fill="#242E36"/>
    <path d="M134.238 154.803L131.626 154.094L130.952 156.508L133.564 157.217L134.238 154.803Z" fill="#242E36"/>
    <path d="M139.295 174.497L148.473 175.518L150.495 156.347L141.317 155.327L139.295 174.497Z" fill="#212834"/>
    <path d="M138.798 124.018L152.807 125.568L155.043 105.093L141.034 103.542L138.798 124.018Z" fill="#D4D0CC"/>
    <path d="M148.795 118.234L145.544 117.631L144.632 123.077L147.884 123.68L148.795 118.234Z" fill="white"/>
    <path d="M149.658 105.875L146.406 105.271L145.494 110.718L148.746 111.321L149.658 105.875Z" fill="white"/>
    <path d="M149.181 112.728L145.852 112.113L145.11 116.233L148.44 116.848L149.181 112.728Z" fill="white"/>
    <path d="M153.601 113.012L150.484 112.436L149.751 116.578L152.868 117.155L153.601 113.012Z" fill="white"/>
    <path d="M145.015 105.56L141.659 104.938L140.742 110.373L144.098 110.995L145.015 105.56Z" fill="white"/>
    <path d="M144.152 117.923L140.796 117.301L139.878 122.735L143.235 123.358L144.152 117.923Z" fill="white"/>
    <path d="M144.538 112.411L141.102 111.777L140.356 115.886L143.793 116.52L144.538 112.411Z" fill="white"/>
    <path d="M153.215 118.523L150.173 117.959L149.273 123.429L152.316 123.993L153.215 118.523Z" fill="white"/>
    <path d="M154.081 106.161L151.039 105.598L150.139 111.068L153.182 111.632L154.081 106.161Z" fill="white"/>
    <path opacity="0.5"
          d="M291.073 192.301C290.466 200.882 288.73 209.339 286.007 217.577C285.987 217.641 287.459 217.622 255.077 217.532C242.293 217.284 262.047 217.37 104.79 217.261C106.573 217.238 107.086 217.231 108.704 217.21C108.718 217.21 105.473 197.147 105.47 197.131C105.638 197.152 112.609 198.045 112.775 198.066C112.921 197.009 112.306 201.686 114.4 185.507C114.543 185.522 123.248 186.382 123.399 186.396C123.382 186.527 122.398 194.13 122.382 194.261C134.734 195.84 131.719 195.454 136.478 196.063L136.696 198.158L145.671 197.24L152.598 198.125C152.609 198.044 152.599 198.121 152.807 196.509C152.955 196.494 170.076 194.743 170.262 194.724V196.435H212.868V137.303C211.776 136.078 206.99 130.713 202.85 126.071H195.226V117.529H198.041V113.281H200.371V107.307H210.521V113.281H212.851V117.529H215.668V121.8H219.711V112.444H231.467V107.696H248.857V118.762L250.67 116.097C254.751 122.098 254.549 121.793 254.549 121.813H254.989V117.919H257.53V113.382C279.512 131.417 293.337 160.448 291.073 192.301Z"
          fill="#FDEACF"/>
    <path d="M286.007 217.574C285.996 217.574 286.846 217.575 255.174 217.488C243.732 217.267 254.618 217.315 185.492 217.272C185.482 217.272 93.7567 217.23 93.7985 217.181C93.8087 217.181 93.7453 217.242 98.1835 212.121C108.49 213.522 107.256 213.354 109.632 213.677L116.765 209.402C116.67 209.422 107.899 211.324 107.806 211.344C107.737 211.332 95.7997 209.032 95.6957 209.012L89.7236 201.369C104.818 191.136 104.638 191.268 104.638 191.257L104.82 191.134C108.199 191.574 129.525 194.35 129.539 194.352C119.391 191.768 105.417 188.211 103.162 187.637C102.939 187.289 100.853 184.033 99.3458 181.678C99.9795 181.287 104.186 178.699 104.82 178.309C104.937 178.299 114.302 177.486 115.272 177.402C112.225 176.609 105.088 174.749 104.82 174.681V171.055C225.429 178.889 291.289 183.114 291.289 183.2C291.571 195.054 289.627 206.619 286.007 217.574Z"
          fill="#A06663"/>
    <path d="M103.163 187.639L103.448 192.068L104.821 191.137L129.248 194.316L103.163 187.639Z" fill="#7A3939"/>
    <path d="M95.6969 209.012L95.0625 215.723L98.1848 212.12L107.91 213.441L107.807 211.343L95.6969 209.012Z"
          fill="#7A3939"/>
    <path d="M104.821 174.681L106.236 178.186L99.3468 181.677L101.738 193.224L89.7246 201.368L92.624 217.208L117.73 217.206L124.92 206.246C124.92 206.246 133.712 195.963 133.436 194.313C133.159 192.664 121.325 178.863 121.325 178.863L107.057 173.969L104.821 174.681Z"
          fill="#89413F"/>
    <path d="M187.325 212.368C187.325 212.368 190.248 214.538 193.882 217.278L93.7737 217.21L98.184 212.121L109.632 213.676L116.765 209.402L107.806 211.345L95.6961 209.013L89.7236 201.369L104.82 191.135L129.54 194.352L103.162 187.637L99.3459 181.678L104.82 178.31L115.272 177.402L104.82 174.682V171.055L209.627 177.855L159.951 182.794L196.035 187.637L175.629 199.442L252.027 207.07L187.325 212.368Z"
          fill="#A56867"/>
    <path d="M74.626 189.711L77.9541 202.261L85.1126 209.407L62.1519 213.231L54.4375 199.443L74.626 189.711Z"
          fill="#89413F"/>
    <path d="M8.86633 122.252C7.58269 122.337 4.57877 122.58 2.00854 123.119C0.945153 123.342 -0.0895216 122.603 -0.199466 121.528C-0.244463 121.088 -0.150083 120.558 0.187175 119.929C1.48557 117.507 4.49325 119.294 4.60838 120.428C4.60838 120.428 4.94957 118.657 6.67021 118.747C8.39085 118.837 8.10539 121.386 8.10539 121.386C8.10539 121.386 8.63427 121.205 9.04283 121.414C9.44441 121.619 9.31711 122.222 8.86633 122.252Z"
          fill="white"/>
    <path d="M45.5575 118.407C46.8315 117.246 35.2006 116.005 34.9709 114.169C34.6617 111.699 45.0888 109.323 42.7393 108.933C43.1808 107.691 39.4608 107.285 39.2861 105.889C38.6852 101.087 38.1711 96.7267 33.3418 97.3241C32.5285 97.4247 31.7562 97.6347 31.035 97.9337C29.8714 96.5321 28.0352 95.7328 26.0869 95.9737C25.8592 96.0019 25.6372 96.0451 25.4201 96.099C23.7086 93.1216 20.3152 91.2997 16.6788 91.7496C13.2922 92.1685 10.5973 94.4472 9.49506 97.4265C8.03644 96.7419 6.3727 96.4449 4.65367 96.6576C-0.175553 97.255 -3.60333 101.632 -3.00244 106.434C-2.91163 107.159 -2.73263 107.853 -2.47982 108.506C-3.09825 108.45 -3.73161 108.457 -4.37303 108.536C-9.20225 109.133 -6.8096 112.349 -6.20871 117.151C-6.00966 118.742 -11.2119 121.339 -10.3011 122.529C-10.9242 123.55 -1.85791 121.733 -1.69814 123.01C-1.46492 124.873 -9.68076 129.447 -8.12347 130.254C-8.85497 131.733 -9.17702 133.434 -8.95696 135.192C-8.35607 139.994 -3.95409 143.403 0.875131 142.805C2.18543 142.643 3.39123 142.201 4.44273 141.549C5.22942 143.395 6.75674 144.725 8.87207 144.777C11.2404 144.837 13.0427 143.831 13.6737 141.327C14.503 141.787 15.4811 141.999 16.4955 141.873C17.7114 141.723 18.7572 141.115 19.4827 140.247C20.9755 140.981 18.5866 140.602 20.3629 140.382C20.4689 140.369 21.3417 141.321 21.4462 141.304C22.9261 144.856 30.4255 145.706 34.6732 144.286C39.2862 142.745 41.5815 140.144 42.0103 135.236C42.0121 135.216 42.0037 135.196 42.001 135.175C42.3425 135.173 42.6871 135.153 43.0343 135.11C47.8635 134.512 50.6015 129.773 50.0006 124.971C49.6412 122.097 47.9182 119.723 45.5575 118.407Z"
          fill="#2F856F"/>
    <path d="M29.5984 138.517C29.2377 138.63 28.8858 138.76 28.5443 138.909C28.5363 138.912 28.5277 138.916 28.5198 138.919C28.491 138.932 28.4618 138.945 28.4331 138.958C28.0756 139.119 27.7304 139.302 27.4 139.509C26.7273 139.941 26.0983 140.425 25.5276 140.972C24.9581 141.519 24.4333 142.106 23.9531 142.726C23.7783 142.952 23.6085 143.182 23.4463 143.415C23.3864 143.501 23.3271 143.588 23.2695 143.675C23.2364 143.724 23.2067 143.774 23.1752 143.822L28.7847 186.74C27.3577 187.945 25.8614 189.105 24.3016 190.218L18.5475 141.1L18.5245 140.885C17.922 140.361 17.263 139.871 16.582 139.406C15.718 138.815 14.8031 138.28 13.8763 137.761C13.3588 137.473 12.8332 137.196 12.3025 136.928C12.2894 136.921 12.2761 136.915 12.2623 136.908C12.2497 136.901 12.2371 136.895 12.2246 136.889C11.8293 136.689 11.4306 136.495 11.0301 136.303C10.9728 136.275 10.9156 136.248 10.8578 136.221C9.94823 135.792 9.02752 135.38 8.09277 135C9.13407 135.263 10.1668 135.565 11.1944 135.89C11.2534 135.909 11.3119 135.928 11.3711 135.947C11.747 136.067 12.1227 136.192 12.4979 136.32C12.5131 136.325 12.5289 136.33 12.5442 136.336C12.5565 136.339 12.5688 136.344 12.5811 136.348C13.1416 136.54 13.7005 136.742 14.2548 136.957C14.5067 137.055 14.7582 137.155 15.0089 137.257C14.9998 137.215 14.9907 137.175 14.9822 137.133C14.8748 136.611 14.8299 136.086 14.8253 135.57C14.8301 135.41 14.8319 135.25 14.8396 135.092C14.8447 134.994 14.8522 134.896 14.8635 134.799C14.8816 134.544 14.9224 134.291 14.9635 134.042C14.9989 133.791 15.0693 133.546 15.12 133.301C15.1838 133.058 15.26 132.819 15.3294 132.58C15.3113 132.829 15.2866 133.077 15.2743 133.323C15.2762 133.571 15.2581 133.817 15.2754 134.063C15.2864 134.308 15.2978 134.552 15.3331 134.793C15.3406 134.88 15.3526 134.967 15.3662 135.053C15.3903 135.206 15.4205 135.357 15.4471 135.507C15.5513 135.976 15.6913 136.431 15.8781 136.857C15.9251 136.964 15.972 137.069 16.0267 137.17C16.0773 137.273 16.1334 137.373 16.1915 137.469C16.2481 137.566 16.3097 137.66 16.3724 137.749C16.4043 137.793 16.4347 137.838 16.4676 137.877C16.4689 137.878 16.4703 137.88 16.4722 137.882C16.7341 138.002 16.9959 138.126 17.2554 138.254C17.6283 138.44 17.9991 138.632 18.3675 138.836L17.9902 133.928L17.9564 133.488L18.3985 133.34L18.5013 133.305L19.3764 133.011L19.3654 132.923L19.5875 132.94L19.7992 132.869L19.8102 132.957L21.3045 133.074L21.5116 134.263L21.5134 134.273L21.5273 134.352L22.2824 138.691C22.3771 138.081 22.4856 137.473 22.6102 136.868C22.786 136.021 22.9904 135.18 23.2404 134.352C23.2483 134.325 23.2568 134.299 23.2646 134.272C23.2659 134.269 23.2671 134.265 23.2684 134.262C23.3817 133.889 23.5055 133.52 23.6394 133.154C23.8585 132.552 24.1079 131.958 24.4007 131.387C24.4737 131.244 24.5497 131.102 24.6275 130.962C24.8617 130.542 25.1197 130.137 25.4092 129.756C25.1572 130.15 24.9395 130.563 24.7456 130.986C24.675 131.14 24.6081 131.296 24.5435 131.452C24.3002 132.037 24.1041 132.64 23.9374 133.249C23.8509 133.563 23.7714 133.879 23.6995 134.196C23.6981 134.203 23.6963 134.21 23.6944 134.218C23.6894 134.241 23.6839 134.264 23.679 134.288C23.4817 135.173 23.338 136.069 23.2271 136.968C23.0731 138.221 22.9896 139.483 22.9532 140.743C22.9432 141.111 22.9385 141.481 22.936 141.852C22.9492 141.841 22.9601 141.829 22.9733 141.818C23.5274 141.323 24.1127 140.866 24.7231 140.448C25.1661 139.62 25.4538 138.678 25.6451 137.717C25.6821 137.529 25.7156 137.339 25.7457 137.149C25.7486 137.127 25.752 137.105 25.755 137.084C25.7576 137.07 25.7598 137.055 25.7614 137.041C25.8049 136.752 25.8402 136.46 25.867 136.167C25.8909 135.906 25.9087 135.644 25.9197 135.383C25.925 135.251 25.9277 135.119 25.9287 134.988C25.9255 134.859 25.9343 134.72 25.908 134.599C25.9531 134.717 25.9626 134.856 25.9842 134.984C26.0024 135.116 26.0172 135.247 26.0309 135.379C26.0576 135.642 26.0772 135.906 26.0902 136.172C26.1096 136.569 26.1147 136.968 26.1041 137.368C26.1039 137.381 26.1034 137.393 26.1027 137.406C26.1024 137.431 26.1017 137.457 26.1004 137.482C26.0972 137.578 26.093 137.675 26.0883 137.771C26.0503 138.436 25.9726 139.107 25.8202 139.772C26.2687 139.527 26.7302 139.305 27.199 139.114C27.4956 138.995 27.7973 138.895 28.1021 138.81C28.1373 138.801 28.1726 138.791 28.2085 138.782C28.2166 138.78 28.2248 138.777 28.2335 138.775C28.6849 138.657 29.1424 138.573 29.5984 138.517Z"
          fill="#33192C"/>
    <path d="M44.9166 113.296C46.1905 112.134 46.9002 110.399 46.6706 108.564C46.3614 106.093 44.4479 104.212 42.0985 103.822C42.54 102.58 42.7078 101.221 42.5331 99.8252C41.9322 95.0235 37.5303 91.6152 32.701 92.2126C31.8878 92.3132 31.1155 92.5233 30.3943 92.8223C29.2307 91.4205 27.3945 90.6212 25.4461 90.8623C25.2185 90.8905 24.9964 90.9336 24.7793 90.9877C23.0679 88.0103 19.6745 86.1884 16.0381 86.6383C12.6515 87.0572 9.95655 89.3358 8.85433 92.3152C7.39571 91.6306 5.73197 91.3336 4.01294 91.5462C-0.816286 92.1437 -4.24406 96.5207 -3.64317 101.322C-3.55237 102.048 -3.37336 102.741 -3.12055 103.394C-3.73897 103.339 -4.37234 103.345 -5.01376 103.425C-9.84298 104.022 -13.2708 108.399 -12.6699 113.201C-12.4709 114.792 -11.8527 116.228 -10.9418 117.418C-11.565 118.439 -11.8608 119.667 -11.7009 120.944C-11.4677 122.808 -10.3214 124.336 -8.7642 125.142C-9.49571 126.622 -9.81775 128.323 -9.59768 130.081C-8.99679 134.883 -4.59482 138.291 0.234403 137.694C1.5447 137.532 2.7505 137.09 3.8019 136.438C4.5886 138.283 6.53343 139.466 8.63319 139.207C11.0279 138.91 12.9166 137.008 12.8376 134.655C13.6669 135.115 14.4938 135.163 15.5082 135.038C16.7241 134.888 17.7699 134.28 18.4954 133.412C19.9882 134.146 21.7058 134.47 23.4821 134.25C23.588 134.237 23.6925 134.219 23.797 134.203C25.2768 137.754 29.0009 140.037 33.0234 139.539C37.8527 138.942 40.1212 134.459 40.6795 129.763C40.6821 129.742 40.673 129.722 40.6702 129.702C41.0118 129.699 41.3564 129.679 41.7036 129.636C46.5328 129.039 49.9606 124.662 49.3597 119.86C49.0002 116.985 47.2773 114.611 44.9166 113.296Z"
          fill="#54B78A"/>
    <path d="M2.72181 117.568C2.29974 115.002 4.05581 112.573 6.63623 112.154C6.86641 112.116 7.10115 112.096 7.33472 112.092C7.3171 112.021 7.30243 111.949 7.29089 111.879C7.16958 111.141 7.3443 110.401 7.78309 109.794C8.22179 109.187 8.87188 108.787 9.61358 108.666L9.62772 108.752C8.90919 108.869 8.27931 109.257 7.85439 109.845C7.42937 110.433 7.26012 111.15 7.37757 111.865C7.39162 111.95 7.41049 112.037 7.43357 112.124L7.44807 112.179L7.39117 112.179C7.14364 112.18 6.89423 112.2 6.65028 112.24C4.11763 112.652 2.39412 115.036 2.80831 117.554L2.72181 117.568Z"
          fill="black"/>
    <path d="M24.3821 106.877C24.0714 106.222 23.523 105.727 22.8376 105.482C22.1524 105.238 21.4121 105.273 20.7537 105.582C20.675 105.619 20.5957 105.661 20.5183 105.707L20.4694 105.736L20.4536 105.682C20.3846 105.445 20.2962 105.213 20.1907 104.99C19.0956 102.682 16.3163 101.691 13.9955 102.779L13.958 102.7C16.3227 101.591 19.1544 102.602 20.2701 104.953C20.3696 105.163 20.4542 105.381 20.5219 105.604C20.5862 105.567 20.6514 105.533 20.7162 105.503C21.3959 105.184 22.1598 105.148 22.8673 105.4C23.5747 105.653 24.1409 106.164 24.4616 106.84L24.3821 106.877Z"
          fill="black"/>
    <path d="M38.7611 110.626C38.0863 109.588 37.0453 108.873 35.8298 108.614C34.6145 108.354 33.3701 108.581 32.3259 109.252C32.1184 109.385 31.9198 109.536 31.7354 109.701L31.6932 109.739L31.6671 109.688C31.6256 109.609 31.5807 109.531 31.5334 109.459C30.7176 108.203 29.0269 107.842 27.7645 108.653L27.7168 108.58C29.0198 107.743 30.7651 108.116 31.6072 109.411C31.6462 109.471 31.6836 109.534 31.7188 109.599C31.8947 109.445 32.0826 109.304 32.2783 109.178C33.342 108.495 34.61 108.264 35.8484 108.528C37.0867 108.793 38.1474 109.521 38.8349 110.579L38.7611 110.626Z"
          fill="black"/>
    <path d="M13.381 130.478C12.5607 128.06 9.91463 126.756 7.48324 127.572C7.24904 127.651 7.01922 127.749 6.79996 127.863L6.74968 127.89L6.7368 127.835C6.71623 127.747 6.6918 127.661 6.66398 127.579C6.43121 126.893 5.94375 126.339 5.29134 126.017C4.63892 125.696 3.89955 125.646 3.20973 125.877L3.18164 125.795C3.89373 125.556 4.6569 125.607 5.33034 125.939C6.00378 126.271 6.50698 126.843 6.74718 127.551C6.77008 127.619 6.79084 127.689 6.809 127.76C7.01726 127.655 7.23437 127.564 7.45524 127.49C9.9327 126.659 12.6285 127.986 13.4644 130.45L13.381 130.478Z"
          fill="black"/>
    <path d="M-0.178905 137.088C-1.3441 137.232 -2.40964 136.982 -3.22165 136.365C-4.09548 135.7 -4.6095 134.656 -4.6689 133.424C-4.67758 133.244 -4.64904 133.057 -4.6214 132.876C-4.61219 132.816 -4.60342 132.759 -4.59609 132.702C-4.67087 132.712 -4.74208 132.718 -4.81347 132.721C-6.36316 132.795 -7.68445 131.602 -7.75879 130.061L-7.67103 130.057C-7.59902 131.549 -6.31896 132.706 -4.81767 132.634C-4.73063 132.63 -4.64117 132.621 -4.55198 132.608L-4.49571 132.6L-4.50198 132.656C-4.51048 132.732 -4.5221 132.808 -4.53445 132.89C-4.56146 133.066 -4.58929 133.249 -4.58106 133.42C-4.52291 134.626 -4.02114 135.647 -3.16815 136.295C-2.25639 136.988 -1.01489 137.207 0.327786 136.912L0.346755 136.997C0.169627 137.036 -0.00580359 137.066 -0.178905 137.088Z"
          fill="black"/>
    <path d="M29.5661 128.557L29.4809 128.536C30.107 126.061 28.5917 123.542 26.1029 122.919C25.8632 122.859 25.6166 122.818 25.3698 122.796L25.313 122.791L25.3323 122.738C25.3626 122.653 25.3888 122.568 25.4101 122.484C25.7768 121.035 24.8893 119.559 23.4316 119.194L23.4531 119.109C24.9577 119.486 25.8738 121.009 25.4953 122.505C25.4777 122.574 25.4571 122.645 25.4334 122.714C25.666 122.737 25.8982 122.778 26.1242 122.834C28.66 123.469 30.2041 126.036 29.5661 128.557Z"
          fill="black"/>
    <path d="M46.6052 108.407C46.2217 106.302 45.0152 105.178 44.0705 104.606C43.0466 103.987 42.1031 103.863 42.0938 103.862L42.1047 103.775C42.1142 103.777 43.0764 103.902 44.1161 104.532C45.0762 105.113 46.3024 106.254 46.6916 108.392L46.6052 108.407Z"
          fill="black"/>
    <path d="M48.9706 118.294C48.1062 115.789 46.7272 114.484 45.7227 113.83C44.6344 113.122 43.7383 113.004 43.7295 113.003L43.7403 112.916C43.7494 112.917 44.6618 113.036 45.7665 113.754C46.784 114.415 48.1804 115.734 49.0538 118.266L48.9706 118.294Z"
          fill="black"/>
    <path d="M44.9393 113.331L44.8945 113.256C45.0863 113.143 45.583 112.495 45.5879 112.488L45.6579 112.541C45.637 112.568 45.1457 113.209 44.9393 113.331Z"
          fill="black"/>
    <path d="M23.2995 134.345C22.6143 134.43 21.804 134.429 20.882 134.258C18.1676 133.752 18.0421 132.883 18.0381 132.846L18.1255 132.836L18.0818 132.841L18.1255 132.836C18.1266 132.844 18.2642 133.681 20.8982 134.172C23.9869 134.746 25.8006 133.386 25.8185 133.372L25.8723 133.441C25.8593 133.451 24.938 134.142 23.2995 134.345Z"
          fill="black"/>
    <path d="M29.3078 139.253C29.2986 139.251 28.3695 139.05 27.2274 138.332C26.1741 137.669 24.717 136.418 23.7568 134.218L23.8374 134.184C24.788 136.361 26.2293 137.6 27.271 138.256C28.4004 138.967 29.3169 139.166 29.3261 139.168L29.3078 139.253Z"
          fill="black"/>
    <path d="M12.0588 137.293L11.9883 137.241C13.116 135.735 12.7082 133.948 12.704 133.93L12.7896 133.91C12.7939 133.928 13.2115 135.754 12.0588 137.293Z"
          fill="black"/>
    <path d="M5.87702 138.746C4.634 138.104 4.08168 137.229 3.8372 136.608C3.57168 135.933 3.60076 135.418 3.60219 135.396L3.68985 135.402C3.6895 135.407 3.66096 135.923 3.92066 136.58C4.16005 137.186 4.70082 138.04 5.91763 138.669L5.87702 138.746Z"
          fill="black"/>
    <path d="M2.15985 137.278L2.12988 137.196C2.14053 137.192 3.20061 136.807 3.77833 136.4L3.82914 136.472C3.24167 136.885 2.17058 137.274 2.15985 137.278Z"
          fill="black"/>
    <path d="M25.3219 91.9738C24.0042 89.7414 22.731 88.571 21.895 87.9823C20.9901 87.345 20.3888 87.2335 20.3828 87.2325L20.398 87.1465C20.423 87.1508 21.0198 87.2604 21.9391 87.9064C22.7838 88.4999 24.0695 89.6795 25.3976 91.9296L25.3219 91.9738Z"
          fill="black"/>
    <path d="M29.1576 91.7737C27.0075 90.4838 24.8125 91.0251 24.7905 91.0307L24.7686 90.9461C24.7908 90.9403 27.0203 90.3893 29.2029 91.6989L29.1576 91.7737Z"
          fill="black"/>
    <path d="M15.7766 91.5533L15.7454 91.4869C15.7389 91.473 15.0787 90.1013 13.4751 90.1704C11.6249 90.2506 11.2703 91.9476 11.2669 91.9648L11.1807 91.9481C11.1842 91.9303 11.551 90.1661 13.4712 90.0832C14.9351 90.0201 15.6402 91.1153 15.793 91.389C15.9359 91.2171 16.43 90.6687 17.1898 90.3119C18.0274 89.9185 19.3679 89.6823 20.9972 90.7908L20.9475 90.8628C19.3541 89.7787 18.0466 90.0069 17.2304 90.3894C16.343 90.8052 15.8256 91.4877 15.8205 91.4945L15.7766 91.5533Z"
          fill="black"/>
    <path d="M89.725 211.087C88.6358 216.887 88.8579 215.709 88.578 217.18C88.5665 217.242 7.89531 217.073 -17.1533 217.073C-17.7157 216.374 -18.5382 215.046 -18.8805 214.366C-22.5254 207.878 -23.4043 197.237 -18.3364 185.944C37.3397 184.584 45.1536 182.115 62.9421 181.68C62.9456 181.683 74.5832 189.708 74.5873 189.711V204.739L66.6026 206.165L62.2774 209.404C65.3496 208.25 68.0496 207.196 68.1474 207.205C82.1439 208.359 69.0605 207.279 82.2392 208.367C85.8513 209.679 84.1253 209.052 89.725 211.087Z"
          fill="#A06663"/>
    <path d="M89.7249 211.088L91.5736 217.208H88.5762L89.7249 211.088Z" fill="#89413F"/>
    <path d="M62.3506 209.401L66.6648 206.162L74.6278 204.736L82.2595 208.364L68.1579 207.198L62.3506 209.401Z"
          fill="#7A3939"/>
    <path d="M89.7253 211.087L88.7912 216.075L88.5766 217.208L14.3696 217.158L46.7255 209.403L-2.54746 199.443L13.8769 192.694L-21.4736 183.747L63.0144 181.68L74.6281 189.712V204.739L66.6651 206.164L62.3509 209.403L68.1582 207.2L82.2598 208.367L89.7253 211.087Z"
          fill="#A56867"/>
    <path d="M46.4843 217.152C29.5266 217.148 12.8347 217.143 -3.41504 217.134C-3.1079 215.993 -2.62363 214.662 -1.85997 213.292C0.253686 209.506 2.85171 214.169 2.85171 214.169C4.62218 211.684 7.45517 214.116 7.45517 214.116C7.45517 214.116 7.02343 210.392 9.38649 209.25C11.6578 208.15 12.8749 210.624 12.9666 210.817C12.8698 210.565 11.3239 206.464 13.0037 204.019C14.6948 201.555 16.7518 205.197 16.8487 205.37C16.7777 205.18 15.1195 200.723 17.0672 199.348C19.0572 197.943 20.5339 202.23 20.5339 202.23C20.5339 202.23 20.8987 196.277 24.7139 196.703C27.9209 197.063 28.3032 203.28 28.3435 205.251C28.4063 204.555 28.7423 203.573 30.2397 204.211C32.443 205.152 32.037 209.867 32.037 209.867C34.7102 206.455 36.2663 209.961 36.2663 209.961C38.3068 205.616 41.6726 206.189 41.6726 206.189C47.5086 206.123 46.8706 214.345 46.4843 217.152Z"
          fill="#54B78A"/>
</svg>
