<svg width="165" height="216" viewBox="0 0 165 216" fill="none" xmlns="http://www.w3.org/2000/svg">
<g clip-path="url(#clip0_16476_212464)">
<rect width="165" height="216" transform="matrix(-1 0 0 1 165 0)" fill="#F7F8FC"/>
<path d="M104.88 97.1624C106.63 95.5352 108.412 92.4642 109.74 86.8569C109.74 86.8569 102.566 88.2124 99.3468 91.7562C96.0615 95.3732 101.302 100.49 104.88 97.1624Z" fill="#96AA37"/>
<path d="M109.74 86.8569C109.74 86.8569 103.918 94.9867 99.6358 97.1537" stroke="#1D2424" stroke-width="0.2" stroke-miterlimit="10" stroke-linecap="round" stroke-linejoin="round"/>
<path d="M100.843 90.4365C100.843 90.4365 101.266 92.6453 102.156 95.4015" stroke="#1D2424" stroke-width="0.2" stroke-miterlimit="10" stroke-linecap="round" stroke-linejoin="round"/>
<path d="M107.116 94.178C107.116 94.178 104.799 94.3167 103.743 93.938" stroke="#1D2424" stroke-width="0.2" stroke-miterlimit="10" stroke-linecap="round" stroke-linejoin="round"/>
<path d="M106.204 91.2959C106.204 91.2959 106.103 89.3806 106.493 87.7246" stroke="#1D2424" stroke-width="0.2" stroke-miterlimit="10" stroke-linecap="round" stroke-linejoin="round"/>
<path d="M50.3348 46.6854C49.9748 46.6742 49.5298 47.8892 49.1195 47.8199C48.0193 47.6344 46.7333 47.2229 45.233 46.4944C44.7603 46.2647 45.4218 45.7062 44.9055 45.4104C44.5255 45.1929 42.9775 45.2542 42.5733 44.9982C42.002 44.6367 41.4063 44.2357 40.785 43.7922C40.785 43.7922 42.4675 42.8032 44.6968 41.9777C45.1213 41.8204 46.4915 43.0224 46.948 42.8849C47.2448 42.7957 46.6208 41.3589 46.9258 41.2834C48.2293 40.9609 49.586 40.7859 50.8275 40.9297C51.5838 41.0172 51.791 42.5729 52.262 42.9557C52.682 43.2969 53.3948 42.4414 53.596 42.9192C54.298 44.5869 53.6903 46.8072 51.9278 47.6227C51.4578 47.8402 50.9665 46.7049 50.3348 46.6854Z" fill="#96AA37"/>
<path d="M40.7853 43.792C40.7853 43.792 49.6313 45.874 53.8573 44.7962" stroke="#1D2424" stroke-width="0.2" stroke-miterlimit="10" stroke-linecap="round" stroke-linejoin="round"/>
<path d="M49.0145 40.9214C49.0145 40.9214 50.0463 42.6856 51.0855 45.1039" stroke="#1D2424" stroke-width="0.2" stroke-miterlimit="10" stroke-linecap="round" stroke-linejoin="round"/>
<path d="M46.9588 47.233C46.9588 47.233 48.6278 45.942 49.1236 45.0518" stroke="#1D2424" stroke-width="0.2" stroke-miterlimit="10" stroke-linecap="round" stroke-linejoin="round"/>
<path d="M45.8593 44.7156C45.8593 44.7156 44.7833 43.3443 43.5261 42.4443" stroke="#1D2424" stroke-width="0.2" stroke-miterlimit="10" stroke-linecap="round" stroke-linejoin="round"/>
<path d="M43.7675 24.8441C43.7675 24.8441 39.5733 21.4316 35.7263 23.3353C35.7263 23.3353 37.919 26.8183 43.7675 24.8441Z" fill="#F0A636"/>
<path d="M43.7675 24.8442L35.7263 23.3354" stroke="#1D2424" stroke-width="0.2" stroke-miterlimit="10" stroke-linecap="round" stroke-linejoin="round"/>
<path d="M108.305 101.674C108.305 101.674 110.904 108.304 116.549 108.613C116.549 108.613 116.29 103.198 108.305 101.674Z" fill="#F0A636"/>
<path d="M108.305 101.674L116.549 108.613" stroke="#1D2424" stroke-width="0.2" stroke-miterlimit="10" stroke-linecap="round" stroke-linejoin="round"/>
<path d="M52.082 48.6412C52.082 48.6412 54.356 49.0004 55.7548 45.4614" stroke="#1D2424" stroke-width="0.2" stroke-miterlimit="10" stroke-linecap="round" stroke-linejoin="round"/>
<path d="M39.415 26.8093C39.415 26.8093 41.16 27.1928 43.3518 26.5088" stroke="#1D2424" stroke-width="0.2" stroke-miterlimit="10" stroke-linecap="round" stroke-linejoin="round"/>
<path d="M55.033 44.4592L56.1773 41.7935" stroke="#1D2424" stroke-width="0.2" stroke-miterlimit="10" stroke-linecap="round" stroke-linejoin="round"/>
<path d="M44.9793 25.4497L46.3958 25.5325" stroke="#1D2424" stroke-width="0.2" stroke-miterlimit="10" stroke-linecap="round" stroke-linejoin="round"/>
<path d="M13.7941 100.672C13.7941 100.672 9.59981 97.2592 5.75281 99.163C5.75281 99.163 7.94556 102.646 13.7941 100.672Z" fill="#F0A636"/>
<path d="M13.7941 100.672L5.75281 99.1631" stroke="#1D2424" stroke-width="0.2" stroke-miterlimit="10" stroke-linecap="round" stroke-linejoin="round"/>
<path d="M9.44153 102.637C9.44153 102.637 11.1865 103.02 13.3783 102.336" stroke="#1D2424" stroke-width="0.2" stroke-miterlimit="10" stroke-linecap="round" stroke-linejoin="round"/>
<path d="M15.0058 101.277L16.4223 101.36" stroke="#1D2424" stroke-width="0.2" stroke-miterlimit="10" stroke-linecap="round" stroke-linejoin="round"/>
<path d="M108.035 95.6499C108.035 95.6499 105.931 100.231 100.598 100.643" stroke="#1D2424" stroke-width="0.2" stroke-miterlimit="10" stroke-linecap="round" stroke-linejoin="round"/>
<path d="M106.709 103.191C106.709 103.191 107.976 106.203 109.802 107.457" stroke="#1D2424" stroke-width="0.2" stroke-miterlimit="10" stroke-linecap="round" stroke-linejoin="round"/>
<path d="M23.4008 67.0884H21.6643" stroke="#1D2424" stroke-width="0.2" stroke-miterlimit="10" stroke-linecap="round" stroke-linejoin="round"/>
<path d="M21.6643 68.0469H16.0798" stroke="#1D2424" stroke-width="0.2" stroke-miterlimit="10" stroke-linecap="round" stroke-linejoin="round"/>
<path d="M11.947 133.284H5.57953" stroke="#1D2424" stroke-width="0.2" stroke-miterlimit="10" stroke-linecap="round" stroke-linejoin="round"/>
<path d="M10.758 134.67H9.50775" stroke="#1D2424" stroke-width="0.2" stroke-miterlimit="10" stroke-linecap="round" stroke-linejoin="round"/>
<path d="M11.0875 136.348H7.58929" stroke="#1D2424" stroke-width="0.2" stroke-miterlimit="10" stroke-linecap="round" stroke-linejoin="round"/>
<path d="M48.0853 55.0962H42.4008" stroke="#1D2424" stroke-width="0.2" stroke-miterlimit="10" stroke-linecap="round" stroke-linejoin="round"/>
<path d="M45.2018 52.9531H47.179" stroke="#1D2424" stroke-width="0.2" stroke-miterlimit="10" stroke-linecap="round" stroke-linejoin="round"/>
<path d="M-3.35327 124.491L27.5544 95.5352L29.3982 104.324L-3.35327 134.256V124.491Z" fill="#EF5252"/>
<path d="M-7.47437 85.562L27.663 86.8779L54.6945 148.963L48.8684 153.46L22.5842 95.9645L-7.47437 95.3428V85.562Z" fill="#EF5252"/>
<path d="M23.6101 115.505C23.6101 115.505 32.0164 108.688 41.5202 106.874" stroke="#1D2424" stroke-width="0.2" stroke-miterlimit="10" stroke-linecap="round" stroke-linejoin="round"/>
<path d="M42.7076 79.0836C42.7076 79.0836 44.0478 75.5737 39.5167 73.4038C34.9857 71.2341 39.4037 65.2351 44.5975 69.3833C49.7914 73.5315 49.5999 79.3389 48.8978 82.5935C48.1957 85.8482 42.3758 95.2542 31.3097 95.2542C20.2436 95.2542 27.6629 86.878 27.6629 86.878C27.6629 86.878 39.3891 88.5926 42.7076 79.0836Z" fill="#EF5252"/>
<path d="M17.4901 86.4971L29.9727 86.9971L36.1353 94.6182C36.1353 94.6182 33.8409 95.2636 31.3098 95.254C31.3098 95.254 22.6902 94.9495 17.4901 86.4971Z" fill="#CE3232"/>
<path d="M23.9841 98.8799L27.3027 106.238L24.235 109.042C24.235 109.042 20.7808 108.567 18.7071 103.824L23.9841 98.8799Z" fill="#CE3232"/>
<path d="M23.6101 98.0513L28.8871 109.752" stroke="#1D2424" stroke-width="0.2" stroke-miterlimit="10" stroke-linecap="round" stroke-linejoin="round"/>
<path d="M33.424 119.676L40.3936 116.117L43.7518 123.83C43.7518 123.83 40.2502 123.758 36.8012 127.064L33.424 119.676Z" fill="#CE3232"/>
<path d="M52.2585 111.938H51.3188V190.471H52.2585V111.938Z" fill="#1D2424"/>
<path d="M91.0555 151.674V150.734L12.5218 150.734V151.674L91.0555 151.674Z" fill="#1D2424"/>
<path d="M79.887 123.769L79.2225 123.105L23.6913 178.636L24.3557 179.301L79.887 123.769Z" fill="#1D2424"/>
<path d="M79.2233 179.302L79.8877 178.638L24.3565 123.106L23.692 123.771L79.2233 179.302Z" fill="#1D2424"/>
<path d="M67.7089 115.302L66.8455 114.932L35.8717 187.096L36.7352 187.467L67.7089 115.302Z" fill="#1D2424"/>
<path d="M87.6904 167.124L88.061 166.261L15.8963 135.287L15.5257 136.15L87.6904 167.124Z" fill="#1D2424"/>
<path d="M88.4289 137.079L88.0804 136.206L15.1461 165.334L15.4946 166.207L88.4289 137.079Z" fill="#1D2424"/>
<path d="M65.9125 187.845L66.7852 187.497L37.657 114.562L36.7843 114.911L65.9125 187.845Z" fill="#1D2424"/>
<path d="M59.8319 112.768L58.9099 112.587L43.745 189.644L44.667 189.826L59.8319 112.768Z" fill="#1D2424"/>
<path d="M90.2236 159.247L90.4051 158.325L13.3478 143.16L13.1663 144.082L90.2236 159.247Z" fill="#1D2424"/>
<path d="M84.6607 129.713L84.137 128.933L18.9304 172.699L19.4541 173.48L84.6607 129.713Z" fill="#1D2424"/>
<path d="M73.2802 184.074L74.0604 183.55L30.2936 118.344L29.5133 118.867L73.2802 184.074Z" fill="#1D2424"/>
<path d="M74.3392 119.061L73.5635 118.531L29.2312 183.36L30.0069 183.891L74.3392 119.061Z" fill="#1D2424"/>
<path d="M83.9379 173.758L84.4682 172.982L19.6386 128.658L19.1082 129.434L83.9379 173.758Z" fill="#1D2424"/>
<path d="M90.4705 144.419L90.2971 143.495L13.1141 157.992L13.2875 158.916L90.4705 144.419Z" fill="#1D2424"/>
<path d="M58.5756 189.884L59.4991 189.71L45.0017 112.527L44.0782 112.701L58.5756 189.884Z" fill="#1D2424"/>
<path d="M51.7886 196.703C26.7004 196.703 6.28973 176.292 6.28973 151.204C6.28973 126.115 26.7006 105.705 51.7886 105.705C76.877 105.705 97.2878 126.115 97.2878 151.204C97.2878 176.292 76.877 196.703 51.7886 196.703ZM51.7886 111.058C29.6524 111.058 11.6432 129.067 11.6432 151.204C11.6432 173.34 29.6524 191.349 51.7886 191.349C73.9249 191.349 91.9341 173.34 91.9341 151.204C91.9341 129.067 73.9249 111.058 51.7886 111.058Z" fill="#5DAEDA"/>
<path d="M51.7886 193.813C28.2938 193.813 9.17926 174.699 9.17926 151.204C9.17926 127.709 28.2938 108.594 51.7886 108.594C75.2837 108.594 94.3982 127.709 94.3982 151.204C94.3982 174.699 75.2837 193.813 51.7886 193.813ZM51.7886 113.948C31.2458 113.948 14.5329 130.661 14.5329 151.204C14.5329 171.747 31.246 188.46 51.7886 188.46C72.3317 188.46 89.0447 171.747 89.0447 151.204C89.0447 130.661 72.3317 113.948 51.7886 113.948Z" fill="#CB8F8F"/>
<path d="M51.7886 191.747C29.4325 191.747 11.245 173.56 11.245 151.203C11.245 128.847 29.4325 110.66 51.7886 110.66C74.1445 110.66 92.3324 128.848 92.3324 151.203C92.3324 173.559 74.1445 191.747 51.7886 191.747ZM51.7886 116.013C32.3846 116.013 16.5985 131.799 16.5985 151.203C16.5985 170.608 32.3846 186.394 51.7886 186.394C71.1924 186.394 86.9789 170.608 86.9789 151.203C86.9789 131.799 71.1924 116.013 51.7886 116.013Z" fill="#1D2424"/>
<path d="M51.7887 191.747C29.4326 191.747 11.2451 173.56 11.2451 151.203C11.2451 128.847 29.4326 110.66 51.7887 110.66C74.1445 110.66 92.3325 128.848 92.3325 151.203C92.3325 173.559 74.1445 191.747 51.7887 191.747ZM51.7887 116.013C32.3846 116.013 16.5985 131.799 16.5985 151.203C16.5985 170.608 32.3846 186.394 51.7887 186.394C71.1925 186.394 86.979 170.608 86.979 151.203C86.979 131.799 71.1925 116.013 51.7887 116.013Z" fill="#1D2424"/>
<path d="M57.1486 156.565C60.1095 153.604 60.1095 148.803 57.1486 145.843C54.1878 142.882 49.3873 142.882 46.4265 145.843C43.4656 148.803 43.4656 153.604 46.4264 156.565C49.3873 159.526 54.1878 159.526 57.1486 156.565Z" fill="#EF5252"/>
<path d="M55.3667 152.077C55.8375 150.098 54.6154 148.113 52.637 147.642C50.6586 147.171 48.6731 148.393 48.2023 150.372C47.7315 152.35 48.9536 154.336 50.932 154.807C52.9104 155.277 54.8959 154.055 55.3667 152.077Z" fill="#CB8F8F"/>
<path d="M26.7802 88.8702C26.7802 88.8702 30.2878 93.412 35.2443 95.5445C40.2008 97.677 42.564 99.7519 43.8321 95.8904C43.8321 95.8904 46.7714 98.3111 48.0971 94.2189C48.0971 94.2189 50.3449 95.8904 51.0364 90.5878C51.0364 90.5878 53.4572 89.3198 54.0335 87.3602C54.6099 85.4006 52.1891 82.634 51.2671 81.0203C50.3449 79.4066 46.0223 78.1961 43.6016 78.0231C41.181 77.8502 40.5469 79.6946 38.8178 79.8676C37.0887 80.0405 34.2581 80.0856 34.2581 80.0856C34.2581 80.0856 33.4743 83.3486 26.7802 88.8702Z" fill="#FFAE71"/>
<path d="M34.2583 80.0859C34.2583 80.0859 33.4743 83.3489 26.7804 88.8705C26.7804 88.8705 30.288 93.4124 35.2445 95.5449C35.2445 95.5449 32.8324 89.3409 34.2583 80.0859Z" fill="#D88A55"/>
<path d="M43.8321 95.8902C43.8321 95.8902 44.1326 95.2232 44.5976 93.9624C44.5976 93.9624 45.3132 95.7898 46.1288 96.5534C46.1288 96.5534 45.0665 96.8608 43.8321 95.8902Z" fill="#D88A55"/>
<path d="M48.0973 90.5728V94.2184C48.0973 94.2184 49.1326 95.0483 50.0101 93.8299C50.0101 93.8299 48.5556 92.4995 48.0973 90.5728Z" fill="#D88A55"/>
<path d="M50.7332 86.7891C50.7332 86.7891 51.5444 88.7594 52.9748 89.0949C52.9748 89.0949 51.8803 90.2437 51.0368 90.5876C51.0368 90.5876 50.7469 87.6215 50.7332 86.7891Z" fill="#D88A55"/>
<path d="M43.8321 95.8902C43.8321 95.8902 44.1624 95.3861 44.5976 93.9624" stroke="#1D2424" stroke-width="0.2" stroke-miterlimit="10" stroke-linecap="round" stroke-linejoin="round"/>
<path d="M48.0972 94.2189C48.0972 94.2189 48.054 92.0375 48.0972 90.5732" stroke="#1D2424" stroke-width="0.2" stroke-miterlimit="10" stroke-linecap="round" stroke-linejoin="round"/>
<path d="M51.0366 90.5877C51.0366 90.5877 50.8512 88.2675 50.7576 87.1457C50.6641 86.0242 50.7576 85.4009 50.7576 85.4009" stroke="#1D2424" stroke-width="0.2" stroke-miterlimit="10" stroke-linecap="round" stroke-linejoin="round"/>
<path d="M-1.73256 28.8076C8.53489 42.1151 16.4441 51.3088 19.6829 57.1638C22.9218 63.0188 34.2581 80.0855 34.2581 80.0855C34.2581 80.0855 32.5669 85.3276 25.7869 89.5531C25.7869 89.5531 6.35318 71.8636 -4.111 59.0323C-14.5752 46.2009 -15.086 48.0568 -15.086 48.0568C-15.086 48.0568 -12 15.5 -1.73256 28.8076Z" fill="#5DAEDA"/>
<path d="M-8.26468 37.3477C-9.3224 44.5988 -9.01458 53.0194 -4.11088 59.0324C6.3533 71.8635 25.7871 89.5533 25.7871 89.5533C28.5402 87.8373 30.4542 85.9538 31.7568 84.3216C31.7568 84.3216 -3.3986 56.4358 -8.26468 37.3477Z" fill="#3D97BF"/>
<path d="M31.7569 76.2939C31.7569 76.2939 28.9333 81.6054 21.8478 85.8952" stroke="#1D2424" stroke-width="0.2" stroke-miterlimit="10" stroke-linecap="round" stroke-linejoin="round"/>
<path d="M24.2025 84.3271L27.7723 88.0314" stroke="#1D2424" stroke-width="0.2" stroke-miterlimit="10" stroke-linecap="round" stroke-linejoin="round"/>
<path d="M28.2781 80.7856L31.5884 84.5287" stroke="#1D2424" stroke-width="0.2" stroke-miterlimit="10" stroke-linecap="round" stroke-linejoin="round"/>
<path d="M30.9816 77.5186L33.9824 80.7855" stroke="#1D2424" stroke-width="0.2" stroke-miterlimit="10" stroke-linecap="round" stroke-linejoin="round"/>
</g>
<defs>
<clipPath id="clip0_16476_212464">
<rect width="165" height="216" fill="white"/>
</clipPath>
</defs>
</svg>
