<svg width="165" height="216" viewBox="0 0 165 216" fill="none" xmlns="http://www.w3.org/2000/svg">
<g clip-path="url(#clip0_19017_154206)">
<rect width="165" height="216" fill="#F7F8FC"/>
<path d="M55.569 186.286H36.2041V191.874H55.569V186.286Z" fill="#5C6671"/>
<path d="M38.7762 216H36.6807C35.806 216 35.0957 215.289 35.0957 214.415V193.082C35.0957 192.206 35.806 191.497 36.6807 191.497H38.7762C39.6523 191.497 40.3613 192.207 40.3613 193.082V214.415C40.3613 215.291 39.6523 216 38.7762 216Z" fill="#5C6671"/>
<path d="M59.0851 195.487H50.2866C48.3556 195.487 46.7888 193.92 46.7888 191.989V186.32C46.7888 184.388 48.3556 182.821 50.2866 182.821H59.0851C61.0174 182.821 62.5829 184.388 62.5829 186.32V191.989C62.5829 193.921 61.0174 195.487 59.0851 195.487Z" fill="#758392"/>
<path opacity="0.3" d="M38.7762 191.497H36.6807C35.8047 191.497 35.0957 192.207 35.0957 193.082V196.823C35.2354 196.848 35.3242 196.978 35.4704 196.978H39.9852C40.1328 196.978 40.2216 196.848 40.3613 196.823V193.082C40.3613 192.207 39.6523 191.497 38.7762 191.497Z" fill="black"/>
<path d="M39.9851 195.152H35.4715C34.1059 195.152 33 194.045 33 192.681V185.48C33 184.116 34.1059 183.009 35.4715 183.009H39.9851C41.3494 183.009 42.4566 184.116 42.4566 185.48V192.681C42.4566 194.045 41.3507 195.152 39.9851 195.152Z" fill="#758392"/>
<path opacity="0.2" d="M43.8536 186.286H42.4565V191.874H43.8536V186.286Z" fill="black"/>
<path opacity="0.2" d="M46.7876 186.286H45.3906V191.874H46.7876V186.286Z" fill="black"/>
<path opacity="0.2" d="M37.783 195.152H39.9855C40.5522 195.152 41.0196 194.872 41.4361 194.552V183.609C41.0196 183.29 40.5522 183.009 39.9855 183.009H37.783V195.152Z" fill="#CDE6FF"/>
<path opacity="0.3" d="M49.6929 195.366C49.8926 195.403 50.0754 195.487 50.2856 195.487H52.8342V182.821H50.2869C50.0767 182.821 49.8939 182.906 49.6942 182.941L49.6929 195.366Z" fill="black"/>
<path d="M59.426 90.7408H46.8359C46.0382 90.7408 45.3906 90.0945 45.3906 89.2955V77.9131C45.3906 77.1154 46.0369 76.4678 46.8359 76.4678H59.426C60.2238 76.4678 60.8713 77.1154 60.8713 77.9131V89.2955C60.87 90.0945 60.2224 90.7408 59.426 90.7408Z" fill="#758392"/>
<path opacity="0.3" d="M59.4247 89.8459H46.8359C46.0382 89.8459 45.3906 89.1996 45.3906 88.4019V89.2975C45.3906 90.0952 46.0382 90.7428 46.8359 90.7428H59.4247C60.2224 90.7428 60.87 90.0952 60.87 89.2975V88.4019C60.87 89.1996 60.2224 89.8459 59.4247 89.8459Z" fill="white"/>
<path opacity="0.2" d="M59.4247 87.1226H46.8359C46.0382 87.1226 45.3906 86.475 45.3906 85.6772V89.2951C45.3906 90.0942 46.0382 90.7404 46.8359 90.7404H59.4247C60.2224 90.7404 60.87 90.0942 60.87 89.2951V85.6772C60.87 86.475 60.2224 87.1226 59.4247 87.1226Z" fill="#3F454C"/>
<path opacity="0.3" d="M60.87 78.2803H45.3906V82.1488H60.87V78.2803Z" fill="#CDE6FF"/>
<path opacity="0.2" d="M52.6863 76.4678H51.2332V90.7408H52.6863V76.4678Z" fill="#3F454C"/>
<path d="M232.812 69.8306H56.3198V204.877H232.812V69.8306Z" fill="#758392"/>
<path d="M73.1749 206.449H54.3204C53.4169 206.449 52.6858 205.718 52.6858 204.814V69.6346C52.6858 68.7325 53.4169 68 54.3204 68H73.1749C74.077 68 74.8095 68.7325 74.8095 69.6346V204.814C74.8095 205.718 74.0784 206.449 73.1749 206.449Z" fill="#E5F2FF"/>
<path opacity="0.4" d="M73.1745 68H54.32C53.5575 68 53.0144 68.5693 52.8342 69.2756C52.8551 69.2756 52.8669 69.2547 52.8878 69.2547H71.7435C72.6457 69.2547 73.3781 69.9858 73.3781 70.888V206.068C73.3781 206.207 73.2619 206.298 73.2293 206.427C74.1028 206.394 74.8104 205.696 74.8104 204.814V69.6346C74.8091 68.7311 74.0779 68 73.1745 68Z" fill="white"/>
<path opacity="0.2" d="M74.6794 203.869H55.825C54.9228 203.869 54.1917 203.138 54.1917 202.234V68.0532C53.36 68.1289 52.6863 68.7818 52.6863 69.6343V204.815C52.6863 205.718 53.4174 206.449 54.3209 206.449H73.1754C74.0788 206.449 74.81 205.716 74.81 204.815V203.817C74.7591 203.819 74.729 203.869 74.6794 203.869Z" fill="#9CCBFF"/>
<path opacity="0.4" d="M73.3903 206.259H54.5359C53.6337 206.259 52.9012 205.528 52.9012 204.625V69.4463C52.9012 69.0416 53.0866 68.6956 53.3295 68.4097C52.9561 68.71 52.6858 69.1173 52.6858 69.6343V204.815C52.6858 205.718 53.4169 206.449 54.3204 206.449H73.1749C73.6723 206.449 74.081 206.202 74.3799 205.851C74.1005 206.075 73.7767 206.259 73.3903 206.259Z" fill="white"/>
<path d="M96.0652 206.449H77.2108C76.3073 206.449 75.5762 205.718 75.5762 204.814V69.6346C75.5762 68.7325 76.3073 68 77.2108 68H96.0652C96.9674 68 97.6999 68.7325 97.6999 69.6346V204.814C97.6999 205.718 96.9674 206.449 96.0652 206.449Z" fill="#E5F2FF"/>
<path opacity="0.4" d="M96.0663 68H77.2119C76.4494 68 75.9062 68.5693 75.7261 69.2756C75.747 69.2756 75.7587 69.2547 75.7796 69.2547H94.634C95.5362 69.2547 96.2687 69.9858 96.2687 70.888V206.068C96.2687 206.207 96.1538 206.298 96.1198 206.427C96.9933 206.394 97.7009 205.696 97.7009 204.814V69.6346C97.7009 68.7311 96.9685 68 96.0663 68Z" fill="white"/>
<path opacity="0.2" d="M97.5693 203.869H78.7149C77.8127 203.869 77.0815 203.138 77.0815 202.234V68.0532C76.2499 68.1289 75.5762 68.7818 75.5762 69.6343V204.815C75.5762 205.718 76.3073 206.449 77.2108 206.449H96.0652C96.9687 206.449 97.6999 205.716 97.6999 204.815V203.817C97.6503 203.819 97.6202 203.869 97.5693 203.869Z" fill="#9CCBFF"/>
<path opacity="0.4" d="M96.2794 206.259H77.4249C76.5227 206.259 75.7916 205.528 75.7916 204.625V69.4463C75.7916 69.0416 75.977 68.6956 76.2198 68.4097C75.8464 68.71 75.5762 69.1173 75.5762 69.6343V204.815C75.5762 205.718 76.3073 206.449 77.2108 206.449H96.0652C96.5627 206.449 96.9713 206.202 97.2703 205.851C96.9909 206.075 96.6671 206.259 96.2794 206.259Z" fill="white"/>
<path d="M118.955 206.449H100.101C99.1975 206.449 98.4663 205.718 98.4663 204.814V69.6346C98.4663 68.7325 99.1975 68 100.101 68H118.955C119.858 68 120.59 68.7325 120.59 69.6346V204.814C120.59 205.718 119.858 206.449 118.955 206.449Z" fill="#E5F2FF"/>
<path opacity="0.4" d="M118.956 68H100.101C99.3388 68 98.797 68.5693 98.6155 69.2756C98.6364 69.2756 98.6481 69.2547 98.669 69.2547H117.523C118.426 69.2547 119.158 69.9858 119.158 70.888V206.068C119.158 206.207 119.042 206.298 119.009 206.427C119.883 206.394 120.59 205.696 120.59 204.814V69.6346C120.59 68.7311 119.859 68 118.956 68Z" fill="white"/>
<path opacity="0.2" d="M120.461 203.869H101.606C100.703 203.869 99.9717 203.138 99.9717 202.234V68.0532C99.14 68.1289 98.4663 68.7818 98.4663 69.6343V204.815C98.4663 205.718 99.1975 206.449 100.1 206.449H118.954C119.858 206.449 120.589 205.716 120.589 204.815V203.817C120.54 203.819 120.51 203.869 120.461 203.869Z" fill="#9CCBFF"/>
<path opacity="0.4" d="M119.171 206.259H100.316C99.4142 206.259 98.6817 205.528 98.6817 204.625V69.4463C98.6817 69.0416 98.8671 68.6956 99.11 68.4097C98.7366 68.71 98.4663 69.1173 98.4663 69.6343V204.815C98.4663 205.718 99.1975 206.449 100.1 206.449H118.954C119.452 206.449 119.86 206.202 120.159 205.851C119.881 206.075 119.557 206.259 119.171 206.259Z" fill="white"/>
<path d="M141.847 206.449H122.993C122.089 206.449 121.358 205.718 121.358 204.814V69.6346C121.358 68.7325 122.089 68 122.993 68H141.847C142.749 68 143.482 68.7325 143.482 69.6346V204.814C143.481 205.718 142.749 206.449 141.847 206.449Z" fill="#E5F2FF"/>
<path opacity="0.4" d="M141.847 68H122.993C122.23 68 121.689 68.5693 121.507 69.2756C121.528 69.2756 121.54 69.2547 121.561 69.2547H140.415C141.317 69.2547 142.05 69.9858 142.05 70.888V206.068C142.05 206.207 141.935 206.298 141.901 206.427C142.774 206.394 143.482 205.696 143.482 204.814V69.6346C143.481 68.7311 142.749 68 141.847 68Z" fill="white"/>
<path opacity="0.2" d="M143.351 203.869H124.496C123.593 203.869 122.862 203.138 122.862 202.234V68.0532C122.03 68.1289 121.356 68.7818 121.356 69.6343V204.815C121.356 205.718 122.087 206.449 122.991 206.449H141.845C142.749 206.449 143.48 205.716 143.48 204.815V203.817C143.43 203.819 143.402 203.869 143.351 203.869Z" fill="#9CCBFF"/>
<path opacity="0.4" d="M142.061 206.259H123.206C122.304 206.259 121.573 205.528 121.573 204.625V69.4463C121.573 69.0416 121.758 68.6956 122.001 68.4097C121.628 68.71 121.358 69.1173 121.358 69.6343V204.815C121.358 205.718 122.089 206.449 122.992 206.449H141.847C142.344 206.449 142.753 206.202 143.052 205.851C142.772 206.075 142.447 206.259 142.061 206.259Z" fill="white"/>
<path d="M164.737 206.449H145.883C144.979 206.449 144.248 205.718 144.248 204.814V69.6346C144.248 68.7325 144.979 68 145.883 68H164.737C165.639 68 166.37 68.7325 166.37 69.6346V204.814C166.372 205.718 165.639 206.449 164.737 206.449Z" fill="#E5F2FF"/>
<path opacity="0.4" d="M164.737 68H145.883C145.12 68 144.577 68.5693 144.397 69.2756C144.418 69.2756 144.43 69.2547 144.451 69.2547H163.305C164.207 69.2547 164.94 69.9858 164.94 70.888V206.068C164.94 206.207 164.823 206.298 164.791 206.427C165.664 206.394 166.372 205.696 166.372 204.814V69.6346C166.372 68.7311 165.641 68 164.737 68Z" fill="white"/>
<path opacity="0.2" d="M166.243 203.869H147.389C146.485 203.869 145.755 203.138 145.755 202.234V68.0532C144.924 68.1289 144.25 68.7818 144.25 69.6343V204.815C144.25 205.718 144.981 206.449 145.883 206.449H164.739C165.643 206.449 166.372 205.716 166.372 204.815V203.817C166.323 203.819 166.293 203.869 166.243 203.869Z" fill="#9CCBFF"/>
<path opacity="0.4" d="M164.953 206.259H146.099C145.197 206.259 144.465 205.528 144.465 204.625V69.4463C144.465 69.0416 144.65 68.6956 144.894 68.4097C144.52 68.71 144.25 69.1173 144.25 69.6343V204.815C144.25 205.718 144.981 206.449 145.883 206.449H164.739C165.236 206.449 165.645 206.202 165.944 205.851C165.663 206.075 165.34 206.259 164.953 206.259Z" fill="white"/>
</g>
<defs>
<clipPath id="clip0_19017_154206">
<rect width="165" height="216" fill="white"/>
</clipPath>
</defs>
</svg>
