<svg width="1440" height="57" viewBox="0 0 1440 57" fill="none" xmlns="http://www.w3.org/2000/svg">
    <path d="M218.841 19.0557C221.467 20.2056 224.345 19.7812 226.155 18.1824L226.259 18.199C226.973 18.3058 228.519 18.4242 229.169 18.7354C229.944 19.1168 230.86 19.6845 231.489 20.5314C231.559 20.4023 231.668 20.2979 231.799 20.2323L234.709 18.7731L233.783 18.2053L231.778 16.8979C230.962 16.3596 230.032 16.0182 229.061 15.9006L229.026 15.8999C228.711 15.8656 228.421 15.7104 228.218 15.4671C228.015 15.2237 227.913 14.911 227.936 14.5947C228.124 12.0279 226.459 9.34798 223.649 8.11392C220.198 6.59635 216.311 7.81364 214.986 10.8277C213.662 13.8418 215.392 17.5382 218.841 19.0557ZM216.88 11.6759C217.806 9.57242 220.516 8.72272 222.924 9.7823C225.332 10.8419 226.538 13.4142 225.613 15.5232C224.687 17.6321 221.975 18.4763 219.567 17.4167C217.159 16.3571 215.955 13.7757 216.88 11.6667L216.88 11.6759Z" fill="#AEAC9F"/>
    <path d="M236.041 23.7604L251.393 33.039C251.795 33.2821 252.242 33.4436 252.706 33.5142C253.171 33.5849 253.645 33.5632 254.102 33.4506C254.558 33.3379 254.988 33.1365 255.367 32.8577C255.745 32.579 256.065 32.2284 256.308 31.826L239.823 21.8619L236.041 23.7604Z" fill="#AEAC9F"/>
    <path d="M252.183 10.7943L231.853 20.9877C231.196 22.1928 229.92 22.9037 228.899 23.3017C228.228 23.5647 226.676 23.5564 225.956 23.6147L225.851 23.6238C224.172 21.8855 221.338 21.2312 218.629 22.1764C215.07 23.4162 213.057 26.9574 214.142 30.0672C215.227 33.1771 219.003 34.697 222.564 33.4553C225.452 32.4473 227.321 29.9279 227.343 27.3507C227.344 27.0313 227.469 26.7248 227.691 26.4954C227.913 26.266 228.216 26.1317 228.535 26.1205L228.57 26.1211C229.546 26.0799 230.5 25.8128 231.356 25.3407L233.458 24.1971L256.991 12.3992C256.781 11.9777 256.49 11.6017 256.135 11.2928C255.779 10.9839 255.367 10.7481 254.92 10.5991C254.473 10.45 254.002 10.3905 253.532 10.424C253.062 10.4575 252.604 10.5833 252.183 10.7943ZM221.969 31.7443C219.485 32.6166 216.848 31.5491 216.092 29.3798C215.335 27.2104 216.739 24.7376 219.224 23.8727C221.709 23.0078 224.343 24.066 225.1 26.2372C225.856 28.4083 224.452 30.8775 221.969 31.7443ZM235.295 22.4996C235.082 22.5738 234.852 22.5831 234.633 22.5264C234.415 22.4697 234.218 22.3495 234.068 22.181C233.918 22.0125 233.821 21.8033 233.79 21.5797C233.758 21.3562 233.794 21.1284 233.892 20.9251C233.99 20.7218 234.146 20.5522 234.341 20.4376C234.535 20.323 234.759 20.2686 234.984 20.2813C235.21 20.294 235.426 20.3732 235.607 20.509C235.787 20.6447 235.923 20.8308 235.998 21.0438C236.048 21.1855 236.069 21.3357 236.061 21.4856C236.052 21.6356 236.014 21.7825 235.949 21.9178C235.884 22.053 235.793 22.1741 235.68 22.2739C235.568 22.3738 235.437 22.4505 235.295 22.4996Z" fill="#AEAC9F"/>
    <path d="M649.5 31.8607L644.141 31.7621L644.178 29.734L649.537 29.8327L649.5 31.8607ZM638.782 31.6634L633.415 31.5647L633.453 29.5366L638.812 29.6353L638.782 31.6634ZM628.064 31.4662L622.704 31.3675L622.742 29.3395L628.101 29.4382L628.064 31.4662ZM617.344 31.2689L611.984 31.1703L612.022 29.1422L617.381 29.2409L617.344 31.2689ZM606.625 31.0716L601.266 30.973L601.304 28.945L606.657 29.0435L606.625 31.0716ZM595.907 30.8744L590.548 30.7757L590.585 28.7477L595.944 28.8463L595.907 30.8744ZM585.187 30.6771L579.824 30.5784L579.862 28.5503L585.221 28.649L585.187 30.6771ZM574.469 30.4798L569.11 30.3812L569.147 28.3532L574.506 28.4518L574.469 30.4798ZM563.751 30.2826L558.392 30.1839L558.429 28.1559L563.788 28.2545L563.751 30.2826ZM553.031 30.0853L547.672 29.9866L547.709 27.9586L553.066 28.0572L553.031 30.0853ZM542.312 29.888L536.953 29.7894L536.991 27.7613L542.35 27.86L542.312 29.888ZM531.594 29.6907L526.233 29.5921L526.271 27.5641L531.63 27.6627L531.594 29.6907ZM520.876 29.4935L515.515 29.3948L515.552 27.3668L520.913 27.4655L520.876 29.4935ZM510.156 29.2962L504.797 29.1976L504.834 27.1695L510.193 27.2682L510.156 29.2962ZM499.438 29.0989L494.079 29.0003L494.116 26.9723L499.475 27.0709L499.438 29.0989ZM488.72 28.9017L483.359 28.803L483.396 26.775L488.757 26.8736L488.72 28.9017ZM478 28.7044L472.642 28.6058L472.68 26.5778L478.039 26.6764L478 28.7044ZM467.281 28.5071L461.922 28.4085L461.96 26.3805L467.319 26.4791L467.281 28.5071ZM456.563 28.3099L451.204 28.2112L451.241 26.1832L456.6 26.2818L456.563 28.3099ZM445.843 28.1126L440.484 28.0139L440.521 25.9859L445.884 26.0846L445.843 28.1126ZM435.125 27.9153L429.766 27.8167L429.803 25.7886L435.162 25.8873L435.125 27.9153ZM424.407 27.718L419.051 27.6195L419.089 25.5915L424.448 25.6901L424.407 27.718ZM413.687 27.5207L408.328 27.4221L408.365 25.3941L413.724 25.4927L413.687 27.5207ZM402.968 27.3235L397.609 27.2249L397.647 25.1968L403.006 25.2955L402.968 27.3235ZM392.25 27.1262L386.891 27.0276L386.929 24.9996L392.293 25.0983L392.25 27.1262ZM381.532 26.929L376.171 26.8303L376.208 24.8023L381.569 24.9009L381.532 26.929ZM370.812 26.7317L365.46 26.6332L365.498 24.6052L370.857 24.7038L370.812 26.7317ZM360.094 26.5344L354.735 26.4358L354.772 24.4078L360.131 24.5064L360.094 26.5344ZM349.376 26.3372L344.015 26.2385L344.052 24.2105L349.413 24.3091L349.376 26.3372ZM338.656 26.1399L333.296 26.0412L333.334 24.0132L338.702 24.112L338.656 26.1399ZM327.937 25.9426L322.578 25.844L322.616 23.8159L327.975 23.9146L327.937 25.9426ZM317.219 25.7453L311.858 25.6467L311.896 23.6187L317.257 23.7173L317.219 25.7453ZM306.499 25.5481L301.14 25.4494L301.177 23.4214L306.536 23.52L306.499 25.5481ZM295.781 25.3508L290.422 25.2522L290.459 23.2241L295.818 23.3228L295.781 25.3508ZM285.063 25.1535L279.704 25.0549L279.741 23.0269L285.1 23.1255L285.063 25.1535ZM274.343 24.9562L268.984 24.8576L269.021 22.8296L274.38 22.9282L274.343 24.9562ZM263.625 24.759L258.265 24.6603L258.303 22.6323L263.662 22.731L263.625 24.759Z" fill="#AEAC9F"/>
    <path d="M208.396 23.7425L203.037 23.6439L203.075 21.6159L208.434 21.7145L208.396 23.7425ZM197.678 23.5453L192.312 23.4465L192.349 21.4185L197.708 21.5171L197.678 23.5453ZM186.96 23.348L181.601 23.2494L181.638 21.2214L186.997 21.32L186.96 23.348ZM176.24 23.1507L170.881 23.0521L170.918 21.0241L176.277 21.1227L176.24 23.1507ZM165.522 22.9535L160.163 22.8548L160.2 20.8268L165.554 20.9253L165.522 22.9535ZM154.804 22.7562L149.445 22.6576L149.482 20.6295L154.841 20.7282L154.804 22.7562ZM144.084 22.5589L138.721 22.4602L138.758 20.4322L144.117 20.5308L144.084 22.5589ZM133.365 22.3616L128.006 22.263L128.044 20.235L133.403 20.3336L133.365 22.3616ZM122.647 22.1644L117.288 22.0658L117.325 20.0377L122.684 20.1364L122.647 22.1644ZM111.927 21.9671L106.568 21.8685L106.605 19.8404L111.963 19.939L111.927 21.9671ZM101.209 21.7698L95.8498 21.6712L95.8872 19.6432L101.246 19.7418L101.209 21.7698ZM90.4907 21.5726L85.1298 21.4739L85.1671 19.4459L90.5262 19.5445L90.4907 21.5726ZM79.7725 21.3753L74.4116 21.2767L74.4489 19.2486L79.8099 19.3473L79.7725 21.3753ZM69.0525 21.178L63.6934 21.0794L63.7307 19.0514L69.0898 19.15L69.0525 21.178ZM58.3343 20.9808L52.9752 20.8821L53.0125 18.8541L58.3716 18.9527L58.3343 20.9808ZM47.6161 20.7835L42.2551 20.6848L42.2925 18.6568L47.6534 18.7555L47.6161 20.7835ZM36.896 20.5862L31.5388 20.4876L31.5761 18.4596L36.9352 18.5582L36.896 20.5862ZM26.1779 20.3889L20.8187 20.2903L20.856 18.2623L26.2152 18.3609L26.1779 20.3889ZM15.4596 20.1917L10.1005 20.0931L10.1379 18.065L15.497 18.1637L15.4596 20.1917ZM4.73961 19.9944L-0.619486 19.8958L-0.582162 17.8677L4.78059 17.9664L4.73961 19.9944ZM-5.97861 19.7971L-11.3377 19.6985L-11.3004 17.6705L-5.94129 17.7691L-5.97861 19.7971ZM-16.6968 19.5999L-22.0522 19.5013L-22.0149 17.4733L-16.6558 17.5719L-16.6968 19.5999ZM-27.4168 19.4026L-32.776 19.304L-32.7386 17.2759L-27.3795 17.3746L-27.4168 19.4026ZM-38.135 19.2053L-43.4941 19.1067L-43.4568 17.0787L-38.0977 17.1773L-38.135 19.2053ZM-48.8532 19.0081L-54.2123 18.9094L-54.175 16.8814L-48.8104 16.9801L-48.8532 19.0081ZM-59.5715 18.8108L-64.9324 18.7121L-64.8951 16.6841L-59.5341 16.7828L-59.5715 18.8108ZM-70.2915 18.6135L-75.6432 18.515L-75.6059 16.487L-70.2468 16.5856L-70.2915 18.6135ZM-81.0097 18.4163L-86.3688 18.3176L-86.3314 16.2896L-80.9724 16.3882L-81.0097 18.4163ZM-91.7279 18.219L-97.0888 18.1203L-97.0515 16.0923L-91.6906 16.191L-91.7279 18.219ZM-102.448 18.0217L-107.807 17.9231L-107.77 15.895L-102.401 15.9938L-102.448 18.0217ZM-113.166 17.8244L-118.525 17.7258L-118.488 15.6978L-113.129 15.7964L-113.166 17.8244ZM-123.884 17.6272L-129.245 17.5285L-129.208 15.5005L-123.847 15.5992L-123.884 17.6272ZM-134.604 17.4299L-139.963 17.3313L-139.926 15.3032L-134.567 15.4019L-134.604 17.4299ZM-145.323 17.2326L-150.682 17.134L-150.644 15.106L-145.285 15.2046L-145.323 17.2326ZM-156.041 17.0354L-161.4 16.9367L-161.363 14.9087L-156.003 15.0073L-156.041 17.0354ZM-166.761 16.8381L-172.12 16.7394L-172.083 14.7114L-166.723 14.81L-166.761 16.8381ZM-177.479 16.6408L-182.838 16.5422L-182.801 14.5142L-177.442 14.6128L-177.479 16.6408Z" fill="#AEAC9F"/>
    <path d="M1046.27 39.1629L1040.91 39.0643L1040.95 37.0363L1046.31 37.1349L1046.27 39.1629ZM1035.55 38.9657L1030.18 38.8669L1030.22 36.8389L1035.58 36.9375L1035.55 38.9657ZM1024.83 38.7684L1019.47 38.6698L1019.51 36.6418L1024.87 36.7404L1024.83 38.7684ZM1014.11 38.5711L1008.75 38.4725L1008.79 36.4445L1014.15 36.5431L1014.11 38.5711ZM1003.39 38.3739L998.035 38.2752L998.072 36.2472L1003.43 36.3457L1003.39 38.3739ZM992.676 38.1766L987.317 38.078L987.354 36.05L992.713 36.1486L992.676 38.1766ZM981.956 37.9793L976.593 37.8806L976.63 35.8526L981.989 35.9512L981.956 37.9793ZM971.237 37.7821L965.878 37.6834L965.916 35.6554L971.275 35.754L971.237 37.7821ZM960.519 37.5848L955.16 37.4862L955.197 35.4581L960.557 35.5568L960.519 37.5848ZM949.799 37.3875L944.44 37.2889L944.477 35.2608L949.835 35.3594L949.799 37.3875ZM939.081 37.1902L933.722 37.0916L933.759 35.0636L939.118 35.1622L939.081 37.1902ZM928.363 36.993L923.002 36.8943L923.039 34.8663L928.398 34.9649L928.363 36.993ZM917.645 36.7957L912.284 36.6971L912.321 34.669L917.682 34.7677L917.645 36.7957ZM906.925 36.5984L901.565 36.4998L901.603 34.4718L906.962 34.5704L906.925 36.5984ZM896.206 36.4012L890.847 36.3025L890.885 34.2745L896.244 34.3731L896.206 36.4012ZM885.488 36.2039L880.127 36.1052L880.165 34.0772L885.525 34.1759L885.488 36.2039ZM874.768 36.0066L869.411 35.908L869.448 33.88L874.807 33.9786L874.768 36.0066ZM864.05 35.8094L858.691 35.7107L858.728 33.6827L864.087 33.7813L864.05 35.8094ZM853.332 35.6121L847.973 35.5135L848.01 33.4854L853.369 33.5841L853.332 35.6121ZM842.612 35.4148L837.253 35.3162L837.29 33.2882L842.653 33.3868L842.612 35.4148ZM831.893 35.2175L826.534 35.1189L826.572 33.0909L831.931 33.1895L831.893 35.2175ZM821.175 35.0203L815.82 34.9217L815.857 32.8937L821.216 32.9923L821.175 35.0203ZM810.455 34.823L805.096 34.7244L805.133 32.6963L810.493 32.795L810.455 34.823ZM799.737 34.6257L794.378 34.5271L794.415 32.4991L799.774 32.5977L799.737 34.6257ZM789.019 34.4285L783.66 34.3298L783.697 32.3018L789.062 32.4006L789.019 34.4285ZM778.301 34.2312L772.94 34.1326L772.977 32.1045L778.338 32.2032L778.301 34.2312ZM767.581 34.0339L762.229 33.9354L762.266 31.9074L767.625 32.006L767.581 34.0339ZM756.862 33.8367L751.503 33.738L751.541 31.71L756.9 31.8086L756.862 33.8367ZM746.144 33.6394L740.783 33.5407L740.821 31.5127L746.182 31.6114L746.144 33.6394ZM735.424 33.4421L730.065 33.3435L730.102 31.3155L735.471 31.4143L735.424 33.4421ZM724.706 33.2449L719.347 33.1462L719.384 31.1182L724.743 31.2168L724.706 33.2449ZM713.988 33.0476L708.627 32.9489L708.664 30.9209L714.025 31.0196L713.988 33.0476ZM703.268 32.8503L697.909 32.7517L697.946 30.7236L703.305 30.8223L703.268 32.8503ZM692.55 32.653L687.19 32.5544L687.228 30.5264L692.587 30.625L692.55 32.653ZM681.831 32.4558L676.472 32.3571L676.51 30.3291L681.869 30.4278L681.831 32.4558ZM671.111 32.2585L665.752 32.1599L665.789 30.1318L671.149 30.2305L671.111 32.2585ZM660.393 32.0612L655.034 31.9626L655.071 29.9346L660.43 30.0332L660.393 32.0612Z" fill="#AEAC9F"/>
    <path d="M1443.1 46.4667L1437.74 46.368L1437.78 44.34L1443.14 44.4386L1443.1 46.4667ZM1432.39 46.2694L1427.02 46.1706L1427.06 44.1426L1432.42 44.2412L1432.39 46.2694ZM1421.67 46.0721L1416.31 45.9735L1416.35 43.9455L1421.7 44.0441L1421.67 46.0721ZM1410.95 45.8748L1405.59 45.7762L1405.63 43.7482L1410.98 43.8468L1410.95 45.8748ZM1400.23 45.6776L1394.87 45.579L1394.91 43.5509L1400.26 43.6495L1400.23 45.6776ZM1389.51 45.4803L1384.15 45.3817L1384.19 43.3537L1389.55 43.4523L1389.51 45.4803ZM1378.79 45.283L1373.43 45.1843L1373.47 43.1563L1378.82 43.2549L1378.79 45.283ZM1368.07 45.0858L1362.71 44.9871L1362.75 42.9591L1368.11 43.0577L1368.07 45.0858ZM1357.35 44.8885L1352 44.7899L1352.03 42.7619L1357.39 42.8605L1357.35 44.8885ZM1346.63 44.6912L1341.28 44.5926L1341.31 42.5646L1346.67 42.6632L1346.63 44.6912ZM1335.92 44.494L1330.56 44.3953L1330.59 42.3673L1335.95 42.4659L1335.92 44.494ZM1325.2 44.2967L1319.84 44.198L1319.87 42.17L1325.23 42.2686L1325.2 44.2967ZM1314.48 44.0994L1309.12 44.0008L1309.16 41.9727L1314.52 42.0714L1314.48 44.0994ZM1303.76 43.9021L1298.4 43.8035L1298.44 41.7755L1303.8 41.8741L1303.76 43.9021ZM1293.04 43.7049L1287.68 43.6063L1287.72 41.5782L1293.08 41.6769L1293.04 43.7049ZM1282.32 43.5076L1276.96 43.409L1277 41.3809L1282.36 41.4796L1282.32 43.5076ZM1271.6 43.3103L1266.25 43.2117L1266.28 41.1837L1271.64 41.2823L1271.6 43.3103ZM1260.88 43.1131L1255.53 43.0144L1255.56 40.9864L1260.92 41.085L1260.88 43.1131ZM1250.17 42.9158L1244.81 42.8172L1244.84 40.7892L1250.2 40.8878L1250.17 42.9158ZM1239.45 42.7185L1234.09 42.6199L1234.12 40.5919L1239.49 40.6906L1239.45 42.7185ZM1228.73 42.5213L1223.37 42.4226L1223.41 40.3946L1228.77 40.4932L1228.73 42.5213ZM1218.01 42.324L1212.65 42.2254L1212.69 40.1974L1218.05 40.296L1218.01 42.324ZM1207.29 42.1267L1201.93 42.0281L1201.97 40.0001L1207.33 40.0987L1207.29 42.1267ZM1196.57 41.9294L1191.21 41.8308L1191.25 39.8028L1196.61 39.9014L1196.57 41.9294ZM1185.85 41.7322L1180.49 41.6336L1180.53 39.6055L1185.9 39.7043L1185.85 41.7322ZM1175.14 41.5349L1169.77 41.4363L1169.81 39.4082L1175.17 39.5069L1175.14 41.5349ZM1164.42 41.3376L1159.06 41.2391L1159.1 39.2111L1164.46 39.3097L1164.42 41.3376ZM1153.7 41.1404L1148.34 41.0417L1148.38 39.0137L1153.73 39.1123L1153.7 41.1404ZM1142.98 40.9431L1137.62 40.8445L1137.66 38.8164L1143.02 38.9151L1142.98 40.9431ZM1132.26 40.7458L1126.9 40.6472L1126.94 38.6192L1132.31 38.718L1132.26 40.7458ZM1121.54 40.5486L1116.18 40.4499L1116.22 38.4219L1121.58 38.5205L1121.54 40.5486ZM1110.82 40.3513L1105.46 40.2526L1105.5 38.2246L1110.86 38.3233L1110.82 40.3513ZM1100.1 40.154L1094.74 40.0554L1094.78 38.0274L1100.14 38.126L1100.1 40.154ZM1089.38 39.9567L1084.03 39.8581L1084.06 37.8301L1089.42 37.9287L1089.38 39.9567ZM1078.67 39.7595L1073.31 39.6609L1073.34 37.6328L1078.7 37.7315L1078.67 39.7595ZM1067.95 39.5622L1062.59 39.4636L1062.62 37.4355L1067.98 37.5342L1067.95 39.5622ZM1057.23 39.3649L1051.87 39.2663L1051.91 37.2383L1057.27 37.3369L1057.23 39.3649Z" fill="#AEAC9F"/>
</svg>
