<svg xmlns="http://www.w3.org/2000/svg" width="587" height="88" fill="none"><g clip-path="url(#a)"><path fill="#FB9175" d="m288.611 41.788 4.527-7.244L281.064 27l-4.526 7.244 12.073 7.544Z" opacity=".89"/><path fill="#FCC63A" d="m560.955 78 9.695-19.027-5.074-2.586-9.695 19.028L560.955 78Z" opacity=".6"/><path fill="#FCC63A" fill-opacity=".8" d="M7.99 5.03A7.118 7.118 0 1 0 22.09 3.05 7.118 7.118 0 0 0 7.99 5.03Z" opacity=".97"/><path fill="#95E257" d="m84.168 44.558 8.17 2.498L96.5 33.44l-8.17-2.497-4.162 13.614Z" opacity=".71"/><path fill="#BFCCFB" d="M527.647 15.28a5.695 5.695 0 1 0-2.562 11.099 5.695 5.695 0 0 0 2.562-11.098ZM113.111 10.28a5.694 5.694 0 1 0-2.563 11.098 5.694 5.694 0 0 0 2.563-11.097Z" opacity=".89"/><path fill="#95E257" d="m395.732 56.992 21.238 2.232.595-5.663-21.237-2.233-.596 5.664Z" opacity=".83"/><path fill="#FB9175" d="m174.438 55.556-7.472-8.595-3.708 10.768 11.18-2.173Z" opacity=".86"/><path fill="#FCC63A" fill-opacity=".5" d="m476.257 67.13.229-13.13L465 60.367l11.257 6.764Z" opacity=".92"/><path fill="#BFCCFB" d="m228.327 26.255 11.377 1.196L235.051 17l-6.724 9.255Z" opacity=".9"/><path fill="#FCC63A" d="m149.706 34.797 1.496-21.398-5.706-.4L144 34.399l5.706.399Z" opacity=".57"/><path fill="#FB9175" d="M410.838 12.09a7.15 7.15 0 1 0 4.18 13.677 7.15 7.15 0 0 0-4.18-13.676Z" opacity=".9"/><path fill="#FCC63A" d="M50.458 38.164 43.606 33 35 44.42l6.852 5.164 8.606-11.42ZM458.815-.916l-8.063-2.932-4.886 13.44 8.063 2.931 4.886-13.439Z" opacity=".79"/><path fill="#FB9175" fill-opacity=".7" d="m80.805 74.896-8.217-19.814-5.284 2.191 8.217 19.814 5.284-2.191Z" opacity=".69"/><path fill="#95E257" d="M544.329 51.015 537.286 42 533 52.607l11.329-1.592ZM194.829 12.439 194.984 1 185 6.585l9.829 5.854Z" opacity=".89"/><path fill="#BFCCFB" d="M327.195 7.004 318.674 6 317 20.202l8.521 1.004 1.674-14.202Z" opacity=".91"/><path fill="#95E257" d="M352.08 16.083a7.15 7.15 0 1 0 7.365 12.258 7.15 7.15 0 0 0 2.446-9.812 7.15 7.15 0 0 0-9.811-2.446Z" opacity=".93"/><path fill="#BFCCFB" d="M591.274 28.903 578.068 12l-4.507 3.522 13.206 16.902 4.507-3.521Z" opacity=".95"/><path fill="#95E257" fill-opacity=".4" d="M333.857 53.629 327.382 48 318 58.792l6.475 5.63 9.382-10.793Z" opacity=".87"/><path fill="#FB9175" d="m478 23.362 12.608 17.354 4.627-3.362L482.627 20 478 23.362Z" opacity=".7"/><path fill="#95E257" d="M236.575 64.005a4.29 4.29 0 1 0-7.429-4.29 4.29 4.29 0 0 0 7.429 4.29Z" opacity=".7"/></g><defs><clipPath id="a"><path fill="#fff" d="M0 0h587v88H0z"/></clipPath></defs></svg>