<svg width="74" height="81" viewBox="0 0 74 81" fill="none" xmlns="http://www.w3.org/2000/svg">
<g clip-path="url(#clip0_2458_18502)">
<path d="M19.1877 15.7182C19.3009 16.7838 19.2936 17.8493 19.3594 18.9039C19.4251 19.9585 19.4124 21.0495 19.3777 22.1241L20.9173 21.2426C19.4489 20.5085 17.8837 20.0659 16.2454 19.9312C15.8637 19.9002 15.4802 19.8893 15.0966 19.8965C14.9451 19.9002 14.7935 19.9093 14.6419 19.9093C14.5688 19.9093 14.4958 19.9093 14.4227 19.9057C14.2949 19.8965 14.2784 19.8947 14.3771 19.9002L14.2748 19.8729C14.4081 19.973 14.2328 19.8273 14.2364 19.8383C14.3241 20.0641 14.2711 19.6998 14.2857 19.8619C14.293 19.9585 14.2748 19.8346 14.2547 19.7873C14.1889 19.6324 14.3223 20.0204 14.2383 19.7508C14.1542 19.4813 14.0867 19.2299 13.9917 18.9786C13.6995 18.2045 13.1899 17.6271 12.3772 17.3812C11.7653 17.1954 11.1261 17.2592 10.4997 17.2792C9.4769 17.3138 8.45231 17.2755 7.42772 17.2573C6.40312 17.2391 5.32374 17.2245 4.27906 17.3247C3.36405 17.4121 2.35041 17.5415 1.62534 18.1607C0.863746 18.811 0.768774 20.0168 1.50115 20.7289C1.83537 21.0531 2.24448 21.2335 2.67003 21.4065C2.82709 21.4702 2.98781 21.5285 3.14853 21.5868C3.23437 21.6178 3.32021 21.6487 3.40605 21.6815C3.44441 21.6961 3.48093 21.7107 3.51929 21.7252C3.65626 21.7762 3.65992 21.7198 3.49372 21.7125C3.61974 21.7179 3.7969 21.8691 3.90648 21.9292C4.08364 22.0276 3.74576 21.758 3.91013 21.9365C4.0745 22.115 3.80603 21.7343 3.91013 21.9438C3.91013 21.9438 3.81699 21.6797 3.85534 21.8218C3.89369 21.9638 3.84255 21.6833 3.84255 21.6852C3.85899 21.9311 3.92474 21.4684 3.84621 21.7052C3.83525 21.7416 3.77133 21.9001 3.83525 21.7653C3.91013 21.605 3.79872 21.8291 3.78776 21.8254C3.79142 21.8254 3.93935 21.6214 3.82246 21.7598C3.9083 21.6578 3.98136 21.6852 3.8316 21.738C4.03798 21.6651 3.91378 21.7088 3.78959 21.7398C3.74941 21.7507 3.70558 21.7562 3.6654 21.7653C3.45719 21.8218 3.85351 21.7598 3.71106 21.7598C3.5065 21.7598 3.29099 21.7853 3.08644 21.8036C2.53305 21.8509 1.96139 21.9566 1.55229 22.3682C1.0336 22.8909 0.900273 23.6577 1.23998 24.3116C1.52124 24.8544 2.04358 25.266 2.54583 25.5921C3.04808 25.9181 3.67635 26.1203 4.17495 26.3334C4.84523 26.6212 5.50638 26.9308 6.15656 27.2587C7.49529 27.9362 8.79019 28.6976 10.0303 29.5409C10.6111 29.9343 11.2174 30.3696 11.7416 30.7794C12.2658 31.1892 12.7991 31.6173 13.0566 32.14C13.3141 32.6628 13.3561 33.4423 13.5808 34.0452C13.8054 34.6481 14.1031 35.1945 14.4775 35.71C14.8519 36.2254 15.2738 36.7209 15.6939 37.209C15.8765 37.4203 16.0573 37.6316 16.2345 37.8465C16.2765 37.8975 16.3167 37.9485 16.3568 37.9977C16.5523 38.2399 16.2947 37.912 16.4043 38.0596C16.5011 38.1889 16.5943 38.3182 16.6838 38.4512C16.8335 38.6752 16.9705 38.9065 17.0892 39.1488C17.1166 39.2052 17.144 39.2617 17.1696 39.32C17.0947 39.1488 17.1732 39.34 17.1897 39.3837C17.2426 39.5331 17.2865 39.6861 17.3248 39.8409C17.4581 40.3964 17.6335 40.9374 17.8198 41.4765C18.0225 42.0612 18.2343 42.6441 18.4115 43.236C18.6051 43.8863 18.7311 44.5584 18.8882 45.2177C19.2315 46.653 19.6096 48.0809 19.9018 49.5271C20.1648 50.8349 20.3255 51.9332 20.2908 53.3193C20.2817 53.6453 20.2616 53.9732 20.2269 54.2974C20.2196 54.3703 20.2105 54.4431 20.2013 54.516C20.2196 54.3739 20.194 54.556 20.1922 54.5724C20.163 54.7564 20.1301 54.9404 20.0936 55.1225L21.5967 54.5123C21.5456 54.4887 21.4944 54.465 21.4451 54.4376C21.4159 54.4213 21.2059 54.281 21.3556 54.3885C21.5054 54.4959 21.3264 54.3593 21.2972 54.332C21.2515 54.2883 21.2077 54.2446 21.1638 54.1972C21.12 54.1499 20.9684 53.9459 21.1328 54.1735C21.0926 54.1171 21.0506 54.0606 21.0123 54.0023C20.9301 53.8803 20.8552 53.7528 20.784 53.6253C20.7091 53.4869 20.6397 53.3466 20.5739 53.2046C20.5593 53.1736 20.4534 52.9204 20.5465 53.1463C20.5137 53.068 20.4826 52.9896 20.4534 52.9113C20.3219 52.5689 20.2068 52.2192 20.1027 51.8658C19.7119 50.5471 19.4745 49.192 19.195 47.8478C18.9813 46.8205 17.5001 46.9353 17.2225 47.8478C16.5815 49.9606 16.7386 52.1755 16.5833 54.3502C16.5084 55.383 16.3221 56.3774 15.9295 57.3792C15.5697 58.2972 15.0145 59.2188 14.4921 60.0876C13.6867 61.43 12.6018 62.6048 11.9882 64.0601C11.6284 64.9144 11.5224 65.8415 12.0064 66.6775C12.4904 67.5135 13.2922 67.916 14.0739 68.335C15.871 69.2967 17.5075 70.5225 19.2991 71.4933C20.1666 71.9632 21.0524 72.4022 21.9364 72.8411C22.3966 73.0688 22.8569 73.2983 23.3244 73.5096C23.9198 73.7773 24.6047 74.0724 25.1106 73.4203C25.2056 73.2965 25.2586 73.1781 25.3042 73.0251C25.317 72.9814 25.3261 72.9376 25.3389 72.8939C25.3353 72.9067 25.2878 73.0451 25.3243 72.934C25.3371 72.8958 25.37 72.8539 25.3919 72.8211C25.2823 72.9868 25.3882 72.8484 25.401 72.8229C25.4047 72.8174 25.5197 72.7082 25.4339 72.7847C25.3554 72.8539 25.496 72.7428 25.5161 72.73C25.5544 72.7063 25.759 72.597 25.6859 72.6317C25.6129 72.6663 25.832 72.5825 25.8777 72.5697C25.969 72.5442 26.0622 72.5224 26.1571 72.506C26.2795 72.4841 26.137 72.5114 26.1188 72.5133C26.1845 72.5096 26.2521 72.506 26.3179 72.5042C26.422 72.5023 26.5279 72.5042 26.632 72.5096C26.6813 72.5133 26.9297 72.5406 26.769 72.5169C26.9863 72.5479 27.2 72.6007 27.4082 72.6644C27.505 72.6936 27.6 72.7264 27.6949 72.761C27.7424 72.7792 27.7899 72.7956 27.8356 72.8156C27.8155 72.8083 27.715 72.7628 27.8228 72.812C28.0237 72.903 28.2209 73.0032 28.4127 73.1125C29.9688 73.9886 31.229 75.3037 32.8855 76.0122C33.8973 76.4439 34.9584 76.7498 35.9812 77.156C36.9455 77.5385 37.9482 77.8591 38.9965 77.8955C39.528 77.9137 40.0777 77.8409 40.58 77.6642C41.0293 77.5057 41.3233 77.1487 41.3416 76.6679C41.3671 76.0085 41.4366 75.3474 41.5187 74.6935C41.5443 74.4949 41.5224 74.668 41.5187 74.7062C41.5315 74.6152 41.5443 74.5259 41.5589 74.4348C41.579 74.311 41.5991 74.1871 41.6192 74.0633C41.6776 73.7281 41.7434 73.393 41.8219 73.0615C41.8913 72.761 41.9717 72.4623 42.063 72.1672C42.105 72.0306 42.1507 71.8958 42.1981 71.7628C42.2237 71.69 42.2529 71.6189 42.2803 71.5461C42.3589 71.3348 42.2091 71.6809 42.315 71.4641C42.4319 71.2255 42.547 70.9869 42.6858 70.7592C42.757 70.6409 42.8319 70.5243 42.9104 70.4114C42.9415 70.3677 42.9725 70.3239 43.0036 70.2802C43.1424 70.0853 42.8885 70.4059 43.0328 70.2456C43.1917 70.0689 43.3469 69.8923 43.5241 69.732C43.6045 69.6591 43.6866 69.5917 43.7706 69.5243C43.5369 69.7119 43.8912 69.4497 43.9588 69.4078C44.1341 69.2985 44.3186 69.2092 44.5048 69.1182C44.6674 69.038 44.4628 69.1382 44.4391 69.1455C44.4921 69.1273 44.545 69.1054 44.598 69.0854C44.7149 69.0435 44.8354 69.0052 44.956 68.9725C45.155 68.9178 45.3578 68.885 45.5605 68.845C45.8016 68.7976 45.3066 68.8595 45.5532 68.8468C45.5988 68.845 45.6463 68.8377 45.692 68.834C45.8198 68.8231 45.9495 68.8158 46.0792 68.8122C46.3056 68.8067 46.5339 68.8122 46.7604 68.8249C46.8572 68.8304 46.954 68.8395 47.0508 68.8486C47.1239 68.8559 47.1969 68.865 47.27 68.8723C47.491 68.896 47.0417 68.834 47.2791 68.8723C47.7558 68.9506 48.227 69.0471 48.6927 69.1746C49.184 69.3076 49.6662 69.4661 50.1447 69.6409C50.3785 69.7265 50.6104 69.8158 50.8405 69.9087C50.8898 69.9287 50.9373 69.9487 50.9848 69.9669C50.9994 69.9724 51.2368 70.0726 51.0725 70.0034C50.9081 69.9342 51.1437 70.0343 51.1583 70.0398C51.2295 70.0708 51.3008 70.1017 51.372 70.1327C52.908 70.8066 54.3618 71.6499 55.8886 72.3402C58.5222 73.5314 61.512 73.3548 63.994 71.8648C64.6241 71.486 65.2195 71.0252 65.7455 70.5115C65.9793 70.282 66.2003 70.0398 66.4067 69.7848C66.4889 69.6828 66.5674 69.579 66.6478 69.4752C66.8523 69.2147 66.5674 69.5717 66.6934 69.4187C66.8103 69.2766 66.9308 69.1364 67.055 68.9998C67.7929 68.1929 68.7024 67.5663 69.4458 66.7704C70.1891 65.9744 70.6073 64.8524 69.9955 63.796C69.654 63.2059 69.1006 62.7687 68.5581 62.3753C68.2714 62.1677 67.9682 61.9874 67.676 61.7907C67.5335 61.6959 67.3929 61.5958 67.2578 61.492C67.4367 61.6304 67.1062 61.359 67.0459 61.3062C66.8413 61.1222 66.6569 60.9255 66.4761 60.7179C66.4286 60.6632 66.3281 60.5047 66.4797 60.7251C66.4505 60.6814 66.4195 60.6414 66.3884 60.5976C66.3099 60.4829 66.2368 60.3645 66.1692 60.2425C66.1565 60.2188 66.0213 59.9456 66.0213 59.9456C66.0414 59.9383 66.1126 60.2006 66.0396 59.9802C66.0195 59.9237 65.9976 59.8673 65.9793 59.8108C65.9044 59.5813 65.8551 59.35 65.8131 59.1132C65.7766 58.9092 65.8332 59.1842 65.8241 59.197C65.8405 59.1733 65.8058 59.0112 65.804 58.9784C65.7967 58.8801 65.7912 58.7799 65.7894 58.6815C65.7821 58.4247 65.7894 58.1661 65.8058 57.9092C65.8241 57.636 65.8551 57.3665 65.888 57.0951C65.8569 57.3519 65.8916 57.0714 65.9081 56.9676C65.9336 56.7909 65.9629 56.6161 65.9921 56.4412C66.5601 53.0024 68.2312 46.0446 62.8836 45.5984C62.5238 45.5692 62.1677 45.6075 61.8097 45.6439C61.596 45.6658 61.3842 45.6785 61.1668 45.6785C60.8582 45.6785 61.0792 45.6876 61.1084 45.6822L60.9842 45.653C61.1303 45.7313 61.1486 45.7332 61.039 45.6603L61.4736 46.0938L61.5558 46.4763C61.5577 46.4071 61.5631 46.336 61.5723 46.2668C61.5449 46.5036 61.6088 46.1029 61.6106 46.0956C61.6563 45.8934 61.7129 45.6894 61.7768 45.4909C61.8535 45.2505 61.943 45.0137 62.0416 44.7806C62.0197 44.8316 61.9649 44.9536 62.0672 44.7259C62.1366 44.5729 62.206 44.4181 62.2754 44.2651C62.648 43.4418 62.9694 42.5967 63.3146 41.7607C63.4626 41.4037 63.2142 41.9792 63.3712 41.6277C63.4187 41.5221 63.4662 41.4146 63.5137 41.309C63.5941 41.1341 63.6763 40.9611 63.7639 40.7899C63.9648 40.3983 64.184 40.0048 64.4525 39.657C64.2954 39.861 64.4488 39.6733 64.4926 39.6242C64.5529 39.5568 64.6168 39.4912 64.6826 39.4275C64.8433 39.269 65.0168 39.1251 65.1885 38.9794C65.2195 38.9521 65.3784 38.8319 65.2031 38.9666C65.2944 38.8974 65.3876 38.83 65.4789 38.7626C65.6615 38.6315 65.846 38.504 66.0304 38.3765C67.3107 37.4949 68.7389 36.6753 69.7617 35.4859C70.3626 34.7883 70.8411 33.996 71.0785 33.0981C71.316 32.2001 71.4748 31.355 71.7141 30.4935C71.9935 29.4789 72.3113 28.4717 72.6656 27.4809C72.7643 27.204 72.8684 26.9308 72.9761 26.6576C73.0072 26.5793 73.0382 26.5028 73.0693 26.4263C73.1295 26.286 73.1332 26.2733 73.0821 26.388C73.1168 26.3115 73.1496 26.2369 73.1807 26.1604C73.3925 25.6722 73.619 25.1895 73.8637 24.716C74.1487 24.1659 74.0555 23.3007 73.4163 23.013C70.905 21.8764 68.5088 20.5122 65.9464 19.4849C64.6826 18.9786 63.5776 18.5942 62.3722 17.9786C61.786 17.6781 61.2125 17.3575 60.65 17.0133C60.3778 16.8475 60.1094 16.6763 59.8445 16.5014C59.7441 16.4359 59.6455 16.3685 59.5487 16.2975C59.5267 16.2829 59.3715 16.1645 59.4646 16.2355C59.5578 16.3066 59.3624 16.1499 59.3441 16.1353C58.5186 15.445 57.7442 14.6309 56.7653 14.1537C56.1954 13.875 55.5873 13.6928 54.9462 13.6965C54.6266 13.6965 54.3106 13.7639 53.9947 13.7912C53.8504 13.8039 53.697 13.8222 53.5527 13.8003C53.6732 13.8185 53.5052 13.7821 53.4942 13.7784L53.3956 13.7475C53.4668 13.7821 53.4687 13.7821 53.4047 13.7511C53.2988 13.6983 53.1929 13.6364 53.0979 13.5653C53.1947 13.6382 52.9408 13.4142 52.908 13.3814C52.8203 13.2921 52.7363 13.1992 52.6541 13.1027C52.6066 13.0481 52.561 12.9916 52.5171 12.9351C52.4623 12.8659 52.5354 12.9625 52.4477 12.8422C52.3089 12.651 52.1683 12.4598 52.0295 12.2685C51.7044 11.8204 51.3775 11.3724 51.0433 10.9298C50.11 9.69668 49.1402 8.48727 48.0718 7.36711C47.0033 6.24694 45.8819 5.20328 44.5396 4.51297C43.3195 3.8864 41.8511 3.59316 40.611 4.34722C39.8458 4.8135 39.3581 5.54934 38.9089 6.30341C38.5618 6.88808 38.2477 7.52192 38.1034 8.18856C38.0322 8.51459 37.9957 8.84791 37.9573 9.1794C37.9427 9.31054 37.9281 9.43986 37.9135 9.571C37.8861 9.78957 37.897 9.67847 37.9044 9.63111C37.8897 9.72218 37.8733 9.81143 37.855 9.9025C37.824 10.0427 37.7893 10.1848 37.7381 10.3196C37.6961 10.4325 37.7272 10.3433 37.7381 10.3232C37.7053 10.3888 37.6687 10.4489 37.6322 10.5127C37.5208 10.7003 37.5719 10.591 37.6048 10.5546C37.561 10.6037 37.5117 10.6493 37.466 10.6966C37.4459 10.7167 37.3181 10.8168 37.4441 10.724C37.3911 10.7622 37.3345 10.7986 37.2797 10.8332C37.1647 10.9043 37.046 10.9626 36.9254 11.0227C36.9053 11.0336 36.7483 11.0992 36.8871 11.0409C36.8231 11.0664 36.7592 11.0919 36.6935 11.1156C36.4323 11.2139 36.1675 11.2995 35.9045 11.3961C34.5986 11.8714 33.4991 12.702 32.3558 13.4706C31.4883 14.0553 30.6135 14.629 29.746 15.2155C29.041 15.6927 28.1917 16.3211 28.1899 17.2628C28.1899 17.9604 28.7305 18.3684 29.3131 18.6106L29.8574 16.6435C28.6994 16.2228 27.4557 16.2537 26.2466 16.108C26.3653 16.1226 26.1279 16.0898 26.0932 16.0843C25.9763 16.0643 25.8594 16.0406 25.7426 16.0133C25.4923 15.9568 25.2476 15.884 25.0084 15.7911C25.1472 15.8439 24.9225 15.751 24.8823 15.731C24.7782 15.6782 24.6778 15.6217 24.5792 15.5598C24.5372 15.5343 24.497 15.5051 24.455 15.4778C24.4897 15.5015 24.581 15.5926 24.4294 15.4578C24.3436 15.3813 24.265 15.3011 24.1865 15.2192C24.0751 15.1008 24.2577 15.3303 24.1646 15.1955C24.1353 15.1554 24.108 15.1135 24.0824 15.0716C24.0294 14.986 23.9545 14.8367 23.9326 14.7839C23.8376 14.558 23.7171 14.2047 23.5984 13.9424C23.3427 13.3814 22.9153 12.9424 22.4313 12.5709C21.5602 11.9042 20.2671 11.2139 19.1895 11.8459C18.4608 12.274 18.2617 13.1318 18.4937 13.9023C18.5887 14.2138 18.7403 14.507 18.8663 14.8075C19.0215 15.1736 19.1329 15.5525 19.3813 15.864L19.2297 15.6035C19.2498 15.6927 19.2699 15.7838 19.2882 15.8731C19.4471 16.6144 20.5867 16.3011 20.4278 15.5598C20.4096 15.4705 20.3895 15.3795 20.3694 15.2902V15.6035C20.4552 15.2429 20.3858 14.8713 20.3456 14.507C20.3109 14.1937 20.3128 13.8586 20.2653 13.5508C20.2543 13.6163 20.2616 13.5927 20.2908 13.4797C20.1703 13.6582 20.1612 13.691 20.2616 13.5781C20.2105 13.62 20.1539 13.6455 20.0881 13.6564C20.2013 13.6273 20.1959 13.6236 20.0662 13.6455C20.1265 13.6418 20.1867 13.6437 20.2452 13.6491C20.1283 13.6346 20.1301 13.6382 20.2525 13.6637C20.3164 13.6801 20.3785 13.7001 20.4406 13.722C20.3511 13.6783 20.3602 13.6837 20.4698 13.7347C20.7237 13.8641 20.9702 14.0171 21.2004 14.1864C21.2807 14.2465 21.573 14.5179 21.635 14.6127C21.9382 15.0716 22.0368 15.7146 22.3948 16.2264C23.1053 17.2428 24.2468 17.8092 25.4467 18.0332C26.7745 18.2828 28.0657 18.1571 29.3095 18.6088C29.8281 18.7982 30.429 18.3975 30.5678 17.8966C30.7285 17.3102 30.3651 16.853 29.8537 16.6417C29.8775 16.6508 30.0528 16.7401 29.9176 16.6563C29.9889 16.7 30.0382 16.751 30.0893 16.8165C30.2245 16.9878 30.2592 17.2209 30.2025 17.4304C30.2281 17.3338 30.0583 17.6489 30.1952 17.454C30.2135 17.4267 30.2683 17.3411 30.1806 17.4668C30.082 17.6089 30.1861 17.4631 30.2172 17.434C30.3267 17.3265 30.4491 17.2318 30.5605 17.1262C30.3614 17.3156 30.5623 17.1262 30.6208 17.0843C30.6884 17.0351 30.7578 16.9896 30.8272 16.9422C31.6801 16.3721 32.5348 15.8038 33.3859 15.2301C33.9484 14.8513 34.5091 14.4669 35.0771 14.0936C35.331 13.926 35.5903 13.7639 35.8588 13.62C35.9355 13.5799 36.0141 13.5417 36.0926 13.5034C36.109 13.4943 36.3081 13.4087 36.1565 13.4725C36.2844 13.4196 36.4159 13.3723 36.5455 13.3267C37.656 12.9297 38.8358 12.5435 39.4531 11.4507C39.7819 10.8678 39.8823 10.2249 39.9608 9.57283C40.0229 9.06648 40.0467 8.6512 40.2421 8.16306C40.4558 7.62757 40.7918 7.11029 41.1151 6.6349C41.1389 6.60029 41.2941 6.39812 41.1863 6.52926C41.0859 6.65312 41.232 6.47826 41.263 6.44365C41.3032 6.39994 41.5315 6.11762 41.5918 6.13037C41.5607 6.12309 41.3708 6.27608 41.579 6.14859C41.6301 6.11762 41.6813 6.08484 41.7324 6.05569C41.7836 6.02655 41.8402 6.00652 41.8895 5.97737C41.9918 5.91545 41.6648 6.04477 41.7836 6.02473C41.8219 6.01745 41.8639 5.99741 41.9004 5.98466C41.9552 5.96827 42.01 5.95552 42.0648 5.94095C42.0886 5.93548 42.1123 5.93366 42.136 5.92638C42.2803 5.88448 42.0228 5.94459 42.0082 5.94095C42.116 5.96827 42.2858 5.92091 42.4027 5.92638C42.4611 5.9282 42.5214 5.94095 42.5799 5.93912C42.6018 5.93912 42.3278 5.88995 42.5378 5.93548C42.6785 5.96645 42.8173 5.99741 42.9543 6.0393C43.0291 6.06298 43.2556 6.19048 43.325 6.17409C43.3086 6.17773 43.0894 6.06298 43.241 6.1413C43.2666 6.15405 43.294 6.1668 43.3214 6.17773C43.4035 6.21598 43.4839 6.25605 43.5643 6.29794C43.8364 6.44183 44.0994 6.60394 44.3533 6.77879C44.4921 6.87351 44.6272 6.97733 44.7642 7.07568C44.6053 6.96275 44.7112 7.03379 44.8025 7.10847C44.8756 7.16675 44.9487 7.22686 45.0217 7.28696C45.5879 7.75871 46.1194 8.27234 46.6289 8.80602C47.1385 9.33969 47.6371 9.90796 48.1138 10.4835C48.3402 10.7567 48.563 11.0318 48.7822 11.3104C48.8315 11.3724 48.8808 11.4343 48.9301 11.498C48.9575 11.5327 48.9849 11.5691 49.0123 11.6037C48.9977 11.5855 48.868 11.4161 48.974 11.5545C49.0708 11.682 49.1676 11.8077 49.2644 11.9352C49.5876 12.3632 49.9054 12.7949 50.2196 13.2284C50.6634 13.8422 51.0871 14.5052 51.6624 15.0043C52.1939 15.4651 52.7874 15.7692 53.4961 15.833C53.7956 15.8603 54.0842 15.8257 54.3819 15.7911C54.5298 15.7729 54.6777 15.7547 54.8275 15.7474C54.9024 15.7437 54.9791 15.7437 55.054 15.7474C55.0795 15.7474 55.3352 15.7783 55.2074 15.7583C55.0923 15.7401 55.2494 15.7711 55.2603 15.7729C55.3224 15.7893 55.3845 15.802 55.4448 15.8202C55.5051 15.8385 55.5653 15.8603 55.6256 15.8803C55.6347 15.884 55.779 15.9441 55.6804 15.9004C55.5708 15.8512 55.7516 15.9386 55.7754 15.9496C55.8192 15.9714 55.8612 15.9951 55.9032 16.017C56.0311 16.088 56.1571 16.1663 56.2776 16.2501C56.3744 16.3157 56.4694 16.3831 56.5607 16.4541C56.4274 16.3521 56.6721 16.5488 56.7068 16.5761C56.915 16.7492 57.1178 16.9295 57.3187 17.108C58.1789 17.873 59.0902 18.5378 60.0765 19.1352C61.154 19.7891 62.4069 20.4065 63.4735 20.871C64.6954 21.4047 65.8021 21.8345 67.0167 22.4483C68.1673 23.0294 69.296 23.6559 70.4338 24.2624C71.0073 24.5684 71.5808 24.8708 72.1616 25.164L71.7141 23.461C70.6402 25.328 69.8494 27.3625 69.2759 29.4334C68.9983 30.4352 68.8211 31.4588 68.5527 32.4606C68.5253 32.5608 68.496 32.6591 68.4613 32.7557C68.4449 32.803 68.4248 32.8504 68.4084 32.8977C68.412 32.8868 68.5088 32.6864 68.4431 32.8176C68.3463 33.0088 68.2531 33.1964 68.1362 33.3768C68.0833 33.4587 68.0267 33.537 67.9719 33.6172C67.8294 33.8175 68.0979 33.4769 67.9335 33.6609C67.7929 33.8194 67.6523 33.976 67.4988 34.1235C67.3582 34.2601 67.2103 34.3931 67.0605 34.5206C66.9838 34.5843 66.9071 34.6481 66.8304 34.71C66.792 34.741 66.7519 34.7719 66.7135 34.8029C66.7939 34.7392 66.8523 34.6991 66.7354 34.7847C66.3975 35.0324 66.056 35.2728 65.7108 35.5114C64.9109 36.0633 64.0981 36.6079 63.353 37.2308C61.7567 38.5659 61.1175 40.5895 60.3742 42.4565C60.3322 42.5603 60.2902 42.6659 60.2482 42.7697C60.2281 42.8207 60.2061 42.8717 60.1842 42.9227C60.1915 42.9045 60.2609 42.7497 60.2025 42.879C60.0929 43.1194 59.987 43.3617 59.8847 43.6058C59.6455 44.1668 59.4025 44.7332 59.2784 45.3306C59.1414 45.99 58.9825 46.7969 59.4299 47.3742C59.8774 47.9516 60.6006 48.1028 61.302 48.0755C61.5595 48.0646 61.8188 48.0263 62.0745 47.9953C62.0143 48.0026 62.5311 47.9443 62.3613 47.9589C62.2553 47.968 62.469 47.9534 62.4617 47.9534C62.5914 47.948 62.7174 47.9443 62.8471 47.9498C62.8891 47.9498 62.9293 47.9553 62.9713 47.9571C63.1192 47.9607 62.9713 47.9571 62.9749 47.9534C62.8361 47.9261 62.9676 47.9698 62.9749 47.9534C63.0114 47.9607 63.0498 47.9662 63.0863 47.9753C63.1356 47.9862 63.5265 48.0609 63.5301 48.1064C63.5301 48.0901 63.2818 47.9789 63.4954 48.101C63.5521 48.1338 63.6087 48.1666 63.6635 48.1993C63.8644 48.3159 63.6324 48.2303 63.6361 48.1684C63.6361 48.1902 63.7804 48.2941 63.8004 48.3141C63.8461 48.3578 63.8863 48.4052 63.9301 48.4507C64.0799 48.6055 63.8772 48.3596 63.9064 48.4161C63.9721 48.5363 64.058 48.6456 64.1237 48.7676C64.131 48.7822 64.2095 48.9425 64.2095 48.9425C64.1986 48.9461 64.1128 48.6784 64.1949 48.9151C64.2443 49.0536 64.2899 49.192 64.3264 49.3341C64.3611 49.4689 64.3922 49.6055 64.4159 49.7421C64.4287 49.8113 64.4378 49.8823 64.4506 49.9515C64.4725 50.0717 64.436 49.8313 64.4342 49.8331C64.4232 49.8659 64.447 49.9424 64.4506 49.977C64.5127 50.5836 64.4945 51.1974 64.447 51.8039C64.4251 52.0935 64.394 52.3849 64.3593 52.6727C64.352 52.7346 64.3173 52.8439 64.3301 52.9022C64.3045 52.7893 64.3611 52.6745 64.3356 52.8603C64.3173 52.9896 64.299 53.119 64.279 53.2483C64.1639 54.0133 64.0251 54.7728 63.8918 55.536C63.6379 56.9985 63.3859 58.4921 63.6963 59.9656C64.0287 61.5466 65.1227 62.756 66.414 63.6612C66.6003 63.7924 66.792 63.9108 66.982 64.0346C67.0843 64.1002 67.1847 64.1694 67.2852 64.2386C67.3308 64.2714 67.3783 64.3042 67.424 64.337C67.592 64.4554 67.3984 64.3115 67.4842 64.3825C67.6212 64.4954 67.7564 64.612 67.8787 64.7395C67.9317 64.7942 67.9774 64.8543 68.0303 64.9089C68.1162 64.9981 67.9481 64.8197 67.9573 64.816C67.9609 64.816 68.0212 64.9144 68.0267 64.9216C68.149 65.1038 67.9847 64.9326 68.0157 64.8561C68.0102 64.8725 68.0541 64.9872 68.0632 65.0054C68.1362 65.1621 68.0321 64.7322 68.0486 64.898C68.0504 64.9216 68.0486 64.9472 68.0486 64.969C68.0394 65.0801 68.1198 64.7067 68.0723 64.8087C68.0577 64.8415 68.0376 64.9125 68.034 64.949C68.0303 64.9909 68.1728 64.7013 68.0668 64.8615C68.0376 64.9053 68.0121 64.9544 67.9847 65C67.97 65.0236 67.9518 65.0455 67.9372 65.0692C67.8568 65.2003 67.9828 64.9836 68.0084 64.9781C67.9408 64.9945 67.8057 65.2058 67.7527 65.2604C67.645 65.3697 67.5354 65.4754 67.4221 65.5792C67.1756 65.805 66.9199 66.0236 66.6678 66.2458C66.0724 66.7722 65.5026 67.3241 65.0113 67.9525C64.9419 68.0417 64.8725 68.1328 64.8031 68.222C64.7246 68.324 64.8104 68.2147 64.8232 68.1984C64.7593 68.2785 64.6935 68.3586 64.626 68.437C64.4799 68.6082 64.3264 68.7721 64.1675 68.9287C64.0196 69.0745 63.8662 69.2147 63.7073 69.3495C63.6671 69.3841 63.6269 69.4169 63.5868 69.4497C63.5813 69.4551 63.4461 69.5626 63.5374 69.4916C63.6288 69.4205 63.4918 69.5262 63.4845 69.5298C63.4279 69.5717 63.3712 69.6118 63.3146 69.6518C62.9567 69.9014 62.5786 70.1236 62.1859 70.3148C62.091 70.3604 61.996 70.4041 61.8992 70.446C61.7805 70.497 61.9047 70.4423 61.9229 70.435C61.8736 70.4533 61.8243 70.4733 61.775 70.4915C61.5613 70.5716 61.344 70.6427 61.1248 70.7046C60.9203 70.7611 60.7157 70.8102 60.5075 70.8503C60.4545 70.8594 60.4034 70.8704 60.3504 70.8776C60.3212 70.8831 60.102 70.9141 60.2354 70.8977C60.3559 70.8813 60.1824 70.9031 60.1714 70.9031C60.1002 70.9104 60.029 70.9177 59.9596 70.9214C59.5103 70.9541 59.0592 70.945 58.6117 70.8959C58.4802 70.8813 58.6117 70.8959 58.6336 70.8995C58.5789 70.8904 58.5241 70.8813 58.4693 70.8722C58.3597 70.8521 58.2501 70.8303 58.1423 70.8066C57.9031 70.752 57.6675 70.6864 57.4337 70.6081C57.2876 70.5589 57.1451 70.4988 56.999 70.446C56.8456 70.3895 57.262 70.5625 57.1086 70.4915C57.0611 70.4696 57.0137 70.4496 56.9662 70.4296C54.8257 69.466 52.8039 68.2931 50.5794 67.5117C48.1667 66.6647 45.1989 66.1347 42.8995 67.5845C40.1563 69.3149 39.5828 72.8284 39.3326 75.8027C39.3088 76.0905 39.2869 76.3783 39.276 76.6679L40.0375 75.6716C39.8914 75.7244 39.7453 75.7645 39.5937 75.8009C39.4823 75.8282 39.475 75.8264 39.296 75.8319C38.9746 75.8446 38.6751 75.8136 38.4577 75.7718C37.8167 75.6479 37.1975 75.4293 36.5912 75.1907C35.3602 74.7081 34.0544 74.4075 32.9458 73.7445C31.9686 73.1617 31.1048 72.4131 30.1605 71.7829C29.1286 71.0944 27.9926 70.5789 26.7416 70.4806C26.0366 70.4241 25.328 70.5462 24.6942 70.8613C24.4038 71.0051 24.1171 71.2091 23.9016 71.4514C23.7664 71.6007 23.6386 71.7701 23.5436 71.9486C23.4925 72.0452 23.434 72.1909 23.4048 72.2728C23.3719 72.3639 23.255 72.6025 23.4322 72.2929L23.7993 71.9268H23.7956C23.9673 71.8831 24.139 71.8357 24.3125 71.7902C24.318 71.7902 24.5974 71.8721 24.528 71.8175C24.5152 71.8066 24.4586 71.7902 24.444 71.7883C24.3582 71.7756 24.2121 71.6372 24.539 71.8302C24.486 71.7993 24.4221 71.7792 24.3673 71.7556C24.0897 71.6299 23.8139 71.4987 23.54 71.364C22.8496 71.027 22.1629 70.6809 21.4798 70.3294C19.7502 69.4424 18.1412 68.3769 16.4829 67.366C15.9203 67.0236 15.345 66.7066 14.7642 66.3933C14.5433 66.275 14.3314 66.1456 14.1214 66.0072C14.0921 65.9872 13.9753 65.887 14.1031 65.9963C14.0556 65.9562 14.0081 65.9161 13.9643 65.8724C13.9205 65.8287 13.8785 65.785 13.8364 65.7413C13.9332 65.8433 13.8511 65.7613 13.8054 65.6939C13.789 65.6702 13.7031 65.5027 13.7543 65.6138C13.8054 65.7249 13.736 65.5464 13.7287 65.5172C13.6995 65.4043 13.7214 65.53 13.725 65.5519C13.7196 65.5081 13.7214 65.4644 13.7196 65.4189C13.7177 65.3734 13.7287 65.326 13.7269 65.2823C13.7397 65.4845 13.6995 65.4225 13.7232 65.3406C13.7543 65.2276 13.778 65.1147 13.8145 65.0036C13.8328 64.9508 13.8529 64.8998 13.8712 64.8488C13.9205 64.7067 13.8017 64.9963 13.8675 64.8561C13.9186 64.7468 13.9698 64.6393 14.0246 64.5319C14.1488 64.2914 14.2876 64.0583 14.4318 63.8306C14.9505 63.0092 15.5733 62.2551 16.0847 61.4282C16.8299 60.2188 17.5422 58.9711 18.0225 57.6306C19.0927 54.638 18.3056 51.3595 19.2041 48.3997H17.2317C17.5294 49.8331 17.7796 51.2775 18.2179 52.6763C18.6197 53.9604 19.237 55.6853 20.5739 56.2827C21.1273 56.5304 21.9346 56.3793 22.077 55.6726C22.6268 52.9204 22.1903 50.192 21.5565 47.4945C21.2168 46.0483 20.8643 44.6039 20.521 43.1577C20.2525 42.0266 19.7722 40.9556 19.4471 39.8409C19.2754 39.2508 19.1421 38.6825 18.8699 38.1233C18.5978 37.5642 18.227 37.0778 17.8472 36.597C17.491 36.1471 17.1075 35.7209 16.7367 35.2819C16.6418 35.169 16.5468 35.0561 16.4555 34.9413C16.4409 34.9231 16.3148 34.7647 16.3842 34.8521C16.4536 34.9395 16.3294 34.7811 16.3167 34.761C16.134 34.5151 15.9623 34.262 15.8126 33.996C15.7487 33.8849 15.6939 33.7702 15.6354 33.6572C15.5459 33.4842 15.6044 33.5971 15.6226 33.639C15.5971 33.5807 15.5752 33.5206 15.5532 33.4605C15.4272 33.1126 15.3578 32.7502 15.2775 32.3896C15.1021 31.6027 14.7971 30.916 14.2675 30.3004C13.7798 29.7321 13.1461 29.2859 12.5525 28.836C11.9589 28.3861 11.411 27.9981 10.8211 27.6065C9.59014 26.7869 8.30803 26.0456 6.98391 25.3881C6.33007 25.0639 5.6671 24.7597 4.99682 24.4756C4.78131 24.3845 4.5658 24.2934 4.34846 24.206C4.27175 24.175 4.19322 24.1441 4.11651 24.1131L4.05807 24.0894C3.89735 24.0257 3.90282 24.0275 4.07268 24.0985C3.89552 24.1022 3.59782 23.829 3.45354 23.7361C3.42249 23.716 3.30195 23.6195 3.44623 23.7361C3.40057 23.6996 3.35491 23.6614 3.31108 23.6231C3.26725 23.5849 3.22524 23.5466 3.18506 23.5047C3.18141 23.5011 3.00242 23.2989 3.10287 23.4264C3.19054 23.5375 3.07365 23.4046 3.07365 23.3772C3.07913 23.2552 3.12114 23.5594 3.09192 23.4392C3.07183 23.3517 3.08278 23.6996 3.07731 23.7233C3.11749 23.543 3.0006 23.8563 3.05722 23.7634C3.12296 23.6523 2.90745 23.9218 2.99695 23.8362C3.09192 23.747 2.76865 23.9728 2.93668 23.88C3.06269 23.8107 2.69925 23.9237 2.94946 23.88C2.98416 23.8745 3.02982 23.8654 3.06452 23.8545C3.23255 23.7998 2.98051 23.8617 2.97503 23.8636C3.05722 23.8253 3.2088 23.8435 3.2983 23.8381C3.82246 23.8053 4.34846 23.7725 4.82697 23.5339C5.35114 23.2716 5.72919 22.7598 5.85156 22.1897C6.07255 21.1606 5.44793 20.3646 4.54205 19.9603C4.16765 19.7927 3.78046 19.6598 3.39692 19.514C3.35126 19.4958 3.3056 19.4758 3.25812 19.4594C3.13575 19.4175 3.45354 19.5578 3.34213 19.4958C3.2709 19.4558 3.19054 19.4266 3.11749 19.3884C3.05722 19.3556 3.0006 19.3137 2.94033 19.2827C2.79239 19.2081 3.05174 19.3465 3.03165 19.3556C3.02434 19.3592 2.9385 19.27 2.93302 19.2627C2.85449 19.1589 3.07731 19.4922 2.97138 19.2955C3.09009 19.5177 3.05722 19.5049 3.03165 19.4212C2.98233 19.2554 3.05904 19.6689 3.04991 19.5414C3.03713 19.3665 2.9732 19.7854 3.06087 19.5414C3.06452 19.5341 2.93302 19.8018 3.00425 19.678C3.02799 19.6361 3.10653 19.5414 2.98964 19.6834C2.81979 19.8874 3.04808 19.6306 3.05174 19.6379C3.07 19.667 2.79787 19.7909 3.03165 19.6689C3.05174 19.6579 3.21063 19.5887 3.21063 19.5778C3.2088 19.6306 2.95859 19.667 3.14305 19.6106C3.18871 19.596 3.23437 19.5796 3.28003 19.565C3.46267 19.5086 3.65079 19.4667 3.8389 19.4321C3.93205 19.4157 4.02519 19.4011 4.11834 19.3884C3.84621 19.4303 4.20052 19.3811 4.29367 19.372C4.77948 19.3246 5.26895 19.3064 5.75842 19.2991C6.83049 19.2809 7.90257 19.3173 8.97465 19.3319C9.44951 19.3392 9.92619 19.3428 10.401 19.3283C10.6257 19.3228 10.8503 19.3064 11.075 19.2973C11.2174 19.2918 11.3599 19.29 11.5023 19.2973C11.5718 19.3009 11.6448 19.3028 11.7142 19.3119C11.5297 19.2846 11.8402 19.3519 11.8475 19.3538C12.043 19.4048 11.9261 19.3774 11.8804 19.3647C12.043 19.4157 11.9681 19.3957 11.9188 19.3774L11.9918 19.4503C11.9334 19.3683 11.9242 19.3574 11.9644 19.4175C11.9955 19.4667 12.021 19.5195 12.0503 19.5705C12.0009 19.4248 12.1251 19.7035 12.0503 19.5705C12.074 19.6415 12.0996 19.7126 12.1215 19.7854C12.1671 19.9293 12.2055 20.075 12.253 20.2171C12.4941 20.9402 12.9068 21.5431 13.6502 21.8127C14.3515 22.0677 15.1496 21.9219 15.8783 21.9566C16.6071 21.9912 17.2225 22.0913 17.9385 22.2789C18.6544 22.4665 19.2736 22.6997 19.9 23.013C20.5977 23.3627 21.4122 22.9365 21.4396 22.1314C21.4762 21.0331 21.4067 19.9348 21.2844 18.8438C21.162 17.7528 20.8314 16.6217 20.4917 15.5525C20.3949 15.2447 20.0991 15.0352 19.7722 15.0844C19.4781 15.1281 19.1694 15.3995 19.2041 15.7255L19.1877 15.7182Z" fill="white"/>
<path d="M42.3524 30.8885C44.3765 30.8885 46.0174 29.2476 46.0174 27.2235C46.0174 25.1994 44.3765 23.5586 42.3524 23.5586C40.3283 23.5586 38.6875 25.1994 38.6875 27.2235C38.6875 29.2476 40.3283 30.8885 42.3524 30.8885Z" fill="#FFA48B"/>
<path d="M54.6649 17.2283C56.689 17.2283 58.3299 15.5875 58.3299 13.5634C58.3299 11.5393 56.689 9.89844 54.6649 9.89844C52.6408 9.89844 51 11.5393 51 13.5634C51 15.5875 52.6408 17.2283 54.6649 17.2283Z" fill="#FFA48B"/>
<path d="M16.6581 40.2322C18.6822 40.2322 20.323 38.5914 20.323 36.5673C20.323 34.5432 18.6822 32.9023 16.6581 32.9023C14.634 32.9023 12.9932 34.5432 12.9932 36.5673C12.9932 38.5914 14.634 40.2322 16.6581 40.2322Z" fill="#FFA48B"/>
<path d="M37.6337 54.0428C39.6578 54.0428 41.2986 52.4019 41.2986 50.3778C41.2986 48.3537 39.6578 46.7129 37.6337 46.7129C35.6096 46.7129 33.9688 48.3537 33.9688 50.3778C33.9688 52.4019 35.6096 54.0428 37.6337 54.0428Z" fill="#FFA48B"/>
<path d="M30.3036 71.5291C32.3277 71.5291 33.9685 69.8882 33.9685 67.8642C33.9685 65.8401 32.3277 64.1992 30.3036 64.1992C28.2795 64.1992 26.6387 65.8401 26.6387 67.8642C26.6387 69.8882 28.2795 71.5291 30.3036 71.5291Z" fill="#FFA48B"/>
<path d="M67.0399 29.989C69.064 29.989 70.7049 28.3482 70.7049 26.3241C70.7049 24.3 69.064 22.6592 67.0399 22.6592C65.0158 22.6592 63.375 24.3 63.375 26.3241C63.375 28.3482 65.0158 29.989 67.0399 29.989Z" fill="#FFA48B"/>
<path d="M59.8407 63.6131C61.8648 63.6131 63.5056 61.9722 63.5056 59.9481C63.5056 57.924 61.8648 56.2832 59.8407 56.2832C57.8166 56.2832 56.1758 57.924 56.1758 59.9481C56.1758 61.9722 57.8166 63.6131 59.8407 63.6131Z" fill="#FFA48B"/>
<path d="M28.3036 23.8943C30.3277 23.8943 31.9685 22.2535 31.9685 20.2294C31.9685 18.2053 30.3277 16.5645 28.3036 16.5645C26.2795 16.5645 24.6387 18.2053 24.6387 20.2294C24.6387 22.2535 26.2795 23.8943 28.3036 23.8943Z" fill="#FFA48B"/>
</g>
<defs>
<clipPath id="clip0_2458_18502">
<rect width="73" height="80" fill="white" transform="translate(1 0.898438)"/>
</clipPath>
</defs>
</svg>
