<svg xmlns="http://www.w3.org/2000/svg" width="216" height="60" fill="none"><path fill="#000091" d="M0 0h216v60H0z"/><path fill="#fff" d="M74.085 26.3q.776 0 1.443-.237a3.3 3.3 0 0 0 1.147-.675q.481-.439.76-1.055t.279-1.359q0-1.417-.878-2.177a9.6 9.6 0 0 0-1.916-1.291 31 31 0 0 1-1.916-1.064q-.877-.53-.877-1.477 0-.725.498-1.223.497-.498 1.325-.498a2.6 2.6 0 0 1 1.409.396q.633.398 1.156 1.14l1.182-1.03a5.3 5.3 0 0 0-1.587-1.392q-.929-.532-2.177-.532a3.7 3.7 0 0 0-1.376.253 3.4 3.4 0 0 0-1.089.684q-.455.43-.709 1.012A3 3 0 0 0 70.507 17q0 1.401.878 2.16a9.6 9.6 0 0 0 1.916 1.292q1.037.531 1.916 1.063.877.532.877 1.477 0 .81-.532 1.35-.531.54-1.493.54a3.2 3.2 0 0 1-1.561-.405q-.735-.404-1.36-1.181L70 24.358q.776.962 1.772 1.452t2.313.49m6.65-7.613 1.738-4.524h-1.637l-1.434 4.524zm4.793-3.426a.95.95 0 0 0 .71-.296 1 1 0 0 0 .286-.717.97.97 0 0 0-.287-.7.95.95 0 0 0-.709-.296.98.98 0 0 0-.717.295.96.96 0 0 0-.295.7q0 .423.295.718a.98.98 0 0 0 .717.296m.71 10.718v-8.507h-1.435v8.507zm6.683.337a4.2 4.2 0 0 0 1.68-.329q.768-.33 1.342-.954v.946h1.434v-12.66h-1.434v5.098a3.9 3.9 0 0 0-1.342-.954 4.2 4.2 0 0 0-1.68-.329q-.996 0-1.806.371-.81.372-1.375.996-.566.625-.878 1.46a5 5 0 0 0-.312 1.764q0 .929.312 1.764.311.836.878 1.46a4.2 4.2 0 0 0 1.375.996q.81.37 1.806.371m.169-1.35q-.675 0-1.232-.253a2.9 2.9 0 0 1-.954-.692 3.2 3.2 0 0 1-.616-1.03 3.6 3.6 0 0 1-.22-1.266q0-.675.22-1.266.22-.59.616-1.03.398-.439.954-.691a2.9 2.9 0 0 1 1.232-.254 3.3 3.3 0 0 1 1.604.406q.742.404 1.249 1.181v3.308a3.46 3.46 0 0 1-1.233 1.173 3.3 3.3 0 0 1-1.62.414m11.224 1.35q1.182 0 2.119-.473a4.3 4.3 0 0 0 1.527-1.265l-1.063-.827a3.12 3.12 0 0 1-2.549 1.265q-1.417 0-2.304-.92t-.886-2.32v-.034h6.515q.034-.169.068-.414t.034-.497q0-.795-.27-1.477a3.35 3.35 0 0 0-.768-1.173 3.6 3.6 0 0 0-1.207-.768 4.3 4.3 0 0 0-1.57-.279q-.979 0-1.781.355t-1.35.97-.852 1.46a5.3 5.3 0 0 0-.304 1.806q0 .929.321 1.764.32.836.919 1.46.6.624 1.469.996.87.37 1.932.371m2.009-5.705h-5.047q.254-1.097.962-1.67.709-.575 1.739-.575 1.046 0 1.679.667.633.666.667 1.578m5.317 5.368v-5.891q.405-.675 1.021-1.14t1.528-.464q.978 0 1.569.633t.591 1.764v5.098h1.452V20.83q0-1.806-.954-2.752t-2.372-.945q-.945 0-1.628.363a4.4 4.4 0 0 0-1.207.937v-.962h-1.435v8.507zm12.49.168q.456 0 .81-.059.355-.06.659-.177v-1.283a2.4 2.4 0 0 1-.541.152 4.5 4.5 0 0 1-.725.05q-.776 0-1.241-.354-.464-.354-.464-1.35v-4.338h2.954v-1.316h-2.954v-2.127h-1.452v2.127h-1.603v1.316h1.603v4.338q0 1.553.768 2.287.768.735 2.186.734m4.372-10.886a.95.95 0 0 0 .709-.296 1 1 0 0 0 .287-.717.97.97 0 0 0-.287-.7.95.95 0 0 0-.709-.296.98.98 0 0 0-.718.295.96.96 0 0 0-.295.7q0 .423.295.718a.98.98 0 0 0 .718.296m.709 10.718v-8.507h-1.435v8.507zm4.979 0v-7.19h2.954v-1.317h-2.954v-1.08q0-.828.447-1.3t1.139-.473q.439 0 .752.16.312.16.531.414l.895-1.046a2.8 2.8 0 0 0-.929-.6 3.3 3.3 0 0 0-1.265-.228q-1.368 0-2.195.87t-.827 2.236v1.047h-1.603v1.316h1.603v7.19zm5.435-10.718a.95.95 0 0 0 .709-.296 1 1 0 0 0 .287-.717.97.97 0 0 0-.287-.7.95.95 0 0 0-.709-.296.98.98 0 0 0-.718.295.96.96 0 0 0-.295.7q0 .423.295.718a.98.98 0 0 0 .718.296m.709 10.718v-8.507h-1.435v8.507zm6.954.337q1.18 0 2.118-.473a4.26 4.26 0 0 0 1.528-1.265l-1.064-.827a3.12 3.12 0 0 1-2.549 1.265q-1.418 0-2.303-.92-.887-.92-.887-2.32v-.034h6.516a7 7 0 0 0 .067-.414q.034-.245.034-.497 0-.795-.27-1.477a3.35 3.35 0 0 0-.768-1.173 3.55 3.55 0 0 0-1.207-.768 4.3 4.3 0 0 0-1.57-.279q-.978 0-1.78.355t-1.351.97q-.548.616-.852 1.46a5.3 5.3 0 0 0-.304 1.806q0 .929.321 1.764.32.836.92 1.46.599.624 1.468.996.87.37 1.933.371m2.008-5.705h-5.046q.252-1.097.962-1.67.709-.575 1.738-.575 1.047 0 1.68.667.633.666.666 1.578m5.317 5.368v-5.773q.389-.642.962-1.038.575-.396 1.401-.397.254 0 .456.034t.388.085v-1.486a2 2 0 0 0-.338-.076 3 3 0 0 0-.388-.025q-.81 0-1.409.337-.6.339-1.072.895v-1.063h-1.435v8.507zm12.153.337q.861 0 1.62-.371a3.2 3.2 0 0 0 1.232-1.047v1.08h1.435v-5.705q0-1.4-.911-2.27-.912-.87-2.532-.869-1.115 0-1.992.439a3.9 3.9 0 0 0-1.435 1.198l1.081.827q.371-.555.97-.869.6-.312 1.342-.312.894 0 1.468.49.574.489.574 1.366v.591l-2.852.473q-1.368.219-2.085.895a2.18 2.18 0 0 0-.717 1.654q0 1.113.776 1.772.777.658 2.026.658m.236-1.198q-.726 0-1.165-.372-.438-.37-.438-.911 0-.556.413-.945.414-.39 1.291-.524l2.515-.438v1.62a3.4 3.4 0 0 1-1.105 1.148 2.77 2.77 0 0 1-1.511.422m10.802.86 3.326-8.506h-1.553l-2.718 7.004-2.717-7.004h-1.553l3.325 8.507zm8.862.338q1.181 0 2.118-.473a4.26 4.26 0 0 0 1.528-1.265l-1.064-.827a3.12 3.12 0 0 1-2.548 1.265q-1.419 0-2.304-.92-.887-.92-.887-2.32v-.034h6.516a7 7 0 0 0 .067-.414q.034-.245.034-.497 0-.795-.27-1.477a3.35 3.35 0 0 0-.768-1.173 3.55 3.55 0 0 0-1.207-.768 4.3 4.3 0 0 0-1.57-.279q-.979 0-1.78.355-.802.355-1.351.97-.548.616-.852 1.46a5.3 5.3 0 0 0-.304 1.806q0 .929.321 1.764.32.836.92 1.46.599.624 1.468.996.87.37 1.933.371m2.008-5.705h-5.046q.252-1.097.962-1.67.708-.575 1.738-.575 1.047 0 1.68.667.633.666.666 1.578m7.748 5.705q1.164 0 2.076-.473A4.3 4.3 0 0 0 200 24.579l-1.148-.878a2.9 2.9 0 0 1-1.012.92q-.625.346-1.401.346a3.07 3.07 0 0 1-2.254-.937 3.1 3.1 0 0 1-.65-1.03 3.5 3.5 0 0 1-.236-1.274 3.4 3.4 0 0 1 .878-2.295q.405-.44.987-.692a3.1 3.1 0 0 1 1.258-.254 2.89 2.89 0 0 1 2.43 1.266l1.148-.877a4.5 4.5 0 0 0-1.511-1.258q-.92-.48-2.067-.48a4.8 4.8 0 0 0-1.908.37q-.86.372-1.46.996a4.4 4.4 0 0 0-.928 1.46 4.8 4.8 0 0 0-.329 1.764q0 .929.329 1.764a4.4 4.4 0 0 0 .928 1.46q.6.624 1.46.996.861.37 1.908.371M72.56 45.018v-5.335h4.073v-2.181H72.56v-2.92h4.794V32.4H70v12.617zm8.652 0v-5.696q.252-.414.802-.793.55-.378 1.379-.378.306 0 .55.036.243.036.46.09v-2.398a2.4 2.4 0 0 0-.793-.126q-.776 0-1.362.316-.585.315-1.036.766v-.901h-2.29v9.084zm7.192.36q.794 0 1.532-.333.739-.333 1.172-.874v.847h2.307v-5.876q0-.739-.252-1.397a3.1 3.1 0 0 0-.748-1.136 3.55 3.55 0 0 0-1.253-.757q-.758-.279-1.73-.279-1.227 0-2.209.487a4.34 4.34 0 0 0-1.595 1.316l1.695 1.28a2.07 2.07 0 0 1 .838-.803q.531-.28 1.198-.28.776 0 1.262.425.487.423.487 1.144v.234l-2.74.47q-1.46.233-2.244.99-.784.758-.784 1.785 0 1.28.856 2.019t2.208.739m.469-1.838q-.577 0-.92-.288a.9.9 0 0 1-.342-.721q0-.433.315-.721t1.037-.415l2.145-.378v1.243a2.9 2.9 0 0 1-.901.92q-.56.36-1.334.36m9.445 1.478v-5.93q.253-.432.748-.892.496-.46 1.361-.46.829 0 1.307.532.477.531.478 1.433v5.317h2.325v-5.407q0-1.01-.28-1.767a3.6 3.6 0 0 0-.757-1.261 3.1 3.1 0 0 0-1.117-.758 3.7 3.7 0 0 0-1.379-.252q-.902 0-1.559.316a4.3 4.3 0 0 0-1.127.766v-.721h-2.289v9.084zm13.177.36q1.243 0 2.226-.504a4.7 4.7 0 0 0 1.613-1.334l-1.82-1.388a2.6 2.6 0 0 1-.839.766 2.3 2.3 0 0 1-1.18.298q-1.136 0-1.884-.775t-.748-1.965.739-1.965 1.857-.775q.703 0 1.216.297.514.298.839.767l1.82-1.388a4.7 4.7 0 0 0-1.613-1.334q-.983-.505-2.226-.505-1.172 0-2.109.397a4.7 4.7 0 0 0-1.577 1.063 4.6 4.6 0 0 0-.983 1.56 5.2 5.2 0 0 0-.342 1.883q0 .99.342 1.884.342.892.983 1.559.64.667 1.577 1.063.938.397 2.109.397m9.589 0q1.28 0 2.308-.495a4.4 4.4 0 0 0 1.658-1.343l-1.64-1.297a2.6 2.6 0 0 1-.956.784 2.94 2.94 0 0 1-1.334.297q-1.154 0-1.892-.63-.739-.632-.848-1.75h6.363a6 6 0 0 0 .145-1.297q0-1.784-1.154-2.93-1.153-1.144-3.028-1.144-1.118 0-1.983.388a4.25 4.25 0 0 0-1.46 1.054q-.595.667-.91 1.56a5.7 5.7 0 0 0-.316 1.901q0 .99.334 1.884a4.5 4.5 0 0 0 .973 1.559q.64.667 1.586 1.063.947.397 2.154.397m1.532-6.164h-4.091q.234-.883.793-1.307.558-.423 1.388-.423.901 0 1.397.532.495.531.513 1.198m10.69 6.165q1.712 0 3.082-.703a6.3 6.3 0 0 0 2.235-1.875l-2.019-1.55q-.54.775-1.379 1.253-.837.477-1.919.477a4 4 0 0 1-1.641-.333 3.9 3.9 0 0 1-1.289-.901 4.2 4.2 0 0 1-.838-1.352 4.6 4.6 0 0 1-.306-1.686q0-.9.306-1.685.307-.784.838-1.352a3.9 3.9 0 0 1 1.289-.901 4 4 0 0 1 1.641-.334q1.082 0 1.919.478a4.2 4.2 0 0 1 1.379 1.253l2.019-1.568q-.865-1.135-2.235-1.848-1.37-.712-3.082-.712-1.479 0-2.722.54a6.7 6.7 0 0 0-2.127 1.443 6.4 6.4 0 0 0-1.37 2.118 6.8 6.8 0 0 0-.487 2.569q0 1.35.487 2.568a6.4 6.4 0 0 0 1.37 2.118 6.7 6.7 0 0 0 2.127 1.442q1.243.54 2.722.54m11.374 0q1.1 0 2.019-.388a4.9 4.9 0 0 0 1.577-1.045 4.6 4.6 0 0 0 1.018-1.56q.361-.9.361-1.91t-.361-1.91q-.36-.902-1.018-1.56a4.9 4.9 0 0 0-1.577-1.045 5.15 5.15 0 0 0-2.019-.388q-1.1 0-2.019.388a4.9 4.9 0 0 0-1.577 1.045 4.6 4.6 0 0 0-1.019 1.56q-.36.9-.36 1.91t.36 1.91q.361.902 1.019 1.56t1.577 1.045a5.15 5.15 0 0 0 2.019.388m.036-2.163q-1.135 0-1.884-.775t-.748-1.965q0-1.19.748-1.965.749-.775 1.884-.775 1.082 0 1.82.775.74.776.739 1.965 0 1.171-.739 1.956a2.4 2.4 0 0 1-1.82.784m9.319 1.802v-5.93q.253-.432.748-.892t1.361-.46q.829 0 1.307.532.477.531.477 1.433v5.317h2.326v-5.407q0-1.01-.28-1.767a3.6 3.6 0 0 0-.757-1.261 3.1 3.1 0 0 0-1.117-.758 3.7 3.7 0 0 0-1.379-.252q-.902 0-1.559.316-.659.315-1.127.766v-.721h-2.289v9.084zm11.104 0v-5.93q.252-.432.748-.892.495-.46 1.361-.46.829 0 1.306.532.478.531.478 1.433v5.317h2.325v-5.407q0-1.01-.279-1.767a3.6 3.6 0 0 0-.757-1.261 3.1 3.1 0 0 0-1.118-.758 3.7 3.7 0 0 0-1.379-.252q-.9 0-1.559.316-.657.315-1.126.766v-.721h-2.29v9.084zm13.212.36q1.28 0 2.308-.495a4.4 4.4 0 0 0 1.658-1.343l-1.64-1.297a2.6 2.6 0 0 1-.956.784 2.94 2.94 0 0 1-1.334.297q-1.154 0-1.892-.63-.74-.632-.847-1.75h6.363a6.3 6.3 0 0 0 .144-1.297q0-1.784-1.154-2.93-1.153-1.144-3.028-1.144-1.118 0-1.983.388a4.3 4.3 0 0 0-1.46 1.054q-.595.667-.91 1.56a5.7 5.7 0 0 0-.316 1.901q0 .99.334 1.884a4.5 4.5 0 0 0 .973 1.559q.64.667 1.586 1.063.946.397 2.154.397m1.533-6.164h-4.092q.234-.883.793-1.307.558-.423 1.388-.423.901 0 1.397.532.495.531.514 1.198m8.796 6.165q1.244 0 2.226-.505a4.7 4.7 0 0 0 1.613-1.334l-1.82-1.388a2.6 2.6 0 0 1-.838.766 2.3 2.3 0 0 1-1.181.298q-1.136 0-1.884-.775t-.748-1.965.739-1.965q.74-.775 1.857-.775.703 0 1.217.297.514.298.838.767l1.82-1.388a4.7 4.7 0 0 0-1.613-1.334q-.982-.505-2.226-.505-1.172 0-2.109.397a4.7 4.7 0 0 0-1.577 1.063 4.6 4.6 0 0 0-.983 1.56 5.2 5.2 0 0 0-.342 1.883q0 .99.342 1.884a4.6 4.6 0 0 0 .983 1.559q.64.667 1.577 1.063.937.397 2.109.397m9.572-.18q.558 0 .982-.072t.766-.217v-2q-.234.09-.559.144a5 5 0 0 1-.793.054q-.667 0-1.054-.325-.388-.325-.388-1.081v-3.677h2.776v-2.091h-2.776v-2.272h-2.307v2.272h-1.695v2.09h1.695v3.678q0 1.658.829 2.577.83.92 2.524.92M35.365 4.867c-.243-.144-.679-.144-.921 0L13.212 17.06a.98.98 0 0 0-.436.771V42.17c0 .289.194.626.436.77l21.232 12.194c.242.144.678.144.92 0L56.598 42.94a.98.98 0 0 0 .436-.771V17.83a.98.98 0 0 0-.436-.77z"/><path fill="#0063CB" d="m34.872 49.678-16.59-9.52c-.193-.097-.338-.387-.338-.58V20.826a.67.67 0 0 1 .338-.58l16.59-9.694"/><path fill="#000091" d="m17.946 39.494-.002-18.778c0-.242.145-.484.338-.58l16.59-9.583"/><path fill="#E1000F" fill-rule="evenodd" d="m28.945 20.711-5.564 9.54-5.042-10.15 5.964-3.445 4.967 3.494z" clip-rule="evenodd"/><path fill="#000091" d="m34.87 49.679 16.592-9.634c.193-.096.338-.386.338-.58V20.738a.67.67 0 0 0-.338-.579l-16.59-9.606"/><path fill="#E1000F" d="M51.8 39.493V20.73a.67.67 0 0 0-.338-.579l-16.59-9.598"/><path fill="#0063CB" fill-rule="evenodd" d="m40.355 19.951 5.96 10.22 4.967-10.124-6.041-3.495z" clip-rule="evenodd"/><path fill="#fff" fill-rule="evenodd" d="M41.16 19.567c.39.195.751.446 1.002.837.11.167.25.474.167.698-.112.25-.167.697-.418.78-.306.168-.724.168-1.113.112-.223 0-.418-.055-.64-.111.779.307 1.53.697 2.06 1.423.055.111.25.167.472.167.056 0 .056.112.056.168-.111.111-.223.167-.167.306h.167c.25-.111.223-.641.584-.474.251.168.362.53.223.782-.223.223-.417.362-.64.53a.41.41 0 0 0 0 .362c.167.224.223.419.25.642.167.363.223.781.363 1.172.222.781.417 1.59.361 2.372 0 .418-.222.78-.055 1.2.11.418.361.725.584 1.115.223.308.417.53.584.838.068.117.15.235.234.354l.083.119c.263.378.5.769.324 1.2-.167.364-.724.308-1.114.53-.306.252-.055.699.111.95.251.474-.305.78-.695.948.111.168.306.112.361.223.056.251.307.419.168.698-.064.088-.16.164-.256.24l-.073.056c-.214.17-.397.347-.2.653.222.363.083.78-.056 1.172-.167.474-.584.697-.946.781-.306.111-.696.111-1.002.056-.111-.056-.223-.112-.306-.112-.891-.112-1.782-.363-2.672-.363-.25.056-.529.112-.724.196-.25.167-.445.362-.64.558-.028.056-.084.083-.111.14-.028.027-.056.055-.056.083l-.016.016-.023.023-.017.017c-.166.195-.278.39-.417.613 0 .028-.028.028-.028.028 0 .028-.028.056-.055.084a4.2 4.2 0 0 0-.39.977c-.362 1.2-.195 2.232.055 2.483.167.168 2.172.788 3.935 1.364q-4.62 3.85-7.469 3.85-3.933 0-13.194-5.216c1.494 0 1.282.598 2.673-.098.668-.278 2.171-.974 2.672-1.475.306-.306.612-.612.89-.946a18 18 0 0 1 1.754-1.78c.195-.167.39-.334.585-.446.055-.056.055-.167.111-.222-.25.11-.418.306-.696.417-.056 0-.111-.056-.056-.111.195-.14.39-.278.557-.418h-.028c-.055 0-.055-.055-.055-.111-.696-.111-1.197.362-1.67.779-.112.056-.223-.055-.25-.055-.78.25-1.365.946-2.144 1.252v-.112c-.306.112-.612.306-.946.362-.473.111-.89.056-1.308.056-.64.055-1.28.195-1.92.334-.029 0-.029 0-.056.027a4.2 4.2 0 0 0-.974.39l-.028.028-.084.083c-.111.111-.222.25-.362.306-.333.167-.584.446-.862.696-.028.028-.056.028-.084.028-.278.278.056-.557.362-.752-.028 0-.084-.027-.056-.055.028-.056.056-.084.084-.14 0-.027 0-.027.027-.055l-.004-.016-.019-.023a.03.03 0 0 1-.004-.016l-.25.166c-.14.112-.084-.528.055-.611h-.028c.195-.112.418-.223.613-.335l.083-.083a4.7 4.7 0 0 0-.835.417s0-.194.084-.278c.055 0 .111 0 .111.056 1.01-.778 2.235-.985 3.473-1.165l.338-.05c.731-.106 1.46-.22 2.145-.455.167-.111.306-.222.473-.306.25-.111.473-.362.78-.529.417-.306.723-.695.89-1.196 0-.056-.055-.111-.055-.111a8.5 8.5 0 0 1-2.31 1.725c-1.114.584-2.31.473-3.48.64.056-.112.167-.112.25-.112 0-.166.112-.222.223-.306h.168c.055 0 .055-.11.11-.11.112 0 .279-.056.223-.056-.167-.223-.473.166-.723 0 .11-.112.055-.251.167-.307h.223c0-.11.11-.222.11-.222.78-.473 1.532-.835 2.255-1.252-.167 0-.25.167-.418.055.112 0 0-.167.112-.167.584-.166 1.058-.473 1.642-.695-.223 0-.362.167-.584 0 .11-.056.166-.167.306-.167v-.167c0-.056.055-.056.111-.056-.055 0-.111-.055-.111-.055.055-.112.223-.056.306-.167-.056 0-.167 0-.167-.056.167-.223.417-.25.696-.306-.056-.111-.223 0-.223-.111 0-.048.04-.055.088-.056h-.088c-.111-.056-.056-.167-.056-.223.306-.361.306-.835.474-1.252-.056 0-.112 0-.112-.055-.529.584-1.364.779-2.143 1.001h-.362c-.25.111-.64.111-.89-.056-.223-.11-.307-.25-.53-.417a7 7 0 0 0-1.307-.64c-1.308-.417-2.672-.64-4.036-.584.584-.306 1.225-.334 1.837-.529.89-.25 1.726-.584 2.672-.529-.167-.055-.362 0-.529 0-.724-.055-1.475.167-2.254.307-.53.11-1.002.306-1.531.417-.306.111-.473.417-.835.362v-.167c.529-.64 1.169-1.252 2.004-1.308.946-.167 1.837 0 2.783.111.696.056 1.308.223 2.004.362.25 0 .306.417.529.473.306.111.64 0 .946.222 0-.11-.056-.222 0-.305.223-.223.473.055.696-.056.417-.25-.362-.724-.585-1.113 0-.056.056-.111.056-.111.417.361.724.779 1.253 1.057.25.111.89.25.779-.056-.25-.584-.78-1.057-1.225-1.586v-.222c-.11 0-.11-.056-.167-.112v-.222c-.223-.112-.167-.306-.25-.473-.167-.25-.056-.64-.167-.946a5 5 0 0 1-.223-.89c-.167-.891-.362-1.67-.473-2.533-.111-1.001.584-1.78 1.057-2.671.362-.64.78-1.252 1.476-1.67.167-.64.584-1.168 1.001-1.67.418-.5 1.114-.834 1.615-1.057a9 9 0 0 1 1.382-.525l.01-.003c.514-.226 7.267-1.643 10.548 0 .07.035.056 0 .278.14.25.139.557.306.752.39M15.677 34.828a.525.525 0 0 1-.412.517c.412.109.823.109 1.235.3-.055.108-.164.054-.22.054.248.163.577.054.825.245-.165.163-.302 0-.467 0 1.62.462 3.321.816 4.667 1.85-1.153.571-2.334.816-3.569 1.088-.165 0-.247 0-.412-.055 0 .055 0 .163-.055.163-.22 0-.357 0-.521.11-.193.163-.494.217-.66.054-.054-.055.166 0 .22-.109h-.411c-.055 0-.055-.055-.055-.109-.248.054-.577.163-.824.218-.357.108-.192-1.66.055-1.769-.055-.054-.165-.054-.165-.163-.22 0-.302-.544-.165-.571.22-.055.467-.055.632-.218-.357-.054-.467-1.333.137-1.66.055 0 .165 0 .165.055m2.391 4.806c-.333.34-.75.186-1.11.34-.11 0-.305.063-.25-.061.036-.175.19-.24.354-.294l.1-.033c.065-.022.13-.045.185-.076.11-.062.25-.186.36-.124.111.186.25.124.361.248m-1.889-7.128c-.055 0-.112 0-.168-.056.056-.056.056-.112.056-.168-.532.588-1.736.392-.616-.14.42-.168.952-.112 1.372.056-.168.224-.42.168-.644.308m25.633-3.497-.146.028c-.255 0-.539.165-.794.22-.369.11-.709.301-1.02.52.368-.164.736-.219 1.162-.301.312-.055.567-.11.907-.055.227.055.54.055.54.165-.114.411-.738.52-1.078.932h-.17c-.17.11-.114.357-.256.357-.17-.055-.312 0-.482.055.227.22.482.356.794.301.057 0 .17.11.17.22 0 0 .057 0 .114-.055.056 0 .113 0 .113.055v.219c-.102.131-.235.145-.373.146h-.094a.8.8 0 0 0-.185.018c.425.11.85.11 1.247 0 .313-.11 0-.63.228-.877-.114 0 0-.165-.114-.165.114-.11.227-.247.312-.301.113 0 .255-.055.312-.165 0-.11-.227-.164-.17-.246.312-.22.596-.521.482-.823-.057-.165-.482-.165-.737-.274-.177-.076-.394-.047-.615-.004z" clip-rule="evenodd"/></svg>