<svg id="Calque_1" data-name="Calque 1" xmlns="http://www.w3.org/2000/svg" viewBox="0 0 344.63 357.78"><defs><style>.cls-1{fill:#fda354;}.cls-2{fill:#433f40;}.cls-3{fill:#fbfcfc;}.cls-4{fill:#a2d2fd;}.cls-5{fill:#fff;}</style></defs><title>Nosgestesclimat-illu x 12 SVG</title><path class="cls-1" d="M173.89,190.67A61.08,61.08,0,0,0,175,202.61c.46,2.89,1,5.77,1.5,8.64a1.44,1.44,0,0,1-.9,1.7,33.4,33.4,0,0,1-3.58,1.46c-5.69,1.86-11.36,3.76-16.86,6.13-3.57,1.54-7.4,2.24-11.16,3.16s-7.57,1.62-11.31,2.59c-3,.76-6,1-9,1.62-2.41.5-3.91-1-4.36-3.05a37.08,37.08,0,0,1-.13-16.74,2.79,2.79,0,0,1,.64-1.23c3.27-3.39,6.67-6.68,11.27-8.13,3.63-1.14,5.91-3.66,8-6.58a5.26,5.26,0,0,0,1.17-3.6,16.2,16.2,0,0,1,.53-4.87,10.48,10.48,0,0,0-.26-6.22c-.46-1.16-.3-2.55-.55-3.8a3.46,3.46,0,0,0-4.68-2.92,14.87,14.87,0,0,0-2.61,1c-1.37.67-2.69,1.44-4.05,2.13a25.38,25.38,0,0,1-11.18,2.67,18.28,18.28,0,0,1-4.18-.55c-1.94-.42-3.89-.81-5.84-1.22a4.11,4.11,0,0,0-3,.57,21.67,21.67,0,0,0-2.33,1.57,3.38,3.38,0,0,1-4.53.16c-1.7-1.41-3.18-1.13-4.79-.07-.59.39-1.24.68-1.79,1.11-1.08.86-2,.28-2.21-1a4.06,4.06,0,0,1,.39-2.39c1.72-3.72,3.2-7.55,5.08-11.21,3.27-6.36,6.67-12.66,9.42-19.28a35.14,35.14,0,0,1,6.26-10.13,6.12,6.12,0,0,0,1.08-1.38c1.72-3.7,5.16-5.36,8.52-6.94a96.35,96.35,0,0,1,9.85-3.77c1.52-.52,3.09-1.13,4.81-.71a3.61,3.61,0,0,0,1.73-.18A102.06,102.06,0,0,1,150,118.27c1.06-.15,1.23-.84,1.42-1.69a.72.72,0,0,1,1.14-.24,2.51,2.51,0,0,1,.43.55c1.93,4.39,5.33,7.68,8.4,11.21.69.8,1.46,1.53,2.15,2.33a31.17,31.17,0,0,0,6.62,5.76c6.77,4.4,14,7.63,22.08,8.65a11.71,11.71,0,0,0,7.15-1c5.9-3,12.31-4.5,18.8-5.66a2.92,2.92,0,0,1,1-.09c3,.6,5.53-.5,8-1.85a3.62,3.62,0,0,1,1.29-.54c2.71-.23,4.46-2,6.09-3.85a59,59,0,0,0,10.62-16.48c.18-.43.37-.86.59-1.28.55-1.06.72-1,2.19-.7q3.25.76,6.54,1.34a5.07,5.07,0,0,0,3.12-.14,5.2,5.2,0,0,1,3.79-.05c3.77,1.15,7.58,2.25,10.8,4.68,1.87,1.41,4,2.47,5.62,4.19a2.12,2.12,0,0,0,1.16.73c1.64.11,2.49,1.27,3.3,2.39,1.79,2.47,3.59,4.94,5.16,7.55,1.81,3,3.39,6.17,5.05,9.27a7.06,7.06,0,0,1,.84,1.93c.65,3.5,2.29,6.64,3.58,9.91a209.45,209.45,0,0,1,7,22.48c2.6,9.62,5,19.28,7.53,28.93.85,3.29,1.6,6.61,2.51,9.89.78,2.82,1.75,5.59,2.56,8.4.43,1.49.25,1.83-1.27,2.32-3.57,1.17-7.15,2.3-10.74,3.37-9.91,3-19.48,6.81-29.05,10.68-2.39,1-4.86,1.72-7.29,2.58a1.52,1.52,0,0,1-1.88-.48c-1.59-2-3.52-3.78-4.68-6.14a4.64,4.64,0,0,0-1.32-1.61c-1.7-1.28-1.17-2.17,0-3.06,4-3.11,6.89-7.35,10.53-10.84a12.19,12.19,0,0,0,2.07-3.25,69.83,69.83,0,0,0,5.93-17.62,36.76,36.76,0,0,0,.8-9.09,20.1,20.1,0,0,1,.45-4.89,10.69,10.69,0,0,0-.27-5.56,115.79,115.79,0,0,0-10.29-23.46,9.39,9.39,0,0,0-2.71-3.18,7.91,7.91,0,0,1-2-2,42.54,42.54,0,0,0-8.13-8.24,20.89,20.89,0,0,0-8.62-4.59c-1.71-.4-3.37-1-5-1.53-3.4-1.1-6.92-1.12-10.44-1.17a2.84,2.84,0,0,0-1.33.38c-2.73,1.49-5.79,1.85-8.72,2.66a5.54,5.54,0,0,1-3.46.16,3.55,3.55,0,0,0-2.07.11c-2.17.51-4.34,1-6.52,1.44a31.31,31.31,0,0,0-7.9,2.91,37.84,37.84,0,0,1-6.36,3,4.31,4.31,0,0,0-1.43,1,57,57,0,0,0-15.61,21,98.79,98.79,0,0,0-5.17,16A24.37,24.37,0,0,0,173.89,190.67Z"/><path class="cls-1" d="M191.1,323.1c-7.16,0-14.32,0-21.48,0s-14.55-.1-21.83-.2c-3.28,0-6.57-.23-9.85-.26-1.87,0-3.74.23-5.62.25s-2.27-.41-2.41-2.24c-.16-2.11-.3-4.22-.34-6.33-.08-5-.19-10.06-.58-15.1-.69-8.88-1.71-17.72-2.73-26.56-.41-3.6-1.16-7.19-.91-10.86,0-.7,0-1.41.12-2.1a1.89,1.89,0,0,1,2.13-1.86c4.77,0,9.24-1.42,13.72-2.82,12.2-3.82,24.43-7.54,36.62-11.38,4.92-1.55,9.82-3.19,14.65-5a5.59,5.59,0,0,1,5.31.53,41.23,41.23,0,0,0,14.8,5.28,80.86,80.86,0,0,0,18.2,1.42,6.88,6.88,0,0,1,1.4,0,2.54,2.54,0,0,1,2.35,1.79c.64,2.11,2.16,3.51,3.77,4.94,4.12,3.66,8.19,7.39,12.1,11.28,2.32,2.3,4.27,5,6.46,7.41,1.46,1.63,2.65,3.61,5,4.23a1.07,1.07,0,0,1,.66,1.14,25.61,25.61,0,0,1-.09,3.16c-.95,8.15-1.48,16.36-4,24.25a5.49,5.49,0,0,0-.4,2.41c.49,3.09-.55,6.06-.6,9.1a3.81,3.81,0,0,1-1.36,3.11c-.61.49-.45,1.17-.18,1.91.44,1.24.09,1.75-1.17,1.82-3.4.19-6.79.39-10.19.43q-13.56.17-27.11.2C208.71,323.12,199.91,323.1,191.1,323.1Z"/><path class="cls-1" d="M86.18,202.94c0,.23-.13,1.27-.28,2.32a10.85,10.85,0,0,0,.11,3.8c.58,2.89.06,5.84-.08,8.76-.06,1.23-.85,1.78-2.14,1.85-.7,0-1.41,0-2.11,0-1.83-.05-2.09-.34-1.65-2.08.8-3.18,1.65-6.35,2.49-9.53a16.87,16.87,0,0,0,.64-4.15,14.62,14.62,0,0,1,.68-3.43,1.22,1.22,0,0,1,1.3-1c.72,0,1,.55,1,1.18C86.22,201.17,86.18,201.65,86.18,202.94Z"/><path class="cls-2" d="M110.61,280.77a8.25,8.25,0,0,0,3.26-3.05,9.87,9.87,0,0,1,4-3.88,5.8,5.8,0,0,0,3.48-4.88c.1-.7.13-1.41,1-1.67,1.62-.5,1.61-2,1.59-3.17a23.63,23.63,0,0,0-.68-4.85c-.6-2.62-1.24-5.24-2.07-7.79a8.48,8.48,0,0,1-.34-4.82c1.09-4.22.49-8.42-.27-12.53-1-5.31-1.12-10.69-1.93-16-.16-1-.21-2.1-.36-3.14-1-7.07,1.72-11.51,7.64-15.2a21,21,0,0,1,6.08-2.66,4.71,4.71,0,0,0,3.33-2.85.77.77,0,0,0-.44-1.13c-.88-.34-1.74-.68-2.57.21a6.65,6.65,0,0,1-1.63,1.28c-2.44,1.34-2.91.89-4.17-.71a3.06,3.06,0,0,0-1.71-1,2.31,2.31,0,0,1-1.71-2.95,1.11,1.11,0,0,1,.67-.71c.24-.07.79.17.82.35.23,1.13.78,1.56,2,1.29.5-.11.61.54.85.93,1.1,1.85,1.88,2,3.58.65.46-.36.88-.77,1.32-1.16s.8-.7,1.24-.51c1.68.7,2.3-.46,3-1.58.4-.68.59-1.55,1.63-1.6.51,0,.77-.42,1-.88a26.25,26.25,0,0,0,1.63-6.8c.13-1-.48-1.61-1.7-1.66a15.06,15.06,0,0,1-3.08-.63c-2-.51-3.39-1.55-3.13-3.92-1.13-.29-1.89.34-2.68.69a34.36,34.36,0,0,1-7.58,2.65,11,11,0,0,1-5.2-.06c-1.46-.42-3-.61-4.44-1-4.15-1.14-7.86-.49-11,2.53a2.06,2.06,0,0,1-1.5.77c-.57,0-.63-.64-1-.88a3.57,3.57,0,0,0-2.3-.66,1.08,1.08,0,0,0-.72.59,1.15,1.15,0,0,0,.08,1,3.8,3.8,0,0,0,1,.9,19.93,19.93,0,0,1,4.66,4.72,10.08,10.08,0,0,1,2,7.61,3.92,3.92,0,0,1-3.46,3.86,18.55,18.55,0,0,1-5.91.45,44.56,44.56,0,0,1-7.93-1.37,4.67,4.67,0,0,0-1.72-.2c-.25,0-.58.39-.69.67a1.12,1.12,0,0,0,.06,1,28.19,28.19,0,0,0,3.07,2.86,1.92,1.92,0,0,1,.91,1.73c0,1.52,0,3-.08,4.56-.33,4.78-.53,9.57-.51,14.36A30.84,30.84,0,0,1,85.75,231a8.31,8.31,0,0,1-1.91,2.9,18.74,18.74,0,0,1-11.13,5.45c-3.81.6-7.65,1-11.49,1.32a3.92,3.92,0,0,0-3,1.43c-1.72,2.07-3.64,4-5.44,6a29.55,29.55,0,0,0-2,2.47,9.1,9.1,0,0,0-1.7,6.29,19.83,19.83,0,0,0,1.1,5.48c.16.44.32.88.48,1.32,1,2.88.77,3.77-1.43,5-2.43,1.31-4.82,1-6.21-1.18-2.3-3.52-3.58-7.36-2.79-11.64.22-1.16.58-2.19-.31-3.3-.33-.41-.1-1.35,0-2a16,16,0,0,1,1.69-4.58c.45-.84.27-1.29-.74-1.38s-1.3-.59-1.71-1.39c-.93-1.8-1.92-2.13-3.71-1.23s-3.44,2-5.16,3c-2.84,1.64-2.84,1.63-1.47,4.67.82.24,1.22-.57,1.87-.76.36-.1.74,0,.87.32a1.28,1.28,0,0,1,0,1,4.76,4.76,0,0,1-1,1,22.57,22.57,0,0,0-5.93,8.16,17.61,17.61,0,0,1-2.84,4.4,14.86,14.86,0,0,0-3.13,12.81c.7,3.67,1.66,7.3,1.8,11.07a33.35,33.35,0,0,1-.83,9.4,14.82,14.82,0,0,1-2.29,5.46,9.87,9.87,0,0,0-1.78,7.63c.3,2.2.46,4.42.61,6.63a29.83,29.83,0,0,1,.08,4.56,36.94,36.94,0,0,0,.16,10.93c-1.76-1.29-2.42-2.27-2.51-4.11a23.35,23.35,0,0,1,.17-4.9,23.36,23.36,0,0,0,.06-6.63c-.33-2.78-.5-5.59-.72-8.38a8.79,8.79,0,0,1,1.66-6c3.86-5.4,4.39-11.44,3.36-17.76-.38-2.31-.92-4.58-1.34-6.88a18.22,18.22,0,0,1,4-15.74A11.3,11.3,0,0,0,23,259.15a32,32,0,0,1,3.92-6.62,1.86,1.86,0,0,0,.25-1.92,73,73,0,0,1-2.81-14.77,33.51,33.51,0,0,1,.18-9.43,24.84,24.84,0,0,1,5.48-12,17.77,17.77,0,0,1,6.12-4.6,5.66,5.66,0,0,1,2.68-.69c1.4.05,2.81,0,4.21-.11,6.21-.27,11.51,5.81,10.51,12.91a4.16,4.16,0,0,1-.45,1.31,1.22,1.22,0,0,1-1.45.73c-2.25-.77-4.83-.48-6.79-2.26s-4.06-.55-5,1.18a9.71,9.71,0,0,0-1.22,3.26c-.54,4.1.71,12.14,2.56,16.2a9.32,9.32,0,0,0,1.65-.28c5.24-1.87,10.72-2.33,16.2-2.7A106.33,106.33,0,0,0,71.9,238c1.71-.33,3.36-.95,5-1.43a2.23,2.23,0,0,0,1.69-2c.14-.92.4-1.83.61-2.74a5,5,0,0,0-.63-4.3c-1.07-1.54-.77-3.36-.39-5.1.94-4.22,1.78-8.46,3-12.62.66-2.24,1.12-4.54,1.67-6.81a2.48,2.48,0,0,1,1.58-2.09c.71-.27.57-1.19-.16-1.62s-1.26-.61-1.85-1A8.58,8.58,0,0,1,80.81,197c-1.73-1.81-1.83-3.26-.44-5.33a1.48,1.48,0,0,1,.2-.29c2.86-2.6,4.4-6,5.63-9.54.15-.44.44-.83.62-1.26a5,5,0,0,1,4.36-3,.87.87,0,0,0,.5-1.08.68.68,0,0,0-.88-.24c-.11,0-.21.12-.32.14-1,.2-1.36,0-1.41-.78a5.88,5.88,0,0,1,.42-2.39,124.15,124.15,0,0,1,5.38-13.32c2.76-5.67,5.4-11.4,8.14-17.07,1.12-2.31,2.32-4.59,3.56-6.83,3.48-6.33,8.83-10.48,15.49-13.05,2.18-.84,4.41-1.52,6.61-2.32a11.91,11.91,0,0,1,4.1-.8,9.62,9.62,0,0,0,2.73-.53,44.51,44.51,0,0,1,8.61-1.53c1.39-.14,2.77-.42,4.17-.55a2.62,2.62,0,0,0,2.52-1.52,2.88,2.88,0,0,1,2.2-1.53,27,27,0,0,1,8.64-.85,4.06,4.06,0,0,0,1.71-.07,41.69,41.69,0,0,0,13.39-8.11c.07-.06.06-.22.09-.35-.6-.69-1.29-.21-1.88-.06a25.46,25.46,0,0,1-12.82.07,14.65,14.65,0,0,0-6.59-.54,5.92,5.92,0,0,1-2.09-.1,2.41,2.41,0,0,1-2.21-3c.16-1.39.39-2.77.64-4.15a38.73,38.73,0,0,0,.38-7.35c0-2.92-.17-5.85-.13-8.77a26.91,26.91,0,0,1,5.08-16.14c4-5.28,5.59-11.21,6.37-17.56.31-2.55.8-5.08,1.22-7.61,1-6.15,3.87-11.49,7.46-16.46a25.07,25.07,0,0,1,7.23-6.57q4.61-2.87,9.17-5.82c4.43-2.89,9.28-3.57,14.42-2.89.92.12,1.87.06,2.8.18a14.24,14.24,0,0,1,3.09.59c6.5,2.39,12.73,5.29,17.81,10.19a28.3,28.3,0,0,1,5.21,7A61.49,61.49,0,0,1,238.84,47a38.19,38.19,0,0,0,5.82,16c4.85,7.38,6.74,15.57,7.58,24.16.26,2.67.71,5.32,1.06,8,.19,1.45,0,1.8-1.39,2.4a20.75,20.75,0,0,1-4.62,1.54c-2.41.43-4.77,1.12-7.16,1.68a1,1,0,0,1-1.43-1.05c-.11-1.87-.13-3.74-.26-5.61a6.64,6.64,0,0,0-.52-1.65c0-.07-.18-.16-.23-.14s-.52.14-.57.29a10.12,10.12,0,0,0-.39,1.69c-.31,2.08-.6,4.17-.89,6.25a2,2,0,0,1-1.77,1.86,33.2,33.2,0,0,1-7.59,1.27,10.94,10.94,0,0,0-1.74.14,1.13,1.13,0,0,0-.59,1.66,2.35,2.35,0,0,0,.46.52,28.37,28.37,0,0,0,7.06,3.83,2.27,2.27,0,0,0,2.55-.42c1.17-1.08,2.76-1.13,4.31-1a28.44,28.44,0,0,1,7.5,1.65c1,.36,1.94.78,2.24,2a1.08,1.08,0,0,0,1.07.74c.93.09,1.86.18,2.79.25a77,77,0,0,1,15.5,2.37,22.3,22.3,0,0,1,5.46,2.32,43.9,43.9,0,0,1,14.59,13.94,55.17,55.17,0,0,1,4.3,7.62c3.71,8.32,7.72,16.53,10.39,25.27,2.35,7.71,4.59,15.46,6.57,23.27,3,11.67,5.66,23.4,8.41,35.12a7.09,7.09,0,0,0,1.62,3.38,7.76,7.76,0,0,1,1.38,9.06,3.74,3.74,0,0,0-.15,2.38c.53,3.11,1,6.24,1.64,9.32,1.9,8.69,3.14,17.49,4.63,26.24.79,4.6,1.77,9.18,2.51,13.79a60.24,60.24,0,0,1,1,9.05,16.26,16.26,0,0,1-5.87,13,7.62,7.62,0,0,1-4.78,1.89,32.26,32.26,0,0,1-14.69-2.58c-7.48-3.25-14.08-7.82-20.46-12.79q-8.59-6.7-16.62-14-.65-.59-1.32-1.15c-1.26-1.07-1.82-.92-2,.61-.51,3.47-1,6.95-1.47,10.42q-1.61,11.28-3.25,22.56c-.29,2-.63,3.92-.93,5.89-.13.85.22,1.25,1.18,1.26,2.81,0,5.62,0,8.43,0,.59,0,1.17,0,1.76,0,1.08,0,1.8.52,1.74,1.23s-.69,1.16-1.45,1.21c-.93.07-1.87.14-2.8.14-12.63,0-25.25-.11-37.88-.13-13.1,0-26.2,0-39.3,0-14.86,0-29.72-.07-44.57-.06-3,0-6.08.15-9.12.33a27.65,27.65,0,0,1-8-.27,19.59,19.59,0,0,0-4.55-.1c-2.34,0-4.67.08-7,.15-.18,0-.39.21-.53.36-.34.36,0,.69.18.9.51.48,1.1.87,1.62,1.34,1.94,1.77,2,3.07.17,5.07-.59.65-1.24,1.12-2,.2-.22-.25-.59-.53-.92-.29-2.27,1.69-4.7.76-7.1.49a10.48,10.48,0,0,0-1.05,0c-.59-.71-.83-.7-1.74.11-.76-1.38-.81-1.43-1.62-.78a6.27,6.27,0,0,1-3.72,1.71,11,11,0,0,1-5.5-1c.4-1.16,2.05-1,2.42-2.18.12-.39.7,0,.77.24.55,1.59,1.79,1.55,3.09,1.37a1.5,1.5,0,0,0,1.46-1.62c0-.44,0-1,.53-1.1.72-.09.94.51,1.1,1.1a6.41,6.41,0,0,0,.37,1c0,.08.19.17.26.14s.46-.15.52-.3a3,3,0,0,0-.26-3,20.25,20.25,0,0,0-2-2.39,11.66,11.66,0,0,1-3.66-7.72c0-.7-.18-1.39-.18-2.09a172.53,172.53,0,0,1,.71-19.91,33.08,33.08,0,0,1,3.37-10.26,5.13,5.13,0,0,1,1-1.39,14.14,14.14,0,0,0,2.54-3.74l1.07-.49.85,1.29a3.55,3.55,0,0,0-1.09,2.31A9.58,9.58,0,0,0,110.61,280.77Zm2.23,1.33c-2.39,1.63-4.7,3.41-7.21,4.81a4.24,4.24,0,0,0-2.38,2.72c-.34,1.34-1,2.6-.85,4.05a3.08,3.08,0,0,0-.5,2.51,38.17,38.17,0,0,0-1,10.05,1,1,0,0,0-.27,1.17,53.36,53.36,0,0,0-.32,8,12.66,12.66,0,0,0,3.9,9,10.74,10.74,0,0,1,2.61,4.07l.14.65c0,2.43,0,2.45,2.23,2.15.92-.13,1.81-.44,2.72-.59s1.74-.53,1.9-1.66c.08-.58.57-.3.79-.17a3.28,3.28,0,0,1,1.11,1.72.49.49,0,0,0,.83.09c1.21-1.13,1.33-1.82.28-2.92a8.47,8.47,0,0,0-2.1-1.82c-3-1.56-4.63-4.14-5.47-7.31a.47.47,0,0,0-.11-.62,9.94,9.94,0,0,0-.1-3.65.4.4,0,0,0,.12-.57,1.86,1.86,0,0,0,.11-1.47l.06-.67c.17-1.24.75-2.45.3-3.73a3.18,3.18,0,0,0,.4-2.58l.49-4.38a1.32,1.32,0,0,0,.21-1.25,20.86,20.86,0,0,0,.95-5.38.76.76,0,0,0,.33-.92,25.06,25.06,0,0,0,1.06-7.45c.82-1.3.62-2.76.62-4.18,0-.28-.27-.37-.49-.2A3,3,0,0,0,112.84,282.1Zm97.56-144.48c-2.32.21-4.64.47-7,.62a48.4,48.4,0,0,1-18.92-3c-9.06-3.13-16.64-8.38-22-16.5-1.22-3.5-3.78-3.9-7-3.16-1.17.27-2,.49-1.93,1.89,0,.7-.52,1-1.15,1.06l-9,1.41a81.75,81.75,0,0,0-17.65,4.33c-.65.26-1.34.41-2,.65-5.73,2.1-10.66,5.27-14,10.55-1,1.58-2.09,3.11-3.11,4.67a40,40,0,0,0-4.9,10,58.69,58.69,0,0,1-4.39,10.3,89.64,89.64,0,0,0-5.5,13.25c-.8,2.31-.61,2.53,2,2a8.19,8.19,0,0,1,4.12.47,5.1,5.1,0,0,0,4.94-.67,10.64,10.64,0,0,1,3.86-1.6,13.42,13.42,0,0,1,7.26.26,31.36,31.36,0,0,0,4.74,1.19,15.07,15.07,0,0,0,8.12-1.66c2.23-1,4.47-2,6.73-2.92a6.7,6.7,0,0,1,4.46-.37c1.18.34,2.26,1,2.31,2.32a15,15,0,0,0,1.25,5.06,5.37,5.37,0,0,1,.35,2.06c0,2.45-.06,4.91-.3,7.35a12,12,0,0,1-3.57,7.8,45.75,45.75,0,0,1-5.22,4.11,2.46,2.46,0,0,0-1.1,1.63q-.81,3.59-1.7,7.16c-.87,3.51-1.79,7-2.65,10.53a12.51,12.51,0,0,0-.13,5.55,1.53,1.53,0,0,0,2.06,1.27q2.4-.52,4.78-1.12,9.33-2.37,18.66-4.76a181.78,181.78,0,0,0,20.33-6.51,6.84,6.84,0,0,0,3-1.65c-.2-.56-.36-1-.49-1.42a58.42,58.42,0,0,1-1.65-28.75c3-14.76,10.79-26.46,23.09-35.14a66.32,66.32,0,0,1,13.91-7.33,16.94,16.94,0,0,0,1.64-.55c.12-.05.19-.43.13-.6s-.33-.4-.46-.37C211.73,137.22,211.07,137.43,210.41,137.63Zm-17,183.78h11.58q20.19,0,40.37,0c2.81,0,5.62-.1,8.42-.12.78,0,1.42-.22,1.57-1.06.6-3.33,1.14-6.68,1.75-10,.8-4.36,1-8.82,2.16-13.13a22,22,0,0,0,1.06-5.85,38.18,38.18,0,0,1,.79-7.61c.32-1.72.59-3.46.92-5.18a2.47,2.47,0,0,0-.86-2.49c-1.29-1.18-2.53-2.43-3.71-3.72-2.85-3.1-5.48-6.42-8.51-9.33-5.23-5-10.48-10-15.42-15.35a2.89,2.89,0,0,0-2.79-.95,50,50,0,0,1-31.64-6.71,5.85,5.85,0,0,0-5.22-.74c-8.44,2.7-17,5.2-25.42,7.82-4.12,1.27-8.2,2.67-12.3,4-1.89.61-3.8,1.15-5.68,1.77a109.3,109.3,0,0,1-20.39,5c-.69.09-1.36.35-2,.46-.89.14-1.11.72-1.1,1.49,0,.59,0,1.17,0,1.75.4,5.25.82,10.49,1.2,15.73.24,3.26.37,6.53.62,9.8q.88,11.36,1.84,22.71c.27,3.26.56,6.52.93,9.77.19,1.65.56,1.93,2.25,1.94q7.36,0,14.72,0c6.08,0,12.16-.06,18.23-.06s12.39.05,18.58.08Zm46.35-210.54a3.82,3.82,0,0,0-.35.8c-1,8.06-5.3,14.08-11.84,18.61A53.68,53.68,0,0,1,217,135.76a9.36,9.36,0,0,0-1.26.55c-.11.07-.1.38-.09.58a.34.34,0,0,0,.25.21c.8-.11,1.6-.19,2.38-.38A53,53,0,0,1,261,146.51a15.32,15.32,0,0,1,4.2,4.17,3.5,3.5,0,0,0,1.5,1.42,6.34,6.34,0,0,1,2.3,2.1,52.18,52.18,0,0,1,11.82,28,59.52,59.52,0,0,1-10,40.32c-.26.39-.52.78-.81,1.15a4.07,4.07,0,0,0-.86,2.56c-.07,2.21-.38,4.42-.62,6.63-.29,2.67-.6,5.34-.91,8a3.35,3.35,0,0,0,1.11,3.14c2.18,1.95,4.29,4,6.4,6a1.73,1.73,0,0,0,1.92.4c4.11-1.33,8.24-2.57,12.32-4,3.63-1.26,7.2-2.72,10.8-4.07,2.84-1.06,5.72-2,8.55-3.13a58.19,58.19,0,0,0,8.28-3.78c2.3-1.33,2.87-3.34,1.56-5.59a8.63,8.63,0,0,0-1.89-2.45,3.46,3.46,0,0,1-1.37-2.69,10.36,10.36,0,0,0-.38-1.71c-3.06-12.36-6.07-24.74-9.19-37.09a223.52,223.52,0,0,0-7.65-25.5c-2.22-5.79-4.81-11.41-7.16-17.14a61.76,61.76,0,0,0-8.82-15.07,38.48,38.48,0,0,0-12.17-9.87,16.22,16.22,0,0,0-3.25-1.27,47.35,47.35,0,0,0-14.07-2.05c-2,0-3.89-.86-5.91-.29-.42.12-.77-.52-.73-1,.1-1.2-.64-1.72-1.61-1.95C242.85,111.5,241.47,110.75,239.71,110.86ZM121.13,229c.27,1.63.52,3,.72,4.4.69,4.74,1.52,9.49,0,14.23a2.25,2.25,0,0,0,.06,1.69,40.08,40.08,0,0,1,2.2,6.65,1,1,0,0,0,1.28.83q1-.15,2.07-.34a181.56,181.56,0,0,0,23.33-6.17c5-1.64,10.07-2.9,15-4.6,5.18-1.77,10.48-3.21,15.73-4.79a55.88,55.88,0,0,0,6.69-2,42.12,42.12,0,0,1,9.38-2.73c2.29-.44,4.57-1,6.84-1.54a10.79,10.79,0,0,1,3.81-.29,21.54,21.54,0,0,0,7.33-.34,81.58,81.58,0,0,0,25.55-10.29,68,68,0,0,0,17.76-16.76,22.64,22.64,0,0,0,2.21-3.57,16.89,16.89,0,0,0,1.86-5.63,1.24,1.24,0,0,0-.43-.92.7.7,0,0,0-.93.15c-.24.25-.46.53-.69.79-2.51,2.93-5,5.92-7.56,8.77a48.31,48.31,0,0,1-4.45,3.95,2.65,2.65,0,0,1-1,.39.84.84,0,0,1-.93-.31.67.67,0,0,1,0-.93,7.4,7.4,0,0,1,1.49-1.46c2.43-1.48,4.24-3.63,6.2-5.62a60.54,60.54,0,0,0,8.77-11.36,7.86,7.86,0,0,0,1.37-5,2.64,2.64,0,0,0-1.93-2.25c-1-.18-1.46.53-1.92,1.23a5.85,5.85,0,0,0-.39.59,43,43,0,0,1-5.9,8.25c-3,3.59-6.06,7.14-9.4,10.42A4.45,4.45,0,0,1,243,206a.74.74,0,0,1-.58-.18c-.23-.26-.44-.66-.15-.94.83-.8,1.81-1.46,2.58-2.3,2.68-2.94,5.38-5.87,7.9-8.93a48.89,48.89,0,0,0,6.33-9.24,16,16,0,0,0,.93-2.25,1.9,1.9,0,0,0-1-2.31,1.69,1.69,0,0,0-2.2.34,8.73,8.73,0,0,0-2.12,3.19,24,24,0,0,1-3.73,5.91,60.79,60.79,0,0,1-8.63,8.72c-.58.49-1,1.33-2,1.07-.53-.14-.18-1.27.74-2.37.37-.45.75-.9,1.15-1.33,2.47-2.65,4.94-5.31,7.44-7.93a18.57,18.57,0,0,0,2.89-4,12.68,12.68,0,0,0,1.11-2.93,2.15,2.15,0,0,0-1-2.41,1.74,1.74,0,0,0-2.25.15,32.4,32.4,0,0,0-5.7,4.62,30.76,30.76,0,0,1-2.4,2.55c-3.44,3.17-6.92,6.29-10.39,9.44a47.58,47.58,0,0,1-7.72,5.47,8.85,8.85,0,0,1-6.07,1.15c-2-.31-3-1.74-3.65-3.41a3.66,3.66,0,0,1,.94-4.17,9.55,9.55,0,0,1,3.1-2.25c1.07-.48,2.14-.94,3.21-1.4a4.05,4.05,0,0,0,2.26-2.06.93.93,0,0,0-.05-.65c-.13-.31-.34-.3-.56,0-.07.09-.19.14-.26.23a4.56,4.56,0,0,1-4.75,1.57,5.31,5.31,0,0,1-3.86-3.74c-.16-.49,0-1.2-.75-1.37-3.43,1.12-5.62,3.66-7.45,6.59-1.43,2.28-2.68,4.67-4.16,6.91a29.28,29.28,0,0,1-10.83,10.25,95,95,0,0,1-16.4,7c-5.81,1.76-11.61,3.52-17.4,5.35A282.8,282.8,0,0,1,121.13,229ZM278.34,253c.7.64,1,1,1.37,1.25l13.4,10.19c.74.57,1.51,1.1,2.25,1.68a.84.84,0,0,1,.24,1.22,1.05,1.05,0,0,1-1.3.17,30.89,30.89,0,0,1-2.91-1.93c-3.09-2.31-6.16-4.65-9.24-7a129.15,129.15,0,0,1-19.26-17.86c-1.92-2.18-3.63-4.56-5.56-6.73a55,55,0,0,1-4-5.33,4.87,4.87,0,0,1-.73-4.93,13.92,13.92,0,0,0,.77-5.87c0-.31,0-.79-.44-.79a1.52,1.52,0,0,0-.9.35c-1.51,1.29-3,2.66-4.5,3.91-7.09,5.74-15.17,9.58-23.76,12.46-1.07.36-2.31.4-3.18,1.29.2,1.57,1.65,2.11,2.59,3a8.11,8.11,0,0,0,2.1,1.24,29,29,0,0,1,8.43,6.19,36.82,36.82,0,0,0,4.26,4.16,76.91,76.91,0,0,1,6.43,5.93c8,7.86,15.33,16.35,24,23.56,7.19,6,14.42,11.92,21.81,17.66a71.22,71.22,0,0,0,21.26,11.29,19.79,19.79,0,0,0,6.91.82,4.29,4.29,0,0,0,2.61-.89c4-3.11,6.64-6.94,6.27-12.24a124.48,124.48,0,0,0-1.7-15c-.57-3-1.19-6-1.55-9-.58-4.88-1.51-9.7-2.45-14.52q-1.79-9.11-3.56-18.23c-.27-1.39-.59-1.54-1.92-1-3.76,1.58-7.54,3.13-11.3,4.74-3.33,1.43-6.75,2.57-10.16,3.78-4.39,1.55-8.69,3.36-13.13,4.81A29.67,29.67,0,0,0,278.34,253ZM201.74,22.37c-.39.49-.92,1.25-1.55,1.92a25.62,25.62,0,0,1-9.43,6.53c-2.83,1.09-5.64,2.25-8.39,3.52-4.79,2.22-7.79,6.21-10.14,10.75a6.08,6.08,0,0,0-.46,3.4,75.11,75.11,0,0,0,2.75,14.08,36.36,36.36,0,0,0,4.09,9.65c5,7.85,11.21,14.3,19.55,18.61,3.07,1.59,5.91,1.72,8.83-.33A56,56,0,0,0,213.82,85c3.65-3.52,6.42-7.71,9.39-11.77a55.18,55.18,0,0,0,7.72-16.4,4.62,4.62,0,0,0-.37-4,23.39,23.39,0,0,1-2.7-7.19c-.23-1-.62-2-.92-3A17.27,17.27,0,0,0,220,33.23a36,36,0,0,0-8.33-4.43,19.73,19.73,0,0,1-7.86-5.11A3.06,3.06,0,0,0,201.74,22.37Zm-34.37,99a25.45,25.45,0,0,0,5.28,5.56c5.49,4.46,12,6.71,18.67,8.51a36.92,36.92,0,0,0,7.95,1.28c9.55.43,18.23-2.36,26.3-7.24a23.83,23.83,0,0,0,8.74-8.93c.26-.47.62-1-.05-1.66l-12.36,1.79c-3.35.49-6.77.79-9.42,3.31-.14.13-.44.1-.66.14s-1-.69-.82-1a4.48,4.48,0,0,1,.94-1.44,9.9,9.9,0,0,1,3.71-1.9,77.51,77.51,0,0,1,11-2c2.56-.29,5.11-.59,7.67-.84a2.36,2.36,0,0,0,2.41-2.1c.1-.55.54-1,.2-1.79-.57-.14-1.24-.35-1.92-.48a26.58,26.58,0,0,1-10.23-4.4,19,19,0,0,1-7.26-9.19c-1.2-3.22-1.49-6.6-1.93-10a19.66,19.66,0,0,1-.13-2.1c0-.29-.06-.49-.32-.51a1,1,0,0,0-.63.08,5.87,5.87,0,0,0-1,1c-2.11,2.9-5,4.86-7.94,6.81a6.9,6.9,0,0,1-5.71,1,14,14,0,0,1-3.27-1.19,23.5,23.5,0,0,1-5.71-4c-1.54-1.57-3-3.19-4.56-4.8a3.9,3.9,0,0,0-.74,2.33,43.47,43.47,0,0,1-2.39,9.83,22.9,22.9,0,0,1-6.81,10A46.3,46.3,0,0,1,165,114.87c-.63.28-1.38.38-1.6,1.27a11.34,11.34,0,0,1,1.27,2c.61,1.65,1.83,1.83,3.36,1.81a118.58,118.58,0,0,1,16.8.63,27.18,27.18,0,0,1,3.77.76,3.45,3.45,0,0,1,2.35,2,1.11,1.11,0,0,1-.11,1.3,1,1,0,0,1-1.28.16,1.67,1.67,0,0,1-.54-.44c-1-1.15-2.38-1.36-3.78-1.63C179.53,121.62,173.78,121.94,167.36,121.37ZM257,167.31a33.79,33.79,0,0,1-3.18-1.52,27.17,27.17,0,0,1-2.49-1.93,7,7,0,0,0-1.09-.86,1.47,1.47,0,0,0-1,0c-.12,0-.24.42-.21.61a9,9,0,0,1-.41,4.84c-.43,1.14-1,2.31-2.31,2.34s-1.73-1.11-2-2.12c-.56-1.83-1.79-3.26-2.75-4.85a2,2,0,0,0-2.35-1.1,4,4,0,0,1-3.08-.29,4.75,4.75,0,0,0-5.27-.37,1.56,1.56,0,0,1-1,.2,3.65,3.65,0,0,0-4.24,1.57c-.19.26-.58.37-.89.54a1.52,1.52,0,0,1-1.65,0,1.82,1.82,0,0,1-.88-1.79,7.83,7.83,0,0,1,1.68-3.79c.75-.93,1.83-.81,2.89-.9,2.59-.22,4.38-1.5,4.92-4.19.09-.46.16-.92.26-1.38a2.79,2.79,0,0,1,1.81-2,3.93,3.93,0,0,1,4.28.48,18.18,18.18,0,0,1,3.64,3.78,3.12,3.12,0,0,0,3.64,1.32c1.36-.3,2.75-.51,4.14-.69a29.1,29.1,0,0,1,6,.07c1.74.13,3.25-.34,3.91-2.21a6.85,6.85,0,0,1,2.83-3.31c-1.49-1.17-2.89-2.21-4.22-3.32a4.31,4.31,0,0,0-3.89-.86,17.5,17.5,0,0,1-10.93-1.5,31,31,0,0,0-2.93-1.15,16.18,16.18,0,0,0-12,.2,11.45,11.45,0,0,1-4.44.89c-1.75,0-3.51-.11-5.26-.2a12.57,12.57,0,0,0-5.54.47,4.64,4.64,0,0,1-4.95-.74,1.85,1.85,0,0,0-2.27-.15,53.07,53.07,0,0,0-9.37,6.14,2.37,2.37,0,0,0-.44.53c-.06.09-.11.28-.06.33s.34.34.49.31c.68-.12,1.36-.29,2-.46,2-.52,3.94-.69,5.49,1.1.53.62,1.2.47,1.92.44a4.33,4.33,0,0,1,4.71,3.37,24.79,24.79,0,0,1,.83,3.39,3.67,3.67,0,0,1-.23,2.05c-1,2.05-2.68,2.75-4.42.93a8.37,8.37,0,0,1-1.42-2,7.16,7.16,0,0,0-2.61-2.77c-1.78-1.17-2.56-1.32-4,.14a7,7,0,0,1-4.35,2c-.92.12-1.84.25-2.77.35a2,2,0,0,0-1.55.69,7,7,0,0,0-1.61,5.06c1.45-1.16,2.66-2.06,3.81-3,1-.82,1.9-1.35,3.14-.56a3.45,3.45,0,0,0,2.7.31,8,8,0,0,1,2.44-.12,5.52,5.52,0,0,1,4.67,3.75c.89,2.19-.67,4-3,3.64-.55-.09-1.05-.54-1.65-.15,0,2.18,0,2.82-.92,3.53-1.92,1.53-3.87,3.1-6.64,1.92-.75-.32-1.31.09-1.54.89a6.26,6.26,0,0,0-.22,1c-.3,2.79-.6,5.58-.86,8.37-.16,1.74-.79,2.55-2.44,2.89a1.46,1.46,0,0,1-1.78-.74c-.37-.73-.67-1.49-1.08-2.2a1.61,1.61,0,0,0-2.44-.26,3.05,3.05,0,0,0-.85,1.49c-.61,2-.07,3.95.38,5.88.26,1.11.53,1.24,2,1.31,1.63.09,2.19.45,2.55,1.84.57,2.15.64,4.18-1.69,5.46.62,1.26,1.22,2.4,1.76,3.56a12.9,12.9,0,0,0,1.89,3.3c2.9-.95,5.47-2.25,7.3-4.86-.41-.77-.89-1.57-1.29-2.41a21.93,21.93,0,0,1-2-5.61c-.46-2.65.44-5.33,2.59-5.94s2.39-1.75,2.19-3.51a4.4,4.4,0,0,1,.06-1.4,4.69,4.69,0,0,1,3.23-3.8c1.76-.57,3,.45,3.95,1.62s1.76,2.47,2.65,3.7c.29.4.74.67,1.18.27.85-.78,2-1.2,2.64-2.3-2.06-3.38-2.67-7.15-3-11a7.25,7.25,0,0,1,.75-3.74,4.58,4.58,0,0,1,7.56-1.34,14.79,14.79,0,0,1,2.28,3.1,17.89,17.89,0,0,0,2.63,4c.74-.18.59-.74.73-1.12a9.55,9.55,0,0,1,4.22-5c3.11-1.92,6.45-1.93,9.84-1.39,3.84.62,4.82,1.71,5.6,5.61,0,.23.06.46.12.69.64,2.8,1,3.09,3.84,2.06a10.63,10.63,0,0,1,8.82.26,7.83,7.83,0,0,0,3.4.72,1.2,1.2,0,0,0,1.27-1,1.22,1.22,0,0,0-.47-1.24c-.86-.61-1.79-1.11-2.63-1.74-1.82-1.35-1.81-2.39,0-3.78C256.22,167.8,256.53,167.62,257,167.31Zm-127.66,154c0-2.24.1-4.22,0-6.18s-.54-4.17-.71-6.26c-.79-9.78-2-19.52-2.36-29.34-.13-3.38-.44-6.76-.66-10.14,0-.44.08-1.06-.53-1.07a2.09,2.09,0,0,0-1.17.62,6.88,6.88,0,0,0-1.42,2.77c-.67,1.55-1.46,2.86-3.22,3.45a4.3,4.3,0,0,0-2.81,3.29A61.43,61.43,0,0,0,115,285.3c-.54,3.7-1,7.4-1.71,11.07-1.22,5.95-1.82,12-2.47,18a11.37,11.37,0,0,0,.2,4.18c.7,2.64,1.1,2.91,3.86,2.77.93,0,1.87-.06,2.8-.06ZM278.67,181.37a41.75,41.75,0,0,0-2.51,6.45c-.75,2-1.47,3.93-2.25,5.88a5,5,0,0,1-1.6,2.26.8.8,0,0,1-1,.13.85.85,0,0,1-.38-.52,17.64,17.64,0,0,1,.05-2.44c.09-.81.42-1.66,0-2.42-.72-1.38-.26-2.74-.1-4.12.08-.7.21-1.39.23-2.09,0-.43,0-1-.56-1.14a1.12,1.12,0,0,0-1.4.73,27.09,27.09,0,0,0-1.09,2.58c-.62,1.64-1.16,3.31-1.83,4.93-.92,2.24-2.2,4.33-1.87,7,.12,1-.5,2-.85,3a21.92,21.92,0,0,1-3.22,5.81c-1.48,2-3,3.88-4.63,5.73A2.66,2.66,0,0,0,255,216a13.48,13.48,0,0,1-.15,8.62,4.51,4.51,0,0,0,.86,4.56c.73.91,1.43,1.85,2.18,2.75a.93.93,0,0,0,1.5.07c.43-.4.89-.76,1.31-1.16a58.74,58.74,0,0,0,14.47-20.89A54.21,54.21,0,0,0,278.67,181.37Zm-227,40.2c.36-6.8-3.87-10.42-8.69-10.72-4.08-.26-7.89.54-10.81,3.73a26,26,0,0,0-2.47,3,22.38,22.38,0,0,0-3.83,10.76,19.85,19.85,0,0,0,.31,7.06c3.1-2.67,6.14-4.77,10.44-3.51,0-1.16-.06-2.09,0-3a37.09,37.09,0,0,1,.5-4.16,8,8,0,0,1,2-4,4.32,4.32,0,0,1,5.69-1c.93.48,1.84,1,2.78,1.46.39.19.92.45,1.26,0C50,219.52,50.6,221.24,51.7,221.57Zm43.82-26.45a14.2,14.2,0,0,0,5.17-.6,2.71,2.71,0,0,0,1.93-2.62,8.15,8.15,0,0,0-1.22-5,19.43,19.43,0,0,0-4.7-5.11,13.86,13.86,0,0,0-4.74-2.11c-1.89-.48-2.86-.1-3.78,1.58a19.56,19.56,0,0,0-1.64,3.83,12.49,12.49,0,0,1-3.73,6.18,8.59,8.59,0,0,0-1.37,1.57,1.6,1.6,0,0,0,.18,2.21,5.14,5.14,0,0,0,1.07.88c.26.16.54.39.94.16a.92.92,0,0,0,.42-.88c.06-1.36.27-1.73,1.18-1.69a13.52,13.52,0,0,1,3.42.6A24,24,0,0,0,95.52,195.12Zm34.07,4.94c-3.3,1.33-5.72,3.78-8.11,6.26a3.52,3.52,0,0,0-.51.91,12,12,0,0,0-1.36,6.42c.35,4.06.79,8.11,1.2,12.17a1,1,0,0,0,1.21,1,14.8,14.8,0,0,0,2.76-.37.83.83,0,0,0,.59-1.31,7.23,7.23,0,0,1-.3-3.79,42.56,42.56,0,0,1,1.56-8.93q1.46-5.21,3-10.42A2.32,2.32,0,0,0,129.58,200.06Zm94.94-16.76c-1.6-2.6-3.15-5-4.58-7.46a60.46,60.46,0,0,0-4.3-6.36,11.19,11.19,0,0,0-.89-1.07,1.83,1.83,0,0,0-3,.13,5.74,5.74,0,0,0-1.33,2.81,15,15,0,0,0,2,10.38,1.23,1.23,0,0,0,1.48.56C219.56,181.24,220,181.29,224.52,183.3Zm1.19,1.67c.18,4.1-.6,5.49-3.86,7.15-.62.32-1.28.57-1.92.86a17.22,17.22,0,0,0-2.21,1c-2.36,1.51-2.07,2.74-.68,4.6a2.78,2.78,0,0,0,2.11,1.1,6.94,6.94,0,0,0,4-1,39.93,39.93,0,0,0,7-4.7c.57-.5,1.41-.87,1.42-2C229.38,190.08,227.74,187.55,225.71,185ZM85.37,227.35c.28-1.45.57-2.68.73-3.93a27.62,27.62,0,0,0,.15-3.13c.07-5.58-.71-11.14-.41-16.73,0-.27,0-.76-.47-.66-.27.06-.52.39-.69.66a3.15,3.15,0,0,0-.35,1q-2.05,9.54-4.08,19.09A10.3,10.3,0,0,0,80,225.7a1.59,1.59,0,0,0,1.5,1.63C82.79,227.4,84,227.35,85.37,227.35Zm150.28-38.6c2.38-1.3,3.75-3.25,5.54-4.72a1,1,0,0,0,.28-1.25,24.94,24.94,0,0,0-3.67-5.51,2.61,2.61,0,0,0-1.49-.81,3.09,3.09,0,0,0-3.33,3.76,30.11,30.11,0,0,0,1,4.05C234.46,185.71,235,187.11,235.66,188.75Zm-12.71,51.89a26.28,26.28,0,0,1-4.2-4,2,2,0,0,0-2.17-.74,36.27,36.27,0,0,1-9.75.67,21.47,21.47,0,0,0-6.67,1,13.23,13.23,0,0,0,5.54,1.23c1.16,0,2.32.2,3.48.29a28.43,28.43,0,0,1,7.83,1.76A7.16,7.16,0,0,0,222.94,240.64ZM202,194.12l4.36-6.71a1.07,1.07,0,0,0,.07-1.29,23.2,23.2,0,0,0-3.43-4.38,1.74,1.74,0,0,0-2.51,0,3.74,3.74,0,0,0-1.21,1.66,6.52,6.52,0,0,0-.32,4.11A16.22,16.22,0,0,0,202,194.12Zm-5.17,7.19a27.93,27.93,0,0,0,3.75-4.73,1.66,1.66,0,0,0,.07-1.95c-1-1.45-1.89-2.94-2.89-4.37-.66-.93-1.52-.93-2.31,0a5.5,5.5,0,0,0-1.25,5.21A22.75,22.75,0,0,0,196.87,201.32Zm-19.16,9.76c.68-.2,1-.31,1.34-.4.78-.21,1.74-.21,2.21-.89s-.34-1.45-.53-2.18a11,11,0,0,1-.18-3.45,2.44,2.44,0,0,0-.5-2c-1.55-1.56-3.26-2.93-5.21-4.68A61,61,0,0,0,177.71,211.07ZM232.46,74.44c-.24-2.17-.55-4.93-.87-7.69a1.34,1.34,0,0,0-.26-.62c-.13-.18-.34-.39-.53-.4s-.4.19-.55.35a1.83,1.83,0,0,0-.35.6c-1.29,3.43-1.07,7.06-1.32,10.62-.06.88.63,1.3,1.69,1.38,1.62.12,2.12-.3,2.19-1.88C232.48,76.2,232.46,75.62,232.46,74.44Zm-59-3.9h0c0-1.85,0-3.71,0-5.56a.63.63,0,0,0-.61-.69.77.77,0,0,0-.78.53,66.42,66.42,0,0,0-2.59,10.07,1.72,1.72,0,0,0,0,.35,2.51,2.51,0,0,0,2.25,2.26c1,.1,1.71-.67,1.77-2.08C173.49,73.78,173.44,72.16,173.44,70.53ZM260,234.45c1.42,1.58,2.64,3,3.89,4.3a1.31,1.31,0,0,0,.85.42c.4,0,.48-.42.52-.77.27-2.18.56-4.36.76-6.55.08-.87.47-1.77-.17-2.88ZM170.13,52.71a30.55,30.55,0,0,1-1.07,7.24,3.72,3.72,0,0,0,1.12,3.91c.62-.59,1.1-1.09,1.63-1.53s.68-.68.54-1.17C171.59,58.65,171.46,56,170.13,52.71Zm48.73,130.4a3,3,0,0,0-2.64.83,1.26,1.26,0,0,0-.4,1.25,3.81,3.81,0,0,0,5.95,1.83c1.35-1.14,1.2-2.42-.31-3.29A5.08,5.08,0,0,0,218.86,183.12Zm14-118c2.4-2.28,2.36-4.61-.55-7.36l-2,5.6ZM80.88,234a8.32,8.32,0,0,0,2.76-2,5.56,5.56,0,0,0,1-1.39c.35-.59,0-1.08-.72-1.1-1.42,0-1.77.1-2.12,1.21S80.75,232.79,80.88,234Zm58.31-43.74c-.12-.2-.19-.48-.36-.57a.69.69,0,0,0-.65.07c-.9,1-1.79,2.09-2.6,3.18-.1.13.15.67.37.86a1.24,1.24,0,0,0,1.82-.11A6.15,6.15,0,0,0,139.19,190.3Zm-43.71-12c.24-.18.18-.32,0-.56a.74.74,0,0,0-1.15-.11c-.36.25-.29.55,0,.76S95.11,178.9,95.48,178.34Z"/><path class="cls-2" d="M86.37,287.76c-1-1.76.4-3.3-.31-4.44s-2.18-1.67-3.2-2.6a13.93,13.93,0,0,1-4.5-7,5.42,5.42,0,0,1-.07-3.1c.18-.55.52-1.19,1.2-1.1,1.44.18,2-.57,2.4-1.78s1.1-1.22,1.79-.37a32.32,32.32,0,0,1,2,2.84,8.17,8.17,0,0,0,2.49,2.9,3.07,3.07,0,0,1,1.45,2.63,11.89,11.89,0,0,1-.74,5.52c-1.27,3.32-1.6,6.5,0,9.83a9.84,9.84,0,0,1,.43,3.81c.18,5.26.3,10.51.45,15.77a24.08,24.08,0,0,1-.88,6.94c-.14.51-.16.91.32,1.18a1.63,1.63,0,0,1,.82,1.78c-.35,2.94.36,5.82.49,8.73,0,.42.34.89-.36,1.37-1.91-2.07-2-4.77-2.5-7.3-2.42-.44-34.93-.66-39.11-.28-.2.92.66,1.09,1.12,1.52s1.12.85,1.63,1.33a3.68,3.68,0,0,1-.08,5.8,3.5,3.5,0,0,1-1.86.87c-2.8.14-5.61.24-8.41.14-1.45-.05-2.49-1.26-3.38-2.28a7,7,0,0,1-1.9-4.79,53.08,53.08,0,0,0-1.91-13.85,26,26,0,0,1-.37-3.48,9.71,9.71,0,0,1,2-7.2A15.27,15.27,0,0,0,38.48,292a5.37,5.37,0,0,0-.28-1.32c0-.09-.15-.23-.22-.22s-.57,0-.64.13A24.14,24.14,0,0,0,36,293.45a18.53,18.53,0,0,1-5.18,7.82c-3.88,3.37-5.28,7.91-6.17,12.66a28.82,28.82,0,0,0-.24,7.35,2,2,0,0,0,1.61,2c.45.11.91.21,1.35.35a8.91,8.91,0,0,1,1.62.62c2.18,1.23,3.66,3.86,3.09,5.42a6.83,6.83,0,0,1-5.87,3.65,5.57,5.57,0,0,0-2.36.2,5,5,0,0,1-4.06-.36c-.15-.08-.2-.4-.23-.61a.39.39,0,0,1,.42-.46c1,0,2.09.17,3.13.14s1.41-.69,1.33-1.64a9.3,9.3,0,0,0-1.11-2.92.87.87,0,0,1,.09-.64.66.66,0,0,1,.89-.26c1.78.66,2.08,1.24,1.83,3.51-.11,1,.33,1.5,1.32,1.43a1.24,1.24,0,0,0,.35,0c.74-.29,1.88,0,2.21-.77a3.21,3.21,0,0,0-.36-3A4.51,4.51,0,0,0,27,325.7c-.34-.08-.67-.21-1-.31-3.23-1-3.49-1.31-3.7-4.54a31.65,31.65,0,0,1,4.11-17.14,13.52,13.52,0,0,1,2.83-3.55A20.23,20.23,0,0,0,34.94,291c.87-2.87,2.58-5.23,4.21-7.64a7.81,7.81,0,0,1,5.23-3.2,27.59,27.59,0,0,1,17.43,2.06,81.43,81.43,0,0,0,10.5,3.88A40.85,40.85,0,0,0,86.37,287.76Zm-24.14-3a10,10,0,0,0-.61.95,41.19,41.19,0,0,1-9.84,13.08c-1.66,1.47-3.23,3-4.78,4.64a5.93,5.93,0,0,0-2,3.25c-.39,3.23-1.07,6.44-.39,9.74,1.12,5.43,1.68,4.81,5.61,4.79,11.81,0,23.61-.16,35.42-.25.55,0,1.15.08,1.58-.46a3.67,3.67,0,0,1,.22-3,6.74,6.74,0,0,0,.53-4.77,5,5,0,0,1-.07-1.39q-.14-8.41-.27-16.83a16.44,16.44,0,0,0-.1-2.45c-.27-1.6-.88-2.08-2.62-2.08a44,44,0,0,1-17.41-3.39C65.82,285.87,64,285.38,62.22,284.78ZM42.65,302a2.41,2.41,0,0,0-2.07.48,12.54,12.54,0,0,1-3.18,1.4c-1.79.39-2.21.87-2,2.51a35.67,35.67,0,0,0,.88,5.16A32.72,32.72,0,0,1,38,323.64a7.16,7.16,0,0,0,.08,2.09c.64,2.84,2,5.13,6,5,1.52,0,3-.12,4.55-.22a4.73,4.73,0,0,0,1.35-.28,1.42,1.42,0,0,0,.55-2.3c-.94-.86-2-1.65-3-2.42a10.51,10.51,0,0,1-3.44-4.73A20,20,0,0,1,43,310.15C43.48,307.33,42.92,304.69,42.65,302Z"/><path class="cls-2" d="M108.71,183.76a10.22,10.22,0,0,1,.28-1.55,3.6,3.6,0,0,1,6.12-1.61,2.71,2.71,0,0,1,.67,3.19,6.14,6.14,0,0,1-3.48,3.27c-1.91.73-3.21,0-3.51-2.08C108.75,184.64,108.75,184.28,108.71,183.76Zm1.91-1.42c-1.14.95-.85,2-.36,3.13a1.32,1.32,0,0,0,1.8.3c.49-.41.2-.85-.13-1.13A6.8,6.8,0,0,1,110.62,182.34Z"/><path class="cls-2" d="M105.12,209.94a9.56,9.56,0,0,1-6.72-3.7.79.79,0,0,1,.13-1.23,1.16,1.16,0,0,1,1,0c.41.2.7.62,1.09.86,2.18,1.32,4.29,2.87,7.11,2.2.21,0,.69.34.75.6a1.09,1.09,0,0,1-.44.86C107.29,210,106.43,209.85,105.12,209.94Z"/><path class="cls-2" d="M107.8,279.47l-1.07.49A.82.82,0,0,1,107.8,279.47Z"/><path class="cls-2" d="M105.55,331.91c.91-.81,1.15-.82,1.74-.11Z"/><path class="cls-3" d="M121.13,229a282.8,282.8,0,0,0,36.35-8.74c5.78-1.83,11.59-3.59,17.4-5.35a95,95,0,0,0,16.4-7,29.28,29.28,0,0,0,10.83-10.25c1.48-2.24,2.73-4.63,4.16-6.91,1.83-2.92,4-5.47,7.45-6.59.79.17.59.88.75,1.37a5.31,5.31,0,0,0,3.86,3.74,4.56,4.56,0,0,0,4.75-1.57c.07-.09.19-.14.26-.23.21-.26.43-.26.56,0a.93.93,0,0,1,.05.65,4.05,4.05,0,0,1-2.26,2.06c-1.07.46-2.15.92-3.21,1.4a9.55,9.55,0,0,0-3.1,2.25,3.66,3.66,0,0,0-.94,4.17c.69,1.68,1.64,3.11,3.65,3.41a8.85,8.85,0,0,0,6.07-1.15,47.58,47.58,0,0,0,7.72-5.47c3.46-3.14,6.94-6.27,10.39-9.44a30.76,30.76,0,0,0,2.4-2.55,32.4,32.4,0,0,1,5.7-4.62,1.74,1.74,0,0,1,2.25-.15,2.15,2.15,0,0,1,1,2.41,12.68,12.68,0,0,1-1.11,2.93,18.57,18.57,0,0,1-2.89,4c-2.51,2.62-5,5.28-7.44,7.93-.4.43-.78.88-1.15,1.33-.92,1.11-1.26,2.24-.74,2.37,1,.25,1.43-.58,2-1.07a60.79,60.79,0,0,0,8.63-8.72,24,24,0,0,0,3.73-5.91,8.73,8.73,0,0,1,2.12-3.19,1.69,1.69,0,0,1,2.2-.34,1.9,1.9,0,0,1,1,2.31,16,16,0,0,1-.93,2.25,48.89,48.89,0,0,1-6.33,9.24c-2.53,3.07-5.23,6-7.9,8.93-.77.85-1.75,1.51-2.58,2.3-.29.28-.08.68.15.94a.74.74,0,0,0,.58.18,4.45,4.45,0,0,0,2.3-1.51c3.34-3.29,6.39-6.83,9.4-10.42a43,43,0,0,0,5.9-8.25,5.85,5.85,0,0,1,.39-.59c.46-.7.94-1.41,1.92-1.23a2.64,2.64,0,0,1,1.93,2.25,7.86,7.86,0,0,1-1.37,5,60.54,60.54,0,0,1-8.77,11.36c-2,2-3.77,4.14-6.2,5.62a7.4,7.4,0,0,0-1.49,1.46.67.67,0,0,0,0,.93.84.84,0,0,0,.93.31,2.65,2.65,0,0,0,1-.39,48.31,48.31,0,0,0,4.45-3.95c2.6-2.85,5-5.84,7.56-8.77.23-.27.45-.54.69-.79a.7.7,0,0,1,.93-.15,1.24,1.24,0,0,1,.43.92,16.89,16.89,0,0,1-1.86,5.63,22.64,22.64,0,0,1-2.21,3.57,68,68,0,0,1-17.76,16.76A81.58,81.58,0,0,1,215.61,234a21.54,21.54,0,0,1-7.33.34,10.79,10.79,0,0,0-3.81.29c-2.27.55-4.54,1.1-6.84,1.54a42.12,42.12,0,0,0-9.38,2.73,55.88,55.88,0,0,1-6.69,2c-5.25,1.58-10.54,3-15.73,4.79-5,1.7-10.07,3-15,4.6a181.56,181.56,0,0,1-23.33,6.17q-1,.19-2.07.34a1,1,0,0,1-1.28-.83,40.08,40.08,0,0,0-2.2-6.65,2.25,2.25,0,0,1-.06-1.69c1.51-4.74.69-9.49,0-14.23C121.64,232,121.4,230.65,121.13,229Z"/><path class="cls-3" d="M278.34,253a29.67,29.67,0,0,1,3.15-1.47c4.44-1.44,8.74-3.25,13.13-4.81,3.41-1.21,6.84-2.35,10.16-3.78,3.75-1.61,7.53-3.16,11.3-4.74,1.32-.56,1.64-.41,1.92,1q1.79,9.12,3.56,18.23c.95,4.82,1.87,9.64,2.45,14.52.36,3,1,6,1.55,9a124.48,124.48,0,0,1,1.7,15c.36,5.3-2.28,9.13-6.27,12.24a4.29,4.29,0,0,1-2.61.89,19.79,19.79,0,0,1-6.91-.82,71.22,71.22,0,0,1-21.26-11.29c-7.38-5.74-14.61-11.68-21.81-17.66-8.66-7.21-16-15.71-24-23.56a76.91,76.91,0,0,0-6.43-5.93,36.82,36.82,0,0,1-4.26-4.16,29,29,0,0,0-8.43-6.19,8.11,8.11,0,0,1-2.1-1.24c-.94-.93-2.39-1.47-2.59-3,.87-.89,2.1-.93,3.18-1.29,8.59-2.88,16.68-6.72,23.76-12.46,1.54-1.25,3-2.62,4.5-3.91a1.52,1.52,0,0,1,.9-.35c.49,0,.43.48.44.79a13.92,13.92,0,0,1-.77,5.87,4.87,4.87,0,0,0,.73,4.93,55,55,0,0,0,4,5.33c1.94,2.17,3.64,4.54,5.56,6.73a129.15,129.15,0,0,0,19.26,17.86c3.08,2.32,6.15,4.67,9.24,7a30.89,30.89,0,0,0,2.91,1.93,1.05,1.05,0,0,0,1.3-.17.84.84,0,0,0-.24-1.22c-.73-.58-1.5-1.11-2.25-1.68l-13.4-10.19C279.35,253.93,279,253.59,278.34,253Z"/><path class="cls-3" d="M201.74,22.37a3.06,3.06,0,0,1,2.1,1.32,19.73,19.73,0,0,0,7.86,5.11A36,36,0,0,1,220,33.23a17.27,17.27,0,0,1,6.92,9.42c.29,1,.69,2,.92,3a23.39,23.39,0,0,0,2.7,7.19,4.62,4.62,0,0,1,.37,4,55.18,55.18,0,0,1-7.72,16.4c-3,4.06-5.74,8.25-9.39,11.77A56,56,0,0,1,207,90.52c-2.91,2-5.76,1.91-8.83.33-8.34-4.31-14.6-10.77-19.55-18.61a36.36,36.36,0,0,1-4.09-9.65,75.11,75.11,0,0,1-2.75-14.08,6.08,6.08,0,0,1,.46-3.4c2.34-4.55,5.34-8.53,10.14-10.75,2.75-1.27,5.56-2.43,8.39-3.52a25.62,25.62,0,0,0,9.43-6.53C200.82,23.62,201.35,22.86,201.74,22.37Zm8.68,52.19c-2-1.46-3.67-2.7-5.58-2.93a22.44,22.44,0,0,0-6.46-.11c-2.11.37-3.85,1.89-5.73,3.05,2.17,3,5.09,3.88,8.52,4.14C205,79,207.4,76.71,210.42,74.56Zm9.92-23.74c0-.08-.05-.26-.11-.28-.32-.09-.75-.29-.95-.16a21.54,21.54,0,0,0-1.85,1.56,7,7,0,0,1-9.51.13c-.53-.44-1-1-1.5-1.42a.63.63,0,0,0-.62,0c-.22.24-.5.63-.44.87a3.19,3.19,0,0,0,1.42,1.93,18.39,18.39,0,0,0,3.09,1.57A3.15,3.15,0,0,1,212,56.62c.25.53.76.33,1.12,0,1.56-1.57,1.81-1.64,4.66-1.35.39,0,.79-.19.71-.52-.31-1.29.67-1.87,1.32-2.65C220.08,51.71,220.43,51.37,220.33,50.82Zm-32.47-7.37a18.08,18.08,0,0,1,4.72.49,22,22,0,0,1,4.3,1.36.78.78,0,0,0,1.15-.38,1.09,1.09,0,0,0-.39-1.24,2.29,2.29,0,0,0-.57-.38,16.81,16.81,0,0,0-13.49-1.08,3.9,3.9,0,0,0-1.22.66,1,1,0,0,0-.41,1.21.78.78,0,0,0,1.13.44A8,8,0,0,1,187.86,43.45Zm-1.28,9.83c1,.31,2.35.2,2.91,1.69a.61.61,0,0,0,1.1.16,2.78,2.78,0,0,1,2-1.15,8.69,8.69,0,0,0,4-2c.88-.66,1.23-1.76.68-2-.83-.39-1.28.3-1.75.74-2.35,2.19-5,2.27-7.76,1A28,28,0,0,1,185,50.25c-.4-.23-.74-.56-1.12-.83s-.91-.29-1.17.18a1.07,1.07,0,0,0,0,1c.78.94,1.94,1.49,2.22,2.94C185.08,54.21,185.89,53.47,186.58,53.28Zm12.1,12.39a30.81,30.81,0,0,1,.2-6.92c.1-1.16.24-2.32.32-3.48,0-.67-.5-1.44-.85-1.32a1.22,1.22,0,0,0-.82,1,79.22,79.22,0,0,0-.91,9.75,4.06,4.06,0,0,0,.2,1.37A1.69,1.69,0,0,0,198,67.32a5.06,5.06,0,0,0,4.84-1.26.73.73,0,0,0,0-.64c-.08-.18-.34-.42-.49-.4C201.22,65.19,200.09,65.42,198.69,65.68Zm14.87-22.33a12.6,12.6,0,0,1,6.07.95.78.78,0,0,0,1.16-.38c.25-.57-.26-.85-.57-1.11a6.76,6.76,0,0,0-3.16-1.38,21.3,21.3,0,0,0-6.95-.06,18.62,18.62,0,0,0-3.93,1.33,4.14,4.14,0,0,0-1.28,1.11.75.75,0,0,0,0,.66.71.71,0,0,0,.5.38,3,3,0,0,0,1.35-.23A12.54,12.54,0,0,1,213.56,43.35Z"/><path class="cls-3" d="M167.36,121.37c6.42.58,12.17.25,17.83,1.35,1.39.27,2.77.48,3.78,1.63a1.67,1.67,0,0,0,.54.44,1,1,0,0,0,1.28-.16,1.11,1.11,0,0,0,.11-1.3,3.45,3.45,0,0,0-2.35-2,27.18,27.18,0,0,0-3.77-.76A118.58,118.58,0,0,0,168,120c-1.52,0-2.74-.17-3.36-1.81a11.34,11.34,0,0,0-1.27-2c.22-.89,1-1,1.6-1.27a46.3,46.3,0,0,0,11.49-7.33,22.9,22.9,0,0,0,6.81-10,43.47,43.47,0,0,0,2.39-9.83,3.9,3.9,0,0,1,.74-2.33c1.53,1.61,3,3.23,4.56,4.8a23.5,23.5,0,0,0,5.71,4,14,14,0,0,0,3.27,1.19,6.9,6.9,0,0,0,5.71-1c2.92-1.95,5.84-3.91,7.94-6.81a5.87,5.87,0,0,1,1-1,1,1,0,0,1,.63-.08c.26,0,.31.22.32.51a19.66,19.66,0,0,0,.13,2.1c.44,3.36.74,6.73,1.93,10a19,19,0,0,0,7.26,9.19,26.58,26.58,0,0,0,10.23,4.4c.68.13,1.34.33,1.92.48.34.76-.11,1.25-.2,1.79a2.36,2.36,0,0,1-2.41,2.1c-2.56.25-5.12.55-7.67.84a77.51,77.51,0,0,0-11,2,9.9,9.9,0,0,0-3.71,1.9,4.48,4.48,0,0,0-.94,1.44c-.15.28.5,1,.82,1s.52,0,.66-.14c2.65-2.52,6.06-2.82,9.42-3.31l12.36-1.79c.67.67.31,1.19.05,1.66a23.83,23.83,0,0,1-8.74,8.93c-8.08,4.88-16.75,7.67-26.3,7.24a36.92,36.92,0,0,1-7.95-1.28c-6.68-1.8-13.18-4-18.67-8.51A25.45,25.45,0,0,1,167.36,121.37Zm32.94.91a5.29,5.29,0,0,0,4.54-3,.73.73,0,0,0-.28-.92c-.27-.24-.6-.39-.93-.14-.64.49-1.24,1.05-1.9,1.51a2.82,2.82,0,0,1-3.55,0,12.47,12.47,0,0,0-1.33-1.07.89.89,0,0,0-1.19.41,1.09,1.09,0,0,0,0,.94A5.2,5.2,0,0,0,200.3,122.27Z"/><path class="cls-4" d="M257,167.31c-.47.31-.78.48-1.06.7-1.78,1.39-1.78,2.42,0,3.78.84.63,1.77,1.13,2.63,1.74a1.22,1.22,0,0,1,.47,1.24,1.2,1.2,0,0,1-1.27,1,7.83,7.83,0,0,1-3.4-.72,10.63,10.63,0,0,0-8.82-.26c-2.87,1-3.2.74-3.84-2.06-.05-.23-.07-.46-.12-.69-.77-3.9-1.76-5-5.6-5.61-3.39-.54-6.73-.53-9.84,1.39a9.55,9.55,0,0,0-4.22,5c-.14.38,0,.93-.73,1.12a17.89,17.89,0,0,1-2.63-4,14.79,14.79,0,0,0-2.28-3.1,4.58,4.58,0,0,0-7.56,1.34,7.25,7.25,0,0,0-.75,3.74c.35,3.84,1,7.61,3,11-.63,1.1-1.79,1.52-2.64,2.3-.44.4-.89.13-1.18-.27-.89-1.23-1.67-2.55-2.65-3.7s-2.19-2.19-3.95-1.62a4.69,4.69,0,0,0-3.23,3.8,4.4,4.4,0,0,0-.06,1.4c.2,1.76,0,2.91-2.19,3.51s-3,3.29-2.59,5.94a21.93,21.93,0,0,0,2,5.61c.4.84.87,1.64,1.29,2.41-1.83,2.61-4.39,3.91-7.3,4.86a12.9,12.9,0,0,1-1.89-3.3c-.54-1.16-1.13-2.3-1.76-3.56,2.33-1.28,2.26-3.31,1.69-5.46-.37-1.39-.92-1.75-2.55-1.84-1.43-.08-1.7-.21-2-1.31-.45-1.93-1-3.87-.38-5.88a3.05,3.05,0,0,1,.85-1.49,1.61,1.61,0,0,1,2.44.26c.41.7.72,1.47,1.08,2.2a1.46,1.46,0,0,0,1.78.74c1.65-.34,2.28-1.15,2.44-2.89.26-2.79.56-5.58.86-8.37a6.26,6.26,0,0,1,.22-1c.23-.8.79-1.21,1.54-.89,2.76,1.18,4.72-.39,6.64-1.92.9-.72.94-1.36.92-3.53.6-.39,1.1.07,1.65.15,2.35.36,3.91-1.44,3-3.64a5.52,5.52,0,0,0-4.67-3.75,8,8,0,0,0-2.44.12,3.45,3.45,0,0,1-2.7-.31c-1.24-.79-2.18-.26-3.14.56-1.15,1-2.35,1.89-3.81,3a7,7,0,0,1,1.61-5.06,2,2,0,0,1,1.55-.69c.93-.09,1.85-.23,2.77-.35a7,7,0,0,0,4.35-2c1.48-1.46,2.25-1.32,4-.14a7.16,7.16,0,0,1,2.61,2.77,8.37,8.37,0,0,0,1.42,2c1.74,1.82,3.4,1.12,4.42-.93a3.67,3.67,0,0,0,.23-2.05,24.79,24.79,0,0,0-.83-3.39,4.33,4.33,0,0,0-4.71-3.37c-.72,0-1.39.18-1.92-.44-1.55-1.79-3.48-1.62-5.49-1.1-.67.17-1.35.35-2,.46-.14,0-.35-.18-.49-.31s0-.24.06-.33a2.37,2.37,0,0,1,.44-.53,53.07,53.07,0,0,1,9.37-6.14,1.85,1.85,0,0,1,2.27.15,4.64,4.64,0,0,0,4.95.74,12.57,12.57,0,0,1,5.54-.47c1.75.1,3.5.2,5.26.2a11.45,11.45,0,0,0,4.44-.89,16.18,16.18,0,0,1,12-.2,31,31,0,0,1,2.93,1.15,17.5,17.5,0,0,0,10.93,1.5,4.31,4.31,0,0,1,3.89.86c1.33,1.11,2.73,2.15,4.22,3.32a6.85,6.85,0,0,0-2.83,3.31c-.67,1.87-2.17,2.34-3.91,2.21a29.1,29.1,0,0,0-6-.07c-1.39.18-2.77.39-4.14.69a3.12,3.12,0,0,1-3.64-1.32,18.18,18.18,0,0,0-3.64-3.78,3.93,3.93,0,0,0-4.28-.48,2.79,2.79,0,0,0-1.81,2c-.1.46-.17.92-.26,1.38-.54,2.69-2.33,4-4.92,4.19-1.06.09-2.14,0-2.89.9a7.83,7.83,0,0,0-1.68,3.79,1.82,1.82,0,0,0,.88,1.79,1.52,1.52,0,0,0,1.65,0c.31-.17.7-.28.89-.54a3.65,3.65,0,0,1,4.24-1.57,1.56,1.56,0,0,0,1-.2,4.75,4.75,0,0,1,5.27.37,4,4,0,0,0,3.08.29,2,2,0,0,1,2.35,1.1c1,1.59,2.19,3,2.75,4.85.31,1,.85,2.15,2,2.12s1.88-1.2,2.31-2.34a9,9,0,0,0,.41-4.84c0-.2.09-.58.21-.61a1.47,1.47,0,0,1,1,0,7,7,0,0,1,1.09.86,27.17,27.17,0,0,0,2.49,1.93A33.79,33.79,0,0,0,257,167.31Zm-31.19-14.67a6.77,6.77,0,0,0-.16,1.32c0,.46.2.93.74,1.05a1.11,1.11,0,0,0,1.19-.51,18.81,18.81,0,0,0,2.79-6.3,6.05,6.05,0,0,0,.17-1.72,1.39,1.39,0,0,0-1.26-1.41,3.09,3.09,0,0,0-3.79,3C225.47,149.71,225.71,151.32,225.81,152.64Z"/><path class="cls-4" d="M278.67,181.37a54.21,54.21,0,0,1-3.53,28.53,58.74,58.74,0,0,1-14.47,20.89c-.43.4-.89.76-1.31,1.16a.93.93,0,0,1-1.5-.07c-.75-.89-1.45-1.83-2.18-2.75a4.51,4.51,0,0,1-.86-4.56A13.48,13.48,0,0,0,255,216a2.66,2.66,0,0,1,.76-2.84c1.62-1.85,3.15-3.77,4.63-5.73a21.92,21.92,0,0,0,3.22-5.81c.35-1,1-2.05.85-3-.33-2.64.95-4.73,1.87-7,.66-1.62,1.2-3.29,1.83-4.93a27.09,27.09,0,0,1,1.09-2.58,1.12,1.12,0,0,1,1.4-.73c.56.18.57.71.56,1.14,0,.7-.15,1.39-.23,2.09-.16,1.37-.62,2.73.1,4.12.39.76.06,1.6,0,2.42a17.64,17.64,0,0,0-.05,2.44.85.85,0,0,0,.38.52.8.8,0,0,0,1-.13,5,5,0,0,0,1.6-2.26c.78-1.95,1.5-3.92,2.25-5.88A41.75,41.75,0,0,1,278.67,181.37ZM264.1,208.65c.3,0,.56,0,.7-.12a17.59,17.59,0,0,0,3.74-4,3.69,3.69,0,0,0,.41-.94,1.25,1.25,0,0,0-1.28-1.59,2,2,0,0,0-1.54.64,13.23,13.23,0,0,0-2.46,5.22C263.6,208.09,264,208.4,264.1,208.65Z"/><path class="cls-1" d="M129.58,200.06a2.32,2.32,0,0,1,0,1.9q-1.49,5.21-3,10.42a42.56,42.56,0,0,0-1.56,8.93,7.23,7.23,0,0,0,.3,3.79.83.83,0,0,1-.59,1.31,14.8,14.8,0,0,1-2.76.37,1,1,0,0,1-1.21-1c-.41-4.05-.85-8.11-1.2-12.17a12,12,0,0,1,1.36-6.42,3.52,3.52,0,0,1,.51-.91C123.87,203.84,126.29,201.39,129.58,200.06Z"/><path class="cls-3" d="M224.52,183.3c-4.55-2-5-2.06-10.58-1a1.23,1.23,0,0,1-1.48-.56,15,15,0,0,1-2-10.38,5.74,5.74,0,0,1,1.33-2.81,1.83,1.83,0,0,1,3-.13,11.19,11.19,0,0,1,.89,1.07,60.46,60.46,0,0,1,4.3,6.36C221.37,178.3,222.92,180.7,224.52,183.3Z"/><path class="cls-3" d="M225.71,185c2,2.58,3.67,5.11,5.83,7.09,0,1.11-.84,1.48-1.42,2a39.93,39.93,0,0,1-7,4.7,6.94,6.94,0,0,1-4,1,2.78,2.78,0,0,1-2.11-1.1c-1.39-1.86-1.67-3.09.68-4.6a17.22,17.22,0,0,1,2.21-1c.64-.29,1.3-.54,1.92-.86C225.11,190.46,225.89,189.07,225.71,185Z"/><path class="cls-1" d="M85.37,227.35c-1.33,0-2.58,0-3.84,0A1.59,1.59,0,0,1,80,225.7a10.3,10.3,0,0,1,.22-2.07q2-9.55,4.08-19.09a3.15,3.15,0,0,1,.35-1c.16-.27.42-.6.69-.66.44-.1.48.39.47.66-.3,5.59.48,11.15.41,16.73a27.62,27.62,0,0,1-.15,3.13C85.94,224.67,85.65,225.9,85.37,227.35Z"/><path class="cls-3" d="M235.66,188.75c-.61-1.64-1.19-3-1.65-4.47a30.11,30.11,0,0,1-1-4.05,3.09,3.09,0,0,1,3.33-3.76,2.61,2.61,0,0,1,1.49.81,24.94,24.94,0,0,1,3.67,5.51,1,1,0,0,1-.28,1.25C239.41,185.5,238,187.45,235.66,188.75Z"/><path class="cls-4" d="M222.94,240.64a7.16,7.16,0,0,1-5.94.23,28.43,28.43,0,0,0-7.83-1.76c-1.16-.09-2.32-.25-3.48-.29a13.23,13.23,0,0,1-5.54-1.23,21.47,21.47,0,0,1,6.67-1,36.27,36.27,0,0,0,9.75-.67,2,2,0,0,1,2.17.74A26.28,26.28,0,0,0,222.94,240.64Z"/><path class="cls-3" d="M202,194.12a16.22,16.22,0,0,1-3-6.61,6.52,6.52,0,0,1,.32-4.11,3.74,3.74,0,0,1,1.21-1.66,1.74,1.74,0,0,1,2.51,0,23.2,23.2,0,0,1,3.43,4.38,1.07,1.07,0,0,1-.07,1.29Z"/><path class="cls-3" d="M196.87,201.32a22.75,22.75,0,0,1-2.63-5.87,5.5,5.5,0,0,1,1.25-5.21c.79-.89,1.65-.9,2.31,0,1,1.43,1.92,2.92,2.89,4.37a1.66,1.66,0,0,1-.07,1.95A27.93,27.93,0,0,1,196.87,201.32Z"/><path class="cls-4" d="M177.71,211.07a61,61,0,0,1-2.87-13.57c2,1.75,3.66,3.12,5.21,4.68a2.44,2.44,0,0,1,.5,2,11,11,0,0,0,.18,3.45c.19.73,1.08,1.41.53,2.18s-1.43.68-2.21.89C178.71,210.76,178.38,210.87,177.71,211.07Z"/><path class="cls-3" d="M170.13,52.71c1.33,3.25,1.46,5.93,2.22,8.44.15.49-.15.85-.54,1.17s-1,.94-1.63,1.53a3.72,3.72,0,0,1-1.12-3.91A30.55,30.55,0,0,0,170.13,52.71Z"/><path class="cls-3" d="M218.86,183.12a5.08,5.08,0,0,1,2.59.62c1.51.87,1.66,2.15.31,3.29a3.81,3.81,0,0,1-5.95-1.83,1.26,1.26,0,0,1,.4-1.25A3,3,0,0,1,218.86,183.12Z"/><path class="cls-3" d="M232.89,65.15l-2.52-1.76,2-5.6C235.26,60.54,235.3,62.87,232.89,65.15Z"/><path class="cls-3" d="M80.88,234c-.13-1.26.57-2.24.9-3.31s.7-1.25,2.12-1.21c.74,0,1.08.51.72,1.1a5.56,5.56,0,0,1-1,1.39A8.32,8.32,0,0,1,80.88,234Z"/><path class="cls-2" d="M109.66,308c-.12-.9-.36-1.82.4-2.58A3.18,3.18,0,0,1,109.66,308Z"/><path class="cls-2" d="M102.4,293.69c0,.88.3,1.8-.5,2.51A3.08,3.08,0,0,1,102.4,293.69Z"/><path class="cls-5" d="M210.41,137.63c.66-.19,1.32-.41,2-.56.13,0,.41.21.46.37s0,.55-.13.6a16.92,16.92,0,0,1-1.64.55Z"/><path class="cls-2" d="M110.56,301a1,1,0,0,1,.21-1.25A1.32,1.32,0,0,1,110.56,301Z"/><path class="cls-2" d="M111.72,294.38l.33-.92A.76.76,0,0,1,111.72,294.38Z"/><path class="cls-2" d="M100.91,306.26a1.24,1.24,0,0,1-.27,1.17A1,1,0,0,1,100.91,306.26Z"/><path class="cls-2" d="M109.31,312.36a2.68,2.68,0,0,1-.16-.49s.14-.12.22-.18Z"/><path class="cls-2" d="M109.07,314.4a.36.36,0,0,1,.12-.57A.4.4,0,0,1,109.07,314.4Z"/><path class="cls-2" d="M109.28,318.68a2.6,2.6,0,0,1-.24-.41s.09-.14.14-.21A.47.47,0,0,1,109.28,318.68Z"/><path class="cls-2" d="M106.83,328.54a3,3,0,0,1,.3.43s-.1.15-.16.23Z"/><path class="cls-2" d="M210.42,74.56c-3,2.15-5.41,4.44-9.25,4.15-3.43-.26-6.35-1.1-8.52-4.14,1.88-1.16,3.62-2.68,5.73-3.05a22.44,22.44,0,0,1,6.46.11C206.75,71.87,208.43,73.1,210.42,74.56Z"/><path class="cls-2" d="M220.33,50.82c.1.55-.25.89-.54,1.23-.65.78-1.63,1.36-1.32,2.65.08.33-.31.56-.71.52-2.85-.3-3.1-.23-4.66,1.35-.37.37-.88.57-1.12,0a3.15,3.15,0,0,0-2.12-1.56,18.39,18.39,0,0,1-3.09-1.57,3.19,3.19,0,0,1-1.42-1.93c-.06-.24.22-.63.44-.87a.63.63,0,0,1,.62,0c.53.44,1,1,1.5,1.42a7,7,0,0,0,9.51-.13,21.54,21.54,0,0,1,1.85-1.56c.19-.13.63.07.95.16C220.28,50.56,220.3,50.74,220.33,50.82Z"/><path class="cls-2" d="M187.86,43.45a8,8,0,0,0-4.79,1.08.78.78,0,0,1-1.13-.44,1,1,0,0,1,.41-1.21,3.9,3.9,0,0,1,1.22-.66,16.81,16.81,0,0,1,13.49,1.08,2.29,2.29,0,0,1,.57.38,1.09,1.09,0,0,1,.39,1.24.78.78,0,0,1-1.15.38,22,22,0,0,0-4.3-1.36A18.08,18.08,0,0,0,187.86,43.45Z"/><path class="cls-2" d="M186.58,53.28c-.7.18-1.51.92-1.64.22-.28-1.45-1.44-2-2.22-2.94a1.07,1.07,0,0,1,0-1c.26-.47.73-.49,1.17-.18s.72.6,1.12.83a28,28,0,0,0,2.75,1.49c2.78,1.23,5.41,1.15,7.76-1,.47-.44.92-1.13,1.75-.74.55.26.2,1.36-.68,2a8.69,8.69,0,0,1-4,2,2.78,2.78,0,0,0-2,1.15.61.61,0,0,1-1.1-.16C188.93,53.48,187.57,53.59,186.58,53.28Z"/><path class="cls-2" d="M198.69,65.68c1.41-.26,2.53-.49,3.66-.66.15,0,.41.22.49.4a.73.73,0,0,1,0,.64A5.06,5.06,0,0,1,198,67.32a1.69,1.69,0,0,1-1.16-1.21,4.06,4.06,0,0,1-.2-1.37,79.22,79.22,0,0,1,.91-9.75,1.22,1.22,0,0,1,.82-1c.36-.13.89.65.85,1.32-.07,1.16-.22,2.32-.32,3.48A30.81,30.81,0,0,0,198.69,65.68Z"/><path class="cls-2" d="M213.56,43.35a12.54,12.54,0,0,0-6.82,1.26,3,3,0,0,1-1.35.23.71.71,0,0,1-.5-.38.75.75,0,0,1,0-.66,4.14,4.14,0,0,1,1.28-1.11,18.62,18.62,0,0,1,3.93-1.33,21.3,21.3,0,0,1,6.95.06,6.76,6.76,0,0,1,3.16,1.38c.32.25.82.54.57,1.11a.78.78,0,0,1-1.16.38A12.6,12.6,0,0,0,213.56,43.35Z"/><path class="cls-2" d="M200.3,122.27a5.2,5.2,0,0,1-4.65-2.26,1.09,1.09,0,0,1,0-.94.89.89,0,0,1,1.19-.41,12.47,12.47,0,0,1,1.33,1.07,2.82,2.82,0,0,0,3.55,0c.66-.46,1.26-1,1.9-1.51.33-.25.66-.1.93.14a.73.73,0,0,1,.28.92A5.29,5.29,0,0,1,200.3,122.27Z"/><path class="cls-2" d="M225.81,152.64c-.1-1.32-.34-2.93-.32-4.54a3.09,3.09,0,0,1,3.79-3,1.39,1.39,0,0,1,1.26,1.41,6.05,6.05,0,0,1-.17,1.72,18.81,18.81,0,0,1-2.79,6.3,1.11,1.11,0,0,1-1.19.51c-.54-.13-.69-.59-.74-1.05A6.77,6.77,0,0,1,225.81,152.64Z"/><path class="cls-2" d="M264.1,208.65c-.15-.25-.5-.56-.45-.8a13.23,13.23,0,0,1,2.46-5.22,2,2,0,0,1,1.54-.64,1.25,1.25,0,0,1,1.28,1.59,3.69,3.69,0,0,1-.41.94,17.59,17.59,0,0,1-3.74,4C264.66,208.64,264.39,208.6,264.1,208.65Z"/></svg>