<svg width="137" height="137" viewBox="0 0 137 137" fill="none" xmlns="http://www.w3.org/2000/svg">
<g id="Group 2351">
<path id="01" d="M113.815 76.2808C113.815 83.7212 112.35 91.0887 109.503 97.9627C106.655 104.837 102.482 111.083 97.2208 116.344C91.9596 121.605 85.7137 125.778 78.8397 128.626C71.9657 131.473 64.5981 132.938 57.1577 132.938L57.1577 110.275C61.622 110.275 66.0425 109.396 70.1669 107.688C74.2913 105.979 78.0389 103.475 81.1955 100.319C84.3522 97.1619 86.8563 93.4144 88.5647 89.2899C90.273 85.1655 91.1523 80.745 91.1523 76.2808H113.815Z" fill="#353535"/>
<path id="03" d="M57.1577 132.938C49.7173 132.938 42.3498 131.473 35.4757 128.626C28.6017 125.778 22.3558 121.605 17.0947 116.344C11.8335 111.083 7.66012 104.837 4.81281 97.9627C1.96549 91.0887 0.499998 83.7211 0.5 76.2807C0.500002 68.8403 1.9655 61.4728 4.81282 54.5988C7.66014 47.7247 11.8335 41.4788 17.0947 36.2177C22.3558 30.9565 28.6017 26.7832 35.4758 23.9358C42.3498 21.0885 49.7173 19.623 57.1577 19.623L57.1577 42.2861C52.6935 42.2861 48.273 43.1654 44.1485 44.8738C40.0241 46.5822 36.2766 49.0862 33.1199 52.2429C29.9632 55.3996 27.4592 59.1472 25.7508 63.2716C24.0424 67.396 23.1631 71.8165 23.1631 76.2808C23.1631 80.745 24.0424 85.1655 25.7508 89.2899C27.4592 93.4144 29.9632 97.1619 33.1199 100.319C36.2766 103.475 40.0241 105.979 44.1485 107.688C48.2729 109.396 52.6935 110.275 57.1577 110.275L57.1577 132.938Z" fill="#919191"/>
<path id="04" d="M68.5 0.649902C86.5347 0.649903 103.831 7.81417 116.583 20.5666C129.336 33.3191 136.5 50.6152 136.5 68.6499L99.8672 68.6499C99.8672 60.3308 96.5624 52.3525 90.6799 46.47C84.7974 40.5875 76.8191 37.2827 68.5 37.2827V0.649902Z" fill="#000091"/>
</g>
</svg>
