<svg xmlns="http://www.w3.org/2000/svg" width="1440" height="342" fill="none"><g clip-path="url(#a)"><path fill="#146ED6" d="M31.056-47.708c-.234 1.387.15 1.76.596 1.872.447.111 1.078-.04 1.48.308.098 3.35-1.245 1.408-2.123 2.45.186 2.123 1.407 3.846 1.197 5.365-.256.095-.379.388-.65.01.503 1.15.303 2.763.27 4.434s-.022 3.398.664 4.704a.93.93 0 0 1-.386.315 3.25 3.25 0 0 1 2.06-.306c-.036 1.239.834 2.328-.168 2.748.067-.751-.327-.837-.623-1.201l.37 1.332c-1.46 1.109-.401-1.79-1.44-1.837.167 1.278.505 2.665.74 3.97q.167.936.215 1.886a5.6 5.6 0 0 1-.036 1.62c-.67.18-.817-.942-.935-1.802-.119-.862-.107-1.47-.778-.177l.673-2.995c-2.283 2.229.242-1.826-2.183.202-.63 3.988.582 4.487.156 8.46.761.894 1.131-.29 1.898.601.69 2.8-.178 3.905-.985 4.85-.421.414-.753.91-.974 1.458-.15.794.004 1.615.43 2.301.96 1.027 2.73 1.382 1.942 4.33l-1.61-.926c.04 3.869 2.347 2.07 1.5 6.154-.646-.672-.665-2.987-.823-2.395-.552 1.347-.303 1.797.09 2.158a2.18 2.18 0 0 1 1.026 1.625l-1.33.523c.296 2.042.818 4.15 1.34 6.32.523 2.168.998 4.377 1.506 6.592-.445-.196-.989-.906-1.248.197a46.6 46.6 0 0 1 1.382 8.853l.074 1.144.111 1.124.182 2.247c.1 1.473.189 2.952.258 4.35l1.58 1.826c.083.483-.345 1.01-.676.534-.025 2.216.74-.041 1.417.866.318 1.185-.35 1.707-.85 1.051a52 52 0 0 1 3.044 6.81 24 24 0 0 1 1.52 7.34l-.564-.646c.449 3.13 3.37 2.66 3.149 5.733l-.365-.467c.37 1.654.846 3.32 1.364 4.966L46.286 68c.559 1.579 1.07 3.121 1.436 4.593.184.751.337 1.488.45 2.206q.223 1.024.31 2.067c1.968.252 1.912 6.48 4.278 5.925.42 4.03-.44 3.194 1.21 8.522.565 1.37 2.308 1.304 3.353 2.79l-1.09.62 2.33 1.551-.692 1.884 1.134 1.334c-.27-.623-.232-1.535.145-1.6a9.66 9.66 0 0 1 1.856 3.841c.367 1.296.435 2.412.184 2.604l1.06 1.219 1.104 1.189c.744.788 1.461 1.583 2.217 2.35-.509.18-1.24-.615-1.978-1.14 1.475 1.065 1.292 1.374 1.084 1.664-.208.291-.464.577.952 1.512-.014-.511.738-.253.988-.344a8.3 8.3 0 0 0 1.59 3.155 20 20 0 0 0 2.876 3.221l-.993.172c2.957 3.865 7.247 7.298 11.596 10.685-1.292-1.564.025-2.422 1.324-1.549l-.308 1.449c1.313-.041-1.017-1.402 1.266-.939 1.536 1.285.23 2.016-.998 1.662l2.31 1.089c-.105.413-.704.243-1.11.576.667-.049 1.326.898 2.198 1.696.872.799 1.82 1.626 2.815 1.4l-.072.419a37.5 37.5 0 0 0 6.22 2.774c.912.29 1.765.61 2.707.884.943.273 1.92.583 3.029.884.417-1.078 2.048-.3 3.562-.909 3.066 1.132 6.593 2.581 10.558 2.713 2.809-.465.855-.939 2.102-1.578.089.51 1.117.801 1.864.978s1.237.326.217.726a46 46 0 0 0 5.519-.575 76 76 0 0 0 2.677-.588c1.005-.239 2.162-.595 3.563-1.085-.698-.287-1.432-.379-1.159-.764 1.003-.345 2.434-.027 2.393.497l-.265.137c3.086-1.402 6.873-1.627 10.573-2.212a28.4 28.4 0 0 0 5.256-1.201 9.3 9.3 0 0 0 3.953-2.523l-.22.236a47 47 0 0 0 4.298-3.899c1.123-.674.922-.296.672.193-.25.488-.565 1.055.451.765a72 72 0 0 1 5.849-5.894 23 23 0 0 0 2.381-2.76 10 10 0 0 0 .93-1.633c.3-.599.531-1.23.686-1.881 2.357-1.131 3.797-4.883 4.254-8.795.217-1.932.322-3.876.313-5.82l.026-.685-.001-.678c.006-.445.018-.878.078-1.321q.076-1.204.285-2.39l-.675.419a1.51 1.51 0 0 1-.241-1.538 3.4 3.4 0 0 0 .355-1.374c-.516.269-.314 1.688-.886.864a52 52 0 0 0-2.999-8.723c-.326-.716-.636-1.431-1.031-2.119-.394-.687-.732-1.412-1.157-2.084s-.853-1.365-1.293-2.037l-1.427-1.928a37.17 37.17 0 0 0-15.233-11.521c-.448-.2-.929-.32-1.419-.354a3.4 3.4 0 0 0-1.064.079 5.4 5.4 0 0 0-1.536.728 2.9 2.9 0 0 1-1.634.481 5 5 0 0 1-1.193-.227 10.3 10.3 0 0 1-1.681-.653 60 60 0 0 1 1.791-1.09c-1.174.03-2.308-.038-3.49.019l-1.735.008-1.737.062c-1.15.001-2.305.143-3.467.196-.574.04-1.151.132-1.728.195-.578.064-1.155.111-1.726.232a30.6 30.6 0 0 0-6.769 1.826 18.5 18.5 0 0 0-6.124 3.939c.281-.604.068-.943.877-1.485-1.142.15-2.841 1.375-3.879 2.813s-1.568 2.857-1.277 3.095c-.515.58-.667.582-.877.455a.584.584 0 0 0-.803-.004c-.86.767-1.215 2.156-1.485 3.326q-.127.816-.364 1.606c-.083.395-.31.744-.637.979-.216.112-.121-.646-.069-1.032.023.75-.528 2.188-.731 3.369-.204 1.18-.219 2.035.431 1.553a13.3 13.3 0 0 0-.629 4.74c.017.754.04 1.46.011 2.153a8.6 8.6 0 0 1-.225 1.993c.651.814.556 2.16.565 3.367.009 1.208.093 2.239 1.019 2.407-2.003.093-.759 5.548.368 7.251-.647-.541-.304 1.737-1.176 1.129.12.962.397 1.898.819 2.77.349.673.763 1 1.183.721-.646 2.181.229 4.075.969 5.735.377.75.682 1.534.909 2.342a2.66 2.66 0 0 1-.458 2.205 241 241 0 0 1 1.961 4.397l2.033 4.169 1.909 4.05 2.017 3.888c-.889.255-1.541-1.207-2.179-2.614-.639-1.408-1.162-2.799-2.042-2.35.311.601.623 1.202.977 1.781.353.579.687 1.047 1.018 1.538l1.931 2.811a29 29 0 0 1 1.714 2.848 22 22 0 0 1 1.599 3.349c.384 1.372-1.059-.381-1.566-.712a38 38 0 0 1 2.026 3.524c.312.601.623 1.202.874 1.773l.894 1.725a55 55 0 0 0 1.878 3.311c.329.531.67 1.056 1.028 1.556q.52.775 1.169 1.445c-.15.078-.603-.266-.963-.636.539.803.933 2.048 1.564 1.545l-.682-.683c.25-1.899 4.149 1.927 4.772 1.718-2.871-.112 1.981 4.364-1.899 3.807.464.453 1.224.89 1.6.481.373.867.285 1.286-.787.851 2.339 2.599 2.359 1.064 4.114 3.638-.333.226-.821-.199-1.39-.194.804.405 1.566.889 2.274 1.444q.583.485 1.055 1.077.577.68 1.026 1.45c-.287.019-.359.454-.847-.163a32.3 32.3 0 0 0 4.529 4.247q.569.483 1.119.998c.369.342.774.682 1.142 1.055a14.3 14.3 0 0 1 2.135 2.644c-2.267.04.648 1.647-.315 2.848.692.571 1.364 1.16 2.105 1.691l-.186-1.269c1.573 1.709 3.784 2.43 4.789 4.219l-1.632-.823c1.062.974 2.106 1.958 3.186 2.923-.444-.708-.854-1.456-1.28-2.173 2.179 1.157 1.174-1.501 3.018.966-.562-.318 1.637 1.584 1.886 3.063a5.98 5.98 0 0 1 3.316 2.307c-.005.666-1.39.995-1.399 1.434 1.675-.167 4.336 3.287 6.284 3.192a1.09 1.09 0 0 0-1.082.752l1.375-.172c.599.948.624 1.202.051 1.567 2.393 2.16.426-2.119 2.883.884-.292-.123-.274.089-.853-.175a28 28 0 0 0 4.466 3.334l1.144.734c.375.239.76.467 1.133.715a15.5 15.5 0 0 1 2.098 1.619c-.021 1.841-2.746-1.458-2.515.268a59 59 0 0 0 3.419 1.902c1.175.603 2.355 1.203 3.58 1.712a38 38 0 0 1 6.759 3.608c-.236-.19-.466-.399-.696-.607 1.652-1.49 2.647 2.707 5.316 3.046-.604-.152-1.274.66-1.015.526 2.751 2.012 6.371 2.743 11.194 4.397l-.802.218c1.585 1.305 4.658 2.38 6.512 3.485.799-.255 1.882.32 1.519-.719a10.7 10.7 0 0 0 4.083 2.8c1.46.554 2.968.972 4.505 1.247 3.071.497 6.002.944 8.408 3.067-.684-.172-1.739-.044-1.215.142 1.642.33 3.29.581 4.945.904-.121-1.012-.477-.728-1.273-1.718a5.56 5.56 0 0 1 3.396-.054c-2.295-.014-.396 1.456.397 2.235-.084-.323.316-.538.323-.847 1.026 1.169 1.258.735 1.615.261.356-.475.842-.978 2.415-.018l-.302.432c1.345.064 2.675-.282 4.029.197.33 1.194-1.448.149-1.765 1.007a9.4 9.4 0 0 0 3.076-.2c1.012-.136 1.986-.214 2.763.504-.892.119-2.106-.075-2.985.023 1.639 1.69 1.97 1.373 3.376 1.864l-.143-.056 3.248 1.221-.794-.503c1.505-1.17 2.761-.998 4.15-.819s2.83.546 4.631-.114c-3.497 1.242-.689.922-1.114 2.103.807.466 2.066 1.041 1.637 1.332.872-.376 1.492-.065 2.237.166a3.38 3.38 0 0 0 2.776-.204c.057.405 1.705.229 1.237 1.18 2.125-.08-.392-.757-.187-1.214 1.679-.512 3.499.16 5.538.651 2.039.49 4.291.923 6.636.165 4.03-.566 4.803-1.943 8.464-2.484 1.23.666-1.036 1.414-1.036 1.414a8.74 8.74 0 0 0 5.405.041c-.382.351.013.641.597 1.078 1.521-.126.993-1.453 3.006-.895a5.6 5.6 0 0 1-1.46 1.595c.893-.188 1.779-.48 2.659-.753.88-.274 1.783-.635 2.7-.852.524.658-1.077 1.1-1.717 1.585 2.073-.412 5.393-.907 5.964-2.026l-1.355-.319c.722-.078.467.901-.101 1.143-1.767.916-2.598-.246-2.716-.635l1.303-.325c-.738-1.143-2.028-.969-3.496-.521-1.467.449-3.102 1.045-4.429 1.001l1.077-1.702-2.71 1.406c-.588-.458-.971-1.372.33-1.643-1.89-.82-1.677.633-3.284-.303-.178-.151-.115-.222.069-.294l-1.846.454c.37-.345-.282-1.204.836-.93-3.252-1.066-5.345 1.118-6.53-.197l.277-.098c-4.591.323-.496 1.234-4.023 2.461l-2.1-3.211-.543 1.204c-.467-.078-1.387-.234-1.143-.734-1.827.726.251.556-.853 1.296-2.163-1.318-6.308-.152-6.592-2.155-.926.846 2.076.959-.416 1.344-.216-1.092-.906-1.055-1.825-.944s-1.984.32-2.938-.314c.791-.99 2.635-.124.73-1.4-1.504 1.642-3.914-1.02-5.678-.921-.333 1.461-3.825-.113-6.794-.19.071-.113-.225-.288-.746-.498-.52-.21-1.26-.46-2.079-.774-1.641-.606-3.634-1.303-4.887-1.881l.145-.22c-.423.654-1.321.762-2.36.668-1.04-.094-2.19-.458-3.225-.615.324-.847.762-1.074 1.924-1.158l-1.834-.521c-.582.348-1.205.412-2.448.233l.773-.935c-1.219-.336-2.56-.319-3.923-.565a11.3 11.3 0 0 1-4.239-1.439c-.522.919 1.576 3.582-1.994 3.124.061-.573.262-1.524 1.199-1.453-.304-.026-1.168.102-1.682-.302l1.634-.451c-1.278-.862-.997.517-2.119.031.289-.737-.642-.841-.263-1.389.307.047.87.663 1.41.512q-.48-.222-.934-.491a9 9 0 0 1-.854-.617 3.55 3.55 0 0 1-1.081-1.262c-.048.467-.376 1.011-1.333.752-2.408-.863-.469-1.213-1.716-2.16-.776.296-2.07-.817-2.566.271-.688-.283-.594-.866-.733-1.282-1.406-.033-5.675-2.326-4.852-.533l.272.217c-.048.024-.139-.035-.218-.04a11.1 11.1 0 0 1-3.188-.985 30 30 0 0 1-2.916-1.712 41 41 0 0 0-5.748-3.348l.195-.345c-1.226-.424-2.51-1.062-3.733-1.61a21 21 0 0 0-1.79-.718 7 7 0 0 0-1.554-.407c-.654-.424-1.137-1.576-.617-1.808-1.816-.781-2.254-.523-4.291-2.57 2.053.46-.238-.884 1.989.63-.978-.827-1.502-1.424-2.142-1.939a6.1 6.1 0 0 0-2.779-1.212c1.354-.329-.816-2.146-1.979-2.58l1.026 1.61a18.6 18.6 0 0 1-3.044-2.165l1.333-.692c-1.561-2.202-3.775-3.074-5.865-3.957-.512-.223-1-.458-1.497-.696a9 9 0 0 1-1.272-.865 5.02 5.02 0 0 1-1.671-2.664c-1.623-.187 1.69 2.334.05 2.376-1.703-1.709-2.296-4.749-2.824-5.253-1.821-2.776-3.536-.644-5.654-3.374-.021.637-.626 1.85-2.804.387-1.532-1.881-.576-3.552.735-2.729.42.384.498.695.366.793.636.433 1.534.974 1.216-.036l-.555.12c-.457-1.204-2.735-3.538-1.635-3.521-1.562-.982-1.1-.017-.371 1.123-1.572-2.692-3.303-3.427-4.939-6.154.118.549-.008 1.277-.289.912-2.537-3.892-2.015-.945-4.216-3.204-.563-1.835 1.738-.589-.676-2.7-.778-1.823.759-1.11 1.514-.785-2.456-1.677-2.759-4.555-3.575-5.938.386.333.808.633 1.21.95a7 7 0 0 1-.909-.855c-.241-.302-.445-.608-.656-.911l-.299 1.261c-.363-.818-.778-1.426-.442-1.646-1.029-.382-.913 1.503-2.644.517-.267-1.249-2.483-2.669-1.648-3.72 1.708 3.293.835-1.051 2.773 1.391a5.1 5.1 0 0 1-1.235-1.823c.045-.191.286-.049.489.105-.52-1.751-1.058-1.877-1.683-1.964-.625-.088-1.409-.115-2.386-1.66.851.008.718-1.44.275-1.866.758 1.254-.647 1.236-1.832.363-.739-2.293-1.763-1.93-2.256-3.07.149.449.293.916.472 1.35-.9-.029-1.352-1.137-2.356-2.469.427-.397 1.058 1.128 1.012.481-1.986-1.006-.844-4.244-2.781-6.083-.071-1.283 1.155-.714 1.014-1.792-2.057-2.144-.422-3.182-2.394-5.514-.504 1.161-.252 1.22-1.982-.307.872 1.401 1.818 2.77 2.717 4.15l-2.64-2.253c.631 1.35 1.909 2.579 2.146 3.462-1.359-1.018-1.068-.971-1.513.022.217-1.241-.419-2.07-1.109-2.902a11 11 0 0 1-1.013-1.32 3.54 3.54 0 0 1-.445-1.682l2.233-.884c-.321-3.647-3.611-5.272-4.488-9.873l.089 1.524c-1.103-.259-1.059-2.63-1.914-3.91.816-.118.769-1.077 1.072-1.829-.534.277-.856-3.209-2.508-3.175l.491-2.23a5.9 5.9 0 0 0-.774-2.138 8 8 0 0 0-1.138-1.445 6 6 0 0 1-1.842-3.552c1.084.871 1.289-.821 2.415 1.363-.247-1.152-.336-2.22-.883-2.127.167-.384-.274-1.131-.688-1.93-.415-.8-.719-1.694-.428-2.295-.424-.436-1.281-.456-1.428-1.798.14-.172.393-.052.393-.052-.39.058-.863-2-1.561-.715a7.2 7.2 0 0 0 .556-3.339c-.012-1.183-.181-2.422-.309-3.652-.275-2.443-.372-4.878.809-6.307a20.2 20.2 0 0 1 .945-7.352c.173.215.356.143.146.488.348-.399.543-.908.551-1.437a2.8 2.8 0 0 0-.273-1.07 2 2 0 0 1-.166-1.188 2.7 2.7 0 0 1 1.082-1.545c1.046-.291.869.205.639.644s-.594.927-.117.626a1.25 1.25 0 0 0 1.375.049c.35-.33.648-.711.885-1.13.558-.953 1.489-2.084 2.79-1.973-.117.129-.22.267-.337.395.887-.04 1.558-.7 2.47-1.471a7.8 7.8 0 0 1 3.463-1.88.4.4 0 0 0 .088.389c.44-.487.962-.894 1.541-1.204l1.003-.52c.349-.18.729-.286 1.111-.416.383-.13.775-.257 1.173-.372.397-.115.805-.166 1.204-.25a15 15 0 0 1 1.199-.218c.392-.052.776-.09 1.145-.13-.929 1.017-1.315.523-.773 1.583.629-.066.517-.474.61-.926s.289-.912 1.651-.993c.416.317 1.093.637 1.656 1.017a2.2 2.2 0 0 1 1.063 1.461c-.398-.045-.81-.09-1.183-.149l-1.179-.067c.547.776 1.277.802 2.049.775s1.583-.257 2.162.023l-.282.588c1.257.183 2.535.167 3.787-.05a6.77 6.77 0 0 1 3.911.762l-.182-.6c1.367-.304 1.671.163 1.953.62.131.25.313.47.533.646.374.227.801.35 1.238.357-.092.573-.174 1.135-.308 1.684a27 27 0 0 1 3.247 1.145c.638.318 1.342.631 1.977 1.018q.906.57 1.741 1.24a7.7 7.7 0 0 1-1.592-.41c-.527-.191-1.058-.45-1.645-.671-.588-.222-1.1-.474-1.645-.672a15 15 0 0 0-1.512-.46c1.14.729 3.577 2.721 4.628 2.748-.516-.274-1.243-.5-1.49-1.035a8.05 8.05 0 0 1 5.811 3.926 1.3 1.3 0 0 0-.689.658 1.3 1.3 0 0 0-.063.951q.123.602.375 1.163c.167.425.337.9.535 1.37l.307.725c.092.25.162.503.242.76q.238.728.373 1.483c.099.986.076 1.852-.427 2.456 1.094 2.11 1.211 4.511.913 6.862a45.4 45.4 0 0 1-1.783 7.147c.744-.226 1.055-.288 1.199-.187s.072.344-.027.624c-.183.56-.432 1.314.784 1.629-.368 1.289-.644 1.699-.852 1.754q-.75.724-1.591 1.343-.804.637-1.693 1.145c-1.086.259.245-1.247-.285-1.461-1.683 1.902-1.405.233-2.976 1.041.876.308.371 1.523-.959 2.281a24 24 0 0 0 2.297-.672c-.809 1.822-1.851 2.004-2.803 2.109a3.83 3.83 0 0 0-3.125 1.781c.196-.445.402-.872.565-1.322a22.4 22.4 0 0 1-3.769 2.717c-1.568 1.034-3.183 2.139-3.781 3.486-.468-.123-1.174-.573-.373-1.087-2.416.795-4.923 2.27-7.417 3.343s-5.036 1.949-7.108 1.628l.284-.658c-.901.307-1.481 1.408-2.748.922.033-.261.306-.647-.13-.634q-.746.426-1.545.74a4.4 4.4 0 0 1-2.143.28l1.034-.757a16.2 16.2 0 0 0-6.157.7c-.917.262-1.812.49-2.757.713-.985.202-1.99.296-2.996.281.123-.88-.751-1.639-1.852-2.235-.562-.288-1.157-.612-1.736-.861s-1.133-.464-1.563-.676l.127-.226c-2.682-.759-4.909-1.335-7.266-1.806q-.882-.165-1.744-.422l-1.769-.47a13 13 0 0 1-1.789-.597 61 61 0 0 1-1.837-.763c-.891-1.719-3.03-3.476-5.307-5.529-.576-.463-1.124-1.064-1.695-1.606-.571-.543-1.133-1.082-1.63-1.672s-1.007-1.177-1.46-1.758a12 12 0 0 1-1.214-1.765c.303.834-1.099.821-1.898.222-.311-.601-1.114-1.062-1.672-1.52s-.873-.874-.168-1.308l.257.378a2.94 2.94 0 0 0-.638-2.583c-.554-.863-1.295-1.776-1.888-2.612l-1.948.965a11 11 0 0 0-1.559-4.476 43 43 0 0 0-2.804-4.142c-1.932-2.666-3.652-5.175-3.094-7.142-1.074-.968-1.816-2.413-2.86-3.382l1.072-.433a85 85 0 0 0-3.908-9.343l1.12.54c-.935-2.39-4.34-1.736-5.345-3.938l1.33-1.3c-.782-2.126-1.212-4.396-1.814-6.585a19.2 19.2 0 0 0-2.786-6.18.94.94 0 0 1 1.051.644c-.578-2.056-1.29-8.192-3.325-6.793.73-.24.422-1.363-.233-2.7a63 63 0 0 0-2.176-4.034l1.184.08c-1.9-1.637-2.306-1.61-3.406-4.334-.023-.705.739-.795.677.16.035-2.36-1.536-1.491-1.538-4.334.307.283.596.576.924.855-.434-2.306-.724-2.057-1.806-3.158-.717-1.382-.6-4.463.338-4.994a2.97 2.97 0 0 1-1.73-2.733c.344-.247.678.205.842.433a11.8 11.8 0 0 0-.326-2.599 16 16 0 0 0-.673-2.046c-.485-1.273-.885-2.37-.534-3.794a.82.82 0 0 0 .6-.548c.308 1.78.516 3.576.625 5.38 1.03-.176.826-2.716 2.56-.947-1.067-1.849-3.263-5.025-3.14-7.522.077-.143.184-.269.313-.368l.127.246a3 3 0 0 0-.385-1.507 9.3 9.3 0 0 0 .111-2.064c.83-.385.184-2.91.123-4.174-1.129.22-1.105-1.44-1.895.183.06-.207.164.227.288 1.055q.053.272.171.521l-.107-.074c.112.82.222 1.898.382 3.104-.673-.916-1.263-1.907-.767-3.361-.793-.573-1.614-1.215-2.01-1.581C39.32 5.73 39.821 2.359 40.8 1.836c-.822-3.79-.848-8.986-3.123-11.344-.277-1.092.61-1.277.953-1.691.221.648.174 1.381.491 1.712-.556-2.174-.214-6.47-1.717-7.001.676-2.768 1.385 1.569 1.13-2.233l.461.523c1.126-3.71.44-6.724-.313-9.91a24 24 0 0 1-.728-4.96 12.7 12.7 0 0 1 1.365-5.558c-.246.554-.336.822-.622.932.549-2.338.92-4.715 1.109-7.11.267-2.426.533-4.852.758-7.256.133-1.213.267-2.426.41-3.62l.209-1.802c.121-.59.249-1.181.389-1.765a36 36 0 0 1 2.23-6.8c.944-2.502.034-2.991-.26-4.722l1.333-.28-.695-3.017c-.018-2.034 1.131-3.507 2.191-5.11 1.06-1.602 2.158-3.307 1.935-5.96l-.982.373c.666-1.657 1.21-5.562 1.997-4.97-.109-.211-.642-.827-.026-1.36l.626.148c.038-1.544.252-2.998.396-4.498 1.608-3.046 2.221 1.341 4.03-3.242.395-1.798.057-5.581-.58-5.09-.284.689-1.027 1.638-1.644 1.463l.268-1.718c-1.655-.971-2.983-2.959-5.686.563l.062 3.193-1.217.593.81-2.364c-1.296 1.03-.892 2.147-.742 3.26a2 2 0 0 0-1.384.831l.713 3.329c-.823.09-.952-1.703-2.001.008.395 1.572 1.96-.719 1.819 1.611-1.235 1.075-1.776.472-1.568 2.285-.535.072-.738-.38-.73-1.055.111 1.597-.927 3.829-.191 4.85-1.446 1.109-1.21 4.844-2.872 4.227a9.46 9.46 0 0 1 .45 4.235c-1.463-2.955-1.37 4.897-3.414 3.707.732 1.146.484 2.8.193 4.606-.292 1.805-.656 3.809-.452 5.51-.109-.21-.327-.63-.197-.88-.507 1.787-1.164 2.166-1.78 3.271.757.27 1.088 1.113 1.311 2.103.114.498.197 1.026.296 1.54q.146.732.432 1.422c-1.848 1.965-1.626-1.665-3.196-1.209 1.279.1.693 4.086 1.865 3.493-1.191 1.556-.673 1.394-2.11 2.078 1.928.586.088 1.64 1.114 3.235-1.34 2.327-1.95.386-1.739 3.19-.37.61-.665.291-.863-.193a6 6 0 0 1-.259-1.117m4.393 70.277a30 30 0 0 0-.304-2.336c.368-.245.794-.1.854.441-.3-.256-.342 1.047-.55 1.895m6.373-12.235c.24.814.044 1.113-.175 1.25-.063-.387-.146-.84-.279-1.434l-.15-.083c.22.04.426.132.604.267"/><path fill="#8FADDE" d="M940.439 527.705c1.599-2.579-.924-2.211-1.561-3.347 1.387-3.398 2.108-.692 3.606-1.231.702-2.226.09-4.622 1.046-6.018.345.061.617-.148.778.375-.062-2.85 3.682-6.082 3.508-9.489.196-.072.409-.088.614-.045a5.1 5.1 0 0 1-2.522-1.086c.715-1.166.324-2.82 1.689-2.545-.481.684-.084 1.021.049 1.571l.321-1.517c2.261-.085-.523 1.991.656 2.722 1-2.668 1.48-6.238 3.08-7.755 1.762.611-2.198 4.54.724 3.007l-2.375 2.409c3.776-.587-1.255 1.577 2.576 1.279 2.805-3.363 1.834-4.596 4.668-7.925-.328-1.361-1.43-.547-1.732-1.914 1.923-6.139 6.506-1.518 6.996-6.62-.358-1.655-1.987-3.313.856-5.293l1.066 2.061c2.552-3.357-1.063-3.645 2.562-6.485.216 1.099-1.314 3.106-.761 2.719 2.954-1.431.19-2.321 1.444-4.131l1.747.662c2.344-3.821 4.15-8.595 6.794-12.824.274.538.222 1.551 1.369.946a42 42 0 0 1 5.732-7.927c2.206-2.485 4.673-4.738 6.921-6.815l.156-2.779c.339-.418 1.163-.363 1.05.281 1.899-1.505-.711-.699-.477-1.982.723-1.134 1.796-.844 1.64.105a44 44 0 0 1 3.616-7.356 28 28 0 0 1 2.58-3.555 12.5 12.5 0 0 1 2.955-2.5l-.18.955c2.65-2.242-.06-5.005 3.08-6.541l-.17.644c2.58-2.678 4.98-5.744 7.36-8.551a44 44 0 0 1 3.53-3.847c1.18-1.092 2.5-2.02 3.93-2.757-.99-2.29 5.56-4.869 3.52-7.291 4-2.113 3.6-.867 8.36-4.563 1.17-1.077.11-3.084 1.21-4.746l1.25 1.07.54-3.12 2.42.296.94-1.638c-.58.474-1.61.64-1.88.238 1.43-2.62 5.62-4.368 6.27-3.834l3.7-5.867c.39.593-.24 1.546-.56 2.486 1.3-3.78 1.71.721 2.89-2.752-.57.063-.53-.852-.73-1.134a8.4 8.4 0 0 0 3.14-2.127 23.6 23.6 0 0 0 3.03-3.388l.43 1.171a66 66 0 0 0 5.45-5.734c1.82-2.042 3.67-4.167 5.71-6.126-1.81 1.033-2.86-.682-1.8-1.986l1.74.794c.02-1.52-1.7.733-1.03-1.739 1.65-1.338 2.39.424 1.92 1.676l1.42-2.221c.47.271.21.882.57 1.466.02-1.505 4.38-1.794 4.21-4.193l.46.272c4.12-3.842 5.58-6.019 8.93-9.162-.96-1.14.62-2.123.83-3.943 2.85-1.899 6.44-3.477 9.45-6.209 1.7-2.411-.19-1.505.22-3.015 1.04.908 4.07-1.797 3.09.305a84 84 0 0 0 8.75-8.874c-.87-.023-1.61.258-1.59-.356.74-.864 2.35-1.13 2.62-.509l-.15.29a13.6 13.6 0 0 1 4.19-3.586 52 52 0 0 1 5.31-2.519 38 38 0 0 0 5.03-2.397 8.54 8.54 0 0 0 3.41-3.283l-.17.294c1.27-1.491 2.58-2.944 3.88-4.422 2.31-1.243-.73 1.725 1.34 1.349a16.6 16.6 0 0 1 6.05-4.959c2.05-1.055 4.02-1.948 5.78-3.922 2.73.714 5.65-1.1 8.69-3.114 1.53-.998 3.07-2.062 4.6-2.896 1.38-.808 2.93-1.3 4.53-1.44l-.72-.692c.77-1.465 1.72-.303 2.7-.587-.47-.573-1.7-.05-1.2-.904a61 61 0 0 1 7.73-4.273c2.72-1.231 5.5-2.387 8.36-3.385 2.87-.999 5.71-1.985 8.62-2.92 2.92-.934 5.74-1.867 8.57-2.871 4.08-1.51.33-5.487 6.28-5.571l-.75 2.238c7.31-5.393 16.71-6.765 24.14-11.549-.34.568-.17 1.06-.96 1.355 2.19.541 6.34-2.337 6.01-3.325 1.29-.359.62.774 1.61.983 1.98.071 3.75-3.139 5.11-2.28.23.137-.34.569-.62.78.9-1.019 5.3-1.748 3.71-2.752 3.33-.438 5.64-2.728 8.39-2.766 1.04-2.13 5.51-1.128 5.25-3.512.28 1.179 1.79 1.146 3.42.629 1.56-.464 3-1.279 4.2-2.381-.42.909 1.94.142 1.5 1.351 2.21-.779 4.11-1.894 3.32-2.938 5.02 1.362 7.51-5.023 11-2.243a198 198 0 0 1 17.93-8.588c.48 2.331-6.55 2.325-5.54 4.645 5.36-2.785 8.07-5.699 13.9-6.863 1.56-.129-.53 1.252-.91 1.794 5.41-2.674 11.07-3.145 15.79-5.802.05.221-.44.613-.91.905.98-.359 2.43-.325 2.02-1.343l-.9.566c-2.05-1.071 3.08-4.32 3.04-5.181-.86 3.503 5.26-.672 3.62 3.926.6-.383 1.3-1.121.95-1.784 1.04-.072 1.43.258.69 1.335 3.44-1.59 1.85-2.352 5.13-3.25.12.518-.48.895-.65 1.595 1.37-1.474 2.78-2.884 5.67-3.195-.09.35.35.671-.48.876 4.71-1.409 7.42-4.802 12.9-5.224-.97 2.64 1.97.254 2.74 2.124l2.67-1.267-1.37-.658c2.48-.595 4.31-2.525 6.59-2.416l-1.63 1.251 4.54-1.512-2.77-.094c2.25-1.613-.88-2.38 2.55-2.671-.6.357 2.48-.597 4.05.232 1.07-.944 2.17-1.895 4.13-1.837.63.534.12 2.226.53 2.572.83-1.9 5.71-1.785 6.84-3.862a1.7 1.7 0 0 0-.24.858c0 .302.09.598.25.854l.72-1.543c1.24.159 1.45.336 1.46 1.184 3.51-.551-1.66-2.212 2.69-2.094-.3.182-.11.347-.73.696 4.25-.386 7.78-2.682 11.73-2.824 1.55 1.724-3.21 1.184-1.57 2.565 5.4-1.512 10.85-4.752 16.26-5.409l-1.04-.012c.18-2.941 4.26.565 6.67-1.255-.61.331-.56 1.711-.44 1.367 3.74-.262 7.31-2.131 12.69-4.076l-.56.82c2.26.203 5.73-.695 8.12-.769.56-.822 1.91-.955.93-1.855 7.89 2.822 13.31-4.645 20.3-2.221-.76.128-1.72.921-1.11.822l5.33-1.523c-.62-1.147-.84-.621-2.12-1.388a5.52 5.52 0 0 1 3.37-1.848c-2.32 1.19.34 1.975 1.5 2.458-.24-.341.06-.811-.09-1.179 3.16 1.72.08-2.522 4.21-1.699l-.11.67c1.41-.564 2.62-1.604 4.23-1.641.86 1.315-1.46.879-1.38 2.054 2.19-.398 3.96-3.292 6.17-2.171-.89.528-2.23.728-3.14 1.255 2.42 1.343 2.61.892 4.27.927l-.17-.016 3.84.22-1.01-.317c2.24-4.072 5.52-1.468 8.93-4.405-3.32 2.794-.43 1.404-.49 3.045 1.01.297 2.52.633 2.16 1.13 1.6-1.515 3.07.633 5.32-1.546.17.499 1.88-.187 1.65 1.158 2.24-.69-.65-.83-.54-1.502 3.32-2.17 8.51 1.092 13.34-1.93 4.27-1.467 4.89-3.295 8.88-4.599 1.46.676-.89 1.997-.89 1.997 2 .477 4.11.26 5.98-.617-.38.495.1.833.8 1.343 1.66-.311.92-2.005 3.22-1.461-.34.84-.84 1.607-1.47 2.26 1.93-.698 3.79-1.832 5.79-2.485.63.849-1.1 1.478-1.77 2.133 2.26-.612 5.86-1.349 6.47-2.846l-1.53-.38c.84-.145.55 1.191-.05 1.507-1.86 1.299-2.89-.236-3.05-.746l1.43-.467c-1.79-2.901-5.83.998-8.77 1.165l1-2.338-2.83 2.155c-.7-.517-1.27-1.69.16-2.178-2.21-.838-1.78.984-3.72-.035-.22-.167-.14-.283.03-.393l-1.99.878c.36-.505-.51-1.516.79-1.336-3.84-.872-5.78 2.298-7.37.775l.29-.168c-5.05 1.306-.29 1.647-3.94 4l-3.05-3.666-.29 1.673c-.53.012-1.59.021-1.47-.652-1.84 1.354.42.66-.6 1.851-2.73-1.161-6.93 1.557-7.79-.95-.76 1.341 2.55.64-.05 1.837-1.13-2.669-3.08.864-5.57-.114.53-1.499 2.83-1.037.33-2.02-1.08 2.585-4.59.105-6.49.837.17 1.933-4.15 1.403-7.34 2.507.06-.335-1.53-.379-3.52-.371l-3.15.023c-1.05.006-2.05.015-2.82-.006l.04-.339c-.29 2.032-3.49 2.164-5.72 2.927-.09-1.171.28-1.699 1.41-2.396l-2.15.353c-.41.703-1.03 1.133-2.37 1.571l.32-1.53c-2.86.538-5.5 2.607-9.35 2.251.02 1.366 3.54 3.262-.2 4.848-.27-.704-.62-1.908.35-2.401-.32.159-1.09.817-1.81.627l1.34-1.502c-1.77-.261-.7 1.176-2.06 1.297-.15-1.041-1.12-.56-1.03-1.431.33-.161 1.24.228 1.69-.269-1.55.078-3.49-.216-4.22-.898.09.165.14.349.14.537.01.188-.03.374-.11.543a1.3 1.3 0 0 1-.36.429c-.15.113-.32.19-.51.222-2.84.575-1.19-1.083-2.96-1.343-.57.823-2.52.422-2.27 1.973-.84.141-1.12-.56-1.52-.922-1.36.949-6.88 1.415-4.91 2.771l.4.041a.47.47 0 0 0-.23.111c-4.54 2.464-10.19 1.082-14.87 2.647l-.12-.512c-2.74 1.14-6.3 1.571-8.1 3.136-.84.202-2.19-.522-1.96-1.215-2.1.848-2.22 1.48-5.55 1.295 2-1.36-.92-.635 2.11-1.132-2.93.157-3.75-.537-6.5 1.518.75-1.552-2.5-1.209-3.76-.529l2.19.523c-1.36.436-2.77.722-4.19.851l.35-1.887c-6.28-.799-9.63 5.965-14.84 3.449-1.25 1.555 3.33.129 2.29 1.86-2.7.371-6.06-1.473-6.89-1.286-3.88-.082-2.8 3.353-6.75 3.626.63.498 1.49 2.027-1.2 3.305-2.7.424-3.87-1.81-2.34-2.681.64-.214.98-.09 1 .123.81-.433 1.86-.975.65-1.383l-.19.731c-1.45-.335-5.1.66-4.49-.556-1.87 1.079-.61 1.216.96 1.14-3.63-.04-5.32 1.28-8.97 1.569.64.196 1.34.776.78.917-5.31.592-1.95 1.757-5.34 2.944-2.21-.414.11-2.411-3.16-.713-2.3-.064-.88-1.501-.16-2.223-2.87 2.021-6.16.796-8.04 1.063l1.55-.933c-.81.46-1.68.792-2.59.986l1.29.965c-1.04.051-1.87.266-2-.246-.79 1.068 1.33 1.826-.38 3.45-1.47-.254-3.78 1.79-4.69.3 4.26-.614-.9-1.503 2.5-2.748a5.2 5.2 0 0 1-2.47.672c-.2-.137.04-.375.28-.542-4.33-.327-1.29 2.367-5.35 3.448.26-1.057-1.44-1.457-2.05-1.077 1.66-.446 1.22 1.297-.1 2.424-2.81.032-2.68 1.331-4.07 1.632l1.66-.104c-.27 1.052-1.61 1.304-3.34 2.107-.36-.668 1.5-.953.76-1.084-1.54 2.147-5.03-.33-7.51 1.591-1.48-.227-.63-1.665-1.9-1.737-2.79 2.118-3.78-.222-6.79 1.752 1.32.929 1.39.582-.57 2.467l5.17-2.493-3.06 2.912c1.64-.479 3.22-1.811 4.26-1.898-1.36 1.493-1.28 1.138-.22 1.926-2.79-1.16-4.12 2.362-7.09 1.947l-.82-3.102c-4.32-.187-6.42 3.686-11.69 4.536l1.78.003c-.28 1.44-3.05 1.16-4.52 2.165-.17-1.056-1.3-1.058-2.21-1.491.33.716-3.7 1.111-3.5 3.25l-2.7-.571c-4.22.825-3.66 4.406-7.64 5.37.81-1.476-1.2-1.59 1.15-3.244-1.28.423-2.54.611-2.32 1.339-.97-.37-3.14 2.558-4.65 2.017-.4.624-.21 1.725-1.7 2.13-.22-.144-.16-.488-.16-.488.16.488-2.04 1.437-.39 2.11-2.54-.899-5.28.167-7.95 1.229-2.68 1.061-5.25 2.188-7.46 1.478-2.69 1.334-5.97 2.81-8.47 3.871.05-.355-.17-.493.34-.57-3.84.385-1.1 3.624-5.46 4.092-2.63-.827 1.79-1.664.29-1.785-1.76-3.036-4.63 2.26-8.02 1.392l.58-.442c-2.47-.303-4.52 3.145-7.92 4.23a.52.52 0 0 0-.17-.493c-1.63 2.551-5.72 4.803-8.72 6.59.47-1.663 1.17-1.263.04-2.286-1.35.77 1.26 1.876-1.43 3.401-1.21-.31-3.51-.04-4.35-1.275l2.65-1.209c-2.12-1.183-3.45 1.517-4.99 1.825l-.14-.842c-4.02 1.988-3.22 3.962-7.67 5.747l.71.377c-1.54 2.942-2.48-.177-4.22 2.312l-1.59-1.591-3.18 2.821a35 35 0 0 1-4.08 3.233c.9-2.151 3.84-4.449 5.5-6.207-1.57.68-5.22 2.628-5.59 3.93.57-.487 1.11-1.316 1.87-1.319-1.2 2.406-3.35 4.288-6.41 5.779-.63-1.966-2.75-1.21-5.16-.178s-5.07 2.415-6.92 1.579c-2.34 2.097-5.07 3.365-7.98 4.607s-6 2.42-9 4.348c3.78 1.46-1.75 1.107.29 3.713-1.3 1-1.87 1.282-2.1 1.192l-5.27.953c-1.51-.177.96-1.431.45-1.972-3.23 1.689-2.03-.382-4.55.156 1.04.716-.18 2.1-2.16 2.85l3.27-.321c-1.66 2.108-2.93 2.117-4.25 2.148-1.33.031-2.63.043-4.28 2.203l.78-1.758c-.92.997-2.96 2.33-4.81 3.901-1.86 1.571-3.55 3.37-3.81 5.194-.59-.035-1.62-.399-.81-1.264a24.6 24.6 0 0 0-3.83 3.081c-1.22 1.177-2.39 2.44-3.55 3.651-2.29 2.445-4.53 4.648-6.91 5.537l-.12-.916c-.78.873-.66 2.433-2.3 2.712-.15-.3-.14-.913-.59-.612-.3.608-1.51 3.045-3 3.656l.45-1.52c-5.39 3.068-5.78 7.664-9.25 11.385-1.52-1.771-5.64.805-7.67 2.135l-.16-.304c-5.48 4.528-7.57 9.55-11.66 14.715-4.71.956-10.62 8.768-16.18 12.43 1.01-.414 1.19 1.4.58 2.378-1.42.753-1.8 4.136-3.18 2.464l.41-.359c-2.33-.672-4.11 1.997-5.85 3.732l1.76 2.238c-3.69.888-6.36 4.171-8.64 7.295-2.27 3.125-4.29 5.97-6.83 6.014-.52 1.625-1.81 3.046-2.32 4.67l-1.06-1.073c-3.15 2.944-4.78 4.372-7.97 8.63l-.1-1.532c-2.04 2.205.8 5.715-.93 7.84l-2.26-.827c-1.72 1.962-3.77 3.649-5.63 5.516s-3.546 3.856-4.411 6.484a1.2 1.2 0 0 1-.34-.734c-.024-.277.05-.554.208-.783-1.616 1.849-7.199 6.402-4.231 7.655-1.606-1.218-3.579 4.029-4.601 6.804l-.889-1.266c.044 3.039.378 3.425-1.256 6.342-.643.497-1.366-.193-.421-.777-2.231 1.579-.157 2.458-2.731 4.469l-.028-1.515c-1.738 2.057-1.193 2.207-1.215 4.056-.552 1.703-3.389 3.819-4.697 3.325a3.15 3.15 0 0 1-.85 3.632c-.54-.13-.442-.778-.389-1.099-3.512 2.992-2.583 6.394-5.628 8.019a1.09 1.09 0 0 0-1.029-.109c2.158-2.851 3.934-5.122 3.858-4.837-1.097-.819-3.011 1.363-3.139-1.623-.555 2.492-1.102 7.011-3.294 8.896a1.7 1.7 0 0 1-.606.023l.045-.326c-.442.423-.74.974-.85 1.576a9.5 9.5 0 0 0-1.663 1.655c-1.124-.415-2.431 2.347-3.286 3.478 1.292.772 0 2.166 2.038 1.442-.217.128.011-.324.516-1.138a2.2 2.2 0 0 0 .236-.592q.024.08.039.162c.493-.804 1.204-1.819 1.999-2.97-.039 1.381-.208 2.703-1.813 3.515q.484 1.495.812 3.033a15 15 0 0 0-4.228 1.532c-1.297.635-2.41 1.177-3.086 1.024-1.807 4.11-5.461 8.856-4.625 12.727-.389 1.238-1.47.745-2.095.888.169-.726.676-1.444.558-1.992-.778 2.477-3.874 6.314-2.56 7.89-2.483 2.133-.549-2.48-2.65 1.323l-.197-.816c-3.631 2.725-4.455 6.324-5.42 9.936-.966 3.612-1.982 7.298-6.199 10.247.583-.435.828-.645 1.179-.586a41 41 0 0 0-4.689 6.696c-1.383 2.389-2.667 4.823-3.946 7.27-2.549 4.912-5.128 9.756-8.897 13.796-1.95 2.403-.97 3.305-.973 5.376l-1.74-.15.236 3.666a5.9 5.9 0 0 1-1.372 2.86c-.693.804-1.537 1.522-2.352 2.307-1.639 1.554-3.2 3.376-3.124 6.518l1.309-.274a39 39 0 0 0-1.417 3.707c-.442 1.244-.908 2.165-1.432 1.784.112.268.817 1.024.008 1.575l-.819-.234c-.098 1.764-.247 3.487-.292 5.239-.89 1.756-1.644 1.362-2.412 1.197-.768-.164-1.572-.108-2.474 2.653a11.3 11.3 0 0 0 .371 4.024c.312 1.296.783 2.197 1.141 1.884.263-.817 1.068-1.984 1.902-1.829l-.063 1.962c2.295.97 4.453 2.856 7.262-1.001-.225-1.138-.395-2.27-.59-3.423l1.44-.614-.669 2.533c1.521-1.106.783-2.286.461-3.538a2.25 2.25 0 0 0 1.675-.835 87 87 0 0 1-1.262-3.673c1.045-.025 1.364 1.927 2.556.173-.554-1.731-2.513.605-2.396-1.932 1.578-1.065 2.302-.287 2.027-2.284.687-.001.93.496.946 1.246-.173-1.747 1.221-3.975.313-5.237 1.883-.913 1.79-5.065 3.891-3.96a8.56 8.56 0 0 1 .023-4.668c.697 1.807 1.325.593 2.082-.83s1.69-3.026 2.871-2.062c-1.386-2.902 2.257-6.837 2.727-10.59.066.272.249.804-.016 1.018 1.15-1.648 2.087-1.777 3.134-2.653-1.675-1.249-.601-4.181-.873-6.282 2.975-1.114 1.387 2.511 3.426 2.815-1.55-.73.658-4.518-.982-4.507 2.028-.996 1.345-1.092 3.326-1.055-2.098-1.606.513-1.72-.068-3.877 2.504-1.672 2.467.654 3.319-2.314 1.389-.739.82 2.01.82 2.01m35.364-61.726a41 41 0 0 0-.801 1.242zm3.538-4.828a26 26 0 0 0-1.568 2.051c-.548-.136-.84-.635-.458-1.104.062.486 1.143-.474 2.029-.934zm-15.919 4.21c.388-.902.813-.991 1.153-.922q-.452.713-.829 1.468a.5.5 0 0 0 .083.199 2 2 0 0 1-.403-.732z"/></g><defs><clipPath id="a"><path fill="#fff" d="M0 0h1440v342H0z"/></clipPath></defs></svg>