<svg width="1440" height="342" viewBox="0 0 1440 342" fill="none" xmlns="http://www.w3.org/2000/svg">
<g clip-path="url(#clip0_8974_67237)">
<path d="M31.0555 -47.7076C30.8218 -46.3205 31.2058 -45.9478 31.6525 -45.8363C32.0992 -45.7249 32.7296 -45.8765 33.1314 -45.5282C33.2295 -42.1782 31.8868 -44.1202 31.0091 -43.0778C31.195 -40.9552 32.4164 -39.2325 32.2058 -37.7126C31.9499 -37.618 31.8271 -37.3255 31.5551 -37.703C32.0595 -36.5539 31.8594 -34.9403 31.8266 -33.2686C31.7939 -31.597 31.8043 -29.8714 32.4897 -28.5646C32.3922 -28.4266 32.2588 -28.3178 32.1039 -28.2501C32.7384 -28.5754 33.4624 -28.683 34.1641 -28.5561C34.128 -27.3174 34.9979 -26.2282 33.996 -25.8077C34.0635 -26.5595 33.6687 -26.6445 33.3726 -27.0095L33.7436 -25.6768C32.2826 -24.5683 33.3417 -27.4662 32.3025 -27.5143C32.4698 -26.2362 32.8082 -24.8485 33.0425 -23.5441C33.1542 -22.9207 33.2262 -22.2907 33.2582 -21.6581C33.3254 -21.1192 33.3131 -20.5733 33.2217 -20.0379C32.5522 -19.8584 32.4054 -20.9795 32.2867 -21.8405C32.168 -22.7016 32.1801 -23.3103 31.509 -22.0167L32.1822 -25.0118C29.8992 -22.783 32.4245 -26.838 29.9993 -24.8099C29.3681 -20.8224 30.5805 -20.3227 30.1549 -16.3503C30.916 -15.4564 31.286 -16.6396 32.053 -15.7487C32.7424 -12.9494 31.8748 -11.8436 31.0684 -10.8992C30.6467 -10.4852 30.315 -9.98862 30.0939 -9.44062C29.944 -8.64688 30.0977 -7.8258 30.5246 -7.14004C31.4844 -6.1128 33.2547 -5.75757 32.4659 -2.80918L30.8566 -3.73597C30.8958 0.132614 33.2033 -1.66664 32.3556 2.41793C31.7099 1.74631 31.6907 -0.569477 31.533 0.0232273C30.9807 1.36958 31.2296 1.82003 31.6225 2.18054C31.9064 2.35502 32.1466 2.59231 32.3245 2.87415C32.5024 3.15598 32.6133 3.47485 32.6487 3.80626L31.3183 4.32852C31.615 6.37072 32.1367 8.47922 32.6593 10.6483C33.1819 12.8173 33.6567 15.0264 34.1648 17.2411C33.7199 17.0448 33.1765 16.3354 32.9174 17.4382C33.6612 20.338 34.1238 23.3028 34.299 26.2914L34.3734 27.4347L34.484 28.5593L34.6656 30.806C34.7662 32.2789 34.8547 33.7581 34.9239 35.1557L36.5041 36.9821C36.5869 37.4653 36.1588 37.9924 35.8278 37.5159C35.8031 39.7324 36.5689 37.4747 37.2453 38.382C37.5626 39.5671 36.8953 40.0886 36.3951 39.433C37.5716 41.6268 38.5888 43.9024 39.4388 46.2422C40.3266 48.5943 40.8394 51.0713 40.9584 53.5826L40.3948 52.937C40.8438 56.0669 43.7645 55.5967 43.5436 58.6699L43.1794 58.203C43.5491 59.8566 44.0249 61.5237 44.5428 63.1691L46.2856 67.9994C46.8448 69.5775 47.3551 71.12 47.7221 72.592C47.9058 73.3432 48.059 74.0796 48.1726 74.7984C48.321 75.4796 48.4243 76.1699 48.4817 76.8647C50.4503 77.1171 50.3943 83.3455 52.7596 82.7897C53.1797 86.8192 52.3196 85.9842 53.9698 91.3124C54.5351 92.6815 56.2779 92.6163 57.3233 94.1025L56.2335 94.7211L58.5634 96.273L57.8708 98.1573L59.0047 99.4907C58.7351 98.868 58.7731 97.9562 59.1505 97.8901C60.0475 99.0163 60.6814 100.329 61.0058 101.732C61.3732 103.028 61.4412 104.144 61.1898 104.336L62.2493 105.555L63.3538 106.744C64.0981 107.532 64.8153 108.327 65.5714 109.094C65.0624 109.274 64.3302 108.479 63.5928 107.954C65.0678 109.019 64.8847 109.328 64.677 109.618C64.4694 109.909 64.2133 110.195 65.6289 111.13C65.6152 110.619 66.3669 110.877 66.6168 110.786C66.914 111.94 67.4566 113.016 68.2076 113.941C69.0461 115.116 70.0103 116.196 71.0831 117.162L70.0895 117.334C73.0472 121.199 77.3366 124.632 81.6859 128.019C80.3942 126.455 81.7106 125.597 83.0102 126.47L82.7017 127.919C84.015 127.878 81.6848 126.517 83.9684 126.98C85.5042 128.265 84.1981 128.996 82.9697 128.642L85.2807 129.731C85.1748 130.144 84.5759 129.974 84.1691 130.307C84.8374 130.258 85.4963 131.205 86.368 132.003C87.2396 132.802 88.1874 133.629 89.1831 133.403L89.1106 133.822C91.0958 134.933 93.1777 135.862 95.3309 136.596C96.2434 136.886 97.0959 137.206 98.0385 137.48C98.9811 137.753 99.9575 138.063 101.067 138.364C101.484 137.286 103.115 138.064 104.629 137.455C107.695 138.587 111.222 140.036 115.187 140.168C117.996 139.703 116.042 139.229 117.289 138.59C117.378 139.1 118.406 139.391 119.153 139.568C119.9 139.744 120.39 139.894 119.37 140.294C121.219 140.213 123.063 140.021 124.889 139.719C125.704 139.555 126.562 139.37 127.566 139.131C128.571 138.892 129.728 138.536 131.129 138.046C130.431 137.759 129.697 137.667 129.97 137.282C130.973 136.937 132.404 137.255 132.363 137.779L132.098 137.916C135.184 136.514 138.971 136.289 142.671 135.704C144.457 135.471 146.217 135.069 147.927 134.503C149.438 134.012 150.799 133.144 151.88 131.98L151.66 132.216C153.172 131.007 154.608 129.705 155.958 128.317C157.081 127.643 156.88 128.021 156.63 128.51C156.38 128.998 156.065 129.565 157.081 129.275C158.916 127.199 160.869 125.232 162.93 123.381C163.796 122.526 164.592 121.603 165.311 120.621C165.672 120.107 165.983 119.56 166.241 118.988C166.541 118.389 166.772 117.758 166.927 117.107C169.284 115.976 170.724 112.224 171.181 108.312C171.398 106.38 171.503 104.436 171.494 102.492L171.52 101.807L171.519 101.129C171.525 100.684 171.537 100.251 171.597 99.8078C171.648 99.0065 171.743 98.2086 171.882 97.4179L171.207 97.8366C171.032 97.626 170.917 97.3719 170.875 97.1011C170.832 96.8304 170.864 96.5533 170.966 96.2992C171.179 95.8709 171.3 95.4031 171.321 94.9255C170.805 95.1935 171.007 96.6134 170.435 95.7893C169.695 92.7987 168.691 89.8795 167.436 87.0661C167.11 86.3504 166.8 85.6345 166.405 84.947C166.011 84.2596 165.673 83.5349 165.248 82.8631C164.823 82.1912 164.395 81.4982 163.955 80.8265L162.528 78.898C158.541 73.7966 153.29 69.8252 147.295 67.377C146.847 67.177 146.366 67.057 145.876 67.0226C145.52 66.9926 145.16 67.0194 144.812 67.102C144.265 67.2623 143.746 67.5081 143.276 67.8302C142.792 68.1519 142.222 68.3197 141.642 68.3115C141.236 68.2853 140.835 68.2088 140.449 68.084C139.87 67.9159 139.308 67.6973 138.768 67.4308C139.346 67.0649 139.943 66.7019 140.559 66.3415C139.385 66.371 138.251 66.3031 137.069 66.36L135.334 66.3675L133.597 66.4296C132.447 66.4315 131.292 66.5728 130.13 66.6263C129.556 66.6651 128.979 66.7584 128.402 66.8215C127.824 66.8846 127.247 66.9324 126.676 67.0529C124.357 67.3995 122.086 68.0122 119.907 68.879C117.625 69.7734 115.543 71.1122 113.783 72.8177C114.064 72.2141 113.851 71.8751 114.66 71.3333C113.518 71.4835 111.819 72.7076 110.781 74.1459C109.743 75.5842 109.213 77.0029 109.504 77.2408C108.989 77.8206 108.837 77.8229 108.627 77.6958C108.519 77.5925 108.375 77.5345 108.226 77.5339C108.077 77.5333 107.933 77.5901 107.824 77.6925C106.964 78.4591 106.609 79.848 106.339 81.0176C106.254 81.561 106.133 82.0979 105.975 82.6245C105.892 83.0187 105.665 83.3677 105.338 83.6027C105.122 83.7149 105.217 82.9567 105.269 82.5714C105.292 83.3219 104.741 84.759 104.538 85.9398C104.334 87.1205 104.319 87.9745 104.969 87.4925C104.475 89.022 104.262 90.6284 104.34 92.2339C104.357 92.9875 104.38 93.6926 104.351 94.3863C104.354 95.0569 104.278 95.7256 104.126 96.3787C104.777 97.1926 104.682 98.5382 104.691 99.746C104.7 100.954 104.784 101.985 105.71 102.153C103.707 102.246 104.951 107.701 106.078 109.404C105.431 108.863 105.774 111.141 104.902 110.533C105.022 111.495 105.299 112.431 105.721 113.303C106.07 113.976 106.484 114.303 106.904 114.024C106.258 116.205 107.133 118.099 107.873 119.759C108.25 120.509 108.555 121.293 108.782 122.101C108.871 122.48 108.877 122.873 108.797 123.254C108.718 123.635 108.557 123.994 108.324 124.306C109.007 125.797 109.658 127.259 110.285 128.703L112.318 132.872L114.227 136.922C114.91 138.238 115.58 139.53 116.244 140.81C115.355 141.065 114.703 139.603 114.065 138.196C113.426 136.788 112.903 135.397 112.023 135.846C112.334 136.447 112.646 137.048 113 137.627C113.353 138.206 113.687 138.674 114.018 139.165L115.949 141.976C116.574 142.893 117.146 143.843 117.663 144.824C118.29 145.893 118.825 147.014 119.262 148.173C119.646 149.545 118.203 147.792 117.696 147.461C118.434 148.598 119.111 149.775 119.722 150.985C120.034 151.586 120.345 152.187 120.596 152.758L121.49 154.483C122.083 155.624 122.717 156.729 123.368 157.794C123.697 158.325 124.038 158.85 124.396 159.35C124.742 159.866 125.133 160.349 125.565 160.795C125.415 160.873 124.962 160.529 124.602 160.159C125.141 160.962 125.535 162.207 126.166 161.704L125.484 161.021C125.734 159.122 129.633 162.948 130.256 162.739C127.385 162.627 132.237 167.103 128.357 166.546C128.821 166.999 129.581 167.436 129.957 167.027C130.33 167.894 130.242 168.313 129.17 167.878C131.509 170.477 131.529 168.942 133.284 171.516C132.951 171.742 132.463 171.317 131.894 171.322C132.698 171.727 133.46 172.211 134.168 172.766C134.556 173.088 134.909 173.449 135.223 173.843C135.607 174.295 135.951 174.78 136.249 175.293C135.962 175.312 135.89 175.747 135.402 175.13C136.772 176.688 138.288 178.11 139.931 179.377C140.311 179.698 140.682 180.032 141.05 180.375C141.419 180.717 141.824 181.057 142.192 181.43C143.006 182.223 143.723 183.111 144.327 184.074C142.06 184.114 144.975 185.721 144.012 186.922C144.704 187.493 145.376 188.082 146.117 188.613L145.931 187.344C147.504 189.053 149.715 189.774 150.72 191.563L149.088 190.74C150.15 191.714 151.194 192.698 152.274 193.663C151.83 192.955 151.42 192.207 150.994 191.49C153.173 192.647 152.168 189.989 154.012 192.456C153.45 192.138 155.649 194.04 155.898 195.519C157.237 195.88 158.41 196.695 159.214 197.826C159.209 198.492 157.824 198.821 157.815 199.26C159.49 199.093 162.151 202.547 164.099 202.452C163.862 202.442 163.627 202.51 163.432 202.646C163.237 202.781 163.091 202.977 163.017 203.204L164.392 203.032C164.991 203.98 165.016 204.234 164.443 204.599C166.836 206.759 164.869 202.48 167.326 205.483C167.034 205.36 167.052 205.572 166.473 205.308C167.847 206.565 169.343 207.682 170.939 208.642L172.083 209.376C172.458 209.615 172.843 209.843 173.216 210.091C173.961 210.57 174.662 211.112 175.314 211.71C175.293 213.551 172.568 210.252 172.799 211.978C173.908 212.645 175.044 213.276 176.218 213.88C177.393 214.483 178.573 215.083 179.798 215.592C182.167 216.564 184.431 217.773 186.557 219.2C186.321 219.01 186.091 218.801 185.861 218.593C187.513 217.103 188.508 221.3 191.177 221.639C190.573 221.487 189.903 222.299 190.162 222.165C192.913 224.177 196.533 224.908 201.356 226.562L200.554 226.78C202.139 228.085 205.212 229.16 207.066 230.265C207.865 230.01 208.948 230.585 208.585 229.546C209.707 230.786 211.106 231.746 212.668 232.346C214.128 232.9 215.636 233.318 217.173 233.593C220.244 234.09 223.175 234.537 225.581 236.66C224.897 236.488 223.842 236.616 224.366 236.802C226.008 237.132 227.656 237.383 229.311 237.706C229.19 236.694 228.834 236.978 228.038 235.988C229.137 235.616 230.324 235.598 231.434 235.934C229.139 235.92 231.038 237.39 231.831 238.169C231.747 237.846 232.147 237.631 232.154 237.322C233.18 238.491 233.412 238.057 233.769 237.583C234.125 237.108 234.611 236.605 236.184 237.565L235.882 237.997C237.227 238.061 238.557 237.715 239.911 238.194C240.241 239.388 238.463 238.343 238.146 239.201C239.175 239.305 240.215 239.237 241.222 239.001C242.234 238.865 243.208 238.787 243.985 239.505C243.093 239.624 241.879 239.43 241 239.528C242.639 241.218 242.97 240.901 244.376 241.392L244.233 241.336L247.481 242.557L246.687 242.054C248.192 240.884 249.448 241.056 250.837 241.235C252.227 241.415 253.667 241.781 255.468 241.121C251.971 242.363 254.779 242.043 254.354 243.224C255.161 243.69 256.42 244.265 255.991 244.556C256.863 244.18 257.483 244.491 258.228 244.722C258.679 244.887 259.159 244.954 259.638 244.919C260.116 244.883 260.582 244.747 261.004 244.518C261.061 244.923 262.709 244.747 262.241 245.698C264.366 245.618 261.849 244.941 262.054 244.484C263.733 243.972 265.553 244.644 267.592 245.135C269.631 245.625 271.883 246.058 274.228 245.3C278.258 244.734 279.031 243.357 282.692 242.816C283.922 243.482 281.656 244.23 281.656 244.23C283.408 244.814 285.3 244.829 287.061 244.271C286.679 244.622 287.074 244.912 287.658 245.349C289.179 245.223 288.651 243.896 290.664 244.454C290.285 245.075 289.789 245.617 289.204 246.049C290.097 245.861 290.983 245.569 291.863 245.296C292.743 245.022 293.646 244.661 294.563 244.444C295.087 245.102 293.486 245.544 292.846 246.029C294.919 245.617 298.239 245.122 298.81 244.003L297.455 243.684C298.177 243.606 297.922 244.585 297.354 244.827C295.587 245.743 294.756 244.581 294.638 244.192L295.941 243.867C295.203 242.724 293.913 242.898 292.445 243.346C290.978 243.795 289.343 244.391 288.016 244.347L289.093 242.645L286.383 244.051C285.795 243.593 285.412 242.679 286.713 242.408C284.823 241.588 285.036 243.041 283.429 242.105C283.251 241.954 283.314 241.883 283.498 241.811L281.652 242.265C282.022 241.92 281.37 241.061 282.488 241.335C279.236 240.269 277.143 242.453 275.958 241.138L276.235 241.04C271.644 241.363 275.739 242.274 272.212 243.501L270.112 240.29L269.569 241.494C269.102 241.416 268.182 241.26 268.426 240.76C266.599 241.486 268.677 241.316 267.573 242.056C265.41 240.738 261.265 241.904 260.981 239.901C260.055 240.747 263.057 240.86 260.565 241.245C260.349 240.153 259.659 240.19 258.74 240.301C257.822 240.411 256.756 240.621 255.802 239.987C256.593 238.997 258.437 239.863 256.532 238.587C255.028 240.229 252.618 237.567 250.854 237.666C250.521 239.127 247.029 237.553 244.06 237.476C244.131 237.363 243.835 237.188 243.314 236.978C242.794 236.768 242.054 236.518 241.235 236.204C239.594 235.598 237.601 234.901 236.348 234.323L236.493 234.103C236.07 234.757 235.172 234.865 234.133 234.771C233.093 234.677 231.943 234.313 230.908 234.156C231.232 233.309 231.67 233.082 232.832 232.998L230.998 232.477C230.416 232.825 229.793 232.889 228.55 232.71L229.323 231.775C228.104 231.439 226.763 231.456 225.4 231.21C223.905 231.019 222.464 230.529 221.161 229.771C220.639 230.69 222.737 233.353 219.167 232.895C219.228 232.322 219.429 231.371 220.366 231.442C220.062 231.416 219.198 231.544 218.684 231.14L220.318 230.689C219.04 229.827 219.321 231.206 218.199 230.72C218.488 229.983 217.557 229.879 217.936 229.331C218.243 229.378 218.806 229.994 219.346 229.843C219.026 229.695 218.715 229.531 218.412 229.352C218.115 229.163 217.83 228.957 217.558 228.735C217.103 228.406 216.732 227.973 216.477 227.473C216.429 227.94 216.101 228.484 215.144 228.225C212.736 227.362 214.675 227.012 213.428 226.065C212.652 226.361 211.358 225.248 210.862 226.336C210.174 226.053 210.268 225.47 210.129 225.054C208.723 225.021 204.454 222.728 205.277 224.521L205.549 224.738C205.501 224.762 205.41 224.703 205.331 224.698C204.225 224.532 203.15 224.2 202.143 223.713C201.14 223.197 200.166 222.625 199.227 222.001C197.405 220.731 195.482 219.611 193.479 218.653L193.674 218.308C192.448 217.884 191.164 217.246 189.941 216.698C189.326 216.422 188.726 216.177 188.151 215.98C187.65 215.786 187.129 215.649 186.597 215.573C185.943 215.149 185.46 213.997 185.98 213.765C184.164 212.984 183.726 213.242 181.689 211.195C183.742 211.655 181.451 210.311 183.678 211.825C182.7 210.998 182.176 210.401 181.536 209.886C180.726 209.256 179.77 208.839 178.757 208.674C180.111 208.345 177.941 206.528 176.778 206.094L177.804 207.704C176.719 207.086 175.699 206.361 174.76 205.539L176.093 204.847C174.532 202.645 172.318 201.773 170.228 200.89C169.716 200.667 169.228 200.432 168.731 200.194C168.283 199.943 167.857 199.653 167.459 199.329C166.631 198.643 166.046 197.709 165.788 196.665C164.165 196.478 167.478 198.999 165.838 199.041C164.135 197.332 163.542 194.292 163.014 193.788C161.193 191.012 159.478 193.144 157.36 190.414C157.339 191.051 156.734 192.264 154.556 190.801C153.024 188.92 153.98 187.249 155.291 188.072C155.711 188.456 155.789 188.767 155.657 188.865C156.293 189.298 157.191 189.839 156.873 188.829L156.318 188.949C155.861 187.745 153.583 185.411 154.683 185.428C153.121 184.446 153.583 185.411 154.312 186.551C152.74 183.859 151.009 183.124 149.373 180.397C149.491 180.946 149.365 181.674 149.084 181.309C146.547 177.417 147.069 180.364 144.868 178.105C144.305 176.27 146.606 177.516 144.192 175.405C143.414 173.582 144.951 174.295 145.706 174.62C143.25 172.943 142.947 170.065 142.131 168.682C142.517 169.015 142.939 169.315 143.341 169.632C143.012 169.376 142.708 169.089 142.432 168.777C142.191 168.475 141.987 168.169 141.776 167.866L141.477 169.127C141.114 168.309 140.699 167.701 141.035 167.481C140.006 167.099 140.122 168.984 138.391 167.998C138.124 166.749 135.908 165.329 136.743 164.278C138.451 167.571 137.578 163.227 139.516 165.669C138.976 165.159 138.554 164.537 138.281 163.846C138.326 163.655 138.567 163.797 138.77 163.951C138.25 162.2 137.712 162.074 137.087 161.987C136.462 161.899 135.678 161.872 134.701 160.327C135.552 160.335 135.419 158.887 134.976 158.461C135.734 159.715 134.329 159.697 133.144 158.824C132.405 156.531 131.381 156.894 130.888 155.754C131.037 156.203 131.181 156.67 131.36 157.104C130.46 157.075 130.008 155.967 129.004 154.635C129.431 154.238 130.062 155.763 130.016 155.116C128.03 154.11 129.172 150.872 127.235 149.033C127.164 147.75 128.39 148.319 128.249 147.241C126.192 145.097 127.827 144.059 125.855 141.727C125.351 142.888 125.603 142.947 123.873 141.42C124.745 142.821 125.691 144.19 126.59 145.57L123.95 143.317C124.581 144.667 125.859 145.896 126.096 146.779C124.737 145.761 125.028 145.808 124.583 146.801C124.8 145.56 124.164 144.731 123.474 143.899C123.104 143.485 122.765 143.044 122.461 142.579C122.175 142.064 122.022 141.486 122.016 140.897L124.249 140.013C123.928 136.366 120.638 134.741 119.761 130.14L119.85 131.664C118.747 131.405 118.791 129.034 117.936 127.754C118.752 127.636 118.705 126.677 119.008 125.925C118.474 126.202 118.152 122.716 116.5 122.75L116.991 120.52C116.874 119.764 116.611 119.038 116.217 118.382C115.894 117.858 115.512 117.373 115.079 116.937C114.077 115.998 113.427 114.745 113.237 113.385C114.321 114.256 114.526 112.564 115.652 114.748C115.405 113.596 115.316 112.528 114.769 112.621C114.936 112.237 114.495 111.49 114.081 110.691C113.666 109.891 113.362 108.997 113.653 108.396C113.229 107.96 112.372 107.94 112.225 106.598C112.365 106.426 112.618 106.546 112.618 106.546C112.228 106.604 111.755 104.546 111.057 105.831C111.504 104.778 111.695 103.633 111.613 102.492C111.601 101.309 111.432 100.07 111.304 98.8396C111.029 96.3975 110.932 93.9617 112.113 92.5334C111.972 90.0452 112.292 87.5524 113.058 85.1807C113.231 85.3961 113.414 85.3238 113.204 85.669C113.552 85.27 113.747 84.7609 113.755 84.2319C113.737 83.8602 113.644 83.4959 113.482 83.1611C113.306 82.7919 113.248 82.3772 113.316 81.9738C113.48 81.3458 113.864 80.7975 114.398 80.4288C115.444 80.1378 115.267 80.6339 115.037 81.0733C114.808 81.5127 114.443 81.9995 114.92 81.6987C115.119 81.8403 115.355 81.9205 115.6 81.9292C115.844 81.938 116.086 81.8749 116.295 81.748C116.645 81.4177 116.943 81.0367 117.18 80.6177C117.738 79.6648 118.669 78.5339 119.97 78.6448C119.853 78.7737 119.75 78.9115 119.633 79.0403C120.52 79 121.191 78.3391 122.103 77.5687C123.077 76.6554 124.27 76.008 125.566 75.6887C125.546 75.7556 125.543 75.8266 125.559 75.8948C125.574 75.963 125.607 76.0261 125.654 76.078C126.094 75.5913 126.616 75.1841 127.195 74.8744C127.513 74.7092 127.85 74.5347 128.198 74.3539C128.547 74.1732 128.927 74.0676 129.309 73.9378C129.692 73.808 130.084 73.6811 130.482 73.5662C130.879 73.4513 131.287 73.3999 131.686 73.3153C132.084 73.2307 132.492 73.1489 132.885 73.0977C133.277 73.0464 133.661 73.0074 134.03 72.9687C133.101 73.9846 132.715 73.4908 133.257 74.5514C133.886 74.4846 133.774 74.0775 133.867 73.625C133.96 73.1726 134.156 72.7125 135.518 72.6318C135.934 72.9495 136.611 73.2695 137.174 73.6487C137.445 73.8021 137.68 74.012 137.864 74.2641C138.047 74.5163 138.174 74.8049 138.237 75.1104C137.839 75.0648 137.427 75.0194 137.054 74.9614L135.875 74.8941C136.422 75.6701 137.152 75.6956 137.924 75.669C138.696 75.6424 139.507 75.4124 140.086 75.6915L139.804 76.28C141.061 76.4635 142.339 76.4466 143.591 76.2299C144.941 76.0859 146.304 76.3516 147.502 76.9924L147.32 76.3926C148.687 76.0877 148.991 76.5555 149.273 77.0115C149.404 77.2616 149.586 77.4816 149.806 77.6576C150.18 77.8845 150.607 78.0077 151.044 78.0146C150.952 78.5882 150.87 79.1495 150.736 79.6994C151.842 80.0107 152.926 80.3931 153.983 80.8442C154.621 81.1617 155.325 81.4752 155.96 81.8624C156.563 82.2423 157.145 82.6562 157.701 83.1021C157.157 83.0232 156.623 82.8859 156.109 82.6928C155.582 82.5008 155.051 82.2422 154.464 82.0208C153.876 81.7994 153.364 81.5467 152.819 81.3489C152.274 81.1511 151.763 81.0042 151.307 80.8899C152.447 81.6177 154.884 83.6101 155.935 83.6369C155.419 83.363 154.692 83.1376 154.445 82.6024C155.647 82.7764 156.794 83.2198 157.8 83.8996C158.806 84.5793 159.646 85.4778 160.256 86.5277C159.951 86.6532 159.706 86.8882 159.567 87.1862C159.427 87.4843 159.405 87.8237 159.504 88.1374C159.586 88.5377 159.711 88.9278 159.879 89.3004C160.046 89.7248 160.216 90.2007 160.414 90.67L160.721 91.3951C160.813 91.645 160.883 91.8983 160.963 92.1545C161.122 92.6398 161.246 93.1356 161.336 93.6384C161.435 94.6239 161.412 95.4902 160.909 96.0941C162.003 98.2032 162.12 100.605 161.822 102.956C161.422 105.383 160.826 107.773 160.039 110.103C160.783 109.877 161.094 109.815 161.238 109.916C161.382 110.017 161.31 110.26 161.211 110.54C161.028 111.1 160.779 111.854 161.995 112.169C161.627 113.458 161.351 113.868 161.143 113.923C160.643 114.405 160.112 114.854 159.552 115.266C159.017 115.69 158.451 116.073 157.859 116.411C156.773 116.67 158.104 115.164 157.574 114.95C155.891 116.852 156.169 115.183 154.598 115.991C155.474 116.299 154.969 117.514 153.639 118.272C154.405 118.088 155.174 117.865 155.936 117.6C155.127 119.422 154.085 119.604 153.133 119.709C152.506 119.728 151.894 119.9 151.349 120.211C150.804 120.521 150.344 120.96 150.008 121.49C150.204 121.045 150.41 120.618 150.573 120.168C149.414 121.202 148.151 122.112 146.804 122.885C145.236 123.919 143.621 125.024 143.023 126.371C142.555 126.248 141.849 125.798 142.65 125.284C140.234 126.079 137.727 127.554 135.233 128.627C132.74 129.699 130.197 130.576 128.125 130.255L128.409 129.597C127.508 129.904 126.928 131.005 125.661 130.519C125.694 130.258 125.967 129.872 125.531 129.885C125.034 130.169 124.518 130.416 123.986 130.625C123.306 130.894 122.57 130.99 121.843 130.905L122.877 130.148C120.798 129.982 118.708 130.22 116.72 130.848C115.803 131.11 114.908 131.338 113.963 131.561C112.978 131.763 111.973 131.857 110.967 131.842C111.09 130.962 110.216 130.203 109.115 129.607C108.553 129.319 107.958 128.995 107.379 128.746C106.8 128.497 106.246 128.282 105.816 128.07L105.943 127.844C103.261 127.085 101.034 126.509 98.6772 126.038C98.089 125.928 97.5068 125.787 96.9332 125.616L95.1642 125.146C94.5543 124.99 93.9564 124.79 93.3752 124.549C92.7742 124.311 92.1619 124.057 91.5382 123.786C90.6469 122.067 88.5077 120.31 86.2308 118.257C85.6548 117.794 85.107 117.193 84.5358 116.651C83.9647 116.108 83.4026 115.569 82.9065 114.979C82.4103 114.39 81.899 113.802 81.4453 113.221C80.9882 112.671 80.5822 112.08 80.2324 111.456C80.5354 112.29 79.1335 112.277 78.3344 111.678C78.0228 111.077 77.2197 110.616 76.6619 110.158C76.1041 109.7 75.7891 109.284 76.4942 108.85L76.751 109.228C76.8553 108.777 76.8519 108.309 76.7411 107.86C76.6303 107.412 76.4152 106.995 76.1133 106.645C75.5586 105.782 74.8184 104.869 74.2248 104.033L72.2772 104.998C72.0888 103.41 71.5568 101.883 70.7183 100.522C69.8657 99.0874 68.9294 97.7042 67.914 96.3796C65.9823 93.7138 64.2618 91.2052 64.82 89.2382C63.746 88.2701 63.004 86.8249 61.9603 85.8564L63.0317 85.4228C61.9153 82.2339 60.6104 79.1143 59.1239 76.0802L60.2431 76.6207C59.3085 74.2307 55.9031 74.8837 54.8986 72.6824L56.2296 71.382C55.4473 69.2562 55.017 66.9859 54.4154 64.7969C53.8616 62.5875 52.9182 60.4946 51.6293 58.6166C51.8527 58.5795 52.082 58.6243 52.275 58.7427C52.4681 58.8611 52.612 59.0451 52.6803 59.261C52.1019 57.2048 51.3903 51.0695 49.3553 52.4681C50.0844 52.2272 49.7771 51.1055 49.1215 49.768C48.4659 48.4305 47.5975 46.8297 46.9455 45.7343L48.1304 45.8136C46.2291 44.1767 45.8238 44.2039 44.7238 41.4803C44.7013 40.7752 45.4629 40.6852 45.4013 41.6398C45.436 39.2808 43.8655 40.1488 43.8627 37.306C44.1696 37.5891 44.4586 37.8815 44.7867 38.1612C44.3528 35.8546 44.0628 36.1041 42.9808 35.003C42.264 33.621 42.3819 30.5403 43.3186 30.0087C42.7972 29.7689 42.3563 29.3833 42.0494 28.8984C41.7424 28.4135 41.5824 27.8501 41.5887 27.2762C41.9332 27.0289 42.2669 27.4812 42.4307 27.7088C42.4192 26.8331 42.3098 25.9614 42.1046 25.11C41.9276 24.4135 41.703 23.73 41.4324 23.0642C40.9473 21.7908 40.5466 20.6947 40.8978 19.2696C41.0369 19.2385 41.1655 19.1715 41.2708 19.0754C41.3761 18.9794 41.4545 18.8575 41.4982 18.7218C41.8057 20.5022 42.0143 22.2981 42.1229 24.1016C43.1527 23.9258 42.9485 21.3857 44.6823 23.1554C43.6164 21.3062 41.4198 18.1296 41.5432 15.6331C41.6202 15.4897 41.7267 15.3643 41.8557 15.2651L41.9835 15.5115C41.989 14.9838 41.856 14.4638 41.5978 14.0035C41.7117 13.322 41.7492 12.6299 41.7095 11.9401C42.5394 11.5554 41.8935 9.03094 41.8323 7.76634C40.7033 7.98592 40.7272 6.32649 39.9368 7.94885C39.9973 7.74208 40.1006 8.17649 40.2249 9.00419C40.2599 9.18443 40.3174 9.35958 40.3961 9.52544L40.2891 9.4513C40.4011 10.2701 40.5109 11.3493 40.6711 12.5549C39.9975 11.6385 39.4076 10.6481 39.9038 9.19364C39.1112 8.62108 38.2903 7.9793 37.8943 7.61279C39.3196 5.72974 39.8206 2.35876 40.7998 1.83562C39.9777 -1.95475 39.9522 -7.14959 37.6768 -9.5076C37.4003 -10.5995 38.2876 -10.7852 38.6297 -11.199C38.8512 -10.5514 38.8045 -9.81802 39.1213 -9.48666C38.5653 -11.6613 38.9073 -15.9563 37.4038 -16.4881C38.0803 -19.2562 38.7895 -14.9191 38.5333 -18.7209L38.9952 -18.198C40.1209 -21.9082 39.4344 -24.9225 38.6817 -28.1084C38.2676 -29.7321 38.0238 -31.3946 37.9543 -33.0688C37.9809 -35.001 38.4476 -36.9017 39.319 -38.6264C39.073 -38.0718 38.9831 -37.804 38.6971 -37.6938C39.2459 -40.0323 39.6165 -42.4091 39.8057 -44.8037C40.0725 -47.2297 40.3393 -49.6556 40.564 -52.0598C40.6974 -53.2728 40.8308 -54.4857 40.9736 -55.6807L41.183 -57.4822C41.3045 -58.0713 41.4319 -58.6635 41.5716 -59.2469C42.088 -61.5817 42.8351 -63.8594 43.802 -66.0465C44.7458 -68.5491 43.8364 -69.0382 43.5413 -70.7686L44.8753 -71.0487L44.1797 -74.0659C44.1616 -76.1001 45.3114 -77.5734 46.3715 -79.1755C47.4316 -80.7777 48.5295 -82.4833 48.3056 -85.1351L47.3241 -84.7633C47.9898 -86.4202 48.5344 -90.3247 49.3213 -89.7338C49.2122 -89.9441 48.6793 -90.5599 49.295 -91.0928L49.9209 -90.9446C49.9586 -92.4892 50.1732 -93.9426 50.3174 -95.4434C51.9253 -98.4887 52.5383 -94.1018 54.3475 -98.685C54.7416 -100.483 54.404 -104.266 53.7664 -103.775C53.4829 -103.086 52.7401 -102.137 52.1229 -102.312L52.3912 -104.03C50.7359 -105.001 49.4076 -106.989 46.7047 -103.467L46.7672 -100.274L45.5498 -99.6808L46.3595 -102.045C45.0639 -101.015 45.4679 -99.8976 45.6176 -98.7857C45.3417 -98.7514 45.0761 -98.6596 44.8378 -98.5163C44.5995 -98.373 44.394 -98.1814 44.2343 -97.9538L44.9466 -94.625C44.1245 -94.5341 43.995 -96.3275 42.9456 -94.6166C43.3412 -93.0451 44.9058 -95.3359 44.7648 -93.0056C43.5304 -91.9307 42.9885 -92.5343 43.1971 -90.7208C42.6623 -90.6493 42.4588 -91.1004 42.4669 -91.7757C42.5784 -90.1788 41.5398 -87.9473 42.2755 -86.9258C40.8296 -85.8175 41.0666 -82.082 39.4044 -82.6992C39.8739 -81.34 40.0279 -79.8919 39.8547 -78.4644C38.391 -81.4187 38.4832 -73.5667 36.4402 -74.7565C37.1716 -73.6108 36.9237 -71.9571 36.6326 -70.1515C36.3414 -68.3458 35.9775 -66.3422 36.1814 -64.6408C36.0723 -64.8511 35.8542 -65.2717 35.9837 -65.5218C35.4773 -63.7342 34.8199 -63.3551 34.2035 -62.25C34.9614 -61.9796 35.2918 -61.1368 35.5153 -60.1471C35.6287 -59.6493 35.7122 -59.1207 35.8107 -58.6075C35.9077 -58.1202 36.0527 -57.6437 36.2435 -57.1849C34.3955 -55.2199 34.6172 -58.8502 33.0467 -58.3939C34.3257 -58.2948 33.74 -54.308 34.9119 -54.9006C33.721 -53.3449 34.2393 -53.507 32.8023 -52.8227C34.7304 -52.2367 32.8902 -51.1831 33.9159 -49.5877C32.5759 -47.2608 31.9659 -49.2015 32.177 -46.3981C31.8076 -45.7871 31.5122 -46.1067 31.3143 -46.5912C31.1926 -46.9542 31.106 -47.328 31.0555 -47.7076ZM35.4487 22.5686C35.3966 21.9094 35.2845 21.0906 35.1447 20.2329C35.5134 19.9882 35.9394 20.1333 35.9989 20.6743C35.6984 20.4184 35.6572 21.7209 35.4487 22.5686ZM41.8219 10.3338C42.0611 11.1477 41.8657 11.4473 41.6467 11.5838C41.5835 11.1972 41.501 10.7443 41.3681 10.1498L41.2186 10.0673C41.4378 10.1076 41.6445 10.1989 41.8219 10.3338Z" fill="#146ED6"/>
<path d="M940.439 527.705C942.038 525.126 939.515 525.494 938.878 524.358C940.265 520.96 940.986 523.666 942.484 523.127C943.186 520.901 942.574 518.505 943.53 517.109C943.875 517.17 944.147 516.961 944.308 517.484C944.246 514.634 947.99 511.402 947.816 507.995C948.012 507.923 948.225 507.907 948.43 507.95C947.505 507.825 946.633 507.449 945.908 506.864C946.623 505.698 946.232 504.044 947.597 504.319C947.116 505.003 947.513 505.34 947.646 505.89L947.967 504.373C950.228 504.288 947.444 506.364 948.623 507.095C949.623 504.427 950.103 500.857 951.703 499.34C953.465 499.951 949.505 503.88 952.427 502.347L950.052 504.756C953.828 504.169 948.797 506.333 952.628 506.035C955.433 502.672 954.462 501.439 957.296 498.11C956.968 496.749 955.866 497.563 955.564 496.196C957.487 490.057 962.07 494.678 962.56 489.576C962.202 487.921 960.573 486.263 963.416 484.283L964.482 486.344C967.034 482.987 963.419 482.699 967.044 479.859C967.26 480.958 965.73 482.965 966.283 482.578C969.237 481.147 966.473 480.257 967.727 478.447L969.474 479.109C971.818 475.288 973.624 470.514 976.268 466.285C976.542 466.823 976.49 467.836 977.637 467.231C979.231 464.375 981.155 461.715 983.369 459.304C985.575 456.819 988.042 454.566 990.29 452.489L990.446 449.71C990.785 449.292 991.609 449.347 991.496 449.991C993.395 448.486 990.785 449.292 991.019 448.009C991.742 446.875 992.815 447.165 992.659 448.114C993.632 445.555 994.842 443.092 996.275 440.758C997.041 439.508 997.904 438.319 998.855 437.203C999.702 436.222 1000.7 435.378 1001.81 434.703L1001.63 435.658C1004.28 433.416 1001.57 430.653 1004.71 429.117L1004.54 429.761C1007.12 427.083 1009.52 424.017 1011.9 421.21C1013 419.859 1014.18 418.574 1015.43 417.363C1016.61 416.271 1017.93 415.343 1019.36 414.606C1018.37 412.316 1024.92 409.737 1022.88 407.315C1026.88 405.202 1026.48 406.448 1031.24 402.752C1032.41 401.675 1031.35 399.668 1032.45 398.006L1033.7 399.076L1034.24 395.956L1036.66 396.252L1037.6 394.614C1037.02 395.088 1035.99 395.254 1035.72 394.852C1037.15 392.232 1041.34 390.484 1041.99 391.018L1045.69 385.151C1046.08 385.744 1045.45 386.697 1045.13 387.637C1046.43 383.857 1046.84 388.358 1048.02 384.885C1047.45 384.948 1047.49 384.033 1047.29 383.751C1048.49 383.287 1049.56 382.56 1050.43 381.624C1051.55 380.594 1052.56 379.459 1053.46 378.236L1053.89 379.407C1055.82 377.605 1057.64 375.69 1059.34 373.673C1061.16 371.631 1063.01 369.506 1065.05 367.547C1063.24 368.58 1062.19 366.865 1063.25 365.561L1064.99 366.355C1065.01 364.835 1063.29 367.088 1063.96 364.616C1065.61 363.278 1066.35 365.04 1065.88 366.292L1067.3 364.071C1067.77 364.342 1067.51 364.953 1067.87 365.537C1067.89 364.032 1072.25 363.743 1072.08 361.344L1072.54 361.616C1076.66 357.774 1078.12 355.597 1081.47 352.454C1080.51 351.314 1082.09 350.331 1082.3 348.511C1085.15 346.612 1088.74 345.034 1091.75 342.302C1093.45 339.891 1091.56 340.797 1091.97 339.287C1093.01 340.195 1096.04 337.49 1095.06 339.592C1098.19 336.854 1101.12 333.888 1103.81 330.718C1102.94 330.695 1102.2 330.976 1102.22 330.362C1102.96 329.498 1104.57 329.232 1104.84 329.853L1104.69 330.143C1105.83 328.675 1107.25 327.454 1108.88 326.557C1110.6 325.62 1112.37 324.779 1114.19 324.038C1115.92 323.365 1117.6 322.564 1119.22 321.641C1120.64 320.89 1121.83 319.751 1122.63 318.358L1122.46 318.652C1123.73 317.161 1125.04 315.708 1126.34 314.23C1128.65 312.987 1125.61 315.955 1127.68 315.579C1129.27 313.469 1131.35 311.768 1133.73 310.62C1135.78 309.565 1137.75 308.672 1139.51 306.698C1142.24 307.412 1145.16 305.598 1148.2 303.584C1149.73 302.586 1151.27 301.522 1152.8 300.688C1154.18 299.88 1155.73 299.388 1157.33 299.248L1156.61 298.556C1157.38 297.091 1158.33 298.253 1159.31 297.969C1158.84 297.396 1157.61 297.919 1158.11 297.065C1160.58 295.456 1163.16 294.028 1165.84 292.792C1168.56 291.561 1171.34 290.405 1174.2 289.407C1177.07 288.408 1179.91 287.422 1182.82 286.487C1185.74 285.553 1188.56 284.62 1191.39 283.616C1195.47 282.106 1191.72 278.129 1197.67 278.045L1196.92 280.283C1204.23 274.89 1213.63 273.518 1221.06 268.734C1220.72 269.302 1220.89 269.794 1220.1 270.089C1222.29 270.63 1226.44 267.752 1226.11 266.764C1227.4 266.405 1226.73 267.538 1227.72 267.747C1229.7 267.818 1231.47 264.608 1232.83 265.467C1233.06 265.604 1232.49 266.036 1232.21 266.247C1233.11 265.228 1237.51 264.499 1235.92 263.495C1239.25 263.057 1241.56 260.767 1244.31 260.729C1245.35 258.599 1249.82 259.601 1249.56 257.217C1249.84 258.396 1251.35 258.363 1252.98 257.846C1254.54 257.382 1255.98 256.567 1257.18 255.465C1256.76 256.374 1259.12 255.607 1258.68 256.816C1260.89 256.037 1262.79 254.922 1262 253.878C1267.02 255.24 1269.51 248.855 1273 251.635C1278.83 248.474 1284.81 245.608 1290.93 243.047C1291.41 245.378 1284.38 245.372 1285.39 247.692C1290.75 244.907 1293.46 241.993 1299.29 240.829C1300.85 240.7 1298.76 242.081 1298.38 242.623C1303.79 239.949 1309.45 239.478 1314.17 236.821C1314.22 237.042 1313.73 237.434 1313.26 237.726C1314.24 237.367 1315.69 237.401 1315.28 236.383L1314.38 236.949C1312.33 235.878 1317.46 232.629 1317.42 231.768C1316.56 235.271 1322.68 231.096 1321.04 235.694C1321.64 235.311 1322.34 234.573 1321.99 233.91C1323.03 233.838 1323.42 234.168 1322.68 235.245C1326.12 233.655 1324.53 232.893 1327.81 231.995C1327.93 232.513 1327.33 232.89 1327.16 233.59C1328.53 232.116 1329.94 230.706 1332.83 230.395C1332.74 230.745 1333.18 231.066 1332.35 231.271C1337.06 229.862 1339.77 226.469 1345.25 226.047C1344.28 228.687 1347.22 226.301 1347.99 228.171L1350.66 226.904L1349.29 226.246C1351.77 225.651 1353.6 223.721 1355.88 223.83L1354.25 225.081L1358.79 223.569L1356.02 223.475C1358.27 221.862 1355.14 221.095 1358.57 220.804C1357.97 221.161 1361.05 220.207 1362.62 221.036C1363.69 220.092 1364.79 219.141 1366.75 219.199C1367.38 219.733 1366.87 221.425 1367.28 221.771C1368.11 219.871 1372.99 219.986 1374.12 217.909C1373.97 218.167 1373.88 218.464 1373.88 218.767C1373.88 219.069 1373.97 219.365 1374.13 219.621L1374.85 218.078C1376.09 218.237 1376.3 218.414 1376.31 219.262C1379.82 218.711 1374.65 217.05 1379 217.168C1378.7 217.35 1378.89 217.515 1378.27 217.864C1382.52 217.478 1386.05 215.182 1390 215.04C1391.55 216.764 1386.79 216.224 1388.43 217.605C1393.83 216.093 1399.28 212.853 1404.69 212.196L1403.65 212.184C1403.83 209.243 1407.91 212.749 1410.32 210.929C1409.71 211.26 1409.76 212.64 1409.88 212.296C1413.62 212.034 1417.19 210.165 1422.57 208.22L1422.01 209.04C1424.27 209.243 1427.74 208.345 1430.13 208.271C1430.69 207.449 1432.04 207.316 1431.06 206.416C1438.95 209.238 1444.37 201.771 1451.36 204.195C1450.6 204.323 1449.64 205.116 1450.25 205.017L1455.58 203.494C1454.96 202.347 1454.74 202.873 1453.46 202.106C1454.33 201.105 1455.52 200.449 1456.83 200.258C1454.51 201.448 1457.17 202.233 1458.33 202.716C1458.09 202.375 1458.39 201.905 1458.24 201.537C1461.4 203.257 1458.32 199.015 1462.45 199.838L1462.34 200.508C1463.75 199.944 1464.96 198.904 1466.57 198.867C1467.43 200.182 1465.11 199.746 1465.19 200.921C1467.38 200.523 1469.15 197.629 1471.36 198.75C1470.47 199.278 1469.13 199.478 1468.22 200.005C1470.64 201.348 1470.83 200.897 1472.49 200.932L1472.32 200.916L1476.16 201.136L1475.15 200.819C1477.39 196.747 1480.67 199.351 1484.08 196.414C1480.76 199.208 1483.65 197.818 1483.59 199.459C1484.6 199.756 1486.11 200.092 1485.75 200.589C1487.35 199.074 1488.82 201.222 1491.07 199.043C1491.24 199.542 1492.95 198.856 1492.72 200.201C1494.96 199.511 1492.07 199.371 1492.18 198.699C1495.5 196.529 1500.69 199.791 1505.52 196.769C1509.79 195.302 1510.41 193.474 1514.4 192.17C1515.86 192.846 1513.51 194.167 1513.51 194.167C1515.51 194.644 1517.62 194.427 1519.49 193.55C1519.11 194.045 1519.59 194.383 1520.29 194.893C1521.95 194.582 1521.21 192.888 1523.51 193.432C1523.17 194.272 1522.67 195.039 1522.04 195.692C1523.97 194.994 1525.83 193.86 1527.83 193.207C1528.46 194.056 1526.73 194.685 1526.06 195.34C1528.32 194.728 1531.92 193.991 1532.53 192.494L1531 192.114C1531.84 191.969 1531.55 193.305 1530.95 193.621C1529.09 194.92 1528.06 193.385 1527.9 192.875L1529.33 192.408C1527.54 189.507 1523.5 193.406 1520.56 193.573L1521.56 191.235L1518.73 193.39C1518.03 192.873 1517.46 191.7 1518.89 191.212C1516.68 190.374 1517.11 192.196 1515.17 191.177C1514.95 191.01 1515.03 190.894 1515.2 190.784L1513.21 191.662C1513.57 191.157 1512.7 190.146 1514 190.326C1510.16 189.454 1508.22 192.624 1506.63 191.101L1506.92 190.933C1501.87 192.239 1506.63 192.58 1502.98 194.933L1499.93 191.267L1499.64 192.94C1499.11 192.952 1498.05 192.961 1498.17 192.288C1496.33 193.642 1498.59 192.948 1497.57 194.139C1494.84 192.978 1490.64 195.696 1489.78 193.189C1489.02 194.53 1492.33 193.829 1489.73 195.026C1488.6 192.357 1486.65 195.89 1484.16 194.912C1484.69 193.413 1486.99 193.875 1484.49 192.892C1483.41 195.477 1479.9 192.997 1478 193.729C1478.17 195.662 1473.85 195.132 1470.66 196.236C1470.72 195.901 1469.13 195.857 1467.14 195.865L1463.99 195.888C1462.94 195.894 1461.94 195.903 1461.17 195.882L1461.21 195.543C1460.92 197.575 1457.72 197.707 1455.49 198.47C1455.4 197.299 1455.77 196.771 1456.9 196.074L1454.75 196.427C1454.34 197.13 1453.72 197.56 1452.38 197.998L1452.7 196.468C1449.84 197.006 1447.2 199.075 1443.35 198.719C1443.37 200.085 1446.89 201.981 1443.15 203.567C1442.88 202.863 1442.53 201.659 1443.5 201.166C1443.18 201.325 1442.41 201.983 1441.69 201.793L1443.03 200.291C1441.26 200.03 1442.33 201.467 1440.97 201.588C1440.82 200.547 1439.85 201.028 1439.94 200.157C1440.27 199.996 1441.18 200.385 1441.63 199.888C1440.08 199.966 1438.14 199.672 1437.41 198.99C1437.5 199.155 1437.55 199.339 1437.55 199.527C1437.56 199.715 1437.52 199.901 1437.44 200.07C1437.35 200.239 1437.23 200.386 1437.08 200.499C1436.93 200.612 1436.76 200.689 1436.57 200.721C1433.73 201.296 1435.38 199.638 1433.61 199.378C1433.04 200.201 1431.09 199.8 1431.34 201.351C1430.5 201.492 1430.22 200.791 1429.82 200.429C1428.46 201.378 1422.94 201.844 1424.91 203.2L1425.31 203.241C1425.24 203.258 1425.16 203.278 1425.08 203.352C1420.54 205.816 1414.89 204.434 1410.21 205.999L1410.09 205.487C1407.35 206.627 1403.79 207.058 1401.99 208.623C1401.15 208.825 1399.8 208.101 1400.03 207.408C1397.93 208.256 1397.81 208.888 1394.48 208.703C1396.48 207.343 1393.56 208.068 1396.59 207.571C1393.66 207.728 1392.84 207.034 1390.09 209.089C1390.84 207.537 1387.59 207.88 1386.33 208.56L1388.52 209.083C1387.16 209.519 1385.75 209.805 1384.33 209.934L1384.68 208.047C1378.4 207.248 1375.05 214.012 1369.84 211.496C1368.59 213.051 1373.17 211.625 1372.13 213.356C1369.43 213.727 1366.07 211.883 1365.24 212.07C1361.36 211.988 1362.44 215.423 1358.49 215.696C1359.12 216.194 1359.98 217.723 1357.29 219.001C1354.59 219.425 1353.42 217.191 1354.95 216.32C1355.59 216.106 1355.93 216.23 1355.95 216.443C1356.76 216.01 1357.81 215.468 1356.6 215.06L1356.41 215.791C1354.96 215.456 1351.31 216.451 1351.92 215.235C1350.05 216.314 1351.31 216.451 1352.88 216.375C1349.25 216.335 1347.56 217.655 1343.91 217.944C1344.55 218.14 1345.25 218.72 1344.69 218.861C1339.38 219.453 1342.74 220.618 1339.35 221.805C1337.14 221.391 1339.46 219.394 1336.19 221.092C1333.89 221.028 1335.31 219.591 1336.03 218.869C1333.16 220.89 1329.87 219.665 1327.99 219.932L1329.54 218.999C1328.73 219.459 1327.86 219.791 1326.95 219.985L1328.24 220.95C1327.2 221.001 1326.37 221.216 1326.24 220.704C1325.45 221.772 1327.57 222.53 1325.86 224.154C1324.39 223.9 1322.08 225.944 1321.17 224.454C1325.43 223.84 1320.27 222.951 1323.67 221.706C1322.92 222.133 1322.06 222.364 1321.2 222.378C1321 222.241 1321.24 222.003 1321.48 221.836C1317.15 221.509 1320.19 224.203 1316.13 225.284C1316.39 224.227 1314.69 223.827 1314.08 224.207C1315.74 223.761 1315.3 225.504 1313.98 226.631C1311.17 226.663 1311.3 227.962 1309.91 228.263L1311.57 228.159C1311.3 229.211 1309.96 229.463 1308.23 230.266C1307.87 229.598 1309.73 229.313 1308.99 229.182C1307.45 231.329 1303.96 228.852 1301.48 230.773C1300 230.546 1300.85 229.108 1299.58 229.036C1296.79 231.154 1295.8 228.814 1292.79 230.788C1294.11 231.717 1294.18 231.37 1292.22 233.255L1297.39 230.762L1294.33 233.674C1295.97 233.195 1297.55 231.863 1298.59 231.776C1297.23 233.269 1297.31 232.914 1298.37 233.702C1295.58 232.542 1294.25 236.064 1291.28 235.649L1290.46 232.547C1286.14 232.36 1284.04 236.233 1278.77 237.083L1280.55 237.086C1280.27 238.526 1277.5 238.246 1276.03 239.251C1275.86 238.195 1274.73 238.193 1273.82 237.76C1274.15 238.476 1270.12 238.871 1270.32 241.01L1267.62 240.439C1263.4 241.264 1263.96 244.845 1259.98 245.809C1260.79 244.333 1258.78 244.219 1261.13 242.565C1259.85 242.988 1258.59 243.176 1258.81 243.904C1257.84 243.534 1255.67 246.462 1254.16 245.921C1253.76 246.545 1253.95 247.646 1252.46 248.051C1252.24 247.907 1252.3 247.563 1252.3 247.563C1252.46 248.051 1250.26 249 1251.91 249.673C1249.37 248.774 1246.63 249.84 1243.96 250.902C1241.28 251.963 1238.71 253.09 1236.5 252.38C1233.81 253.714 1230.53 255.19 1228.03 256.251C1228.08 255.896 1227.86 255.758 1228.37 255.681C1224.53 256.066 1227.27 259.305 1222.91 259.773C1220.28 258.946 1224.7 258.109 1223.2 257.988C1221.44 254.952 1218.57 260.248 1215.18 259.38L1215.76 258.938C1213.29 258.635 1211.24 262.083 1207.84 263.168C1207.86 263.078 1207.85 262.985 1207.82 262.899C1207.79 262.813 1207.74 262.736 1207.67 262.675C1206.04 265.226 1201.95 267.478 1198.95 269.265C1199.42 267.602 1200.12 268.002 1198.99 266.979C1197.64 267.749 1200.25 268.855 1197.56 270.38C1196.35 270.07 1194.05 270.34 1193.21 269.105L1195.86 267.896C1193.74 266.713 1192.41 269.413 1190.87 269.721L1190.73 268.879C1186.71 270.867 1187.51 272.841 1183.06 274.626L1183.77 275.003C1182.23 277.945 1181.29 274.826 1179.55 277.315L1177.96 275.724L1174.78 278.545C1173.5 279.722 1172.14 280.802 1170.7 281.778C1171.6 279.627 1174.54 277.329 1176.2 275.571C1174.63 276.251 1170.98 278.199 1170.61 279.501C1171.18 279.014 1171.72 278.185 1172.48 278.182C1171.28 280.588 1169.13 282.47 1166.07 283.961C1165.44 281.995 1163.32 282.751 1160.91 283.783C1158.5 284.816 1155.84 286.198 1153.99 285.362C1151.65 287.459 1148.92 288.727 1146.01 289.969C1143.1 291.211 1140.01 292.389 1137.01 294.317C1140.79 295.777 1135.26 295.424 1137.3 298.03C1136 299.03 1135.43 299.312 1135.2 299.222L1129.93 300.175C1128.42 299.998 1130.89 298.744 1130.38 298.203C1127.15 299.892 1128.35 297.821 1125.83 298.359C1126.87 299.075 1125.65 300.459 1123.67 301.209L1126.94 300.888C1125.28 302.996 1124.01 303.005 1122.69 303.036C1121.36 303.067 1120.06 303.079 1118.41 305.239L1119.19 303.481C1118.27 304.478 1116.23 305.811 1114.38 307.382C1112.52 308.953 1110.83 310.752 1110.57 312.576C1109.98 312.541 1108.95 312.177 1109.76 311.312C1108.38 312.21 1107.1 313.242 1105.93 314.393C1104.71 315.57 1103.54 316.833 1102.38 318.044C1100.09 320.489 1097.85 322.692 1095.47 323.581L1095.35 322.665C1094.57 323.538 1094.69 325.098 1093.05 325.377C1092.9 325.077 1092.91 324.464 1092.46 324.765C1092.16 325.373 1090.95 327.81 1089.46 328.421L1089.91 326.901C1084.52 329.969 1084.13 334.565 1080.66 338.286C1079.14 336.515 1075.02 339.091 1072.99 340.421L1072.83 340.117C1067.35 344.645 1065.26 349.667 1061.17 354.832C1056.46 355.788 1050.55 363.6 1044.99 367.262C1046 366.848 1046.18 368.662 1045.57 369.64C1044.15 370.393 1043.77 373.776 1042.39 372.104L1042.8 371.745C1040.47 371.073 1038.69 373.742 1036.95 375.477L1038.71 377.715C1035.02 378.603 1032.35 381.886 1030.07 385.01C1027.8 388.135 1025.78 390.98 1023.24 391.024C1022.72 392.649 1021.43 394.07 1020.92 395.694L1019.86 394.621C1016.71 397.565 1015.08 398.993 1011.89 403.251L1011.79 401.719C1009.75 403.924 1012.59 407.434 1010.86 409.559L1008.6 408.732C1006.88 410.694 1004.83 412.381 1002.97 414.248C1001.11 416.115 999.424 418.104 998.559 420.732C998.363 420.535 998.243 420.275 998.219 419.998C998.195 419.721 998.269 419.444 998.427 419.215C996.811 421.064 991.228 425.617 994.196 426.87C992.59 425.652 990.617 430.899 989.595 433.674L988.706 432.408C988.75 435.447 989.084 435.833 987.45 438.75C986.807 439.247 986.084 438.557 987.029 437.973C984.798 439.552 986.872 440.431 984.298 442.442L984.27 440.927C982.532 442.984 983.077 443.134 983.055 444.983C982.503 446.686 979.666 448.802 978.358 448.308C978.622 448.925 978.681 449.609 978.529 450.262C978.376 450.916 978.018 451.503 977.508 451.94C976.968 451.81 977.066 451.162 977.119 450.841C973.607 453.833 974.536 457.235 971.491 458.86C971.342 458.758 971.17 458.695 970.99 458.676C970.811 458.657 970.629 458.683 970.462 458.751C972.62 455.9 974.396 453.629 974.32 453.914C973.223 453.095 971.309 455.277 971.181 452.291C970.626 454.783 970.079 459.302 967.887 461.187C967.688 461.231 967.483 461.239 967.281 461.21L967.326 460.884C966.884 461.307 966.586 461.858 966.476 462.46C965.856 462.941 965.297 463.497 964.813 464.115C963.689 463.7 962.382 466.462 961.527 467.593C962.819 468.365 961.527 469.759 963.565 469.035C963.348 469.163 963.576 468.711 964.081 467.897C964.189 467.712 964.268 467.513 964.317 467.305C964.333 467.358 964.346 467.412 964.356 467.467C964.849 466.663 965.56 465.648 966.355 464.497C966.316 465.878 966.147 467.2 964.542 468.012C964.864 469.008 965.136 470.021 965.354 471.045C963.876 471.341 962.45 471.857 961.126 472.577C959.829 473.212 958.716 473.754 958.04 473.601C956.233 477.711 952.579 482.457 953.415 486.328C953.026 487.566 951.945 487.073 951.32 487.216C951.489 486.49 951.996 485.772 951.878 485.224C951.1 487.701 948.004 491.538 949.318 493.114C946.835 495.247 948.769 490.634 946.668 494.437L946.471 493.621C942.84 496.346 942.016 499.945 941.051 503.557C940.085 507.169 939.069 510.855 934.852 513.804C935.435 513.369 935.68 513.159 936.031 513.218C934.248 515.289 932.677 517.532 931.342 519.914C929.959 522.303 928.675 524.737 927.396 527.184C924.847 532.096 922.268 536.94 918.499 540.98C916.549 543.383 917.529 544.285 917.526 546.356L915.786 546.206L916.022 549.872C915.834 550.932 915.359 551.921 914.65 552.732C913.957 553.536 913.113 554.254 912.298 555.039C910.659 556.593 909.098 558.415 909.174 561.557L910.483 561.283C909.947 562.494 909.475 563.731 909.066 564.99C908.624 566.234 908.158 567.155 907.634 566.774C907.746 567.042 908.451 567.798 907.642 568.349L906.823 568.115C906.725 569.879 906.576 571.602 906.531 573.354C905.641 575.11 904.887 574.716 904.119 574.551C903.351 574.387 902.547 574.443 901.645 577.204C901.527 578.557 901.652 579.919 902.016 581.228C902.328 582.524 902.799 583.425 903.157 583.112C903.42 582.295 904.225 581.128 905.059 581.283L904.996 583.245C907.291 584.215 909.449 586.101 912.258 582.244C912.033 581.106 911.863 579.974 911.668 578.821L913.108 578.207L912.439 580.74C913.96 579.634 913.222 578.454 912.9 577.202C913.223 577.191 913.539 577.11 913.828 576.966C914.117 576.822 914.372 576.617 914.575 576.367C914.126 575.149 913.705 573.925 913.313 572.694C914.358 572.669 914.677 574.621 915.869 572.867C915.315 571.136 913.356 573.472 913.473 570.935C915.051 569.87 915.775 570.648 915.5 568.651C916.187 568.65 916.43 569.147 916.446 569.897C916.273 568.15 917.667 565.922 916.759 564.66C918.642 563.747 918.549 559.595 920.65 560.7C920.225 559.172 920.233 557.556 920.673 556.032C921.37 557.839 921.998 556.625 922.755 555.202C923.512 553.779 924.445 552.176 925.626 553.14C924.24 550.238 927.883 546.303 928.353 542.55C928.419 542.822 928.602 543.354 928.337 543.568C929.487 541.92 930.424 541.791 931.471 540.915C929.796 539.666 930.87 536.734 930.598 534.633C933.573 533.519 931.985 537.144 934.024 537.448C932.474 536.718 934.682 532.93 933.042 532.941C935.07 531.945 934.387 531.849 936.368 531.886C934.27 530.28 936.881 530.166 936.3 528.009C938.804 526.337 938.767 528.663 939.619 525.695C941.008 524.956 940.439 527.705 940.439 527.705ZM975.803 465.979C975.459 466.494 975.18 466.931 975.002 467.221L975.803 465.979ZM979.341 461.151C978.862 461.705 978.315 462.427 977.773 463.202C977.225 463.066 976.933 462.567 977.315 462.098C977.377 462.584 978.458 461.624 979.344 461.164L979.341 461.151ZM963.422 465.361C963.81 464.459 964.235 464.37 964.575 464.439C964.274 464.914 963.997 465.404 963.746 465.907C963.76 465.965 963.781 466.049 963.829 466.106C963.644 465.893 963.507 465.644 963.426 465.374L963.422 465.361Z" fill="#8FADDE"/>
</g>
<defs>
<clipPath id="clip0_8974_67237">
<rect width="1440" height="342" fill="white"/>
</clipPath>
</defs>
</svg>
