<svg width="355" height="263" viewBox="0 0 355 263" fill="none" xmlns="http://www.w3.org/2000/svg">
    <path d="M213.855 122.386C228.881 155.273 234.483 177.82 235.414 204.924C236.346 232.027 232.147 213.09 232.147 213.09C231.27 182.853 226.106 152.617 209.377 122.386H213.855Z" fill="#7A9954"/>
    <path d="M228.617 161.058C225.25 149.323 220.465 136.856 213.853 122.386H209.375C216.948 136.071 222.145 149.758 225.654 163.445C226.571 162.549 227.56 161.751 228.617 161.058Z" fill="#21261F"/>
    <path d="M212.086 117.381C242.598 111.174 250.112 116.401 233.126 141.553C216.14 166.705 162.242 205.251 162.242 205.251C162.242 205.251 160.935 162.852 173.675 131.623C186.414 100.395 198.971 90.263 207.647 92.5547C216.322 94.8464 212.086 117.381 212.086 117.381Z" fill="#7A9954"/>
    <path d="M183.152 88.5281C177.979 84.495 165.152 103.032 169.956 107.374C174.758 111.716 189.344 93.3566 183.152 88.5281Z" fill="#7A9954"/>
    <g opacity="0.58">
        <path d="M212.087 117.38C212.087 117.38 179.882 156.905 162.243 205.25" stroke="#76815B" stroke-width="0.5" stroke-miterlimit="10" stroke-linecap="round" stroke-linejoin="round"/>
        <path d="M182.729 112.728L213.109 107.091" stroke="#76815B" stroke-width="0.5" stroke-miterlimit="10" stroke-linecap="round" stroke-linejoin="round"/>
        <path d="M224.518 115.36L225.505 151.169" stroke="#76815B" stroke-width="0.5" stroke-miterlimit="10" stroke-linecap="round" stroke-linejoin="round"/>
        <path d="M170.728 139.786L205.38 126.222V170.87" stroke="#76815B" stroke-width="0.5" stroke-miterlimit="10" stroke-linecap="round" stroke-linejoin="round"/>
        <path d="M164.473 168.541L187.164 153.843L186.214 186.964" stroke="#76815B" stroke-width="0.5" stroke-miterlimit="10" stroke-linecap="round" stroke-linejoin="round"/>
    </g>
    <path d="M260.511 86.8145C251.038 125.36 256.196 199.183 256.196 199.183H252.277C250.847 156.076 251.087 116.163 256.85 86.8145H260.511Z" fill="#7A9954"/>
    <path d="M260.511 86.8145C251.038 125.36 256.196 199.183 256.196 199.183H252.277C250.847 156.076 251.087 116.163 256.85 86.8145H260.511Z" fill="#21261F"/>
    <path d="M293.449 205.073H195.438L202.816 262.891H286.07L293.449 205.073Z" fill="#D39F3F"/>
    <path d="M303.404 196.252H185.482V205.072H303.404V196.252Z" fill="#D39F3F"/>
    <path d="M257.115 254.887C257.115 254.887 265.332 240.841 270.333 228.102C273.976 218.822 273.598 203.757 273.125 196.252H227.144C239.839 231.527 257.115 254.887 257.115 254.887Z" fill="#21261F"/>
    <path d="M262.495 252.704C288.176 214.148 303.687 162.996 290.109 154.156C276.532 145.316 266.981 173.269 266.981 173.269C266.981 173.269 252.207 149.322 238.752 159.481C225.297 169.64 262.495 252.704 262.495 252.704Z" fill="#7A9954"/>
    <g opacity="0.58">
        <path d="M237.299 181.056L257.113 161.889" stroke="#76815B" stroke-width="0.5" stroke-miterlimit="10" stroke-linecap="round" stroke-linejoin="round"/>
        <path d="M274.835 158.548L293.117 184.104" stroke="#76815B" stroke-width="0.5" stroke-miterlimit="10" stroke-linecap="round" stroke-linejoin="round"/>
        <path d="M243.518 203.775L266.962 182.587L284.696 210.479" stroke="#76815B" stroke-width="0.5" stroke-miterlimit="10" stroke-linecap="round" stroke-linejoin="round"/>
        <path opacity="0.59" d="M266.979 173.267C267.473 199.397 262.493 252.702 262.493 252.702" stroke="#76815B" stroke-width="0.5" stroke-miterlimit="10" stroke-linecap="round" stroke-linejoin="round"/>
        <path d="M250.551 222.429L266.059 205.084L274.349 232.72" stroke="#76815B" stroke-width="0.5" stroke-miterlimit="10" stroke-linecap="round" stroke-linejoin="round"/>
    </g>
    <path d="M290.109 154.156C279.82 147.458 271.844 161.885 268.584 169.267C276.844 178.49 285.712 183.711 292.53 186.618C296.434 170.592 296.197 158.12 290.109 154.156Z" fill="#21261F"/>
    <path d="M294.434 140.438C256.875 141.331 257.233 158.115 289.26 178.13C321.286 198.146 354.345 208.441 354.345 208.441C343.133 163.092 311.622 110.951 295.676 114.345C285.827 116.441 294.434 140.438 294.434 140.438Z" fill="#7A9954"/>
    <g opacity="0.58">
        <path d="M294.435 140.438C319.132 163.941 344.692 193.404 354.346 208.442" stroke="#76815B" stroke-width="0.5" stroke-miterlimit="10" stroke-linecap="round" stroke-linejoin="round"/>
        <path d="M282.161 173.378L279.833 141.921" stroke="#76815B" stroke-width="0.5" stroke-miterlimit="10" stroke-linecap="round" stroke-linejoin="round"/>
        <path d="M291.059 125.512L317.248 129.327" stroke="#76815B" stroke-width="0.5" stroke-miterlimit="10" stroke-linecap="round" stroke-linejoin="round"/>
        <path d="M304.018 186.691L299.546 145.375L335.849 159.401" stroke="#76815B" stroke-width="0.5" stroke-miterlimit="10" stroke-linecap="round" stroke-linejoin="round"/>
        <path d="M330.384 199.351L319.864 166.324L345.723 181.572" stroke="#76815B" stroke-width="0.5" stroke-miterlimit="10" stroke-linecap="round" stroke-linejoin="round"/>
    </g>
    <path d="M322.331 136.26C312.469 121.882 302.604 112.872 295.676 114.347C289.645 115.631 290.535 125.12 292.13 132.288C305.4 136.108 315.946 136.544 322.331 136.26Z" fill="#21261F"/>
    <path d="M258.987 82.7351C254.609 59.8438 271.711 59.2064 287.809 71.5491C303.907 83.8918 337.728 124.646 337.728 124.646C337.728 124.646 287.136 119.909 256.097 106.833C213.565 88.9164 258.987 82.7351 258.987 82.7351Z" fill="#7A9954"/>
    <g opacity="0.58">
        <path d="M258.985 82.7339L337.727 124.646" stroke="#76815B" stroke-width="0.5" stroke-miterlimit="10" stroke-linecap="round" stroke-linejoin="round"/>
        <path d="M316.234 121.887L301.941 105.599L324.731 109.442" stroke="#76815B" stroke-width="0.5" stroke-miterlimit="10" stroke-linecap="round" stroke-linejoin="round"/>
        <path d="M298.026 118.708L280.053 93.9468L313.245 96.5653" stroke="#76815B" stroke-width="0.5" stroke-miterlimit="10" stroke-linecap="round" stroke-linejoin="round"/>
        <path d="M274.497 113.145L262.617 84.6682L296.852 79.5347" stroke="#76815B" stroke-width="0.5" stroke-miterlimit="10" stroke-linecap="round" stroke-linejoin="round"/>
        <path d="M252.225 105.123L247.922 85.2788" stroke="#76815B" stroke-width="0.5" stroke-miterlimit="10" stroke-linecap="round" stroke-linejoin="round"/>
        <path d="M258.487 73.0979L282.175 67.7827" stroke="#76815B" stroke-width="0.5" stroke-miterlimit="10" stroke-linecap="round" stroke-linejoin="round"/>
    </g>
    <path opacity="0.84" d="M199.294 215.852C197.842 226.19 192.828 230.477 185.484 230.81C193.677 231.814 198.28 236.801 199.294 245.768C200.308 236.8 204.912 231.814 213.104 230.81C205.761 230.477 200.745 226.19 199.294 215.852Z" fill="#707B97"/>
    <path d="M2.18825 3.22423C14.895 -2.68381 24.6791 6.07882 27.3703 17.9548C29.5448 27.5492 11.127 35.7552 6.02525 45.4267" stroke="#7A9954" stroke-miterlimit="10" stroke-linecap="round" stroke-linejoin="round"/>
    <path d="M11.4514 38.4446C0.854696 39.4479 1.94333 61.3404 8.40522 60.506C14.8671 59.6707 22.9851 37.3523 11.4514 38.4446Z" fill="#7A9954"/>
    <path opacity="0.64" d="M11.4512 38.4448L8.405 60.5053" stroke="#21261F" stroke-width="0.5" stroke-miterlimit="10" stroke-linecap="round" stroke-linejoin="round"/>
    <path d="M27.4984 51.1522C38.9395 47.2844 32.7309 18.1854 21.3742 30.3066C15.074 37.0309 22.5065 52.8392 27.4984 51.1522Z" fill="#7A9954"/>
    <path opacity="0.64" d="M27.499 51.1522L24.6816 27.8169" stroke="#21261F" stroke-width="0.5" stroke-miterlimit="10" stroke-linecap="round" stroke-linejoin="round"/>
    <path d="M50.4516 20.5169C51.3932 12.7494 21.774 2.54398 26.6642 16.4838C31.5535 30.4244 49.4202 29.0298 50.4516 20.5169Z" fill="#7A9954"/>
    <path opacity="0.64" d="M50.4521 20.5156L26.6647 16.4834" stroke="#21261F" stroke-width="0.5" stroke-miterlimit="10" stroke-linecap="round" stroke-linejoin="round"/>
    <path d="M-0.630775 19.7599C-1.72849 32.7772 26.0739 32.0163 27.6129 22.1632C29.7084 8.74822 0.298965 8.74188 -0.630775 19.7599Z" fill="#7A9954"/>
    <path opacity="0.64" d="M-0.630062 19.7606L27.3721 17.9556" stroke="#21261F" stroke-width="0.5" stroke-miterlimit="10" stroke-linecap="round" stroke-linejoin="round"/>
</svg>
