<svg width="61" height="87" viewBox="0 0 61 87" fill="none" xmlns="http://www.w3.org/2000/svg">
    <path d="M63.1504 36.5244C59.5394 15.0976 41.1784 10.7885 31.811 16.4091C22.4429 22.0297 23.3797 35.8318 25.2535 45.5117C27.1273 55.1917 23.755 59.6325 13.6377 67.3418" stroke="#7A9954" stroke-miterlimit="10" stroke-linecap="round" stroke-linejoin="round"/>
    <path d="M36.1187 20.5314C34.756 28.3178 62.0879 35.4962 59.1272 25.2035C56.1664 14.9108 37.4302 13.037 36.1187 20.5314Z" fill="#7A9954"/>
    <path opacity="0.64" d="M36.1191 20.5317L59.1276 25.2039" stroke="#21261F" stroke-width="0.5" stroke-miterlimit="10" stroke-linecap="round" stroke-linejoin="round"/>
    <path d="M20.1932 3.57882C16.071 11.5385 32.0423 20.5921 37.6397 14.3792C43.2378 8.16632 24.3972 -4.53922 20.1932 3.57882Z" fill="#7A9954"/>
    <path opacity="0.64" d="M20.1934 3.57764L37.6399 14.378" stroke="#21261F" stroke-width="0.5" stroke-miterlimit="10" stroke-linecap="round" stroke-linejoin="round"/>
    <path d="M25.3046 24.9785C15.8095 28.4612 24.8794 49.0562 31.6239 46.0845C42.7279 41.192 35.6594 21.1798 25.3046 24.9785Z" fill="#7A9954"/>
    <path opacity="0.64" d="M25.3047 24.979L31.624 46.0851" stroke="#21261F" stroke-width="0.5" stroke-miterlimit="10" stroke-linecap="round" stroke-linejoin="round"/>
    <path d="M24.9824 54.8805C25.2069 47.0818 3.8791 46.6567 1.26361 56.2643C-1.35256 65.8719 24.7129 64.2486 24.9824 54.8805Z" fill="#7A9954"/>
    <path opacity="0.64" d="M1.2627 56.2637L24.9822 54.8799" stroke="#21261F" stroke-width="0.5" stroke-miterlimit="10" stroke-linecap="round" stroke-linejoin="round"/>
    <path d="M15.728 65.7164C5.37051 62.0112 -5.97372 84.2336 5.14328 86.6689C16.2596 89.1043 26.813 69.6816 15.728 65.7164Z" fill="#7A9954"/>
    <path opacity="0.64" d="M15.728 65.7163L2.4834 85.242" stroke="#21261F" stroke-width="0.5" stroke-miterlimit="10" stroke-linecap="round" stroke-linejoin="round"/>
</svg>
