<svg width="169" height="150" viewBox="0 0 169 150" fill="none" xmlns="http://www.w3.org/2000/svg">
    <path d="M106.423 123.073C109.924 104.551 132.679 91.1314 144.348 103.092C156.017 115.053 139.972 129.348 139.972 129.348C139.972 129.348 153.1 125.556 157.768 129.348C162.435 133.141 149.891 148.988 149.891 148.988H103.506L106.423 123.073Z" fill="#4A8171"/>
    <path d="M27.3637 145.976C10.1516 133.14 4.60858 119.429 12.7774 115.928C20.9463 112.427 39.325 118.191 49.2435 123.77C59.162 129.347 66.1641 142.767 66.1641 142.767L27.3637 145.976Z" fill="#4A8171"/>
    <g opacity="0.55">
        <path d="M144.348 103.092L109.341 145.977" stroke="#4A8171" stroke-width="0.5" stroke-miterlimit="10" stroke-linecap="round" stroke-linejoin="round"/>
        <path d="M124.688 100.491V127.175L147.456 118.622" stroke="#4A8171" stroke-width="0.5" stroke-miterlimit="10" stroke-linecap="round" stroke-linejoin="round"/>
        <path d="M139.973 129.347L113.234 141.206V109.152" stroke="#4A8171" stroke-width="0.5" stroke-miterlimit="10" stroke-linecap="round" stroke-linejoin="round"/>
        <path d="M12.779 115.928L50.7041 142.768" stroke="#4A8171" stroke-width="0.5" stroke-miterlimit="10" stroke-linecap="round" stroke-linejoin="round"/>
        <path d="M12.7802 131.367L39.7754 135.033L33.0593 117.171" stroke="#4A8171" stroke-width="0.5" stroke-miterlimit="10" stroke-linecap="round" stroke-linejoin="round"/>
    </g>
    <path d="M85.4185 136.933C81.3345 127.306 83.0851 97.2572 90.3777 93.4647C97.6713 89.6722 104.381 86.1566 107.298 74.6401C110.216 63.1246 109.695 59.6235 124.688 50.5794C139.68 41.5353 134.721 37.1599 144.348 27.8243C153.975 18.4888 167.979 10.6123 167.979 10.6123C167.979 10.6123 156.601 25.7824 154.85 36.8684C153.1 47.9545 155.434 61.4394 150.183 67.5327C144.931 73.6269 136.179 78.8249 134.721 90.8126C133.262 102.799 127.428 108.529 119.551 113.833C111.675 119.137 118.586 123.805 113.235 131.098C107.882 138.392 85.4185 136.933 85.4185 136.933Z" fill="#4A8171"/>
    <path d="M149.308 11.7804C151.641 14.6977 143.474 23.4494 139.972 19.6569C136.471 15.8653 146.974 8.86409 149.308 11.7804Z" fill="#4A8171"/>
    <path d="M167.979 10.6143C135.596 48.2479 100.005 107.416 88.6272 137.053" stroke="#21261F" stroke-width="0.5" stroke-miterlimit="10" stroke-linecap="round" stroke-linejoin="round"/>
    <path d="M109.34 0.40332C113.424 19.0744 108.756 28.1176 106.131 35.7026C103.506 43.2877 109.632 50.8727 103.506 59.9168C97.3796 68.9609 97.0691 72.0007 97.3705 89.4434C97.671 106.886 96.2129 114.693 86.8773 123.771C77.5418 132.85 78.1256 142.768 78.1256 142.768C78.1256 142.768 63.8308 134.599 62.3717 118.263C60.9135 101.926 60.3297 93.1741 66.1642 82.3795C71.9987 71.5858 69.9567 63.7084 74.6245 57.291C79.2923 50.8727 85.4646 52.3318 86.1709 44.163C86.8773 35.9941 94.7538 34.8274 99.1301 26.0756C103.505 17.323 109.34 0.40332 109.34 0.40332Z" fill="#4A8171"/>
    <path d="M109.341 0.40332C103.506 35.4112 93.9411 51.4565 83.2617 78.2956C72.5824 105.135 75.7911 138.684 75.7911 138.684" stroke="#21261F" stroke-width="0.5" stroke-miterlimit="10" stroke-linecap="round" stroke-linejoin="round"/>
    <path d="M99.1294 10.613C101.979 11.8342 97.3788 24.0325 93.5863 22.5743C89.7938 21.1153 95.0454 8.86335 99.1294 10.613Z" fill="#4A8171"/>
    <path d="M1.10785 35.4111C6.65089 43.58 12.4854 40.6627 17.4446 47.3725C22.4039 54.0823 20.6533 57.8748 29.1136 60.2091C37.5739 62.5425 46.6171 63.8291 51.2849 73.8338C55.9527 83.8394 65.0249 83.8903 71.1227 92.5912C77.2205 101.292 77.541 123.771 77.541 123.771L58.8699 116.513L35.2396 107.761C35.2396 107.761 34.0728 92.5912 27.0707 88.2149C20.0695 83.8386 16.277 73.9855 16.277 67.5345C16.277 61.0835 8.40052 54.0822 4.60801 48.8307C0.815498 43.58 1.10785 35.4111 1.10785 35.4111Z" fill="#4A8171"/>
    <path d="M1.10815 35.4111C15.2568 57.1448 64.1218 104.585 79.7295 134.471" stroke="#21261F" stroke-width="0.5" stroke-miterlimit="10" stroke-linecap="round" stroke-linejoin="round"/>
    <path d="M17.7364 148.988H141.723C138.7 138.289 134.783 129.503 122.469 138.684C118.73 127.744 114.908 125.442 110.95 137.052C105.257 109.153 92.6996 106.338 88.6284 127.176C56.2463 62.2498 -2.97574 79.5899 52.1614 135.032C31.679 133.047 20.0181 137.563 17.7364 148.988Z" fill="#7A9954"/>
    <g opacity="0.61">
        <path d="M53.0197 88.2529L54.043 110.512L30.8221 104.272" stroke="#7A9954" stroke-width="0.5" stroke-miterlimit="10" stroke-linecap="round" stroke-linejoin="round"/>
        <path d="M69.998 100.491L68.3583 129.347L39.7751 120.776" stroke="#7A9954" stroke-width="0.5" stroke-miterlimit="10" stroke-linecap="round" stroke-linejoin="round"/>
        <path d="M88.6289 127.175L81.9192 148.987C81.9192 148.987 62.3728 118.262 34.426 87.3008" stroke="#7A9954" stroke-width="0.5" stroke-miterlimit="10" stroke-linecap="round" stroke-linejoin="round"/>
        <path d="M52.1617 135.032L81.9189 148.987" stroke="#7A9954" stroke-width="0.5" stroke-miterlimit="10" stroke-linecap="round" stroke-linejoin="round"/>
    </g>
</svg>
