<svg xmlns="http://www.w3.org/2000/svg" width="96" height="61" fill="none"><path fill="#E6F6FF" d="M46.794 12.445a23.37 23.37 0 0 0-16.573 6.904 23.64 23.64 0 0 0-6.865 16.667 23.64 23.64 0 0 0 6.865 16.668 23.37 23.37 0 0 0 16.573 6.904 23.37 23.37 0 0 0 16.574-6.904 23.64 23.64 0 0 0 6.865-16.668 23.64 23.64 0 0 0-6.865-16.667 23.37 23.37 0 0 0-16.574-6.904"/><path fill="#F3B8BF" d="M46.794 17.884c-4.781 0-9.367 1.91-12.748 5.311a18.18 18.18 0 0 0-5.281 12.821c0 4.81 1.9 9.421 5.28 12.821a17.98 17.98 0 0 0 12.75 5.311c4.781 0 9.367-1.91 12.748-5.31a18.18 18.18 0 0 0 5.28-12.822 18.18 18.18 0 0 0-5.28-12.82 17.98 17.98 0 0 0-12.749-5.312"/><path fill="#E6F6FF" d="M46.794 24.23a11.7 11.7 0 0 0-8.286 3.452 11.82 11.82 0 0 0-3.433 8.334 11.82 11.82 0 0 0 3.433 8.334 11.7 11.7 0 0 0 8.286 3.452c3.108 0 6.09-1.242 8.287-3.452a11.82 11.82 0 0 0 3.432-8.334 11.82 11.82 0 0 0-3.432-8.334 11.7 11.7 0 0 0-8.287-3.452"/><path fill="#ED7899" d="M46.794 30.576a5.4 5.4 0 0 0-3.824 1.594 5.46 5.46 0 0 0-1.584 3.846c0 1.443.57 2.826 1.584 3.846a5.4 5.4 0 0 0 3.824 1.593c1.435 0 2.81-.573 3.825-1.593a5.46 5.46 0 0 0 1.584-3.846c0-1.443-.57-2.826-1.584-3.846a5.4 5.4 0 0 0-3.825-1.594"/><path fill="#8D6C9F" d="M29.576 30.485c.09 0 .18.091.36.091.361 0 .722-.181.812-.544.18-.544.451-1.178.721-1.723.18-.453 0-.997-.36-1.178-.45-.181-.992 0-1.172.363-.27.634-.631 1.269-.811 1.903-.27.454 0 .907.45 1.088"/><path fill="#8D6C9F" d="M46.794 16.977c-2.974 0-5.86.725-8.564 1.995-.45.181-.63.725-.36 1.178.18.454.721.635 1.172.363C41.476 19.334 44 18.7 46.704 18.7c9.466 0 17.128 7.706 17.128 17.225S56.17 53.15 46.704 53.15c-9.465 0-17.128-7.706-17.128-17.225 0-.907.09-1.723.18-2.63.09-.452-.27-.996-.72-.996-.451-.091-.992.272-.992.725-.18.907-.18 1.904-.18 2.81 0 10.517 8.473 19.039 18.93 19.039s18.931-8.522 18.931-19.039c0-10.516-8.474-18.857-18.93-18.857"/><path fill="#8D6C9F" d="M46.794 42.363c3.516 0 6.31-2.81 6.31-6.346s-2.794-6.347-6.31-6.347c-.36 0-.72 0-1.081.091a.94.94 0 0 0-.722 1.088.935.935 0 0 0 1.082.725c.27 0 .541-.09.721-.09 2.525 0 4.508 1.994 4.508 4.533 0 2.538-1.983 4.533-4.508 4.533s-4.507-1.995-4.507-4.533c0-.272 0-.544.09-.726.09-.453-.27-.997-.721-1.088a.935.935 0 0 0-1.082.726c-.09.362-.09.725-.09 1.088 0 3.535 2.795 6.346 6.31 6.346m-.901 3.626v1.813c0 .544.36.907.901.907s.902-.363.902-.907V45.99c0-.544-.36-.906-.902-.906-.54 0-.901.362-.901.906m-10.818-9.066h1.803c.541 0 .902-.362.902-.906s-.36-.907-.902-.907h-1.803c-.54 0-.901.363-.901.907s.36.906.901.906m5.41 10.063c.18.091.27.091.45.091.27 0 .63-.181.811-.453l.902-1.541c.27-.454.09-.998-.361-1.27s-.992-.09-1.262.363l-.901 1.541c-.18.453-.09.997.36 1.27M36.156 30.94l1.533.906c.18.091.27.091.45.091.27 0 .631-.181.812-.453.27-.454.09-.998-.361-1.27l-1.532-.906c-.451-.272-.992-.09-1.262.363-.18.453 0 .997.36 1.269m1.623 9.247-1.533.907c-.45.271-.54.816-.36 1.269.18.272.45.453.81.453.181 0 .271 0 .452-.09l1.532-.907c.45-.272.541-.816.36-1.27-.27-.453-.9-.543-1.261-.362"/><path fill="#8D6C9F" d="M57.612 36.017c0 4.08-2.254 7.797-5.86 9.61-.45.272-.63.816-.36 1.178.18.273.45.454.811.454.18 0 .27 0 .45-.09 4.148-2.086 6.762-6.438 6.762-11.152 0-6.98-5.68-12.692-12.62-12.692-1.984 0-4.057.453-5.86 1.45-.45.272-.631.816-.36 1.179.27.453.81.634 1.171.363 1.533-.817 3.245-1.27 4.958-1.27 6.04.09 10.908 4.986 10.908 10.97"/><ellipse cx="46.876" cy="35.934" stroke="#8D6C9F" stroke-width="1.8" rx="23.93" ry="24.066"/><path fill="#E6F6FF" d="M15.735 15 7.5 7.253l2-4.753 6.235 4.753z"/><path fill="#ED7899" d="m7.5 16-5-6 4.22-3.654 9.015 9.066z"/><path stroke="#8D6C9F" stroke-linecap="round" stroke-width="1.8" d="m26.88 27.363-11.145-11.21M4.917 5.276 7.54 7.912m0 0V4.716c0-1.766 2.12-2.665 3.39-1.438l4.487 4.34a2 2 0 0 1 .608 1.52l-.29 7.016M7.54 7.912l8.195 8.242M7.54 7.912H4.674c-1.76 0-2.662 2.108-1.447 3.381l4.05 4.242a2 2 0 0 0 1.446.619h7.012"/><path fill="#E6F6FF" d="m80.44 29.169 8.184-8.088L93.5 22.5l-5.849 6.73z"/><path fill="#ED7899" d="M80.61 21.002 86.5 15.5l3.131 4.674-9.093 8.987z"/><path stroke="#8D6C9F" stroke-linecap="round" stroke-width="1.8" d="M68.559 40.265 79.8 29.155M90.712 18.37l-2.645 2.615m0 0 3.188.028c1.76.015 2.644 2.133 1.416 3.394l-4.375 4.497a2 2 0 0 1-1.535.603l-6.96-.353m8.266-8.17-8.266 8.17m8.266-8.17.025-2.87c.015-1.766-2.096-2.684-3.376-1.47l-4.23 4.014a2 2 0 0 0-.624 1.433l-.061 7.063"/></svg>