<?xml version="1.0" encoding="UTF-8"?><svg id="Calque_1" xmlns="http://www.w3.org/2000/svg" xmlns:xlink="http://www.w3.org/1999/xlink" viewBox="0 0 164 290"><defs><style>.cls-1{clip-path:url(#clippath);}.cls-2,.cls-3,.cls-4,.cls-5,.cls-6,.cls-7,.cls-8,.cls-9,.cls-10,.cls-11,.cls-12,.cls-13,.cls-14{stroke-width:0px;}.cls-2,.cls-15{fill:none;}.cls-3{fill:#5896d0;}.cls-4{fill:#fe668c;}.cls-5{fill:#fe668b;}.cls-6{fill:#5b5e8c;}.cls-7{fill:#75779e;}.cls-8{fill:#f2f2fb;}.cls-8,.cls-11{fill-rule:evenodd;}.cls-9{fill:#484b7e;}.cls-10{fill:#8284a7;}.cls-11{fill:#fff;}.cls-15{stroke:#f2f2fb;stroke-linejoin:round;}.cls-12{fill:#9ec4e5;}.cls-13{fill:#efefef;}.cls-14{fill:#ee487d;}</style><clipPath id="clippath"><rect class="cls-2" width="164" height="290"/></clipPath></defs><g class="cls-1"><path class="cls-11" d="M0,0h164v290H0V0Z"/><path class="cls-8" d="M25.4,145h0c0-30.9,25.3-55.9,56.6-55.9h0c15,0,29.4,5.9,40,16.4,10.6,10.5,16.6,24.7,16.6,39.5h0c0,30.9-25.3,55.9-56.6,55.9h0c-31.2,0-56.6-25-56.6-55.9Z"/><path class="cls-15" d="M25.4,145h0c0-30.9,25.3-55.9,56.6-55.9h0c15,0,29.4,5.9,40,16.4,10.6,10.5,16.6,24.7,16.6,39.5h0c0,30.9-25.3,55.9-56.6,55.9h0c-31.2,0-56.6-25-56.6-55.9Z"/></g><g id="nC3dR2.tif"><path class="cls-9" d="M61.4,146.6v-.6c.1-.2,0-.4,0-.5v-1.3c.1-.2.1-.3,0-.5v-.5c.1-.6.1-1.2.1-1.8.2-1.6.7-3.1,1.3-4.6.8-1.9,1.9-3.6,3.1-5.1,1.1-1.3,2.3-2.5,3.7-3.5,2.3-1.7,4.8-2.8,7.5-3.5.9-.2,1.9-.3,2.8-.3,1.7-.1,3.4-.1,5.1.1,1.1.1,2.1.4,3.1.7,1.3.4,2.6,1,3.8,1.7.2.1.4.2.5.4.1.2,0,.3-.1.5l-.5.5c-.4.3-.7.7-1.1,1-.2.2-.3.4-.6.4-.5-.1-.9-.4-1.4-.6-1.7-.8-3.5-1.3-5.4-1.4-1.8-.2-3.7-.1-5.5.3-2.2.5-4.3,1.4-6.2,2.7-2,1.4-3.7,3.2-5,5.4s-2.1,4.6-2.3,7.1c-.3,2.9.1,5.7,1.3,8.4.7,1.7,1.6,3.2,2.8,4.5,1.3,1.5,2.8,2.7,4.4,3.7,2,1.1,4.1,1.9,6.3,2.2.9.1,1.9.2,2.8.1,2.8-.1,5.5-.8,7.9-2.2,1.3-.7,2.5-1.6,3.6-2.7,2.7-2.6,4.3-5.7,5-9.4.6-3.6.2-7.1-1.4-10.4-.1-.3-.3-.6-.4-1,0-.4.3-.5.5-.7.3-.3.6-.6.9-.9.2-.2.4-.4.6-.6.1-.1.3-.2.5-.1.5.5.8,1.2,1.1,1.8.8,1.8,1.5,3.6,1.7,5.5.2,1.5.2,3.1.2,4.6,0,1-.1,1.9-.3,2.8-.7,3.5-2.2,6.6-4.5,9.3-2.5,3-5.7,5.1-9.4,6.4-1.6.5-3.3.8-5,.8-1.5,0-3.1,0-4.6-.1-.9-.1-1.8-.3-2.7-.6-2.8-.8-5.3-2.2-7.6-4.1-2.2-1.9-3.9-4.1-5.1-6.6-.7-1.5-1.3-3.1-1.6-4.8-.2-.8-.2-1.6-.2-2.4.3.1.4,0,.3-.1Z"/><path class="cls-4" d="M94.1,126.1c.5-.6,1.1-1.1,1.6-1.7h.1c.4,1.1.8,2.2,1.2,3.2.1.2.1.3.2.5,0,.1,0,.3-.1.4-.4.4-.7.8-1.1,1.1-.1.1-.2.2-.4.1-.2-.1-.3-.3-.4-.5-.3-.9-.7-1.7-1-2.6-.1-.1-.1-.3-.1-.5Z"/><path class="cls-7" d="M61.5,145.5c0,.2.1.4-.1.6,0-.2,0-.4.1-.6-.1,0,0,0,0,0Z"/><path class="cls-10" d="M61.4,143.8c.1.2.1.3,0,.5v-.5Z"/><path class="cls-6" d="M61.5,145.5s-.1,0,0,0c-.1-.1-.1-.3-.1-.4.1.1.1.3.1.4Z"/><path class="cls-13" d="M97.2,136.5c1.5,2.7,2.2,5.5,2.2,8.6,0,4.1-1.3,7.7-3.9,10.9-2.9,3.6-6.7,5.7-11.3,6.3-4.9.6-9.4-.6-13.3-3.7-3.8-3.1-6-7.1-6.4-11.9-.4-4.7.8-9,3.8-12.6,3.6-4.4,8.2-6.6,13.9-6.5,2.9,0,5.6.8,8.2,2.2.1.3-.1.4-.3.5-.3.3-.3.5-.2.9.4,1,.9,2.1,1.2,3.1-.1.3-.3.6-.7.6-.3-.1-.5-.3-.7-.4-1.9-1.4-4.1-2.3-6.5-2.5-3.7-.4-6.9.6-9.7,3-2.5,2.1-4,4.8-4.6,8.1-.4,2.7,0,5.2,1.2,7.7,1.6,3.2,4,5.4,7.3,6.6,1.5.6,3.2.9,4.8.8,2.9-.1,5.6-1.1,7.9-2.9,2.3-1.9,3.8-4.2,4.5-7.1.7-3,.4-6-.9-8.8-.4-.8-.9-1.6-1.4-2.3-.1-.2-.2-.3-.2-.5,0-.3.3-.5.5-.6.7.1,1.4.5,2,.7.4.1.8.3,1.2.5.3.1.6.1.8-.2.2-.3.3-.6.6-.5Z"/><path class="cls-4" d="M91,134.3c-.5-1.1-.9-2.3-1.4-3.5-.1-.2,0-.3.1-.4l.7-.7c.2-.1.3-.3.5-.4.3-.1.4.2.4.4.4,1,.8,2.1,1.2,3.1,0,.1,0,.3-.1.4-.3.4-.7.7-1.1,1.1,0,0-.2.1-.3,0Z"/><path class="cls-14" d="M97.2,136.5c-.2.2-.4.4-.6.6-.2.2-.3.2-.6.1-1.1-.5-2.2-.9-3.4-1.3v-.2c.4-.4.8-.9,1.3-1.2.3,0,.5,0,.8.1.9.4,1.8.7,2.6,1,.2.1.3.1.4.3-.2.3-.3.4-.5.6Z"/><path class="cls-5" d="M92.6,127.5c.2-.2.4-.3.6-.5.1,0,.2.1.3.2.4,1.1,1,2.3,1.3,3.4,0,.1,0,0,0,0,0,.1-.1.2-.2.3-.3.3-.6.6-.9.9-.1.1-.3.2-.5.1-.2-.1-.2-.3-.3-.5-.3-.9-.7-1.8-1.1-2.7-.1-.2-.1-.4,0-.6.3-.1.6-.3.8-.6Z"/><path class="cls-14" d="M99.9,133.8c-.1.2-.3.3-.4.5-.3.3-.6.5-.8.8-.2,0-.5,0-.7-.1-.9-.4-1.8-.7-2.6-1-.2-.1-.4-.1-.4-.4v-.1c.4-.5.8-1,1.4-1.3.6.1,1.1.4,1.7.6.6.2,1.1.4,1.6.6.1.1.3.1.2.4Z"/><path class="cls-14" d="M91.9,128.3c.2.7.5,1.3.7,2,.2.6.5,1.1.6,1.8,0,.4-.4.8-.8.8-.2,0-.2-.2-.3-.4-.4-.9-.7-1.9-1.1-2.8-.1-.1-.1-.3-.2-.4.4-.4.7-.7,1.1-1Z"/><path class="cls-5" d="M95,133.6c.6.3,1.2.5,1.8.7.6.3,1.3.4,1.9.8-.3.3-.6.6-.9.9-1-.4-2.1-.8-3.1-1.2-.2-.1-.4-.2-.6-.2-.2-.4.5-1.1.9-1Z"/><path class="cls-12" d="M92.5,132.8l.8-.8c.5-.5.9-.9,1.4-1.4.2-.5.5-.8,1-1,.5-.5,1.1-1,1.6-1.5.3.3.6.5.8.8,0,.3-.2.4-.3.5-1.5,1.5-3.1,3.1-4.6,4.6-3.8,3.8-7.6,7.6-11.4,11.4-.2.2-.3.4-.5.5-.5-.2-.7-.8-.5-1.4.1-.2.2-.4.4-.6,1.1-1.1,2.2-2.2,3.3-3.3l3-3c.9-.9,1.8-1.8,2.7-2.7.1-.1.2-.2.4-.1.2-.2.4-.3.5-.5.4-.5.9-1,1.4-1.5Z"/><path class="cls-3" d="M81.1,145.9c.1-.2.2-.3.3-.4,5.4-5.4,10.8-10.8,16.2-16.2.1-.1.2-.2.3-.3l.8.8c.1.2,0,.3-.2.5-.4.4-.8.9-1.3,1.3-.4.2-.6.7-1.1.8-.4.4-.9.9-1.3,1.3-.4.3-.7.6-1,1-.5.4-.9.9-1.3,1.3l-.5.5c0,.2-.1.3-.2.5-.9.9-1.8,1.8-2.7,2.7l-3,3c-1.1,1.2-2.2,2.3-3.4,3.4-.4.4-.8.4-1.3.4-.1-.2-.3-.3-.3-.6Z"/><path class="cls-14" d="M97.2,131.3c.5-.5,1-1,1.6-1.6,1.2.5,2.4.9,3.7,1.4-.5.5-1,1.1-1.5,1.6-.2.1-.4.1-.6,0-.9-.3-1.8-.7-2.7-1.1-.3,0-.5,0-.5-.3Z"/><path class="cls-5" d="M97.2,131.3c1.2.5,2.4,1,3.7,1.4-.3.4-.7.7-1,1-.1-.2-.2-.2-.4-.3-1.1-.4-2.2-.8-3.2-1.3.3-.2.6-.5.9-.8Z"/><path class="cls-14" d="M95.6,129.7c-.3.4-.6.7-1,1-.5-1.2-1-2.5-1.4-3.7l.9-.9c.4.4.5,1,.7,1.5.2.7.5,1.4.8,2.1Z"/><path class="cls-5" d="M89.1,139.5l3-3c1,1.3,1.9,2.7,2.4,4.3.9,2.8.9,5.7,0,8.5-1.1,3.2-3.1,5.7-6.1,7.3-2.3,1.3-4.7,1.8-7.3,1.7-3.3-.2-6.1-1.5-8.5-3.8-2.1-2-3.3-4.5-3.8-7.4-.5-3.4.1-6.6,2-9.4,1.9-2.9,4.7-4.8,8.1-5.6,3.9-.9,7.5-.1,10.7,2.1.3.2.5.4.8.6l-3,3c-.2.1-.4,0-.5-.1-1.7-1.2-3.6-1.7-5.6-1.6-3.3.3-5.7,1.9-7.3,4.8-.7,1.3-1.1,2.8-1,4.3.1,2.1.7,3.9,2,5.5s2.9,2.6,4.9,3c3,.6,5.6,0,7.9-2,1.6-1.4,2.5-3.1,2.9-5.2.4-2.3-.1-4.4-1.3-6.4-.2-.2-.3-.4-.3-.6Z"/><path class="cls-13" d="M89.1,139.5c1.4,1.8,2.1,3.9,1.9,6.2-.3,4.1-3.1,7.3-7.2,8.3-4.6,1.1-9.5-1.9-10.7-6.4-1.3-4.8,1.2-9.6,6-11.1,3-1,5.8-.4,8.4,1.5l-3,3c-.2.1-.4,0-.5-.1-1.3-.6-2.6-.7-3.9-.1-1.6.7-2.5,1.9-2.8,3.6-.4,2.7,1.5,5.1,4.1,5.4,2.3.3,4.7-1.2,5.2-3.9.2-.9,0-1.8-.3-2.6-.1-.2-.2-.5-.2-.7,1-1.1,2-2.1,3-3.1Z"/><path class="cls-5" d="M86.1,142.5c1.8,2.8,0,6.9-3.4,7.4-3.2.5-6.1-2.1-5.7-5.3.4-3.7,4.3-5.6,7.5-3.8-1.1,1.1-2.2,2.2-3.3,3.4-.6.6-.6,1.1,0,1.7.6.4,1.1.4,1.6-.1l3-3c.1-.1.2-.2.3-.3Z"/></g></svg>