<svg xmlns="http://www.w3.org/2000/svg" viewBox="0 0 135 92" fill="none">
    <path fill="#F7F0E3"
          d="M131.825 58.506c-2.213-5.035-6.465-9.238-11.573-11.306-5.319-2.154-11.428-1.37-17.031-2.091-4.867-.628-8.377-2.8-11.284-6.663-2.784-3.7-5.28-7.8-9.832-9.512-3.597-1.352-7.687-.977-11.262.433-6.587 2.597-11.563 8.12-15.753 13.622-3.826 5.023-6.947 10.524-14.023 10.703-3.203.082-6.336-.7-9.467-1.482-3.792-.947-7.58-1.894-11.485-1.307-9.423 1.415-17.271 9.26-18.916 18.598-1.54 8.752 2.327 17.241 8.97 22.229h114.2c8.371-8.882 12.765-21.15 7.456-33.224Z"/>
    <path fill="#fff"
          d="M28.591 91.73h.315c2.181-2.398 3.89-5.309 4.977-8.538 1.758-5.228 1.684-10.714-.209-15.449-.957-2.392-2.338-4.622-3.674-6.779-1.355-2.186-2.756-4.448-3.707-6.872a15.32 15.32 0 0 1-.858-3.175l-.236-.028c.175 1.136.474 2.25.88 3.288.959 2.442 2.365 4.713 3.726 6.908 1.33 2.149 2.706 4.37 3.656 6.744 1.873 4.684 1.945 10.114.204 15.29-1.1 3.27-2.845 6.207-5.074 8.611Zm95.225-9.96c2.354.501 4.621.952 6.814 1.234l.112-.218c-2.211-.281-4.501-.734-6.877-1.24-3.619-.772-7.537-1.606-11.421-1.606-2.406 0-4.799.32-7.101 1.173-.873.323-1.713.733-2.513 1.222a97.534 97.534 0 0 1-6.238-2.915c1.502-1.132 3.02-2.24 4.554-3.311 11.388-7.952 21.898-12.46 32.052-13.74a9.315 9.315 0 0 0-.063-.224c-10.181 1.29-20.713 5.81-32.121 13.775a158.768 158.768 0 0 0-4.65 3.383 76.88 76.88 0 0 1-6.854-3.983c-4.037-2.646-8.84-6.422-13.034-11.44 16.254-1.824 32.802-4.121 46.316-13.152a29.069 29.069 0 0 0 1.67-1.206c-.065-.047-.13-.092-.196-.138a28.62 28.62 0 0 1-1.601 1.152c-13.511 9.03-30.09 11.31-46.365 13.133-2.964-3.585-5.612-7.796-7.453-12.671-2.866-7.594-2.715-15.046.416-20.445a18.5 18.5 0 0 1 .427-.695l-.39.185c-.08.13-.159.262-.236.394-3.165 5.46-3.322 12.983-.432 20.642 1.83 4.849 4.455 9.043 7.396 12.62-.943.105-1.885.21-2.824.313-3.39.374-6.894.761-10.297 1.2a68.63 68.63 0 0 0-3.762.58c-2.695-5.688-5.654-11.235-9.48-15.993l-.166.162c3.793 4.721 6.734 10.228 9.412 15.874-5.482 1.046-10.805 3.012-13.647 7.586-2.655 4.272-2.652 10.178.007 17.552.092.255.187.507.283.757h.246a40.1 40.1 0 0 1-.313-.835c-2.634-7.304-2.644-13.143-.028-17.353 2.808-4.52 8.102-6.46 13.554-7.493a411.63 411.63 0 0 1 2.783 6.057l.1.22c3.171 7.001 6.451 13.758 10.747 19.404h.286c-4.335-5.657-7.633-12.454-10.824-19.499l-.1-.22c-.905-1.998-1.816-4.01-2.759-6.005a67.622 67.622 0 0 1 3.69-.567c3.401-.438 6.904-.824 10.293-1.198l2.973-.33c4.235 5.096 9.099 8.925 13.183 11.6a77.147 77.147 0 0 0 6.777 3.946c-3.907 2.954-7.707 6.063-11.416 9.098a1157.864 1157.864 0 0 1-3.895 3.175h.365c1.235-1.003 2.462-2.005 3.675-2.997 3.736-3.056 7.563-6.188 11.497-9.16a96.624 96.624 0 0 0 6.204 2.91c-2.828 1.798-5.134 4.584-6.528 7.966a19.31 19.31 0 0 0-.468 1.281h.242c.134-.4.276-.798.439-1.193 1.398-3.392 3.722-6.175 6.572-7.945 5.78 2.455 11.459 4.278 16.341 5.722l.183.054c2.057.609 4.161 1.232 6.022 2.233l.155-.178c-1.891-1.026-4.025-1.658-6.112-2.275l-.184-.054c-4.831-1.43-10.445-3.23-16.163-5.649a14.282 14.282 0 0 1 2.332-1.117c5.958-2.207 12.565-.8 18.393.442ZM10.745 66.895c1.015 4.151.562 8.635-1.241 12.302-1.182 2.4-2.887 4.574-4.988 6.442.041.065.084.13.127.194 2.135-1.892 3.868-4.097 5.067-6.535 1.827-3.714 2.285-8.255 1.258-12.458-.802-3.284-2.415-6.065-4.644-8.078l-.148.176c2.192 1.982 3.779 4.721 4.57 7.957Z"/>
    <path fill="#F7F0E3"
          d="M62.72 14.302c2 2.043 2.897 5.487 1.794 8.663-1.068 3.074-3.409 5.62-6.222 7.258-2.263 1.317-5.215 2.044-7.442.664-1.663-1.03-2.525-3.053-2.573-5.009-.048-1.956.61-3.863 1.423-5.643 1.146-2.509 2.688-4.941 4.986-6.467 3.168-2.104 6.111-1.432 8.034.534Z"/>
    <path fill="#E49B31"
          d="M120.864 22.605c-.758-2.5-2.093-4.794-4.003-6.891-1.914-2.098-4.524-3.83-7.831-5.2-3.306-1.37-7.507-2.054-12.604-2.054-4.065 0-8.207.543-12.428 1.63-4.226 1.09-7.89 2.64-10.998 4.656l4.046 11.004-2.169 1.74 3.145.916c3.104-1.61 5.933-2.778 8.485-3.506 2.548-.724 5.255-1.087 8.126-1.087 2.867 0 5.037.685 6.512 2.055 1.474 1.373 2.21 3.022 2.21 4.959 0 2.338-.759 4.411-2.268 6.226a89.988 89.988 0 0 1-5.022 5.502 86.543 86.543 0 0 0-3.704 3.987 28.634 28.634 0 0 0-3.166 4.416 23.878 23.878 0 0 0-2.21 5.077c-.56 1.814-.836 3.849-.836 6.104a61.282 61.282 0 0 0 .086 3.147h-2.973l3.245 2.174h15.774a10.256 10.256 0 0 1-.121-1.692v-1.453c0-1.37.28-2.72.837-4.05a20.818 20.818 0 0 1 2.093-3.81 28.085 28.085 0 0 1 2.808-3.443 211.604 211.604 0 0 1 2.988-3.085 196.727 196.727 0 0 0 3.941-4.11 32.432 32.432 0 0 0 3.586-4.592 25.692 25.692 0 0 0 2.568-5.263c.677-1.893 1.019-3.966 1.019-6.225 0-2.256-.381-4.633-1.136-7.132Z"/>
    <path fill="#FBC343"
          d="M91.191 23.292c-2.812 0-5.464.35-7.96 1.05-2.5.703-5.27 1.833-8.311 3.388L70 14.532c3.045-1.947 6.634-3.445 10.773-4.498 4.135-1.05 8.193-1.574 12.175-1.574 4.993 0 9.108.662 12.347 1.985 3.239 1.323 5.796 2.996 7.671 5.022 1.871 2.027 3.178 4.244 3.921 6.658.74 2.415 1.113 4.712 1.113 6.89 0 2.182-.335 4.186-.998 6.016a24.741 24.741 0 0 1-2.515 5.083 31.372 31.372 0 0 1-3.514 4.437 188.472 188.472 0 0 1-3.86 3.97c-.938.935-1.913 1.927-2.927 2.981a27.298 27.298 0 0 0-2.751 3.327 20.038 20.038 0 0 0-2.05 3.68c-.546 1.285-.82 2.59-.82 3.913v1.403c0 .624.038 1.167.119 1.635H83.23c-.16-.78-.256-1.654-.294-2.627a58.74 58.74 0 0 1-.057-2.514c0-2.179.271-4.144.82-5.897a22.912 22.912 0 0 1 2.164-4.905 27.67 27.67 0 0 1 3.102-4.266 84.631 84.631 0 0 1 3.628-3.852 87.155 87.155 0 0 0 4.92-5.315c1.478-1.753 2.221-3.757 2.221-6.016 0-1.87-.72-3.463-2.164-4.79-1.444-1.324-3.57-1.986-6.38-1.986Z"/>
    <path fill="#E49B31"
          d="M104 82.911c0 2.729-.92 4.834-2.759 6.32-1.84 1.488-3.92 2.229-6.241 2.229-2.325 0-4.404-.741-6.243-2.23C86.92 87.746 86 85.64 86 82.912c0-2.725.92-4.83 2.757-6.319 2.831-2.295 7.02-2.806 10.337-1.196 2.941 1.43 4.906 4.332 4.906 7.515Z"/>
    <path fill="#FBC343"
          d="M101 82.96c0 2.713-.92 4.806-2.76 6.283-1.84 1.48-3.918 2.217-6.24 2.217-2.325 0-4.404-.737-6.243-2.217C83.92 87.766 83 85.673 83 82.96c0-2.71.92-4.803 2.757-6.283C87.597 75.2 89.675 74.46 92 74.46c2.322 0 4.4.74 6.24 2.217 1.84 1.48 2.76 3.573 2.76 6.283Z"/>
    <path fill="#D3DFFF"
          d="M34.934 20.28a2.402 2.402 0 1 1-3.965 2.713 2.402 2.402 0 0 1 3.965-2.713Zm1.526 6.31a1.356 1.356 0 0 1-1.587 1.077 1.356 1.356 0 0 1-1.088-1.579 1.355 1.355 0 0 1 1.586-1.076 1.355 1.355 0 0 1 1.089 1.578Zm-.14-15.306c-.962 5.133-5.904 8.515-11.038 7.553A9.457 9.457 0 1 1 28.767.245a9.458 9.458 0 0 1 7.553 11.039Z"/>
    <path fill="#fff"
          d="M24.584 9.541a1.192 1.192 0 1 1-2.384 0 1.192 1.192 0 0 1 2.384 0Zm3.631 0a1.192 1.192 0 1 1-2.383 0 1.192 1.192 0 0 1 2.383 0Zm3.632 0a1.192 1.192 0 1 1-2.383 0 1.192 1.192 0 0 1 2.383 0Z"/>
    <path fill="#102048"
          d="m20.249 86.951.884 3.408c.23.888 1.089 1.489 2.04 1.423 2.897-.196 8.917-.906 12.372-3.453l-.982-4.91c-4.75-.269-9.194-.004-13.04 1.291-.964.324-1.521 1.29-1.274 2.242Z"/>
    <path fill="#fff"
          d="M25.786 89.663a.115.115 0 0 1-.11-.084l-1.187-4.248a.115.115 0 0 1 .08-.141.114.114 0 0 1 .14.08l1.187 4.248a.115.115 0 0 1-.08.141.118.118 0 0 1-.03.004Zm2.564-.574a.115.115 0 0 1-.11-.084l-1.187-4.248a.114.114 0 0 1 .08-.142.114.114 0 0 1 .141.08l1.187 4.249a.115.115 0 0 1-.08.141.123.123 0 0 1-.03.004Z"/>
    <path fill="#FBC343" d="m31.328 68.536-11.041 3.277 8.2 11.235 11.772.936 16.237-6.865-6.17-9.285-18.998.702Z"/>
    <path fill="#FBC343"
          d="M44.94 70.096c24.25-7.178 28.148 14.254-9.687 18.154-1.336-1.504-2.898-4.113-3.518-6.294l19.98-9.233-6.773-2.627Z"/>
    <path fill="#F9B384"
          d="M45.97 85.455c-1.133-.363-2.22-1.08-2.22-1.08l-3.897 1.222.893 4.24 4.048.822c1.234-2.255 1.306-4.108 1.177-5.204Z"/>
    <path fill="#E49B31"
          d="m31.82 82.105-.172-.298c4.168-2.422 14.844-8.242 23.94-9.958l.064.34c-9.044 1.705-19.678 7.503-23.831 9.916Z"/>
    <path fill="#FBC343"
          d="M31.328 68.536c-22.57-4.291-28.416 17.4 9.418 21.3a13.746 13.746 0 0 0 3.004-5.461c-5.812-3.889-12.31-7.585-19.431-11.106l7.01-4.733Z"/>
    <path fill="#E49B31"
          d="M43.657 84.52a599.613 599.613 0 0 1-3.376-2.17c-5.946-3.84-12.685-8.19-18.41-10.67l.137-.317c5.751 2.492 12.503 6.851 18.46 10.697a600.73 600.73 0 0 0 3.374 2.17l-.184.29Zm-28.888-5.23-.302-.166c.847-1.534 2.204-2.568 4.033-3.074l.092.331c-1.76.488-3.011 1.44-3.823 2.91Zm47.107-1.305c-.812-1.47-2.063-2.421-3.823-2.91l.091-.331c1.83.507 3.187 1.541 4.034 3.075l-.302.166Z"/>
    <path fill="#E49B31"
          d="m38.633 89.647-.252-.236c1.805-1.933 2.914-3.975 3.39-6.24l.337.07c-.489 2.329-1.626 4.424-3.475 6.406Z"/>
    <path fill="#102048"
          d="M57.227 84.193c-2.891-1.787-8.497 1.3-9.905 1.456-.41.046-.885-.044-1.351-.194.129 1.096.057 2.949-1.177 5.204l.688.14s4.754 1.743 9.797.728c4.654-.936 4.221-5.93 1.948-7.334Z"/>
    <path fill="#fff"
          d="M53.286 90.037a.115.115 0 0 1-.11-.15c.344-1.088.494-3.228-.501-4.665a.115.115 0 0 1 .188-.131c1.042 1.505.89 3.734.532 4.865a.116.116 0 0 1-.11.08Zm-2.268.43a.114.114 0 0 1-.11-.149c.344-1.088.494-3.228-.501-4.665a.115.115 0 1 1 .188-.13c1.043 1.504.89 3.733.532 4.864a.115.115 0 0 1-.11.08Z"/>
    <path fill="#F9B384"
          d="M27.335 40.569s5.685-4.834 5.474-5.752c-.15-.657-1.76.306-1.76.306s2.258-2.679 2.143-3.005c-.205-.58-1.767.502-1.767.502s1.055-1.519.55-1.766c-.504-.248-1.604.689-1.604.689s.643-.844.34-1.066c-.301-.221-1.604.69-1.604.69s.467-1.064-.526-.661c-.993.403-7.958 6.795-7.958 6.795l6.712 3.268Z"/>
    <path fill="#E28B6D"
          d="M29.66 34.836a.115.115 0 0 1-.077-.03c-.975-.891-1.405-1.108-2.482-1.44a.115.115 0 1 1 .068-.218c1.115.342 1.56.566 2.57 1.488a.115.115 0 0 1-.078.2Zm-1.712 2.622-.015-.001a.115.115 0 0 1-.098-.13c.111-.8.363-1.299.769-1.527.347-.195.798-.175 1.342.06a.115.115 0 0 1-.091.21c-.474-.204-.857-.228-1.139-.07-.334.188-.554.645-.654 1.358a.115.115 0 0 1-.114.1Zm-.268-4.832a.116.116 0 0 1-.083-.037.114.114 0 0 1 .005-.161l1.426-1.345a.115.115 0 0 1 .158.167l-1.427 1.344a.114.114 0 0 1-.079.032Zm1.32.459a.115.115 0 0 1-.083-.195l1.37-1.427a.114.114 0 0 1 .163-.004.115.115 0 0 1 .003.163l-1.37 1.427a.114.114 0 0 1-.082.036Zm1.35.804a.115.115 0 0 1-.084-.194l1.075-1.153a.115.115 0 0 1 .162-.006.114.114 0 0 1 .006.162l-1.075 1.154a.116.116 0 0 1-.084.037Z"/>
    <path fill="#3A6BEA"
          d="m48.807 72.899-20.782.804-2.297-18.946s6.958-6.6 9.635-9.03l4.519-.231c14.02 6.372 11.724 14.332 8.925 27.403Z"/>
    <path fill="#3A6BEA"
          d="M39.882 45.496s16.04 1.371 21.097 12.361C65.927 68.61 45.593 72.44 45.593 72.44l-5.711-26.943ZM21.547 47.85l6.628-8.066-6.198-3.757c-2.586 1.799-7.586 5.871-11.823 10.482-.936 1.018-1.666 2.207-2.034 3.516a7.565 7.565 0 0 0-.195 3.3c.46 2.816 2.676 4.99 5.632 5.336 2.525.296 12.171-.46 19.98-2.756l2.296-8.863c-1.18-.67-9.95-.786-14.286.808Z"/>
    <path fill="#D8E1FB"
          d="M48.73 50.62c-1.053 0-2.581-.236-3.139-1.507-.368-.839-.109-1.762.296-2.42l.172.049c-.395.62-.66 1.506-.31 2.302.519 1.183 1.967 1.404 2.977 1.404.355 0 .657-.027.844-.05 1.195-.144 2.408-.42 3.583-.692l.218.127-.103.024c-1.203.277-2.448.564-3.678.712a7.32 7.32 0 0 1-.86.051Zm8.036 17.64c-.813-1.03-1.24-2.199-1.188-3.314.076-1.637 1.325-3.08 2.785-3.219.09-.008.18-.012.269-.012.734 0 1.438.272 2.121.536.274.105.551.212.832.303-.013.056-.028.111-.043.167a15.425 15.425 0 0 1-.85-.31c-.698-.269-1.361-.524-2.058-.524-.084 0-.17.004-.255.012-1.377.13-2.557 1.5-2.629 3.054-.05 1.08.367 2.215 1.162 3.213a10.26 10.26 0 0 1-.146.093Zm-44.322-9.826c-.06-.017-.118-.04-.177-.059.9-1.033 2.207-1.814 3.732-2.209a6.678 6.678 0 0 1 1.667-.223c1.033 0 1.939.283 2.601.83.494.41.836.94 1.08 1.507l-.177.02c-.234-.528-.557-1.017-1.012-1.393-.632-.523-1.499-.792-2.491-.792-.513 0-1.06.072-1.625.218-1.464.379-2.724 1.12-3.598 2.101Zm-1.23-13.052.225-.232c1.77-.458 3.493-1.093 5.086-2.01.622-.36 1.325-.816 1.813-1.478.505-.687.675-1.5.454-2.175a1.665 1.665 0 0 0-.437-.683c.045-.035.09-.072.133-.108.207.201.374.451.467.737.24.727.06 1.599-.479 2.332-.507.688-1.227 1.157-1.865 1.524-1.69.973-3.52 1.628-5.397 2.093Z"/>
    <path fill="#F9B384"
          d="m41.35 41.283-.003.294-.047 4.569-.006.495a2.838 2.838 0 0 1-.838 1.986 2.843 2.843 0 0 1-4.85-1.99l-.056-5.645 5.8.291Z"/>
    <path fill="#102048" d="m41.347 41.577-.047 4.569c-2.539-1.034-3.584-3.782-3.584-3.782l3.63-.787Z"/>
    <path fill="#F9B384"
          d="M42.351 33.606c.91 1.092 3.567 7.279.874 9.39-3.03 2.375-7.643-1.529-7.643-1.529l-.619-7.206 4.004-1.056 3.384.401Z"/>
    <path fill="#102048"
          d="M32.924 33.21s-8.88 4.63-1.64 17.98c.93 1.714 2.99 2.463 4.752 1.626 1.89-.897 2.606-3.207 1.58-5.03-1.185-2.104-2.328-4.813-1.84-6.829l-2.852-7.748Z"/>
    <path fill="#FBC343" d="M36.164 35.401a2.402 2.402 0 1 1-4.803.001 2.402 2.402 0 0 1 4.803 0Z"/>
    <path fill="#102048"
          d="M36.717 38.287c-.26-1.498-.417-2.526 1.097-3.298 0 0 5.338.97 6.357-1.043 1.019-2.014-.534-5.193-3.785-2.984-8.322-1.626-9.438 6.162-6.915 8.758l2.49-.382a.907.907 0 0 0 .756-1.05Zm4.488.005a.355.355 0 1 1-.71 0 .355.355 0 0 1 .71 0Zm2.402-1.184a.355.355 0 1 1-.71.001.355.355 0 0 1 .71 0Zm-.601 2.276a.1.1 0 0 1-.073-.17c.143-.15.298-.36.233-.513-.068-.159-.356-.227-.487-.227-.284 0-.42-.504-.444-.605a.101.101 0 0 1 .074-.121.1.1 0 0 1 .122.074c.051.213.168.451.248.451.135 0 .55.064.672.348.087.204-.005.45-.272.732a.099.099 0 0 1-.073.03Zm.018 1.346a.098.098 0 0 1-.056-.017c-.668-.451-1.342-.073-1.35-.069a.1.1 0 0 1-.1-.174c.033-.019.792-.444 1.563.077a.1.1 0 0 1-.057.184Z"/>
    <path fill="#102048"
          d="M40.695 36.755c.202.38-.15.456-.562.675-.413.219-.835.3-.93.118-.097-.181.159-.506.571-.725.412-.219.764-.362.92-.068Zm1.503-.686c.088.339.341.19.71.094.367-.096.664-.28.622-.442-.043-.162-.375-.215-.743-.119s-.658.204-.59.467Z"/>
    <path fill="#F39176" d="M39.212 40.994a1.046 1.046 0 1 1 0-2.092 1.046 1.046 0 0 1 0 2.092Z"/>
    <path fill="#F9B384"
          d="M36.105 38.83c.704.543.887 1.486.409 2.105-.478.62-1.437.681-2.14.138-.705-.543-.888-1.486-.41-2.105.478-.62 1.437-.682 2.14-.138Z"/>
    <path fill="#102048"
          d="M35.861 40.476a.1.1 0 0 1-.1-.1.882.882 0 0 0-.387-.734.71.71 0 0 0-.66-.087.1.1 0 0 1-.076-.187.91.91 0 0 1 .848.108c.298.2.476.536.476.9a.1.1 0 0 1-.1.1ZM18.005 51.85l-.169-.157 3.626-3.92.169.155-3.626 3.922Zm28.999 12.777-.067-.22c2.64-.804 5.2-1.766 7.522-4.67l.18.144c-2.363 2.954-4.96 3.93-7.635 4.746Z"/>
    <path fill="#D3DFFF"
          d="M48.609 55.735H26.157c-.807 0-1.462.708-1.462 1.58v16.03c0 .874.655 1.582 1.462 1.582H48.61c.807 0 1.462-.708 1.462-1.582v-16.03c0-.872-.655-1.58-1.462-1.58Z"/>
    <path fill="#1F3C88"
          d="M38.568 63.858h-2.37a.62.62 0 0 0-.614.627v1.692a.62.62 0 0 0 .614.626h2.37a.62.62 0 0 0 .614-.626v-1.692a.62.62 0 0 0-.614-.627Zm0 .46c.085 0 .154.074.154.167v1.692c0 .092-.069.167-.154.167h-2.37c-.086 0-.155-.075-.155-.167v-1.692c0-.093.07-.167.155-.167h2.37Z"/>
</svg>