<?xml version="1.0" encoding="UTF-8"?>
<svg id="Calque_1" data-name="Calque 1" xmlns="http://www.w3.org/2000/svg" version="1.1" viewBox="0 0 500 240">
  <defs>
    <style>
      .cls-1 {
        fill: #b5eefe;
      }

      .cls-1, .cls-2, .cls-3, .cls-4, .cls-5, .cls-6, .cls-7, .cls-8, .cls-9, .cls-10, .cls-11, .cls-12, .cls-13 {
        stroke-width: 0px;
      }

      .cls-2 {
        fill: #fe6e7b;
      }

      .cls-3 {
        fill: #7fdafe;
      }

      .cls-4 {
        fill: #b4eefe;
      }

      .cls-5 {
        fill: #4ab7f6;
      }

      .cls-6 {
        fill: #fe468c;
      }

      .cls-7 {
        fill: #e2fafe;
      }

      .cls-8 {
        fill: #99e1fe;
      }

      .cls-9 {
        fill: #96e1fe;
      }

      .cls-10 {
        fill: #fefefe;
      }

      .cls-11 {
        fill: #f2f2fb;
      }

      .cls-11, .cls-13 {
        fill-rule: evenodd;
      }

      .cls-12 {
        fill: #fe468b;
      }

      .cls-13 {
        fill: #fff;
      }

      .cls-14 {
        fill: none;
        stroke: #f2f2fb;
        stroke-linejoin: round;
      }
    </style>
  </defs>
  <path class="cls-11" d="M0,0h500v240H0V0Z"/>
  <g>
    <path class="cls-13" d="M193.4,120h0c0-30.9,25.3-55.9,56.6-55.9h0c15,0,29.4,5.9,40,16.4,10.6,10.5,16.6,24.7,16.6,39.5h0c0,30.9-25.3,55.9-56.6,55.9h0c-31.2,0-56.6-25-56.6-55.9h0Z"/>
    <path class="cls-14" d="M193.4,120h0c0-30.9,25.3-55.9,56.6-55.9h0c15,0,29.4,5.9,40,16.4,10.6,10.5,16.6,24.7,16.6,39.5h0c0,30.9-25.3,55.9-56.6,55.9h0c-31.2,0-56.6-25-56.6-55.9h0Z"/>
    <g id="_4PIJQ4.tif" data-name=" 4PIJQ4.tif">
      <path class="cls-10" d="M225.5,122.8v-24c0-.3,0-.4.4-.4,16.1,0,32.2,0,48.3,0,.3,0,.4,0,.4.4,0,14.1,0,28.2,0,42.3,0,.3,0,.4-.4.4-13.5,0-26.9,0-40.4,0,0-.2.2-.2.3-.2,1.7-.4,3.1-1.2,4.2-2.6.2-.2.4-.3.7-.2.3,0,.7,0,1,0,3.6,0,6.7-1.2,9.3-3.5,2.6-2.2,4.1-5.1,4.7-8.4,0-.2,0-.5.2-.7.3,0,.5.1.8.2,1.6.6,3.3.9,5,.9.3,0,.6,0,.8,0,.5-.1.8.1,1.1.5,1.2,1.4,2.6,2.2,4.4,2.4,1.3.1,2.6,0,3.9,0,.5,0,.9-.4,1.1-.9.2-.5,0-1-.3-1.4-.5-.5-1-1.1-1.3-1.8-.3-.4-.4-.9-.6-1.4-.1-.4,0-.6.2-.8,1.2-1.1,2.3-2.3,3.1-3.7,1.5-2.5,2.2-5.2,1.9-8.1-.2-3.4-1.6-6.4-4-8.8-2.2-2.3-4.9-3.7-8.1-4.2-.7-.1-1.4-.2-2.2-.2-4.1,0-7.5,1.5-10.3,4.4-2.1,2.1-3.3,4.6-3.8,7.6,0,.2,0,.4-.2.6-.2,0-.3,0-.4-.1-1.7-.7-3.5-1.1-5.3-1-3.5,0-6.6,1.1-9.2,3.3-2.8,2.3-4.4,5.2-5,8.8,0,.2,0,.5-.3.6h0Z"/>
      <path class="cls-3" d="M239.9,138.7s0,0-.1,0c-.9-.2-1.5.2-2.1.9-1,1.1-2.3,1.6-3.7,1.9,0,0-.2,0-.2.1h-4.3c-1.1-.4-1.5-1.6-.5-2.6.5-.5.9-1,1.2-1.6.2-.4.4-.9.6-1.3.1-.3,0-.5-.2-.8-1.2-1.1-2.3-2.3-3.1-3.8-1-1.7-1.7-3.5-1.8-5.5,0,0,0-.1,0-.2v-.5c0-.2,0-.5,0-.8v-.7c0-.2,0-.4,0-.7v-.5c.2-.5.2-1.1.4-1.7,1-4.2,3.4-7.3,7.2-9.3,2.1-1.2,4.4-1.8,6.9-1.8.2.2.2.4.2.6v11.7c0,.1,0,.3,0,.4,0,.2-.2.3-.4.3-.6.2-1,.6-1,1.3s.4,1.1,1,1.3c.2,0,.3.1.4.3,0,.2,0,.5,0,.7v11.2c0,.3,0,.6-.2.8h0Z"/>
      <path class="cls-10" d="M225.5,125.9c.3.7.3,1.4.5,2.1.8,2.9,2.4,5.3,4.7,7.3.2.2.3.4.2.6-.4,1.1-1,2.1-1.8,3-.7.8-.8,1.5-.2,2.2.2.2.4.2.5.4-1.2,0-2.4,0-3.6,0-.3,0-.3,0-.3-.3,0-5.1,0-10.2,0-15.3h0Z"/>
      <path class="cls-8" d="M225.5,124.6c.2.2.2.5,0,.8v-.8Z"/>
      <path class="cls-9" d="M225.5,123.3c.2.2.2.4,0,.7v-.7Z"/>
      <path class="cls-12" d="M260,98.6c3.4,0,6.5,1.1,9.1,3.2,2.9,2.3,4.7,5.4,5.2,9.1.6,4.2-.6,8-3.3,11.2-.5.6-1.1,1.2-1.7,1.7-.3.2-.3.4-.2.7.4,1.2,1.1,2.2,1.9,3.1.8.8.5,2.1-.6,2.4,0,0,0,0-.1,0-1.9,0-3.8.3-5.6-.4-1.2-.4-2.3-1.2-3.1-2.2-.2-.2-.3-.3-.6-.3-.3,0-.7,0-1,0-.1-.1-.2-.3-.2-.5,0-2.1,0-4.2,0-6.2,0-.1,0-.2,0-.3,0-.2.3-.3.5-.3.6-.2.9-.6.9-1.2s-.3-1-.9-1.2c-.2,0-.3,0-.4-.2-.1-.4,0-.9,0-1.3,0-.2.3-.2.5-.3.6-.2.9-.6.9-1.3,0-.9.4-1.7,1.2-2.3,1.6-1.2,2.1-3,1.4-4.8-.6-1.6-1.8-2.5-3.5-2.8-.2,0-.5,0-.6-.3,0-.4,0-.8,0-1.1v-3.8c0-.2,0-.5.2-.7h0Z"/>
      <path class="cls-2" d="M260,120.1v7.1c-2,0-4-.4-5.8-1.2-.2,0-.4,0-.6-.2-4.5-2.4-7.2-6-7.9-11.1-.1-.9-.2-1.8-.1-2.7,0-.3,0-.6.2-.9.5-3.7,2.1-6.7,4.9-9.2,2.3-2,4.9-3.1,7.9-3.4.5,0,.9,0,1.4,0v5.7s0,0,0,0c-.6.2-1.2.2-1.7.5-1.5.7-2.3,1.9-2.4,3.6,0,.8.4,1.4,1.2,1.5.7,0,1.3-.5,1.4-1.3,0-.7.4-1.2,1-1.4.2,0,.4-.1.6,0,0,0,0,0,0,.1.1,1,0,2,0,3.1,0,.1,0,.2,0,.3-.8.9-1.2,2-1.4,3.2-.1.9.3,1.5,1.1,1.7,0,0,.1,0,.2.1,0,0,0,0,0,0v1.4s0,0,0,0c-.4.2-.8.3-1.1.7-.4.7-.2,1.5.6,1.9.2,0,.3.1.5.2,0,0,0,0,0,0h0Z"/>
      <path class="cls-5" d="M245.7,111.2c-.2,1.8,0,3.7.4,5.4,1.2,4.2,3.8,7.3,7.7,9.2,0,0,.2,0,.2.1-.3,2.9-1.4,5.4-3.3,7.6-2.2,2.6-4.9,4.2-8.3,4.9-.9.2-1.8.3-2.7.2v-12.9s0,0,0,0c0,0,.2,0,.3,0,.7-.2,1-.7,1-1.3s-.4-1.1-1-1.3c0,0-.2,0-.3,0,0,0,0,0,0,0v-12.9c2,0,3.9.4,5.8,1.2h0Z"/>
      <path class="cls-7" d="M234.2,122.9c.8,0,1.4.7,1.4,1.4s-.7,1.4-1.5,1.4c-.8,0-1.4-.7-1.4-1.5,0-.8.7-1.4,1.4-1.4h0Z"/>
      <path class="cls-7" d="M239.9,125.8c-.9,0-1.4-.7-1.4-1.5,0-.8.6-1.3,1.4-1.4h0c0,.1.1.2.2.4,0,.7,0,1.4,0,2.1,0,.1,0,.3-.2.4h0Z"/>
      <path class="cls-4" d="M260,110.6v-.2c.2-.4.5-.6.8-.8.8-.8.6-1.8-.5-2.2-.1,0-.2,0-.3-.2h0c0-.1-.1-.2-.1-.4,0-.7,0-1.4,0-2.1,0-.1,0-.2.1-.3h0c2.2,0,3.9,1.6,4.2,3.6.3,1.7-.3,3.1-1.6,4.1-.8.6-1.2,1.4-1.2,2.4,0,.7-.6,1.2-1.4,1.4h0c-.2-.2-.2-.4-.2-.6v-3.9c0-.2,0-.4.2-.6h0Z"/>
      <path class="cls-1" d="M260,117.2c.9,0,1.4.6,1.4,1.4s-.5,1.4-1.4,1.4h0c0-.1-.1-.2-.1-.4,0-.7,0-1.4,0-2.1,0-.1,0-.2.1-.3h0Z"/>
      <path class="cls-7" d="M260,104.3v2.8c-.9.1-1.3.6-1.4,1.5,0,.8-.7,1.4-1.5,1.3s-1.4-.6-1.4-1.4c0-2.3,2-4.4,4.3-4.3h0Z"/>
      <path class="cls-7" d="M260,110.6c0,1.7,0,3.4,0,5.1-1-.1-1.5-.6-1.4-1.6,0-1.3.5-2.5,1.4-3.5h0Z"/>
      <path class="cls-6" d="M260,107.2c.7,0,1.1.4,1.3,1s0,1.1-.5,1.6c-.2.2-.5.4-.7.7-.2-.2,0-.4,0-.6,0-.9,0-1.7,0-2.6h0Z"/>
      <path class="cls-7" d="M260,117.2v2.8c-.8,0-1.4-.6-1.4-1.4,0-.8.6-1.4,1.4-1.4Z"/>
      <path class="cls-4" d="M245.7,125.8c-.8,0-1.4-.6-1.4-1.4,0-.8.7-1.5,1.4-1.5s1.4.7,1.4,1.4c0,.8-.7,1.4-1.4,1.4h0Z"/>
      <path class="cls-4" d="M239.9,125.8v-2.9c.9,0,1.4.6,1.4,1.4s-.6,1.4-1.4,1.4h0Z"/>
    </g>
  </g>
</svg>