<?xml version="1.0" encoding="UTF-8"?><svg id="Calque_1" xmlns="http://www.w3.org/2000/svg" xmlns:xlink="http://www.w3.org/1999/xlink" viewBox="0 0 164 290"><defs><style>.cls-1{fill:#b5eefe;}.cls-1,.cls-2,.cls-3,.cls-4,.cls-5,.cls-6,.cls-7,.cls-8,.cls-9,.cls-10,.cls-11,.cls-12,.cls-13,.cls-14{stroke-width:0px;}.cls-15{clip-path:url(#clippath);}.cls-2,.cls-16{fill:none;}.cls-3{fill:#fe6e7b;}.cls-4{fill:#7fdafe;}.cls-5{fill:#b4eefe;}.cls-6{fill:#4ab7f6;}.cls-7{fill:#fe468c;}.cls-8{fill:#e2fafe;}.cls-9{fill:#99e1fe;}.cls-10{fill:#96e1fe;}.cls-11{fill:#fefefe;}.cls-12{fill:#f2f2fb;}.cls-12,.cls-14{fill-rule:evenodd;}.cls-13{fill:#fe468b;}.cls-14{fill:#fff;}.cls-16{stroke:#f2f2fb;stroke-linejoin:round;}</style><clipPath id="clippath"><rect class="cls-2" width="164" height="290"/></clipPath></defs><g class="cls-15"><path class="cls-12" d="M0,0h164v290H0V0Z"/><path class="cls-14" d="M25.42,145h0c0-30.87,25.33-55.89,56.58-55.89h0c15.01,0,29.4,5.89,40.01,16.37,10.61,10.48,16.57,24.7,16.57,39.52h0c0,30.87-25.33,55.89-56.58,55.89h0c-31.25,0-56.58-25.02-56.58-55.89Z"/><path class="cls-16" d="M25.42,145h0c0-30.87,25.33-55.89,56.58-55.89h0c15.01,0,29.4,5.89,40.01,16.37,10.61,10.48,16.57,24.7,16.57,39.52h0c0,30.87-25.33,55.89-56.58,55.89h0c-31.25,0-56.58-25.02-56.58-55.89Z"/><g id="_4PIJQ4.tif"><path class="cls-11" d="M57.49,147.82c0-7.99,0-15.98,0-23.97,0-.33.06-.39.39-.39,16.08.01,32.16.01,48.25,0,.33,0,.39.06.39.39-.01,14.1-.01,28.21,0,42.31,0,.33-.06.39-.39.39-13.47-.01-26.94,0-40.41,0,0-.24.21-.21.35-.24,1.69-.38,3.1-1.2,4.19-2.56.18-.22.4-.31.68-.25.33.07.66.05,1,.06,3.55,0,6.66-1.17,9.34-3.5,2.58-2.25,4.12-5.08,4.7-8.44.04-.23.02-.48.22-.66.28-.02.53.12.77.21,1.61.6,3.27.91,4.99.93.27,0,.55.05.81,0,.51-.12.82.1,1.14.47,1.15,1.35,2.62,2.18,4.39,2.36,1.3.14,2.61.07,3.91.02.53-.02.88-.36,1.05-.85.17-.51.08-.99-.3-1.37-.53-.54-.96-1.14-1.34-1.79-.26-.44-.44-.92-.63-1.39-.14-.35-.06-.6.23-.84,1.25-1.06,2.3-2.28,3.13-3.7,1.47-2.5,2.15-5.21,1.94-8.09-.25-3.41-1.59-6.36-3.97-8.82-2.23-2.32-4.95-3.7-8.11-4.23-.72-.12-1.45-.19-2.19-.15-4.05.05-7.48,1.51-10.29,4.44-2.05,2.13-3.28,4.65-3.75,7.56-.03.21-.04.45-.23.61-.15.03-.28-.05-.41-.1-1.72-.66-3.49-1.06-5.34-1.04-3.47.02-6.55,1.11-9.22,3.33-2.75,2.29-4.4,5.22-4.98,8.76-.03.21.03.49-.28.58Z"/><path class="cls-4" d="M71.93,163.66s-.1.02-.14,0c-.92-.23-1.52.16-2.13.85-.96,1.09-2.28,1.63-3.7,1.92-.09.02-.19,0-.25.1h-4.3c-1.09-.36-1.47-1.62-.54-2.62.46-.49.87-1.02,1.21-1.6.24-.41.42-.85.61-1.29.13-.31.08-.52-.18-.75-1.22-1.11-2.32-2.32-3.14-3.75-.98-1.7-1.68-3.5-1.82-5.48,0-.06,0-.13-.05-.18v-.48c.08-.25.08-.51,0-.76v-.67c.08-.22.08-.45,0-.67v-.48c.24-.54.23-1.13.37-1.7,1.04-4.16,3.44-7.27,7.18-9.34,2.14-1.19,4.44-1.76,6.88-1.75.16.17.15.38.15.58,0,3.91,0,7.81,0,11.72,0,.14,0,.29-.05.42-.06.19-.22.26-.39.31-.62.21-1.01.62-1.01,1.29,0,.64.38,1.05.99,1.26.16.06.34.11.4.3.07.23.05.47.05.71,0,3.74,0,7.47,0,11.21,0,.28.06.58-.15.82Z"/><path class="cls-11" d="M57.49,150.87c.28.67.29,1.41.49,2.11.82,2.91,2.43,5.32,4.7,7.29.24.21.27.37.17.65-.42,1.13-1,2.15-1.84,3.03-.71.75-.75,1.48-.16,2.16.16.18.44.2.55.43-1.19,0-2.39-.01-3.58,0-.29,0-.34-.06-.34-.34.01-5.11,0-10.22,0-15.33Z"/><path class="cls-9" d="M57.49,149.63c.15.25.15.51,0,.76v-.76Z"/><path class="cls-10" d="M57.49,148.3c.15.22.15.45,0,.67v-.67Z"/><path class="cls-13" d="M91.99,123.57c3.43-.04,6.46,1.08,9.1,3.22,2.9,2.35,4.67,5.39,5.19,9.09.59,4.23-.6,7.98-3.33,11.25-.51.61-1.07,1.18-1.69,1.67-.27.21-.28.4-.18.68.43,1.18,1.08,2.22,1.95,3.13.77.81.47,2.05-.56,2.4-.05.02-.09.05-.13.04-1.88-.04-3.79.28-5.62-.39-1.24-.45-2.27-1.21-3.1-2.23-.18-.22-.33-.32-.63-.26-.32.06-.66.02-1,.02-.14-.13-.15-.31-.15-.49,0-2.08-.01-4.16,0-6.24,0-.1.01-.19.04-.28.08-.24.3-.26.49-.33.6-.22.92-.65.92-1.25,0-.6-.31-1.03-.92-1.25-.16-.06-.35-.07-.45-.24-.11-.43-.1-.86,0-1.29.1-.19.3-.22.47-.3.55-.25.88-.65.92-1.28.06-.93.42-1.7,1.17-2.3,1.55-1.24,2.09-2.99,1.45-4.76-.58-1.61-1.78-2.5-3.46-2.77-.21-.03-.46,0-.57-.26-.1-.38-.06-.76-.06-1.14,0-1.26,0-2.51,0-3.77,0-.23-.03-.48.15-.68Z"/><path class="cls-3" d="M91.98,145.06c0,2.38,0,4.75,0,7.13-2.03.04-3.96-.43-5.82-1.21-.23.06-.4-.08-.58-.17-4.5-2.35-7.15-6.04-7.94-11.05-.14-.88-.15-1.77-.11-2.66.01-.3.03-.6.2-.87.49-3.66,2.09-6.73,4.87-9.16,2.28-1.99,4.94-3.13,7.95-3.43.47-.05.95-.1,1.42-.06,0,1.9,0,3.8,0,5.7-.01.02-.03.04-.04.06-.55.2-1.15.21-1.69.47-1.5.73-2.28,1.94-2.43,3.56-.07.81.45,1.45,1.19,1.52.73.07,1.33-.47,1.41-1.3.07-.68.39-1.16,1.02-1.43.18-.08.36-.14.55-.02.04.04.07.08.09.14.11,1.02.02,2.03.05,3.05.01.11-.02.21-.08.3-.8.93-1.22,2.02-1.38,3.23-.11.89.32,1.54,1.06,1.72.08.02.14.06.2.12.01.02.02.04.04.06,0,.47,0,.94,0,1.41-.01.02-.03.04-.04.06-.38.2-.84.28-1.07.72-.4.74-.16,1.5.6,1.86.16.07.33.11.48.2.01.02.03.04.04.06Z"/><path class="cls-6" d="M77.74,136.23c-.19,1.84-.08,3.66.43,5.43,1.22,4.21,3.82,7.26,7.74,9.19.09.04.17.09.25.13-.33,2.86-1.42,5.39-3.28,7.58-2.18,2.58-4.94,4.2-8.26,4.85-.89.18-1.79.3-2.7.24,0-4.29,0-8.58,0-12.87.01-.02.03-.03.04-.05.08-.05.18-.06.27-.09.66-.21,1-.66,1-1.32,0-.62-.36-1.07-1-1.27-.09-.03-.19-.04-.27-.09-.01-.02-.03-.04-.04-.05,0-4.29,0-8.58,0-12.87,2.03-.06,3.95.41,5.81,1.2Z"/><path class="cls-8" d="M66.2,147.91c.77,0,1.42.67,1.42,1.43,0,.79-.68,1.45-1.47,1.43-.76-.02-1.41-.69-1.4-1.46.01-.76.68-1.41,1.45-1.41Z"/><path class="cls-8" d="M71.93,150.78c-.89-.09-1.45-.66-1.44-1.46.01-.78.57-1.33,1.44-1.41,0,0,0,.01,0,.01.1.11.14.24.15.39.02.69.02,1.39,0,2.08,0,.14-.04.28-.15.39h0Z"/><path class="cls-5" d="M91.98,135.58c.03-.06.06-.12.09-.18.14-.35.46-.55.71-.81.81-.84.61-1.81-.46-2.25-.12-.05-.24-.09-.34-.17v-.03c-.09-.09-.13-.21-.13-.34-.02-.71-.02-1.43,0-2.14,0-.13.04-.25.14-.34,0,0,0-.03,0-.03,2.17,0,3.93,1.6,4.25,3.58.27,1.67-.29,3.08-1.61,4.13-.78.62-1.17,1.39-1.21,2.37-.03.74-.55,1.24-1.43,1.4,0,0,0-.04,0-.04-.17-.16-.16-.37-.16-.58,0-1.3,0-2.61,0-3.91,0-.23.04-.44.15-.64Z"/><path class="cls-1" d="M91.98,142.17c.9.09,1.44.64,1.44,1.45,0,.81-.54,1.35-1.44,1.45,0,0,0-.03,0-.03-.1-.09-.14-.21-.14-.34-.02-.71-.02-1.43,0-2.14,0-.13.04-.25.14-.34v-.03Z"/><path class="cls-8" d="M91.99,129.31c0,.94,0,1.89,0,2.83-.94.14-1.35.58-1.44,1.54-.07.78-.71,1.36-1.47,1.34-.76-.02-1.37-.64-1.4-1.42-.07-2.31,2-4.37,4.3-4.3Z"/><path class="cls-8" d="M91.98,135.58c0,1.71.01,3.42.02,5.13-1-.12-1.48-.65-1.43-1.64.07-1.32.5-2.51,1.42-3.49Z"/><path class="cls-7" d="M91.98,132.17c.67.04,1.13.37,1.35,1.01.22.64-.03,1.14-.52,1.56-.25.22-.49.44-.74.67-.16-.19-.08-.42-.08-.64-.01-.86,0-1.73,0-2.59Z"/><path class="cls-8" d="M91.99,142.2c0,.94,0,1.89,0,2.83-.85-.03-1.45-.63-1.44-1.44.01-.79.6-1.36,1.44-1.39Z"/><path class="cls-5" d="M77.67,150.78c-.77,0-1.44-.64-1.45-1.4-.01-.79.65-1.46,1.44-1.46.77,0,1.42.66,1.43,1.43,0,.77-.65,1.43-1.41,1.44Z"/><path class="cls-5" d="M71.92,150.77c0-.95,0-1.9,0-2.86.86,0,1.44.58,1.44,1.43,0,.84-.58,1.42-1.44,1.43Z"/></g></g></svg>