<svg xmlns="http://www.w3.org/2000/svg" id="Calque_1" data-name="Calque 1" version="1.1" viewBox="0 0 500 240"><defs><style>.cls-10,.cls-4,.cls-7{stroke-width:0}.cls-4{fill:#b4eefe}.cls-7{fill:#e2fafe}.cls-10{fill:#fefefe}</style></defs><path d="M0 0h500v240H0z" style="stroke-width:0;fill:#f2f2fb;fill-rule:evenodd"/><path d="M193.4 120c0-30.9 25.3-55.9 56.6-55.9 15 0 29.4 5.9 40 16.4s16.6 24.7 16.6 39.5c0 30.9-25.3 55.9-56.6 55.9-31.2 0-56.6-25-56.6-55.9" style="stroke-width:0;fill-rule:evenodd;fill:#fff"/><path d="M193.4 120c0-30.9 25.3-55.9 56.6-55.9 15 0 29.4 5.9 40 16.4s16.6 24.7 16.6 39.5c0 30.9-25.3 55.9-56.6 55.9-31.2 0-56.6-25-56.6-55.9Z" style="fill:none;stroke:#f2f2fb;stroke-linejoin:round"/><g id="_4PIJQ4.tif" data-name="4PIJQ4.tif"><path d="M225.5 122.8v-24c0-.3 0-.4.4-.4h48.3c.3 0 .4 0 .4.4v42.3c0 .3 0 .4-.4.4h-40.4c0-.2.2-.2.3-.2 1.7-.4 3.1-1.2 4.2-2.6.2-.2.4-.3.7-.2h1c3.6 0 6.7-1.2 9.3-3.5 2.6-2.2 4.1-5.1 4.7-8.4 0-.2 0-.5.2-.7.3 0 .5.1.8.2 1.6.6 3.3.9 5 .9h.8c.5-.1.8.1 1.1.5 1.2 1.4 2.6 2.2 4.4 2.4 1.3.1 2.6 0 3.9 0 .5 0 .9-.4 1.1-.9s0-1-.3-1.4c-.5-.5-1-1.1-1.3-1.8-.3-.4-.4-.9-.6-1.4-.1-.4 0-.6.2-.8 1.2-1.1 2.3-2.3 3.1-3.7 1.5-2.5 2.2-5.2 1.9-8.1-.2-3.4-1.6-6.4-4-8.8q-3.3-3.45-8.1-4.2c-.7-.1-1.4-.2-2.2-.2-4.1 0-7.5 1.5-10.3 4.4-2.1 2.1-3.3 4.6-3.8 7.6 0 .2 0 .4-.2.6-.2 0-.3 0-.4-.1-1.7-.7-3.5-1.1-5.3-1-3.5 0-6.6 1.1-9.2 3.3-2.8 2.3-4.4 5.2-5 8.8 0 .2 0 .5-.3.6" class="cls-10"/><path d="M239.9 138.7h-.1c-.9-.2-1.5.2-2.1.9-1 1.1-2.3 1.6-3.7 1.9 0 0-.2 0-.2.1h-4.3c-1.1-.4-1.5-1.6-.5-2.6.5-.5.9-1 1.2-1.6.2-.4.4-.9.6-1.3.1-.3 0-.5-.2-.8-1.2-1.1-2.3-2.3-3.1-3.8-1-1.7-1.7-3.5-1.8-5.5v-3.4c.2-.5.2-1.1.4-1.7q1.5-6.3 7.2-9.3 3.15-1.8 6.9-1.8c.2.2.2.4.2.6v12.1c0 .2-.2.3-.4.3-.6.2-1 .6-1 1.3s.4 1.1 1 1.3c.2 0 .3.1.4.3v11.9c0 .3 0 .6-.2.8Z" style="stroke-width:0;fill:#7fdafe"/><path d="M225.5 125.9c.3.7.3 1.4.5 2.1.8 2.9 2.4 5.3 4.7 7.3.2.2.3.4.2.6q-.6 1.65-1.8 3c-.7.8-.8 1.5-.2 2.2.2.2.4.2.5.4h-3.6c-.3 0-.3 0-.3-.3z" class="cls-10"/><path d="M225.5 124.6c.2.2.2.5 0 .8z" style="stroke-width:0;fill:#99e1fe"/><path d="M225.5 123.3c.2.2.2.4 0 .7z" style="stroke-width:0;fill:#96e1fe"/><path d="M260 98.6c3.4 0 6.5 1.1 9.1 3.2 2.9 2.3 4.7 5.4 5.2 9.1.6 4.2-.6 8-3.3 11.2-.5.6-1.1 1.2-1.7 1.7-.3.2-.3.4-.2.7.4 1.2 1.1 2.2 1.9 3.1.8.8.5 2.1-.6 2.4h-.1c-1.9 0-3.8.3-5.6-.4-1.2-.4-2.3-1.2-3.1-2.2-.2-.2-.3-.3-.6-.3h-1c-.1-.1-.2-.3-.2-.5v-6.5c0-.2.3-.3.5-.3q.9-.3.9-1.2c0-.9-.3-1-.9-1.2-.2 0-.3 0-.4-.2-.1-.4 0-.9 0-1.3 0-.2.3-.2.5-.3.6-.2.9-.6.9-1.3 0-.9.4-1.7 1.2-2.3 1.6-1.2 2.1-3 1.4-4.8-.6-1.6-1.8-2.5-3.5-2.8-.2 0-.5 0-.6-.3v-4.9c0-.2 0-.5.2-.7Z" style="stroke-width:0;fill:#fe468b"/><path d="M260 120.1v7.1c-2 0-4-.4-5.8-1.2-.2 0-.4 0-.6-.2-4.5-2.4-7.2-6-7.9-11.1-.1-.9-.2-1.8-.1-2.7 0-.3 0-.6.2-.9.5-3.7 2.1-6.7 4.9-9.2 2.3-2 4.9-3.1 7.9-3.4h1.4v5.7c-.6.2-1.2.2-1.7.5q-2.25 1.05-2.4 3.6c0 .8.4 1.4 1.2 1.5.7 0 1.3-.5 1.4-1.3 0-.7.4-1.2 1-1.4.2 0 .4-.1.6 0v.1c.1 1 0 2 0 3.1v.3c-.8.9-1.2 2-1.4 3.2-.1.9.3 1.5 1.1 1.7 0 0 .1 0 .2.1v1.4c-.4.2-.8.3-1.1.7-.4.7-.2 1.5.6 1.9.2 0 .3.1.5.2Z" style="stroke-width:0;fill:#fe6e7b"/><path d="M245.7 111.2c-.2 1.8 0 3.7.4 5.4 1.2 4.2 3.8 7.3 7.7 9.2 0 0 .2 0 .2.1-.3 2.9-1.4 5.4-3.3 7.6-2.2 2.6-4.9 4.2-8.3 4.9-.9.2-1.8.3-2.7.2v-12.9h.3c.7-.2 1-.7 1-1.3s-.4-1.1-1-1.3h-.3v-12.9c2 0 3.9.4 5.8 1.2Z" style="stroke-width:0;fill:#4ab7f6"/><path d="M234.2 122.9c.8 0 1.4.7 1.4 1.4s-.7 1.4-1.5 1.4-1.4-.7-1.4-1.5.7-1.4 1.4-1.4Zm5.7 2.9c-.9 0-1.4-.7-1.4-1.5s.6-1.3 1.4-1.4c0 .1.1.2.2.4v2.1c0 .1 0 .3-.2.4" class="cls-7"/><path d="M260 110.6v-.2c.2-.4.5-.6.8-.8.8-.8.6-1.8-.5-2.2-.1 0-.2 0-.3-.2 0-.1-.1-.2-.1-.4v-2.1c0-.1 0-.2.1-.3 2.2 0 3.9 1.6 4.2 3.6.3 1.7-.3 3.1-1.6 4.1q-1.2.9-1.2 2.4c0 .7-.6 1.2-1.4 1.4-.2-.2-.2-.4-.2-.6v-3.9c0-.2 0-.4.2-.6Z" class="cls-4"/><path d="M260 117.2c.9 0 1.4.6 1.4 1.4s-.5 1.4-1.4 1.4c0-.1-.1-.2-.1-.4v-2.1c0-.1 0-.2.1-.3" style="fill:#b5eefe;stroke-width:0"/><path d="M260 104.3v2.8c-.9.1-1.3.6-1.4 1.5 0 .8-.7 1.4-1.5 1.3s-1.4-.6-1.4-1.4c0-2.3 2-4.4 4.3-4.3Zm0 6.3v5.1c-1-.1-1.5-.6-1.4-1.6 0-1.3.5-2.5 1.4-3.5" class="cls-7"/><path d="M260 107.2c.7 0 1.1.4 1.3 1s0 1.1-.5 1.6c-.2.2-.5.4-.7.7-.2-.2 0-.4 0-.6v-2.6Z" style="stroke-width:0;fill:#fe468c"/><path d="M260 117.2v2.8c-.8 0-1.4-.6-1.4-1.4s.6-1.4 1.4-1.4" class="cls-7"/><path d="M245.7 125.8c-.8 0-1.4-.6-1.4-1.4s.7-1.5 1.4-1.5 1.4.7 1.4 1.4c0 .8-.7 1.4-1.4 1.4Zm-5.8 0v-2.9c.9 0 1.4.6 1.4 1.4s-.6 1.4-1.4 1.4Z" class="cls-4"/></g></svg>