<svg xmlns="http://www.w3.org/2000/svg" width="548" height="547" fill="none"><g clip-path="url(#a)"><path fill="#804F59" d="M359.704 132.358c2.055-1.203 4.897-1.028 8.044.785l147.577 85.113c6.262 3.592 11.303 12.348 11.288 19.518l-.482 169.376c-.016 3.577-1.268 6.078-3.313 7.266l21.387-12.42c2.039-1.171 3.314-3.692 3.314-7.25L548 225.371c.032-7.186-5.026-15.926-11.272-19.535l-147.593-85.113c-3.147-1.812-5.99-1.973-8.044-.785z"/><path fill="#613941" d="m547.992 225.383-.457 169.389c0 3.535-1.314 6.045-3.314 7.243l-21.41 12.432c2.056-1.198 3.314-3.706 3.314-7.3l.509-169.387c0-7.129-5.026-15.912-11.305-19.505l21.41-12.434c6.228 3.651 11.31 12.37 11.253 19.562"/><path fill="#FFB63C" d="M355.915 308.998c-.017 7.169 5.025 15.912 11.287 19.518l147.578 85.113c6.244 3.609 11.342.706 11.352-6.479l.482-169.376c.015-7.169-5.026-15.926-11.287-19.518l-147.578-85.113c-6.245-3.609-11.342-.705-11.351 6.479z"/><path fill="#804F59" d="M375.908 313.513c-1.091-.84-2.422-3.106-2.638-4.466l.432-152.449 132.948 76.677c1.079.841 2.391 3.094 2.582 4.162l.026.142-.432 152.592zm125.678-75.684-121.4-70.011-.427 139.089c.128.464.97 1.851 1.198 2.043l121.383 69.998.398-139.182c-.194-.528-.947-1.759-1.152-1.937"/><path fill="#804F59" d="m403.968 299.533 70.083 40.388c17.124-17.029 17.204-53.498.225-90.194l-70.006-40.464c-17.126 17.104-17.276 53.575-.302 90.27"/><path fill="#FFDE9B" d="m425.095 233.632 26.671 15.381-.038 16.479-26.633-15.358zm0 50.462 26.671 15.381-.038 16.48-26.633-15.36z"/><path fill="#fff" d="m401.833 261.513.009 3.158c0-2.123 4.356-3.138 6.897-1.663.804.468 1.202 1.067 1.205 1.662l-.009-3.158c0-2.152-4.471-3.08-6.855-1.704-.838.483-1.249 1.098-1.247 1.705"/><path fill="#C9CEE2" d="M421.068 259.008v3.176c0 1.303 2.077-.779-61.856 36.334-1.124.659-2.909.659-3.994 0l-7.996-4.651c-.581-.311-.853-.737-.853-1.162v-3.138c0 .382.272.813.815 1.162l8.029 4.647c1.085.62 2.87.62 3.994 0l61.002-35.21c.543-.306.859-.732.859-1.158"/><path fill="#F3F1FC" d="m420.208 257.885-7.95-4.649c-1.124-.658-2.948-.658-4.072 0l-61.002 35.173c-1.126.619-1.086 1.664 0 2.324l8.029 4.647c1.085.62 2.87.62 3.994 0l61.002-35.21c1.124-.62 1.124-1.665-.001-2.285m-17.179 5.267c-1.591-.929-1.591-2.4.038-3.331 1.551-.891 4.072-.891 5.662.04 3.789 2.214-1.985 5.463-5.7 3.291"/><path fill="#fff" d="m401.833 323.232.009 3.158c0-.607.409-1.222 1.247-1.704 2.455-1.417 6.848-.37 6.855 1.703l-.009-3.158c0-2.152-4.471-3.078-6.855-1.703-.838.483-1.249 1.097-1.247 1.704"/><path fill="#C9CEE2" d="M421.068 320.726v3.182c0 1.302 2.077-.78-61.856 36.333-1.124.659-2.909.659-3.994 0l-7.99-4.647c-.581-.311-.852-.736-.852-1.163v-3.137c0 .382.271.813.814 1.162l8.029 4.649c1.086.618 2.87.618 3.994 0l61.003-35.212c.536-.313.852-.74.852-1.167"/><path fill="#F3F1FC" d="m420.208 319.604-7.95-4.649c-1.124-.658-2.948-.658-4.072 0l-61.002 35.175c-1.126.62-1.086 1.667 0 2.325l8.029 4.648c1.085.619 2.87.619 3.994 0l61.002-35.211c1.124-.623 1.124-1.668-.001-2.288m-17.179 5.268c-1.591-.93-1.591-2.401.038-3.332 1.551-.891 4.072-.891 5.662.04 3.789 2.215-1.985 5.465-5.7 3.292"/><path fill="#3D4449" d="m361.48 385.029-16.399-9.52-.042-14.778 16.399 9.52zm-.092-32.397-16.399-9.519-.169-59.792 16.399 9.519z"/><path fill="#4F575F" d="m306.741 366.127-16.4-9.519 54.648-13.495 16.399 9.519z"/><path fill="#3D4449" d="m361.169 275.22-16.4-9.519-.042-14.778 16.4 9.519z"/><path fill="#4F575F" d="m361.127 260.442-16.4-9.519 14.708-8.481 16.4 9.519zm-54.504 64.223-16.4-9.52 54.546-49.444 16.4 9.519z"/><path fill="#4F575F" d="m291.885 322.859-16.399-9.519 14.708-8.481 16.399 9.519z"/><path fill="#3D4449" d="m292.112 402.516-16.4-9.52-.226-79.656 16.399 9.519z"/><path fill="#2A3134" d="m361.127 260.442 14.707-8.481.354 124.586-14.708 8.482-.042-14.777-54.647 13.523.029 10.259-14.708 8.482-.227-79.657 14.708-8.481.032 10.294 54.545-49.446zm.261 92.19-.169-59.792-54.545 49.473.067 23.814 54.647-13.493"/><path fill="#4F575F" d="m287.699 365.575-6.028 3.501c1.198-.683 1.924-2.178 1.966-4.27 0-6.739-7.272-14.466-11.412-11.954l6.027-3.502c1.196-.726 2.864-.597 4.744.47 5.857 3.333 8.936 13.339 4.703 15.755"/><path fill="#2A3134" d="M276.982 353.313c3.658 2.108 6.65 7.255 6.637 11.483-.012 4.227-3.024 5.943-6.68 3.834-3.712-2.141-6.677-7.302-6.665-11.53.011-4.229 2.996-5.923 6.708-3.787"/><path fill="#FFB63C" d="M425.126 233.648v16.461l14.001-8.365zm0 50.463v16.46l14.001-8.364z"/><path fill="#49E4A3" d="M152.59 547c-25.505 0-46.19-15.162-53.109-33.987-4.57-12.465-4.542-31.522-3.132-44.055a5.7 5.7 0 0 1 2.117-3.811 5.714 5.714 0 0 1 8.014.899 5.7 5.7 0 0 1 1.219 4.185c-1.327 11.796-1.109 28.987 2.508 38.853 4.778 13.007 18.569 23.413 34.322 25.889 29.659 4.665 60.572-15.732 67.831-50.662 2.683-12.898 2.129-22.316.659-47.086-1.16-18.954-3.313-54.227 59.184-79.86a5.74 5.74 0 0 1 4.405-.028 5.7 5.7 0 0 1 1.869 1.244 5.69 5.69 0 0 1 1.215 6.267 5.7 5.7 0 0 1-3.156 3.069c-54.943 22.531-53.18 51.376-52.123 68.611 1.292 22.137 2.278 34.952-.876 50.101C215.967 523.06 185.938 547 152.59 547"/><path fill="#4F575F" d="m141.588 417.478-.127 47.438c-.017 5.66-3.741 11.312-11.177 15.628-23.89 13.867-65.844 4.094-65.787-15.848l.134-47.438c-.056 19.985 41.854 29.741 65.788 15.848 7.432-4.316 11.156-9.968 11.169-15.628"/><path fill="#DBE6FA" d="m162.151 365.571-.207 72.739c-.085 30.261-63.593 45.303-100.592 23.964-11.633-6.708-17.444-15.511-17.419-24.3l.207-72.739c-.026 8.789 5.785 17.59 17.418 24.299 23.12 13.334 60.473 13.341 83.456 0 11.403-6.619 17.113-15.284 17.137-23.963"/><path fill="#BBCFEF" d="M161.944 420.626c.826 9.64-5.844 18.016-13.786 23.707-26.493 19-77.74 16.131-97.661-6.662-4.218-4.76-7.086-11.105-6.518-17.381 2.882 34.203 81.653 42.816 109.678 16.07 4.399-4.039 7.741-9.486 8.287-15.734"/><path fill="#BBCFEF" d="M161.944 404.886c.538 6.282-2.381 12.602-6.618 17.34-22.517 25.459-82.684 25.041-104.83-.295-4.217-4.76-7.085-11.106-6.517-17.381 2.864 33.977 81.504 42.959 109.678 16.07 4.399-4.043 7.741-9.486 8.287-15.734"/><path fill="#BBCFEF" d="M161.944 389.147c.538 6.282-2.381 12.602-6.618 17.338-22.572 25.525-82.732 24.986-104.83-.295-4.217-4.76-7.085-11.105-6.517-17.381 2.9 34.409 81.782 42.694 109.678 16.07 4.399-4.039 7.741-9.486 8.287-15.732"/><path fill="#ECF0F1" d="M144.73 344.462c23.121 13.333 23.244 34.952.285 48.278-22.984 13.342-60.337 13.334-83.46 0-23.12-13.334-23.242-34.937-.254-48.278 22.955-13.326 60.307-13.334 83.429 0"/><path fill="#3D4449" d="m205.999 299.013-4.549 61.683c-1.052 13.149-11.369 26.011-30.565 35.67-37.746 19.006-97.493 19.006-135.5 0-19.555-9.779-30.063-22.856-31.02-36.173l-.024-.478-4.165-59.937-.095-1.315q.036.686.144 1.364c1.627 14.058 12.59 27.75 32.36 38.06 39.685 20.68 101.99 20.68 141.387 0 15.615-8.177 30.634-21.31 32.027-38.874"/><path fill="#4F575F" d="M177.859 257.14c39.646 23.285 36.831 59.414-3.875 80.757-39.418 20.67-101.717 20.671-141.39-.006-40.935-21.337-44.174-57.465-4.815-80.742 40.724-24.082 109.094-24.084 150.08-.009"/><path fill="#2A3134" d="M127.908 296.82c11.279 0 20.422-5.29 20.422-11.815 0-6.526-9.143-11.816-20.422-11.816s-20.421 5.29-20.421 11.816c0 6.525 9.143 11.815 20.421 11.815m-48.47 0c11.279 0 20.422-5.29 20.422-11.815 0-6.526-9.143-11.816-20.422-11.816s-20.42 5.29-20.42 11.816c0 6.525 9.142 11.815 20.42 11.815"/><path fill="#FFCA6C" d="M63.568 39.807v244.02c.454 10.693 17.681 14.58 27.568 8.871 3.727-2.081 5.911-5.346 6.002-9.086V39.807c0-1.73.688-3.39 1.913-4.613a6.535 6.535 0 0 1 9.236 0 6.52 6.52 0 0 1 1.913 4.613c.03 43.686-.084-119.782.17 245.396 1.318 6.874 9.59 10.126 16.695 10.126s15.43-3.323 16.579-10.296l.127-243.194c-.002-56.45-80.203-54.441-80.203-2.032"/><path fill="#2A3134" d="M128.889 346.567c11.278 0 20.421-5.29 20.421-11.815 0-6.526-9.143-11.815-20.421-11.815-11.279 0-20.422 5.289-20.422 11.815s9.143 11.815 20.422 11.815m46.934-33.114c11.278 0 20.421-5.29 20.421-11.815s-9.143-11.815-20.421-11.815c-11.279 0-20.422 5.29-20.422 11.815s9.143 11.815 20.422 11.815m-145.305 0c11.279 0 20.422-5.29 20.422-11.815s-9.143-11.815-20.422-11.815-20.42 5.29-20.42 11.815 9.142 11.815 20.42 11.815m45.118 33.114c11.278 0 20.42-5.29 20.42-11.815 0-6.526-9.142-11.815-20.42-11.815s-20.422 5.289-20.422 11.815 9.143 11.815 20.422 11.815"/><path fill="#FFDE9B" d="M112.645 86.762v243.413c.109 3.587 2.243 6.769 6.02 8.97 3.085 1.782 6.962 2.673 10.819 2.673 3.856 0 7.714-.891 10.769-2.657 3.726-2.127 5.91-5.423 5.97-9.13V86.761c0-1.728.688-3.386 1.912-4.609a6.53 6.53 0 0 1 9.229 0 6.52 6.52 0 0 1 1.912 4.61V298.2c.109 3.541 2.294 6.804 6.02 8.965 10.083 5.82 27.44 1.783 27.558-9.115V88.791c0-56.442-80.209-54.463-80.209-2.03M13.254 88.79v209.321c.12 10.82 17.426 14.887 27.578 9.045 3.727-2.171 5.911-5.443 5.99-9.105V86.761a6.52 6.52 0 0 1 1.945-4.554 6.537 6.537 0 0 1 9.174 0 6.52 6.52 0 0 1 1.945 4.555v243.322c.12 10.89 17.483 14.858 27.588 9.046 3.716-2.177 5.9-5.449 5.98-9.106V86.762c-.003-52.648-80.2-54.28-80.2 2.028"/></g><defs><clipPath id="a"><path fill="#fff" d="M0 0h548v547H0z"/></clipPath></defs></svg>