<svg width="63" height="33" viewBox="0 0 63 33" fill="none" xmlns="http://www.w3.org/2000/svg">
<g clip-path="url(#clip0_283_3021)">
<path fill-rule="evenodd" clip-rule="evenodd" d="M8.33332 29.0624L3.9252 31.5299L4.90957 26.5749L1.2002 23.1449L6.21707 22.5499L8.33332 17.9624L10.4496 22.5499L15.4664 23.1449L11.7571 26.5749L12.7414 31.5299L8.33332 29.0624Z" fill="#ED8E00"/>
</g>
<g clip-path="url(#clip1_283_3021)">
<path fill-rule="evenodd" clip-rule="evenodd" d="M31.3333 24.4964L21.9293 29.7604L24.0293 19.1897L16.116 11.8724L26.8186 10.6031L31.3333 0.816406L35.848 10.6031L46.5506 11.8724L38.6373 19.1897L40.7373 29.7604L31.3333 24.4964Z" fill="#ED8E00"/>
</g>
<g clip-path="url(#clip2_283_3021)">
<path fill-rule="evenodd" clip-rule="evenodd" d="M55.3333 29.0624L50.9252 31.5299L51.9096 26.5749L48.2002 23.1449L53.2171 22.5499L55.3333 17.9624L57.4496 22.5499L62.4664 23.1449L58.7571 26.5749L59.7414 31.5299L55.3333 29.0624Z" fill="#ED8E00"/>
</g>
<defs>
<clipPath id="clip0_283_3021">
<rect width="15" height="15" fill="white" transform="translate(0.833252 17.6499)"/>
</clipPath>
<clipPath id="clip1_283_3021">
<rect width="32" height="32" fill="white" transform="translate(15.3333 0.149902)"/>
</clipPath>
<clipPath id="clip2_283_3021">
<rect width="15" height="15" fill="white" transform="translate(47.8333 17.6499)"/>
</clipPath>
</defs>
</svg>
