<svg xmlns="http://www.w3.org/2000/svg" width="63" height="33" fill="none"><g clip-path="url(#a)"><path fill="#ED8E00" fill-rule="evenodd" d="M8.333 29.062 3.925 31.53l.985-4.955-3.71-3.43 5.017-.595 2.116-4.588 2.117 4.588 5.016.595-3.709 3.43.984 4.955z" clip-rule="evenodd"/></g><g clip-path="url(#b)"><path fill="#ED8E00" fill-rule="evenodd" d="M31.333 24.496 21.93 29.76l2.1-10.57-7.913-7.318 10.703-1.269L31.333.816l4.515 9.787 10.703 1.27-7.914 7.317 2.1 10.57z" clip-rule="evenodd"/></g><g clip-path="url(#c)"><path fill="#ED8E00" fill-rule="evenodd" d="m55.333 29.062-4.408 2.468.985-4.955-3.71-3.43 5.017-.595 2.116-4.588 2.117 4.588 5.016.595-3.709 3.43.984 4.955z" clip-rule="evenodd"/></g><defs><clipPath id="a"><path fill="#fff" d="M.833 17.65h15v15h-15z"/></clipPath><clipPath id="b"><path fill="#fff" d="M15.333.15h32v32h-32z"/></clipPath><clipPath id="c"><path fill="#fff" d="M47.833 17.65h15v15h-15z"/></clipPath></defs></svg>