<svg xmlns="http://www.w3.org/2000/svg" width="98" height="98" fill="none"><path fill="#000" d="M44.119 61.654h10.258c1.062 0 1.923-.7 1.923-1.563v-1.495c0-.863-.86-1.563-1.923-1.563H44.119c-1.063 0-1.924.7-1.924 1.563v1.506c.008.858.866 1.552 1.924 1.552m-.642-3.058c0-.287.286-.521.642-.521h10.258c.17 0 .334.054.454.152s.188.23.188.37v1.505a.48.48 0 0 1-.188.368.72.72 0 0 1-.454.152H44.119c-.356 0-.642-.232-.642-.52z"/><path fill="#000" d="M70.927 48.36h-8.81l3.951-7.293c.945.492 1.705 1.188 2.193 2.01l.365.62c.207.359.654.585 1.14.578.476 0 .91-.221 1.116-.567l1.354-2.235c1.5-2.49.238-5.5-2.82-6.726l-7.053-2.82h-.003a1.2 1.2 0 0 0-.096-.447c-.161-.393-.51-.717-.967-.9l-.507-.204c-.952-.375-2.097-.056-2.565.713l-2.905 4.805c-.462.771-.07 1.703.88 2.082l.507.197-.002.002c.264.106.553.163.846.16.402 0 .791-.101 1.116-.29l1.635.65-6.521 9.665h-2.936v-2.18c.01-.046.048-.087.103-.109 2-.842 3.4-2.4 3.778-4.204.377-1.807-.308-3.652-1.854-4.986-.46-.395-1.169-.522-1.79-.322-.605.195-1.004.668-1.014 1.197v2.606c0 .153-.151.276-.339.276h-4.2c-.188 0-.34-.123-.34-.276v-2.575c.003-.539-.401-1.023-1.019-1.222-.606-.204-1.303-.085-1.758.3-1.548 1.333-2.236 3.177-1.858 4.984.38 1.805 1.779 3.362 3.782 4.203.058.017.096.06.103.109v2.198h-3.47l-1.923-4.126c.512-.497.659-1.178.385-1.788l-.116-.256v.002c-.442-.938-1.729-1.416-2.89-1.075l-1.443.432-3.643-7.896c.111-.108.198-.231.25-.366a1.02 1.02 0 0 0-.18-1.041l-1.397-1.704c-.385-.473-1.118-.664-1.77-.463l-1.647.522v-.002c-.651.201-1.053.737-.969 1.297l.315 2.016c.058.37.32.696.712.887.233.116.5.178.774.176l3.571 7.815-1.443.438h.003c-.563.17-1.017.513-1.267.957a1.52 1.52 0 0 0-.06 1.403l.115.26v.001c.279.6.923 1.038 1.697 1.157l.642 1.4h-3.142c-1.06 0-1.924.7-1.924 1.564v3.24c0 .862.863 1.564 1.924 1.564v11.581c0 .553.271 1.082.752 1.473.481.39 1.133.61 1.813.61h38.254c.68 0 1.335-.22 1.816-.61.48-.39.75-.92.75-1.473V54.727c1.063 0 1.923-.702 1.923-1.563v-3.241c0-.864-.861-1.563-1.924-1.563m.123-7.346-1.282 2.178-.334-.563c-.714-1.215-1.912-2.197-3.4-2.787l-6.63-2.636 2.566-4.257 6.86 2.725c2.43.977 3.422 3.366 2.22 5.34m-13.82-3.777-.5-.203a.57.57 0 0 1-.327-.3.43.43 0 0 1 .031-.4l2.905-4.798c.108-.177.332-.29.577-.29a.8.8 0 0 1 .284.052l.5.203c.151.06.27.168.325.3a.43.43 0 0 1-.032.398l-2.904 4.798a.62.62 0 0 1-.368.266.8.8 0 0 1-.49-.026m4.2 1.932 3.514 1.401-4.22 7.815h-5.482zm-16.503 5.965c-2.025-.863-3.268-2.587-3.208-4.443.055-1.166.63-2.278 1.616-3.125a.35.35 0 0 1 .346-.059c.135.041.221.145.219.262v2.594c.002.727.728 1.315 1.623 1.317h4.2-.002c.897 0 1.626-.588 1.63-1.317v-2.606c-.004-.11.077-.209.205-.25a.39.39 0 0 1 .384.074c1.268 1.094 1.828 2.61 1.518 4.091-.31 1.483-1.46 2.76-3.102 3.452-.483.2-.791.602-.794 1.042v2.178h-3.847v-2.182c-.012-.434-.315-.829-.788-1.028m-17.87-13.582 1.646-.521h.077v.002a.22.22 0 0 1 .18.078l1.386 1.694v-.002a.14.14 0 0 1 0 .152.2.2 0 0 1-.135.11l-2.72.822a.26.26 0 0 1-.185-.016.18.18 0 0 1-.103-.125l-.315-2.016c-.005-.084.065-.16.168-.178m1.627 3.126 1.54-.469 3.538 7.717-1.538.463zm.885 10.779-.115-.256v.002a.67.67 0 0 1 .019-.62.94.94 0 0 1 .558-.422l6.821-2.084a1.3 1.3 0 0 1 .342-.047c.408.002.774.209.916.522l.115.255v-.001a.64.64 0 0 1 0 .61.92.92 0 0 1-.545.417l-6.822 2.085v-.002c-.25.08-.527.072-.77-.018a.9.9 0 0 1-.519-.46zm1.82 1.412 6.605-2 1.635 3.49h-7.548zm38.256 19.486c0 .276-.137.541-.378.737-.24.195-.565.305-.906.305H30.135c-.71 0-1.285-.467-1.285-1.042V54.727h40.795zm1.924-13.191c0 .137-.068.27-.188.367a.73.73 0 0 1-.455.153H27.57c-.354 0-.642-.233-.642-.52v-3.241c0-.287.288-.522.642-.522h43.358c.171 0 .335.055.455.153.12.097.188.23.188.369z"/></svg>