<svg xmlns="http://www.w3.org/2000/svg" id="Calque_1" version="1.1" viewBox="0 0 32 42.5"><defs><style>.st0{fill:#2c406e}</style></defs><path d="M3 39c-.3 0-.5-.2-.5-.5s.2-.5.5-.5.5.2.5.5-.2.5-.5.5m0-1.5c-.6 0-1 .4-1 1s.4 1 1 1 1-.4 1-1-.4-1-1-1m1.4.1h1.5v.5h-1v.3h.9v.4h-.9v.7h-.5v-1.9Zm2 0h1.5v.5h-1v.3h.9v.4h-.9v.7h-.5v-1.9Zm1.9 0h.5v1.9h-.5v-1.9Zm2.4 1.2c-.1.1-.2.2-.4.2s-.5-.2-.5-.5.2-.5.5-.5.3 0 .4.2l.4-.3c-.2-.2-.4-.4-.8-.4-.5 0-1 .4-1 .9 0 .6.4 1 1 1 .3 0 .7-.1.8-.4l-.4-.3Zm.8-1.2H13v.4h-1v.3h.9v.4H12v.3h1v.4h-1.5v-1.9Zm3 0H16v.5h-1v.3h.9v.4H15v.7h-.5v-1.9Zm2.9.9h-.3V38h.3c.2 0 .3 0 .3.2s-.1.2-.3.2m.4.4c.2 0 .4-.3.4-.6 0-.2 0-.3-.2-.4-.1-.1-.3-.2-.6-.2h-.9v1.9h.5v-.6h.2l.4.6h.6l-.5-.7Zm1.9-.1-.2-.5-.2.5h.4Zm-.5-1.1h.5l.8 1.9h-.6v-.3H19v.3h-.7l.8-1.9Zm1.7 0h.5l.8 1v-1h.5v1.9h-.5l-.8-1v1h-.5v-1.9Zm3.7 1.2c-.1.1-.2.2-.4.2s-.5-.2-.5-.5.2-.5.5-.5.3 0 .4.2l.4-.3c-.2-.2-.4-.4-.8-.4-.5 0-1 .4-1 .9 0 .4.3.8.7 1l-.2.3.4.2.2-.4c.3 0 .6-.2.7-.4l-.4-.3Zm1.7-.1-.2-.5-.2.5h.4Zm-.4-1.1h.5l.8 1.9h-.6v-.3h-.9v.3H25l.8-1.9Zm1.6 0h.5v1.9h-.5v-1.9Zm1.9.7c-.3 0-.3 0-.3-.2s0-.1.2-.1.4 0 .5.2l.3-.4c-.2-.2-.5-.3-.8-.3s-.7.3-.7.6.3.5.7.6c.3 0 .3.1.3.2s0 .1-.2.1-.4 0-.6-.2l-.3.3c.2.2.6.3.9.3s.8-.2.8-.6-.3-.5-.7-.6M.7 42H.5v-1h.2c.3 0 .5.2.5.5s-.2.5-.5.5m0-1.4H0v1.9h.7c.7 0 1.1-.4 1.1-1s-.4-.9-1.1-.9m1.5 0h1.5v.4h-1v.3h.9v.4h-.9v.3h1v.4H2.2v-1.9Zm3 0h.5V42h.9v.5H5.2v-1.9Zm3 1.1-.2-.5-.2.5h.4Zm-.5-1.1h.5l.8 1.9h-.6v-.3h-.9v.3h-.7l.8-1.9Zm3.5 1.5h-.4v-.3h.4c.2 0 .3 0 .3.2s0 .2-.3.2m-.4-1.2h.3c.2 0 .2 0 .2.2s0 .2-.3.2h-.3v-.3Zm.8.5c.2 0 .3-.2.3-.4 0-.1 0-.2-.1-.3-.1-.1-.3-.2-.5-.2h-1v1.9h1c.5 0 .7-.2.7-.5s-.1-.4-.4-.5m.8-.9h.5v1.9h-.5v-1.9Zm2 1.4c-.3 0-.5-.2-.5-.5s.2-.5.5-.5.5.2.5.5-.2.5-.5.5m0-1.4c-.6 0-1 .4-1 1s.4 1 1 1 1-.4 1-1-.4-1-1-1m2.2 1.4h-.2v-1h.2c.3 0 .5.2.5.5s-.2.5-.5.5m0-1.4h-.7v1.9h.7c.7 0 1.1-.4 1.1-1s-.4-.9-1.1-.9m1.5 0h.5v1.9h-.5v-1.9Zm.9 0h.6l.4 1.2.4-1.2h.6l-.8 1.9h-.5l-.8-1.9Zm2.4 0h1.5v.4h-1v.3h.9v.4h-.9v.3h1v.4h-1.5v-1.9Zm2.9.9H24V41h.3c.2 0 .3 0 .3.2s-.1.2-.3.2m.4.4c.2 0 .4-.3.4-.6 0-.2 0-.3-.2-.4-.1-.1-.3-.2-.6-.2h-.9v1.9h.5v-.6h.2l.4.6h.6l-.5-.7Zm1.7-.5c-.3 0-.3 0-.3-.2s0-.1.2-.1.4 0 .5.2l.3-.4c-.2-.2-.5-.3-.8-.3s-.7.3-.7.6.3.5.7.6c.3 0 .3.1.3.2s0 .1-.2.1-.4 0-.6-.2l-.3.3c.2.2.6.3.9.3s.8-.2.8-.6-.3-.5-.7-.6m1-.6h.5v1.9h-.5v-1.9Zm1.5.4h-.6v-.5h1.7v.5h-.6v1.4H29V41Zm2.4-1 .5.2-.4.3h-.4l.3-.4Zm-.9.6H32v.4h-1v.3h.9v.4H31v.3h1v.4h-1.5v-1.9Zm-8.9-13.2h-5v2.3h3.9v2.4h-3.9v3.8h-2.9v-11h7.9v2.5Zm-15.5 0c-1.7 0-3.1 1.3-3.1 3s1.4 3 3.1 3 3.1-1.3 3.1-3-1.4-3-3.1-3m6.1 3c0 3.3-2.5 5.8-6.1 5.8S0 33.7 0 30.4s2.5-5.8 6.1-5.8 6.1 2.5 6.1 5.8m14 3.3h1.3c1.4 0 1.7-.7 1.7-1.2s-.3-1.2-1.7-1.2h-1.3v2.3Zm0-4.5h.9c.7 0 1.3-.3 1.3-1.1s-.5-1.1-1.3-1.1h-.9v2.1Zm-2.9-4.3h4.4c2.6 0 3.3 1.4 3.3 2.8s-.6 2-1.3 2.4c1 .2 2.3.8 2.3 2.6s-1.1 3.2-3.9 3.2h-4.8v-11Z" class="st0"/><path d="M11.2 9.3c-2 1.7-4 1.9-4.5 1.9h4.6s1.9 0 5.6-3.7c-2.5 0-4 .5-5.7 1.8" style="fill:#60a5dd"/><path d="M21.6 15.9c0 .2.2.4.3.6-2.1-.4-3.7-1.2-4.9-2.5-2.8-2.8-5.6-2.8-5.6-2.8H17s2.8 0 4.7 4.7" style="fill:#5ea551"/><path d="M16.9 7.5c1.7-1.7 4.2-3.4 7.5-3.7 1 1.1 1.7 2.3 2.2 3.7h-9.7" style="fill:#85c3ef"/><path d="M6.7 11.2c.1 0 4.7 0 7.5 5.6.9 1.7 2.5 4 5.5 5-1.1.4-2.4.6-3.6.6-6.2 0-11.2-5-11.2-11.2h1.9Z" style="fill:#cada9e"/><path d="M16 0C9.8 0 4.8 5 4.8 11.2h1.9c.5 0 2.5-.2 4.5-1.8 1-.8 2.1-2 2.9-3.8.9-1.7 2.5-3.9 5.5-5C18.5.2 17.3 0 16 0" class="st0"/><path d="M11.4 11.2s1.9 0 5.6-3.7h9.7c.4 1.2.6 2.4.6 3.7H11.4Z" style="fill:#acd6f5"/><path d="M24.4 3.8c-3.3.3-5.7 2-7.5 3.7-2.5.1-4 .5-5.7 1.9 1-.8 2.1-2 2.9-3.7.9-1.7 2.5-3.9 5.5-5 1.8.6 3.5 1.7 4.8 3.2" style="fill:#4b82c2"/><path d="M14.2 16.8c-2.8-5.5-7.3-5.6-7.5-5.6h4.7s2.8 0 5.6 2.8c1.2 1.2 2.9 2.1 4.9 2.5.6 1.2 1.2 2.1 2 2.7-1.2 1.2-2.6 2.1-4.2 2.6-3-1-4.6-3.3-5.5-5" style="fill:#abc981"/><path d="M21.9 16.5c0-.2-.2-.4-.3-.6-1.9-4.7-4.7-4.7-4.7-4.7h10.3c0 2-.5 4-1.5 5.6h-.4c-1.3 0-2.4-.1-3.5-.3" style="fill:#4b8142"/><path d="M21.9 16.5c1 .2 2.2.3 3.5.3h.4c-.5.9-1.1 1.7-1.9 2.4-.8-.6-1.4-1.5-2-2.7" style="fill:#86b872"/></svg>