<svg width="116" height="116" viewBox="0 0 116 116" fill="none" xmlns="http://www.w3.org/2000/svg">
<rect width="116" height="116" fill="#F5EFE2"/>
<path d="M109.236 64.9422C106.499 60.1329 103.353 55.4375 101.54 50.5476C99.501 45.0294 99.1508 39.2249 97.4362 33.6484C95.915 28.7084 93.5813 23.9186 90.0038 20.1351C86.4262 16.3516 81.5151 13.6105 76.2566 13.2491C69.1351 12.7599 62.3554 16.5962 57.279 21.5223C54.6091 24.1132 52.2726 27.0071 49.628 29.6202C47.0618 32.1555 44.1342 33.8735 41.1758 35.8501C34.9003 40.045 26.6582 40.4787 19.786 43.3754C11.457 46.8864 4.71934 53.853 1.59843 62.1872C-0.0656872 66.6212 -0.687628 71.7085 1.3603 75.9841C4.57926 82.7115 13.1996 85.2051 20.7834 84.9188C28.3671 84.6325 35.8248 82.339 43.403 82.7199C50.4068 83.0729 57.0661 85.6861 63.3891 88.6439C69.7122 91.6018 75.8924 94.9516 82.5937 96.9532C89.295 98.9547 96.7302 99.5107 103.193 96.8587C108.533 94.6681 113.074 89.9088 114.145 84.2405C115.475 77.2128 112.679 70.9858 109.236 64.9422Z" fill="#F1E4C9"/>
<path d="M101.513 46.3762C101.353 45.2955 101.453 44.102 102.237 43.2725C102.841 42.6769 103.634 42.3034 104.484 42.2144C105.346 42.1233 106.217 42.1805 107.06 42.3837C108.398 42.6433 109.665 43.1778 110.78 43.9525C111.836 44.6939 112.595 45.7759 112.927 47.011C113.074 47.6179 113.07 48.2512 112.915 48.8562C112.759 49.4613 112.457 50.02 112.034 50.4843C111.269 51.2997 110.13 51.7793 108.966 52.0107C107.732 52.2533 105.749 52.6258 104.718 51.8132C103.607 50.9248 102.724 49.7898 102.143 48.5008C101.835 47.8244 101.623 47.1095 101.513 46.3762Z" fill="#F6E0D1"/>
<path d="M20.3318 39.722C17.8153 40.6577 14.9992 41.1216 12.4337 40.2943C10.7013 39.7459 9.22253 38.5993 8.26399 37.061C7.79486 36.2938 7.49024 35.4381 7.36931 34.5479C7.24839 33.6577 7.31376 32.7522 7.56133 31.8884C7.81989 31.027 8.27867 30.2384 8.90044 29.5867C9.52221 28.9349 10.2895 28.4383 11.14 28.137C12.6924 27.6162 14.381 27.836 16.0205 27.8658C19.123 27.9089 22.1929 27.231 24.9862 25.8857C25.8877 25.449 26.7865 24.9363 27.7806 24.8143C28.5416 24.7336 29.3095 24.883 29.9841 25.2429C30.6588 25.6029 31.2091 26.1567 31.5635 26.8323C32.6747 29.043 31.0406 31.4218 29.657 33.0846C28.0782 34.9874 26.1934 36.6162 24.0793 37.9046C22.8907 38.6271 21.6359 39.2356 20.3318 39.722Z" fill="#F1E4C9"/>
<path d="M81.1839 80.5146C82.0374 80.9716 83.0689 81.0186 84.008 80.7885C84.543 80.6487 85.0567 80.4373 85.5351 80.1602C85.9383 79.9317 86.3751 79.4327 86.8472 79.5167C87.9527 79.7116 89.0312 79.9115 90.1686 79.7754C91.395 79.6276 92.6231 79.0698 93.3354 78.0602C93.4872 77.8421 93.6151 77.6084 93.7167 77.363C93.9662 76.7332 94.1027 76.0644 94.1199 75.3873C94.1636 74.4566 94.0544 73.4838 93.5655 72.6993C93.0767 71.9147 92.1392 71.3402 91.2135 71.5048C91.4481 71.2023 91.6013 70.8447 91.6585 70.4662C91.7156 70.0877 91.6749 69.7008 91.5401 69.3425C91.4054 68.9842 91.1811 68.6664 90.8886 68.4194C90.5962 68.1724 90.2453 68.0044 89.8695 67.9314C89.8613 67.1408 89.7746 66.353 89.6108 65.5794C89.4437 64.8022 89.0483 64.0926 88.4751 63.5416C88.0446 63.1775 87.5285 62.9289 86.9753 62.8193C86.4222 62.7096 85.8503 62.7426 85.3134 62.915C84.7801 63.096 84.29 63.3854 83.8739 63.765C83.4579 64.1447 83.1249 64.6062 82.8959 65.1208C82.4422 66.1589 82.3304 67.3145 82.5767 68.4203C82.1209 68.5549 81.7054 68.8001 81.3672 69.1339C81.029 69.4678 80.7785 69.8801 80.638 70.3341C80.4975 70.7882 80.4714 71.2699 80.5619 71.7364C80.6525 72.203 80.8569 72.6399 81.1571 73.0084C80.9392 73.2311 80.7355 73.4674 80.5472 73.7157C79.8517 74.6313 79.3712 75.7082 79.299 76.8472C79.2217 78.292 79.9071 79.8292 81.1839 80.5146Z" fill="#DBBC78"/>
<path d="M81.184 80.5148C82.0374 80.9718 83.0689 81.0188 84.0081 80.7887C84.543 80.6489 85.0567 80.4375 85.5352 80.1604C85.9384 79.9319 86.3752 79.4329 86.8473 79.5169C87.9527 79.7118 89.0313 79.9117 90.1686 79.7756C91.395 79.6278 92.6231 79.07 93.3354 78.0604C93.4872 77.8423 93.6151 77.6086 93.7168 77.3632C92.6631 78.0865 91.3883 78.4156 90.1161 78.2928C88.8439 78.1699 87.6557 77.6028 86.7599 76.6912C85.9635 76.8636 85.1393 76.8619 84.3436 76.6862C83.5479 76.5105 82.7997 76.1649 82.15 75.6731C81.4757 75.1523 80.9297 74.4839 80.554 73.7192C79.8585 74.6348 79.378 75.7117 79.3057 76.8508C79.2217 78.2922 79.9072 79.8294 81.184 80.5148Z" fill="#CFAD65"/>
<path d="M84.0602 74.4301C84.0646 74.4234 84.0711 74.4183 84.0787 74.4155C84.0863 74.4128 84.0945 74.4126 84.1022 74.415C84.1068 74.4164 84.1111 74.4186 84.1148 74.4216C84.1185 74.4247 84.1215 74.4284 84.1237 74.4327C84.1259 74.4369 84.1272 74.4415 84.1276 74.4463C84.1279 74.4511 84.1273 74.4559 84.1257 74.4604C83.9938 74.8886 83.9828 75.345 84.0938 75.7792C84.1448 75.9858 84.227 76.1835 84.3374 76.3655C84.4428 76.5447 84.5729 76.7081 84.7238 76.851C84.7608 76.8863 84.8011 76.9182 84.8397 76.9518C84.8784 76.9854 84.922 77.0123 84.964 77.0392C85.0487 77.0936 85.1374 77.1414 85.2295 77.182C85.3185 77.2257 85.4092 77.2609 85.5 77.2996C85.5907 77.3382 85.6848 77.3769 85.7805 77.4155C85.9048 77.4659 86.0359 77.5129 86.1703 77.56L86.2005 76.8124L86.2341 75.6263V74.4385C86.2341 72.8526 86.1619 71.2617 86.0493 69.6673C86.0475 69.6462 86.0533 69.6252 86.0656 69.6079C86.0779 69.5907 86.096 69.5784 86.1165 69.5733C86.1281 69.5702 86.1402 69.5695 86.152 69.5712C86.1639 69.5728 86.1753 69.5768 86.1856 69.5829C86.1959 69.589 86.2049 69.5971 86.2121 69.6067C86.2193 69.6163 86.2245 69.6272 86.2274 69.6388C86.5231 70.8064 86.7616 71.9908 86.9532 73.1819L86.9985 73.1382C87.0714 73.0667 87.1546 73.0067 87.2455 72.9601C87.3381 72.9156 87.4246 72.8591 87.5025 72.7921C87.5793 72.7271 87.6481 72.6532 87.7075 72.5721C87.773 72.4906 87.8293 72.4021 87.8755 72.3083C87.9766 72.1102 88.0225 71.8885 88.0082 71.6665C88.008 71.6596 88.0095 71.6526 88.0128 71.6465C88.016 71.6403 88.0208 71.635 88.0267 71.6313C88.0352 71.6264 88.0452 71.6251 88.0547 71.6276C88.0641 71.6301 88.0722 71.6362 88.0771 71.6447C88.2037 71.8746 88.2548 72.1385 88.2232 72.399C88.2086 72.533 88.1787 72.6649 88.1342 72.7921C88.0855 72.9209 88.0236 73.0442 87.9494 73.1601C87.876 73.2763 87.7963 73.3884 87.7108 73.4961C87.6242 73.6017 87.5136 73.6852 87.3883 73.7397C87.281 73.7853 87.168 73.8159 87.0523 73.8304C87.0775 74.0101 87.1044 74.1916 87.1296 74.3713L87.2724 75.5725L87.4 76.7922L87.4757 78.0035L87.5227 79.2165C87.5227 79.6213 87.5429 80.0262 87.5597 80.4328L87.5848 81.6525C87.5848 82.0573 87.5664 82.4639 87.5361 82.8688C87.5059 83.2737 87.442 83.6769 87.3681 84.0767L87.2472 84.6748C87.2035 84.8747 87.1615 85.0729 87.1144 85.2712C87.0103 85.666 86.9011 86.0591 86.7784 86.4472C86.6558 86.8353 86.508 87.22 86.3534 87.6013C86.1911 87.9836 86.0089 88.3571 85.8074 88.7202C85.8 88.7329 85.7897 88.7437 85.7775 88.7518C85.7653 88.76 85.7514 88.7652 85.7368 88.7673C85.7119 88.7701 85.6869 88.7631 85.6671 88.7477C85.6473 88.7323 85.6344 88.7098 85.631 88.6849C85.5756 88.2666 85.5571 87.8601 85.5437 87.4552C85.5302 87.0503 85.5184 86.6471 85.5235 86.2489C85.5285 85.8508 85.5235 85.4526 85.5386 85.0578C85.5386 84.8596 85.5487 84.663 85.552 84.4648L85.5806 83.8768C85.5941 83.4837 85.6192 83.0922 85.6612 82.7008C85.7032 82.3093 85.7419 81.9213 85.8007 81.5248L85.9603 80.3488C86.004 79.9573 86.046 79.5659 86.0762 79.1728L86.14 78.1513C85.9513 78.1572 85.7624 78.1414 85.5772 78.1043C85.316 78.0531 85.0693 77.9446 84.8548 77.7868C84.6448 77.6274 84.4563 77.4416 84.2937 77.2341C84.1323 77.0327 84.0004 76.8092 83.9023 76.5705C83.8096 76.3339 83.7529 76.0847 83.7343 75.8313C83.6995 75.3421 83.8131 74.8538 84.0602 74.4301Z" fill="#C09A47"/>
<g style="mix-blend-mode:overlay" opacity="0.3">
<path d="M89.08 69.6451C89.08 70.0198 89.2799 70.3171 89.5285 70.3171C89.7772 70.3171 89.9788 70.0147 89.9788 69.6451C89.9788 69.2755 89.7772 68.9731 89.5285 68.9731C89.2799 68.9731 89.08 69.2705 89.08 69.6451Z" fill="white"/>
<path d="M85.8493 67.0479C86.097 67.0479 86.2979 66.7448 86.2979 66.3709C86.2979 65.997 86.097 65.6938 85.8493 65.6938C85.6016 65.6938 85.4008 65.997 85.4008 66.3709C85.4008 66.7448 85.6016 67.0479 85.8493 67.0479Z" fill="white"/>
<path d="M87.8149 65.9208C87.956 65.9208 88.0703 65.7486 88.0703 65.5361C88.0703 65.3236 87.956 65.1514 87.8149 65.1514C87.6739 65.1514 87.5596 65.3236 87.5596 65.5361C87.5596 65.7486 87.6739 65.9208 87.8149 65.9208Z" fill="white"/>
<path d="M85.4008 68.644C85.4008 68.8557 85.515 69.0287 85.6544 69.0287C85.7939 69.0287 85.9098 68.8607 85.9098 68.644C85.9098 68.4273 85.7956 68.2593 85.6544 68.2593C85.5133 68.2593 85.4008 68.4306 85.4008 68.644Z" fill="white"/>
<path d="M88.4315 67.4242C88.4315 67.5703 88.5105 67.688 88.5995 67.688C88.6886 67.688 88.7675 67.5703 88.7675 67.4242C88.7675 67.278 88.6886 67.1621 88.5995 67.1621C88.5105 67.1621 88.4315 67.2797 88.4315 67.4242Z" fill="white"/>
</g>
<path d="M90.8004 88.0295C90.6697 87.9241 90.5169 87.8497 90.3534 87.8119C90.1898 87.774 90.0198 87.7738 89.8562 87.8111C90.1636 87.2533 90.466 86.672 90.5282 86.0387C90.5904 85.4053 90.3501 84.6947 89.7974 84.3889C89.2094 84.0529 88.4282 84.2629 87.9326 84.7249C87.437 85.1869 87.18 85.8438 87.0052 86.4956C86.9899 86.3343 86.9176 86.1836 86.8013 86.0707C86.685 85.9578 86.5322 85.89 86.3705 85.8794C86.2087 85.8689 86.0484 85.9164 85.9185 86.0133C85.7885 86.1102 85.6973 86.2502 85.6612 86.4083C85.5522 86.0349 85.385 85.6811 85.1656 85.36C85.0544 85.2005 84.9075 85.0691 84.7366 84.9764C84.5657 84.8837 84.3755 84.8321 84.1812 84.8257C83.7175 84.8408 83.3227 85.2188 83.1732 85.6573C83.0429 86.1051 83.0394 86.5802 83.1631 87.0299C83.0709 86.8954 82.9395 86.7926 82.7868 86.7355C82.6341 86.6783 82.4675 86.6697 82.3096 86.7107C82.3214 86.1361 82.3298 85.5347 82.1013 85.0122C81.8728 84.4897 81.3403 84.0412 80.7691 84.11C80.1979 84.1789 79.8216 84.6745 79.6099 85.1869C79.2673 86.0279 79.2601 86.9683 79.5897 87.8144C79.4088 87.6861 79.1925 87.6172 78.9706 87.6172C78.7488 87.6172 78.5325 87.6861 78.3516 87.8144C78.1774 87.9414 78.0485 88.1208 77.9837 88.3265C77.919 88.5321 77.9219 88.753 77.992 88.9568H79.7762H91.2489C91.2458 88.779 91.204 88.604 91.1266 88.4439C91.0491 88.2837 90.9378 88.1424 90.8004 88.0295Z" fill="#DBBC78"/>
<g style="mix-blend-mode:multiply">
<path d="M89.2311 88.4781C89.1641 88.4237 89.0855 88.3852 89.0014 88.3657C88.9172 88.3462 88.8298 88.3462 88.7456 88.3656C88.9215 88.0882 89.0387 87.7777 89.09 87.4533C89.1115 87.2922 89.0876 87.1282 89.0212 86.9799C88.9547 86.8315 88.8482 86.7046 88.7137 86.6133C88.5562 86.5382 88.3791 86.514 88.2072 86.5441C88.0353 86.5742 87.877 86.6571 87.7544 86.7813C87.5143 87.0347 87.3497 87.3501 87.279 87.6919C87.2723 87.6076 87.2355 87.5286 87.1752 87.4693C87.115 87.41 87.0354 87.3744 86.951 87.3691C86.8666 87.3638 86.7832 87.3891 86.716 87.4404C86.6487 87.4916 86.6023 87.5654 86.5851 87.6482C86.53 87.456 86.4443 87.274 86.3315 87.1089C86.2751 87.0265 86.2001 86.9586 86.1125 86.9108C86.0249 86.8629 85.9272 86.8364 85.8275 86.8334C85.7085 86.846 85.5958 86.8931 85.5032 86.9689C85.4107 87.0447 85.3424 87.146 85.3067 87.2601C85.2411 87.4913 85.2411 87.7362 85.3067 87.9674C85.2597 87.8977 85.1925 87.8441 85.114 87.8141C85.0355 87.784 84.9497 87.7789 84.8682 87.7994C84.8945 87.5039 84.8579 87.2061 84.7607 86.9258C84.7089 86.7868 84.6151 86.6674 84.4922 86.5842C84.3693 86.5011 84.2235 86.4584 84.0752 86.4621C83.7913 86.4957 83.5863 86.7528 83.4788 87.0149C83.3025 87.4478 83.2989 87.9318 83.4687 88.3673C83.3756 88.3014 83.2644 88.266 83.1504 88.266C83.0363 88.266 82.9251 88.3014 82.832 88.3673C82.7421 88.4324 82.6755 88.5247 82.642 88.6306C82.6084 88.7364 82.6097 88.8502 82.6455 88.9553H83.5628H89.4663C89.4643 88.8634 89.4422 88.7731 89.4016 88.6907C89.3609 88.6082 89.3028 88.5357 89.2311 88.4781Z" fill="#DBBC78"/>
</g>
<path d="M22.3118 88.0294C22.4424 87.924 22.5953 87.8496 22.7588 87.8118C22.9223 87.774 23.0923 87.7737 23.256 87.811C22.9485 87.2533 22.6461 86.672 22.584 86.0386C22.5218 85.4053 22.762 84.6946 23.3148 84.3889C23.9028 84.0529 24.684 84.2629 25.1796 84.7249C25.6752 85.1869 25.9322 85.8437 26.1069 86.4956C26.1222 86.3342 26.1945 86.1835 26.3109 86.0706C26.4272 85.9577 26.5799 85.8899 26.7417 85.8794C26.9035 85.8689 27.0637 85.9163 27.1937 86.0132C27.3236 86.1101 27.4148 86.2502 27.4509 86.4082C27.5599 86.0349 27.7272 85.6811 27.9465 85.3599C28.0579 85.1991 28.2055 85.0667 28.3773 84.9733C28.5492 84.88 28.7405 84.8282 28.936 84.8223C29.3997 84.8374 29.7945 85.2154 29.944 85.6539C30.0743 86.1017 30.0778 86.5768 29.9541 87.0265C30.0463 86.892 30.1777 86.7892 30.3304 86.732C30.4831 86.6749 30.6498 86.6663 30.8076 86.7073C30.7958 86.1327 30.7874 85.5313 31.0159 85.0088C31.2444 84.4863 31.7769 84.0377 32.3481 84.1066C32.9193 84.1755 33.2956 84.6711 33.5073 85.1835C33.8499 86.0245 33.8571 86.9648 33.5275 87.811C33.7084 87.6827 33.9248 87.6138 34.1466 87.6138C34.3684 87.6138 34.5847 87.6827 34.7656 87.811C34.9398 87.938 35.0688 88.1174 35.1335 88.323C35.1982 88.5286 35.1953 88.7496 35.1252 88.9534H33.341H21.8683C21.8713 88.7766 21.9125 88.6024 21.989 88.4429C22.0656 88.2835 22.1757 88.1424 22.3118 88.0294Z" fill="#DBBC78"/>
<g style="mix-blend-mode:multiply">
<path d="M23.8808 88.4781C23.9479 88.4237 24.0264 88.3852 24.1106 88.3657C24.1947 88.3462 24.2822 88.3462 24.3663 88.3656C24.1934 88.0875 24.0791 87.7771 24.0303 87.4533C24.0089 87.2922 24.0327 87.1282 24.0992 86.9799C24.1656 86.8315 24.2721 86.7046 24.4067 86.6133C24.5642 86.5382 24.7412 86.514 24.9131 86.5441C25.085 86.5742 25.2433 86.6571 25.3659 86.7813C25.606 87.0347 25.7707 87.3501 25.8414 87.6919C25.848 87.6076 25.8849 87.5286 25.9451 87.4693C26.0054 87.41 26.085 87.3744 26.1694 87.3691C26.2537 87.3638 26.3372 87.3891 26.4044 87.4404C26.4716 87.4916 26.5181 87.5654 26.5352 87.6482C26.5904 87.456 26.676 87.274 26.7889 87.1089C26.8453 87.0265 26.9203 86.9586 27.0079 86.9108C27.0955 86.8629 27.1931 86.8364 27.2929 86.8334C27.4119 86.846 27.5246 86.8931 27.6171 86.9689C27.7096 87.0447 27.778 87.146 27.8137 87.2601C27.8792 87.4913 27.8792 87.7362 27.8137 87.9674C27.8606 87.8977 27.9279 87.8441 28.0064 87.8141C28.0848 87.784 28.1707 87.7789 28.2522 87.7994C28.2258 87.5039 28.2625 87.2061 28.3597 86.9258C28.4114 86.7868 28.5053 86.6674 28.6282 86.5842C28.7511 86.5011 28.8968 86.4584 29.0451 86.4621C29.3274 86.4957 29.534 86.7528 29.6415 87.0149C29.8179 87.4478 29.8215 87.9318 29.6516 88.3673C29.7447 88.3014 29.8559 88.266 29.97 88.266C30.084 88.266 30.1953 88.3014 30.2883 88.3673C30.3783 88.4323 30.4449 88.5247 30.4782 88.6306C30.5115 88.7366 30.5097 88.8504 30.4731 88.9553H29.5559H23.6523C23.6536 88.8639 23.6746 88.7739 23.7141 88.6916C23.7535 88.6092 23.8104 88.5363 23.8808 88.4781Z" fill="#DBBC78"/>
</g>
<path d="M41.2773 79.5455C40.3969 80.6056 38.9891 81.1197 37.6132 81.1902C36.4624 81.249 35.3217 81.0306 34.2129 80.7434C34.0096 80.6896 33.7223 80.5418 33.514 80.5451C33.3057 80.5485 32.9881 80.735 32.7714 80.819C32.2515 81.0226 31.721 81.1981 31.1821 81.3448C30.5942 81.5044 29.9911 81.6018 29.3829 81.6354C28.2757 81.6875 27.1165 81.4422 26.2043 80.8374C25.5549 80.416 25.0532 79.8024 24.7693 79.0821C24.4854 78.3618 24.4334 77.5709 24.6206 76.8197C24.8078 76.0685 25.2248 75.3944 25.8135 74.8916C26.4022 74.3888 27.1332 74.0823 27.9045 74.015C27.151 73.2355 26.6202 72.2683 26.3674 71.2141C26.1146 70.1599 26.149 69.0571 26.4671 68.0207C26.7851 66.9843 27.3751 66.0521 28.1757 65.3211C28.9763 64.5901 29.9582 64.0871 31.0192 63.8644C32.0801 63.642 33.1813 63.708 34.2081 64.0555C35.2349 64.4031 36.1498 65.0195 36.8575 65.8406C37.5652 66.6617 38.0399 67.6575 38.2322 68.7243C38.4245 69.7912 38.3274 70.89 37.9509 71.9066C38.5002 71.6512 39.1974 71.5907 39.6729 71.9637C40.1483 72.3366 40.1651 73.227 39.6124 73.4757C39.8588 73.5623 40.0954 73.675 40.318 73.8117C40.7902 74.0978 41.1951 74.4824 41.505 74.9394C41.8148 75.3963 42.0224 75.9148 42.1135 76.4594C42.2046 77.0039 42.177 77.5617 42.0327 78.0946C41.8884 78.6275 41.6307 79.123 41.2773 79.5472V79.5455Z" fill="#DBBC78"/>
<path d="M41.2773 79.5457C40.397 80.6058 38.9891 81.1199 37.6132 81.1905C36.4624 81.2493 35.3217 81.0309 34.2129 80.7436C34.0096 80.6898 33.7223 80.542 33.514 80.5453C33.3057 80.5487 32.9882 80.7352 32.7715 80.8192C32.2515 81.0228 31.721 81.1984 31.1822 81.345C30.5943 81.5046 29.9912 81.602 29.3829 81.6357C28.2758 81.6877 27.1166 81.4425 26.2043 80.8377C26.9554 80.8662 27.7074 80.824 28.4505 80.7117C30.3976 80.4059 32.3363 79.4265 33.3225 77.7213C34.4296 77.8305 35.5519 77.9229 36.6523 77.7532C37.7527 77.5835 38.848 77.1282 39.5822 76.2882C40.0509 75.7617 40.3342 75.096 40.3886 74.3932C40.3824 74.1955 40.3588 73.9987 40.318 73.8052C40.7902 74.0913 41.1951 74.4759 41.505 74.9329C41.8149 75.3898 42.0224 75.9083 42.1135 76.4529C42.2046 76.9974 42.177 77.5552 42.0327 78.0881C41.8884 78.621 41.6307 79.1165 41.2773 79.5407V79.5457Z" fill="#CFAD65"/>
<path d="M35.7719 75.2547C35.7679 75.2484 35.762 75.2436 35.755 75.2408C35.7481 75.2381 35.7405 75.2377 35.7333 75.2396C35.7251 75.2426 35.7183 75.2486 35.7142 75.2564C35.7102 75.2641 35.7092 75.2731 35.7114 75.2816C35.8311 75.6717 35.8415 76.0871 35.7417 76.4828C35.6945 76.6706 35.6192 76.8501 35.5182 77.0153C35.4232 77.1788 35.3049 77.3276 35.1671 77.4572C35.1335 77.4908 35.0965 77.5193 35.0613 77.5496C35.0245 77.5783 34.9864 77.6052 34.947 77.6302C34.8704 77.6795 34.7901 77.7228 34.7068 77.7596C34.6261 77.7982 34.5388 77.8318 34.4598 77.8671L34.2045 77.9729C34.0919 78.0183 33.9726 78.062 33.85 78.104L33.8231 77.4236L33.7929 76.3433V75.2614C33.7929 73.8166 33.8601 72.3701 33.9609 70.9169C33.9626 70.8975 33.9572 70.8782 33.9458 70.8624C33.9344 70.8467 33.9176 70.8356 33.8987 70.8312C33.8882 70.8285 33.8773 70.8279 33.8666 70.8295C33.8558 70.831 33.8455 70.8348 33.8363 70.8404C33.827 70.8461 33.819 70.8535 33.8127 70.8623C33.8064 70.8711 33.8019 70.8811 33.7996 70.8917C33.5291 71.9535 33.3124 73.032 33.1377 74.1173L33.0973 74.077C33.0315 74.0097 32.9555 73.953 32.8722 73.909C32.7863 73.8726 32.7056 73.8252 32.632 73.7679C32.5626 73.7077 32.5001 73.6401 32.4455 73.5663C32.3858 73.4924 32.3351 73.4118 32.2943 73.326C32.2032 73.1458 32.1614 72.9447 32.1733 72.7431C32.1735 72.737 32.1721 72.731 32.1691 72.7256C32.1662 72.7203 32.1618 72.7159 32.1565 72.7128C32.1528 72.7105 32.1487 72.7089 32.1443 72.7082C32.14 72.7075 32.1355 72.7077 32.1313 72.7088C32.127 72.7099 32.123 72.7119 32.1196 72.7146C32.1161 72.7173 32.1133 72.7207 32.1112 72.7246C31.996 72.9341 31.949 73.1743 31.9768 73.4117C31.9911 73.5336 32.0187 73.6536 32.0591 73.7696C32.1027 73.8873 32.1591 74 32.2271 74.1056C32.2938 74.2123 32.3667 74.3149 32.4455 74.413C32.5236 74.5094 32.6239 74.5855 32.7378 74.6348C32.8342 74.6764 32.936 74.7041 33.0402 74.7171C33.0145 74.8817 32.9909 75.0464 32.9697 75.211L32.8386 76.3047L32.7328 77.4034L32.6656 78.5055L32.6219 79.6092C32.6219 79.9772 32.6034 80.3468 32.5883 80.7164L32.5648 81.8268C32.5648 82.1964 32.5816 82.566 32.6101 82.9356C32.6387 83.3052 32.6958 83.6698 32.7563 84.0344L32.8655 84.5804C32.9075 84.7601 32.9445 84.9416 32.9881 85.1213C33.0822 85.4808 33.1813 85.8387 33.2922 86.1932C33.4031 86.5476 33.5392 86.8971 33.6803 87.2432C33.8299 87.5919 33.9981 87.9323 34.1843 88.2629C34.191 88.2744 34.2002 88.2841 34.2113 88.2914C34.2223 88.2987 34.235 88.3033 34.2481 88.3049C34.2593 88.3066 34.2707 88.3059 34.2816 88.3031C34.2925 88.3002 34.3028 88.2952 34.3117 88.2883C34.3207 88.2814 34.3281 88.2728 34.3336 88.2629C34.3392 88.2531 34.3427 88.2422 34.3439 88.231C34.3895 87.8591 34.4164 87.4851 34.4245 87.1104C34.4413 86.7408 34.4464 86.3746 34.443 86.0134C34.4397 85.6522 34.443 85.2876 34.4296 84.9281C34.4296 84.7484 34.4195 84.5686 34.4161 84.3888L34.3909 83.8529C34.3775 83.4951 34.354 83.1389 34.317 82.7828C34.2801 82.4266 34.2431 82.0738 34.191 81.7193L34.0449 80.6525C34.0062 80.2964 33.9676 79.9402 33.939 79.5824L33.8802 78.6516C34.0493 78.6564 34.2184 78.6418 34.3842 78.608C34.6222 78.5618 34.8471 78.4638 35.0428 78.3207C35.232 78.1753 35.4014 78.0059 35.5468 77.8167C35.6943 77.6335 35.8143 77.4297 35.9029 77.2119C35.9874 76.9969 36.039 76.7703 36.0558 76.5399C36.0941 76.0926 35.995 75.6442 35.7719 75.2547Z" fill="#C09A47"/>
<g style="mix-blend-mode:overlay" opacity="0.3">
<path d="M30.065 69.8568C30.065 70.3944 29.729 70.8295 29.3157 70.8295C28.9024 70.8295 28.5664 70.3944 28.5664 69.8568C28.5664 69.3192 28.9024 68.8857 29.3157 68.8857C29.729 68.8857 30.065 69.3209 30.065 69.8568Z" fill="white"/>
<path d="M31.2292 66.6533C31.501 66.6533 31.7214 66.3674 31.7214 66.0149C31.7214 65.6623 31.501 65.3765 31.2292 65.3765C30.9573 65.3765 30.7369 65.6623 30.7369 66.0149C30.7369 66.3674 30.9573 66.6533 31.2292 66.6533Z" fill="white"/>
<path d="M32.5496 67.6261C32.5367 67.6761 32.5101 67.7214 32.4727 67.757C32.4353 67.7925 32.3887 67.8168 32.3381 67.8272C32.2876 67.8375 32.2351 67.8335 32.1868 67.8155C32.1384 67.7975 32.0961 67.7663 32.0646 67.7254C32.0331 67.6846 32.0137 67.6357 32.0087 67.5844C32.0036 67.533 32.013 67.4813 32.0359 67.4351C32.0588 67.3888 32.0942 67.3499 32.1381 67.3228C32.182 67.2957 32.2326 67.2815 32.2842 67.2817C32.3645 67.2934 32.4371 67.3359 32.4866 67.4002C32.5362 67.4645 32.5588 67.5455 32.5496 67.6261Z" fill="white"/>
<path d="M28.5244 71.5371C28.5111 71.587 28.4841 71.6323 28.4463 71.6676C28.4086 71.7029 28.3616 71.7269 28.3109 71.7368C28.2601 71.7468 28.2076 71.7422 28.1594 71.7237C28.1111 71.7051 28.069 71.6734 28.0379 71.6321C28.0068 71.5908 27.988 71.5415 27.9836 71.49C27.9791 71.4385 27.9893 71.3868 28.0129 71.3408C28.0365 71.2948 28.0725 71.2563 28.1169 71.2298C28.1613 71.2033 28.2123 71.1899 28.264 71.191C28.3437 71.2039 28.4153 71.2471 28.4639 71.3116C28.5124 71.3761 28.5341 71.4569 28.5244 71.5371Z" fill="white"/>
<path d="M28.9058 67.2814C28.8986 67.3084 28.884 67.3328 28.8636 67.3519C28.8432 67.371 28.8179 67.384 28.7906 67.3894C28.7632 67.3949 28.7348 67.3926 28.7087 67.3827C28.6826 67.3729 28.6597 67.356 28.6427 67.3338C28.6257 67.3117 28.6153 67.2853 28.6125 67.2575C28.6098 67.2297 28.6149 67.2017 28.6272 67.1767C28.6396 67.1517 28.6586 67.1306 28.6823 67.1158C28.706 67.1011 28.7334 67.0933 28.7613 67.0933C28.8054 67.0991 28.8453 67.1222 28.8724 67.1575C28.8995 67.1928 28.9115 67.2373 28.9058 67.2814Z" fill="white"/>
<path d="M32.3548 66.0165C32.5181 66.0165 32.6504 65.8443 32.6504 65.6318C32.6504 65.4193 32.5181 65.2471 32.3548 65.2471C32.1915 65.2471 32.0591 65.4193 32.0591 65.6318C32.0591 65.8443 32.1915 66.0165 32.3548 66.0165Z" fill="white"/>
</g>
<path d="M78.2961 37.354H35.3049V46.6494H78.2961V37.354Z" fill="#DBBC78"/>
<g style="mix-blend-mode:multiply">
<path d="M78.2961 37.354H35.3049V38.1251H78.2961V37.354Z" fill="#DBBC78"/>
</g>
<path d="M77.9853 34.2075H35.614V36.3882H77.9853V34.2075Z" fill="#DBBC78"/>
<g style="mix-blend-mode:multiply">
<path d="M77.9853 34.2075H35.614V34.6174H77.9853V34.2075Z" fill="#DBBC78"/>
</g>
<path d="M78.8169 35.9409H34.7824C34.6562 35.9409 34.554 36.0432 34.554 36.1694V37.4462C34.554 37.5724 34.6562 37.6747 34.7824 37.6747H78.8169C78.9431 37.6747 79.0454 37.5724 79.0454 37.4462V36.1694C79.0454 36.0432 78.9431 35.9409 78.8169 35.9409Z" fill="#B48F4B"/>
<path d="M78.8354 32.5088H34.764C34.648 32.5088 34.554 32.6028 34.554 32.7188V34.0325C34.554 34.1485 34.648 34.2425 34.764 34.2425H78.8354C78.9514 34.2425 79.0454 34.1485 79.0454 34.0325V32.7188C79.0454 32.6028 78.9514 32.5088 78.8354 32.5088Z" fill="#B48F4B"/>
<path d="M78.2944 58.4028H36.1113V88.9435H78.2944V58.4028Z" fill="#DBBC78"/>
<path d="M78.5917 84.3604H35.8156C35.6792 84.3604 35.5686 84.4709 35.5686 84.6073V88.6981C35.5686 88.8345 35.6792 88.9451 35.8156 88.9451H78.5917C78.7281 88.9451 78.8387 88.8345 78.8387 88.6981V84.6073C78.8387 84.4709 78.7281 84.3604 78.5917 84.3604Z" fill="#C7A355"/>
<g style="mix-blend-mode:multiply">
<path d="M78.2944 58.4028V62.3542H78.1853C77.9505 62.354 77.7181 62.3075 77.5013 62.2175C77.2845 62.1274 77.0876 61.9956 76.9218 61.8295C76.7559 61.6633 76.6245 61.4661 76.5348 61.2492C76.4452 61.0322 76.3992 60.7997 76.3994 60.565C76.3996 60.7999 76.3536 61.0325 76.2638 61.2496C76.1741 61.4666 76.0425 61.6639 75.8765 61.83C75.7104 61.9962 75.5133 62.128 75.2963 62.218C75.0794 62.3079 74.8468 62.3542 74.6119 62.3542H74.1281C73.8932 62.3542 73.6606 62.3079 73.4436 62.218C73.2266 62.128 73.0295 61.9962 72.8635 61.83C72.6975 61.6639 72.5658 61.4666 72.4761 61.2496C72.3864 61.0325 72.3403 60.7999 72.3405 60.565C72.3408 60.7997 72.2947 61.0322 72.2051 61.2492C72.1155 61.4661 71.984 61.6633 71.8182 61.8295C71.6523 61.9956 71.4554 62.1274 71.2386 62.2175C71.0218 62.3075 70.7894 62.354 70.5547 62.3542H70.0709C69.8359 62.3542 69.6032 62.3079 69.3862 62.218C69.1691 62.1281 68.9718 61.9963 68.8057 61.8301C68.6396 61.664 68.5078 61.4668 68.4178 61.2497C68.3279 61.0326 68.2817 60.8 68.2817 60.565C68.2819 60.7997 68.2359 61.0322 68.1462 61.2492C68.0566 61.4661 67.9251 61.6633 67.7593 61.8295C67.5935 61.9956 67.3965 62.1274 67.1797 62.2175C66.963 62.3075 66.7306 62.354 66.4958 62.3542H66.0137C65.7789 62.354 65.5465 62.3075 65.3297 62.2175C65.1129 62.1274 64.916 61.9956 64.7502 61.8295C64.5843 61.6633 64.4529 61.4661 64.3632 61.2492C64.2736 61.0322 64.2276 60.7997 64.2278 60.565C64.228 60.7999 64.182 61.0325 64.0922 61.2496C64.0025 61.4666 63.8709 61.6639 63.7049 61.83C63.5388 61.9962 63.3417 62.128 63.1247 62.218C62.9078 62.3079 62.6752 62.3542 62.4403 62.3542H61.9581C61.7232 62.3542 61.4907 62.3079 61.2737 62.218C61.0567 62.128 60.8596 61.9962 60.6936 61.83C60.5276 61.6639 60.3959 61.4666 60.3062 61.2496C60.2165 61.0325 60.1704 60.7999 60.1706 60.565C60.1708 60.7997 60.1248 61.0322 60.0352 61.2492C59.9456 61.4661 59.8141 61.6633 59.6482 61.8295C59.4824 61.9956 59.2855 62.1274 59.0687 62.2175C58.8519 62.3075 58.6195 62.354 58.3848 62.3542H57.9009C57.6662 62.354 57.4338 62.3075 57.217 62.2175C57.0002 62.1274 56.8033 61.9956 56.6375 61.8295C56.4716 61.6633 56.3401 61.4661 56.2505 61.2492C56.1609 61.0322 56.1149 60.7997 56.1151 60.565C56.1153 60.7999 56.0692 61.0325 55.9795 61.2496C55.8898 61.4666 55.7581 61.6639 55.5921 61.83C55.4261 61.9962 55.229 62.128 55.012 62.218C54.795 62.3079 54.5625 62.3542 54.3276 62.3542H53.8454C53.6104 62.3542 53.3778 62.3079 53.1607 62.218C52.9436 62.1281 52.7464 61.9963 52.5803 61.8301C52.4141 61.664 52.2823 61.4668 52.1924 61.2497C52.1025 61.0326 52.0562 60.8 52.0562 60.565C52.0567 61.0388 51.869 61.4934 51.5344 61.8289C51.1999 62.1644 50.7458 62.3533 50.272 62.3542H49.7899C49.555 62.3542 49.3224 62.3079 49.1054 62.218C48.8885 62.128 48.6913 61.9962 48.5253 61.83C48.3593 61.6639 48.2277 61.4666 48.138 61.2496C48.0482 61.0325 48.0021 60.7999 48.0024 60.565C48.0026 60.7997 47.9566 61.0322 47.8669 61.2492C47.7773 61.4661 47.6458 61.6633 47.48 61.8295C47.3142 61.9956 47.1172 62.1274 46.9005 62.2175C46.6837 62.3075 46.4513 62.354 46.2165 62.3542H45.736C45.5013 62.354 45.2689 62.3075 45.0521 62.2175C44.8353 62.1274 44.6384 61.9956 44.4726 61.8295C44.3067 61.6633 44.1753 61.4661 44.0856 61.2492C43.996 61.0322 43.95 60.7997 43.9502 60.565C43.9504 60.7999 43.9044 61.0325 43.8146 61.2496C43.7249 61.4666 43.5933 61.6639 43.4273 61.83C43.2612 61.9962 43.0641 62.128 42.8471 62.218C42.6301 62.3079 42.3976 62.3542 42.1627 62.3542H41.6805C41.4456 62.3542 41.2131 62.3079 40.9961 62.218C40.7791 62.128 40.582 61.9962 40.416 61.83C40.25 61.6639 40.1183 61.4666 40.0286 61.2496C39.9389 61.0325 39.8928 60.7999 39.893 60.565C39.8932 60.7997 39.8472 61.0322 39.7576 61.2492C39.668 61.4661 39.5365 61.6633 39.3706 61.8295C39.2048 61.9956 39.0079 62.1274 38.7911 62.2175C38.5743 62.3075 38.3419 62.354 38.1072 62.3542H37.6233C37.322 62.3553 37.0253 62.2801 36.7609 62.1356C36.4965 61.991 36.2731 61.7819 36.1113 61.5276V58.4028H78.2944Z" fill="#D2C29F"/>
</g>
<path d="M48.8524 64.3887H38.255V86.0657H48.8524V64.3887Z" fill="#E09764"/>
<path d="M48.2745 64.9663H38.8329V85.4892H48.2745V64.9663Z" fill="#F2F1D0"/>
<g style="mix-blend-mode:overlay" opacity="0.5">
<path d="M48.2745 64.9663V65.7979L42.8078 85.4875H40.8086L46.5072 64.9663H48.2745Z" fill="white"/>
</g>
<path d="M48.2744 75.4362H46.8128C46.7576 75.4362 46.7046 75.4142 46.6655 75.3752C46.6264 75.3361 46.6045 75.2831 46.6045 75.2279C46.6043 75.2004 46.6095 75.1732 46.6199 75.1479C46.6303 75.1225 46.6456 75.0994 46.665 75.0801C46.6844 75.0607 46.7075 75.0453 46.7328 75.0349C46.7582 75.0245 46.7854 75.0193 46.8128 75.0195H48.2744V75.4362Z" fill="#E09764"/>
<path d="M76.1507 64.3887H50.4265V78.4553H76.1507V64.3887Z" fill="#E09764"/>
<path d="M75.4771 64.9648H51.1019V77.8756H75.4771V64.9648Z" fill="#F2F1D0"/>
<g style="mix-blend-mode:overlay" opacity="0.5">
<path d="M60.8778 64.9648L57.4876 77.8756H56.3922L59.7808 64.9648H60.8778Z" fill="white"/>
<path d="M70.1413 64.9648L66.7528 77.8756H65.6541L69.046 64.9648H70.1413Z" fill="white"/>
</g>
<path d="M50.4904 87.438H36.6169V88.9433H50.4904V87.438Z" fill="#B55134"/>
<path d="M50.4904 87.4383H36.6169L37.2318 87.0771H49.8755L50.4904 87.4383Z" fill="#CE6F54"/>
<path d="M49.4757 86.2251H37.6317V87.0769H49.4757V86.2251Z" fill="#B55134"/>
<path d="M49.4757 86.2253H37.6317L38.1576 86.022H48.9499L49.4757 86.2253Z" fill="#CE6F54"/>
<path d="M35.4376 57.6769H31.4795L33.4585 47.0728H37.1125L35.4376 57.6769Z" fill="#F2F1D0"/>
<path d="M39.3957 57.6769H35.4376L37.1126 47.0728H40.7649L39.3957 57.6769Z" fill="#CE6F54"/>
<path d="M43.352 57.6769H39.3956L40.7648 47.0728H44.4171L43.352 57.6769Z" fill="#F2F1D0"/>
<path d="M47.3101 57.6769H43.3521L44.4172 47.0728H48.0712L47.3101 57.6769Z" fill="#CE6F54"/>
<path d="M51.2666 57.6769H47.3102L48.0712 47.0728H51.7235L51.2666 57.6769Z" fill="#F2F1D0"/>
<path d="M55.2247 57.6769H51.2666L51.7236 47.0728H55.3759L55.2247 57.6769Z" fill="#CE6F54"/>
<path d="M59.1827 57.6769H55.2246L55.3758 47.0728H59.0298L59.1827 57.6769Z" fill="#F2F1D0"/>
<path d="M63.1391 57.6769H59.1827L59.0298 47.0728H62.6821L63.1391 57.6769Z" fill="#CE6F54"/>
<path d="M67.0972 57.6769H63.1391L62.6821 47.0728H66.3361L67.0972 57.6769Z" fill="#F2F1D0"/>
<path d="M71.0536 57.6769H67.0972L66.3362 47.0728H69.9885L71.0536 57.6769Z" fill="#CE6F54"/>
<path d="M75.0117 57.6769H71.0537L69.9885 47.0728H73.6408L75.0117 57.6769Z" fill="#F2F1D0"/>
<path d="M78.968 57.6769H75.0116L73.6407 47.0728H77.2947L78.968 57.6769Z" fill="#CE6F54"/>
<path d="M82.9262 57.6769H78.9681L77.2948 47.0728H80.9471L82.9262 57.6769Z" fill="#F2F1D0"/>
<path d="M31.4812 57.6768H35.4376V59.3282C35.4376 59.7738 35.2606 60.2011 34.9455 60.5161C34.6305 60.8312 34.2032 61.0082 33.7576 61.0082H33.1696C32.724 61.0082 32.2967 60.8312 31.9817 60.5161C31.6666 60.2011 31.4896 59.7738 31.4896 59.3282V57.6768H31.4812Z" fill="#E5D995"/>
<path d="M35.4376 57.6768H39.3957V59.3282C39.3957 59.7738 39.2187 60.2011 38.9036 60.5161C38.5886 60.8312 38.1613 61.0082 37.7157 61.0082H37.1277C36.6821 61.0082 36.2548 60.8312 35.9398 60.5161C35.6247 60.2011 35.4477 59.7738 35.4477 59.3282V57.6768H35.4376Z" fill="#B55134"/>
<path d="M39.3956 57.6768H43.3537V59.3282C43.3537 59.7738 43.1767 60.2011 42.8617 60.5161C42.5466 60.8312 42.1193 61.0082 41.6737 61.0082H41.0857C40.6401 61.0082 40.2128 60.8312 39.8978 60.5161C39.5827 60.2011 39.4057 59.7738 39.4057 59.3282V57.6768H39.3956Z" fill="#E5D995"/>
<path d="M43.3521 57.6768H47.3101V59.3282C47.3101 59.7738 47.1331 60.2011 46.8181 60.5161C46.503 60.8312 46.0757 61.0082 45.6301 61.0082H45.0421C44.5966 61.0082 44.1693 60.8312 43.8542 60.5161C43.5391 60.2011 43.3621 59.7738 43.3621 59.3282V57.6768H43.3521Z" fill="#B55134"/>
<path d="M47.3102 57.6768H51.2683V59.3282C51.2683 59.7738 51.0913 60.2011 50.7762 60.5161C50.4611 60.8312 50.0338 61.0082 49.5883 61.0082H49.0003C48.5547 61.0082 48.1274 60.8312 47.8123 60.5161C47.4973 60.2011 47.3203 59.7738 47.3203 59.3282V57.6768H47.3102Z" fill="#E5D995"/>
<path d="M51.2666 57.6768H55.2247V59.3282C55.2247 59.7738 55.0477 60.2011 54.7326 60.5161C54.4176 60.8312 53.9902 61.0082 53.5447 61.0082H52.9567C52.5111 61.0082 52.0838 60.8312 51.7687 60.5161C51.4537 60.2011 51.2767 59.7738 51.2767 59.3282V57.6768H51.2666Z" fill="#B55134"/>
<path d="M55.2246 57.6768H59.176V59.3282C59.176 59.7738 58.999 60.2011 58.6839 60.5161C58.3688 60.8312 57.9415 61.0082 57.496 61.0082H56.908C56.4624 61.0082 56.0351 60.8312 55.72 60.5161C55.405 60.2011 55.228 59.7738 55.228 59.3282V57.6768H55.2246Z" fill="#E5D995"/>
<path d="M59.176 57.6768H63.1341V59.3282C63.1341 59.7738 62.9571 60.2011 62.642 60.5161C62.327 60.8312 61.8997 61.0082 61.4541 61.0082H60.8661C60.4205 61.0082 59.9932 60.8312 59.6782 60.5161C59.3631 60.2011 59.1861 59.7738 59.1861 59.3282V57.6768H59.176Z" fill="#B55134"/>
<path d="M63.1392 57.6768H67.0972V59.3282C67.0972 59.7738 66.9202 60.2011 66.6052 60.5161C66.2901 60.8312 65.8628 61.0082 65.4172 61.0082H64.8292C64.3837 61.0082 63.9564 60.8312 63.6413 60.5161C63.3262 60.2011 63.1492 59.7738 63.1492 59.3282V57.6768H63.1392Z" fill="#E5D995"/>
<path d="M67.0972 57.6768H71.0536V59.3282C71.0536 59.5488 71.0101 59.7673 70.9257 59.9711C70.8413 60.1749 70.7175 60.3601 70.5615 60.5161C70.4055 60.6721 70.2203 60.7959 70.0165 60.8803C69.8126 60.9647 69.5942 61.0082 69.3736 61.0082H68.7856C68.34 61.0082 67.9127 60.8312 67.5976 60.5161C67.2826 60.2011 67.1056 59.7738 67.1056 59.3282V57.6768H67.0972Z" fill="#B55134"/>
<path d="M71.0536 57.6768H75.0117V59.3282C75.0117 59.7738 74.8347 60.2011 74.5196 60.5161C74.2045 60.8312 73.7772 61.0082 73.3317 61.0082H72.7437C72.2981 61.0082 71.8708 60.8312 71.5557 60.5161C71.2407 60.2011 71.0637 59.7738 71.0637 59.3282V57.6768H71.0536Z" fill="#E5D995"/>
<path d="M78.9681 57.6768H82.9262V59.3282C82.9262 59.7738 82.7492 60.2011 82.4342 60.5161C82.1191 60.8312 81.6918 61.0082 81.2462 61.0082H80.6582C80.2127 61.0082 79.7853 60.8312 79.4703 60.5161C79.1552 60.2011 78.9782 59.7738 78.9782 59.3282V57.6768H78.9681Z" fill="#E5D995"/>
<path d="M75.0117 57.6768H78.9698V59.3282C78.9698 59.7738 78.7928 60.2011 78.4777 60.5161C78.1627 60.8312 77.7354 61.0082 77.2898 61.0082H76.7018C76.2562 61.0082 75.8289 60.8312 75.5139 60.5161C75.1988 60.2011 75.0218 59.7738 75.0218 59.3282V57.6768H75.0117Z" fill="#B55134"/>
<g style="mix-blend-mode:multiply">
<path d="M82.9261 57.6771H31.4795L31.5081 57.5276C39.8409 57.3999 48.2056 57.1462 56.3721 55.483C59.2672 54.9017 62.1175 54.1158 64.9014 53.131C69.0594 51.6459 73.0628 49.6618 76.6463 47.083H80.9555L82.9261 57.6771Z" fill="#F2F1D0"/>
</g>
<path d="M80.9639 47.2558H33.4417C33.3848 47.256 33.3283 47.2449 33.2756 47.2232C33.2229 47.2015 33.1751 47.1696 33.1348 47.1293C33.0945 47.089 33.0625 47.0411 33.0408 46.9885C33.0191 46.9358 33.0081 46.8793 33.0083 46.8223C33.0081 46.7653 33.0191 46.7087 33.0408 46.6559C33.0625 46.6032 33.0944 46.5552 33.1347 46.5148C33.1749 46.4743 33.2228 46.4422 33.2755 46.4204C33.3282 46.3985 33.3847 46.3872 33.4417 46.3872H80.9639C81.0793 46.3872 81.19 46.433 81.2716 46.5147C81.3532 46.5963 81.399 46.7069 81.399 46.8223C81.399 46.8794 81.3878 46.9359 81.3659 46.9886C81.344 47.0413 81.3119 47.0891 81.2715 47.1294C81.2311 47.1697 81.1831 47.2016 81.1303 47.2233C81.0775 47.2449 81.021 47.256 80.9639 47.2558Z" fill="#CE6F54"/>
<path d="M77.1117 39.2002H36.9647V44.8013H77.1117V39.2002Z" fill="#E09764"/>
<path d="M76.5337 39.7129H37.5426V44.2892H76.5337V39.7129Z" fill="#F2F1D0"/>
<g style="mix-blend-mode:multiply">
<path d="M37.5426 39.7129V40.0439H76.2028V44.2892H76.5337V39.7129H37.5426Z" fill="#F2F1D0"/>
</g>
<g style="mix-blend-mode:overlay" opacity="0.5">
<path d="M57.6556 39.7129L55.344 44.2892H53.5514L55.8631 39.7129H57.6556Z" fill="white"/>
<path d="M65.602 39.7129L63.2937 44.2892H62.4672L64.7788 39.7129H65.602Z" fill="white"/>
</g>
<g style="mix-blend-mode:multiply">
<path d="M73.7803 80.5215H70.3262V81.7361H73.7803V80.5215Z" fill="#DBBC78"/>
</g>
<g style="mix-blend-mode:multiply">
<path d="M70.9057 82.4233H67.4517V83.638H70.9057V82.4233Z" fill="#DBBC78"/>
</g>
<g style="mix-blend-mode:multiply">
<path d="M64.6208 79.1455H61.1667V80.3601H64.6208V79.1455Z" fill="#DBBC78"/>
</g>
<g style="mix-blend-mode:multiply">
<path d="M37.8384 69.6689H36.1113V70.8836H37.8384V69.6689Z" fill="#DBBC78"/>
</g>
<g style="mix-blend-mode:multiply">
<path d="M38.2549 76.8257H36.8555V78.0403H38.2549V76.8257Z" fill="#DBBC78"/>
</g>
<g style="mix-blend-mode:multiply">
<path d="M78.2944 62.6465H76.3826V63.8611H78.2944V62.6465Z" fill="#DBBC78"/>
</g>
<g style="mix-blend-mode:multiply">
<path d="M74.548 85.4458H72.6865V86.1212H74.548V85.4458Z" fill="#F9A66A"/>
</g>
<g style="mix-blend-mode:multiply">
<path d="M68.3824 86.7681H66.521V87.4417H68.3824V86.7681Z" fill="#F9A66A"/>
</g>
<g style="mix-blend-mode:multiply">
<path d="M67.2014 85.8638H65.34V86.5375H67.2014V85.8638Z" fill="#F9A66A"/>
</g>
<g style="mix-blend-mode:multiply">
<path d="M63.9371 86.8618H62.0757V87.5355H63.9371V86.8618Z" fill="#F9A66A"/>
</g>
<g style="mix-blend-mode:multiply">
<path d="M51.4211 84.814H49.5597V85.4876H51.4211V84.814Z" fill="#F9A66A"/>
</g>
<path d="M31.1872 78.4216H30.616V56.9528C30.616 56.3825 30.3895 55.8355 29.9862 55.4323C29.5829 55.029 29.0359 54.8024 28.4656 54.8024C27.8953 54.8024 27.3483 55.029 26.9451 55.4323C26.5418 55.8355 26.3152 56.3825 26.3152 56.9528V57.9155H25.744V56.9528C25.744 56.2315 26.0306 55.5396 26.5407 55.0296C27.0507 54.5195 27.7426 54.2329 28.4639 54.2329C29.1853 54.2329 29.8771 54.5195 30.3872 55.0296C30.8973 55.5396 31.1839 56.2315 31.1839 56.9528L31.1872 78.4216Z" fill="#B55134"/>
<path d="M28.7948 54.8022C28.7394 54.8022 28.6856 54.8022 28.6268 54.8022C29.1688 54.843 29.6751 55.0874 30.0442 55.4864C30.4132 55.8853 30.6175 56.4092 30.616 56.9526V78.4214H30.952V56.9526C30.9515 56.6698 30.8954 56.3898 30.7867 56.1287C30.6781 55.8676 30.5191 55.6304 30.3188 55.4307C30.1184 55.231 29.8808 55.0727 29.6193 54.9649C29.3578 54.8571 29.0777 54.8018 28.7948 54.8022Z" fill="#CE6F54"/>
<path d="M28.1817 59.1704C28.1599 59.1775 28.1373 59.182 28.1145 59.1839H23.938C23.9151 59.182 23.8926 59.1775 23.8708 59.1704C23.5252 59.581 23.3041 60.0817 23.2334 60.6137C23.1627 61.1457 23.2455 61.6868 23.4719 62.1734C23.6983 62.66 24.059 63.0717 24.5115 63.3602C24.9641 63.6488 25.4896 63.802 26.0262 63.802C26.5629 63.802 27.0884 63.6488 27.5409 63.3602C27.9934 63.0717 28.3541 62.66 28.5805 62.1734C28.807 61.6868 28.8897 61.1457 28.8191 60.6137C28.7484 60.0817 28.5273 59.581 28.1817 59.1704Z" fill="#F9A66A"/>
<g style="mix-blend-mode:overlay" opacity="0.3">
<path d="M25.1359 62.1842C24.8319 62.0743 24.5797 61.8551 24.4286 61.5693L24.4387 61.5962C24.4089 61.5201 24.3891 61.4405 24.3799 61.3593C24.3799 61.2787 24.3967 61.2031 24.3967 61.1241C24.3983 61.061 24.3789 60.9992 24.3414 60.9484C24.304 60.8976 24.2507 60.8607 24.19 60.8436C24.1172 60.8243 24.0398 60.8343 23.9742 60.8713C23.9086 60.9083 23.8601 60.9695 23.8389 61.0418C23.7996 61.2339 23.8042 61.4323 23.8525 61.6223C23.9008 61.8123 23.9915 61.9889 24.1178 62.1388C24.3508 62.4083 24.6494 62.6132 24.9847 62.7336C25.0206 62.7437 25.0583 62.7467 25.0954 62.7422C25.1325 62.7377 25.1683 62.7259 25.2008 62.7075C25.2333 62.689 25.2619 62.6643 25.2847 62.6348C25.3076 62.6052 25.3244 62.5714 25.3341 62.5353C25.3482 62.4671 25.338 62.3961 25.3051 62.3347C25.2723 62.2733 25.2189 62.2254 25.1543 62.1993L25.1359 62.1842Z" fill="white"/>
</g>
<g style="mix-blend-mode:multiply">
<path d="M23.938 59.1839C23.9151 59.182 23.8926 59.1775 23.8708 59.1704C23.8708 59.1704 23.8708 59.1704 23.859 59.1839H23.938Z" fill="#F2F1D0"/>
<path d="M28.1817 59.1704C28.1599 59.1775 28.1374 59.182 28.1145 59.1839H27.2745C27.5912 59.5648 27.8016 60.0226 27.8845 60.511C27.9674 60.9994 27.9199 61.501 27.7466 61.9651C27.5734 62.4292 27.2807 62.8393 26.898 63.1539C26.5154 63.4686 26.0565 63.6765 25.5676 63.7568C26.1354 63.8522 26.7188 63.7709 27.239 63.5241C27.7592 63.2773 28.1911 62.8767 28.4763 62.3766C28.7616 61.8765 28.8864 61.3008 28.834 60.7274C28.7817 60.1541 28.5545 59.6106 28.1834 59.1704H28.1817Z" fill="#F9A66A"/>
</g>
<path d="M27.4761 58.6095H24.5764C24.5764 58.3867 24.6649 58.1731 24.8224 58.0156C24.98 57.858 25.1936 57.7695 25.4164 57.7695H26.626C26.8488 57.7695 27.0625 57.858 27.22 58.0156C27.3775 58.1731 27.466 58.3867 27.466 58.6095H27.4761Z" fill="#DBBC78"/>
<path d="M28.1162 58.312H23.938C23.7831 58.312 23.6575 58.4376 23.6575 58.5926V58.9017C23.6575 59.0566 23.7831 59.1823 23.938 59.1823H28.1162C28.2711 59.1823 28.3968 59.0566 28.3968 58.9017V58.5926C28.3968 58.4376 28.2711 58.312 28.1162 58.312Z" fill="#9AC3B1"/>
<path d="M30.3858 78.2051H31.4174C31.4401 78.2051 31.4619 78.2141 31.478 78.2302C31.494 78.2462 31.5031 78.268 31.5031 78.2908V78.531H30.3002V78.2908C30.3002 78.268 30.3092 78.2462 30.3253 78.2302C30.3413 78.2141 30.3631 78.2051 30.3858 78.2051Z" fill="#CE6F54"/>
<path d="M30.5488 78.4502H31.2544C31.4562 78.4502 31.6498 78.5304 31.7925 78.6731C31.9352 78.8158 32.0154 79.0094 32.0154 79.2112V88.72H29.7877V79.2112C29.7877 79.0094 29.8679 78.8158 30.0106 78.6731C30.1533 78.5304 30.3469 78.4502 30.5488 78.4502Z" fill="#B55134"/>
<path d="M31.2544 78.4502H30.5454C30.7464 78.4515 30.9387 78.5323 31.0803 78.6749C31.2219 78.8175 31.3014 79.0103 31.3014 79.2112V88.72H32.0171V79.2112C32.0171 79.1112 31.9973 79.0121 31.959 78.9196C31.9206 78.8272 31.8644 78.7432 31.7936 78.6725C31.7227 78.6018 31.6387 78.5458 31.5461 78.5076C31.4536 78.4695 31.3545 78.45 31.2544 78.4502Z" fill="#CE6F54"/>
<path d="M32.7462 88.5806H29.0569C28.9567 88.5806 28.8755 88.6618 28.8755 88.762C28.8755 88.8622 28.9567 88.9434 29.0569 88.9434H32.7462C32.8464 88.9434 32.9276 88.8622 32.9276 88.762C32.9276 88.6618 32.8464 88.5806 32.7462 88.5806Z" fill="#B55134"/>
<path d="M81.7804 83.6314C81.7312 83.7594 81.6608 83.8781 81.5721 83.9825C81.4272 84.0813 81.2606 84.1435 81.0865 84.164C80.5992 84.2822 80.1048 84.3698 79.6064 84.426C78.6118 84.5384 77.607 84.5237 76.6161 84.3824C76.4021 84.368 76.1957 84.2973 76.018 84.1774C75.8029 84.0094 75.7257 83.7171 75.6719 83.4483C75.6437 83.3168 75.6229 83.1839 75.6097 83.0501C75.5948 82.8969 75.6027 82.7424 75.6333 82.5915C75.6572 82.4489 75.7176 82.3149 75.8085 82.2024C75.8995 82.09 76.0179 82.003 76.1524 81.9497C76.0303 81.8527 75.9421 81.7195 75.9003 81.5692C75.8585 81.419 75.8653 81.2593 75.9198 81.1132C75.9742 80.967 76.0735 80.8418 76.2034 80.7555C76.3332 80.6692 76.4871 80.6262 76.6429 80.6326C76.5953 80.1805 76.6393 79.7234 76.7723 79.2886C76.8399 79.071 76.95 78.869 77.0962 78.6943C77.2424 78.5195 77.4218 78.3755 77.6241 78.2705C78.2221 77.9849 78.9882 78.1916 79.4334 78.6821C79.648 78.9361 79.8009 79.2363 79.8799 79.5593C79.9589 79.8823 79.9619 80.2192 79.8887 80.5436C79.9679 80.5521 80.0445 80.577 80.1137 80.6167C80.1828 80.6564 80.243 80.7099 80.2903 80.774C80.3377 80.8381 80.3713 80.9114 80.3889 80.9891C80.4065 81.0668 80.4078 81.1474 80.3927 81.2257C80.5311 81.2274 80.6686 81.2489 80.8009 81.2895C81.0322 81.3561 81.2461 81.4724 81.4278 81.6302C81.6094 81.7881 81.7544 81.9837 81.8526 82.2034C81.9454 82.4323 81.9871 82.6787 81.9746 82.9254C81.9621 83.1721 81.8958 83.4131 81.7804 83.6314Z" fill="#D2B067"/>
<path d="M81.7804 83.6311C81.7312 83.7591 81.6608 83.8778 81.5721 83.9823C81.4272 84.081 81.2606 84.1433 81.0865 84.1637C80.5992 84.282 80.1048 84.3695 79.6065 84.4258C78.6118 84.5381 77.607 84.5234 76.6161 84.3821C76.4021 84.3678 76.1958 84.2971 76.018 84.1771C75.8029 84.0091 75.7257 83.7168 75.6719 83.448C75.6437 83.3166 75.6229 83.1836 75.6097 83.0499C77.0191 83.0789 78.4206 82.8329 79.7358 82.3258C80.0821 82.2196 80.3924 82.0203 80.6329 81.7495C80.7321 81.6136 80.7904 81.4521 80.8009 81.2842C81.0322 81.3508 81.2461 81.4671 81.4278 81.6249C81.6094 81.7828 81.7544 81.9784 81.8526 82.1981C81.9462 82.4277 81.9883 82.675 81.9758 82.9227C81.9633 83.1703 81.8966 83.4121 81.7804 83.6311Z" fill="#AA7729"/>
<path d="M81.7905 84.4072L81.6527 85.3749L81.137 89.0087H76.5388L76.0247 85.3749L75.887 84.4072H81.7905Z" fill="#F2F1D0"/>
<g style="mix-blend-mode:multiply">
<path d="M81.7905 84.4072L81.6527 85.3749H76.0247L75.887 84.4072H81.7905Z" fill="#F2F1D0"/>
</g>
<path d="M81.9619 84.9905H75.7156L75.5493 83.4097H82.1265L81.9619 84.9905Z" fill="#F2F1D0"/>
<g style="mix-blend-mode:overlay" opacity="0.3">
<path d="M77.8072 79.9336C77.8072 80.1923 77.6644 80.4023 77.488 80.4023C77.3116 80.4023 77.1688 80.1923 77.1688 79.9336C77.1688 79.6748 77.3116 79.4648 77.488 79.4648C77.6644 79.4648 77.8072 79.6748 77.8072 79.9336Z" fill="white"/>
<path d="M78.4439 80.4878C78.4439 80.6205 78.3717 80.728 78.2759 80.728C78.1802 80.728 78.1079 80.6205 78.1079 80.4878C78.1079 80.3551 78.1818 80.2476 78.2759 80.2476C78.37 80.2476 78.4439 80.3568 78.4439 80.4878Z" fill="white"/>
<path d="M77.2259 80.9131C77.2259 81.0458 77.152 81.1533 77.0579 81.1533C76.9638 81.1533 76.8899 81.0458 76.8899 80.9131C76.8899 80.7804 76.9638 80.6729 77.0579 80.6729C77.152 80.6729 77.2259 80.7804 77.2259 80.9131Z" fill="white"/>
<path d="M78.365 79.1438C78.365 79.2127 78.328 79.2682 78.281 79.2682C78.234 79.2682 78.1953 79.2127 78.1953 79.1438C78.1953 79.075 78.234 79.0195 78.281 79.0195C78.328 79.0195 78.365 79.0682 78.365 79.1438Z" fill="white"/>
</g>
<path d="M35.5939 82.9242C35.5882 83.3448 35.5103 83.7613 35.3637 84.1556C35.2831 84.3707 35.1806 84.7218 34.9521 84.8276C34.6598 84.9654 34.2583 84.9805 33.9441 85.0259C33.1655 85.1385 32.3786 85.184 31.5921 85.1619H31.4241C31.0189 85.1675 30.6209 85.0536 30.28 84.8343C30.2147 84.7838 30.154 84.7276 30.0986 84.6663C29.8814 84.4083 29.72 84.108 29.6248 83.7843C29.5478 83.5771 29.4916 83.3626 29.4568 83.1443C29.4189 82.9175 29.4275 82.6855 29.482 82.4622C29.598 82.0271 29.9978 81.639 30.4464 81.6776C30.2806 81.5426 30.1745 81.3479 30.1511 81.1354C30.1276 80.9229 30.1885 80.7097 30.3207 80.5418C30.453 80.3738 30.6459 80.2646 30.858 80.2376C31.0701 80.2106 31.2842 80.268 31.4544 80.3975C31.3863 80.0753 31.4341 79.7395 31.5893 79.4491C31.7444 79.1586 31.997 78.9322 32.3026 78.8096C32.6081 78.687 32.9472 78.6761 33.26 78.7788C33.5729 78.8814 33.8395 79.0911 34.013 79.371C34.2586 79.8225 34.3153 80.3528 34.1709 80.846C34.2476 80.8314 34.3268 80.8397 34.3988 80.8698C34.4709 80.8999 34.5324 80.9505 34.5759 81.0153C34.6194 81.08 34.6429 81.1562 34.6435 81.2342C34.6441 81.3123 34.6217 81.3888 34.5792 81.4542C34.7324 81.4558 34.8823 81.4994 35.0126 81.5802C35.1654 81.6743 35.2919 81.8055 35.3805 81.9615C35.536 82.2577 35.6097 82.59 35.5939 82.9242Z" fill="#D2B067"/>
<g style="mix-blend-mode:multiply">
<path d="M35.5938 82.9241C35.5881 83.3448 35.5103 83.7613 35.3637 84.1556C35.283 84.3706 35.1805 84.7217 34.9521 84.8276C34.6597 84.9653 34.2582 84.9805 33.9441 85.0258C33.1654 85.1385 32.3785 85.184 31.5921 85.1619H31.4241C30.9623 85.0722 30.5188 84.9058 30.112 84.6697C29.8947 84.4116 29.7334 84.1113 29.6382 83.7877C29.5612 83.5804 29.5049 83.366 29.4702 83.1476C30.6681 83.4836 31.9701 83.4214 33.1998 83.1812C33.6702 83.0888 34.1541 82.9645 34.5237 82.6587C34.7114 82.5062 34.8537 82.3051 34.9353 82.0774C34.9907 81.9229 34.9655 81.7414 35.0243 81.5835C35.1771 81.6776 35.3036 81.8088 35.3922 81.9649C35.5431 82.2612 35.6126 82.5922 35.5938 82.9241Z" fill="#CFAD65"/>
</g>
<path d="M35.231 84.7251L35.105 85.6138L34.6312 88.9537H30.406L29.9322 85.6138L29.8046 84.7251H35.231Z" fill="#F2F1D0"/>
<g style="mix-blend-mode:multiply">
<path d="M35.231 84.7251L35.105 85.6138H29.9322L29.8046 84.7251H35.231Z" fill="#F2F1D0"/>
</g>
<path d="M35.3889 85.2591H29.6484L29.4955 83.8076H35.5401L35.3889 85.2591Z" fill="#F2F1D0"/>
<g style="mix-blend-mode:overlay" opacity="0.3">
<path d="M32.5313 80.6122C32.5313 80.8508 32.4002 81.044 32.2389 81.044C32.0777 81.044 31.9449 80.8508 31.9449 80.6122C31.9449 80.3736 32.076 80.1821 32.2389 80.1821C32.4019 80.1821 32.5313 80.3753 32.5313 80.6122Z" fill="white"/>
<path d="M33.1176 81.1246C33.1176 81.2456 33.0504 81.3447 32.9664 81.3447C32.8824 81.3447 32.8152 81.2456 32.8152 81.1246C32.8152 81.0036 32.8841 80.9028 32.9664 80.9028C33.0487 80.9028 33.1176 81.002 33.1176 81.1246Z" fill="white"/>
<path d="M30.9184 81.3602C31.0372 81.3602 31.1334 81.2188 31.1334 81.0444C31.1334 80.8699 31.0372 80.7285 30.9184 80.7285C30.7996 80.7285 30.7034 80.8699 30.7034 81.0444C30.7034 81.2188 30.7996 81.3602 30.9184 81.3602Z" fill="white"/>
<path d="M31.997 81.5128C31.997 81.6354 31.9298 81.7345 31.8458 81.7345C31.7618 81.7345 31.6946 81.6354 31.6946 81.5128C31.6946 81.3901 31.7635 81.291 31.8458 81.291C31.9281 81.291 31.997 81.3901 31.997 81.5128Z" fill="white"/>
<path d="M33.0722 79.8816C33.0722 79.9673 33.0251 80.0362 32.9663 80.0362C32.9075 80.0362 32.8605 79.9673 32.8605 79.8816C32.8605 79.7959 32.9075 79.7271 32.9663 79.7271C33.0251 79.7271 33.0722 79.7959 33.0722 79.8816Z" fill="white"/>
</g>
</svg>
