<svg width="116" height="116" viewBox="0 0 116 116" fill="none" xmlns="http://www.w3.org/2000/svg">
<rect width="116" height="116" fill="#EFEEF9"/>
<path d="M109.236 64.9419C106.499 60.1326 103.353 55.4373 101.54 50.5474C99.5008 45.0292 99.1507 39.2247 97.4361 33.6481C95.9149 28.7082 93.5812 23.9183 90.0036 20.1348C86.4261 16.3513 81.515 13.6103 76.2565 13.2489C69.135 12.7596 62.3553 16.5959 57.2789 21.522C54.609 24.1129 52.2725 27.0068 49.6279 29.62C47.0617 32.1553 44.1341 33.8733 41.1756 35.8498C34.9002 40.0448 26.6581 40.4784 19.7859 43.3751C11.4569 46.8862 4.71922 53.8527 1.5983 62.187C-0.0658093 66.621 -0.68775 71.7083 1.36017 75.9838C4.57914 82.7113 13.1995 85.2049 20.7832 84.9186C28.367 84.6322 35.8247 82.3388 43.4029 82.7196C50.4067 83.0727 57.066 85.6858 63.389 88.6437C69.7121 91.6016 75.8923 94.9514 82.5936 96.9529C89.2948 98.9545 96.7301 99.5105 103.193 96.8584C108.533 94.6678 113.074 89.9086 114.144 84.2403C115.475 77.2126 112.679 70.9855 109.236 64.9419Z" fill="#E5E2F4"/>
<path d="M101.513 46.3762C101.353 45.2955 101.453 44.102 102.237 43.2725C102.841 42.6769 103.634 42.3034 104.484 42.2144C105.346 42.1233 106.217 42.1805 107.06 42.3837C108.398 42.6433 109.665 43.1778 110.78 43.9525C111.836 44.6939 112.595 45.7759 112.927 47.011C113.074 47.6179 113.07 48.2512 112.915 48.8562C112.759 49.4613 112.457 50.02 112.034 50.4843C111.269 51.2997 110.13 51.7793 108.966 52.0107C107.732 52.2533 105.749 52.6258 104.718 51.8132C103.607 50.9248 102.724 49.7898 102.143 48.5008C101.835 47.8244 101.623 47.1095 101.513 46.3762Z" fill="#E5E2F4"/>
<path d="M20.332 39.7222C17.8155 40.658 14.9994 41.1218 12.4339 40.2945C10.7015 39.7462 9.22277 38.5995 8.26423 37.0613C7.7951 36.294 7.49049 35.4384 7.36956 34.5481C7.24863 33.6579 7.31401 32.7524 7.56157 31.8886C7.82014 31.0272 8.27891 30.2387 8.90068 29.5869C9.52245 28.9351 10.2897 28.4385 11.1402 28.1373C12.6926 27.6165 14.3812 27.8362 16.0207 27.866C19.1232 27.9092 22.1931 27.2312 24.9865 25.8859C25.888 25.4492 26.7867 24.9366 27.7808 24.8145C28.5419 24.7339 29.3097 24.8833 29.9844 25.2432C30.6591 25.6031 31.2094 26.1569 31.5637 26.8326C32.6749 29.0432 31.0408 31.4221 29.6573 33.0848C28.0785 34.9876 26.1936 36.6164 24.0796 37.9048C22.8909 38.6273 21.6361 39.2358 20.332 39.7222Z" fill="#E5E2F4"/>
<path d="M81.1838 80.5149C82.0373 80.9718 83.0688 81.0189 84.0079 80.7887C84.5429 80.6489 85.0566 80.4376 85.535 80.1604C85.9382 79.9319 86.375 79.433 86.8471 79.517C87.9525 79.7118 89.0311 79.9118 90.1685 79.7757C91.3949 79.6278 92.6229 79.0701 93.3353 78.0604C93.4871 77.8424 93.6149 77.6086 93.7166 77.3632C93.9661 76.7334 94.1026 76.0647 94.1198 75.3875C94.1635 74.4568 94.0543 73.4841 93.5654 72.6995C93.0765 71.915 92.1391 71.3404 91.2134 71.505C91.448 71.2025 91.6012 70.845 91.6583 70.4664C91.7155 70.0879 91.6748 69.7011 91.54 69.3428C91.4053 68.9845 91.181 68.6667 90.8885 68.4196C90.5961 68.1726 90.2452 68.0046 89.8694 67.9317C89.8611 67.1411 89.7745 66.3532 89.6107 65.5797C89.4436 64.8024 89.0482 64.0928 88.475 63.5418C88.0445 63.1777 87.5283 62.9291 86.9752 62.8195C86.4221 62.7099 85.8502 62.7428 85.3133 62.9152C84.7799 63.0962 84.2898 63.3857 83.8738 63.7653C83.4577 64.1449 83.1247 64.6065 82.8957 65.121C82.4421 66.1592 82.3303 67.3147 82.5765 68.4206C82.1207 68.5552 81.7053 68.8003 81.3671 69.1342C81.0288 69.4681 80.7783 69.8804 80.6379 70.3344C80.4974 70.7884 80.4713 71.2701 80.5618 71.7366C80.6524 72.2032 80.8568 72.6401 81.1569 73.0086C80.939 73.2314 80.7353 73.4676 80.5471 73.7159C79.8516 74.6315 79.3711 75.7084 79.2989 76.8474C79.2216 78.2922 79.907 79.8294 81.1838 80.5149Z" fill="#BDB7E4"/>
<path d="M81.184 80.5148C82.0374 80.9718 83.0689 81.0188 84.0081 80.7887C84.543 80.6489 85.0567 80.4375 85.5352 80.1604C85.9384 79.9319 86.3752 79.4329 86.8473 79.5169C87.9527 79.7118 89.0313 79.9117 90.1686 79.7756C91.395 79.6278 92.6231 79.07 93.3354 78.0604C93.4872 77.8423 93.6151 77.6086 93.7168 77.3632C92.6631 78.0865 91.3883 78.4156 90.1161 78.2928C88.8439 78.1699 87.6557 77.6028 86.7599 76.6912C85.9635 76.8636 85.1393 76.8619 84.3436 76.6862C83.5479 76.5105 82.7997 76.1649 82.15 75.6731C81.4757 75.1523 80.9297 74.4839 80.554 73.7192C79.8585 74.6348 79.378 75.7117 79.3057 76.8508C79.2217 78.2922 79.9072 79.8294 81.184 80.5148Z" fill="#AEA7E0"/>
<path d="M84.0601 74.4299C84.0645 74.4231 84.071 74.418 84.0785 74.4153C84.0861 74.4125 84.0944 74.4124 84.1021 74.4148C84.1067 74.4161 84.1109 74.4184 84.1146 74.4214C84.1183 74.4244 84.1214 74.4282 84.1236 74.4324C84.1258 74.4367 84.1271 74.4413 84.1274 74.4461C84.1278 74.4508 84.1272 74.4556 84.1256 74.4601C83.9937 74.8884 83.9827 75.3448 84.0937 75.7789C84.1447 75.9856 84.2268 76.1833 84.3373 76.3653C84.4427 76.5444 84.5727 76.7079 84.7237 76.8508C84.7606 76.8861 84.801 76.918 84.8396 76.9516C84.8782 76.9852 84.9219 77.0121 84.9639 77.0389C85.0486 77.0934 85.1373 77.1411 85.2294 77.1817C85.3184 77.2254 85.4091 77.2607 85.4998 77.2993C85.5906 77.338 85.6846 77.3766 85.7804 77.4153C85.9047 77.4657 86.0358 77.5127 86.1702 77.5597L86.2004 76.8121L86.234 75.6261V74.4383C86.234 72.8524 86.1618 71.2614 86.0492 69.6671C86.0474 69.646 86.0531 69.6249 86.0655 69.6077C86.0778 69.5904 86.0958 69.5781 86.1164 69.573C86.128 69.57 86.1401 69.5693 86.1519 69.5709C86.1638 69.5726 86.1752 69.5766 86.1855 69.5827C86.1958 69.5888 86.2048 69.5968 86.212 69.6064C86.2191 69.616 86.2243 69.6269 86.2273 69.6385C86.523 70.8061 86.7615 71.9905 86.953 73.1817L86.9984 73.138C87.0712 73.0665 87.1545 73.0064 87.2454 72.9599C87.338 72.9154 87.4244 72.8589 87.5024 72.7919C87.5791 72.7269 87.6479 72.653 87.7074 72.5718C87.7729 72.4903 87.8292 72.4019 87.8754 72.3081C87.9765 72.11 88.0224 71.8883 88.0081 71.6663C88.0078 71.6593 88.0094 71.6524 88.0127 71.6462C88.0159 71.64 88.0207 71.6348 88.0266 71.631C88.035 71.6261 88.0451 71.6248 88.0545 71.6273C88.064 71.6298 88.0721 71.636 88.077 71.6445C88.2036 71.8743 88.2547 72.1382 88.2231 72.3988C88.2085 72.5328 88.1786 72.6647 88.1341 72.7919C88.0854 72.9206 88.0235 73.0439 87.9493 73.1598C87.8758 73.276 87.7962 73.3882 87.7107 73.4958C87.6241 73.6015 87.5135 73.685 87.3882 73.7394C87.2809 73.7851 87.1678 73.8156 87.0522 73.8301C87.0774 74.0099 87.1042 74.1913 87.1294 74.3711L87.2722 75.5723L87.3999 76.792L87.4755 78.0033L87.5226 79.2162C87.5226 79.6211 87.5427 80.026 87.5595 80.4325L87.5847 81.6522C87.5847 82.0571 87.5662 82.4637 87.536 82.8685C87.5058 83.2734 87.4419 83.6766 87.368 84.0765L87.247 84.6745C87.2034 84.8745 87.1614 85.0727 87.1143 85.2709C87.0102 85.6657 86.901 86.0589 86.7783 86.4469C86.6557 86.835 86.5078 87.2197 86.3533 87.6011C86.191 87.9834 86.0088 88.3568 85.8073 88.72C85.7998 88.7326 85.7896 88.7434 85.7774 88.7516C85.7652 88.7597 85.7513 88.765 85.7367 88.767C85.7118 88.7699 85.6868 88.7629 85.667 88.7475C85.6472 88.7321 85.6342 88.7095 85.6309 88.6847C85.5754 88.2664 85.557 87.8598 85.5435 87.4549C85.5301 87.0501 85.5183 86.6469 85.5234 86.2487C85.5284 85.8505 85.5234 85.4524 85.5385 85.0576C85.5385 84.8593 85.5486 84.6628 85.5519 84.4645L85.5805 83.8765C85.5939 83.4834 85.6191 83.092 85.6611 82.7005C85.7031 82.3091 85.7418 81.921 85.8006 81.5245L85.9602 80.3485C86.0038 79.9571 86.0458 79.5657 86.0761 79.1725L86.1399 78.1511C85.9511 78.1569 85.7623 78.1412 85.5771 78.1041C85.3158 78.0528 85.0692 77.9444 84.8547 77.7865C84.6447 77.6272 84.4561 77.4414 84.2936 77.2338C84.1321 77.0324 84.0003 76.809 83.9022 76.5702C83.8095 76.3336 83.7528 76.0844 83.7342 75.831C83.6994 75.3418 83.813 74.8535 84.0601 74.4299Z" fill="#9A92DA"/>
<g style="mix-blend-mode:overlay" opacity="0.3">
<path d="M89.0801 69.6454C89.0801 70.02 89.28 70.3174 89.5286 70.3174C89.7773 70.3174 89.9789 70.015 89.9789 69.6454C89.9789 69.2758 89.7773 68.9734 89.5286 68.9734C89.28 68.9734 89.0801 69.2707 89.0801 69.6454Z" fill="white"/>
<path d="M85.8494 67.0482C86.0972 67.0482 86.298 66.7451 86.298 66.3711C86.298 65.9972 86.0972 65.6941 85.8494 65.6941C85.6017 65.6941 85.4009 65.9972 85.4009 66.3711C85.4009 66.7451 85.6017 67.0482 85.8494 67.0482Z" fill="white"/>
<path d="M87.8149 65.9208C87.956 65.9208 88.0703 65.7486 88.0703 65.5361C88.0703 65.3236 87.956 65.1514 87.8149 65.1514C87.6739 65.1514 87.5596 65.3236 87.5596 65.5361C87.5596 65.7486 87.6739 65.9208 87.8149 65.9208Z" fill="white"/>
<path d="M85.4009 68.644C85.4009 68.8557 85.5151 69.0287 85.6546 69.0287C85.794 69.0287 85.9099 68.8607 85.9099 68.644C85.9099 68.4273 85.7957 68.2593 85.6546 68.2593C85.5134 68.2593 85.4009 68.4306 85.4009 68.644Z" fill="white"/>
<path d="M88.4316 67.4244C88.4316 67.5706 88.5106 67.6882 88.5996 67.6882C88.6887 67.6882 88.7676 67.5706 88.7676 67.4244C88.7676 67.2783 88.6887 67.1624 88.5996 67.1624C88.5106 67.1624 88.4316 67.28 88.4316 67.4244Z" fill="white"/>
</g>
<path d="M90.8001 88.0295C90.6695 87.9241 90.5166 87.8497 90.3531 87.8119C90.1896 87.774 90.0196 87.7738 89.856 87.8111C90.1634 87.2533 90.4658 86.672 90.528 86.0387C90.5901 85.4053 90.3499 84.6947 89.7972 84.3889C89.2092 84.0529 88.428 84.2629 87.9324 84.7249C87.4368 85.1869 87.1797 85.8438 87.005 86.4956C86.9897 86.3343 86.9174 86.1836 86.8011 86.0707C86.6847 85.9578 86.532 85.89 86.3702 85.8794C86.2084 85.8689 86.0482 85.9164 85.9182 86.0133C85.7883 86.1102 85.6971 86.2502 85.661 86.4083C85.552 86.0349 85.3847 85.6811 85.1654 85.36C85.0542 85.2005 84.9073 85.0691 84.7363 84.9764C84.5654 84.8837 84.3753 84.8321 84.1809 84.8257C83.7172 84.8408 83.3224 85.2188 83.1729 85.6573C83.0426 86.1051 83.0391 86.5802 83.1628 87.0299C83.0707 86.8954 82.9393 86.7926 82.7865 86.7355C82.6338 86.6783 82.4672 86.6697 82.3094 86.7107C82.3212 86.1361 82.3296 85.5347 82.1011 85.0122C81.8726 84.4897 81.34 84.0412 80.7688 84.11C80.1976 84.1789 79.8213 84.6745 79.6096 85.1869C79.2671 86.0279 79.2599 86.9683 79.5895 87.8144C79.4085 87.6861 79.1922 87.6172 78.9704 87.6172C78.7486 87.6172 78.5323 87.6861 78.3513 87.8144C78.1771 87.9414 78.0482 88.1208 77.9835 88.3265C77.9188 88.5321 77.9217 88.753 77.9918 88.9568H79.776H91.2487C91.2455 88.779 91.2038 88.604 91.1263 88.4439C91.0489 88.2837 90.9376 88.1424 90.8001 88.0295Z" fill="#BDB7E4"/>
<g style="mix-blend-mode:multiply">
<path d="M89.2311 88.4781C89.1641 88.4237 89.0855 88.3852 89.0014 88.3657C88.9172 88.3462 88.8298 88.3462 88.7456 88.3656C88.9215 88.0882 89.0387 87.7777 89.09 87.4533C89.1115 87.2922 89.0876 87.1282 89.0212 86.9799C88.9547 86.8315 88.8482 86.7046 88.7137 86.6133C88.5562 86.5382 88.3791 86.514 88.2072 86.5441C88.0353 86.5742 87.877 86.6571 87.7544 86.7813C87.5143 87.0347 87.3497 87.3501 87.279 87.6919C87.2723 87.6076 87.2355 87.5286 87.1752 87.4693C87.115 87.41 87.0354 87.3744 86.951 87.3691C86.8666 87.3638 86.7832 87.3891 86.716 87.4404C86.6487 87.4916 86.6023 87.5654 86.5851 87.6482C86.53 87.456 86.4443 87.274 86.3315 87.1089C86.2751 87.0265 86.2001 86.9586 86.1125 86.9108C86.0249 86.8629 85.9272 86.8364 85.8275 86.8334C85.7085 86.846 85.5958 86.8931 85.5032 86.9689C85.4107 87.0447 85.3424 87.146 85.3067 87.2601C85.2411 87.4913 85.2411 87.7362 85.3067 87.9674C85.2597 87.8977 85.1925 87.8441 85.114 87.8141C85.0355 87.784 84.9497 87.7789 84.8682 87.7994C84.8945 87.5039 84.8579 87.2061 84.7607 86.9258C84.7089 86.7868 84.6151 86.6674 84.4922 86.5842C84.3693 86.5011 84.2235 86.4584 84.0752 86.4621C83.7913 86.4957 83.5863 86.7528 83.4788 87.0149C83.3025 87.4478 83.2989 87.9318 83.4687 88.3673C83.3756 88.3014 83.2644 88.266 83.1504 88.266C83.0363 88.266 82.9251 88.3014 82.832 88.3673C82.7421 88.4324 82.6755 88.5247 82.642 88.6306C82.6084 88.7364 82.6097 88.8502 82.6455 88.9553H83.5628H89.4663C89.4643 88.8634 89.4422 88.7731 89.4016 88.6907C89.3609 88.6082 89.3028 88.5357 89.2311 88.4781Z" fill="#BDB7E4"/>
</g>
<path d="M22.3117 88.0294C22.4423 87.924 22.5952 87.8496 22.7587 87.8118C22.9222 87.774 23.0922 87.7737 23.2558 87.811C22.9484 87.2533 22.646 86.672 22.5838 86.0386C22.5217 85.4053 22.7619 84.6946 23.3146 84.3889C23.9026 84.0529 24.6838 84.2629 25.1794 84.7249C25.675 85.1869 25.9321 85.8437 26.1068 86.4956C26.1221 86.3342 26.1944 86.1835 26.3107 86.0706C26.4271 85.9577 26.5798 85.8899 26.7416 85.8794C26.9034 85.8689 27.0636 85.9163 27.1936 86.0132C27.3235 86.1101 27.4147 86.2502 27.4508 86.4082C27.5598 86.0349 27.7271 85.6811 27.9464 85.3599C28.0578 85.1991 28.2053 85.0667 28.3772 84.9733C28.5491 84.88 28.7404 84.8282 28.9359 84.8223C29.3996 84.8374 29.7944 85.2154 29.9439 85.6539C30.0742 86.1017 30.0777 86.5768 29.954 87.0265C30.0462 86.892 30.1776 86.7892 30.3303 86.732C30.483 86.6749 30.6496 86.6663 30.8074 86.7073C30.7957 86.1327 30.7873 85.5313 31.0158 85.0088C31.2442 84.4863 31.7768 84.0377 32.348 84.1066C32.9192 84.1755 33.2955 84.6711 33.5072 85.1835C33.8498 86.0245 33.857 86.9648 33.5274 87.811C33.7083 87.6827 33.9246 87.6138 34.1464 87.6138C34.3683 87.6138 34.5846 87.6827 34.7655 87.811C34.9397 87.938 35.0686 88.1174 35.1333 88.323C35.198 88.5286 35.1951 88.7496 35.125 88.9534H33.3409H21.8682C21.8712 88.7766 21.9124 88.6024 21.9889 88.4429C22.0655 88.2835 22.1756 88.1424 22.3117 88.0294Z" fill="#BDB7E4"/>
<g style="mix-blend-mode:multiply">
<path d="M23.8808 88.4781C23.9479 88.4237 24.0264 88.3852 24.1106 88.3657C24.1947 88.3462 24.2822 88.3462 24.3663 88.3656C24.1934 88.0875 24.0791 87.7771 24.0303 87.4533C24.0089 87.2922 24.0327 87.1282 24.0992 86.9799C24.1656 86.8315 24.2721 86.7046 24.4067 86.6133C24.5642 86.5382 24.7412 86.514 24.9131 86.5441C25.085 86.5742 25.2433 86.6571 25.3659 86.7813C25.606 87.0347 25.7707 87.3501 25.8414 87.6919C25.848 87.6076 25.8849 87.5286 25.9451 87.4693C26.0054 87.41 26.085 87.3744 26.1694 87.3691C26.2537 87.3638 26.3372 87.3891 26.4044 87.4404C26.4716 87.4916 26.5181 87.5654 26.5352 87.6482C26.5904 87.456 26.676 87.274 26.7889 87.1089C26.8453 87.0265 26.9203 86.9586 27.0079 86.9108C27.0955 86.8629 27.1931 86.8364 27.2929 86.8334C27.4119 86.846 27.5246 86.8931 27.6171 86.9689C27.7096 87.0447 27.778 87.146 27.8137 87.2601C27.8792 87.4913 27.8792 87.7362 27.8137 87.9674C27.8606 87.8977 27.9279 87.8441 28.0064 87.8141C28.0848 87.784 28.1707 87.7789 28.2522 87.7994C28.2258 87.5039 28.2625 87.2061 28.3597 86.9258C28.4114 86.7868 28.5053 86.6674 28.6282 86.5842C28.7511 86.5011 28.8968 86.4584 29.0451 86.4621C29.3274 86.4957 29.534 86.7528 29.6415 87.0149C29.8179 87.4478 29.8215 87.9318 29.6516 88.3673C29.7447 88.3014 29.8559 88.266 29.97 88.266C30.084 88.266 30.1953 88.3014 30.2883 88.3673C30.3783 88.4323 30.4449 88.5247 30.4782 88.6306C30.5115 88.7366 30.5097 88.8504 30.4731 88.9553H29.5559H23.6523C23.6536 88.8639 23.6746 88.7739 23.7141 88.6916C23.7535 88.6092 23.8104 88.5363 23.8808 88.4781Z" fill="#BDB7E4"/>
</g>
<path d="M41.2773 79.5455C40.3969 80.6056 38.9891 81.1197 37.6132 81.1902C36.4624 81.249 35.3217 81.0306 34.2129 80.7434C34.0096 80.6896 33.7223 80.5418 33.514 80.5451C33.3057 80.5485 32.9881 80.735 32.7714 80.819C32.2515 81.0226 31.721 81.1981 31.1821 81.3448C30.5942 81.5044 29.9911 81.6018 29.3829 81.6354C28.2757 81.6875 27.1165 81.4422 26.2043 80.8374C25.5549 80.416 25.0532 79.8024 24.7693 79.0821C24.4854 78.3618 24.4334 77.5709 24.6206 76.8197C24.8078 76.0685 25.2248 75.3944 25.8135 74.8916C26.4022 74.3888 27.1332 74.0823 27.9045 74.015C27.151 73.2355 26.6202 72.2683 26.3674 71.2141C26.1146 70.1599 26.149 69.0571 26.4671 68.0207C26.7851 66.9843 27.3751 66.0521 28.1757 65.3211C28.9763 64.5901 29.9582 64.0871 31.0192 63.8644C32.0801 63.642 33.1813 63.708 34.2081 64.0555C35.2349 64.4031 36.1498 65.0195 36.8575 65.8406C37.5652 66.6617 38.0399 67.6575 38.2322 68.7243C38.4245 69.7912 38.3274 70.89 37.9509 71.9066C38.5002 71.6512 39.1974 71.5907 39.6729 71.9637C40.1483 72.3366 40.1651 73.227 39.6124 73.4757C39.8588 73.5623 40.0954 73.675 40.318 73.8117C40.7902 74.0978 41.1951 74.4824 41.505 74.9394C41.8148 75.3963 42.0224 75.9148 42.1135 76.4594C42.2046 77.0039 42.177 77.5617 42.0327 78.0946C41.8884 78.6275 41.6307 79.123 41.2773 79.5472V79.5455Z" fill="#BDB7E4"/>
<path d="M41.2771 79.5455C40.3967 80.6056 38.9889 81.1197 37.613 81.1902C36.4622 81.249 35.3215 81.0306 34.2127 80.7433C34.0094 80.6896 33.7221 80.5417 33.5138 80.5451C33.3055 80.5485 32.9879 80.7349 32.7712 80.8189C32.2513 81.0226 31.7207 81.1981 31.1819 81.3448C30.594 81.5044 29.9909 81.6018 29.3827 81.6354C28.2755 81.6875 27.1163 81.4422 26.2041 80.8374C26.9551 80.866 27.7072 80.8238 28.4503 80.7114C30.3974 80.4056 32.3361 79.4262 33.3223 77.721C34.4294 77.8302 35.5516 77.9226 36.652 77.7529C37.7524 77.5833 38.8478 77.128 39.5819 76.288C40.0507 75.7614 40.334 75.0958 40.3883 74.3929C40.3822 74.1952 40.3586 73.9985 40.3178 73.8049C40.79 74.091 41.1949 74.4757 41.5048 74.9326C41.8146 75.3896 42.0222 75.9081 42.1133 76.4526C42.2044 76.9972 42.1768 77.555 42.0325 78.0879C41.8882 78.6208 41.6305 79.1163 41.2771 79.5404V79.5455Z" fill="#AEA7E0"/>
<path d="M35.7721 75.2547C35.7681 75.2484 35.7622 75.2436 35.7553 75.2408C35.7483 75.2381 35.7407 75.2377 35.7335 75.2396C35.7253 75.2426 35.7185 75.2486 35.7145 75.2564C35.7105 75.2641 35.7094 75.2731 35.7117 75.2816C35.8313 75.6717 35.8418 76.0871 35.7419 76.4828C35.6948 76.6706 35.6195 76.8501 35.5185 77.0153C35.4234 77.1788 35.3051 77.3276 35.1673 77.4572C35.1337 77.4908 35.0968 77.5193 35.0615 77.5496C35.0248 77.5783 34.9867 77.6052 34.9473 77.6302C34.8707 77.6795 34.7903 77.7228 34.707 77.7596C34.6264 77.7982 34.539 77.8318 34.4601 77.8671L34.2047 77.9729C34.0921 78.0183 33.9729 78.062 33.8502 78.104L33.8233 77.4236L33.7931 76.3433V75.2614C33.7931 73.8166 33.8603 72.3701 33.9611 70.9169C33.9628 70.8975 33.9575 70.8782 33.946 70.8624C33.9346 70.8467 33.9179 70.8356 33.8989 70.8312C33.8885 70.8285 33.8775 70.8279 33.8668 70.8295C33.8561 70.831 33.8458 70.8348 33.8365 70.8404C33.8273 70.8461 33.8193 70.8535 33.8129 70.8623C33.8066 70.8711 33.8022 70.8811 33.7998 70.8917C33.5293 71.9535 33.3126 73.032 33.1379 74.1173L33.0976 74.077C33.0317 74.0097 32.9557 73.953 32.8725 73.909C32.7866 73.8726 32.7058 73.8252 32.6322 73.7679C32.5629 73.7077 32.5004 73.6401 32.4457 73.5663C32.3861 73.4924 32.3353 73.4118 32.2945 73.326C32.2034 73.1458 32.1617 72.9447 32.1736 72.7431C32.1738 72.737 32.1723 72.731 32.1694 72.7256C32.1664 72.7203 32.1621 72.7159 32.1568 72.7128C32.1531 72.7105 32.1489 72.7089 32.1446 72.7082C32.1402 72.7075 32.1358 72.7077 32.1315 72.7088C32.1273 72.7099 32.1233 72.7119 32.1198 72.7146C32.1164 72.7173 32.1135 72.7207 32.1114 72.7246C31.9962 72.9341 31.9493 73.1743 31.977 73.4117C31.9913 73.5336 32.0189 73.6536 32.0593 73.7696C32.103 73.8873 32.1593 74 32.2273 74.1056C32.294 74.2123 32.3669 74.3149 32.4457 74.413C32.5239 74.5094 32.6242 74.5855 32.7381 74.6348C32.8344 74.6764 32.9363 74.7041 33.0405 74.7171C33.0147 74.8817 32.9912 75.0464 32.9699 75.211L32.8389 76.3047L32.733 77.4034L32.6658 78.5055L32.6221 79.6092C32.6221 79.9772 32.6037 80.3468 32.5885 80.7164L32.565 81.8268C32.565 82.1964 32.5818 82.566 32.6104 82.9356C32.6389 83.3052 32.6961 83.6698 32.7565 84.0344L32.8657 84.5804C32.9077 84.7601 32.9447 84.9416 32.9884 85.1213C33.0825 85.4808 33.1816 85.8387 33.2925 86.1932C33.4033 86.5476 33.5394 86.8971 33.6805 87.2432C33.8301 87.5919 33.9984 87.9323 34.1845 88.2629C34.1912 88.2744 34.2004 88.2841 34.2115 88.2914C34.2226 88.2987 34.2352 88.3033 34.2484 88.3049C34.2595 88.3066 34.2709 88.3059 34.2819 88.3031C34.2928 88.3002 34.303 88.2952 34.312 88.2883C34.3209 88.2814 34.3284 88.2728 34.3339 88.2629C34.3394 88.2531 34.3429 88.2422 34.3441 88.231C34.3897 87.8591 34.4167 87.4851 34.4248 87.1104C34.4416 86.7408 34.4466 86.3746 34.4433 86.0134C34.4399 85.6522 34.4433 85.2876 34.4298 84.9281C34.4298 84.7484 34.4197 84.5686 34.4164 84.3888L34.3912 83.8529C34.3777 83.4951 34.3542 83.1389 34.3173 82.7828C34.2803 82.4266 34.2433 82.0738 34.1913 81.7193L34.0451 80.6525C34.0065 80.2964 33.9678 79.9402 33.9393 79.5824L33.8805 78.6516C34.0496 78.6564 34.2187 78.6418 34.3845 78.608C34.6224 78.5618 34.8473 78.4638 35.043 78.3207C35.2322 78.1753 35.4017 78.0059 35.547 77.8167C35.6945 77.6335 35.8145 77.4297 35.9032 77.2119C35.9877 76.9968 36.0392 76.7703 36.0561 76.5399C36.0943 76.0926 35.9953 75.6442 35.7721 75.2547Z" fill="#9A92DA"/>
<g style="mix-blend-mode:overlay" opacity="0.3">
<path d="M30.065 69.857C30.065 70.3946 29.729 70.8297 29.3157 70.8297C28.9024 70.8297 28.5664 70.3946 28.5664 69.857C28.5664 69.3194 28.9024 68.886 29.3157 68.886C29.729 68.886 30.065 69.3211 30.065 69.857Z" fill="white"/>
<path d="M31.2291 66.6533C31.5009 66.6533 31.7213 66.3674 31.7213 66.0149C31.7213 65.6623 31.5009 65.3765 31.2291 65.3765C30.9572 65.3765 30.7368 65.6623 30.7368 66.0149C30.7368 66.3674 30.9572 66.6533 31.2291 66.6533Z" fill="white"/>
<path d="M32.5496 67.6259C32.5367 67.6758 32.5101 67.7212 32.4727 67.7567C32.4353 67.7923 32.3887 67.8166 32.3381 67.8269C32.2876 67.8373 32.2351 67.8332 32.1868 67.8152C32.1384 67.7973 32.0961 67.7661 32.0646 67.7252C32.0331 67.6843 32.0137 67.6355 32.0087 67.5841C32.0036 67.5328 32.013 67.4811 32.0359 67.4348C32.0588 67.3886 32.0942 67.3497 32.1381 67.3226C32.182 67.2955 32.2326 67.2812 32.2842 67.2815C32.3645 67.2932 32.4371 67.3357 32.4866 67.4C32.5362 67.4642 32.5588 67.5453 32.5496 67.6259Z" fill="white"/>
<path d="M28.5243 71.5371C28.511 71.587 28.484 71.6323 28.4462 71.6676C28.4084 71.7029 28.3615 71.7269 28.3108 71.7368C28.26 71.7468 28.2075 71.7422 28.1592 71.7237C28.111 71.7051 28.0689 71.6734 28.0378 71.6321C28.0067 71.5908 27.9879 71.5415 27.9834 71.49C27.979 71.4385 27.9892 71.3868 28.0127 71.3408C28.0363 71.2948 28.0724 71.2563 28.1168 71.2298C28.1612 71.2033 28.2122 71.1899 28.2639 71.191C28.3436 71.2039 28.4152 71.2471 28.4637 71.3116C28.5123 71.3761 28.534 71.4569 28.5243 71.5371Z" fill="white"/>
<path d="M28.9058 67.2817C28.8986 67.3086 28.884 67.333 28.8636 67.3521C28.8432 67.3712 28.8179 67.3842 28.7906 67.3897C28.7632 67.3951 28.7348 67.3928 28.7087 67.383C28.6826 67.3732 28.6597 67.3562 28.6427 67.3341C28.6257 67.312 28.6153 67.2855 28.6125 67.2577C28.6098 67.23 28.6149 67.202 28.6272 67.1769C28.6396 67.1519 28.6586 67.1308 28.6823 67.1161C28.706 67.1013 28.7334 67.0935 28.7613 67.0935C28.8054 67.0994 28.8453 67.1225 28.8724 67.1577C28.8995 67.193 28.9115 67.2376 28.9058 67.2817Z" fill="white"/>
<path d="M32.3548 66.0165C32.5181 66.0165 32.6504 65.8443 32.6504 65.6318C32.6504 65.4193 32.5181 65.2471 32.3548 65.2471C32.1915 65.2471 32.0591 65.4193 32.0591 65.6318C32.0591 65.8443 32.1915 66.0165 32.3548 66.0165Z" fill="white"/>
</g>
<path d="M78.2959 37.354H35.3047V46.6494H78.2959V37.354Z" fill="#BDB7E4"/>
<g style="mix-blend-mode:multiply">
<path d="M78.2959 37.354H35.3047V38.1251H78.2959V37.354Z" fill="#BDB7E4"/>
</g>
<path d="M77.985 34.2073H35.6138V36.3879H77.985V34.2073Z" fill="#BDB7E4"/>
<g style="mix-blend-mode:multiply">
<path d="M77.985 34.2073H35.6138V34.6172H77.985V34.2073Z" fill="#BDB7E4"/>
</g>
<path d="M78.8167 35.9412H34.7822C34.656 35.9412 34.5537 36.0435 34.5537 36.1696V37.4464C34.5537 37.5726 34.656 37.6749 34.7822 37.6749H78.8167C78.9429 37.6749 79.0452 37.5726 79.0452 37.4464V36.1696C79.0452 36.0435 78.9429 35.9412 78.8167 35.9412Z" fill="#9089CF"/>
<path d="M78.8352 32.5088H34.7637C34.6477 32.5088 34.5537 32.6028 34.5537 32.7188V34.0325C34.5537 34.1485 34.6477 34.2425 34.7637 34.2425H78.8352C78.9511 34.2425 79.0452 34.1485 79.0452 34.0325V32.7188C79.0452 32.6028 78.9511 32.5088 78.8352 32.5088Z" fill="#9089CF"/>
<path d="M78.2944 58.4028H36.1113V88.9435H78.2944V58.4028Z" fill="#BDB7E4"/>
<path d="M78.592 84.3604H35.8158C35.6794 84.3604 35.5688 84.4709 35.5688 84.6073V88.6981C35.5688 88.8345 35.6794 88.9451 35.8158 88.9451H78.592C78.7284 88.9451 78.8389 88.8345 78.8389 88.6981V84.6073C78.8389 84.4709 78.7284 84.3604 78.592 84.3604Z" fill="#A39CDD"/>
<g style="mix-blend-mode:multiply">
<path d="M78.2945 58.4028V62.3542H78.1853C77.9505 62.354 77.7181 62.3075 77.5013 62.2175C77.2845 62.1274 77.0876 61.9956 76.9218 61.8295C76.7559 61.6633 76.6245 61.4661 76.5348 61.2492C76.4452 61.0322 76.3992 60.7997 76.3994 60.565C76.3996 60.7999 76.3536 61.0325 76.2638 61.2496C76.1741 61.4666 76.0425 61.6639 75.8765 61.83C75.7104 61.9962 75.5133 62.128 75.2963 62.218C75.0794 62.3079 74.8468 62.3542 74.6119 62.3542H74.1281C73.8932 62.3542 73.6606 62.3079 73.4436 62.218C73.2266 62.128 73.0295 61.9962 72.8635 61.83C72.6975 61.6639 72.5658 61.4666 72.4761 61.2496C72.3864 61.0325 72.3403 60.7999 72.3405 60.565C72.3408 60.7997 72.2947 61.0322 72.2051 61.2492C72.1155 61.4661 71.984 61.6633 71.8182 61.8295C71.6523 61.9956 71.4554 62.1274 71.2386 62.2175C71.0218 62.3075 70.7894 62.354 70.5547 62.3542H70.0709C69.8359 62.3542 69.6032 62.3079 69.3862 62.218C69.1691 62.1281 68.9718 61.9963 68.8057 61.8301C68.6396 61.664 68.5078 61.4668 68.4178 61.2497C68.3279 61.0326 68.2817 60.8 68.2817 60.565C68.2819 60.7997 68.2359 61.0322 68.1462 61.2492C68.0566 61.4661 67.9251 61.6633 67.7593 61.8295C67.5935 61.9956 67.3965 62.1274 67.1797 62.2175C66.963 62.3075 66.7306 62.354 66.4958 62.3542H66.0137C65.7789 62.354 65.5465 62.3075 65.3297 62.2175C65.1129 62.1274 64.916 61.9956 64.7502 61.8295C64.5843 61.6633 64.4529 61.4661 64.3632 61.2492C64.2736 61.0322 64.2276 60.7997 64.2278 60.565C64.228 60.7999 64.182 61.0325 64.0922 61.2496C64.0025 61.4666 63.8709 61.6639 63.7049 61.83C63.5388 61.9962 63.3417 62.128 63.1247 62.218C62.9078 62.3079 62.6752 62.3542 62.4403 62.3542H61.9581C61.7232 62.3542 61.4907 62.3079 61.2737 62.218C61.0567 62.128 60.8596 61.9962 60.6936 61.83C60.5276 61.6639 60.3959 61.4666 60.3062 61.2496C60.2165 61.0325 60.1704 60.7999 60.1706 60.565C60.1708 60.7997 60.1248 61.0322 60.0352 61.2492C59.9456 61.4661 59.8141 61.6633 59.6482 61.8295C59.4824 61.9956 59.2855 62.1274 59.0687 62.2175C58.8519 62.3075 58.6195 62.354 58.3848 62.3542H57.9009C57.6662 62.354 57.4338 62.3075 57.217 62.2175C57.0002 62.1274 56.8033 61.9956 56.6375 61.8295C56.4716 61.6633 56.3401 61.4661 56.2505 61.2492C56.1609 61.0322 56.1149 60.7997 56.1151 60.565C56.1153 60.7999 56.0692 61.0325 55.9795 61.2496C55.8898 61.4666 55.7581 61.6639 55.5921 61.83C55.4261 61.9962 55.229 62.128 55.012 62.218C54.795 62.3079 54.5625 62.3542 54.3276 62.3542H53.8454C53.6104 62.3542 53.3778 62.3079 53.1607 62.218C52.9436 62.1281 52.7464 61.9963 52.5803 61.8301C52.4141 61.664 52.2823 61.4668 52.1924 61.2497C52.1025 61.0326 52.0562 60.8 52.0562 60.565C52.0567 61.0388 51.869 61.4934 51.5344 61.8289C51.1999 62.1644 50.7458 62.3533 50.272 62.3542H49.7899C49.555 62.3542 49.3224 62.3079 49.1054 62.218C48.8885 62.128 48.6913 61.9962 48.5253 61.83C48.3593 61.6639 48.2277 61.4666 48.138 61.2496C48.0482 61.0325 48.0021 60.7999 48.0024 60.565C48.0026 60.7997 47.9566 61.0322 47.8669 61.2492C47.7773 61.4661 47.6458 61.6633 47.48 61.8295C47.3142 61.9956 47.1172 62.1274 46.9005 62.2175C46.6837 62.3075 46.4513 62.354 46.2165 62.3542H45.736C45.5013 62.354 45.2689 62.3075 45.0521 62.2175C44.8353 62.1274 44.6384 61.9956 44.4726 61.8295C44.3067 61.6633 44.1753 61.4661 44.0856 61.2492C43.996 61.0322 43.95 60.7997 43.9502 60.565C43.9504 60.7999 43.9044 61.0325 43.8146 61.2496C43.7249 61.4666 43.5933 61.6639 43.4273 61.83C43.2612 61.9962 43.0641 62.128 42.8471 62.218C42.6301 62.3079 42.3976 62.3542 42.1627 62.3542H41.6805C41.4456 62.3542 41.2131 62.3079 40.9961 62.218C40.7791 62.128 40.582 61.9962 40.416 61.83C40.25 61.6639 40.1183 61.4666 40.0286 61.2496C39.9389 61.0325 39.8928 60.7999 39.893 60.565C39.8932 60.7997 39.8472 61.0322 39.7576 61.2492C39.668 61.4661 39.5365 61.6633 39.3706 61.8295C39.2048 61.9956 39.0079 62.1274 38.7911 62.2175C38.5743 62.3075 38.3419 62.354 38.1072 62.3542H37.6233C37.322 62.3553 37.0253 62.2801 36.7609 62.1356C36.4965 61.991 36.2731 61.7819 36.1113 61.5276V58.4028H78.2945Z" fill="#9089CF"/>
</g>
<path d="M48.8523 64.3887H38.2549V86.0657H48.8523V64.3887Z" fill="#AA9BE0"/>
<path d="M48.2746 64.9666H38.833V85.4894H48.2746V64.9666Z" fill="#DDDCEE"/>
<g style="mix-blend-mode:overlay" opacity="0.5">
<path d="M48.2745 64.9666V65.7982L42.8078 85.4878H40.8086L46.5072 64.9666H48.2745Z" fill="white"/>
</g>
<path d="M48.2744 75.4362H46.8128C46.7576 75.4362 46.7046 75.4142 46.6655 75.3752C46.6264 75.3361 46.6045 75.2831 46.6045 75.2279C46.6043 75.2004 46.6095 75.1732 46.6199 75.1479C46.6303 75.1225 46.6456 75.0994 46.665 75.0801C46.6844 75.0607 46.7075 75.0453 46.7328 75.0349C46.7582 75.0245 46.7854 75.0193 46.8128 75.0195H48.2744V75.4362Z" fill="#AA9BE0"/>
<path d="M76.1509 64.3887H50.4268V78.4553H76.1509V64.3887Z" fill="#AA9BE0"/>
<path d="M75.4772 64.9648H51.1021V77.8756H75.4772V64.9648Z" fill="#DDDCEE"/>
<g style="mix-blend-mode:overlay" opacity="0.5">
<path d="M60.8777 64.9648L57.4875 77.8756H56.3921L59.7807 64.9648H60.8777Z" fill="white"/>
<path d="M70.1411 64.9648L66.7525 77.8756H65.6538L69.0457 64.9648H70.1411Z" fill="white"/>
</g>
<path d="M50.4906 87.4382H36.6172V88.9435H50.4906V87.4382Z" fill="#6F5BBC"/>
<path d="M50.4906 87.4381H36.6172L37.2321 87.0769H49.8757L50.4906 87.4381Z" fill="#8270CE"/>
<path d="M49.4758 86.2251H37.6318V87.0769H49.4758V86.2251Z" fill="#6F5BBC"/>
<path d="M49.4758 86.2253H37.6318L38.1577 86.022H48.95L49.4758 86.2253Z" fill="#8270CE"/>
<path d="M35.4376 57.6769H31.4795L33.4585 47.0728H37.1125L35.4376 57.6769Z" fill="#DDDCEE"/>
<path d="M39.3956 57.6769H35.4375L37.1125 47.0728H40.7648L39.3956 57.6769Z" fill="#8270CE"/>
<path d="M43.3519 57.6769H39.3955L40.7647 47.0728H44.417L43.3519 57.6769Z" fill="#DDDCEE"/>
<path d="M47.3101 57.6769H43.3521L44.4172 47.0728H48.0712L47.3101 57.6769Z" fill="#8270CE"/>
<path d="M51.2665 57.6769H47.3101L48.0711 47.0728H51.7234L51.2665 57.6769Z" fill="#DDDCEE"/>
<path d="M55.2247 57.6769H51.2666L51.7236 47.0728H55.3759L55.2247 57.6769Z" fill="#8270CE"/>
<path d="M59.1827 57.6769H55.2246L55.3758 47.0728H59.0298L59.1827 57.6769Z" fill="#DDDCEE"/>
<path d="M63.1391 57.6769H59.1827L59.0298 47.0728H62.6821L63.1391 57.6769Z" fill="#8270CE"/>
<path d="M67.0972 57.6769H63.1391L62.6821 47.0728H66.3361L67.0972 57.6769Z" fill="#DDDCEE"/>
<path d="M71.0534 57.6769H67.097L66.3359 47.0728H69.9883L71.0534 57.6769Z" fill="#8270CE"/>
<path d="M75.0115 57.6769H71.0534L69.9883 47.0728H73.6406L75.0115 57.6769Z" fill="#DDDCEE"/>
<path d="M78.9679 57.6769H75.0115L73.6406 47.0728H77.2946L78.9679 57.6769Z" fill="#8270CE"/>
<path d="M82.9263 57.6769H78.9682L77.2949 47.0728H80.9472L82.9263 57.6769Z" fill="#DDDCEE"/>
<path d="M31.4814 57.677H35.4378V59.3284C35.4378 59.774 35.2608 60.2013 34.9458 60.5164C34.6307 60.8314 34.2034 61.0084 33.7578 61.0084H33.1698C32.7243 61.0084 32.297 60.8314 31.9819 60.5164C31.6668 60.2013 31.4898 59.774 31.4898 59.3284V57.677H31.4814Z" fill="#D4D2EA"/>
<path d="M35.4375 57.677H39.3956V59.3284C39.3956 59.774 39.2186 60.2013 38.9035 60.5164C38.5885 60.8314 38.1611 61.0084 37.7156 61.0084H37.1276C36.682 61.0084 36.2547 60.8314 35.9396 60.5164C35.6246 60.2013 35.4476 59.774 35.4476 59.3284V57.677H35.4375Z" fill="#6F5BBC"/>
<path d="M39.3955 57.677H43.3536V59.3284C43.3536 59.774 43.1766 60.2013 42.8615 60.5164C42.5465 60.8314 42.1192 61.0084 41.6736 61.0084H41.0856C40.64 61.0084 40.2127 60.8314 39.8976 60.5164C39.5826 60.2013 39.4056 59.774 39.4056 59.3284V57.677H39.3955Z" fill="#D4D2EA"/>
<path d="M43.3521 57.677H47.3101V59.3284C47.3101 59.774 47.1331 60.2013 46.8181 60.5164C46.503 60.8314 46.0757 61.0084 45.6301 61.0084H45.0421C44.5966 61.0084 44.1693 60.8314 43.8542 60.5164C43.5391 60.2013 43.3621 59.774 43.3621 59.3284V57.677H43.3521Z" fill="#6F5BBC"/>
<path d="M47.3101 57.677H51.2681V59.3284C51.2681 59.774 51.0911 60.2013 50.7761 60.5164C50.461 60.8314 50.0337 61.0084 49.5881 61.0084H49.0001C48.5546 61.0084 48.1273 60.8314 47.8122 60.5164C47.4971 60.2013 47.3201 59.774 47.3201 59.3284V57.677H47.3101Z" fill="#D4D2EA"/>
<path d="M51.2666 57.677H55.2247V59.3284C55.2247 59.774 55.0477 60.2013 54.7326 60.5164C54.4176 60.8314 53.9902 61.0084 53.5447 61.0084H52.9567C52.5111 61.0084 52.0838 60.8314 51.7687 60.5164C51.4537 60.2013 51.2767 59.774 51.2767 59.3284V57.677H51.2666Z" fill="#6F5BBC"/>
<path d="M55.2246 57.677H59.176V59.3284C59.176 59.774 58.999 60.2013 58.6839 60.5164C58.3688 60.8314 57.9415 61.0084 57.496 61.0084H56.908C56.4624 61.0084 56.0351 60.8314 55.72 60.5164C55.405 60.2013 55.228 59.774 55.228 59.3284V57.677H55.2246Z" fill="#D4D2EA"/>
<path d="M59.1758 57.677H63.1339V59.3284C63.1339 59.774 62.9569 60.2013 62.6418 60.5164C62.3267 60.8314 61.8994 61.0084 61.4539 61.0084H60.8659C60.4203 61.0084 59.993 60.8314 59.6779 60.5164C59.3629 60.2013 59.1859 59.774 59.1859 59.3284V57.677H59.1758Z" fill="#6F5BBC"/>
<path d="M63.1392 57.677H67.0972V59.3284C67.0972 59.774 66.9202 60.2013 66.6052 60.5164C66.2901 60.8314 65.8628 61.0084 65.4172 61.0084H64.8292C64.3837 61.0084 63.9564 60.8314 63.6413 60.5164C63.3262 60.2013 63.1492 59.774 63.1492 59.3284V57.677H63.1392Z" fill="#D4D2EA"/>
<path d="M67.0972 57.677H71.0536V59.3284C71.0536 59.5491 71.0101 59.7675 70.9257 59.9713C70.8413 60.1752 70.7175 60.3604 70.5615 60.5164C70.4055 60.6724 70.2203 60.7961 70.0165 60.8806C69.8126 60.965 69.5942 61.0084 69.3736 61.0084H68.7856C68.34 61.0084 67.9127 60.8314 67.5976 60.5164C67.2826 60.2013 67.1056 59.774 67.1056 59.3284V57.677H67.0972Z" fill="#6F5BBC"/>
<path d="M71.0537 57.677H75.0118V59.3284C75.0118 59.774 74.8348 60.2013 74.5197 60.5164C74.2047 60.8314 73.7774 61.0084 73.3318 61.0084H72.7438C72.2982 61.0084 71.8709 60.8314 71.5558 60.5164C71.2408 60.2013 71.0638 59.774 71.0638 59.3284V57.677H71.0537Z" fill="#D4D2EA"/>
<path d="M78.9683 57.677H82.9263V59.3284C82.9263 59.774 82.7493 60.2013 82.4343 60.5164C82.1192 60.8314 81.6919 61.0084 81.2463 61.0084H80.6583C80.2128 61.0084 79.7855 60.8314 79.4704 60.5164C79.1553 60.2013 78.9783 59.774 78.9783 59.3284V57.677H78.9683Z" fill="#D4D2EA"/>
<path d="M75.0117 57.677H78.9698V59.3284C78.9698 59.774 78.7928 60.2013 78.4777 60.5164C78.1627 60.8314 77.7354 61.0084 77.2898 61.0084H76.7018C76.2562 61.0084 75.8289 60.8314 75.5139 60.5164C75.1988 60.2013 75.0218 59.774 75.0218 59.3284V57.677H75.0117Z" fill="#6F5BBC"/>
<g style="mix-blend-mode:multiply">
<path d="M82.9261 57.6768H31.4795L31.5081 57.5273C39.8409 57.3996 48.2056 57.146 56.3721 55.4828C59.2672 54.9015 62.1175 54.1155 64.9014 53.1308C69.0594 51.6456 73.0628 49.6616 76.6463 47.0828H80.9555L82.9261 57.6768Z" fill="#DDDCEE"/>
</g>
<path d="M80.9639 47.256H33.4417C33.3848 47.2562 33.3283 47.2452 33.2756 47.2235C33.2229 47.2018 33.1751 47.1698 33.1348 47.1296C33.0945 47.0893 33.0625 47.0414 33.0408 46.9887C33.0191 46.936 33.0081 46.8796 33.0083 46.8226C33.0081 46.7655 33.0191 46.709 33.0408 46.6562C33.0625 46.6034 33.0944 46.5554 33.1347 46.515C33.1749 46.4746 33.2228 46.4425 33.2755 46.4206C33.3282 46.3987 33.3847 46.3875 33.4417 46.3875H80.9639C81.0793 46.3875 81.19 46.4333 81.2716 46.5149C81.3532 46.5965 81.399 46.7072 81.399 46.8226C81.399 46.8796 81.3878 46.9361 81.3659 46.9888C81.344 47.0415 81.3119 47.0894 81.2715 47.1297C81.2311 47.1699 81.1831 47.2018 81.1303 47.2235C81.0775 47.2452 81.021 47.2562 80.9639 47.256Z" fill="#8270CE"/>
<path d="M77.1118 39.2004H36.9648V44.8016H77.1118V39.2004Z" fill="#AA9BE0"/>
<path d="M76.5336 39.7126H37.5425V44.289H76.5336V39.7126Z" fill="#DDDCEE"/>
<g style="mix-blend-mode:multiply">
<path d="M37.5425 39.7126V40.0436H76.2026V44.289H76.5336V39.7126H37.5425Z" fill="#DDDCEE"/>
</g>
<g style="mix-blend-mode:overlay" opacity="0.5">
<path d="M57.6555 39.7126L55.3438 44.289H53.5513L55.8629 39.7126H57.6555Z" fill="white"/>
<path d="M65.6017 39.7126L63.2934 44.289H62.4668L64.7785 39.7126H65.6017Z" fill="white"/>
</g>
<g style="mix-blend-mode:multiply">
<path d="M73.7803 80.5215H70.3262V81.7361H73.7803V80.5215Z" fill="#BDB7E4"/>
</g>
<g style="mix-blend-mode:multiply">
<path d="M70.9057 82.4233H67.4517V83.638H70.9057V82.4233Z" fill="#BDB7E4"/>
</g>
<g style="mix-blend-mode:multiply">
<path d="M64.6211 79.1458H61.167V80.3604H64.6211V79.1458Z" fill="#BDB7E4"/>
</g>
<g style="mix-blend-mode:multiply">
<path d="M37.8384 69.6687H36.1113V70.8833H37.8384V69.6687Z" fill="#BDB7E4"/>
</g>
<g style="mix-blend-mode:multiply">
<path d="M38.2549 76.8257H36.8555V78.0403H38.2549V76.8257Z" fill="#BDB7E4"/>
</g>
<g style="mix-blend-mode:multiply">
<path d="M78.2942 62.6465H76.3823V63.8611H78.2942V62.6465Z" fill="#BDB7E4"/>
</g>
<g style="mix-blend-mode:multiply">
<path d="M74.548 85.4458H72.6865V86.1212H74.548V85.4458Z" fill="#AA9BE0"/>
</g>
<g style="mix-blend-mode:multiply">
<path d="M68.3824 86.7678H66.521V87.4415H68.3824V86.7678Z" fill="#AA9BE0"/>
</g>
<g style="mix-blend-mode:multiply">
<path d="M67.2013 85.864H65.3398V86.5377H67.2013V85.864Z" fill="#AA9BE0"/>
</g>
<g style="mix-blend-mode:multiply">
<path d="M63.9371 86.8618H62.0757V87.5355H63.9371V86.8618Z" fill="#AA9BE0"/>
</g>
<g style="mix-blend-mode:multiply">
<path d="M51.421 84.814H49.5596V85.4876H51.421V84.814Z" fill="#AA9BE0"/>
</g>
<path d="M31.1873 78.4216H30.6161V56.9528C30.6161 56.3825 30.3896 55.8355 29.9863 55.4323C29.583 55.029 29.0361 54.8024 28.4657 54.8024C27.8954 54.8024 27.3485 55.029 26.9452 55.4323C26.5419 55.8355 26.3153 56.3825 26.3153 56.9528V57.9155H25.7441V56.9528C25.7441 56.2315 26.0307 55.5396 26.5408 55.0296C27.0509 54.5195 27.7427 54.2329 28.4641 54.2329C29.1854 54.2329 29.8773 54.5195 30.3873 55.0296C30.8974 55.5396 31.184 56.2315 31.184 56.9528L31.1873 78.4216Z" fill="#6F5BBC"/>
<path d="M28.795 54.8025C28.7395 54.8025 28.6858 54.8025 28.627 54.8025C29.1689 54.8432 29.6753 55.0877 30.0443 55.4866C30.4133 55.8856 30.6176 56.4094 30.6161 56.9529V78.4216H30.9521V56.9529C30.9516 56.6701 30.8955 56.3901 30.7868 56.1289C30.6782 55.8678 30.5192 55.6306 30.3189 55.4309C30.1186 55.2313 29.8809 55.073 29.6194 54.9652C29.3579 54.8573 29.0778 54.8021 28.795 54.8025Z" fill="#8270CE"/>
<path d="M28.1818 59.1704C28.16 59.1775 28.1374 59.182 28.1146 59.1839H23.9381C23.9153 59.182 23.8927 59.1775 23.8709 59.1704C23.5253 59.581 23.3042 60.0817 23.2335 60.6137C23.1629 61.1457 23.2456 61.6868 23.472 62.1734C23.6985 62.66 24.0592 63.0717 24.5117 63.3602C24.9642 63.6488 25.4897 63.802 26.0263 63.802C26.563 63.802 27.0885 63.6488 27.541 63.3602C27.9935 63.0717 28.3542 62.66 28.5807 62.1734C28.8071 61.6868 28.8898 61.1457 28.8192 60.6137C28.7485 60.0817 28.5274 59.581 28.1818 59.1704Z" fill="#AA9BE0"/>
<g style="mix-blend-mode:overlay" opacity="0.3">
<path d="M25.1359 62.1844C24.8319 62.0745 24.5797 61.8553 24.4286 61.5696L24.4387 61.5964C24.4089 61.5204 24.3891 61.4407 24.3799 61.3596C24.3799 61.2789 24.3967 61.2033 24.3967 61.1244C24.3983 61.0613 24.3789 60.9995 24.3414 60.9487C24.304 60.8979 24.2507 60.861 24.19 60.8438C24.1172 60.8246 24.0398 60.8345 23.9742 60.8716C23.9086 60.9086 23.8601 60.9698 23.8389 61.042C23.7996 61.2341 23.8042 61.4326 23.8525 61.6226C23.9008 61.8125 23.9915 61.9891 24.1178 62.1391C24.3508 62.4086 24.6494 62.6134 24.9847 62.7338C25.0206 62.744 25.0583 62.7469 25.0954 62.7425C25.1325 62.738 25.1683 62.7262 25.2008 62.7077C25.2333 62.6893 25.2619 62.6646 25.2847 62.635C25.3076 62.6055 25.3244 62.5717 25.3341 62.5356C25.3482 62.4674 25.338 62.3964 25.3051 62.335C25.2723 62.2736 25.2189 62.2257 25.1543 62.1996L25.1359 62.1844Z" fill="white"/>
</g>
<g style="mix-blend-mode:multiply">
<path d="M23.9378 59.1839C23.915 59.182 23.8925 59.1775 23.8706 59.1704C23.8706 59.1704 23.8706 59.1704 23.8589 59.1839H23.9378Z" fill="#DDDCEE"/>
<path d="M28.1815 59.1704C28.1597 59.1775 28.1371 59.182 28.1143 59.1839H27.2743C27.5909 59.5648 27.8014 60.0226 27.8843 60.511C27.9672 60.9994 27.9196 61.501 27.7464 61.9651C27.5732 62.4292 27.2804 62.8393 26.8978 63.1539C26.5152 63.4686 26.0562 63.6765 25.5674 63.7568C26.1352 63.8522 26.7186 63.7709 27.2388 63.5241C27.759 63.2773 28.1908 62.8767 28.4761 62.3766C28.7613 61.8765 28.8862 61.3008 28.8338 60.7274C28.7814 60.1541 28.5543 59.6106 28.1831 59.1704H28.1815Z" fill="#AA9BE0"/>
</g>
<path d="M27.4759 58.6093H24.5762C24.5762 58.3865 24.6647 58.1728 24.8222 58.0153C24.9797 57.8578 25.1934 57.7693 25.4162 57.7693H26.6258C26.8486 57.7693 27.0622 57.8578 27.2197 58.0153C27.3773 58.1728 27.4658 58.3865 27.4658 58.6093H27.4759Z" fill="#BDB7E4"/>
<path d="M28.1159 58.312H23.9378C23.7828 58.312 23.6572 58.4376 23.6572 58.5926V58.9017C23.6572 59.0566 23.7828 59.1823 23.9378 59.1823H28.1159C28.2709 59.1823 28.3965 59.0566 28.3965 58.9017V58.5926C28.3965 58.4376 28.2709 58.312 28.1159 58.312Z" fill="#9AA4C3"/>
<path d="M30.386 78.2048H31.4175C31.4402 78.2048 31.462 78.2139 31.4781 78.2299C31.4941 78.246 31.5032 78.2678 31.5032 78.2905V78.5308H30.3003V78.2905C30.3003 78.2678 30.3093 78.246 30.3254 78.2299C30.3415 78.2139 30.3632 78.2048 30.386 78.2048Z" fill="#8270CE"/>
<path d="M30.5486 78.4502H31.2542C31.4561 78.4502 31.6497 78.5304 31.7924 78.6731C31.9351 78.8158 32.0153 79.0094 32.0153 79.2112V88.72H29.7876V79.2112C29.7876 79.0094 29.8678 78.8158 30.0105 78.6731C30.1532 78.5304 30.3468 78.4502 30.5486 78.4502Z" fill="#6F5BBC"/>
<path d="M31.2544 78.4502H30.5454C30.7464 78.4515 30.9387 78.5323 31.0803 78.6749C31.2219 78.8175 31.3014 79.0103 31.3014 79.2112V88.72H32.0171V79.2112C32.0171 79.1112 31.9973 79.0121 31.959 78.9196C31.9206 78.8272 31.8644 78.7432 31.7936 78.6725C31.7227 78.6018 31.6387 78.5458 31.5461 78.5076C31.4536 78.4695 31.3545 78.45 31.2544 78.4502Z" fill="#8270CE"/>
<path d="M32.7462 88.5806H29.0569C28.9567 88.5806 28.8755 88.6618 28.8755 88.762C28.8755 88.8622 28.9567 88.9434 29.0569 88.9434H32.7462C32.8464 88.9434 32.9276 88.8622 32.9276 88.762C32.9276 88.6618 32.8464 88.5806 32.7462 88.5806Z" fill="#6F5BBC"/>
<path d="M81.7805 83.6312C81.7314 83.7591 81.6609 83.8778 81.5722 83.9823C81.4273 84.081 81.2608 84.1433 81.0867 84.1637C80.5993 84.282 80.1049 84.3695 79.6066 84.4258C78.612 84.5381 77.6071 84.5235 76.6162 84.3821C76.4022 84.3678 76.1959 84.2971 76.0181 84.1772C75.8031 84.0092 75.7258 83.7168 75.672 83.448C75.6438 83.3166 75.6231 83.1837 75.6099 83.0499C75.5949 82.8967 75.6029 82.7421 75.6334 82.5912C75.6573 82.4486 75.7177 82.3146 75.8087 82.2022C75.8996 82.0898 76.018 82.0027 76.1525 81.9495C76.0304 81.8524 75.9422 81.7192 75.9004 81.569C75.8586 81.4187 75.8655 81.2591 75.9199 81.1129C75.9743 80.9668 76.0736 80.8416 76.2035 80.7553C76.3334 80.669 76.4872 80.6259 76.6431 80.6324C76.5954 80.1802 76.6394 79.7231 76.7724 79.2884C76.8401 79.0708 76.9502 78.8688 77.0964 78.694C77.2426 78.5193 77.422 78.3753 77.6242 78.2703C78.2223 77.9847 78.9883 78.1913 79.4335 78.6819C79.6482 78.9358 79.801 79.2361 79.88 79.5591C79.959 79.8821 79.962 80.219 79.8888 80.5433C79.9681 80.5519 80.0447 80.5768 80.1138 80.6164C80.1829 80.6561 80.2431 80.7097 80.2905 80.7738C80.3378 80.8379 80.3714 80.9111 80.389 80.9889C80.4066 81.0666 80.4079 81.1471 80.3928 81.2254C80.5312 81.2272 80.6687 81.2487 80.8011 81.2892C81.0323 81.3558 81.2462 81.4721 81.4279 81.63C81.6095 81.7878 81.7545 81.9835 81.8527 82.2032C81.9456 82.4321 81.9872 82.6785 81.9747 82.9252C81.9622 83.1718 81.8959 83.4128 81.7805 83.6312Z" fill="#7A67D2"/>
<path d="M81.7805 83.6314C81.7314 83.7593 81.6609 83.8781 81.5722 83.9825C81.4273 84.0812 81.2608 84.1435 81.0867 84.1639C80.5993 84.2822 80.1049 84.3698 79.6066 84.426C78.612 84.5384 77.6071 84.5237 76.6162 84.3823C76.4022 84.368 76.1959 84.2973 76.0181 84.1774C75.8031 84.0094 75.7258 83.7171 75.672 83.4483C75.6438 83.3168 75.6231 83.1839 75.6099 83.0501C77.0192 83.0791 78.4207 82.8332 79.7359 82.326C80.0822 82.2199 80.3925 82.0205 80.6331 81.7498C80.7322 81.6138 80.7905 81.4524 80.8011 81.2844C81.0323 81.351 81.2462 81.4673 81.4279 81.6252C81.6095 81.783 81.7545 81.9786 81.8527 82.1983C81.9463 82.4279 81.9884 82.6753 81.9759 82.9229C81.9634 83.1705 81.8967 83.4124 81.7805 83.6314Z" fill="#5A51C5"/>
<path d="M81.7902 84.4075L81.6525 85.3752L81.1367 89.009H76.5386L76.0245 85.3752L75.8867 84.4075H81.7902Z" fill="#DDDCEE"/>
<g style="mix-blend-mode:multiply">
<path d="M81.7902 84.4075L81.6525 85.3752H76.0245L75.8867 84.4075H81.7902Z" fill="#DDDCEE"/>
</g>
<path d="M81.9619 84.9903H75.7156L75.5493 83.4094H82.1265L81.9619 84.9903Z" fill="#DDDCEE"/>
<g style="mix-blend-mode:overlay" opacity="0.3">
<path d="M77.8073 79.9338C77.8073 80.1925 77.6645 80.4025 77.4881 80.4025C77.3117 80.4025 77.1689 80.1925 77.1689 79.9338C77.1689 79.6751 77.3117 79.4651 77.4881 79.4651C77.6645 79.4651 77.8073 79.6751 77.8073 79.9338Z" fill="white"/>
<path d="M78.4439 80.488C78.4439 80.6208 78.3717 80.7283 78.2759 80.7283C78.1802 80.7283 78.1079 80.6208 78.1079 80.488C78.1079 80.3553 78.1818 80.2478 78.2759 80.2478C78.37 80.2478 78.4439 80.357 78.4439 80.488Z" fill="white"/>
<path d="M77.2261 80.9131C77.2261 81.0458 77.1522 81.1533 77.0581 81.1533C76.9641 81.1533 76.8901 81.0458 76.8901 80.9131C76.8901 80.7804 76.9641 80.6729 77.0581 80.6729C77.1522 80.6729 77.2261 80.7804 77.2261 80.9131Z" fill="white"/>
<path d="M78.365 79.1441C78.365 79.213 78.328 79.2684 78.281 79.2684C78.234 79.2684 78.1953 79.213 78.1953 79.1441C78.1953 79.0752 78.234 79.0198 78.281 79.0198C78.328 79.0198 78.365 79.0685 78.365 79.1441Z" fill="white"/>
</g>
<path d="M35.5939 82.9239C35.5882 83.3446 35.5103 83.7611 35.3637 84.1554C35.2831 84.3704 35.1806 84.7215 34.9521 84.8274C34.6598 84.9651 34.2583 84.9803 33.9441 85.0256C33.1655 85.1383 32.3786 85.1838 31.5921 85.1617H31.4241C31.0189 85.1673 30.6209 85.0533 30.28 84.8341C30.2147 84.7835 30.154 84.7273 30.0986 84.6661C29.8814 84.408 29.72 84.1077 29.6248 83.7841C29.5478 83.5768 29.4916 83.3624 29.4568 83.144C29.4189 82.9173 29.4275 82.6852 29.482 82.4619C29.598 82.0268 29.9978 81.6387 30.4464 81.6774C30.2806 81.5424 30.1745 81.3476 30.1511 81.1352C30.1276 80.9227 30.1885 80.7095 30.3207 80.5415C30.453 80.3736 30.6459 80.2643 30.858 80.2373C31.0701 80.2103 31.2842 80.2678 31.4544 80.3972C31.3863 80.0751 31.4341 79.7392 31.5893 79.4488C31.7444 79.1584 31.997 78.932 32.3026 78.8094C32.6081 78.6868 32.9472 78.6758 33.26 78.7785C33.5729 78.8812 33.8395 79.0909 34.013 79.3707C34.2586 79.8222 34.3153 80.3526 34.1709 80.8458C34.2476 80.8312 34.3268 80.8395 34.3988 80.8695C34.4709 80.8996 34.5324 80.9502 34.5759 81.015C34.6194 81.0798 34.6429 81.1559 34.6435 81.234C34.6441 81.312 34.6217 81.3885 34.5792 81.4539C34.7324 81.4556 34.8823 81.4992 35.0126 81.5799C35.1654 81.6741 35.2919 81.8053 35.3805 81.9613C35.536 82.2575 35.6097 82.5898 35.5939 82.9239Z" fill="#7A67D2"/>
<g style="mix-blend-mode:multiply">
<path d="M35.5938 82.9239C35.5881 83.3445 35.5103 83.761 35.3637 84.1553C35.283 84.3704 35.1805 84.7215 34.9521 84.8273C34.6597 84.9651 34.2582 84.9802 33.9441 85.0256C33.1654 85.1382 32.3785 85.1837 31.5921 85.1617H31.4241C30.9623 85.0719 30.5188 84.9055 30.112 84.6694C29.8947 84.4114 29.7334 84.111 29.6382 83.7874C29.5612 83.5801 29.5049 83.3657 29.4702 83.1473C30.6681 83.4833 31.9701 83.4212 33.1998 83.1809C33.6702 83.0885 34.1541 82.9642 34.5237 82.6585C34.7114 82.5059 34.8537 82.3049 34.9353 82.0772C34.9907 81.9226 34.9655 81.7412 35.0243 81.5833C35.1771 81.6774 35.3036 81.8086 35.3922 81.9646C35.5431 82.2609 35.6126 82.5919 35.5938 82.9239Z" fill="#AEA7E0"/>
</g>
<path d="M35.2311 84.7249L35.1051 85.6136L34.6313 88.9534H30.4061L29.9324 85.6136L29.8047 84.7249H35.2311Z" fill="#DDDCEE"/>
<g style="mix-blend-mode:multiply">
<path d="M35.2311 84.7249L35.1051 85.6136H29.9324L29.8047 84.7249H35.2311Z" fill="#DDDCEE"/>
</g>
<path d="M35.389 85.2591H29.6485L29.4956 83.8076H35.5402L35.389 85.2591Z" fill="#DDDCEE"/>
<g style="mix-blend-mode:overlay" opacity="0.3">
<path d="M32.5311 80.6125C32.5311 80.851 32.4001 81.0442 32.2388 81.0442C32.0775 81.0442 31.9448 80.851 31.9448 80.6125C31.9448 80.3739 32.0759 80.1824 32.2388 80.1824C32.4018 80.1824 32.5311 80.3756 32.5311 80.6125Z" fill="white"/>
<path d="M33.1173 81.1248C33.1173 81.2458 33.0501 81.3449 32.9661 81.3449C32.8821 81.3449 32.8149 81.2458 32.8149 81.1248C32.8149 81.0039 32.8838 80.9031 32.9661 80.9031C33.0485 80.9031 33.1173 81.0022 33.1173 81.1248Z" fill="white"/>
<path d="M30.9182 81.36C31.0369 81.36 31.1332 81.2185 31.1332 81.0441C31.1332 80.8697 31.0369 80.7283 30.9182 80.7283C30.7994 80.7283 30.7031 80.8697 30.7031 81.0441C30.7031 81.2185 30.7994 81.36 30.9182 81.36Z" fill="white"/>
<path d="M31.9967 81.5128C31.9967 81.6354 31.9295 81.7345 31.8455 81.7345C31.7615 81.7345 31.6943 81.6354 31.6943 81.5128C31.6943 81.3901 31.7632 81.291 31.8455 81.291C31.9279 81.291 31.9967 81.3901 31.9967 81.5128Z" fill="white"/>
<path d="M33.072 79.8816C33.072 79.9673 33.025 80.0362 32.9662 80.0362C32.9074 80.0362 32.8604 79.9673 32.8604 79.8816C32.8604 79.7959 32.9074 79.7271 32.9662 79.7271C33.025 79.7271 33.072 79.7959 33.072 79.8816Z" fill="white"/>
</g>
</svg>
