<svg xmlns="http://www.w3.org/2000/svg" width="116" height="116" fill="none"><path fill="#F5EFE2" d="M0 0h116v116H0z"/><path fill="#F1E4C9" d="M109.236 64.942c-2.737-4.81-5.883-9.504-7.696-14.394-2.039-5.519-2.39-11.323-4.104-16.9-1.521-4.94-3.855-9.73-7.432-13.513s-8.489-6.525-13.747-6.886c-7.122-.49-13.902 3.347-18.978 8.273-2.67 2.591-5.006 5.485-7.651 8.098-2.566 2.536-5.494 4.253-8.452 6.23-6.276 4.195-14.518 4.629-21.39 7.525-8.329 3.511-15.067 10.478-18.188 18.812-1.664 4.434-2.286 9.522-.238 13.797 3.22 6.728 11.84 9.221 19.423 8.935 7.584-.287 15.042-2.58 22.62-2.2 7.004.354 13.663 2.967 19.986 5.925s12.503 6.308 19.205 8.31c6.701 2 14.136 2.557 20.599-.095 5.34-2.19 9.881-6.95 10.952-12.618 1.33-7.028-1.466-13.255-4.909-19.299"/><path fill="#F6E0D1" d="M101.513 46.376c-.16-1.08-.06-2.274.724-3.103a3.76 3.76 0 0 1 2.247-1.059 7.6 7.6 0 0 1 2.576.17 9.8 9.8 0 0 1 3.72 1.569 5.48 5.48 0 0 1 2.147 3.058 3.82 3.82 0 0 1-.893 3.473c-.765.816-1.904 1.295-3.068 1.527-1.234.242-3.217.615-4.248-.198a8.96 8.96 0 0 1-2.575-3.312 8 8 0 0 1-.63-2.125"/><path fill="#F1E4C9" d="M20.332 39.722c-2.517.936-5.333 1.4-7.898.572a7.62 7.62 0 0 1-4.17-3.233 6.5 6.5 0 0 1-.703-5.173 5.7 5.7 0 0 1 1.34-2.301 5.75 5.75 0 0 1 2.239-1.45c1.552-.52 3.241-.301 4.88-.271a20 20 0 0 0 8.966-1.98c.902-.437 1.8-.95 2.795-1.072a3.83 3.83 0 0 1 2.203.429c.675.36 1.225.914 1.58 1.59 1.11 2.21-.523 4.589-1.907 6.252a22.4 22.4 0 0 1-5.578 4.82 22 22 0 0 1-3.747 1.817"/><path fill="#DBBC78" d="M81.184 80.515c.853.457 1.885.504 2.824.273a6.2 6.2 0 0 0 1.527-.628c.403-.228.84-.727 1.312-.643 1.106.195 2.184.395 3.322.258 1.226-.147 2.454-.705 3.166-1.715q.229-.328.382-.697c.25-.63.386-1.299.403-1.976.044-.93-.066-1.903-.555-2.688-.488-.784-1.426-1.359-2.352-1.194a2.24 2.24 0 0 0-1.343-3.574 12 12 0 0 0-.26-2.352 4 4 0 0 0-1.135-2.037 3.32 3.32 0 0 0-3.162-.627 4.08 4.08 0 0 0-2.417 2.206 5.34 5.34 0 0 0-.32 3.3 2.885 2.885 0 0 0-1.419 4.587 7 7 0 0 0-.61.708c-.695.915-1.176 1.992-1.248 3.131-.077 1.445.608 2.982 1.885 3.668"/><path fill="#CFAD65" d="M81.184 80.515c.853.457 1.885.504 2.824.274a6.2 6.2 0 0 0 1.527-.629c.403-.228.84-.727 1.312-.643 1.106.195 2.184.395 3.322.259 1.226-.148 2.454-.706 3.166-1.716a3.7 3.7 0 0 0 .382-.697 5.44 5.44 0 0 1-6.957-.672 5.66 5.66 0 0 1-4.61-1.018 5.6 5.6 0 0 1-1.596-1.954c-.695.916-1.176 1.993-1.248 3.132-.084 1.441.601 2.978 1.878 3.664"/><path fill="#C09A47" d="M84.06 74.43a.037.037 0 0 1 .064.003.04.04 0 0 1 .002.027 2.43 2.43 0 0 0-.032 1.32q.076.31.243.585.16.27.387.486.057.051.116.1t.124.088q.127.082.266.143c.088.044.18.079.27.118l.28.115q.188.075.39.145l.03-.748.034-1.186V74.44a68 68 0 0 0-.185-4.772.09.09 0 0 1 .103-.096.1.1 0 0 1 .06.036.1.1 0 0 1 .015.032 41 41 0 0 1 .726 3.543l.046-.044q.11-.107.247-.178.139-.066.257-.168.115-.098.204-.22.099-.122.169-.264c.1-.198.146-.42.132-.642a.04.04 0 0 1 .019-.035.037.037 0 0 1 .05.014c.127.23.178.493.146.754a1.8 1.8 0 0 1-.089.393q-.073.194-.185.368a4 4 0 0 1-.238.336.86.86 0 0 1-.323.244 1.3 1.3 0 0 1-.336.09l.078.541.142 1.202.128 1.22.076 1.21.047 1.213c0 .405.02.81.037 1.217l.025 1.22c0 .404-.019.81-.049 1.216s-.094.808-.168 1.208l-.12.598q-.065.3-.134.596c-.104.395-.213.788-.336 1.176-.122.388-.27.773-.425 1.154q-.243.574-.546 1.12a.1.1 0 0 1-.07.046.096.096 0 0 1-.106-.082 12 12 0 0 1-.087-1.23 26 26 0 0 1-.02-1.206c.004-.398 0-.796.015-1.191 0-.198.01-.395.013-.593l.029-.588q.018-.59.08-1.176c.042-.392.08-.78.14-1.176l.16-1.176c.043-.392.085-.783.115-1.176l.064-1.022a2.5 2.5 0 0 1-.563-.047 1.8 1.8 0 0 1-.722-.317 3 3 0 0 1-.561-.553 2.7 2.7 0 0 1-.392-.663 2.5 2.5 0 0 1-.168-.74c-.034-.489.08-.977.326-1.4"/><path fill="#fff" d="M89.08 69.645c0 .375.2.672.448.672.25 0 .45-.302.45-.672s-.2-.672-.45-.672c-.248 0-.448.297-.448.672m-3.23-2.597c.247 0 .448-.303.448-.677s-.201-.677-.449-.677c-.247 0-.448.303-.448.677s.2.677.448.677m1.966-1.128c.141 0 .255-.171.255-.384 0-.212-.114-.385-.255-.385s-.255.173-.255.385.114.385.255.385M85.4 68.644c0 .212.115.385.254.385.14 0 .256-.168.256-.385s-.114-.385-.256-.385c-.14 0-.253.172-.253.385m3.031-1.22c0 .146.078.264.168.264.089 0 .168-.118.168-.264s-.08-.262-.168-.262c-.09 0-.168.118-.168.262" opacity=".3" style="mix-blend-mode:overlay"/><path fill="#DBBC78" d="M90.8 88.03a1.11 1.11 0 0 0-.944-.219c.308-.558.61-1.139.672-1.772.062-.634-.178-1.344-.73-1.65-.589-.336-1.37-.126-1.865.336-.496.462-.753 1.119-.928 1.77a.682.682 0 0 0-1.344-.087 3.7 3.7 0 0 0-.495-1.048 1.25 1.25 0 0 0-.985-.534c-.463.015-.858.393-1.008.831a2.5 2.5 0 0 0-.01 1.373.79.79 0 0 0-.853-.32c.011-.574.02-1.175-.209-1.698s-.76-.97-1.332-.902c-.571.069-.947.564-1.16 1.077a3.55 3.55 0 0 0-.02 2.627 1.07 1.07 0 0 0-1.237 0 1.01 1.01 0 0 0-.36 1.143h13.257a1.23 1.23 0 0 0-.449-.927"/><path fill="#DBBC78" d="M89.231 88.478a.57.57 0 0 0-.485-.112c.175-.278.293-.588.344-.913a.88.88 0 0 0-.376-.84.84.84 0 0 0-.96.168c-.24.254-.404.57-.475.91a.351.351 0 0 0-.694-.043 1.9 1.9 0 0 0-.253-.54.63.63 0 0 0-.504-.275.61.61 0 0 0-.521.427 1.3 1.3 0 0 0 0 .707.41.41 0 0 0-.439-.168 2.1 2.1 0 0 0-.107-.873.71.71 0 0 0-.686-.464c-.284.034-.489.29-.596.553-.177.433-.18.917-.01 1.352a.55.55 0 0 0-.637 0 .52.52 0 0 0-.186.588h6.82a.63.63 0 0 0-.235-.477" style="mix-blend-mode:multiply"/><path fill="#DBBC78" d="M22.312 88.03a1.11 1.11 0 0 1 .944-.219c-.308-.558-.61-1.139-.672-1.772-.062-.634.178-1.344.73-1.65.589-.336 1.37-.126 1.866.336.495.462.752 1.119.927 1.77a.682.682 0 0 1 1.344-.087c.109-.373.276-.727.495-1.048a1.25 1.25 0 0 1 .99-.538c.464.015.858.393 1.008.832.13.448.134.923.01 1.373a.79.79 0 0 1 .854-.32c-.012-.574-.02-1.176.208-1.698.228-.523.76-.971 1.332-.902.571.069.948.564 1.16 1.076a3.55 3.55 0 0 1 .02 2.628 1.07 1.07 0 0 1 1.238 0 1.01 1.01 0 0 1 .36 1.142H21.867a1.23 1.23 0 0 1 .444-.924"/><path fill="#DBBC78" d="M23.88 88.478a.57.57 0 0 1 .486-.112 2.4 2.4 0 0 1-.336-.913.88.88 0 0 1 .377-.84.84.84 0 0 1 .959.168c.24.254.405.57.475.91a.351.351 0 0 1 .694-.043 1.9 1.9 0 0 1 .254-.54.63.63 0 0 1 .504-.275.61.61 0 0 1 .52.427c.066.231.066.476 0 .707a.41.41 0 0 1 .44-.168c-.027-.295.01-.593.107-.873a.71.71 0 0 1 .685-.464c.282.034.489.29.596.553.177.433.18.917.01 1.352a.55.55 0 0 1 .637 0 .52.52 0 0 1 .185.588h-6.821a.63.63 0 0 1 .229-.477" style="mix-blend-mode:multiply"/><path fill="#DBBC78" d="M41.277 79.546c-.88 1.06-2.288 1.574-3.664 1.644-1.15.059-2.291-.16-3.4-.447-.203-.053-.49-.201-.699-.198s-.526.19-.743.274q-.78.306-1.589.526a8.7 8.7 0 0 1-1.8.29c-1.106.052-2.266-.193-3.178-.798a3.717 3.717 0 0 1 1.7-6.822 6.065 6.065 0 1 1 10.047-2.108c.55-.256 1.246-.316 1.722.057.475.373.492 1.263-.06 1.512q.37.13.705.336a3.835 3.835 0 0 1 .96 5.735z"/><path fill="#CFAD65" d="M41.277 79.546c-.88 1.06-2.288 1.574-3.664 1.644-1.15.06-2.291-.16-3.4-.446-.203-.054-.49-.202-.699-.199s-.526.19-.742.274q-.78.306-1.59.526a8.7 8.7 0 0 1-1.8.29c-1.106.053-2.265-.193-3.178-.797a12 12 0 0 0 2.247-.126c1.947-.306 3.885-1.285 4.871-2.99 1.108.109 2.23.2 3.33.031 1.1-.17 2.196-.625 2.93-1.465a3.22 3.22 0 0 0 .807-1.895 3.4 3.4 0 0 0-.071-.588 3.835 3.835 0 0 1 .96 5.736z"/><path fill="#C09A47" d="M35.772 75.255a.035.035 0 0 0-.039-.015.035.035 0 0 0-.022.042c.12.39.13.805.03 1.2a2 2 0 0 1-.223.533 2 2 0 0 1-.35.442c-.035.034-.072.062-.107.093a1.8 1.8 0 0 1-.355.21c-.08.038-.167.072-.246.107l-.255.106q-.17.068-.355.131l-.027-.68-.03-1.08V75.26c0-1.444.067-2.89.168-4.344a.08.08 0 0 0-.062-.086.08.08 0 0 0-.1.06 37 37 0 0 0-.661 3.226l-.04-.04a.9.9 0 0 0-.226-.168 1 1 0 0 1-.24-.141 1.3 1.3 0 0 1-.186-.202 1.2 1.2 0 0 1-.152-.24 1.14 1.14 0 0 1-.12-.583.03.03 0 0 0-.017-.03.03.03 0 0 0-.026-.004.03.03 0 0 0-.02.016 1.15 1.15 0 0 0-.134.687q.021.183.082.358.066.176.168.336.1.16.219.307a.8.8 0 0 0 .292.222q.145.063.302.082-.04.248-.07.494l-.131 1.094-.106 1.098-.067 1.102-.044 1.104c0 .368-.019.738-.034 1.107l-.023 1.11q.002.555.045 1.11c.029.37.086.734.146 1.098l.11.546c.041.18.078.362.122.541q.14.54.304 1.072c.111.355.247.704.388 1.05q.225.524.504 1.02a.1.1 0 0 0 .064.042.084.084 0 0 0 .096-.074q.068-.558.08-1.12.024-.555.019-1.098c-.003-.36 0-.725-.013-1.085 0-.18-.01-.36-.014-.54l-.025-.535a16 16 0 0 0-.074-1.07 25 25 0 0 0-.126-1.064l-.146-1.066a38 38 0 0 1-.106-1.07l-.059-.931q.255.007.504-.044a1.65 1.65 0 0 0 .659-.287q.284-.22.504-.504.221-.276.356-.605c.084-.215.136-.442.153-.672a2.2 2.2 0 0 0-.284-1.285"/><path fill="#fff" d="M30.065 69.857c0 .537-.336.972-.75.972-.413 0-.749-.435-.749-.972 0-.538.336-.971.75-.971.413 0 .749.435.749.97m1.165-3.203c.271 0 .491-.286.491-.638s-.22-.639-.492-.639-.492.286-.492.639c0 .352.22.638.492.638m1.321.973a.276.276 0 1 1-.266-.344.31.31 0 0 1 .266.344m-4.026 3.911a.276.276 0 1 1-.26-.346.313.313 0 0 1 .26.346m.382-4.256a.15.15 0 0 1-.293-.024.15.15 0 0 1 .148-.164.17.17 0 0 1 .145.188m3.449-1.264c.163 0 .295-.173.295-.385s-.132-.385-.295-.385-.296.172-.296.385c0 .212.133.384.296.384" opacity=".3" style="mix-blend-mode:overlay"/><path fill="#DBBC78" d="M78.296 37.354H35.305v9.295h42.991z"/><path fill="#DBBC78" d="M78.296 37.354H35.305v.771h42.991z" style="mix-blend-mode:multiply"/><path fill="#DBBC78" d="M77.985 34.208H35.614v2.18h42.371z"/><path fill="#DBBC78" d="M77.985 34.208H35.614v.41h42.371z" style="mix-blend-mode:multiply"/><path fill="#B48F4B" d="M78.817 35.94H34.782a.23.23 0 0 0-.228.23v1.276c0 .126.102.229.228.229h44.035a.23.23 0 0 0 .228-.229V36.17a.23.23 0 0 0-.228-.228m.018-3.433H34.764a.21.21 0 0 0-.21.21v1.313c0 .117.094.21.21.21h44.071a.21.21 0 0 0 .21-.21V32.72a.21.21 0 0 0-.21-.21"/><path fill="#DBBC78" d="M78.294 58.403H36.111v30.54h42.183z"/><path fill="#C7A355" d="M78.592 84.36H35.816a.247.247 0 0 0-.247.247v4.091c0 .137.11.247.247.247h42.776c.136 0 .247-.11.247-.247v-4.09a.247.247 0 0 0-.247-.248"/><path fill="#D2C29F" d="M78.294 58.403v3.951h-.109a1.79 1.79 0 0 1-1.786-1.789 1.787 1.787 0 0 1-1.787 1.79h-.484a1.79 1.79 0 0 1-1.787-1.79 1.787 1.787 0 0 1-1.786 1.79h-.484a1.79 1.79 0 0 1-1.79-1.79 1.787 1.787 0 0 1-1.785 1.79h-.482a1.79 1.79 0 0 1-1.786-1.79 1.787 1.787 0 0 1-1.788 1.79h-.482a1.79 1.79 0 0 1-1.787-1.79 1.79 1.79 0 0 1-1.786 1.79H57.9a1.79 1.79 0 0 1-1.786-1.79 1.79 1.79 0 0 1-1.787 1.79h-.483a1.79 1.79 0 0 1-1.789-1.79 1.787 1.787 0 0 1-1.784 1.79h-.482a1.79 1.79 0 0 1-1.788-1.79 1.787 1.787 0 0 1-1.785 1.79h-.481a1.79 1.79 0 0 1-1.786-1.79 1.787 1.787 0 0 1-1.787 1.79h-.482a1.79 1.79 0 0 1-1.788-1.79 1.79 1.79 0 0 1-1.786 1.79h-.484a1.79 1.79 0 0 1-1.512-.827v-3.125z" style="mix-blend-mode:multiply"/><path fill="#E09764" d="M48.852 64.389H38.255v21.677h10.597z"/><path fill="#F2F1D0" d="M48.275 64.966h-9.442V85.49h9.442z"/><path fill="#fff" d="M48.275 64.966v.832l-5.467 19.69h-2l5.7-20.522z" opacity=".5" style="mix-blend-mode:overlay"/><path fill="#E09764" d="M48.274 75.436h-1.461a.209.209 0 0 1 0-.417h1.461zM76.15 64.389H50.427v14.066h25.725z"/><path fill="#F2F1D0" d="M75.477 64.965H51.102v12.91h24.375z"/><path fill="#fff" d="m60.878 64.965-3.39 12.91h-1.096l3.389-12.91zm9.263 0-3.388 12.91h-1.099l3.392-12.91z" opacity=".5" style="mix-blend-mode:overlay"/><path fill="#B55134" d="M50.49 87.438H36.617v1.505H50.49z"/><path fill="#CE6F54" d="M50.49 87.438H36.617l.615-.36h12.644z"/><path fill="#B55134" d="M49.476 86.225H37.632v.852h11.844z"/><path fill="#CE6F54" d="M49.476 86.225H37.632l.526-.203H48.95z"/><path fill="#F2F1D0" d="M35.438 57.677h-3.959l1.98-10.604h3.653z"/><path fill="#CE6F54" d="M39.396 57.677h-3.958l1.675-10.604h3.652z"/><path fill="#F2F1D0" d="M43.352 57.677h-3.956l1.369-10.604h3.652z"/><path fill="#CE6F54" d="M47.31 57.677h-3.958l1.065-10.604h3.654z"/><path fill="#F2F1D0" d="M51.267 57.677H47.31l.761-10.604h3.653z"/><path fill="#CE6F54" d="M55.225 57.677h-3.958l.457-10.604h3.652z"/><path fill="#F2F1D0" d="M59.183 57.677h-3.958l.15-10.604h3.655z"/><path fill="#CE6F54" d="M63.14 57.677h-3.957l-.153-10.604h3.652z"/><path fill="#F2F1D0" d="M67.097 57.677H63.14l-.457-10.604h3.654z"/><path fill="#CE6F54" d="M71.054 57.677h-3.957l-.76-10.604h3.651z"/><path fill="#F2F1D0" d="M75.012 57.677h-3.958l-1.065-10.604h3.652z"/><path fill="#CE6F54" d="M78.968 57.677h-3.956L73.64 47.073h3.654z"/><path fill="#F2F1D0" d="M82.926 57.677h-3.958l-1.673-10.604h3.652z"/><path fill="#E5D995" d="M31.481 57.677h3.957v1.651a1.68 1.68 0 0 1-1.68 1.68h-.588a1.68 1.68 0 0 1-1.68-1.68v-1.651z"/><path fill="#B55134" d="M35.438 57.677h3.958v1.651a1.68 1.68 0 0 1-1.68 1.68h-.588a1.68 1.68 0 0 1-1.68-1.68v-1.651z"/><path fill="#E5D995" d="M39.396 57.677h3.958v1.651a1.68 1.68 0 0 1-1.68 1.68h-.588a1.68 1.68 0 0 1-1.68-1.68v-1.651z"/><path fill="#B55134" d="M43.352 57.677h3.958v1.651a1.68 1.68 0 0 1-1.68 1.68h-.588a1.68 1.68 0 0 1-1.68-1.68v-1.651z"/><path fill="#E5D995" d="M47.31 57.677h3.958v1.651a1.68 1.68 0 0 1-1.68 1.68H49a1.68 1.68 0 0 1-1.68-1.68v-1.651z"/><path fill="#B55134" d="M51.267 57.677h3.958v1.651a1.68 1.68 0 0 1-1.68 1.68h-.588a1.68 1.68 0 0 1-1.68-1.68v-1.651z"/><path fill="#E5D995" d="M55.225 57.677h3.951v1.651a1.68 1.68 0 0 1-1.68 1.68h-.588a1.68 1.68 0 0 1-1.68-1.68v-1.651z"/><path fill="#B55134" d="M59.176 57.677h3.958v1.651a1.68 1.68 0 0 1-1.68 1.68h-.588a1.68 1.68 0 0 1-1.68-1.68v-1.651z"/><path fill="#E5D995" d="M63.14 57.677h3.957v1.651a1.68 1.68 0 0 1-1.68 1.68h-.588a1.68 1.68 0 0 1-1.68-1.68v-1.651z"/><path fill="#B55134" d="M67.097 57.677h3.957v1.651a1.68 1.68 0 0 1-1.68 1.68h-.588a1.68 1.68 0 0 1-1.68-1.68v-1.651z"/><path fill="#E5D995" d="M71.054 57.677h3.958v1.651a1.68 1.68 0 0 1-1.68 1.68h-.588a1.68 1.68 0 0 1-1.68-1.68v-1.651zm7.914 0h3.958v1.651a1.68 1.68 0 0 1-1.68 1.68h-.588a1.68 1.68 0 0 1-1.68-1.68v-1.651z"/><path fill="#B55134" d="M75.012 57.677h3.958v1.651a1.68 1.68 0 0 1-1.68 1.68h-.588a1.68 1.68 0 0 1-1.68-1.68v-1.651z"/><path fill="#F2F1D0" d="M82.926 57.677H31.48l.028-.15c8.333-.127 16.698-.38 24.864-2.044a62.4 62.4 0 0 0 8.53-2.352c4.157-1.485 8.16-3.47 11.744-6.048h4.31z" style="mix-blend-mode:multiply"/><path fill="#CE6F54" d="M80.964 47.256H33.442a.432.432 0 0 1-.307-.741.43.43 0 0 1 .307-.128h47.522a.435.435 0 1 1 0 .869"/><path fill="#E09764" d="M77.112 39.2H36.965v5.601h40.147z"/><path fill="#F2F1D0" d="M76.534 39.713H37.543v4.576h38.99z"/><path fill="#F2F1D0" d="M37.543 39.713v.33h38.66v4.246h.33v-4.576z" style="mix-blend-mode:multiply"/><path fill="#fff" d="m57.656 39.713-2.312 4.576h-1.793l2.312-4.576zm7.946 0-2.308 4.576h-.827l2.312-4.576z" opacity=".5" style="mix-blend-mode:overlay"/><path fill="#DBBC78" d="M73.78 80.522h-3.454v1.214h3.454zm-2.874 1.901h-3.454v1.215h3.454zm-6.286-3.277h-3.453v1.214h3.454zm-26.782-9.477h-1.727v1.215h1.727zm.417 7.157h-1.4v1.214h1.4zm40.039-14.179h-1.911v1.214h1.911z" style="mix-blend-mode:multiply"/><path fill="#F9A66A" d="M74.548 85.446h-1.862v.675h1.862zm-6.166 1.322h-1.861v.674h1.861zm-1.181-.904H65.34v.673h1.861zm-3.264.998h-1.861v.674h1.861zm-12.516-2.048H49.56v.674h1.861z" style="mix-blend-mode:multiply"/><path fill="#B55134" d="M31.187 78.422h-.571v-21.47a2.15 2.15 0 1 0-4.3 0v.964h-.572v-.963a2.72 2.72 0 0 1 5.44 0z"/><path fill="#CE6F54" d="M28.795 54.802h-.168a2.15 2.15 0 0 1 1.989 2.15v21.47h.336v-21.47a2.154 2.154 0 0 0-2.157-2.15"/><path fill="#F9A66A" d="M28.182 59.17a.3.3 0 0 1-.067.014h-4.177a.3.3 0 0 1-.067-.014 2.818 2.818 0 1 0 4.31 0"/><path fill="#fff" d="M25.136 62.184a1.3 1.3 0 0 1-.707-.615l.01.027a1 1 0 0 1-.06-.237c0-.08.018-.156.018-.235a.284.284 0 0 0-.207-.28.29.29 0 0 0-.351.198 1.3 1.3 0 0 0 .279 1.097c.233.27.531.474.867.595a.283.283 0 0 0 .35-.199.3.3 0 0 0-.18-.336z" opacity=".3" style="mix-blend-mode:overlay"/><g style="mix-blend-mode:multiply"><path fill="#F2F1D0" d="M23.938 59.184a.3.3 0 0 1-.067-.014l-.012.014z"/><path fill="#F9A66A" d="M28.182 59.17a.3.3 0 0 1-.067.014h-.84a2.812 2.812 0 0 1-1.707 4.573 2.812 2.812 0 0 0 2.615-4.587z"/></g><path fill="#DBBC78" d="M27.476 58.61h-2.9a.84.84 0 0 1 .84-.84h1.21a.84.84 0 0 1 .84.84z"/><path fill="#9AC3B1" d="M28.116 58.312h-4.178a.28.28 0 0 0-.28.28v.31c0 .155.125.28.28.28h4.178a.28.28 0 0 0 .28-.28v-.31a.28.28 0 0 0-.28-.28"/><path fill="#CE6F54" d="M30.386 78.205h1.031a.086.086 0 0 1 .086.086v.24H30.3v-.24a.085.085 0 0 1 .086-.086"/><path fill="#B55134" d="M30.549 78.45h.705a.76.76 0 0 1 .761.761v9.509h-2.227v-9.509a.76.76 0 0 1 .76-.76"/><path fill="#CE6F54" d="M31.254 78.45h-.709a.76.76 0 0 1 .756.761v9.509h.716v-9.509a.76.76 0 0 0-.763-.76"/><path fill="#B55134" d="M32.746 88.58h-3.69a.181.181 0 1 0 0 .363h3.69a.181.181 0 1 0 0-.362"/><path fill="#D2B067" d="M81.78 83.631q-.075.193-.208.352a1.1 1.1 0 0 1-.486.181q-.731.178-1.48.262c-.994.112-1.999.098-2.99-.044a1.2 1.2 0 0 1-.598-.205c-.215-.168-.292-.46-.346-.729a4 4 0 0 1-.062-.398 1.6 1.6 0 0 1 .023-.459.84.84 0 0 1 .52-.641.739.739 0 0 1 .49-1.317 3.4 3.4 0 0 1 .13-1.344 1.72 1.72 0 0 1 .851-1.019c.598-.285 1.364-.078 1.81.412a2.15 2.15 0 0 1 .455 1.862.576.576 0 0 1 .504.682q.209.002.408.064a1.65 1.65 0 0 1 1.052.913 1.7 1.7 0 0 1-.073 1.428"/><path fill="#AA7729" d="M81.78 83.631q-.075.194-.208.351a1.1 1.1 0 0 1-.486.182 11.8 11.8 0 0 1-4.47.218 1.2 1.2 0 0 1-.598-.205c-.215-.168-.292-.46-.346-.729a4 4 0 0 1-.062-.398c1.41.029 2.81-.217 4.126-.724.346-.106.656-.306.897-.576a.9.9 0 0 0 .168-.466 1.65 1.65 0 0 1 1.052.914 1.7 1.7 0 0 1-.073 1.433"/><path fill="#F2F1D0" d="m81.79 84.407-.137.968-.516 3.634h-4.598l-.514-3.634-.138-.968z"/><path fill="#F2F1D0" d="m81.79 84.407-.137.968h-5.628l-.138-.968z" style="mix-blend-mode:multiply"/><path fill="#F2F1D0" d="M81.962 84.99h-6.246l-.167-1.58h6.577z"/><path fill="#fff" d="M77.807 79.934c0 .258-.143.468-.319.468s-.32-.21-.32-.468c0-.26.144-.47.32-.47s.32.21.32.47m.636.554c0 .133-.072.24-.168.24s-.168-.107-.168-.24.074-.24.168-.24.168.109.168.24m-1.218.425c0 .133-.074.24-.168.24s-.168-.107-.168-.24.074-.24.168-.24.168.107.168.24m1.139-1.769c0 .069-.037.124-.084.124s-.086-.055-.086-.124.039-.125.086-.125.084.05.084.125" opacity=".3" style="mix-blend-mode:overlay"/><path fill="#D2B067" d="M35.594 82.924c-.006.42-.084.837-.23 1.232-.08.215-.183.566-.412.672-.292.137-.694.153-1.008.198q-1.17.168-2.352.136h-.168a2.06 2.06 0 0 1-1.144-.328 1.4 1.4 0 0 1-.181-.168 2.4 2.4 0 0 1-.474-.882 3.4 3.4 0 0 1-.168-.64 1.7 1.7 0 0 1 .025-.682c.116-.435.516-.823.964-.784a.814.814 0 0 1 1.008-1.28 1.398 1.398 0 0 1 2.559-1.027c.246.452.302.982.158 1.475a.398.398 0 0 1 .408.608.84.84 0 0 1 .434.126c.152.094.279.225.367.382.156.296.23.628.214.962"/><path fill="#CFAD65" d="M35.594 82.924c-.006.42-.084.837-.23 1.232-.081.215-.183.566-.412.672-.292.137-.694.153-1.008.198q-1.17.168-2.352.136h-.168a4.2 4.2 0 0 1-1.312-.492 2.4 2.4 0 0 1-.474-.882 3.4 3.4 0 0 1-.168-.64c1.198.336 2.5.273 3.73.033.47-.092.954-.216 1.324-.522.187-.153.33-.354.411-.582.056-.154.03-.336.09-.493.152.094.279.225.367.38.151.297.22.628.202.96" style="mix-blend-mode:multiply"/><path fill="#F2F1D0" d="m35.231 84.725-.126.889-.474 3.34h-4.225l-.474-3.34-.127-.889z"/><path fill="#F2F1D0" d="m35.231 84.725-.126.889h-5.173l-.127-.889z" style="mix-blend-mode:multiply"/><path fill="#F2F1D0" d="M35.389 85.26h-5.74l-.154-1.452h6.045z"/><path fill="#fff" d="M32.531 80.612c0 .239-.13.432-.292.432s-.294-.193-.294-.432c0-.238.131-.43.294-.43s.292.193.292.43m.587.513c0 .12-.068.22-.152.22s-.15-.1-.15-.22c0-.121.068-.222.15-.222.083 0 .152.099.152.222m-2.2.235c.12 0 .215-.141.215-.316 0-.174-.096-.316-.215-.316-.118 0-.215.142-.215.316s.097.316.215.316m1.079.153c0 .122-.067.221-.151.221s-.151-.099-.151-.221c0-.123.069-.222.15-.222.083 0 .152.1.152.222m1.075-1.631c0 .085-.047.154-.106.154s-.105-.069-.105-.154c0-.086.047-.155.105-.155.06 0 .106.069.106.155" opacity=".3" style="mix-blend-mode:overlay"/></svg>