<svg width="115" height="90" viewBox="0 0 115 90" fill="none" xmlns="http://www.w3.org/2000/svg">
<path d="M109.236 51.9422C106.499 47.1329 103.353 42.4375 101.54 37.5476C99.501 32.0294 99.1508 26.2249 97.4362 20.6484C95.915 15.7084 93.5813 10.9186 90.0038 7.13506C86.4262 3.35156 81.5151 0.610535 76.2566 0.249142C69.1351 -0.240128 62.3554 3.59619 57.279 8.52225C54.6091 11.1132 52.2726 14.0071 49.628 16.6202C47.0618 19.1555 44.1342 20.8735 41.1758 22.8501C34.9003 27.045 26.6582 27.4787 19.786 30.3754C11.457 33.8864 4.71934 40.853 1.59843 49.1872C-0.0656872 53.6212 -0.687628 58.7085 1.3603 62.9841C4.57926 69.7115 13.1996 72.2051 20.7834 71.9188C28.3671 71.6325 35.8248 69.339 43.403 69.7199C50.4068 70.0729 57.0661 72.6861 63.3891 75.6439C69.7122 78.6018 75.8924 81.9516 82.5937 83.9532C89.295 85.9547 96.7302 86.5107 103.193 83.8587C108.533 81.6681 113.074 76.9088 114.145 71.2405C115.475 64.2128 112.679 57.9858 109.236 51.9422Z" fill="#F1E4C9"/>
<path d="M101.513 33.3762C101.353 32.2955 101.453 31.102 102.237 30.2725C102.841 29.6769 103.634 29.3034 104.484 29.2144C105.346 29.1233 106.217 29.1805 107.06 29.3837C108.398 29.6433 109.665 30.1778 110.78 30.9525C111.836 31.6939 112.595 32.7759 112.927 34.011C113.074 34.6179 113.07 35.2512 112.915 35.8562C112.759 36.4613 112.457 37.02 112.034 37.4843C111.269 38.2997 110.13 38.7793 108.966 39.0107C107.732 39.2533 105.749 39.6258 104.718 38.8132C103.607 37.9248 102.724 36.7898 102.143 35.5008C101.835 34.8244 101.623 34.1095 101.513 33.3762Z" fill="#F6E0D1"/>
<path d="M20.3318 26.722C17.8153 27.6577 14.9992 28.1216 12.4337 27.2943C10.7013 26.7459 9.22253 25.5993 8.26399 24.061C7.79486 23.2938 7.49024 22.4381 7.36931 21.5479C7.24839 20.6577 7.31376 19.7522 7.56133 18.8884C7.81989 18.027 8.27867 17.2384 8.90044 16.5867C9.52221 15.9349 10.2895 15.4383 11.14 15.137C12.6924 14.6162 14.381 14.836 16.0205 14.8658C19.123 14.9089 22.1929 14.231 24.9862 12.8857C25.8877 12.449 26.7865 11.9363 27.7806 11.8143C28.5416 11.7336 29.3095 11.883 29.9841 12.2429C30.6588 12.6029 31.2091 13.1567 31.5635 13.8323C32.6747 16.043 31.0406 18.4218 29.657 20.0846C28.0782 21.9874 26.1934 23.6162 24.0793 24.9046C22.8907 25.6271 21.6359 26.2356 20.3318 26.722Z" fill="#F1E4C9"/>
<path d="M81.1839 67.5146C82.0374 67.9716 83.0689 68.0186 84.008 67.7885C84.543 67.6487 85.0567 67.4373 85.5351 67.1602C85.9383 66.9317 86.3751 66.4327 86.8472 66.5167C87.9527 66.7116 89.0312 66.9115 90.1686 66.7754C91.395 66.6276 92.6231 66.0698 93.3354 65.0602C93.4872 64.8421 93.6151 64.6084 93.7167 64.363C93.9662 63.7332 94.1027 63.0644 94.1199 62.3873C94.1636 61.4566 94.0544 60.4838 93.5655 59.6993C93.0767 58.9147 92.1392 58.3402 91.2135 58.5048C91.4481 58.2023 91.6013 57.8447 91.6585 57.4662C91.7156 57.0877 91.6749 56.7008 91.5401 56.3425C91.4054 55.9842 91.1811 55.6664 90.8886 55.4194C90.5962 55.1724 90.2453 55.0044 89.8695 54.9314C89.8613 54.1408 89.7746 53.353 89.6108 52.5794C89.4437 51.8022 89.0483 51.0926 88.4751 50.5416C88.0446 50.1775 87.5285 49.9289 86.9753 49.8193C86.4222 49.7096 85.8503 49.7426 85.3134 49.915C84.7801 50.096 84.29 50.3854 83.8739 50.765C83.4579 51.1447 83.1249 51.6062 82.8959 52.1208C82.4422 53.1589 82.3304 54.3145 82.5767 55.4203C82.1209 55.5549 81.7054 55.8001 81.3672 56.1339C81.029 56.4678 80.7785 56.8801 80.638 57.3341C80.4975 57.7882 80.4714 58.2699 80.5619 58.7364C80.6525 59.203 80.8569 59.6399 81.1571 60.0084C80.9392 60.2311 80.7355 60.4674 80.5472 60.7157C79.8517 61.6313 79.3712 62.7082 79.299 63.8472C79.2217 65.292 79.9071 66.8292 81.1839 67.5146Z" fill="#DBBC78"/>
<path d="M81.184 67.5148C82.0374 67.9718 83.0689 68.0188 84.0081 67.7887C84.543 67.6489 85.0567 67.4375 85.5352 67.1604C85.9384 66.9319 86.3752 66.4329 86.8473 66.5169C87.9527 66.7118 89.0313 66.9117 90.1686 66.7756C91.395 66.6278 92.6231 66.07 93.3354 65.0604C93.4872 64.8423 93.6151 64.6086 93.7168 64.3632C92.6631 65.0865 91.3883 65.4156 90.1161 65.2928C88.8439 65.1699 87.6557 64.6028 86.7599 63.6912C85.9635 63.8636 85.1393 63.8619 84.3436 63.6862C83.5479 63.5105 82.7997 63.1649 82.15 62.6731C81.4757 62.1523 80.9297 61.4839 80.554 60.7192C79.8585 61.6348 79.378 62.7117 79.3057 63.8508C79.2217 65.2922 79.9072 66.8294 81.184 67.5148Z" fill="#CFAD65"/>
<path d="M84.0602 61.4301C84.0646 61.4234 84.0711 61.4183 84.0787 61.4155C84.0863 61.4128 84.0945 61.4126 84.1022 61.415C84.1068 61.4164 84.1111 61.4186 84.1148 61.4216C84.1185 61.4247 84.1215 61.4284 84.1237 61.4327C84.1259 61.4369 84.1272 61.4415 84.1276 61.4463C84.1279 61.4511 84.1273 61.4559 84.1257 61.4604C83.9938 61.8886 83.9828 62.345 84.0938 62.7792C84.1448 62.9858 84.227 63.1835 84.3374 63.3655C84.4428 63.5447 84.5729 63.7081 84.7238 63.851C84.7608 63.8863 84.8011 63.9182 84.8397 63.9518C84.8784 63.9854 84.922 64.0123 84.964 64.0392C85.0487 64.0936 85.1374 64.1414 85.2295 64.182C85.3185 64.2257 85.4092 64.2609 85.5 64.2996C85.5907 64.3382 85.6848 64.3769 85.7805 64.4155C85.9048 64.4659 86.0359 64.5129 86.1703 64.56L86.2005 63.8124L86.2341 62.6263V61.4385C86.2341 59.8526 86.1619 58.2617 86.0493 56.6673C86.0475 56.6462 86.0533 56.6252 86.0656 56.6079C86.0779 56.5907 86.096 56.5784 86.1165 56.5733C86.1281 56.5702 86.1402 56.5695 86.152 56.5712C86.1639 56.5728 86.1753 56.5768 86.1856 56.5829C86.1959 56.589 86.2049 56.5971 86.2121 56.6067C86.2193 56.6163 86.2245 56.6272 86.2274 56.6388C86.5231 57.8064 86.7616 58.9908 86.9532 60.1819L86.9985 60.1382C87.0714 60.0667 87.1546 60.0067 87.2455 59.9601C87.3381 59.9156 87.4246 59.8591 87.5025 59.7921C87.5793 59.7271 87.6481 59.6532 87.7075 59.5721C87.773 59.4906 87.8293 59.4021 87.8755 59.3083C87.9766 59.1102 88.0225 58.8885 88.0082 58.6665C88.008 58.6596 88.0095 58.6526 88.0128 58.6465C88.016 58.6403 88.0208 58.635 88.0267 58.6313C88.0352 58.6264 88.0452 58.6251 88.0547 58.6276C88.0641 58.6301 88.0722 58.6362 88.0771 58.6447C88.2037 58.8746 88.2548 59.1385 88.2232 59.399C88.2086 59.533 88.1787 59.6649 88.1342 59.7921C88.0855 59.9209 88.0236 60.0442 87.9494 60.1601C87.876 60.2763 87.7963 60.3884 87.7108 60.4961C87.6242 60.6017 87.5136 60.6852 87.3883 60.7397C87.281 60.7853 87.168 60.8159 87.0523 60.8304C87.0775 61.0101 87.1044 61.1916 87.1296 61.3713L87.2724 62.5725L87.4 63.7922L87.4757 65.0035L87.5227 66.2165C87.5227 66.6213 87.5429 67.0262 87.5597 67.4328L87.5848 68.6525C87.5848 69.0573 87.5664 69.4639 87.5361 69.8688C87.5059 70.2737 87.442 70.6769 87.3681 71.0767L87.2472 71.6748C87.2035 71.8747 87.1615 72.0729 87.1144 72.2712C87.0103 72.666 86.9011 73.0591 86.7784 73.4472C86.6558 73.8353 86.508 74.22 86.3534 74.6013C86.1911 74.9836 86.0089 75.3571 85.8074 75.7202C85.8 75.7329 85.7897 75.7437 85.7775 75.7518C85.7653 75.76 85.7514 75.7652 85.7368 75.7673C85.7119 75.7701 85.6869 75.7631 85.6671 75.7477C85.6473 75.7323 85.6344 75.7098 85.631 75.6849C85.5756 75.2666 85.5571 74.8601 85.5437 74.4552C85.5302 74.0503 85.5184 73.6471 85.5235 73.2489C85.5285 72.8508 85.5235 72.4526 85.5386 72.0578C85.5386 71.8596 85.5487 71.663 85.552 71.4648L85.5806 70.8768C85.5941 70.4837 85.6192 70.0922 85.6612 69.7008C85.7032 69.3093 85.7419 68.9213 85.8007 68.5248L85.9603 67.3488C86.004 66.9573 86.046 66.5659 86.0762 66.1728L86.14 65.1513C85.9513 65.1572 85.7624 65.1414 85.5772 65.1043C85.316 65.0531 85.0693 64.9446 84.8548 64.7868C84.6448 64.6274 84.4563 64.4416 84.2937 64.2341C84.1323 64.0327 84.0004 63.8092 83.9023 63.5705C83.8096 63.3339 83.7529 63.0847 83.7343 62.8313C83.6995 62.3421 83.8131 61.8538 84.0602 61.4301Z" fill="#C09A47"/>
<g style="mix-blend-mode:overlay" opacity="0.3">
<path d="M89.08 56.6451C89.08 57.0198 89.2799 57.3171 89.5285 57.3171C89.7772 57.3171 89.9788 57.0147 89.9788 56.6451C89.9788 56.2755 89.7772 55.9731 89.5285 55.9731C89.2799 55.9731 89.08 56.2705 89.08 56.6451Z" fill="white"/>
<path d="M85.8493 54.0479C86.097 54.0479 86.2979 53.7448 86.2979 53.3709C86.2979 52.997 86.097 52.6938 85.8493 52.6938C85.6016 52.6938 85.4008 52.997 85.4008 53.3709C85.4008 53.7448 85.6016 54.0479 85.8493 54.0479Z" fill="white"/>
<path d="M87.8149 52.9208C87.956 52.9208 88.0703 52.7486 88.0703 52.5361C88.0703 52.3236 87.956 52.1514 87.8149 52.1514C87.6739 52.1514 87.5596 52.3236 87.5596 52.5361C87.5596 52.7486 87.6739 52.9208 87.8149 52.9208Z" fill="white"/>
<path d="M85.4008 55.644C85.4008 55.8557 85.515 56.0287 85.6544 56.0287C85.7939 56.0287 85.9098 55.8607 85.9098 55.644C85.9098 55.4273 85.7956 55.2593 85.6544 55.2593C85.5133 55.2593 85.4008 55.4306 85.4008 55.644Z" fill="white"/>
<path d="M88.4315 54.4242C88.4315 54.5703 88.5105 54.688 88.5995 54.688C88.6886 54.688 88.7675 54.5703 88.7675 54.4242C88.7675 54.278 88.6886 54.1621 88.5995 54.1621C88.5105 54.1621 88.4315 54.2797 88.4315 54.4242Z" fill="white"/>
</g>
<path d="M90.8004 75.0295C90.6697 74.9241 90.5169 74.8497 90.3534 74.8119C90.1898 74.774 90.0198 74.7738 89.8562 74.8111C90.1636 74.2533 90.466 73.672 90.5282 73.0387C90.5904 72.4053 90.3501 71.6947 89.7974 71.3889C89.2094 71.0529 88.4282 71.2629 87.9326 71.7249C87.437 72.1869 87.18 72.8438 87.0052 73.4956C86.9899 73.3343 86.9176 73.1836 86.8013 73.0707C86.685 72.9578 86.5322 72.89 86.3705 72.8794C86.2087 72.8689 86.0484 72.9164 85.9185 73.0133C85.7885 73.1102 85.6973 73.2502 85.6612 73.4083C85.5522 73.0349 85.385 72.6811 85.1656 72.36C85.0544 72.2005 84.9075 72.0691 84.7366 71.9764C84.5657 71.8837 84.3755 71.8321 84.1812 71.8257C83.7175 71.8408 83.3227 72.2188 83.1732 72.6573C83.0429 73.1051 83.0394 73.5802 83.1631 74.0299C83.0709 73.8954 82.9395 73.7926 82.7868 73.7355C82.6341 73.6783 82.4675 73.6697 82.3096 73.7107C82.3214 73.1361 82.3298 72.5347 82.1013 72.0122C81.8728 71.4897 81.3403 71.0412 80.7691 71.11C80.1979 71.1789 79.8216 71.6745 79.6099 72.1869C79.2673 73.0279 79.2601 73.9683 79.5897 74.8144C79.4088 74.6861 79.1925 74.6172 78.9706 74.6172C78.7488 74.6172 78.5325 74.6861 78.3516 74.8144C78.1774 74.9414 78.0485 75.1208 77.9837 75.3265C77.919 75.5321 77.9219 75.753 77.992 75.9568H79.7762H91.2489C91.2458 75.779 91.204 75.604 91.1266 75.4439C91.0491 75.2837 90.9378 75.1424 90.8004 75.0295Z" fill="#DBBC78"/>
<g style="mix-blend-mode:multiply">
<path d="M89.2311 75.4781C89.1641 75.4237 89.0855 75.3852 89.0014 75.3657C88.9172 75.3462 88.8298 75.3462 88.7456 75.3656C88.9215 75.0882 89.0387 74.7777 89.09 74.4533C89.1115 74.2922 89.0876 74.1282 89.0212 73.9799C88.9547 73.8315 88.8482 73.7046 88.7137 73.6133C88.5562 73.5382 88.3791 73.514 88.2072 73.5441C88.0353 73.5742 87.877 73.6571 87.7544 73.7813C87.5143 74.0347 87.3497 74.3501 87.279 74.6919C87.2723 74.6076 87.2355 74.5286 87.1752 74.4693C87.115 74.41 87.0354 74.3744 86.951 74.3691C86.8666 74.3638 86.7832 74.3891 86.716 74.4404C86.6487 74.4916 86.6023 74.5654 86.5851 74.6482C86.53 74.456 86.4443 74.274 86.3315 74.1089C86.2751 74.0265 86.2001 73.9586 86.1125 73.9108C86.0249 73.8629 85.9272 73.8364 85.8275 73.8334C85.7085 73.846 85.5958 73.8931 85.5032 73.9689C85.4107 74.0447 85.3424 74.146 85.3067 74.2601C85.2411 74.4913 85.2411 74.7362 85.3067 74.9674C85.2597 74.8977 85.1925 74.8441 85.114 74.8141C85.0355 74.784 84.9497 74.7789 84.8682 74.7994C84.8945 74.5039 84.8579 74.2061 84.7607 73.9258C84.7089 73.7868 84.6151 73.6674 84.4922 73.5842C84.3693 73.5011 84.2235 73.4584 84.0752 73.4621C83.7913 73.4957 83.5863 73.7528 83.4788 74.0149C83.3025 74.4478 83.2989 74.9318 83.4687 75.3673C83.3756 75.3014 83.2644 75.266 83.1504 75.266C83.0363 75.266 82.9251 75.3014 82.832 75.3673C82.7421 75.4324 82.6755 75.5247 82.642 75.6306C82.6084 75.7364 82.6097 75.8502 82.6455 75.9553H83.5628H89.4663C89.4643 75.8634 89.4422 75.7731 89.4016 75.6907C89.3609 75.6082 89.3028 75.5357 89.2311 75.4781Z" fill="#DBBC78"/>
</g>
<path d="M22.3118 75.0294C22.4424 74.924 22.5953 74.8496 22.7588 74.8118C22.9223 74.774 23.0923 74.7737 23.256 74.811C22.9485 74.2533 22.6461 73.672 22.584 73.0386C22.5218 72.4053 22.762 71.6946 23.3148 71.3889C23.9028 71.0529 24.684 71.2629 25.1796 71.7249C25.6752 72.1869 25.9322 72.8437 26.1069 73.4956C26.1222 73.3342 26.1945 73.1835 26.3109 73.0706C26.4272 72.9577 26.5799 72.8899 26.7417 72.8794C26.9035 72.8689 27.0637 72.9163 27.1937 73.0132C27.3236 73.1101 27.4148 73.2502 27.4509 73.4082C27.5599 73.0349 27.7272 72.6811 27.9465 72.3599C28.0579 72.1991 28.2055 72.0667 28.3773 71.9733C28.5492 71.88 28.7405 71.8282 28.936 71.8223C29.3997 71.8374 29.7945 72.2154 29.944 72.6539C30.0743 73.1017 30.0778 73.5768 29.9541 74.0265C30.0463 73.892 30.1777 73.7892 30.3304 73.732C30.4831 73.6749 30.6498 73.6663 30.8076 73.7073C30.7958 73.1327 30.7874 72.5313 31.0159 72.0088C31.2444 71.4863 31.7769 71.0377 32.3481 71.1066C32.9193 71.1755 33.2956 71.6711 33.5073 72.1835C33.8499 73.0245 33.8571 73.9648 33.5275 74.811C33.7084 74.6827 33.9248 74.6138 34.1466 74.6138C34.3684 74.6138 34.5847 74.6827 34.7656 74.811C34.9398 74.938 35.0688 75.1174 35.1335 75.323C35.1982 75.5286 35.1953 75.7496 35.1252 75.9534H33.341H21.8683C21.8713 75.7766 21.9125 75.6024 21.989 75.4429C22.0656 75.2835 22.1757 75.1424 22.3118 75.0294Z" fill="#DBBC78"/>
<g style="mix-blend-mode:multiply">
<path d="M23.8808 75.4781C23.9479 75.4237 24.0264 75.3852 24.1106 75.3657C24.1947 75.3462 24.2822 75.3462 24.3663 75.3656C24.1934 75.0875 24.0791 74.7771 24.0303 74.4533C24.0089 74.2922 24.0327 74.1282 24.0992 73.9799C24.1656 73.8315 24.2721 73.7046 24.4067 73.6133C24.5642 73.5382 24.7412 73.514 24.9131 73.5441C25.085 73.5742 25.2433 73.6571 25.3659 73.7813C25.606 74.0347 25.7707 74.3501 25.8414 74.6919C25.848 74.6076 25.8849 74.5286 25.9451 74.4693C26.0054 74.41 26.085 74.3744 26.1694 74.3691C26.2537 74.3638 26.3372 74.3891 26.4044 74.4404C26.4716 74.4916 26.5181 74.5654 26.5352 74.6482C26.5904 74.456 26.676 74.274 26.7889 74.1089C26.8453 74.0265 26.9203 73.9586 27.0079 73.9108C27.0955 73.8629 27.1931 73.8364 27.2929 73.8334C27.4119 73.846 27.5246 73.8931 27.6171 73.9689C27.7096 74.0447 27.778 74.146 27.8137 74.2601C27.8792 74.4913 27.8792 74.7362 27.8137 74.9674C27.8606 74.8977 27.9279 74.8441 28.0064 74.8141C28.0848 74.784 28.1707 74.7789 28.2522 74.7994C28.2258 74.5039 28.2625 74.2061 28.3597 73.9258C28.4114 73.7868 28.5053 73.6674 28.6282 73.5842C28.7511 73.5011 28.8968 73.4584 29.0451 73.4621C29.3274 73.4957 29.534 73.7528 29.6415 74.0149C29.8179 74.4478 29.8215 74.9318 29.6516 75.3673C29.7447 75.3014 29.8559 75.266 29.97 75.266C30.084 75.266 30.1953 75.3014 30.2883 75.3673C30.3783 75.4323 30.4449 75.5247 30.4782 75.6306C30.5115 75.7366 30.5097 75.8504 30.4731 75.9553H29.5559H23.6523C23.6536 75.8639 23.6746 75.7739 23.7141 75.6916C23.7535 75.6092 23.8104 75.5363 23.8808 75.4781Z" fill="#DBBC78"/>
</g>
<path d="M41.2773 66.5455C40.3969 67.6056 38.9891 68.1197 37.6132 68.1902C36.4624 68.249 35.3217 68.0306 34.2129 67.7434C34.0096 67.6896 33.7223 67.5418 33.514 67.5451C33.3057 67.5485 32.9881 67.735 32.7714 67.819C32.2515 68.0226 31.721 68.1981 31.1821 68.3448C30.5942 68.5044 29.9911 68.6018 29.3829 68.6354C28.2757 68.6875 27.1165 68.4422 26.2043 67.8374C25.5549 67.416 25.0532 66.8024 24.7693 66.0821C24.4854 65.3618 24.4334 64.5709 24.6206 63.8197C24.8078 63.0685 25.2248 62.3944 25.8135 61.8916C26.4022 61.3888 27.1332 61.0823 27.9045 61.015C27.151 60.2355 26.6202 59.2683 26.3674 58.2141C26.1146 57.1599 26.149 56.0571 26.4671 55.0207C26.7851 53.9843 27.3751 53.0521 28.1757 52.3211C28.9763 51.5901 29.9582 51.0871 31.0192 50.8644C32.0801 50.642 33.1813 50.708 34.2081 51.0555C35.2349 51.4031 36.1498 52.0195 36.8575 52.8406C37.5652 53.6617 38.0399 54.6575 38.2322 55.7243C38.4245 56.7912 38.3274 57.89 37.9509 58.9066C38.5002 58.6512 39.1974 58.5907 39.6729 58.9637C40.1483 59.3366 40.1651 60.227 39.6124 60.4757C39.8588 60.5623 40.0954 60.675 40.318 60.8117C40.7902 61.0978 41.1951 61.4824 41.505 61.9394C41.8148 62.3963 42.0224 62.9148 42.1135 63.4594C42.2046 64.0039 42.177 64.5617 42.0327 65.0946C41.8884 65.6275 41.6307 66.123 41.2773 66.5472V66.5455Z" fill="#DBBC78"/>
<path d="M41.2773 66.5457C40.397 67.6058 38.9891 68.1199 37.6132 68.1905C36.4624 68.2493 35.3217 68.0309 34.2129 67.7436C34.0096 67.6898 33.7223 67.542 33.514 67.5453C33.3057 67.5487 32.9882 67.7352 32.7715 67.8192C32.2515 68.0228 31.721 68.1984 31.1822 68.345C30.5943 68.5046 29.9912 68.602 29.3829 68.6357C28.2758 68.6877 27.1166 68.4425 26.2043 67.8377C26.9554 67.8662 27.7074 67.824 28.4505 67.7117C30.3976 67.4059 32.3363 66.4265 33.3225 64.7213C34.4296 64.8305 35.5519 64.9229 36.6523 64.7532C37.7527 64.5835 38.848 64.1282 39.5822 63.2882C40.0509 62.7617 40.3342 62.096 40.3886 61.3932C40.3824 61.1955 40.3588 60.9987 40.318 60.8052C40.7902 61.0913 41.1951 61.4759 41.505 61.9329C41.8149 62.3898 42.0224 62.9083 42.1135 63.4529C42.2046 63.9974 42.177 64.5552 42.0327 65.0881C41.8884 65.621 41.6307 66.1165 41.2773 66.5407V66.5457Z" fill="#CFAD65"/>
<path d="M35.7719 62.2547C35.7679 62.2484 35.762 62.2436 35.755 62.2408C35.7481 62.2381 35.7405 62.2377 35.7333 62.2396C35.7251 62.2426 35.7183 62.2486 35.7142 62.2564C35.7102 62.2641 35.7092 62.2731 35.7114 62.2816C35.8311 62.6717 35.8415 63.0871 35.7417 63.4828C35.6945 63.6706 35.6192 63.8501 35.5182 64.0153C35.4232 64.1788 35.3049 64.3276 35.1671 64.4572C35.1335 64.4908 35.0965 64.5193 35.0613 64.5496C35.0245 64.5783 34.9864 64.6052 34.947 64.6302C34.8704 64.6795 34.7901 64.7228 34.7068 64.7596C34.6261 64.7982 34.5388 64.8318 34.4598 64.8671L34.2045 64.9729C34.0919 65.0183 33.9726 65.062 33.85 65.104L33.8231 64.4236L33.7929 63.3433V62.2614C33.7929 60.8166 33.8601 59.3701 33.9609 57.9169C33.9626 57.8975 33.9572 57.8782 33.9458 57.8624C33.9344 57.8467 33.9176 57.8356 33.8987 57.8312C33.8882 57.8285 33.8773 57.8279 33.8666 57.8295C33.8558 57.831 33.8455 57.8348 33.8363 57.8404C33.827 57.8461 33.819 57.8535 33.8127 57.8623C33.8064 57.8711 33.8019 57.8811 33.7996 57.8917C33.5291 58.9535 33.3124 60.032 33.1377 61.1173L33.0973 61.077C33.0315 61.0097 32.9555 60.953 32.8722 60.909C32.7863 60.8726 32.7056 60.8252 32.632 60.7679C32.5626 60.7077 32.5001 60.6401 32.4455 60.5663C32.3858 60.4924 32.3351 60.4118 32.2943 60.326C32.2032 60.1458 32.1614 59.9447 32.1733 59.7431C32.1735 59.737 32.1721 59.731 32.1691 59.7256C32.1662 59.7203 32.1618 59.7159 32.1565 59.7128C32.1528 59.7105 32.1487 59.7089 32.1443 59.7082C32.14 59.7075 32.1355 59.7077 32.1313 59.7088C32.127 59.7099 32.123 59.7119 32.1196 59.7146C32.1161 59.7173 32.1133 59.7207 32.1112 59.7246C31.996 59.9341 31.949 60.1743 31.9768 60.4117C31.9911 60.5336 32.0187 60.6536 32.0591 60.7696C32.1027 60.8873 32.1591 61 32.2271 61.1056C32.2938 61.2123 32.3667 61.3149 32.4455 61.413C32.5236 61.5094 32.6239 61.5855 32.7378 61.6348C32.8342 61.6764 32.936 61.7041 33.0402 61.7171C33.0145 61.8817 32.9909 62.0464 32.9697 62.211L32.8386 63.3047L32.7328 64.4034L32.6656 65.5055L32.6219 66.6092C32.6219 66.9772 32.6034 67.3468 32.5883 67.7164L32.5648 68.8268C32.5648 69.1964 32.5816 69.566 32.6101 69.9356C32.6387 70.3052 32.6958 70.6698 32.7563 71.0344L32.8655 71.5804C32.9075 71.7601 32.9445 71.9416 32.9881 72.1213C33.0822 72.4808 33.1813 72.8387 33.2922 73.1932C33.4031 73.5476 33.5392 73.8971 33.6803 74.2432C33.8299 74.5919 33.9981 74.9323 34.1843 75.2629C34.191 75.2744 34.2002 75.2841 34.2113 75.2914C34.2223 75.2987 34.235 75.3033 34.2481 75.3049C34.2593 75.3066 34.2707 75.3059 34.2816 75.3031C34.2925 75.3002 34.3028 75.2952 34.3117 75.2883C34.3207 75.2814 34.3281 75.2728 34.3336 75.2629C34.3392 75.2531 34.3427 75.2422 34.3439 75.231C34.3895 74.8591 34.4164 74.4851 34.4245 74.1104C34.4413 73.7408 34.4464 73.3746 34.443 73.0134C34.4397 72.6522 34.443 72.2876 34.4296 71.9281C34.4296 71.7484 34.4195 71.5686 34.4161 71.3888L34.3909 70.8529C34.3775 70.4951 34.354 70.1389 34.317 69.7828C34.2801 69.4266 34.2431 69.0738 34.191 68.7193L34.0449 67.6525C34.0062 67.2964 33.9676 66.9402 33.939 66.5824L33.8802 65.6516C34.0493 65.6564 34.2184 65.6418 34.3842 65.608C34.6222 65.5618 34.8471 65.4638 35.0428 65.3207C35.232 65.1753 35.4014 65.0059 35.5468 64.8167C35.6943 64.6335 35.8143 64.4297 35.9029 64.2119C35.9874 63.9969 36.039 63.7703 36.0558 63.5399C36.0941 63.0926 35.995 62.6442 35.7719 62.2547Z" fill="#C09A47"/>
<g style="mix-blend-mode:overlay" opacity="0.3">
<path d="M30.065 56.8568C30.065 57.3944 29.729 57.8295 29.3157 57.8295C28.9024 57.8295 28.5664 57.3944 28.5664 56.8568C28.5664 56.3192 28.9024 55.8857 29.3157 55.8857C29.729 55.8857 30.065 56.3209 30.065 56.8568Z" fill="white"/>
<path d="M31.2292 53.6533C31.501 53.6533 31.7214 53.3674 31.7214 53.0149C31.7214 52.6623 31.501 52.3765 31.2292 52.3765C30.9573 52.3765 30.7369 52.6623 30.7369 53.0149C30.7369 53.3674 30.9573 53.6533 31.2292 53.6533Z" fill="white"/>
<path d="M32.5496 54.6261C32.5367 54.6761 32.5101 54.7214 32.4727 54.757C32.4353 54.7925 32.3887 54.8168 32.3381 54.8272C32.2876 54.8375 32.2351 54.8335 32.1868 54.8155C32.1384 54.7975 32.0961 54.7663 32.0646 54.7254C32.0331 54.6846 32.0137 54.6357 32.0087 54.5844C32.0036 54.533 32.013 54.4813 32.0359 54.4351C32.0588 54.3888 32.0942 54.3499 32.1381 54.3228C32.182 54.2957 32.2326 54.2815 32.2842 54.2817C32.3645 54.2934 32.4371 54.3359 32.4866 54.4002C32.5362 54.4645 32.5588 54.5455 32.5496 54.6261Z" fill="white"/>
<path d="M28.5244 58.5371C28.5111 58.587 28.4841 58.6323 28.4463 58.6676C28.4086 58.7029 28.3616 58.7269 28.3109 58.7368C28.2601 58.7468 28.2076 58.7422 28.1594 58.7237C28.1111 58.7051 28.069 58.6734 28.0379 58.6321C28.0068 58.5908 27.988 58.5415 27.9836 58.49C27.9791 58.4385 27.9893 58.3868 28.0129 58.3408C28.0365 58.2948 28.0725 58.2563 28.1169 58.2298C28.1613 58.2033 28.2123 58.1899 28.264 58.191C28.3437 58.2039 28.4153 58.2471 28.4639 58.3116C28.5124 58.3761 28.5341 58.4569 28.5244 58.5371Z" fill="white"/>
<path d="M28.9058 54.2814C28.8986 54.3084 28.884 54.3328 28.8636 54.3519C28.8432 54.371 28.8179 54.384 28.7906 54.3894C28.7632 54.3949 28.7348 54.3926 28.7087 54.3827C28.6826 54.3729 28.6597 54.356 28.6427 54.3338C28.6257 54.3117 28.6153 54.2853 28.6125 54.2575C28.6098 54.2297 28.6149 54.2017 28.6272 54.1767C28.6396 54.1517 28.6586 54.1306 28.6823 54.1158C28.706 54.1011 28.7334 54.0933 28.7613 54.0933C28.8054 54.0991 28.8453 54.1222 28.8724 54.1575C28.8995 54.1928 28.9115 54.2373 28.9058 54.2814Z" fill="white"/>
<path d="M32.3548 53.0165C32.5181 53.0165 32.6504 52.8443 32.6504 52.6318C32.6504 52.4193 32.5181 52.2471 32.3548 52.2471C32.1915 52.2471 32.0591 52.4193 32.0591 52.6318C32.0591 52.8443 32.1915 53.0165 32.3548 53.0165Z" fill="white"/>
</g>
<path d="M78.2961 24.354H35.3049V33.6494H78.2961V24.354Z" fill="#DBBC78"/>
<g style="mix-blend-mode:multiply">
<path d="M78.2961 24.354H35.3049V25.1251H78.2961V24.354Z" fill="#DBBC78"/>
</g>
<path d="M77.9853 21.2075H35.614V23.3882H77.9853V21.2075Z" fill="#DBBC78"/>
<g style="mix-blend-mode:multiply">
<path d="M77.9853 21.2075H35.614V21.6174H77.9853V21.2075Z" fill="#DBBC78"/>
</g>
<path d="M78.8169 22.9409H34.7824C34.6562 22.9409 34.554 23.0432 34.554 23.1694V24.4462C34.554 24.5724 34.6562 24.6747 34.7824 24.6747H78.8169C78.9431 24.6747 79.0454 24.5724 79.0454 24.4462V23.1694C79.0454 23.0432 78.9431 22.9409 78.8169 22.9409Z" fill="#B48F4B"/>
<path d="M78.8354 19.5088H34.764C34.648 19.5088 34.554 19.6028 34.554 19.7188V21.0325C34.554 21.1485 34.648 21.2425 34.764 21.2425H78.8354C78.9514 21.2425 79.0454 21.1485 79.0454 21.0325V19.7188C79.0454 19.6028 78.9514 19.5088 78.8354 19.5088Z" fill="#B48F4B"/>
<path d="M78.2944 45.4028H36.1113V75.9435H78.2944V45.4028Z" fill="#DBBC78"/>
<path d="M78.5917 71.3604H35.8156C35.6792 71.3604 35.5686 71.4709 35.5686 71.6073V75.6981C35.5686 75.8345 35.6792 75.9451 35.8156 75.9451H78.5917C78.7281 75.9451 78.8387 75.8345 78.8387 75.6981V71.6073C78.8387 71.4709 78.7281 71.3604 78.5917 71.3604Z" fill="#C7A355"/>
<g style="mix-blend-mode:multiply">
<path d="M78.2944 45.4028V49.3542H78.1853C77.9505 49.354 77.7181 49.3075 77.5013 49.2175C77.2845 49.1274 77.0876 48.9956 76.9218 48.8295C76.7559 48.6633 76.6245 48.4661 76.5348 48.2492C76.4452 48.0322 76.3992 47.7997 76.3994 47.565C76.3996 47.7999 76.3536 48.0325 76.2638 48.2496C76.1741 48.4666 76.0425 48.6639 75.8765 48.83C75.7104 48.9962 75.5133 49.128 75.2963 49.218C75.0794 49.3079 74.8468 49.3542 74.6119 49.3542H74.1281C73.8932 49.3542 73.6606 49.3079 73.4436 49.218C73.2266 49.128 73.0295 48.9962 72.8635 48.83C72.6975 48.6639 72.5658 48.4666 72.4761 48.2496C72.3864 48.0325 72.3403 47.7999 72.3405 47.565C72.3408 47.7997 72.2947 48.0322 72.2051 48.2492C72.1155 48.4661 71.984 48.6633 71.8182 48.8295C71.6523 48.9956 71.4554 49.1274 71.2386 49.2175C71.0218 49.3075 70.7894 49.354 70.5547 49.3542H70.0709C69.8359 49.3542 69.6032 49.3079 69.3862 49.218C69.1691 49.1281 68.9718 48.9963 68.8057 48.8301C68.6396 48.664 68.5078 48.4668 68.4178 48.2497C68.3279 48.0326 68.2817 47.8 68.2817 47.565C68.2819 47.7997 68.2359 48.0322 68.1462 48.2492C68.0566 48.4661 67.9251 48.6633 67.7593 48.8295C67.5935 48.9956 67.3965 49.1274 67.1797 49.2175C66.963 49.3075 66.7306 49.354 66.4958 49.3542H66.0137C65.7789 49.354 65.5465 49.3075 65.3297 49.2175C65.1129 49.1274 64.916 48.9956 64.7502 48.8295C64.5843 48.6633 64.4529 48.4661 64.3632 48.2492C64.2736 48.0322 64.2276 47.7997 64.2278 47.565C64.228 47.7999 64.182 48.0325 64.0922 48.2496C64.0025 48.4666 63.8709 48.6639 63.7049 48.83C63.5388 48.9962 63.3417 49.128 63.1247 49.218C62.9078 49.3079 62.6752 49.3542 62.4403 49.3542H61.9581C61.7232 49.3542 61.4907 49.3079 61.2737 49.218C61.0567 49.128 60.8596 48.9962 60.6936 48.83C60.5276 48.6639 60.3959 48.4666 60.3062 48.2496C60.2165 48.0325 60.1704 47.7999 60.1706 47.565C60.1708 47.7997 60.1248 48.0322 60.0352 48.2492C59.9456 48.4661 59.8141 48.6633 59.6482 48.8295C59.4824 48.9956 59.2855 49.1274 59.0687 49.2175C58.8519 49.3075 58.6195 49.354 58.3848 49.3542H57.9009C57.6662 49.354 57.4338 49.3075 57.217 49.2175C57.0002 49.1274 56.8033 48.9956 56.6375 48.8295C56.4716 48.6633 56.3401 48.4661 56.2505 48.2492C56.1609 48.0322 56.1149 47.7997 56.1151 47.565C56.1153 47.7999 56.0692 48.0325 55.9795 48.2496C55.8898 48.4666 55.7581 48.6639 55.5921 48.83C55.4261 48.9962 55.229 49.128 55.012 49.218C54.795 49.3079 54.5625 49.3542 54.3276 49.3542H53.8454C53.6104 49.3542 53.3778 49.3079 53.1607 49.218C52.9436 49.1281 52.7464 48.9963 52.5803 48.8301C52.4141 48.664 52.2823 48.4668 52.1924 48.2497C52.1025 48.0326 52.0562 47.8 52.0562 47.565C52.0567 48.0388 51.869 48.4934 51.5344 48.8289C51.1999 49.1644 50.7458 49.3533 50.272 49.3542H49.7899C49.555 49.3542 49.3224 49.3079 49.1054 49.218C48.8885 49.128 48.6913 48.9962 48.5253 48.83C48.3593 48.6639 48.2277 48.4666 48.138 48.2496C48.0482 48.0325 48.0021 47.7999 48.0024 47.565C48.0026 47.7997 47.9566 48.0322 47.8669 48.2492C47.7773 48.4661 47.6458 48.6633 47.48 48.8295C47.3142 48.9956 47.1172 49.1274 46.9005 49.2175C46.6837 49.3075 46.4513 49.354 46.2165 49.3542H45.736C45.5013 49.354 45.2689 49.3075 45.0521 49.2175C44.8353 49.1274 44.6384 48.9956 44.4726 48.8295C44.3067 48.6633 44.1753 48.4661 44.0856 48.2492C43.996 48.0322 43.95 47.7997 43.9502 47.565C43.9504 47.7999 43.9044 48.0325 43.8146 48.2496C43.7249 48.4666 43.5933 48.6639 43.4273 48.83C43.2612 48.9962 43.0641 49.128 42.8471 49.218C42.6301 49.3079 42.3976 49.3542 42.1627 49.3542H41.6805C41.4456 49.3542 41.2131 49.3079 40.9961 49.218C40.7791 49.128 40.582 48.9962 40.416 48.83C40.25 48.6639 40.1183 48.4666 40.0286 48.2496C39.9389 48.0325 39.8928 47.7999 39.893 47.565C39.8932 47.7997 39.8472 48.0322 39.7576 48.2492C39.668 48.4661 39.5365 48.6633 39.3706 48.8295C39.2048 48.9956 39.0079 49.1274 38.7911 49.2175C38.5743 49.3075 38.3419 49.354 38.1072 49.3542H37.6233C37.322 49.3553 37.0253 49.2801 36.7609 49.1356C36.4965 48.991 36.2731 48.7819 36.1113 48.5276V45.4028H78.2944Z" fill="#D2C29F"/>
</g>
<path d="M48.8524 51.3887H38.255V73.0657H48.8524V51.3887Z" fill="#E09764"/>
<path d="M48.2745 51.9663H38.8329V72.4892H48.2745V51.9663Z" fill="#F2F1D0"/>
<g style="mix-blend-mode:overlay" opacity="0.5">
<path d="M48.2745 51.9663V52.7979L42.8078 72.4875H40.8086L46.5072 51.9663H48.2745Z" fill="white"/>
</g>
<path d="M48.2744 62.4362H46.8128C46.7576 62.4362 46.7046 62.4142 46.6655 62.3752C46.6264 62.3361 46.6045 62.2831 46.6045 62.2279C46.6043 62.2004 46.6095 62.1732 46.6199 62.1479C46.6303 62.1225 46.6456 62.0994 46.665 62.0801C46.6844 62.0607 46.7075 62.0453 46.7328 62.0349C46.7582 62.0245 46.7854 62.0193 46.8128 62.0195H48.2744V62.4362Z" fill="#E09764"/>
<path d="M76.1507 51.3887H50.4265V65.4553H76.1507V51.3887Z" fill="#E09764"/>
<path d="M75.4771 51.9648H51.1019V64.8756H75.4771V51.9648Z" fill="#F2F1D0"/>
<g style="mix-blend-mode:overlay" opacity="0.5">
<path d="M60.8778 51.9648L57.4876 64.8756H56.3922L59.7808 51.9648H60.8778Z" fill="white"/>
<path d="M70.1413 51.9648L66.7528 64.8756H65.6541L69.046 51.9648H70.1413Z" fill="white"/>
</g>
<path d="M50.4904 74.438H36.6169V75.9433H50.4904V74.438Z" fill="#B55134"/>
<path d="M50.4904 74.4383H36.6169L37.2318 74.0771H49.8755L50.4904 74.4383Z" fill="#CE6F54"/>
<path d="M49.4757 73.2251H37.6317V74.0769H49.4757V73.2251Z" fill="#B55134"/>
<path d="M49.4757 73.2253H37.6317L38.1576 73.022H48.9499L49.4757 73.2253Z" fill="#CE6F54"/>
<path d="M35.4376 44.6769H31.4795L33.4585 34.0728H37.1125L35.4376 44.6769Z" fill="#F2F1D0"/>
<path d="M39.3957 44.6769H35.4376L37.1126 34.0728H40.7649L39.3957 44.6769Z" fill="#CE6F54"/>
<path d="M43.352 44.6769H39.3956L40.7648 34.0728H44.4171L43.352 44.6769Z" fill="#F2F1D0"/>
<path d="M47.3101 44.6769H43.3521L44.4172 34.0728H48.0712L47.3101 44.6769Z" fill="#CE6F54"/>
<path d="M51.2666 44.6769H47.3102L48.0712 34.0728H51.7235L51.2666 44.6769Z" fill="#F2F1D0"/>
<path d="M55.2247 44.6769H51.2666L51.7236 34.0728H55.3759L55.2247 44.6769Z" fill="#CE6F54"/>
<path d="M59.1827 44.6769H55.2246L55.3758 34.0728H59.0298L59.1827 44.6769Z" fill="#F2F1D0"/>
<path d="M63.1391 44.6769H59.1827L59.0298 34.0728H62.6821L63.1391 44.6769Z" fill="#CE6F54"/>
<path d="M67.0972 44.6769H63.1391L62.6821 34.0728H66.3361L67.0972 44.6769Z" fill="#F2F1D0"/>
<path d="M71.0536 44.6769H67.0972L66.3362 34.0728H69.9885L71.0536 44.6769Z" fill="#CE6F54"/>
<path d="M75.0117 44.6769H71.0537L69.9885 34.0728H73.6408L75.0117 44.6769Z" fill="#F2F1D0"/>
<path d="M78.968 44.6769H75.0116L73.6407 34.0728H77.2947L78.968 44.6769Z" fill="#CE6F54"/>
<path d="M82.9262 44.6769H78.9681L77.2948 34.0728H80.9471L82.9262 44.6769Z" fill="#F2F1D0"/>
<path d="M31.4812 44.6768H35.4376V46.3282C35.4376 46.7738 35.2606 47.2011 34.9455 47.5161C34.6305 47.8312 34.2032 48.0082 33.7576 48.0082H33.1696C32.724 48.0082 32.2967 47.8312 31.9817 47.5161C31.6666 47.2011 31.4896 46.7738 31.4896 46.3282V44.6768H31.4812Z" fill="#E5D995"/>
<path d="M35.4376 44.6768H39.3957V46.3282C39.3957 46.7738 39.2187 47.2011 38.9036 47.5161C38.5886 47.8312 38.1613 48.0082 37.7157 48.0082H37.1277C36.6821 48.0082 36.2548 47.8312 35.9398 47.5161C35.6247 47.2011 35.4477 46.7738 35.4477 46.3282V44.6768H35.4376Z" fill="#B55134"/>
<path d="M39.3956 44.6768H43.3537V46.3282C43.3537 46.7738 43.1767 47.2011 42.8617 47.5161C42.5466 47.8312 42.1193 48.0082 41.6737 48.0082H41.0857C40.6401 48.0082 40.2128 47.8312 39.8978 47.5161C39.5827 47.2011 39.4057 46.7738 39.4057 46.3282V44.6768H39.3956Z" fill="#E5D995"/>
<path d="M43.3521 44.6768H47.3101V46.3282C47.3101 46.7738 47.1331 47.2011 46.8181 47.5161C46.503 47.8312 46.0757 48.0082 45.6301 48.0082H45.0421C44.5966 48.0082 44.1693 47.8312 43.8542 47.5161C43.5391 47.2011 43.3621 46.7738 43.3621 46.3282V44.6768H43.3521Z" fill="#B55134"/>
<path d="M47.3102 44.6768H51.2683V46.3282C51.2683 46.7738 51.0913 47.2011 50.7762 47.5161C50.4611 47.8312 50.0338 48.0082 49.5883 48.0082H49.0003C48.5547 48.0082 48.1274 47.8312 47.8123 47.5161C47.4973 47.2011 47.3203 46.7738 47.3203 46.3282V44.6768H47.3102Z" fill="#E5D995"/>
<path d="M51.2666 44.6768H55.2247V46.3282C55.2247 46.7738 55.0477 47.2011 54.7326 47.5161C54.4176 47.8312 53.9902 48.0082 53.5447 48.0082H52.9567C52.5111 48.0082 52.0838 47.8312 51.7687 47.5161C51.4537 47.2011 51.2767 46.7738 51.2767 46.3282V44.6768H51.2666Z" fill="#B55134"/>
<path d="M55.2246 44.6768H59.176V46.3282C59.176 46.7738 58.999 47.2011 58.6839 47.5161C58.3688 47.8312 57.9415 48.0082 57.496 48.0082H56.908C56.4624 48.0082 56.0351 47.8312 55.72 47.5161C55.405 47.2011 55.228 46.7738 55.228 46.3282V44.6768H55.2246Z" fill="#E5D995"/>
<path d="M59.176 44.6768H63.1341V46.3282C63.1341 46.7738 62.9571 47.2011 62.642 47.5161C62.327 47.8312 61.8997 48.0082 61.4541 48.0082H60.8661C60.4205 48.0082 59.9932 47.8312 59.6782 47.5161C59.3631 47.2011 59.1861 46.7738 59.1861 46.3282V44.6768H59.176Z" fill="#B55134"/>
<path d="M63.1392 44.6768H67.0972V46.3282C67.0972 46.7738 66.9202 47.2011 66.6052 47.5161C66.2901 47.8312 65.8628 48.0082 65.4172 48.0082H64.8292C64.3837 48.0082 63.9564 47.8312 63.6413 47.5161C63.3262 47.2011 63.1492 46.7738 63.1492 46.3282V44.6768H63.1392Z" fill="#E5D995"/>
<path d="M67.0972 44.6768H71.0536V46.3282C71.0536 46.5488 71.0101 46.7673 70.9257 46.9711C70.8413 47.1749 70.7175 47.3601 70.5615 47.5161C70.4055 47.6721 70.2203 47.7959 70.0165 47.8803C69.8126 47.9647 69.5942 48.0082 69.3736 48.0082H68.7856C68.34 48.0082 67.9127 47.8312 67.5976 47.5161C67.2826 47.2011 67.1056 46.7738 67.1056 46.3282V44.6768H67.0972Z" fill="#B55134"/>
<path d="M71.0536 44.6768H75.0117V46.3282C75.0117 46.7738 74.8347 47.2011 74.5196 47.5161C74.2045 47.8312 73.7772 48.0082 73.3317 48.0082H72.7437C72.2981 48.0082 71.8708 47.8312 71.5557 47.5161C71.2407 47.2011 71.0637 46.7738 71.0637 46.3282V44.6768H71.0536Z" fill="#E5D995"/>
<path d="M78.9681 44.6768H82.9262V46.3282C82.9262 46.7738 82.7492 47.2011 82.4342 47.5161C82.1191 47.8312 81.6918 48.0082 81.2462 48.0082H80.6582C80.2127 48.0082 79.7853 47.8312 79.4703 47.5161C79.1552 47.2011 78.9782 46.7738 78.9782 46.3282V44.6768H78.9681Z" fill="#E5D995"/>
<path d="M75.0117 44.6768H78.9698V46.3282C78.9698 46.7738 78.7928 47.2011 78.4777 47.5161C78.1627 47.8312 77.7354 48.0082 77.2898 48.0082H76.7018C76.2562 48.0082 75.8289 47.8312 75.5139 47.5161C75.1988 47.2011 75.0218 46.7738 75.0218 46.3282V44.6768H75.0117Z" fill="#B55134"/>
<g style="mix-blend-mode:multiply">
<path d="M82.9261 44.6771H31.4795L31.5081 44.5276C39.8409 44.3999 48.2056 44.1462 56.3721 42.483C59.2672 41.9017 62.1175 41.1158 64.9014 40.131C69.0594 38.6459 73.0628 36.6618 76.6463 34.083H80.9555L82.9261 44.6771Z" fill="#F2F1D0"/>
</g>
<path d="M80.9639 34.2558H33.4417C33.3848 34.256 33.3283 34.2449 33.2756 34.2232C33.2229 34.2015 33.1751 34.1696 33.1348 34.1293C33.0945 34.089 33.0625 34.0411 33.0408 33.9885C33.0191 33.9358 33.0081 33.8793 33.0083 33.8223C33.0081 33.7653 33.0191 33.7087 33.0408 33.6559C33.0625 33.6032 33.0944 33.5552 33.1347 33.5148C33.1749 33.4743 33.2228 33.4422 33.2755 33.4204C33.3282 33.3985 33.3847 33.3872 33.4417 33.3872H80.9639C81.0793 33.3872 81.19 33.433 81.2716 33.5147C81.3532 33.5963 81.399 33.7069 81.399 33.8223C81.399 33.8794 81.3878 33.9359 81.3659 33.9886C81.344 34.0413 81.3119 34.0891 81.2715 34.1294C81.2311 34.1697 81.1831 34.2016 81.1303 34.2233C81.0775 34.2449 81.021 34.256 80.9639 34.2558Z" fill="#CE6F54"/>
<path d="M77.1117 26.2002H36.9647V31.8013H77.1117V26.2002Z" fill="#E09764"/>
<path d="M76.5337 26.7129H37.5426V31.2892H76.5337V26.7129Z" fill="#F2F1D0"/>
<g style="mix-blend-mode:multiply">
<path d="M37.5426 26.7129V27.0439H76.2028V31.2892H76.5337V26.7129H37.5426Z" fill="#F2F1D0"/>
</g>
<g style="mix-blend-mode:overlay" opacity="0.5">
<path d="M57.6556 26.7129L55.344 31.2892H53.5514L55.8631 26.7129H57.6556Z" fill="white"/>
<path d="M65.602 26.7129L63.2937 31.2892H62.4672L64.7788 26.7129H65.602Z" fill="white"/>
</g>
<g style="mix-blend-mode:multiply">
<path d="M73.7803 67.5215H70.3262V68.7361H73.7803V67.5215Z" fill="#DBBC78"/>
</g>
<g style="mix-blend-mode:multiply">
<path d="M70.9057 69.4233H67.4517V70.638H70.9057V69.4233Z" fill="#DBBC78"/>
</g>
<g style="mix-blend-mode:multiply">
<path d="M64.6208 66.1455H61.1667V67.3601H64.6208V66.1455Z" fill="#DBBC78"/>
</g>
<g style="mix-blend-mode:multiply">
<path d="M37.8384 56.6689H36.1113V57.8836H37.8384V56.6689Z" fill="#DBBC78"/>
</g>
<g style="mix-blend-mode:multiply">
<path d="M38.2549 63.8257H36.8555V65.0403H38.2549V63.8257Z" fill="#DBBC78"/>
</g>
<g style="mix-blend-mode:multiply">
<path d="M78.2944 49.6465H76.3826V50.8611H78.2944V49.6465Z" fill="#DBBC78"/>
</g>
<g style="mix-blend-mode:multiply">
<path d="M74.548 72.4458H72.6865V73.1212H74.548V72.4458Z" fill="#F9A66A"/>
</g>
<g style="mix-blend-mode:multiply">
<path d="M68.3824 73.7681H66.521V74.4417H68.3824V73.7681Z" fill="#F9A66A"/>
</g>
<g style="mix-blend-mode:multiply">
<path d="M67.2014 72.8638H65.34V73.5375H67.2014V72.8638Z" fill="#F9A66A"/>
</g>
<g style="mix-blend-mode:multiply">
<path d="M63.9371 73.8618H62.0757V74.5355H63.9371V73.8618Z" fill="#F9A66A"/>
</g>
<g style="mix-blend-mode:multiply">
<path d="M51.4211 71.814H49.5597V72.4876H51.4211V71.814Z" fill="#F9A66A"/>
</g>
<path d="M31.1872 65.4216H30.616V43.9528C30.616 43.3825 30.3895 42.8355 29.9862 42.4323C29.5829 42.029 29.0359 41.8024 28.4656 41.8024C27.8953 41.8024 27.3483 42.029 26.9451 42.4323C26.5418 42.8355 26.3152 43.3825 26.3152 43.9528V44.9155H25.744V43.9528C25.744 43.2315 26.0306 42.5396 26.5407 42.0296C27.0507 41.5195 27.7426 41.2329 28.4639 41.2329C29.1853 41.2329 29.8771 41.5195 30.3872 42.0296C30.8973 42.5396 31.1839 43.2315 31.1839 43.9528L31.1872 65.4216Z" fill="#B55134"/>
<path d="M28.7948 41.8022C28.7394 41.8022 28.6856 41.8022 28.6268 41.8022C29.1688 41.843 29.6751 42.0874 30.0442 42.4864C30.4132 42.8853 30.6175 43.4092 30.616 43.9526V65.4214H30.952V43.9526C30.9515 43.6698 30.8954 43.3898 30.7867 43.1287C30.6781 42.8676 30.5191 42.6304 30.3188 42.4307C30.1184 42.231 29.8808 42.0727 29.6193 41.9649C29.3578 41.8571 29.0777 41.8018 28.7948 41.8022Z" fill="#CE6F54"/>
<path d="M28.1817 46.1704C28.1599 46.1775 28.1373 46.182 28.1145 46.1839H23.938C23.9151 46.182 23.8926 46.1775 23.8708 46.1704C23.5252 46.581 23.3041 47.0817 23.2334 47.6137C23.1627 48.1457 23.2455 48.6868 23.4719 49.1734C23.6983 49.66 24.059 50.0717 24.5115 50.3602C24.9641 50.6488 25.4896 50.802 26.0262 50.802C26.5629 50.802 27.0884 50.6488 27.5409 50.3602C27.9934 50.0717 28.3541 49.66 28.5805 49.1734C28.807 48.6868 28.8897 48.1457 28.8191 47.6137C28.7484 47.0817 28.5273 46.581 28.1817 46.1704Z" fill="#F9A66A"/>
<g style="mix-blend-mode:overlay" opacity="0.3">
<path d="M25.1359 49.1842C24.8319 49.0743 24.5797 48.8551 24.4286 48.5693L24.4387 48.5962C24.4089 48.5201 24.3891 48.4405 24.3799 48.3593C24.3799 48.2787 24.3967 48.2031 24.3967 48.1241C24.3983 48.061 24.3789 47.9992 24.3414 47.9484C24.304 47.8976 24.2507 47.8607 24.19 47.8436C24.1172 47.8243 24.0398 47.8343 23.9742 47.8713C23.9086 47.9083 23.8601 47.9695 23.8389 48.0418C23.7996 48.2339 23.8042 48.4323 23.8525 48.6223C23.9008 48.8123 23.9915 48.9889 24.1178 49.1388C24.3508 49.4083 24.6494 49.6132 24.9847 49.7336C25.0206 49.7437 25.0583 49.7467 25.0954 49.7422C25.1325 49.7377 25.1683 49.7259 25.2008 49.7075C25.2333 49.689 25.2619 49.6643 25.2847 49.6348C25.3076 49.6052 25.3244 49.5714 25.3341 49.5353C25.3482 49.4671 25.338 49.3961 25.3051 49.3347C25.2723 49.2733 25.2189 49.2254 25.1543 49.1993L25.1359 49.1842Z" fill="white"/>
</g>
<g style="mix-blend-mode:multiply">
<path d="M23.938 46.1839C23.9151 46.182 23.8926 46.1775 23.8708 46.1704C23.8708 46.1704 23.8708 46.1704 23.859 46.1839H23.938Z" fill="#F2F1D0"/>
<path d="M28.1817 46.1704C28.1599 46.1775 28.1374 46.182 28.1145 46.1839H27.2745C27.5912 46.5648 27.8016 47.0226 27.8845 47.511C27.9674 47.9994 27.9199 48.501 27.7466 48.9651C27.5734 49.4292 27.2807 49.8393 26.898 50.1539C26.5154 50.4686 26.0565 50.6765 25.5676 50.7568C26.1354 50.8522 26.7188 50.7709 27.239 50.5241C27.7592 50.2773 28.1911 49.8767 28.4763 49.3766C28.7616 48.8765 28.8864 48.3008 28.834 47.7274C28.7817 47.1541 28.5545 46.6106 28.1834 46.1704H28.1817Z" fill="#F9A66A"/>
</g>
<path d="M27.4761 45.6095H24.5764C24.5764 45.3867 24.6649 45.1731 24.8224 45.0156C24.98 44.858 25.1936 44.7695 25.4164 44.7695H26.626C26.8488 44.7695 27.0625 44.858 27.22 45.0156C27.3775 45.1731 27.466 45.3867 27.466 45.6095H27.4761Z" fill="#DBBC78"/>
<path d="M28.1162 45.312H23.938C23.7831 45.312 23.6575 45.4376 23.6575 45.5926V45.9017C23.6575 46.0566 23.7831 46.1823 23.938 46.1823H28.1162C28.2711 46.1823 28.3968 46.0566 28.3968 45.9017V45.5926C28.3968 45.4376 28.2711 45.312 28.1162 45.312Z" fill="#9AC3B1"/>
<path d="M30.3858 65.2051H31.4174C31.4401 65.2051 31.4619 65.2141 31.478 65.2302C31.494 65.2462 31.5031 65.268 31.5031 65.2908V65.531H30.3002V65.2908C30.3002 65.268 30.3092 65.2462 30.3253 65.2302C30.3413 65.2141 30.3631 65.2051 30.3858 65.2051Z" fill="#CE6F54"/>
<path d="M30.5488 65.4502H31.2544C31.4562 65.4502 31.6498 65.5304 31.7925 65.6731C31.9352 65.8158 32.0154 66.0094 32.0154 66.2112V75.72H29.7877V66.2112C29.7877 66.0094 29.8679 65.8158 30.0106 65.6731C30.1533 65.5304 30.3469 65.4502 30.5488 65.4502Z" fill="#B55134"/>
<path d="M31.2544 65.4502H30.5454C30.7464 65.4515 30.9387 65.5323 31.0803 65.6749C31.2219 65.8175 31.3014 66.0103 31.3014 66.2112V75.72H32.0171V66.2112C32.0171 66.1112 31.9973 66.0121 31.959 65.9196C31.9206 65.8272 31.8644 65.7432 31.7936 65.6725C31.7227 65.6018 31.6387 65.5458 31.5461 65.5076C31.4536 65.4695 31.3545 65.45 31.2544 65.4502Z" fill="#CE6F54"/>
<path d="M32.7462 75.5806H29.0569C28.9567 75.5806 28.8755 75.6618 28.8755 75.762C28.8755 75.8622 28.9567 75.9434 29.0569 75.9434H32.7462C32.8464 75.9434 32.9276 75.8622 32.9276 75.762C32.9276 75.6618 32.8464 75.5806 32.7462 75.5806Z" fill="#B55134"/>
<path d="M81.7804 70.6314C81.7312 70.7594 81.6608 70.8781 81.5721 70.9825C81.4272 71.0813 81.2606 71.1435 81.0865 71.164C80.5992 71.2822 80.1048 71.3698 79.6064 71.426C78.6118 71.5384 77.607 71.5237 76.6161 71.3824C76.4021 71.368 76.1957 71.2973 76.018 71.1774C75.8029 71.0094 75.7257 70.7171 75.6719 70.4483C75.6437 70.3168 75.6229 70.1839 75.6097 70.0501C75.5948 69.8969 75.6027 69.7424 75.6333 69.5915C75.6572 69.4489 75.7176 69.3149 75.8085 69.2024C75.8995 69.09 76.0179 69.003 76.1524 68.9497C76.0303 68.8527 75.9421 68.7195 75.9003 68.5692C75.8585 68.419 75.8653 68.2593 75.9198 68.1132C75.9742 67.967 76.0735 67.8418 76.2034 67.7555C76.3332 67.6692 76.4871 67.6262 76.6429 67.6326C76.5953 67.1805 76.6393 66.7234 76.7723 66.2886C76.8399 66.071 76.95 65.869 77.0962 65.6943C77.2424 65.5195 77.4218 65.3755 77.6241 65.2705C78.2221 64.9849 78.9882 65.1916 79.4334 65.6821C79.648 65.9361 79.8009 66.2363 79.8799 66.5593C79.9589 66.8823 79.9619 67.2192 79.8887 67.5436C79.9679 67.5521 80.0445 67.577 80.1137 67.6167C80.1828 67.6564 80.243 67.7099 80.2903 67.774C80.3377 67.8381 80.3713 67.9114 80.3889 67.9891C80.4065 68.0668 80.4078 68.1474 80.3927 68.2257C80.5311 68.2274 80.6686 68.2489 80.8009 68.2895C81.0322 68.3561 81.2461 68.4724 81.4278 68.6302C81.6094 68.7881 81.7544 68.9837 81.8526 69.2034C81.9454 69.4323 81.9871 69.6787 81.9746 69.9254C81.9621 70.1721 81.8958 70.4131 81.7804 70.6314Z" fill="#D2B067"/>
<path d="M81.7804 70.6311C81.7312 70.7591 81.6608 70.8778 81.5721 70.9823C81.4272 71.081 81.2606 71.1433 81.0865 71.1637C80.5992 71.282 80.1048 71.3695 79.6065 71.4258C78.6118 71.5381 77.607 71.5234 76.6161 71.3821C76.4021 71.3678 76.1958 71.2971 76.018 71.1771C75.8029 71.0091 75.7257 70.7168 75.6719 70.448C75.6437 70.3166 75.6229 70.1836 75.6097 70.0499C77.0191 70.0789 78.4206 69.8329 79.7358 69.3258C80.0821 69.2196 80.3924 69.0203 80.6329 68.7495C80.7321 68.6136 80.7904 68.4521 80.8009 68.2842C81.0322 68.3508 81.2461 68.4671 81.4278 68.6249C81.6094 68.7828 81.7544 68.9784 81.8526 69.1981C81.9462 69.4277 81.9883 69.675 81.9758 69.9227C81.9633 70.1703 81.8966 70.4121 81.7804 70.6311Z" fill="#AA7729"/>
<path d="M81.7905 71.4072L81.6527 72.3749L81.137 76.0087H76.5388L76.0247 72.3749L75.887 71.4072H81.7905Z" fill="#F2F1D0"/>
<g style="mix-blend-mode:multiply">
<path d="M81.7905 71.4072L81.6527 72.3749H76.0247L75.887 71.4072H81.7905Z" fill="#F2F1D0"/>
</g>
<path d="M81.9619 71.9905H75.7156L75.5493 70.4097H82.1265L81.9619 71.9905Z" fill="#F2F1D0"/>
<g style="mix-blend-mode:overlay" opacity="0.3">
<path d="M77.8072 66.9336C77.8072 67.1923 77.6644 67.4023 77.488 67.4023C77.3116 67.4023 77.1688 67.1923 77.1688 66.9336C77.1688 66.6748 77.3116 66.4648 77.488 66.4648C77.6644 66.4648 77.8072 66.6748 77.8072 66.9336Z" fill="white"/>
<path d="M78.4439 67.4878C78.4439 67.6205 78.3717 67.728 78.2759 67.728C78.1802 67.728 78.1079 67.6205 78.1079 67.4878C78.1079 67.3551 78.1818 67.2476 78.2759 67.2476C78.37 67.2476 78.4439 67.3568 78.4439 67.4878Z" fill="white"/>
<path d="M77.2259 67.9131C77.2259 68.0458 77.152 68.1533 77.0579 68.1533C76.9638 68.1533 76.8899 68.0458 76.8899 67.9131C76.8899 67.7804 76.9638 67.6729 77.0579 67.6729C77.152 67.6729 77.2259 67.7804 77.2259 67.9131Z" fill="white"/>
<path d="M78.365 66.1438C78.365 66.2127 78.328 66.2682 78.281 66.2682C78.234 66.2682 78.1953 66.2127 78.1953 66.1438C78.1953 66.075 78.234 66.0195 78.281 66.0195C78.328 66.0195 78.365 66.0682 78.365 66.1438Z" fill="white"/>
</g>
<path d="M35.5939 69.9242C35.5882 70.3448 35.5103 70.7613 35.3637 71.1556C35.2831 71.3707 35.1806 71.7218 34.9521 71.8276C34.6598 71.9654 34.2583 71.9805 33.9441 72.0259C33.1655 72.1385 32.3786 72.184 31.5921 72.1619H31.4241C31.0189 72.1675 30.6209 72.0536 30.28 71.8343C30.2147 71.7838 30.154 71.7276 30.0986 71.6663C29.8814 71.4083 29.72 71.108 29.6248 70.7843C29.5478 70.5771 29.4916 70.3626 29.4568 70.1443C29.4189 69.9175 29.4275 69.6855 29.482 69.4622C29.598 69.0271 29.9978 68.639 30.4464 68.6776C30.2806 68.5426 30.1745 68.3479 30.1511 68.1354C30.1276 67.9229 30.1885 67.7097 30.3207 67.5418C30.453 67.3738 30.6459 67.2646 30.858 67.2376C31.0701 67.2106 31.2842 67.268 31.4544 67.3975C31.3863 67.0753 31.4341 66.7395 31.5893 66.4491C31.7444 66.1586 31.997 65.9322 32.3026 65.8096C32.6081 65.687 32.9472 65.6761 33.26 65.7788C33.5729 65.8814 33.8395 66.0911 34.013 66.371C34.2586 66.8225 34.3153 67.3528 34.1709 67.846C34.2476 67.8314 34.3268 67.8397 34.3988 67.8698C34.4709 67.8999 34.5324 67.9505 34.5759 68.0153C34.6194 68.08 34.6429 68.1562 34.6435 68.2342C34.6441 68.3123 34.6217 68.3888 34.5792 68.4542C34.7324 68.4558 34.8823 68.4994 35.0126 68.5802C35.1654 68.6743 35.2919 68.8055 35.3805 68.9615C35.536 69.2577 35.6097 69.59 35.5939 69.9242Z" fill="#D2B067"/>
<g style="mix-blend-mode:multiply">
<path d="M35.5938 69.9241C35.5881 70.3448 35.5103 70.7613 35.3637 71.1556C35.283 71.3706 35.1805 71.7217 34.9521 71.8276C34.6597 71.9653 34.2582 71.9805 33.9441 72.0258C33.1654 72.1385 32.3785 72.184 31.5921 72.1619H31.4241C30.9623 72.0722 30.5188 71.9058 30.112 71.6697C29.8947 71.4116 29.7334 71.1113 29.6382 70.7877C29.5612 70.5804 29.5049 70.366 29.4702 70.1476C30.6681 70.4836 31.9701 70.4214 33.1998 70.1812C33.6702 70.0888 34.1541 69.9645 34.5237 69.6587C34.7114 69.5062 34.8537 69.3051 34.9353 69.0774C34.9907 68.9229 34.9655 68.7414 35.0243 68.5835C35.1771 68.6776 35.3036 68.8088 35.3922 68.9649C35.5431 69.2612 35.6126 69.5922 35.5938 69.9241Z" fill="#CFAD65"/>
</g>
<path d="M35.231 71.7251L35.105 72.6138L34.6312 75.9537H30.406L29.9322 72.6138L29.8046 71.7251H35.231Z" fill="#F2F1D0"/>
<g style="mix-blend-mode:multiply">
<path d="M35.231 71.7251L35.105 72.6138H29.9322L29.8046 71.7251H35.231Z" fill="#F2F1D0"/>
</g>
<path d="M35.3889 72.2591H29.6484L29.4955 70.8076H35.5401L35.3889 72.2591Z" fill="#F2F1D0"/>
<g style="mix-blend-mode:overlay" opacity="0.3">
<path d="M32.5313 67.6122C32.5313 67.8508 32.4002 68.044 32.2389 68.044C32.0777 68.044 31.9449 67.8508 31.9449 67.6122C31.9449 67.3736 32.076 67.1821 32.2389 67.1821C32.4019 67.1821 32.5313 67.3753 32.5313 67.6122Z" fill="white"/>
<path d="M33.1176 68.1246C33.1176 68.2456 33.0504 68.3447 32.9664 68.3447C32.8824 68.3447 32.8152 68.2456 32.8152 68.1246C32.8152 68.0036 32.8841 67.9028 32.9664 67.9028C33.0487 67.9028 33.1176 68.002 33.1176 68.1246Z" fill="white"/>
<path d="M30.9184 68.3602C31.0372 68.3602 31.1334 68.2188 31.1334 68.0444C31.1334 67.8699 31.0372 67.7285 30.9184 67.7285C30.7996 67.7285 30.7034 67.8699 30.7034 68.0444C30.7034 68.2188 30.7996 68.3602 30.9184 68.3602Z" fill="white"/>
<path d="M31.997 68.5128C31.997 68.6354 31.9298 68.7345 31.8458 68.7345C31.7618 68.7345 31.6946 68.6354 31.6946 68.5128C31.6946 68.3901 31.7635 68.291 31.8458 68.291C31.9281 68.291 31.997 68.3901 31.997 68.5128Z" fill="white"/>
<path d="M33.0722 66.8816C33.0722 66.9673 33.0251 67.0362 32.9663 67.0362C32.9075 67.0362 32.8605 66.9673 32.8605 66.8816C32.8605 66.7959 32.9075 66.7271 32.9663 66.7271C33.0251 66.7271 33.0722 66.7959 33.0722 66.8816Z" fill="white"/>
</g>
</svg>
