<svg xmlns="http://www.w3.org/2000/svg" width="60" height="28" fill="none"><circle cx="14" cy="14" r="13" fill="#ECF1FA" stroke="#F7F8F8" stroke-width="2"/><path fill="#000091" fill-rule="evenodd" d="M5.534 22.504A4.13 4.13 0 0 1 8.12 20.5l2.94-.72.3-1.14c-.72-.72-1.26-1.8-1.38-2.82a1.02 1.02 0 0 1-.9-.9l-.18-1.5c-.06-.3.06-.6.24-.84.12-.12.24-.24.42-.3l-.077-.3c-.124-.476-.283-1.087-.283-1.38 0-1.98 1.26-2.94 3.84-3 .9-.6 1.98-.6 2.64-.6h.24c1.26 0 2.28.48 2.76 1.32.66.96.24 1.56-.24 2.1l-.3.3v1.74c.12.06.24.12.36.24.18.24.3.6.24.96l-.3 1.5c-.06.48-.36.54-.6.54-.12 1.26-.6 2.34-1.32 3.06l.24 1.08 2.94.72c1.124.254 2.095 1.034 2.687 2.022A11.96 11.96 0 0 1 14 26a11.96 11.96 0 0 1-8.466-3.496" clip-rule="evenodd"/><circle cx="30" cy="14" r="13" fill="#ECF1FA" stroke="#F7F8F8" stroke-width="2"/><path fill="#000091" fill-rule="evenodd" d="M21.534 22.504A4.13 4.13 0 0 1 24.12 20.5l2.94-.72.3-1.14c-.72-.72-1.26-1.8-1.38-2.82a1.02 1.02 0 0 1-.9-.9l-.18-1.5c-.06-.3.06-.6.24-.84.12-.12.24-.24.42-.3l-.077-.3c-.124-.476-.283-1.087-.283-1.38 0-1.98 1.26-2.94 3.84-3 .9-.6 1.98-.6 2.64-.6h.24c1.26 0 2.28.48 2.76 1.32.66.96.24 1.56-.24 2.1l-.3.3v1.74c.12.06.24.12.36.24.18.24.3.6.24.96l-.3 1.5c-.06.48-.36.54-.6.54-.12 1.26-.6 2.34-1.32 3.06l.24 1.08 2.94.72c1.124.254 2.095 1.034 2.687 2.022A11.96 11.96 0 0 1 30 26a11.96 11.96 0 0 1-8.466-3.496" clip-rule="evenodd"/><circle cx="46" cy="14" r="13" fill="#ECF1FA" stroke="#F7F8F8" stroke-width="2"/><path fill="#000091" fill-rule="evenodd" d="M37.61 22.579a4.14 4.14 0 0 1 2.51-1.843l2.94-.723.18-.723c-1.67-.296-2.616-.713-2.937-.855a1 1 0 0 0-.123-.049c-.12-.06-.18-.18-.18-.24 0-.061.06-.182.12-.242 0 0 1.68-1.265 1.68-5.18C41.8 8.445 44.56 7 45.88 7c1.02 0 1.44.241 2.04.723h.24c.96 0 2.1.904 2.1 5 0 3.916 1.68 5.181 1.68 5.181.06.06.12.12.12.241 0 .12-.06.18-.18.241-.06.06-1.08.602-3.12.904l.06.723 2.88.723a4.45 4.45 0 0 1 2.65 1.882A11.96 11.96 0 0 1 46 26a11.96 11.96 0 0 1-8.39-3.421" clip-rule="evenodd"/></svg>