<svg width="16" height="17" viewBox="0 0 16 17" fill="none" xmlns="http://www.w3.org/2000/svg">
<g id="Ic&#195;&#180;ne">
<g id="Ic&#195;&#180;ne_2">
<path fill-rule="evenodd" clip-rule="evenodd" d="M7.99996 9.4917C5.78996 9.4917 3.99996 7.7017 3.99996 5.4917C3.99996 3.2817 5.78996 1.4917 7.99996 1.4917C10.21 1.4917 12 3.2817 12 5.4917C12 7.7017 10.21 9.4917 7.99996 9.4917ZM10.6666 5.4917C10.6666 6.96503 9.47329 8.15837 7.99996 8.15837C6.52663 8.15837 5.33329 6.96503 5.33329 5.4917C5.33329 4.01837 6.52663 2.82503 7.99996 2.82503C9.47329 2.82503 10.6666 4.01837 10.6666 5.4917Z" fill="#000091"/>
<path d="M2.66663 15.4917C2.66663 12.5462 5.05444 10.1584 7.99996 10.1584C10.9455 10.1584 13.3333 12.5462 13.3333 15.4917H12C12 13.2826 10.2091 11.4917 7.99996 11.4917C5.79082 11.4917 3.99996 13.2826 3.99996 15.4917H2.66663Z" fill="#000091"/>
</g>
</g>
</svg>
