<svg width="212" height="69" viewBox="0 0 212 69" fill="none" xmlns="http://www.w3.org/2000/svg">
    <g clip-path="url(#clip0_17653_535242)">
        <path d="M96.9798 36.2309C97.5334 36.2827 97.6248 36.4632 98.1784 36.515C98.3502 38.304 99.1317 40.0342 100.381 41.3935C99.8095 41.8038 99.2165 41.9509 98.6449 42.3612C97.501 40.5306 96.978 38.3561 96.9798 36.2309Z" fill="black"/>
        <path d="M110.363 58.3329C112.505 56.1339 114.646 53.7224 116.788 51.5238C117.04 51.9191 117.139 52.2927 117.391 52.6879C115.007 54.9864 112.877 57.5134 111.043 60.2164C110.893 59.412 110.513 59.1373 110.363 58.3329Z" fill="black"/>
        <path d="M112.988 81.2775C112.48 72.0554 111.972 62.8329 111.464 53.6109C110.139 53.9584 108.897 54.284 107.572 54.6311C107.843 63.6784 108.293 72.8448 108.563 81.8925L112.988 81.2775Z" fill="black"/>
        <path d="M104.813 64.1159C106.844 62.8189 109.315 62.0801 111.762 62.2371C114.209 62.3941 116.606 63.4918 118.073 65.3235C119.541 67.1551 119.983 69.7174 119.024 71.8339C118.018 74.0537 115.659 75.541 113.183 76.2079C110.707 76.8747 108.09 76.8385 105.517 76.7974C102.554 76.7498 99.4928 75.3689 97.5025 73.3251C96.2985 72.0884 95.409 70.509 95.376 68.8327C95.3364 66.8175 96.6405 64.8256 98.5805 63.9378C100.52 63.05 103.148 62.8447 104.813 64.1159Z" fill="#00804F"/>
        <path d="M122.254 51.7231C125.039 50.4135 127.213 47.9257 127.823 45.0707C128.706 40.9316 126.134 36.5582 122.234 34.4625C118.333 32.3672 113.406 32.349 109.149 33.758C104.891 35.1669 101.238 37.8741 98.1433 40.9556C96.6236 42.4687 95.1786 44.1505 94.6066 46.1541C93.9572 48.4286 94.5384 50.9195 95.8943 52.8928C97.8787 55.7805 101.533 57.5891 105.212 57.5039C108.825 57.4199 110.891 55.5938 113.591 53.6947C114.62 52.9706 115.48 52.9118 116.746 52.8746C118.674 52.8176 120.509 52.544 122.254 51.7231Z" fill="#00804F"/>
        <path d="M121.595 43.9258C121.091 45.7048 118.823 46.8546 116.961 46.2739C116.101 46.006 115.334 45.4304 114.426 45.3996C113.254 45.3597 112.289 46.2275 111.187 46.6108C109.526 47.1891 107.48 46.506 106.594 45.078" stroke="black" stroke-width="0.4" stroke-miterlimit="10" stroke-linecap="round" stroke-linejoin="round"/>
        <path d="M95.0547 64.3937C96.4984 65.2283 97.9543 66.0683 99.5479 66.6177C101.142 67.167 102.902 67.4116 104.554 67.0227C107.031 66.4396 109.025 64.3467 109.359 61.9799C109.692 59.613 108.344 57.1242 106.109 55.9836C101.925 53.8473 96.2252 53.0929 91.8127 54.8284C90.2101 55.4587 88.6474 56.4102 87.8679 57.8639C86.9783 59.5226 87.3442 61.6885 88.7355 62.9991C90.1269 64.3096 93.2751 65.2137 95.0547 64.3937Z" fill="#329D61"/>
        <path d="M100.45 59.8983C99.9045 60.8057 98.8169 61.4065 97.7061 61.414C96.5953 61.4216 95.5051 60.836 94.9549 59.9363" stroke="black" stroke-width="0.4" stroke-miterlimit="10" stroke-linecap="round" stroke-linejoin="round"/>
        <path d="M108.122 32.5953C107.838 34.3254 106.493 35.7618 104.957 36.7661C102.253 38.5339 98.4107 39.1733 95.7055 37.4344C93.6976 36.1436 92.6867 33.6357 93.2797 31.4169C94.0024 28.7126 97.5213 26.0347 100.544 26.1366C104.237 26.2607 108.788 28.5244 108.122 32.5953Z" fill="#329D61"/>
        <path d="M99.1667 34.8271C98.8351 35.403 98.1524 35.7877 97.4542 35.7911C96.7565 35.7949 96.0729 35.4175 95.7411 34.8453" stroke="black" stroke-width="0.4" stroke-miterlimit="10" stroke-linecap="round" stroke-linejoin="round"/>
        <path d="M13.8289 99.7231C10.4509 90.3529 8.61119 80.5055 8.3941 70.6337C19.3727 68.2442 30.2521 65.4162 41.262 63.1531C45.3509 62.3127 49.4399 61.4723 53.5284 60.6319C59.679 73.7207 63.6762 87.7738 65.6521 101.932L13.8289 99.7231Z" fill="#A5D6FF"/>
        <path d="M51.7998 63.6328C53.8695 66.2644 55.9393 68.8955 58.0095 71.5272" stroke="black" stroke-width="0.4" stroke-miterlimit="10" stroke-linecap="round" stroke-linejoin="round"/>
        <path d="M74.8262 91.6684C74.2521 89.502 75.089 87.1852 76.4974 85.3944C77.9062 83.6033 79.8373 82.2431 81.7396 80.9098C78.1862 70.8459 73.0271 60.9502 66.7523 52.1142C62.9528 46.7636 57.0283 42.566 53.4308 37.0954C57.4803 34.9779 61.3158 32.3407 65.3658 30.2232C70.7831 35.0646 75.8443 40.3559 80.4084 45.913C88.8469 56.1872 93.1398 69.3167 93.3953 82.2382C93.4184 83.409 92.8355 84.3422 92.3424 85.4161C91.8488 86.49 91.0718 87.4859 89.9816 88.0573C88.1118 89.037 85.7868 88.5949 83.695 88.1263C83.056 89.5413 81.3016 90.7969 79.8088 91.4367C78.3161 92.0756 76.396 92.1366 74.8262 91.6684Z" fill="#BE4F4F"/>
        <path d="M29.469 69.3856C39.105 69.3461 48.5548 66.2552 56.1659 60.7659C56.7052 53.0809 57.2083 45.5769 57.748 37.8919C61.6206 35.7046 65.4775 33.6481 69.3501 31.4612C64.362 27.6569 58.616 24.5925 52.6012 22.4643C49.1913 21.2575 45.7814 20.0512 42.3716 18.8445C37.3409 20.5789 32.1963 22.226 27.1656 23.9605C22.5183 29.974 19.3425 36.9564 17.4281 44.1666C16.5269 47.5613 15.9507 51.0645 16.1909 54.5607C16.4311 58.0568 17.5262 61.5589 19.7248 64.4041C21.9234 67.2494 25.753 68.9348 29.469 69.3856Z" fill="#83D168"/>
        <path d="M50.394 21.6855C53.5569 24.8958 56.0382 28.701 56.6708 33.0175C56.9561 34.9657 57.2418 36.9135 57.5271 38.8617" stroke="black" stroke-width="0.4" stroke-miterlimit="10" stroke-linecap="round" stroke-linejoin="round"/>
        <path d="M57.2223 36.1726C60.6344 34.2034 64.046 32.2346 67.4581 30.2654" stroke="black" stroke-width="0.4" stroke-miterlimit="10" stroke-linecap="round" stroke-linejoin="round"/>
        <path d="M37.3045 66.0958C43.0877 65.5795 48.6733 63.3579 53.0711 59.8256" stroke="black" stroke-width="0.4" stroke-miterlimit="10" stroke-linecap="round" stroke-linejoin="round"/>
        <path d="M85.0548 45.9914C87.5738 42.9143 90.0928 39.8372 92.6113 36.7596C92.0519 36.6695 91.4218 36.5837 90.8624 36.4935C88.8207 38.7528 86.779 41.0125 84.7369 43.2717C84.8717 44.3057 84.92 44.9578 85.0548 45.9914Z" fill="black"/>
        <path d="M78.5973 92.4004C79.6563 72.4453 81.1645 52.3139 82.2234 32.3588C80.5851 32.1037 79.0627 31.9579 77.4244 31.7028C76.4206 51.8428 75.4163 71.9832 74.4126 92.1232C75.6723 92.1486 77.3375 92.3754 78.5973 92.4004Z" fill="black"/>
        <path d="M77.0102 66.4734C75.6025 64.281 74.0427 62.2105 72.6344 60.018C72.1613 60.0364 71.8371 60.3669 71.3635 60.3853C73.0667 63.2342 74.7705 66.0832 76.4737 68.9322C76.7702 68.0934 76.7146 67.3122 77.0102 66.4734Z" fill="black"/>
        <path d="M45.6598 57.1885C44.2054 55.8054 43.9305 53.5703 44.6861 51.7731C45.4417 49.9759 47.0828 48.5996 48.9301 47.7379C50.7774 46.8763 52.8309 46.4782 54.8731 46.1792C62.0293 45.1313 69.3542 45.2024 76.5458 46.0899C80.2323 46.5449 84.0151 47.2611 87.0696 49.2553C90.1241 51.2494 92.2791 54.8188 91.4425 58.2008C90.6181 61.5319 87.1733 63.7914 83.6354 64.6526C80.0975 65.5139 76.3729 65.2894 72.7183 65.4666C69.866 65.6048 67.0268 65.9915 64.1694 65.9677C61.3125 65.944 58.3742 65.4776 55.9502 64.051C54.8943 63.4297 53.9612 62.6107 53.2452 61.6544C52.5645 60.7457 52.4594 59.3187 51.7709 58.5268C51.0273 57.6717 50.033 58.2545 49.0567 58.3271C47.8251 58.4188 46.536 58.0221 45.6598 57.1885Z" fill="#329D61"/>
        <path d="M63.0527 58.6816C64.1514 60.084 65.8841 61.0382 67.7249 61.2551C69.5658 61.472 71.4891 60.9483 72.9119 59.843C74.4369 61.1312 76.8344 61.4169 78.6437 60.5251" stroke="black" stroke-width="0.4" stroke-miterlimit="10" stroke-linecap="round" stroke-linejoin="round"/>
        <path d="M83.9544 9.46862C80.2651 6.27078 74.9087 4.77558 70.0094 5.76223C65.1104 6.7489 60.8484 10.2657 59.3933 14.7488C57.8101 19.6274 59.6646 25.2285 63.6047 28.7822C66.5256 31.4161 70.5363 32.997 74.5831 32.9847C78.6298 32.9723 82.6572 31.3354 85.3205 28.4985C90.4104 23.0775 89.5778 14.3427 83.9544 9.46862Z" fill="#00804F"/>
        <path d="M63.6255 13.8574C63.9038 15.3519 65.2577 16.6223 66.8547 16.8876C68.4517 17.1529 70.1799 16.3946 70.9769 15.0789" stroke="black" stroke-width="0.4" stroke-miterlimit="10" stroke-linecap="round" stroke-linejoin="round"/>
        <path d="M80.0756 18.4029C75.3837 18.2838 70.8358 21.4251 69.5846 25.6492C68.3335 29.8732 70.497 34.7834 74.5751 36.9761C76.2945 41.4679 80.9449 44.3903 86.0194 44.8235C91.0939 45.2563 96.1257 43.6298 100.608 41.39C103.012 40.1886 105.386 38.7362 106.844 36.5828C108.872 33.5859 108.756 29.5745 107.069 26.3809C105.382 23.1869 102.301 20.7656 98.8792 19.2003C93.2508 16.6248 86.3265 18.5619 80.0756 18.4029Z" fill="#329D61"/>
        <path d="M84.303 34.7505C85.0181 36.3628 87.0133 37.2816 88.8702 37.1512C90.7272 37.0208 92.4083 35.997 93.6147 34.6757C94.0595 35.1505 94.8977 35.634 95.5713 35.6341C96.2444 35.6339 96.9104 35.3495 97.3497 34.8743" stroke="black" stroke-width="0.4" stroke-miterlimit="10" stroke-linecap="round" stroke-linejoin="round"/>
        <path d="M65.5816 89.0955C66.4348 89.01 67.2881 88.9241 68.1414 88.8386C68.6123 88.7912 69.0913 88.7423 69.5262 88.5677C69.9611 88.3931 70.3873 88.0524 70.5118 87.625C68.3583 86.8946 66.2281 86.3741 64.0746 85.6432C60.5173 81.6018 57.7209 76.912 53.2891 73.7156C43.292 66.505 31.7008 60.7824 19.7179 57.104C20.9769 52.077 22.1611 46.9886 23.4201 41.962C18.2757 40.1732 13.0244 38.2764 7.87994 36.4876C4.50736 42.8498 2.40755 49.8049 1.72172 56.8886C1.29748 61.2692 1.6954 66.028 4.15052 69.7943C6.60564 73.5606 10.6234 76.4141 15.158 77.6124C26.1649 80.5207 37.0002 83.8527 48.0808 86.4982C50.0581 91.4576 54.7222 95.3299 60.2153 96.5922C61.6288 96.9169 62.6983 97.9011 64.1107 98.2298C64.5717 98.3371 65.116 98.3986 65.4693 98.104C64.6845 97.3953 63.9168 96.6364 63.1319 95.9277C64.4834 96.5557 65.7574 97.0091 67.1088 97.6376C67.634 97.882 68.1696 98.1294 68.7483 98.2146C69.3269 98.2997 69.9663 98.1991 70.3877 97.8212C70.6727 98.0415 71.1451 97.9433 71.5062 97.8763C71.8673 97.8094 72.1903 97.5832 72.3605 97.2783C72.0585 97.0062 71.6864 96.6876 71.3849 96.4155C71.4682 96.3087 71.5512 96.1376 71.634 96.0304C69.7939 93.6801 67.4217 91.4449 65.5816 89.0955Z" fill="#BE4F4F"/>
        <path d="M19.8619 56.9732C18.1885 56.9075 16.4999 57.4353 15.2097 58.4271" stroke="black" stroke-width="0.4" stroke-miterlimit="10" stroke-linecap="round" stroke-linejoin="round"/>
        <path d="M4.62266 37.7215C7.17814 34.1765 10.2173 30.9376 13.6437 28.1079C18.716 23.9188 24.8899 20.7384 31.1566 18.3375C31.9904 18.0182 32.8351 18.8411 33.2863 19.5751C33.737 20.3086 33.8916 21.166 33.9783 22.0064C34.3985 26.0756 33.4074 30.1786 31.7661 33.9569C30.1247 37.7352 27.8475 41.2359 25.58 44.7177L4.62266 37.7215Z" fill="#83D168"/>
        <path d="M29.6029 20.28C29.1967 22.1627 30.0161 24.2362 31.6367 25.4271C33.2573 26.6179 35.6031 26.8696 37.459 26.052C39.3148 25.2344 40.5939 23.386 40.6332 21.4639" stroke="black" stroke-width="0.4" stroke-miterlimit="10" stroke-linecap="round" stroke-linejoin="round"/>
        <path d="M23.2388 22.7266C24.2573 23.0073 25.0429 23.8078 25.4894 24.7092C25.9359 25.6106 26.0873 26.6113 26.1948 27.5983C26.7276 32.4782 26.3167 37.4423 24.9886 42.1783" stroke="black" stroke-width="0.4" stroke-miterlimit="10" stroke-linecap="round" stroke-linejoin="round"/>
        <path d="M17.5317 37.2988C20.1604 38.4192 22.7886 39.5391 25.4173 40.6594" stroke="black" stroke-width="0.4" stroke-miterlimit="10" stroke-linecap="round" stroke-linejoin="round"/>
        <path d="M40.5505 12.8503C41.5533 12.5862 42.5458 12.183 43.2678 11.4827C43.9898 10.7823 44.3951 9.7375 44.0866 8.80412C43.7787 7.87077 42.6536 7.109 41.6675 7.42191C41.7092 6.34942 40.9079 5.29328 39.8103 4.97383C38.7132 4.6544 37.3468 5.26793 36.74 6.17605C33.7868 5.61299 30.5375 7.04084 29.1264 9.52098C27.7153 12.0011 28.259 15.3296 30.3997 17.3195C31.8676 18.6839 34.8036 18.2796 36.6804 17.486C38.5577 16.692 40.0797 14.7274 40.5505 12.8503Z" fill="black"/>
        <path d="M27.9095 9.25934C28.3232 9.39548 28.7363 9.53205 29.15 9.66819C28.9892 9.23356 28.829 8.79895 28.6683 8.36432" stroke="black" stroke-width="0.4" stroke-miterlimit="10" stroke-linecap="round" stroke-linejoin="round"/>
        <path d="M36.596 6.447C36.645 5.7572 37.0048 5.09253 37.5699 4.64942C38.135 4.20587 38.8976 3.9898 39.633 4.06415" stroke="black" stroke-width="0.4" stroke-miterlimit="10" stroke-linecap="round" stroke-linejoin="round"/>
        <path d="M38.5825 22.2926C38.1609 23.45 37.0395 24.3557 35.7533 24.5784C34.4671 24.8007 33.066 24.3311 32.2191 23.3931C31.3722 22.4551 31.2143 21.221 31.665 20.0736C30.6914 20.2756 29.6061 19.9085 28.9926 19.169C28.3787 18.4296 28.2683 17.3564 28.7199 16.5265C29.1715 15.6965 30.1629 15.1516 31.1607 15.1854C31.4923 15.6972 32.0426 16.1886 32.3748 16.7004C33.2133 15.0744 33.9307 13.4098 34.7692 11.7843C35.2556 12.361 36.1077 12.6445 36.871 12.4833C37.6343 12.3221 38.2693 11.7244 38.437 11.0098C39.163 11.9195 40.8763 11.7345 41.8037 11.0119C42.4849 12.7578 43.1516 14.3617 43.8328 16.1075C44.4071 17.5786 43.9351 19.2306 42.9319 20.4761C41.9292 21.7217 40.2535 22.3449 38.5825 22.2926Z" fill="#BE4F4F"/>
        <path d="M29.8989 16.959C30.4417 17.061 30.9844 17.1625 31.5276 17.2645" stroke="black" stroke-width="0.4" stroke-miterlimit="10" stroke-linecap="round" stroke-linejoin="round"/>
        <path d="M35.3818 21.668C36.3433 22.0913 37.3933 22.3362 38.453 22.3845" stroke="black" stroke-width="0.4" stroke-miterlimit="10" stroke-linecap="round" stroke-linejoin="round"/>
        <path d="M34.9348 15.7737C35.0374 15.2853 35.3821 14.8469 35.8495 14.6099C36.3169 14.3728 36.8992 14.3418 37.3947 14.5275" stroke="black" stroke-width="0.4" stroke-miterlimit="10" stroke-linecap="round" stroke-linejoin="round"/>
        <path d="M40.2067 13.8669C40.3788 13.4775 40.7301 13.161 41.1534 13.0154C41.5767 12.8698 42.0647 12.8966 42.4686 13.0876" stroke="black" stroke-width="0.4" stroke-miterlimit="10" stroke-linecap="round" stroke-linejoin="round"/>
        <path d="M42.1143 16.5689C42.3772 16.5792 42.5981 16.3883 42.6077 16.1426C42.6174 15.8968 42.4121 15.6892 42.1493 15.6789C41.8864 15.6685 41.6655 15.8594 41.6559 16.1052C41.6462 16.3509 41.8515 16.5586 42.1143 16.5689Z" fill="black"/>
        <path d="M37.1138 18.0376C37.3767 18.048 37.5976 17.8571 37.6072 17.6113C37.6169 17.3655 37.4116 17.1579 37.1488 17.1476C36.8859 17.1373 36.665 17.3281 36.6554 17.5739C36.6457 17.8197 36.851 18.0273 37.1138 18.0376Z" fill="black"/>
        <path d="M39.7739 16.7754C40.0826 17.3397 40.3907 17.9041 40.6994 18.4684C40.4581 18.5191 40.2168 18.5698 39.9756 18.62" stroke="black" stroke-width="0.4" stroke-miterlimit="10" stroke-linecap="round" stroke-linejoin="round"/>
        <path d="M38.3179 19.1367C38.3553 19.3842 38.5362 19.6097 38.7805 19.7125C39.0248 19.8152 39.3241 19.7922 39.5459 19.6538" stroke="black" stroke-width="0.4" stroke-miterlimit="10" stroke-linecap="round" stroke-linejoin="round"/>
        <path d="M167.356 14.759C168.569 15.5714 169.706 16.3516 170.919 17.1641C170.546 17.6268 169.55 17.9141 168.925 17.9138C168.305 17.9137 167.687 17.6267 167.309 17.1637C166.732 17.6525 165.91 17.8883 165.133 17.7796C164.361 17.6761 163.357 17.3592 162.949 16.7342C162.607 16.8231 162.256 16.887 161.9 16.9171C159.986 17.1096 157.979 16.4999 156.569 15.2611C155.939 14.7007 155.389 13.992 154.982 13.2117C154.308 11.9381 154.001 10.4697 154.302 9.17121C153.801 8.9373 153.107 8.83684 152.605 8.60293C154.309 7.13541 156.082 7.62403 157.81 8.05249C159.211 5.79885 160.78 3.52716 162.177 1.26841C163.248 1.31052 162.958 3.92438 162.576 4.76664C163.399 4.37014 164.222 3.97404 165.045 3.57754C165.841 5.06022 165.913 6.9338 164.973 8.32857C167.368 7.56046 169.764 6.78744 172.159 6.01933C172.856 7.22552 171.285 9.02433 169.878 9.57796C170.617 9.32946 171.445 9.99517 171.547 10.7249C171.643 11.4593 171.224 12.1735 170.718 12.7333C169.841 13.6976 168.657 14.4158 167.356 14.759Z" fill="#DECFBE"/>
        <path d="M165.372 8.06833C163.806 8.53726 162.24 9.00618 160.674 9.47511C159.549 8.97818 158.338 8.4089 157.212 7.91197" stroke="black" stroke-width="0.4" stroke-miterlimit="10" stroke-linecap="round" stroke-linejoin="round"/>
        <path d="M163.539 11.2924C164.882 11.0278 166.225 10.7632 167.568 10.4986" stroke="black" stroke-width="0.4" stroke-miterlimit="10" stroke-linecap="round" stroke-linejoin="round"/>
        <path d="M164.926 12.4999C165.787 12.3525 166.649 12.2051 167.511 12.0577" stroke="black" stroke-width="0.4" stroke-miterlimit="10" stroke-linecap="round" stroke-linejoin="round"/>
        <path d="M161.901 16.9171C159.987 17.1096 157.979 16.4999 156.569 15.2612C155.94 14.7007 155.39 13.9921 154.983 13.2117C156.436 13.0838 157.93 13.1084 159.264 13.6476C160.679 14.2192 161.863 15.5029 161.901 16.9171Z" fill="#F94B28"/>
        <path d="M208.152 74.0378C208.088 68.6016 208.023 63.1649 207.958 57.7287C207.921 54.6299 207.88 51.5034 207.141 48.4794C206.401 45.4554 204.819 42.4369 202.194 40.5339C200.229 39.1104 196.005 36.3874 196.005 36.3874C196.005 36.3874 191.176 34.6504 188.659 34.134C183.653 33.1074 178.291 33.7146 173.709 35.827C175.625 47.6906 176.609 59.6192 177.018 71.6041L208.152 74.0378Z" fill="white"/>
        <path d="M188.827 35.3211C188.32 36.2278 188.199 37.3193 188.498 38.3073C188.797 39.2954 189.512 40.1701 190.454 40.7C191.821 41.4696 193.587 41.4745 195.053 40.9023C196.52 40.3302 197.703 39.2343 198.545 37.9744" stroke="black" stroke-width="0.4" stroke-miterlimit="10" stroke-linecap="round" stroke-linejoin="round"/>
        <path d="M182.312 33.836C181.086 37.5877 179.858 41.3398 178.631 45.0915" stroke="black" stroke-width="0.4" stroke-miterlimit="10" stroke-linecap="round" stroke-linejoin="round"/>
        <path d="M185.054 46.5366C187.612 45.1883 190.301 44.0549 193.076 43.1531C195.188 42.4667 197.448 41.9102 199.649 42.3079C201.824 42.7009 203.773 44.0563 204.848 45.8715C205.923 47.6863 206.12 49.9234 205.424 51.8852C204.597 54.2205 202.629 56.0462 200.507 57.4969C198.386 58.9476 196.047 60.1183 194.018 61.6808" stroke="black" stroke-width="0.4" stroke-miterlimit="10" stroke-linecap="round" stroke-linejoin="round"/>
        <path d="M186.897 45.6055C189.646 50.6304 192.396 55.6556 195.145 60.6805" stroke="black" stroke-width="0.4" stroke-miterlimit="10" stroke-linecap="round" stroke-linejoin="round"/>
        <path d="M173.177 52.382C170.938 52.9617 168.699 53.5411 166.461 54.1209C164.31 54.6779 162.143 55.2373 159.915 55.3963C157.688 55.5552 155.37 55.2886 153.408 54.2773C151.486 53.2865 149.99 51.5894 149.319 49.6365C148.647 47.6837 148.879 45.4546 149.927 43.6611C151.415 41.1143 153.02 38.9195 154.508 36.3728C150.276 34.0385 147.107 29.8882 146.485 25.3381C146.223 23.4264 145.967 21.6032 145.705 19.6914C145.909 19.6558 146.282 19.6675 146.486 19.6319C146.308 18.7062 146.28 16.851 146.28 16.851C146.455 16.8803 146.587 16.9329 146.762 16.9621C146.634 16.4395 146.579 16.0169 146.452 15.4947C146.769 15.2368 147.291 15.343 147.595 15.6177C147.898 15.8924 148.037 16.2849 148.165 16.6608C148.434 17.4482 148.849 18.1637 149.117 18.9511C148.993 18.2418 148.898 17.3944 148.774 16.6851C149.068 16.4957 149.491 16.5836 149.768 16.7977C150.044 17.0118 150.208 17.3242 150.364 17.6265C151.314 19.4678 151.702 21.8319 153.189 23.3326C153.649 23.7966 154.491 24.3256 154.951 24.7896C154.727 23.0169 154.503 21.2447 154.278 19.472C154.225 19.0544 154.173 18.6246 154.288 18.2189C154.403 17.8132 154.726 17.4308 155.168 17.3564C157.012 20.7093 158.985 24.137 160.83 27.4899C163.261 28.79 164.613 31.393 164.716 34.0044C164.817 36.6159 163.975 39.1648 163.141 41.6546C165.554 40.9968 167.751 40.3998 170.241 40.0703L173.177 52.382Z" fill="#FFCAAC"/>
        <path d="M163.228 41.3865C162.617 44.2922 161.636 47.1277 160.313 49.8151" stroke="black" stroke-width="0.4" stroke-miterlimit="10" stroke-linecap="round" stroke-linejoin="round"/>
        <path d="M154.366 36.3262C154.727 36.5436 155.087 36.7614 155.448 36.9788" stroke="black" stroke-width="0.4" stroke-miterlimit="10" stroke-linecap="round" stroke-linejoin="round"/>
        <path d="M146.187 19.6258C146.454 19.5635 146.737 19.7055 146.908 19.9089C147.078 20.112 147.158 20.3665 147.234 20.6145C147.801 22.4537 148.367 24.2924 148.934 26.1316" stroke="black" stroke-width="0.4" stroke-miterlimit="10" stroke-linecap="round" stroke-linejoin="round"/>
        <path d="M146.614 16.8477C147.35 17.051 147.659 17.8502 147.861 18.5429C148.493 20.7066 149.125 22.8702 149.757 25.0335" stroke="black" stroke-width="0.4" stroke-miterlimit="10" stroke-linecap="round" stroke-linejoin="round"/>
        <path d="M148.923 18.3613C149.706 20.3629 150.488 22.3645 151.271 24.3661" stroke="black" stroke-width="0.4" stroke-miterlimit="10" stroke-linecap="round" stroke-linejoin="round"/>
        <path d="M151.329 29.0231C151.963 28.2089 152.596 27.3947 153.23 26.5805" stroke="black" stroke-width="0.4" stroke-miterlimit="10" stroke-linecap="round" stroke-linejoin="round"/>
        <path d="M188.836 29.5807C187.815 29.9592 186.528 29.5613 185.943 28.6864C185.358 27.8115 185.542 26.5591 186.356 25.8699C186.02 25.3938 185.823 24.6687 186.151 24.1906C186.478 23.7124 187.121 23.4427 187.722 23.5308C187.734 22.9811 187.797 22.4235 188.139 21.9782C188.669 21.2904 189.551 20.8526 190.458 20.8272C191.366 20.8018 192.279 21.1891 192.859 21.8455C193.537 21.0027 194.638 20.6786 195.691 21.0695C196.743 21.4604 197.45 22.5491 197.333 23.6004C197.697 23.3474 198.234 23.3367 198.612 23.5745C198.991 23.8123 199.184 24.2821 199.073 24.6944C200.137 24.4734 201.252 24.9912 201.74 25.9063C202.228 26.8214 201.963 28.03 201.131 28.6859C201.894 28.8766 202.435 29.5151 202.454 30.2529C202.474 30.9908 201.925 31.7074 201.172 31.9262C201.518 32.4596 201.367 33.1893 200.927 33.6539C200.487 34.1185 199.815 34.3454 199.152 34.3967C198.489 34.4476 197.825 34.3411 197.169 34.2346L188.836 29.5807Z" fill="#772227"/>
        <path d="M190.084 20.3503C190.763 20.2409 191.49 20.4063 192.041 20.7968C192.592 21.187 192.96 21.7964 193.033 22.4381" stroke="#772227" stroke-width="0.4" stroke-miterlimit="10" stroke-linecap="round" stroke-linejoin="round"/>
        <path d="M199.508 23.5448C199.561 24.0272 199.351 24.5271 198.963 24.8458C199.355 24.5234 200.016 24.35 200.539 24.3493" stroke="#772227" stroke-width="0.4" stroke-miterlimit="10" stroke-linecap="round" stroke-linejoin="round"/>
        <path d="M196.605 37.5005C196.54 36.8419 196.501 36.2186 196.435 35.5601C197.217 35.5047 198.033 35.2865 198.551 34.7381C199.158 34.0947 199.2 33.0449 198.646 32.3555C198.091 31.666 196.973 31.3434 196.142 31.7085C196.048 30.7933 195.874 29.831 195.78 28.9154C195.625 29.1713 195.24 29.2324 194.943 29.1339C194.645 29.0354 194.412 28.8192 194.182 28.6168C193.951 28.414 193.698 28.2114 193.389 28.1527C192.98 28.0752 192.576 28.2637 192.172 28.3577C191.266 28.5686 190.242 28.2645 189.629 27.6015C188.862 28.8131 188.148 30.0666 187.659 31.3991C187.292 32.3986 187.267 33.457 187.735 34.4236C188.202 35.3898 189.114 36.1609 190.189 36.4977C190.175 36.8679 190.241 37.3088 190.227 37.6791C190.179 38.8871 191.965 39.6629 193.258 39.6936C194.55 39.7246 195.996 38.564 196.605 37.5005Z" fill="#FFCAAC"/>
        <path d="M196.382 33.3198C196.846 33.1848 197.31 33.0503 197.774 32.9153" stroke="black" stroke-width="0.4" stroke-miterlimit="10" stroke-linecap="round" stroke-linejoin="round"/>
        <path d="M190.1 36.5469C190.75 36.9739 191.593 37.1322 192.365 36.9718" stroke="black" stroke-width="0.4" stroke-miterlimit="10" stroke-linecap="round" stroke-linejoin="round"/>
        <path d="M195.899 35.4121C196.065 35.4607 196.231 35.5093 196.397 35.5579" stroke="black" stroke-width="0.4" stroke-miterlimit="10" stroke-linecap="round" stroke-linejoin="round"/>
        <path d="M189.074 30.6324C189.297 30.6412 189.485 30.4788 189.494 30.2698C189.502 30.0607 189.327 29.8841 189.104 29.8753C188.88 29.8665 188.692 30.0289 188.684 30.2379C188.676 30.447 188.85 30.6236 189.074 30.6324Z" fill="black"/>
        <path d="M192.97 31.5992C193.193 31.608 193.381 31.4456 193.39 31.2366C193.398 31.0275 193.223 30.8509 193 30.8421C192.776 30.8333 192.588 30.9957 192.58 31.2047C192.572 31.4138 192.746 31.5904 192.97 31.5992Z" fill="black"/>
        <path d="M190.82 30.6397C190.478 31.0957 190.136 31.5516 189.793 32.0072C190.114 32.0956 190.435 32.1844 190.755 32.2729" stroke="black" stroke-width="0.4" stroke-miterlimit="10" stroke-linecap="round" stroke-linejoin="round"/>
        <path d="M191.124 33.1477C191.287 33.3361 191.553 33.4417 191.81 33.4203C192.068 33.3989 192.309 33.2514 192.431 33.0394" stroke="black" stroke-width="0.4" stroke-miterlimit="10" stroke-linecap="round" stroke-linejoin="round"/>
        <path d="M188.846 28.5133C189.248 28.2242 189.917 28.3616 190.156 28.7828" stroke="black" stroke-width="0.4" stroke-miterlimit="10" stroke-linecap="round" stroke-linejoin="round"/>
        <path d="M192.384 29.3355C192.969 29.1188 193.715 29.4325 193.932 29.9863" stroke="black" stroke-width="0.4" stroke-miterlimit="10" stroke-linecap="round" stroke-linejoin="round"/>
        <path d="M185.345 47.4386C184.225 47.8352 183.004 48.5982 181.884 48.9948C179.281 43.9821 176.677 38.9694 174.074 33.9567C171.342 34.8768 168.39 35.8661 165.657 36.7859C167.273 43.0466 168.633 49.3141 170.249 55.5752C171.095 58.8556 173.334 62.0325 176.698 63.257C179.305 64.2057 182.249 64.0419 184.925 63.3072C187.6 62.5725 190.063 61.3012 192.501 60.0396L185.345 47.4386Z" fill="#FFCAAC"/>
        <path d="M181.967 48.7051C182.214 49.4663 182.462 50.2279 182.709 50.9891" stroke="black" stroke-width="0.4" stroke-miterlimit="10" stroke-linecap="round" stroke-linejoin="round"/>
        <path d="M166.629 40.7168C167.562 44.9253 168.496 49.1335 169.43 53.342" stroke="black" stroke-width="0.4" stroke-miterlimit="10" stroke-linecap="round" stroke-linejoin="round"/>
        <path d="M170.804 40.8202C165.813 39.1666 162.482 34.8924 160.31 30.3743C159.016 27.6831 157.605 24.9394 156.311 22.2481C156.536 22.1364 156.854 21.9934 157.079 21.8817C156.725 21.5402 156.409 21.1964 156.055 20.8549C156.192 20.392 156.777 20.1511 157.288 20.2118C157.799 20.2724 158.244 20.5587 158.653 20.8512C159.063 21.1437 159.594 21.5888 160.088 21.7246C159.828 21.0475 159.625 20.459 159.364 19.7818C159.686 19.4214 160.298 19.3992 160.754 19.6025C161.21 19.8058 161.546 20.1819 161.867 20.5463C163.741 22.6746 165.614 24.7786 167.489 26.9069C168.455 27.1954 169.548 27.5295 170.514 27.8181C171.693 26.8495 172.583 25.5763 173.059 24.1762C173.25 23.6161 173.381 23.026 173.716 22.5296C174.051 22.0332 174.664 21.6409 175.283 21.7532C175.556 25.4842 175.382 29.1904 174.899 32.8989C174.531 35.7232 172.98 38.8389 170.804 40.8202Z" fill="#FFCAAC"/>
        <path d="M160.049 21.3086C161.071 23.8591 162.338 26.3249 163.831 28.666" stroke="black" stroke-width="0.4" stroke-miterlimit="10" stroke-linecap="round" stroke-linejoin="round"/>
        <path d="M156.997 21.7832C158.652 23.9696 160.399 26.9896 162.053 29.1759" stroke="black" stroke-width="0.4" stroke-miterlimit="10" stroke-linecap="round" stroke-linejoin="round"/>
        <path d="M160.7 29.7994C159.509 27.8098 158.318 25.8206 157.127 23.831C156.838 23.3483 156.59 22.8245 156.325 22.3303C156.468 22.0886 156.678 21.8637 156.974 21.8632C156.66 21.5229 156.314 21.1457 156 20.8054C156.122 20.5114 156.322 20.2926 156.657 20.2515" stroke="black" stroke-width="0.4" stroke-miterlimit="10" stroke-linecap="round" stroke-linejoin="round"/>
        <path d="M157.693 24.8535C158.647 26.932 159.601 29.0104 160.555 31.0889C161.51 33.1709 162.975 34.9907 164.468 36.7764" stroke="black" stroke-width="0.4" stroke-miterlimit="10" stroke-linecap="round" stroke-linejoin="round"/>
    </g>
    <defs>
        <clipPath id="clip0_17653_535242">
            <rect width="212" height="68" fill="white" transform="translate(0 0.650391)"/>
        </clipPath>
    </defs>
</svg>
