<svg width="27" height="33" viewBox="0 0 27 33" fill="none" xmlns="http://www.w3.org/2000/svg">
    <g filter="url(#filter0_d_13610_96153)">
        <path d="M19.6259 14.0642L19.6258 14.0643C18.6408 16.706 16.9527 18.6687 14.1887 19.5955L14.1886 19.5955C13.5156 19.8211 13.0336 20.4246 12.9623 21.1312C12.9398 21.3562 12.9297 21.585 12.9329 21.8088L12.9329 21.8105C12.9379 22.2131 12.8036 22.5837 12.5742 22.8758C12.574 22.876 12.5738 22.8762 12.5737 22.8764L11.7875 22.2584C11.589 22.5114 11.2215 22.6127 10.9055 22.4306L19.6259 14.0642ZM19.6259 14.0642C20.8069 10.8952 20.9163 7.58837 19.2044 3.84766C19.0843 3.58529 18.8567 3.38758 18.5802 3.30531M19.6259 14.0642L18.5802 3.30531M18.2951 4.26381C18.5802 3.30531 18.5798 3.30521 18.5794 3.3051L18.5786 3.30486L18.5768 3.30433L18.5724 3.30303L18.5602 3.29951L18.5227 3.28911C18.492 3.28077 18.4499 3.26976 18.3973 3.25691C18.2919 3.23123 18.1438 3.19808 17.9584 3.16415C17.5884 3.09639 17.0666 3.02482 16.4397 3.00419C15.1896 2.96306 13.4905 3.1238 11.7439 3.95066L11.7439 3.95067C8.19894 5.629 6.52521 8.70505 6.27107 11.7017C6.02208 14.6375 7.13482 17.6488 9.3513 19.1534C9.43671 19.2113 9.52914 19.2549 9.62513 19.2837C9.48891 20.2205 9.45698 21.1493 9.56959 22.0402L18.2951 4.26381ZM18.2951 4.26381L18.5802 3.30531M18.2951 4.26381L18.5802 3.30531" fill="#ADADAD" stroke="white" stroke-width="2" stroke-linejoin="round"/>
        <path d="M18.6889 13.7149C17.7869 16.1338 16.293 17.8352 13.8708 18.6473C12.8247 18.998 12.0779 19.9336 11.9673 21.0312C11.9412 21.2928 11.9292 21.5597 11.933 21.8229C11.9351 21.9918 11.8795 22.1414 11.7875 22.2584C11.589 22.5114 11.2215 22.6127 10.9055 22.4306C10.7169 22.3215 10.589 22.1312 10.5617 21.9149C9.81973 16.0443 16.1231 7.77595 16.1231 7.77595C10.0631 14.0498 9.91293 18.326 9.91293 18.326C6.2303 15.8262 5.78809 7.87681 12.1718 4.85449C15.3009 3.37316 18.2951 4.26381 18.2951 4.26381C19.8888 7.74627 19.7839 10.7767 18.6889 13.7149Z" fill="url(#paint0_linear_13610_96153)"/>
    </g>
    <defs>
        <filter id="filter0_d_13610_96153" x="0.237305" y="-0.00195312" width="26.2656" height="32.5273" filterUnits="userSpaceOnUse" color-interpolation-filters="sRGB">
            <feFlood flood-opacity="0" result="BackgroundImageFix"/>
            <feColorMatrix in="SourceAlpha" type="matrix" values="0 0 0 0 0 0 0 0 0 0 0 0 0 0 0 0 0 0 127 0" result="hardAlpha"/>
            <feOffset dy="3"/>
            <feGaussianBlur stdDeviation="2.5"/>
            <feComposite in2="hardAlpha" operator="out"/>
            <feColorMatrix type="matrix" values="0 0 0 0 0.180498 0 0 0 0 0.657048 0 0 0 0 0.00720785 0 0 0 0.17 0"/>
            <feBlend mode="normal" in2="BackgroundImageFix" result="effect1_dropShadow_13610_96153"/>
            <feBlend mode="normal" in="SourceGraphic" in2="effect1_dropShadow_13610_96153" result="shape"/>
        </filter>
        <linearGradient id="paint0_linear_13610_96153" x1="-6.19614" y1="38.3857" x2="20.6796" y2="8.62973" gradientUnits="userSpaceOnUse">
            <stop stop-color="#3D6A3E"/>
            <stop offset="1" stop-color="#78D07A"/>
        </linearGradient>
    </defs>
</svg>
