<svg width="24" height="24" viewBox="0 0 24 24" fill="none" xmlns="http://www.w3.org/2000/svg">
<g id="leaf">
<path id="Ic&#195;&#180;ne" fill-rule="evenodd" clip-rule="evenodd" d="M21 2.99971L21 4.99971C21 14.6267 15.627 18.9997 9 18.9997L5.243 18.9997C5.08 19.9117 5 20.9067 5 21.9997L3 21.9997C3 20.6367 3.116 19.3997 3.346 18.2677C3.116 16.9737 3 15.2177 3 12.9997C3 7.47671 7.477 2.99971 13 2.99971C15 2.99971 17 3.99971 21 2.99971ZM13 4.99971C8.582 4.99971 5 8.58171 5 12.9997C5 13.3617 5.003 13.7107 5.01 14.0457C6.264 12.0677 8.101 10.5047 10.504 9.13171L11.496 10.8677C8.641 12.4997 6.747 14.3537 5.776 16.9997L9 16.9997C15.015 16.9997 18.871 13.0267 18.997 5.38771C17.625 5.52071 16.35 5.43571 14.777 5.19971C13.627 5.02671 13.401 4.99971 13 4.99971Z" fill="#161616"/>
</g>
</svg>
