<svg width="50" height="61" viewBox="0 0 50 61" fill="none" xmlns="http://www.w3.org/2000/svg">
    <path d="M0.850356 2.8922C13.5571 -3.01584 23.3412 5.74679 26.0324 17.6228C28.2069 27.2171 9.78914 35.4232 4.68736 45.0947" stroke="#7A9954" stroke-miterlimit="10" stroke-linecap="round" stroke-linejoin="round"/>
    <path d="M10.1135 38.1125C-0.483194 39.1158 0.605442 61.0084 7.06733 60.1739C13.5292 59.3386 21.6472 37.0203 10.1135 38.1125Z" fill="#7A9954"/>
    <path opacity="0.64" d="M10.1133 38.1128L7.06711 60.1733" stroke="#21261F" stroke-width="0.5" stroke-miterlimit="10" stroke-linecap="round" stroke-linejoin="round"/>
    <path d="M26.1605 50.8202C37.6016 46.9523 31.393 17.8534 20.0364 29.9745C13.7361 36.6988 21.1686 52.5072 26.1605 50.8202Z" fill="#7A9954"/>
    <path opacity="0.64" d="M26.1611 50.8196L23.3438 27.4844" stroke="#21261F" stroke-width="0.5" stroke-miterlimit="10" stroke-linecap="round" stroke-linejoin="round"/>
    <path d="M49.1137 20.1848C50.0553 12.4173 20.4361 2.21194 25.3263 16.1517C30.2156 30.0924 48.0823 28.6978 49.1137 20.1848Z" fill="#7A9954"/>
    <path opacity="0.64" d="M49.1143 20.1836L25.3268 16.1514" stroke="#21261F" stroke-width="0.5" stroke-miterlimit="10" stroke-linecap="round" stroke-linejoin="round"/>
    <path d="M-1.96867 19.4283C-3.06638 32.4456 24.736 31.6847 26.275 21.8317C28.3705 8.41668 -1.03893 8.41033 -1.96867 19.4283Z" fill="#7A9954"/>
    <path opacity="0.64" d="M-1.96795 19.429L26.0342 17.624" stroke="#21261F" stroke-width="0.5" stroke-miterlimit="10" stroke-linecap="round" stroke-linejoin="round"/>
</svg>
