<svg xmlns="http://www.w3.org/2000/svg" width="128" height="64" fill="none"><path fill="#000" fill-rule="evenodd" d="m35.869 26.04 54.45-5.246L93 48.624l-35.682 3.438c1.69-1.06 2.683-2.673 2.683-4.528 0-2.777-2.039-4.786-5.79-4.786h-3.753c-.68 0-1.004-.295-1.004-.886 0-.325.177-.65.502-.946.443.09.916.119 1.418.119 3.84 0 6.027-2.364 6.027-5.288 0-.503-.06-.975-.207-1.448h2.63v-3.19h-5.436c-.857-.385-1.862-.592-3.014-.592-3.722 0-5.967 2.334-5.967 5.23 0 1.654.709 3.131 2.009 4.106-1.123.827-1.625 1.773-1.625 2.954 0 .768.325 1.566.915 2.157-1.329.975-2.068 2.157-2.068 3.634 0 2.17 1.349 3.631 3.76 4.323l-38.717 3.73L7 28.822l22.599-2.177-7.327 19.354h4.46l1.98-5.377h8.272l1.98 5.377h4.46zm34.914 19.958v-14.89h3.751v1.478c.975-1.005 2.246-1.773 3.93-1.773.502 0 .945.089 1.3.207v3.693a6.5 6.5 0 0 0-1.655-.207c-1.831 0-3.013 1.004-3.575 1.95v9.542zM61.97 26.057c0 1.329 1.123 2.452 2.452 2.452 1.33 0 2.423-1.123 2.423-2.452 0-1.33-1.093-2.452-2.423-2.452s-2.452 1.122-2.452 2.452m.561 5.051v14.89h3.752v-14.89zm-11.098 7.09c1.566 0 2.57-.974 2.57-2.451s-1.004-2.423-2.57-2.423c-1.625 0-2.6.975-2.6 2.423 0 1.477.975 2.452 2.6 2.452m-3.25 9.868c0 1.418 1.36 2.304 3.989 2.304 2.718 0 4.106-1.004 4.106-2.481 0-1.123-.68-1.92-2.481-1.92h-4.609c-.561.531-1.004 1.181-1.004 2.097m-15.335-18.79 2.836 7.77h-5.672z" clip-rule="evenodd"/><rect width="41" height="24" x="78" y="7" fill="#E3E3FD" rx="12"/><path fill="#000091" d="M107.138 23.56c-1.212 0-2.04-.696-2.04-1.812 0-.912.708-1.596 2.004-1.812l1.848-.312v-.156c0-.636-.48-1.044-1.176-1.044-.588 0-1.044.276-1.368.72l-1.116-.852c.54-.744 1.428-1.2 2.532-1.2 1.752 0 2.652 1.044 2.652 2.376v3.912h-1.524v-.588c-.384.468-1.104.768-1.812.768m-.528-1.884c0 .408.324.672.84.672.696 0 1.2-.324 1.5-.804v-.852l-1.44.24c-.636.108-.9.372-.9.744m-5.925-.504V18.7h-1.128v-1.368h1.128V15.82h1.536v1.512h1.848V18.7h-1.848v2.472c0 .672.36.936.96.936.42 0 .696-.048.9-.132v1.332c-.3.132-.66.192-1.164.192-1.512 0-2.232-.852-2.232-2.328m-5.473-4.8h-1.333l1.236-1.992h1.945l1.236 1.992h-1.333l-.875-1.308zm3.72 6.024c-.564.756-1.5 1.224-2.64 1.224-2.148 0-3.36-1.5-3.36-3.264 0-1.788 1.127-3.264 3.108-3.264 1.68 0 2.783 1.14 2.783 2.724 0 .336-.047.648-.095.852h-4.236c.143 1.128.84 1.584 1.787 1.584.66 0 1.237-.288 1.56-.72zm-2.928-4.056c-.78 0-1.297.432-1.465 1.224h2.784c-.023-.612-.467-1.224-1.32-1.224M86 23.38v-8.4h2.472c1.752 0 2.82.864 2.82 2.28 0 .684-.312 1.272-.9 1.656.888.396 1.38 1.116 1.38 1.992 0 1.536-1.188 2.472-3.12 2.472zm2.508-6.984h-.804v1.896h.804c.648 0 1.032-.348 1.032-.96 0-.588-.384-.936-1.032-.936m.24 3.312h-1.044v2.256h1.044c.792 0 1.272-.42 1.272-1.128 0-.72-.48-1.128-1.272-1.128"/></svg>