<svg xmlns="http://www.w3.org/2000/svg" width="82" height="33" fill="none"><g fill="#26827C" clip-path="url(#a)"><path fill-rule="evenodd" d="M33.524 0v33H.066V0zM12.886 1.571H31.93v18.774a8.62 8.62 0 0 0-5.545-.614 9.9 9.9 0 0 0 .541-3.233c0-5.53-4.545-10.013-10.151-10.013-1.147 0-2.25.188-3.278.534a8.3 8.3 0 0 0 .208-1.853 8.2 8.2 0 0 0-.82-3.595M1.66 10.034V1.57h8.446a5.93 5.93 0 0 1 1.21 3.595c0 3.317-2.726 6.006-6.089 6.006a6.1 6.1 0 0 1-3.567-1.138m0 2.721v18.674h18.92a8.2 8.2 0 0 1-.794-3.54c0-.652.075-1.287.218-1.896-1.014.335-2.1.517-3.228.517-5.606 0-10.151-4.483-10.151-10.012a9.9 9.9 0 0 1 .524-3.185 8.6 8.6 0 0 1-1.922.216 8.55 8.55 0 0 1-3.567-.774m21.685 18.674h8.586v-8.337a6.1 6.1 0 0 0-3.666-1.21c-3.363 0-6.09 2.69-6.09 6.006 0 1.324.435 2.548 1.17 3.54" clip-rule="evenodd"/><path d="M40.635 14.772h2.188V6.286h-2.188zm4.18 0h1.954v-3.807c.135-.206.38-.74.995-.74.554 0 .836.377.836.922v3.625h1.967v-3.867l.012.012c.099-.158.344-.691.959-.691.553 0 .836.376.836.921v3.625h1.967v-3.71c0-1.77-1.033-2.643-2.275-2.643-.934 0-1.511.473-1.93.97-.417-.642-1.093-.97-1.843-.97a2.27 2.27 0 0 0-1.524.558v-.315h-1.954zm11.068 2.983h1.954v-3.262c.443.34.996.522 1.721.522 1.98 0 3.122-1.516 3.122-3.298S61.537 8.42 59.558 8.42c-.725 0-1.278.182-1.72.522v-.28h-1.955zm1.966-5.31-.012.012v-1.48l.012.013c.37-.497.8-.764 1.426-.764.86 0 1.39.594 1.39 1.491s-.53 1.491-1.39 1.491c-.626 0-1.057-.266-1.426-.764m7.703 2.571c.652 0 1.328-.291 1.672-.691v.448h1.967v-3.855c0-1.334-.91-2.498-2.877-2.498-1.155 0-2.102.461-2.667 1.237l1.426 1.067c.234-.424.664-.643 1.18-.643.566 0 .946.352.971.813l-1.72.29c-1.353.231-2.078.958-2.078 1.904 0 1.2.873 1.928 2.126 1.928m-.209-2.025c0-.279.173-.449.689-.533l1.192-.194v.545c-.246.376-.627.68-1.242.68-.38 0-.638-.195-.638-.498m8.473.218c-.836 0-1.426-.582-1.426-1.49 0-.898.59-1.492 1.39-1.492a1.3 1.3 0 0 1 1.118.582l1.549-1.164c-.578-.752-1.5-1.225-2.643-1.225-2.188 0-3.442 1.516-3.442 3.298s1.254 3.298 3.442 3.298c1.143 0 2.065-.473 2.643-1.225l-1.55-1.164a1.3 1.3 0 0 1-1.08.582m4.138-.812c0 1.503.7 2.497 2.385 2.497.577 0 .959-.072 1.29-.218v-1.66c-.184.072-.48.133-.934.133-.516 0-.774-.267-.774-.752v-1.988h1.696V8.662h-1.696V7.134h-1.967v1.528h-1.155v1.746h1.155zM44.506 24.69c-1.377 0-2.36-1.03-2.36-2.462 0-1.418.983-2.46 2.36-2.46.86 0 1.512.412 1.917.994l1.733-1.31c-.798-1.03-2.077-1.71-3.65-1.71-2.741 0-4.61 2.062-4.61 4.486s1.869 4.486 4.61 4.486c1.573 0 2.852-.679 3.65-1.721l-1.733-1.298a2.29 2.29 0 0 1-1.917.995m8.932-6.947c-2.741 0-4.61 2.06-4.61 4.486 0 2.424 1.869 4.485 4.61 4.485 2.729 0 4.597-2.06 4.597-4.485s-1.868-4.486-4.597-4.486m0 6.947c-1.377 0-2.36-1.03-2.36-2.462 0-1.418.983-2.46 2.36-2.46 1.364 0 2.347 1.03 2.347 2.46 0 1.419-.983 2.462-2.347 2.462m5.679 1.782h3.659v-1.106h-2.124l1.099-1.011c.42-.386.892-.931.892-1.63 0-.909-.745-1.49-1.682-1.49-.973 0-1.652.487-2.102 1.214l1.003.611c.258-.422.517-.734.974-.734.317 0 .546.196.546.53 0 .328-.236.597-.487.83l-1.778 1.68z"/></g><defs><clipPath id="a"><path fill="#fff" d="M.066 0H81.78v33H.066z"/></clipPath></defs></svg>