<?xml version="1.0" encoding="UTF-8" standalone="no"?>
<!-- Created with Inkscape (http://www.inkscape.org/) -->

<svg
   xmlns:dc="http://purl.org/dc/elements/1.1/"
   xmlns:cc="http://creativecommons.org/ns#"
   xmlns:rdf="http://www.w3.org/1999/02/22-rdf-syntax-ns#"
   xmlns:svg="http://www.w3.org/2000/svg"
   xmlns="http://www.w3.org/2000/svg"
   xmlns:sodipodi="http://sodipodi.sourceforge.net/DTD/sodipodi-0.dtd"
   xmlns:inkscape="http://www.inkscape.org/namespaces/inkscape"
   id="svg2"
   version="1.1"
   inkscape:version="0.91 r13725"
   xml:space="preserve"
   width="54.161499"
   height="64.022629"
   viewBox="0 0 54.161499 64.022629"
   sodipodi:docname="Logotype d’Angers-Loire-Métropole.svg"><metadata
     id="metadata8"><rdf:RDF><cc:Work
         rdf:about=""><dc:format>image/svg+xml</dc:format><dc:type
           rdf:resource="http://purl.org/dc/dcmitype/StillImage" /><dc:title></dc:title></cc:Work></rdf:RDF></metadata><defs
     id="defs6"><clipPath
       clipPathUnits="userSpaceOnUse"
       id="clipPath18"><path
         d="m 380.455,692.978 0,-29.213 -32.639,0 0,29.213 -276.95,0 0,-622.112 552.757,0 0,622.112 -243.168,0 z M 94.429,476.567 l 470.64,0 0,-206.879 -470.64,0 0,206.879 z"
         id="path20"
         inkscape:connector-curvature="0" /></clipPath><clipPath
       clipPathUnits="userSpaceOnUse"
       id="clipPath30"><path
         d="m 94.427,269.686 269.227,0 0,206.881 -269.227,0 0,-206.881 z"
         id="path32"
         inkscape:connector-curvature="0" /></clipPath><clipPath
       clipPathUnits="userSpaceOnUse"
       id="clipPath42"><path
         d="m 363.174,269.686 201.893,0 0,206.881 -201.893,0 0,-206.881 z"
         id="path44"
         inkscape:connector-curvature="0" /></clipPath><clipPath
       clipPathUnits="userSpaceOnUse"
       id="clipPath90"><path
         d="m 35.692,35.693 623.102,0 0,849.874 -623.102,0 0,-849.874 z"
         id="path92"
         inkscape:connector-curvature="0" /></clipPath><clipPath
       clipPathUnits="userSpaceOnUse"
       id="clipPath110"><path
         d="m 347.814,663.764 32.641,0 0,29.214 -32.641,0 0,-29.214 z"
         id="path112"
         inkscape:connector-curvature="0" /></clipPath><clipPath
       clipPathUnits="userSpaceOnUse"
       id="clipPath124"><path
         d="m 347.814,692.977 32.641,0 0,14.468 -32.641,0 0,-14.468 z"
         id="path126"
         inkscape:connector-curvature="0" /></clipPath><clipPath
       clipPathUnits="userSpaceOnUse"
       id="clipPath138"><path
         d="m 347.814,692.977 32.641,0 0,14.468 -32.641,0 0,-14.468 z"
         id="path140"
         inkscape:connector-curvature="0" /></clipPath><clipPath
       clipPathUnits="userSpaceOnUse"
       id="clipPath152"><path
         d="m 35.692,35.693 623.102,0 0,849.874 -623.102,0 0,-849.874 z"
         id="path154"
         inkscape:connector-curvature="0" /></clipPath><clipPath
       clipPathUnits="userSpaceOnUse"
       id="clipPath164"><path
         d="m 42.518,42.519 609.451,0 0,836.222 -609.451,0 0,-836.222 z"
         id="path166"
         inkscape:connector-curvature="0" /></clipPath><clipPath
       clipPathUnits="userSpaceOnUse"
       id="clipPath174"><path
         d="m 35.692,35.693 623.102,0 0,849.874 -623.102,0 0,-849.874 z"
         id="path176"
         inkscape:connector-curvature="0" /></clipPath><clipPath
       clipPathUnits="userSpaceOnUse"
       id="clipPath186"><path
         d="m 42.518,42.519 609.451,0 0,836.222 -609.451,0 0,-836.222 z"
         id="path188"
         inkscape:connector-curvature="0" /></clipPath><clipPath
       clipPathUnits="userSpaceOnUse"
       id="clipPath198"><path
         d="m 35.692,35.693 623.102,0 0,849.874 -623.102,0 0,-849.874 z"
         id="path200"
         inkscape:connector-curvature="0" /></clipPath><clipPath
       clipPathUnits="userSpaceOnUse"
       id="clipPath396"><path
         d="m 35.692,35.693 623.102,0 0,849.874 -623.102,0 0,-849.874 z"
         id="path398"
         inkscape:connector-curvature="0" /></clipPath><clipPath
       clipPathUnits="userSpaceOnUse"
       id="clipPath588"><path
         d="m 35.692,35.693 623.102,0 0,849.874 -623.102,0 0,-849.874 z"
         id="path590"
         inkscape:connector-curvature="0" /></clipPath><clipPath
       clipPathUnits="userSpaceOnUse"
       id="clipPath654"><path
         d="m 333.084,892.915 28.32,0 0,25.439 -28.32,0 0,-25.439 z"
         id="path656"
         inkscape:connector-curvature="0" /></clipPath><clipPath
       clipPathUnits="userSpaceOnUse"
       id="clipPath674"><path
         d="m 51.251,8.502 591.988,0 0,22.677 -591.988,0 0,-22.677 z"
         id="path676"
         inkscape:connector-curvature="0" /></clipPath></defs><sodipodi:namedview
     pagecolor="#ffffff"
     bordercolor="#666666"
     borderopacity="1"
     objecttolerance="10"
     gridtolerance="10"
     guidetolerance="10"
     inkscape:pageopacity="0"
     inkscape:pageshadow="2"
     inkscape:window-width="1366"
     inkscape:window-height="745"
     id="namedview4"
     showgrid="false"
     fit-margin-top="0"
     fit-margin-left="0"
     fit-margin-right="0"
     fit-margin-bottom="0"
     inkscape:zoom="0.93479915"
     inkscape:cx="-113.8738"
     inkscape:cy="-176.77403"
     inkscape:window-x="-8"
     inkscape:window-y="-8"
     inkscape:window-maximized="1"
     inkscape:current-layer="g10" /><g
     id="g10"
     inkscape:groupmode="layer"
     inkscape:label="Logotype"
     transform="matrix(1.25,0,0,-1.25,-547.92874,335.22744)"><g
       id="g5721"><path
         inkscape:connector-curvature="0"
         id="path202"
         style="fill:#f68213;fill-opacity:1;fill-rule:nonzero;stroke:none"
         d="m 438.34939,222.16675 43.245,0 0,0.845 -43.245,0 0,-0.845 z" /><path
         inkscape:connector-curvature="0"
         id="path204"
         style="fill:#231f20;fill-opacity:1;fill-rule:nonzero;stroke:none"
         d="m 438.34939,222.16675 21.622,0 0,0.845 -21.622,0 0,-0.845 z" /><g
         transform="translate(463.51449,254.61895)"
         id="g206"><path
           inkscape:connector-curvature="0"
           id="path208"
           style="fill:#f68213;fill-opacity:1;fill-rule:nonzero;stroke:none"
           d="m 0,0 c 0,2.055 -1.485,3.455 -3.489,3.455 -2.079,0 -3.565,-1.514 -3.565,-3.595 0,-2.007 1.414,-3.497 3.453,-3.497 C -1.521,-3.637 0,-2.109 0,0 m 10.103,-0.063 c 0,-7.69 -6.206,-13.666 -13.819,-13.666 -7.384,0 -13.475,6.309 -13.475,13.666 0,7.272 6.126,13.626 13.475,13.626 7.613,0 13.819,-5.976 13.819,-13.626" /></g><g
         transform="translate(461.25979,228.49725)"
         id="g210"><path
           inkscape:connector-curvature="0"
           id="path212"
           style="fill:#231f20;fill-opacity:1;fill-rule:nonzero;stroke:none"
           d="M 0,0 C -0.105,0.147 -0.329,0.259 -0.575,0.259 -0.819,0.259 -1.044,0.147 -1.15,0 c -0.133,-0.19 -0.175,-0.33 -0.175,-0.842 0,-0.517 0.042,-0.658 0.175,-0.848 0.106,-0.146 0.331,-0.259 0.575,-0.259 0.246,0 0.47,0.113 0.575,0.259 0.133,0.19 0.176,0.331 0.176,0.841 C 0.176,-0.33 0.133,-0.19 0,0 m -1.654,0.516 c 0.197,0.218 0.525,0.456 1.079,0.456 0.553,0 0.882,-0.238 1.078,-0.456 0.275,-0.298 0.385,-0.594 0.385,-1.358 0,-0.77 -0.11,-1.066 -0.385,-1.365 -0.196,-0.217 -0.525,-0.455 -1.078,-0.455 -0.554,0 -0.882,0.238 -1.079,0.455 -0.273,0.299 -0.384,0.595 -0.384,1.365 0,0.764 0.111,1.06 0.384,1.358" /></g><g
         transform="translate(471.88369,228.49725)"
         id="g214"><path
           inkscape:connector-curvature="0"
           id="path216"
           style="fill:#231f20;fill-opacity:1;fill-rule:nonzero;stroke:none"
           d="M 0,0 C -0.105,0.147 -0.328,0.259 -0.574,0.259 -0.82,0.259 -1.045,0.147 -1.149,0 c -0.132,-0.19 -0.175,-0.33 -0.175,-0.842 0,-0.517 0.043,-0.658 0.175,-0.848 0.104,-0.146 0.329,-0.259 0.575,-0.259 0.246,0 0.469,0.113 0.574,0.259 0.133,0.19 0.177,0.331 0.177,0.841 C 0.177,-0.33 0.133,-0.19 0,0 m -1.653,0.516 c 0.196,0.218 0.526,0.456 1.079,0.456 0.552,0 0.883,-0.238 1.079,-0.456 0.274,-0.298 0.386,-0.594 0.386,-1.358 0,-0.77 -0.112,-1.066 -0.386,-1.365 -0.196,-0.217 -0.527,-0.455 -1.079,-0.455 -0.553,0 -0.883,0.238 -1.079,0.455 -0.274,0.299 -0.385,0.595 -0.385,1.365 0,0.764 0.111,1.06 0.385,1.358" /></g><g
         transform="translate(438.36609,229.42305)"
         id="g218"><path
           inkscape:connector-curvature="0"
           id="path220"
           style="fill:#231f20;fill-opacity:1;fill-rule:nonzero;stroke:none"
           d="m 0,0 0.715,0 0,-0.379 0.015,0 c 0.222,0.281 0.544,0.421 0.925,0.421 0.495,0 0.748,-0.203 1,-0.461 0.295,0.321 0.638,0.461 1.122,0.461 0.552,0 1.184,-0.428 1.184,-1.233 l 0,-2.36 -0.715,0 0,2.114 c 0,0.483 -0.301,0.764 -0.7,0.764 -0.406,0 -0.709,-0.281 -0.709,-0.764 l 0,-2.114 -0.714,0 0,2.114 c 0,0.483 -0.3,0.764 -0.7,0.764 -0.407,0 -0.708,-0.281 -0.708,-0.764 l 0,-2.114 L 0,-3.551 0,0 Z" /></g><g
         transform="translate(451.37099,230.50265)"
         id="g222"><path
           inkscape:connector-curvature="0"
           id="path224"
           style="fill:#231f20;fill-opacity:1;fill-rule:nonzero;stroke:none"
           d="m 0,0 0.715,0 0,-1.08 0.519,0 0,-0.547 -0.519,0 0,-2.067 c 0,-0.195 0.076,-0.264 0.253,-0.264 l 0.266,0 0,-0.673 -0.371,0 C 0.364,-4.631 0,-4.316 0,-3.756 l 0,2.129 -0.357,0 0,0.547 L 0,-1.08 0,0 Z" /></g><g
         transform="translate(455.03009,229.42305)"
         id="g226"><path
           inkscape:connector-curvature="0"
           id="path228"
           style="fill:#231f20;fill-opacity:1;fill-rule:nonzero;stroke:none"
           d="m 0,0 0.713,0 0,-0.379 0.015,0 c 0.224,0.281 0.545,0.421 0.924,0.421 0.287,0 0.526,-0.105 0.744,-0.272 L 1.877,-0.849 c -0.169,0.127 -0.288,0.176 -0.47,0.176 -0.351,0 -0.694,-0.223 -0.694,-0.743 l 0,-2.135 L 0,-3.551 0,0 Z" /></g><g
         transform="translate(466.75839,227.64305)"
         id="g230"><path
           inkscape:connector-curvature="0"
           id="path232"
           style="fill:#231f20;fill-opacity:1;fill-rule:nonzero;stroke:none"
           d="m 0,0 c 0,0.554 -0.033,1.107 -0.707,1.107 -0.666,0 -0.701,-0.589 -0.701,-1.107 0,-0.512 0.035,-1.099 0.701,-1.099 C -0.033,-1.099 0,-0.546 0,0 m -2.123,1.78 0.715,0 0,-0.372 c 0.226,0.246 0.554,0.414 0.919,0.414 0.434,0 0.749,-0.197 0.953,-0.461 C 0.66,1.107 0.714,0.877 0.714,0 c 0,-0.869 -0.054,-1.099 -0.25,-1.352 -0.204,-0.266 -0.519,-0.461 -0.953,-0.461 -0.365,0 -0.651,0.167 -0.919,0.42 l 0,-1.817 -0.715,0 0,4.99 z" /></g><g
         transform="translate(475.27939,230.86005)"
         id="g234"><path
           inkscape:connector-curvature="0"
           id="path236"
           style="fill:#231f20;fill-opacity:1;fill-rule:nonzero;stroke:none"
           d="m 0,0 0.715,0 0,-4.072 c 0,-0.161 0.092,-0.244 0.266,-0.244 l 0.246,0 0,-0.672 -0.315,0 C 0.391,-4.988 0,-4.764 0,-4.128 L 0,0 Z" /></g><g
         transform="translate(480.87869,227.96625)"
         id="g238"><path
           inkscape:connector-curvature="0"
           id="path240"
           style="fill:#231f20;fill-opacity:1;fill-rule:nonzero;stroke:none"
           d="M 0,0 C -0.022,0.54 -0.33,0.826 -0.752,0.826 -1.171,0.826 -1.486,0.54 -1.501,0 L 0,0 Z m -1.501,-0.588 c 0,-0.582 0.359,-0.876 0.849,-0.876 0.272,0 0.567,0.125 0.777,0.341 l 0.52,-0.44 c -0.351,-0.406 -0.807,-0.573 -1.283,-0.573 -0.728,0 -1.578,0.349 -1.578,1.807 0,1.379 0.779,1.828 1.464,1.828 0.786,0 1.466,-0.58 1.466,-1.499 l 0,-0.588 -2.215,0 z" /></g><g
         transform="translate(470.50649,233.73235)"
         id="g242"><path
           inkscape:connector-curvature="0"
           id="path244"
           style="fill:#231f20;fill-opacity:1;fill-rule:nonzero;stroke:none"
           d="M 0,0 C -0.611,0 -1.104,0.494 -1.104,1.105 -1.104,1.714 -0.611,2.21 0,2.21 0.611,2.21 1.106,1.714 1.106,1.105 1.106,0.494 0.611,0 0,0 m 0,2.918 c -1.001,0 -1.812,-0.81 -1.812,-1.813 0,-0.999 0.811,-1.812 1.812,-1.812 1.002,0 1.812,0.813 1.812,1.812 0,1.003 -0.81,1.813 -1.812,1.813" /></g><g
         transform="translate(467.89849,233.75695)"
         id="g246"><path
           inkscape:connector-curvature="0"
           id="path248"
           style="fill:#231f20;fill-opacity:1;fill-rule:nonzero;stroke:none"
           d="m 0,0 -0.931,0 0,4.279 -0.729,0 0,-4.986 2.144,0 C 0.285,-0.501 0.121,-0.263 0,0" /></g><g
         transform="translate(440.48899,234.56585)"
         id="g250"><path
           inkscape:connector-curvature="0"
           id="path252"
           style="fill:#231f20;fill-opacity:1;fill-rule:nonzero;stroke:none"
           d="m 0,0 -0.856,0 c -0.421,0 -0.616,-0.17 -0.616,-0.43 0,-0.237 0.189,-0.447 0.673,-0.447 0.596,0 0.799,0.063 0.799,0.616 L 0,0 Z m 0,-1.192 -0.015,0 c -0.147,-0.247 -0.391,-0.359 -0.877,-0.359 -0.791,0 -1.254,0.47 -1.254,1.087 0,0.57 0.393,1.051 1.158,1.051 l 0.988,0 0,0.372 c 0,0.336 -0.218,0.456 -0.73,0.456 -0.372,0 -0.547,-0.071 -0.671,-0.274 l -0.562,0.427 c 0.274,0.378 0.665,0.518 1.198,0.518 0.876,0 1.479,-0.294 1.479,-1.17 l 0,-2.425 -0.714,0 0,0.317 z" /></g><g
         transform="translate(442.82779,236.60935)"
         id="g254"><path
           inkscape:connector-curvature="0"
           id="path256"
           style="fill:#231f20;fill-opacity:1;fill-rule:nonzero;stroke:none"
           d="m 0,0 0.714,0 0,-0.376 0.013,0 c 0.224,0.278 0.547,0.419 0.926,0.419 0.555,0 1.184,-0.427 1.184,-1.233 l 0,-2.363 -0.715,0 0,2.119 c 0,0.482 -0.301,0.763 -0.699,0.763 -0.407,0 -0.709,-0.281 -0.709,-0.763 l 0,-2.119 L 0,-3.553 0,0 Z" /></g><g
         transform="translate(453.66619,235.15265)"
         id="g258"><path
           inkscape:connector-curvature="0"
           id="path260"
           style="fill:#231f20;fill-opacity:1;fill-rule:nonzero;stroke:none"
           d="M 0,0 C -0.021,0.54 -0.329,0.828 -0.751,0.828 -1.17,0.828 -1.485,0.54 -1.5,0 L 0,0 Z m -1.5,-0.587 c 0,-0.583 0.357,-0.877 0.849,-0.877 0.271,0 0.566,0.126 0.776,0.343 l 0.52,-0.441 c -0.351,-0.408 -0.808,-0.575 -1.283,-0.575 -0.728,0 -1.576,0.352 -1.576,1.808 0,1.38 0.777,1.829 1.463,1.829 0.787,0 1.465,-0.581 1.465,-1.5 l 0,-0.587 -2.214,0 z" /></g><g
         transform="translate(455.83029,236.60935)"
         id="g262"><path
           inkscape:connector-curvature="0"
           id="path264"
           style="fill:#231f20;fill-opacity:1;fill-rule:nonzero;stroke:none"
           d="m 0,0 0.714,0 0,-0.376 0.014,0 c 0.225,0.278 0.547,0.419 0.925,0.419 0.287,0 0.525,-0.106 0.742,-0.273 L 1.877,-0.845 C 1.71,-0.72 1.59,-0.671 1.409,-0.671 c -0.351,0 -0.695,-0.224 -0.695,-0.743 l 0,-2.139 L 0,-3.553 0,0 Z" /></g><g
         transform="translate(459.36079,234.14435)"
         id="g266"><path
           inkscape:connector-curvature="0"
           id="path268"
           style="fill:#231f20;fill-opacity:1;fill-rule:nonzero;stroke:none"
           d="m 0,0 c 0.309,-0.3 0.645,-0.456 1.121,-0.456 0.406,0 0.702,0.156 0.702,0.456 0,0.252 -0.19,0.33 -0.436,0.352 l -0.63,0.054 c -0.589,0.05 -1.023,0.4 -1.023,1.009 0,0.722 0.575,1.093 1.324,1.093 0.624,0 1.044,-0.188 1.394,-0.484 L 2.011,1.506 C 1.73,1.703 1.443,1.836 1.058,1.836 0.602,1.836 0.45,1.654 0.45,1.408 0.45,1.255 0.561,1.1 0.919,1.073 L 1.505,1.031 c 0.738,-0.05 1.032,-0.498 1.032,-1.067 0,-0.694 -0.645,-1.093 -1.472,-1.093 -0.575,0 -1.107,0.211 -1.563,0.638 L 0,0 Z" /></g><g
         transform="translate(475.58569,236.60935)"
         id="g270"><path
           inkscape:connector-curvature="0"
           id="path272"
           style="fill:#231f20;fill-opacity:1;fill-rule:nonzero;stroke:none"
           d="m 0,0 0.714,0 0,-0.376 0.013,0 c 0.223,0.278 0.547,0.419 0.924,0.419 0.29,0 0.528,-0.106 0.744,-0.273 L 1.876,-0.845 c -0.167,0.125 -0.287,0.174 -0.469,0.174 -0.349,0 -0.693,-0.224 -0.693,-0.743 l 0,-2.139 L 0,-3.553 0,0 Z" /></g><g
         transform="translate(480.88409,235.15265)"
         id="g274"><path
           inkscape:connector-curvature="0"
           id="path276"
           style="fill:#231f20;fill-opacity:1;fill-rule:nonzero;stroke:none"
           d="M 0,0 C -0.021,0.54 -0.331,0.828 -0.752,0.828 -1.172,0.828 -1.487,0.54 -1.5,0 L 0,0 Z m -1.5,-0.587 c 0,-0.583 0.356,-0.877 0.847,-0.877 0.273,0 0.567,0.126 0.777,0.343 l 0.519,-0.441 c -0.351,-0.408 -0.806,-0.575 -1.281,-0.575 -0.729,0 -1.578,0.352 -1.578,1.808 0,1.38 0.777,1.829 1.464,1.829 0.786,0 1.466,-0.581 1.466,-1.5 l 0,-0.587 -2.214,0 z" /></g><path
         inkscape:connector-curvature="0"
         id="path278"
         style="fill:#231f20;fill-opacity:1;fill-rule:nonzero;stroke:none"
         d="m 473.48439,233.05175 0.712,0 0,3.545 -0.712,0 0,-3.545 z" /><g
         transform="translate(474.40359,237.48665)"
         id="g280"><path
           inkscape:connector-curvature="0"
           id="path282"
           style="fill:#231f20;fill-opacity:1;fill-rule:nonzero;stroke:none"
           d="m 0,0 c 0,-0.305 -0.247,-0.551 -0.552,-0.551 -0.304,0 -0.552,0.246 -0.552,0.551 0,0.305 0.248,0.553 0.552,0.553 C -0.247,0.553 0,0.305 0,0" /></g><g
         transform="translate(448.03359,234.02605)"
         id="g284"><path
           inkscape:connector-curvature="0"
           id="path286"
           style="fill:#231f20;fill-opacity:1;fill-rule:nonzero;stroke:none"
           d="M 0,0 C 0.099,-0.127 0.28,-0.274 0.569,-0.274 0.847,-0.274 1.03,-0.127 1.128,0 1.254,0.161 1.269,0.26 1.269,0.827 1.269,1.4 1.254,1.499 1.128,1.662 1.03,1.787 0.847,1.933 0.569,1.933 0.28,1.933 0.099,1.787 0,1.662 -0.125,1.499 -0.139,1.4 -0.139,0.827 -0.139,0.26 -0.125,0.161 0,0 M 1.269,-0.575 C 1.045,-0.822 0.714,-0.99 0.35,-0.99 c -0.461,0 -0.777,0.232 -0.938,0.436 -0.204,0.266 -0.268,0.398 -0.268,1.381 0,0.987 0.064,1.12 0.268,1.386 0.161,0.204 0.477,0.436 0.938,0.436 0.364,0 0.652,-0.142 0.919,-0.421 l 0,0.378 0.715,0 0,-3.469 c 0,-1.072 -0.73,-1.562 -1.543,-1.562 -0.455,0 -0.917,0.237 -1.233,0.595 l 0.554,0.442 c 0.174,-0.174 0.42,-0.324 0.694,-0.324 0.476,0 0.813,0.276 0.813,0.772 l 0,0.365 z" /></g><g
         transform="translate(447.47049,230.90365)"
         id="g288"><path
           inkscape:connector-curvature="0"
           id="path290"
           style="fill:#231f20;fill-opacity:1;fill-rule:nonzero;stroke:none"
           d="m 0,0 0.938,0 -0.994,-1.021 -0.587,0 L 0,0 Z m 0.643,-2.932 c -0.021,0.541 -0.329,0.825 -0.748,0.825 -0.42,0 -0.735,-0.284 -0.748,-0.825 l 1.496,0 z m -1.496,-0.587 c 0,-0.579 0.357,-0.874 0.846,-0.874 0.273,0 0.567,0.127 0.776,0.343 l 0.519,-0.44 c -0.35,-0.406 -0.806,-0.574 -1.282,-0.574 -0.725,0 -1.572,0.35 -1.572,1.805 0,1.377 0.774,1.824 1.461,1.824 0.782,0 1.463,-0.579 1.463,-1.497 l 0,-0.587 -2.211,0 z" /></g><g
         transform="translate(439.60339,217.00395)"
         id="g292"><path
           inkscape:connector-curvature="0"
           id="path294"
           style="fill:#231f20;fill-opacity:1;fill-rule:nonzero;stroke:none"
           d="m 0,0 c -0.12,-0.022 -0.283,-0.04 -0.453,-0.04 -0.494,0 -0.773,0.348 -0.773,0.882 l 0,0.283 c 0,0.533 0.276,0.881 0.773,0.881 0.166,0 0.333,-0.018 0.453,-0.04 l 0.073,-0.08 0,-0.13 -0.062,-0.055 -0.015,0 c -0.159,0.019 -0.272,0.026 -0.449,0.026 -0.291,0 -0.454,-0.192 -0.454,-0.602 l 0,-0.283 c 0,-0.407 0.16,-0.603 0.454,-0.603 0.177,0 0.29,0.008 0.449,0.026 l 0.015,0 0.062,-0.055 0,-0.13 L 0,0" /></g><g
         transform="translate(441.78029,218.12485)"
         id="g296"><path
           inkscape:connector-curvature="0"
           id="path298"
           style="fill:#231f20;fill-opacity:1;fill-rule:nonzero;stroke:none"
           d="M 0,0 C 0,0.37 -0.149,0.606 -0.49,0.606 -0.827,0.606 -0.976,0.374 -0.976,0 l 0,-0.276 c 0,-0.37 0.145,-0.606 0.486,-0.606 0.338,0 0.49,0.233 0.49,0.606 L 0,0 Z m -0.49,-1.161 c -0.533,0 -0.805,0.352 -0.805,0.885 l 0,0.276 c 0,0.533 0.272,0.885 0.805,0.885 0.534,0 0.809,-0.352 0.809,-0.885 l 0,-0.276 c 0,-0.533 -0.275,-0.885 -0.809,-0.885" /></g><g
         transform="translate(445.45559,216.98945)"
         id="g300"><path
           inkscape:connector-curvature="0"
           id="path302"
           style="fill:#231f20;fill-opacity:1;fill-rule:nonzero;stroke:none"
           d="m 0,0 -0.174,0 -0.073,0.072 0,1.285 c 0,0.304 -0.141,0.388 -0.33,0.388 -0.13,0 -0.283,-0.044 -0.424,-0.098 0.022,-0.08 0.032,-0.174 0.032,-0.283 l 0,-1.292 L -1.034,0 l -0.192,0 -0.062,0.072 0,1.292 c 0,0.316 -0.09,0.381 -0.279,0.381 -0.131,0 -0.29,-0.065 -0.443,-0.142 l 0,-1.531 L -2.075,0 l -0.192,0 -0.062,0.072 0,1.851 0.069,0.072 0.181,0 0.069,-0.072 0,-0.069 c 0.145,0.09 0.33,0.17 0.53,0.17 0.156,0 0.272,-0.043 0.363,-0.149 0.199,0.095 0.413,0.149 0.602,0.149 0.326,0 0.588,-0.163 0.588,-0.667 l 0,-1.285 L 0,0" /></g><g
         transform="translate(448.94949,216.98945)"
         id="g304"><path
           inkscape:connector-curvature="0"
           id="path306"
           style="fill:#231f20;fill-opacity:1;fill-rule:nonzero;stroke:none"
           d="m 0,0 -0.174,0 -0.073,0.072 0,1.285 c 0,0.304 -0.141,0.388 -0.33,0.388 -0.13,0 -0.283,-0.044 -0.424,-0.098 0.022,-0.08 0.032,-0.174 0.032,-0.283 l 0,-1.292 L -1.034,0 l -0.192,0 -0.062,0.072 0,1.292 c 0,0.316 -0.09,0.381 -0.279,0.381 -0.131,0 -0.29,-0.065 -0.443,-0.142 l 0,-1.531 L -2.075,0 l -0.192,0 -0.062,0.072 0,1.851 0.069,0.072 0.181,0 0.069,-0.072 0,-0.069 c 0.145,0.09 0.33,0.17 0.53,0.17 0.156,0 0.272,-0.043 0.363,-0.149 0.199,0.095 0.413,0.149 0.602,0.149 0.326,0 0.588,-0.163 0.588,-0.667 l 0,-1.285 L 0,0" /></g><g
         transform="translate(451.57279,216.98945)"
         id="g308"><path
           inkscape:connector-curvature="0"
           id="path310"
           style="fill:#231f20;fill-opacity:1;fill-rule:nonzero;stroke:none"
           d="m 0,0 -0.181,0 -0.069,0.072 0,0.069 c -0.2,-0.112 -0.363,-0.166 -0.577,-0.166 -0.435,0 -0.631,0.272 -0.631,0.754 l 0,1.194 0.072,0.072 0.174,0 0.073,-0.072 0,-1.194 c 0,-0.366 0.123,-0.479 0.399,-0.479 0.152,0 0.323,0.058 0.49,0.142 l 0,1.531 0.072,0.072 0.178,0 0.069,-0.072 0,-1.851 L 0,0" /></g><g
         transform="translate(454.18869,216.98945)"
         id="g312"><path
           inkscape:connector-curvature="0"
           id="path314"
           style="fill:#231f20;fill-opacity:1;fill-rule:nonzero;stroke:none"
           d="m 0,0 -0.174,0 -0.073,0.072 0,1.194 c 0,0.366 -0.123,0.479 -0.399,0.479 -0.152,0 -0.323,-0.058 -0.489,-0.142 l 0,-1.531 L -1.208,0 l -0.178,0 -0.069,0.072 0,1.851 0.069,0.072 0.182,0 0.069,-0.072 0,-0.069 c 0.199,0.112 0.362,0.167 0.576,0.167 0.436,0 0.632,-0.273 0.632,-0.755 l 0,-1.194 L 0,0" /></g><g
         transform="translate(456.42379,217.95435)"
         id="g316"><path
           inkscape:connector-curvature="0"
           id="path318"
           style="fill:#231f20;fill-opacity:1;fill-rule:nonzero;stroke:none"
           d="m 0,0 -0.268,0 c -0.439,0 -0.555,-0.098 -0.555,-0.356 l 0,-0.043 c 0,-0.261 0.123,-0.33 0.333,-0.33 0.167,0 0.316,0.051 0.49,0.145 L 0,0 Z m 0.247,-0.965 -0.167,0 -0.073,0.073 0,0.079 c -0.174,-0.101 -0.355,-0.177 -0.559,-0.177 -0.308,0 -0.591,0.134 -0.591,0.587 l 0,0.044 c 0,0.392 0.229,0.587 0.875,0.587 l 0.268,0 0,0.146 c 0,0.304 -0.105,0.41 -0.388,0.41 -0.236,0 -0.41,-0.015 -0.555,-0.029 l -0.018,0 -0.066,0.058 0,0.127 0.076,0.068 c 0.149,0.026 0.316,0.048 0.563,0.048 0.504,0 0.707,-0.254 0.707,-0.682 l 0,-1.266 -0.072,-0.073" /></g><g
         transform="translate(459.29349,216.98945)"
         id="g320"><path
           inkscape:connector-curvature="0"
           id="path322"
           style="fill:#231f20;fill-opacity:1;fill-rule:nonzero;stroke:none"
           d="m 0,0 -0.181,0 -0.069,0.072 0,0.069 c -0.2,-0.112 -0.363,-0.166 -0.577,-0.166 -0.435,0 -0.631,0.272 -0.631,0.754 l 0,1.194 0.072,0.072 0.174,0 0.073,-0.072 0,-1.194 c 0,-0.366 0.123,-0.479 0.399,-0.479 0.152,0 0.323,0.058 0.49,0.142 l 0,1.531 0.072,0.072 0.178,0 0.069,-0.072 0,-1.851 L 0,0" /></g><g
         transform="translate(461.44889,216.98205)"
         id="g324"><path
           inkscape:connector-curvature="0"
           id="path326"
           style="fill:#231f20;fill-opacity:1;fill-rule:nonzero;stroke:none"
           d="m 0,0 -0.236,-0.018 c -0.334,0 -0.493,0.087 -0.493,0.486 l 0,1.266 -0.352,0.04 -0.069,0.065 0,0.098 0.069,0.065 0.352,0 0,0.356 0.065,0.073 0.189,0.029 0.011,0 0.054,-0.062 0,-0.396 0.392,0 0.072,-0.072 0,-0.123 -0.072,-0.073 -0.392,0 0,-1.266 c 0,-0.199 0.051,-0.229 0.196,-0.229 l 0.203,0 0.076,-0.05 0,-0.127 L 0,0" /></g><g
         transform="translate(463.76339,219.76085)"
         id="g328"><path
           inkscape:connector-curvature="0"
           id="path330"
           style="fill:#231f20;fill-opacity:1;fill-rule:nonzero;stroke:none"
           d="m 0,0 -0.41,-0.457 -0.083,-0.055 -0.196,0 -0.033,0.026 0.015,0.036 0.355,0.45 0.087,0.054 0.24,0 L 0.015,0.029 0,0 m -0.098,-1.6 c 0,0.41 -0.156,0.57 -0.475,0.57 -0.312,0 -0.486,-0.178 -0.486,-0.57 l 0,-0.032 0.961,0 0,0.032 z m 0.254,-0.275 -1.215,0 0,-0.051 c 0,-0.432 0.17,-0.592 0.504,-0.592 0.21,0 0.479,0.015 0.646,0.04 l 0.018,0 0.058,-0.05 0,-0.124 -0.073,-0.083 c -0.206,-0.04 -0.406,-0.062 -0.649,-0.062 -0.417,0 -0.823,0.196 -0.823,0.871 l 0,0.326 c 0,0.519 0.286,0.849 0.805,0.849 0.529,0 0.798,-0.334 0.798,-0.849 l 0,-0.196 -0.069,-0.079" /></g><g
         transform="translate(467.97579,216.98945)"
         id="g332"><path
           inkscape:connector-curvature="0"
           id="path334"
           style="fill:#231f20;fill-opacity:1;fill-rule:nonzero;stroke:none"
           d="m 0,0 -0.182,0 -0.068,0.072 0,0.069 c -0.2,-0.112 -0.363,-0.166 -0.577,-0.166 -0.435,0 -0.631,0.272 -0.631,0.754 l 0,1.194 0.072,0.072 0.174,0 0.073,-0.072 0,-1.194 c 0,-0.366 0.123,-0.479 0.399,-0.479 0.152,0 0.323,0.058 0.49,0.142 l 0,1.531 0.072,0.072 0.178,0 0.069,-0.072 0,-1.851 L 0,0" /></g><g
         transform="translate(469.95679,218.73435)"
         id="g336"><path
           inkscape:connector-curvature="0"
           id="path338"
           style="fill:#231f20;fill-opacity:1;fill-rule:nonzero;stroke:none"
           d="m 0,0 c -0.167,0 -0.319,-0.044 -0.5,-0.152 l 0,-1.52 -0.073,-0.073 -0.178,0 -0.069,0.073 0,1.85 0.069,0.072 0.171,0 0.069,-0.072 0,-0.076 C -0.33,0.228 -0.163,0.276 0,0.276 L 0.076,0.21 0.076,0.062 0,0" /></g><g
         transform="translate(472.19179,218.12115)"
         id="g340"><path
           inkscape:connector-curvature="0"
           id="path342"
           style="fill:#231f20;fill-opacity:1;fill-rule:nonzero;stroke:none"
           d="m 0,0 c 0,0.388 -0.116,0.61 -0.472,0.61 -0.112,0 -0.304,-0.004 -0.424,-0.026 l 0,-1.44 c 0.123,-0.011 0.301,-0.022 0.424,-0.022 0.36,0 0.472,0.221 0.472,0.617 L 0,0 Z m -0.472,-1.157 c -0.217,0 -0.442,0.018 -0.667,0.062 l -0.076,0.083 0,2.539 0.065,0.069 0.185,0 0.069,-0.069 0,-0.674 c 0.138,0.025 0.308,0.036 0.424,0.036 C 0.054,0.889 0.319,0.57 0.319,0 l 0,-0.261 c 0,-0.544 -0.246,-0.896 -0.791,-0.896" /></g><g
         transform="translate(474.60809,217.95435)"
         id="g344"><path
           inkscape:connector-curvature="0"
           id="path346"
           style="fill:#231f20;fill-opacity:1;fill-rule:nonzero;stroke:none"
           d="m 0,0 -0.268,0 c -0.439,0 -0.555,-0.098 -0.555,-0.356 l 0,-0.043 c 0,-0.261 0.123,-0.33 0.333,-0.33 0.167,0 0.316,0.051 0.49,0.145 L 0,0 Z m 0.247,-0.965 -0.167,0 -0.073,0.073 0,0.079 c -0.174,-0.101 -0.355,-0.177 -0.558,-0.177 -0.309,0 -0.592,0.134 -0.592,0.587 l 0,0.044 c 0,0.392 0.229,0.587 0.875,0.587 l 0.268,0 0,0.146 c 0,0.304 -0.105,0.41 -0.388,0.41 -0.236,0 -0.41,-0.015 -0.555,-0.029 l -0.018,0 -0.066,0.058 0,0.127 0.077,0.068 c 0.148,0.026 0.315,0.048 0.562,0.048 0.504,0 0.707,-0.254 0.707,-0.682 l 0,-1.266 -0.072,-0.073" /></g><g
         transform="translate(476.30619,216.98945)"
         id="g348"><path
           inkscape:connector-curvature="0"
           id="path350"
           style="fill:#231f20;fill-opacity:1;fill-rule:nonzero;stroke:none"
           d="m 0,0 -0.174,0 -0.073,0.072 0,1.851 0.073,0.072 0.174,0 0.073,-0.072 0,-1.851 L 0,0 m 0.007,2.314 -0.185,0 -0.072,0.073 0,0.29 0.072,0.073 0.185,0 0.073,-0.073 0,-0.29 -0.073,-0.073 z" /></g><g
         transform="translate(478.96919,216.98945)"
         id="g352"><path
           inkscape:connector-curvature="0"
           id="path354"
           style="fill:#231f20;fill-opacity:1;fill-rule:nonzero;stroke:none"
           d="m 0,0 -0.174,0 -0.073,0.072 0,1.194 c 0,0.366 -0.123,0.479 -0.399,0.479 -0.152,0 -0.323,-0.058 -0.489,-0.142 l 0,-1.531 L -1.208,0 l -0.178,0 -0.069,0.072 0,1.851 0.069,0.072 0.182,0 0.069,-0.072 0,-0.069 c 0.199,0.112 0.362,0.167 0.576,0.167 0.436,0 0.632,-0.273 0.632,-0.755 l 0,-1.194 L 0,0" /></g><g
         transform="translate(481.34919,218.16105)"
         id="g356"><path
           inkscape:connector-curvature="0"
           id="path358"
           style="fill:#231f20;fill-opacity:1;fill-rule:nonzero;stroke:none"
           d="M 0,0 C 0,0.41 -0.156,0.57 -0.475,0.57 -0.787,0.57 -0.961,0.392 -0.961,0 l 0,-0.033 0.961,0 L 0,0 Z m 0.254,-0.276 -1.215,0 0,-0.05 c 0,-0.432 0.17,-0.592 0.504,-0.592 0.21,0 0.479,0.015 0.646,0.04 l 0.018,0 0.058,-0.051 0,-0.123 -0.073,-0.083 c -0.207,-0.04 -0.406,-0.062 -0.649,-0.062 -0.417,0 -0.824,0.196 -0.824,0.871 l 0,0.326 c 0,0.519 0.287,0.849 0.806,0.849 0.529,0 0.798,-0.334 0.798,-0.849 l 0,-0.196 -0.069,-0.08" /></g></g></g></svg>