<svg width="201" height="54" viewBox="0 0 201 54" fill="none" xmlns="http://www.w3.org/2000/svg">
<path d="M44.0177 0.75087H28.3501C28.0705 0.75087 27.8438 0.976556 27.8438 1.25495V3.53816C27.8438 3.81656 28.0705 4.04224 28.3501 4.04224H44.0177C44.2974 4.04224 44.5241 3.81656 44.5241 3.53816V1.25495C44.5241 0.976556 44.2974 0.75087 44.0177 0.75087Z" fill="#E2000B"/>
<path d="M104.181 31.4407L119.849 31.4407C120.129 31.4407 120.355 31.215 120.355 30.9366V28.6534C120.355 28.375 120.129 28.1493 119.849 28.1493H104.181C103.902 28.1493 103.675 28.375 103.675 28.6534V30.9366C103.675 31.215 103.902 31.4407 104.181 31.4407Z" fill="#FF783B"/>
<path d="M22.7031 1.23716V6.02299C22.7031 6.08918 22.69 6.15474 22.6646 6.21589C22.6392 6.27705 22.6018 6.33262 22.5548 6.37943C22.5078 6.42624 22.452 6.46337 22.3906 6.48871C22.3291 6.51404 22.2633 6.52707 22.1968 6.52707H14.8753C14.741 6.52707 14.6122 6.58018 14.5172 6.67472C14.4223 6.76925 14.3689 6.89747 14.3689 7.03116V30.9485C14.3689 31.0147 14.3558 31.0802 14.3304 31.1414C14.3049 31.2025 14.2676 31.2581 14.2206 31.3049C14.1736 31.3517 14.1178 31.3888 14.0563 31.4142C13.9949 31.4395 13.9291 31.4525 13.8626 31.4525H8.79292C8.72642 31.4525 8.66057 31.4395 8.59914 31.4142C8.5377 31.3888 8.48188 31.3517 8.43486 31.3049C8.38784 31.2581 8.35056 31.2025 8.32511 31.1414C8.29966 31.0802 8.28655 31.0147 8.28655 30.9485V7.03116C8.28655 6.96496 8.27345 6.89941 8.24801 6.83825C8.22256 6.77709 8.18528 6.72153 8.13825 6.67472C8.09123 6.62791 8.0354 6.59077 7.97396 6.56544C7.91252 6.54011 7.84669 6.52707 7.7802 6.52707H0.506371C0.372074 6.52707 0.243276 6.47396 0.148314 6.37943C0.0533512 6.28489 0 6.15668 0 6.02299V1.23716C0 1.10347 0.0533512 0.975249 0.148314 0.880715C0.243276 0.786181 0.372074 0.73307 0.506371 0.73307H22.1968C22.3311 0.73307 22.4599 0.786181 22.5548 0.880715C22.6498 0.975249 22.7031 1.10347 22.7031 1.23716Z" fill="#030402"/>
<path d="M44.4481 28.7127C42.8163 30.3235 40.742 31.4175 38.4867 31.8567C36.2313 32.2959 33.8958 32.0608 31.7745 31.1808C29.6532 30.3009 27.841 28.8156 26.5663 26.9121C25.2916 25.0086 24.6113 22.772 24.6113 20.4843C24.6113 18.1966 25.2916 15.96 26.5663 14.0565C27.841 12.153 29.6532 10.6677 31.7745 9.78774C33.8958 8.90781 36.2313 8.67263 38.4867 9.11184C40.742 9.55106 42.8163 10.645 44.4481 12.2559C46.6233 14.4471 47.8431 17.4036 47.8431 20.4843C47.8431 23.5649 46.6233 26.5214 44.4481 28.7127ZM31.9379 24.8283C32.4907 25.3889 33.1538 25.8299 33.8857 26.1238C34.6176 26.4177 35.4025 26.5581 36.1914 26.5362C36.9837 26.5571 37.7719 26.4164 38.5075 26.1227C39.2431 25.8289 39.9105 25.3884 40.4687 24.8283C41.5708 23.6478 42.1833 22.0959 42.1833 20.4843C42.1833 18.8727 41.5708 17.3208 40.4687 16.1403C39.9116 15.5782 39.2445 15.136 38.5088 14.8412C37.773 14.5464 36.9842 14.4052 36.1914 14.4264C35.4019 14.4042 34.6164 14.545 33.8844 14.84C33.1523 15.135 32.4896 15.5777 31.9379 16.1403C30.8461 17.3259 30.2404 18.8759 30.2404 20.4843C30.2404 22.0927 30.8461 23.6427 31.9379 24.8283Z" fill="#030402"/>
<path d="M63.4746 32.0693C60.0392 32.0693 57.2194 31.1046 55.0153 29.1753C52.8111 27.2459 51.709 24.6563 51.709 21.4065V1.24309C51.709 1.1094 51.7623 0.981184 51.8573 0.88665C51.9523 0.792116 52.0811 0.739014 52.2154 0.739014H57.2373C57.3716 0.739014 57.5004 0.792116 57.5954 0.88665C57.6903 0.981184 57.7437 1.1094 57.7437 1.24309V20.9261C57.7063 21.6233 57.8105 22.3208 58.05 22.977C58.2895 23.6332 58.6595 24.2346 59.1377 24.7453C60.0591 25.6823 61.5047 26.1508 63.4746 26.1508C65.4445 26.1508 66.8921 25.6823 67.8174 24.7453C68.2949 24.2343 68.6639 23.6327 68.9024 22.9765C69.1409 22.3203 69.244 21.6229 69.2055 20.9261V1.23717C69.207 1.10395 69.2609 0.976626 69.3555 0.882424C69.4501 0.788222 69.578 0.734618 69.7118 0.733078H74.7874C74.9217 0.733078 75.0505 0.786189 75.1455 0.880723C75.2404 0.975257 75.2938 1.10347 75.2938 1.23717V21.4005C75.2938 24.6464 74.1917 27.236 71.9875 29.1693C69.7833 31.1027 66.9457 32.0693 63.4746 32.0693Z" fill="#030402"/>
<path d="M87.2567 25.6645H98.0155C98.1498 25.6645 98.2786 25.7176 98.3735 25.8121C98.4685 25.9067 98.5219 26.0349 98.5219 26.1686V30.9485C98.5219 31.0822 98.4685 31.2104 98.3735 31.3049C98.2786 31.3994 98.1498 31.4525 98.0155 31.4525H81.1743C81.04 31.4525 80.9112 31.3994 80.8163 31.3049C80.7213 31.2104 80.668 31.0822 80.668 30.9485V1.23717C80.668 1.10347 80.7213 0.975257 80.8163 0.880723C80.9112 0.786189 81.04 0.733078 81.1743 0.733078H86.244C86.3783 0.733078 86.5071 0.786189 86.602 0.880723C86.697 0.975257 86.7503 1.10347 86.7503 1.23717V25.1545C86.7503 25.2887 86.8035 25.4175 86.8983 25.513C86.9931 25.6085 87.1218 25.6629 87.2567 25.6645Z" fill="#030402"/>
<path d="M120.278 19.9357C118.363 21.8642 115.836 23.0713 113.126 23.3509C110.417 23.6304 107.694 22.965 105.423 21.4684C103.152 19.9717 101.473 17.7366 100.673 15.1447C99.8729 12.5527 100.002 9.76477 101.037 7.25681C102.072 4.74884 103.95 2.67642 106.35 1.39343C108.749 0.110439 111.522 -0.303555 114.194 0.222143C116.866 0.747841 119.272 2.18063 121.001 4.27585C122.73 6.37106 123.674 8.99874 123.674 11.7102C123.698 13.2389 123.409 14.7565 122.825 16.1706C122.242 17.5847 121.375 18.8657 120.278 19.9357ZM107.732 16.0513C108.877 17.1514 110.406 17.7662 111.997 17.7662C113.589 17.7662 115.118 17.1514 116.263 16.0513C117.369 14.8728 117.984 13.3201 117.984 11.7073C117.984 10.0944 117.369 8.5418 116.263 7.36326C115.116 6.26726 113.587 5.65525 111.997 5.65525C110.407 5.65525 108.879 6.26726 107.732 7.36326C106.644 8.55077 106.041 10.1 106.041 11.7073C106.041 13.3145 106.644 14.8638 107.732 16.0513Z" fill="#030402"/>
<path d="M139.121 32.0693C135.682 32.0693 132.862 31.1046 130.662 29.1753C128.462 27.2459 127.359 24.6563 127.355 21.4065V1.24309C127.355 1.1094 127.409 0.981184 127.504 0.88665C127.599 0.792116 127.728 0.739014 127.862 0.739014H132.884C132.95 0.739014 133.016 0.75205 133.078 0.777382C133.139 0.802715 133.195 0.839841 133.242 0.88665C133.289 0.933458 133.326 0.989035 133.352 1.05019C133.377 1.11135 133.39 1.1769 133.39 1.24309V20.9261C133.353 21.6228 133.457 22.3198 133.695 22.9758C133.934 23.6318 134.302 24.2335 134.778 24.7453C135.708 25.6823 137.155 26.1508 139.121 26.1508C141.087 26.1508 142.535 25.6823 143.464 24.7453C143.941 24.2343 144.31 23.6327 144.549 22.9765C144.787 22.3203 144.89 21.6229 144.852 20.9261V1.23717C144.852 1.10347 144.905 0.975257 145 0.880723C145.095 0.786189 145.224 0.733078 145.358 0.733078H150.428C150.563 0.733069 150.692 0.785993 150.788 0.880361C150.884 0.974728 150.939 1.10293 150.94 1.23717V21.4005C150.94 24.6464 149.838 27.236 147.634 29.1693C145.43 31.1027 142.592 32.0693 139.121 32.0693Z" fill="#030402"/>
<path d="M166.898 32.0693C164.181 32.1605 161.497 31.4508 159.183 30.0293C157.259 28.7994 155.771 26.9988 154.93 24.8817C154.885 24.7688 154.883 24.6438 154.923 24.5294C154.964 24.415 155.044 24.319 155.15 24.259L159.475 21.7386C159.538 21.7027 159.607 21.6805 159.679 21.6735C159.75 21.6664 159.823 21.6747 159.891 21.6977C159.959 21.7207 160.022 21.7579 160.074 21.8069C160.127 21.8559 160.168 21.9155 160.196 21.9817C161.459 24.7492 163.751 26.133 167.071 26.133C168.774 26.133 170.023 25.8266 170.818 25.2138C171.209 24.9289 171.522 24.5515 171.73 24.1156C171.938 23.6798 172.033 23.1992 172.007 22.7176C171.981 22.2359 171.834 21.7683 171.581 21.3571C171.328 20.9459 170.975 20.6041 170.556 20.3627C168.91 19.5001 167.163 18.8448 165.355 18.4116C164.165 18.0657 162.996 17.6538 161.852 17.1781C160.839 16.7381 159.878 16.1871 158.987 15.5354C158.045 14.8664 157.292 13.9679 156.8 12.926C156.278 11.7672 156.022 10.5071 156.05 9.23727C156.001 7.97593 156.244 6.72024 156.76 5.56742C157.277 4.4146 158.053 3.39558 159.028 2.58928C161.032 0.930551 163.572 0.0500079 166.177 0.110378C168.507 0.0621999 170.8 0.695198 172.772 1.93102C174.557 3.08382 176.007 4.68296 176.978 6.56859C177.038 6.68396 177.051 6.81813 177.015 6.94303C176.978 7.06792 176.894 7.17388 176.781 7.23873L172.551 9.67018C172.492 9.70417 172.426 9.72579 172.358 9.73372C172.29 9.74165 172.221 9.73572 172.155 9.71631C172.089 9.69691 172.028 9.66442 171.976 9.62081C171.923 9.5772 171.88 9.52339 171.848 9.46263C171.348 8.39477 170.544 7.4964 169.536 6.87872C168.528 6.26104 167.36 5.95116 166.177 5.98741C165.114 5.92405 164.062 6.2278 163.198 6.84732C162.855 7.10398 162.578 7.4386 162.39 7.82334C162.203 8.20808 162.11 8.63182 162.12 9.05935C162.105 9.52216 162.206 9.98139 162.414 10.3956C162.622 10.8097 162.931 11.1657 163.312 11.4315C164.106 12.0285 165.657 12.6789 167.964 13.3826L170.103 14.0646C170.583 14.2228 171.245 14.4718 172.087 14.8118C172.759 15.0689 173.407 15.3844 174.023 15.7548C174.571 16.1151 175.094 16.5113 175.59 16.9409C176.122 17.3734 176.578 17.8928 176.936 18.4768C177.681 19.8029 178.067 21.2987 178.056 22.8179C178.108 24.1082 177.854 25.3926 177.315 26.5671C176.776 27.7417 175.966 28.7733 174.952 29.5785C172.903 31.2391 170.218 32.0693 166.898 32.0693Z" fill="#030402"/>
<path d="M188.315 25.6645H200.301C200.436 25.6645 200.565 25.7176 200.66 25.8121C200.754 25.9067 200.808 26.0349 200.808 26.1686V30.9485C200.808 31.0822 200.754 31.2104 200.66 31.3049C200.565 31.3994 200.436 31.4525 200.301 31.4525H182.227C182.093 31.4525 181.964 31.3994 181.869 31.3049C181.774 31.2104 181.721 31.0822 181.721 30.9485V1.23717C181.721 1.10347 181.774 0.975257 181.869 0.880723C181.964 0.786189 182.093 0.733078 182.227 0.733078H200.099C200.234 0.733069 200.363 0.785993 200.459 0.880361C200.555 0.974728 200.61 1.10293 200.611 1.23717V6.02299C200.61 6.15723 200.555 6.28543 200.459 6.3798C200.363 6.47417 200.234 6.52709 200.099 6.52708H188.315C188.181 6.52708 188.052 6.58019 187.957 6.67473C187.862 6.76926 187.809 6.89748 187.809 7.03117V12.5642C187.809 12.6979 187.862 12.8261 187.957 12.9207C188.052 13.0152 188.181 13.0683 188.315 13.0683H198.979C199.045 13.0683 199.111 13.0813 199.173 13.1067C199.234 13.132 199.29 13.1691 199.337 13.216C199.384 13.2628 199.421 13.3183 199.447 13.3795C199.472 13.4406 199.485 13.5062 199.485 13.5724V18.2693C199.485 18.403 199.432 18.5312 199.337 18.6257C199.242 18.7202 199.113 18.7734 198.979 18.7734H188.315C188.181 18.7734 188.052 18.8265 187.957 18.921C187.862 19.0155 187.809 19.1437 187.809 19.2774V25.1545C187.809 25.2887 187.862 25.4175 187.957 25.513C188.052 25.6085 188.181 25.6629 188.315 25.6645Z" fill="#030402"/>
<path d="M19.7663 53.8161H18.968C18.9459 53.8161 18.9247 53.8073 18.909 53.7918C18.8934 53.7762 18.8846 53.7551 18.8846 53.7331V42.833C18.8843 42.8149 18.8781 42.7975 18.867 42.7832C18.8559 42.769 18.8404 42.7588 18.8229 42.7541C18.8054 42.7494 18.7868 42.7505 18.77 42.7572C18.7532 42.764 18.739 42.776 18.7297 42.7915L14.1664 50.3349H13.9996L9.43638 42.7915C9.42704 42.776 9.41288 42.764 9.39607 42.7572C9.37926 42.7505 9.36069 42.7494 9.34318 42.7541C9.32568 42.7588 9.3102 42.769 9.29906 42.7832C9.28793 42.7975 9.28175 42.8149 9.28148 42.833V53.7331C9.28148 53.7551 9.27269 53.7762 9.25705 53.7918C9.24141 53.8073 9.22019 53.8161 9.19807 53.8161H8.3998C8.37768 53.8161 8.35646 53.8073 8.34082 53.7918C8.32518 53.7762 8.31641 53.7551 8.31641 53.7331V41.2021C8.31641 41.1801 8.32518 41.159 8.34082 41.1434C8.35646 41.1279 8.37768 41.1191 8.3998 41.1191H9.47212C9.48591 41.1195 9.49944 41.1229 9.51179 41.1291C9.52413 41.1352 9.53498 41.144 9.5436 41.1547L13.9996 48.5084C14.0078 48.5206 14.0188 48.5307 14.0318 48.5376C14.0448 48.5445 14.0594 48.5482 14.0741 48.5482C14.0889 48.5482 14.1034 48.5445 14.1164 48.5376C14.1294 48.5307 14.1404 48.5206 14.1486 48.5084L18.6046 41.1547C18.6126 41.1433 18.6233 41.134 18.6358 41.1278C18.6483 41.1216 18.6621 41.1186 18.6761 41.1191H19.7663C19.7884 41.1191 19.8096 41.1279 19.8253 41.1434C19.8409 41.159 19.8497 41.1801 19.8497 41.2021V53.7331C19.8497 53.744 19.8475 53.7547 19.8433 53.7648C19.8391 53.7749 19.833 53.7841 19.8253 53.7918C19.8175 53.7995 19.8083 53.8056 19.7982 53.8098C19.7881 53.8139 19.7772 53.8161 19.7663 53.8161Z" fill="black"/>
<path d="M31.4849 50.5899H25.206C25.1889 50.5891 25.1721 50.5939 25.1581 50.6036C25.1441 50.6132 25.1337 50.6272 25.1285 50.6433L23.9371 53.7627C23.9307 53.7793 23.9192 53.7935 23.9042 53.8031C23.8892 53.8127 23.8715 53.8172 23.8536 53.8161H22.8945L27.8272 41.1725C27.8342 41.1564 27.8459 41.1427 27.8607 41.1332C27.8756 41.1237 27.8929 41.1188 27.9105 41.1191H28.8161C28.8329 41.1192 28.8493 41.1243 28.8631 41.1338C28.8769 41.1434 28.8875 41.1568 28.8935 41.1725L33.8083 53.8161H32.8491C32.8321 53.8169 32.8153 53.8121 32.8013 53.8025C32.7873 53.7928 32.7769 53.7788 32.7717 53.7627L31.5802 50.6433C31.5725 50.6252 31.559 50.6101 31.5417 50.6004C31.5245 50.5908 31.5045 50.5871 31.4849 50.5899ZM31.1573 49.564L28.4348 42.5009C28.4275 42.4858 28.4161 42.4732 28.4018 42.4643C28.3876 42.4554 28.3711 42.4507 28.3544 42.4507C28.3376 42.4507 28.3211 42.4554 28.3069 42.4643C28.2927 42.4732 28.2813 42.4858 28.2739 42.5009L25.5574 49.564C25.5513 49.5768 25.5486 49.5909 25.5496 49.6051C25.5505 49.6193 25.5551 49.6329 25.5629 49.6448C25.5706 49.6567 25.5813 49.6665 25.5939 49.6731C25.6065 49.6797 25.6206 49.6829 25.6349 49.6826H31.0739C31.0881 49.6824 31.1021 49.6789 31.1147 49.6723C31.1272 49.6657 31.1381 49.6562 31.1462 49.6446C31.1544 49.633 31.1596 49.6197 31.1616 49.6056C31.1635 49.5916 31.162 49.5773 31.1573 49.564Z" fill="black"/>
<path d="M37.7932 41.2021V53.733C37.7932 53.7551 37.7844 53.7762 37.7688 53.7918C37.7531 53.8073 37.7319 53.8161 37.7098 53.8161H36.9115C36.8894 53.8161 36.8682 53.8073 36.8526 53.7918C36.8369 53.7762 36.8281 53.7551 36.8281 53.733V41.2021C36.8281 41.1801 36.8369 41.159 36.8526 41.1434C36.8682 41.1278 36.8894 41.1191 36.9115 41.1191H37.7098C37.7319 41.1191 37.7531 41.1278 37.7688 41.1434C37.7844 41.159 37.7932 41.1801 37.7932 41.2021Z" fill="black"/>
<path d="M47.2053 48.6329H43.2556C43.2335 48.6329 43.2123 48.6417 43.1966 48.6572C43.181 48.6728 43.1722 48.6939 43.1722 48.7159V53.7568C43.1707 53.7793 43.1606 53.8004 43.144 53.8159C43.1274 53.8313 43.1055 53.8398 43.0828 53.8398H42.2905C42.2678 53.8398 42.2459 53.8313 42.2294 53.8159C42.2128 53.8004 42.2027 53.7793 42.2012 53.7568V41.2021C42.2027 41.1796 42.2128 41.1584 42.2294 41.143C42.2459 41.1276 42.2678 41.119 42.2905 41.1191H47.0563C48.0178 41.1036 48.9509 41.4437 49.6751 42.0736C50.3992 42.7035 50.8628 43.5785 50.9762 44.5291C51.0534 45.4104 50.8154 46.2906 50.3042 47.0143C49.7931 47.738 49.0415 48.2588 48.1823 48.4846L51.3515 53.822H50.2911C50.2766 53.8219 50.2624 53.818 50.2499 53.8107C50.2373 53.8034 50.2269 53.793 50.2197 53.7805L47.2053 48.6329ZM43.1782 47.6425C43.1782 47.6645 43.1869 47.6857 43.2026 47.7012C43.2182 47.7168 43.2394 47.7255 43.2616 47.7255H47.241C47.9745 47.6922 48.6668 47.3786 49.174 46.8501C49.6812 46.3216 49.9642 45.6188 49.9642 44.8879C49.9642 44.1569 49.6812 43.4541 49.174 42.9256C48.6668 42.3971 47.9745 42.0835 47.241 42.0502H43.2556C43.2335 42.0502 43.2123 42.0589 43.1966 42.0745C43.181 42.0901 43.1722 42.1112 43.1722 42.1332L43.1782 47.6425Z" fill="black"/>
<path d="M55.7248 41.2021V53.733C55.7248 53.7551 55.7161 53.7762 55.7004 53.7918C55.6848 53.8073 55.6636 53.8161 55.6415 53.8161H54.8432C54.8211 53.8161 54.7998 53.8073 54.7842 53.7918C54.7686 53.7762 54.7598 53.7551 54.7598 53.733V41.2021C54.7598 41.1801 54.7686 41.159 54.7842 41.1434C54.7998 41.1278 54.8211 41.1191 54.8432 41.1191H55.6415C55.6636 41.1191 55.6848 41.1278 55.7004 41.1434C55.7161 41.159 55.7248 41.1801 55.7248 41.2021Z" fill="black"/>
<path d="M67.4835 52.9917V53.733C67.4835 53.7551 67.4747 53.7762 67.4591 53.7918C67.4434 53.8073 67.4222 53.8161 67.4001 53.8161H60.2514C60.2292 53.8161 60.208 53.8073 60.1924 53.7918C60.1767 53.7762 60.168 53.7551 60.168 53.733V41.2021C60.168 41.1801 60.1767 41.159 60.1924 41.1434C60.208 41.1278 60.2292 41.1191 60.2514 41.1191H67.3405C67.3626 41.1191 67.3839 41.1278 67.3995 41.1434C67.4151 41.159 67.4239 41.1801 67.4239 41.2021V41.9375C67.424 41.9601 67.4154 41.9819 67.3999 41.9984C67.3844 42.0149 67.3632 42.0249 67.3405 42.0264H61.1867C61.1645 42.0264 61.1433 42.0352 61.1277 42.0508C61.112 42.0663 61.1032 42.0874 61.1032 42.1095V46.8538C61.1047 46.8753 61.1139 46.8957 61.1292 46.9109C61.1446 46.9262 61.165 46.9354 61.1867 46.9368H66.852C66.8741 46.9368 66.8954 46.9455 66.911 46.9611C66.9266 46.9767 66.9354 46.9978 66.9354 47.0198V47.7552C66.9355 47.7778 66.9269 47.7996 66.9114 47.8161C66.8959 47.8326 66.8747 47.8427 66.852 47.8442H61.1867C61.1645 47.8442 61.1433 47.8529 61.1277 47.8685C61.112 47.884 61.1032 47.9052 61.1032 47.9272V52.802C61.1032 52.824 61.112 52.8451 61.1277 52.8607C61.1433 52.8762 61.1645 52.885 61.1867 52.885H67.4001C67.4134 52.8844 67.4266 52.8871 67.4387 52.8926C67.4507 52.8982 67.4613 52.9065 67.4694 52.917C67.4776 52.9274 67.4831 52.9396 67.4856 52.9527C67.488 52.9657 67.4873 52.9791 67.4835 52.9917Z" fill="black"/>
<path d="M97.5808 53.8161H96.7826C96.7604 53.8161 96.7392 53.8073 96.7236 53.7918C96.7079 53.7762 96.6992 53.7551 96.6992 53.7331V42.833C96.6969 42.8153 96.6895 42.7986 96.6776 42.7852C96.6658 42.7718 96.6502 42.7623 96.6329 42.7578C96.6156 42.7533 96.5973 42.7541 96.5804 42.7601C96.5635 42.7661 96.5489 42.7771 96.5383 42.7915L91.975 50.3349H91.8142L87.2509 42.7915C87.2404 42.7771 87.2257 42.7661 87.2088 42.7601C87.192 42.7541 87.1737 42.7533 87.1563 42.7578C87.139 42.7623 87.1234 42.7718 87.1116 42.7852C87.0998 42.7986 87.0923 42.8153 87.0901 42.833V53.7331C87.0901 53.7551 87.0813 53.7762 87.0657 53.7918C87.05 53.8073 87.0288 53.8161 87.0067 53.8161H86.2084C86.1863 53.8161 86.1651 53.8073 86.1494 53.7918C86.1338 53.7762 86.125 53.7551 86.125 53.7331V41.2021C86.125 41.1801 86.1338 41.159 86.1494 41.1434C86.1651 41.1278 86.1863 41.1191 86.2084 41.1191H87.2807C87.2948 41.118 87.3088 41.1207 87.3214 41.127C87.334 41.1333 87.3447 41.1428 87.3522 41.1547L91.8142 48.5084C91.8216 48.5206 91.8321 48.5308 91.8446 48.5379C91.8571 48.5449 91.8713 48.5486 91.8857 48.5486C91.9001 48.5486 91.9142 48.5449 91.9268 48.5379C91.9393 48.5308 91.9498 48.5206 91.9572 48.5084L96.4192 41.1547C96.4267 41.1428 96.4373 41.1333 96.4499 41.127C96.4625 41.1207 96.4766 41.118 96.4906 41.1191H97.5808C97.603 41.1191 97.6242 41.1278 97.6398 41.1434C97.6555 41.159 97.6642 41.1801 97.6642 41.2021V53.7331C97.6642 53.7551 97.6555 53.7762 97.6398 53.7918C97.6242 53.8073 97.603 53.8161 97.5808 53.8161Z" fill="black"/>
<path d="M109.834 52.9917V53.733C109.834 53.7551 109.825 53.7762 109.809 53.7918C109.794 53.8073 109.772 53.8161 109.75 53.8161H102.572C102.55 53.8161 102.528 53.8073 102.513 53.7918C102.497 53.7762 102.488 53.7551 102.488 53.733V41.2021C102.488 41.1801 102.497 41.159 102.513 41.1434C102.528 41.1278 102.55 41.1191 102.572 41.1191H109.655C109.678 41.119 109.699 41.1276 109.716 41.143C109.733 41.1584 109.743 41.1796 109.744 41.2021V41.9375C109.744 41.9611 109.735 41.9837 109.718 42.0004C109.701 42.0171 109.679 42.0264 109.655 42.0264H103.537C103.515 42.0264 103.493 42.0352 103.478 42.0508C103.462 42.0663 103.453 42.0874 103.453 42.1095V46.8538C103.455 46.8753 103.464 46.8957 103.479 46.9109C103.495 46.9262 103.515 46.9354 103.537 46.9368H109.202C109.224 46.9368 109.245 46.9456 109.261 46.9611C109.277 46.9767 109.286 46.9978 109.286 47.0198V47.7552C109.286 47.7778 109.277 47.7996 109.262 47.8161C109.246 47.8326 109.225 47.8427 109.202 47.8442H103.537C103.515 47.8442 103.493 47.8529 103.478 47.8685C103.462 47.884 103.453 47.9052 103.453 47.9272V52.802C103.453 52.824 103.462 52.8451 103.478 52.8607C103.493 52.8763 103.515 52.885 103.537 52.885H109.75C109.763 52.8844 109.777 52.8871 109.789 52.8926C109.801 52.8982 109.811 52.9065 109.82 52.917C109.828 52.9274 109.833 52.9396 109.836 52.9527C109.838 52.9657 109.837 52.9791 109.834 52.9917ZM106.259 39.8085C106.253 39.8203 106.244 39.8301 106.232 39.8365C106.22 39.8428 106.207 39.8455 106.194 39.844H105.342L106.778 37.5846C106.784 37.5716 106.795 37.5609 106.807 37.5535C106.82 37.5462 106.834 37.5425 106.849 37.543H107.898L106.259 39.8085Z" fill="black"/>
<path d="M121.767 42.0264H117.931C117.909 42.0264 117.887 42.0352 117.872 42.0508C117.856 42.0663 117.847 42.0874 117.847 42.1095V53.733C117.846 53.7556 117.836 53.7767 117.819 53.7921C117.803 53.8076 117.781 53.8161 117.758 53.8161H116.942C116.92 53.8161 116.899 53.8073 116.883 53.7918C116.867 53.7762 116.858 53.7551 116.858 53.733V42.1095C116.858 42.0874 116.85 42.0663 116.834 42.0508C116.818 42.0352 116.797 42.0264 116.775 42.0264H112.956C112.934 42.0249 112.913 42.0149 112.897 41.9984C112.882 41.9819 112.873 41.9601 112.873 41.9375V41.2021C112.873 41.1801 112.882 41.159 112.897 41.1434C112.913 41.1278 112.934 41.1191 112.956 41.1191H121.791C121.814 41.119 121.836 41.1276 121.852 41.143C121.869 41.1584 121.879 41.1796 121.88 41.2021V41.9375C121.881 41.9515 121.878 41.9654 121.872 41.9781C121.866 41.9907 121.858 42.0019 121.847 42.0105C121.835 42.0192 121.823 42.0252 121.809 42.0279C121.795 42.0307 121.781 42.0302 121.767 42.0264Z" fill="black"/>
<path d="M130.297 48.6329H126.353C126.331 48.6329 126.31 48.6417 126.294 48.6572C126.279 48.6728 126.27 48.6939 126.27 48.7159V53.7568C126.27 53.7788 126.261 53.7999 126.245 53.8155C126.23 53.831 126.208 53.8398 126.186 53.8398H125.388C125.366 53.8398 125.345 53.831 125.329 53.8155C125.313 53.7999 125.305 53.7788 125.305 53.7568V41.2021C125.305 41.1801 125.313 41.159 125.329 41.1434C125.345 41.1278 125.366 41.1191 125.388 41.1191H130.154C131.115 41.1037 132.047 41.4441 132.77 42.0741C133.493 42.7041 133.956 43.579 134.068 44.5291C134.147 45.4098 133.91 46.29 133.4 47.0138C132.889 47.7377 132.139 48.2587 131.28 48.4846L134.449 53.822H133.383C133.368 53.8213 133.354 53.8172 133.342 53.81C133.329 53.8027 133.319 53.7926 133.311 53.7805L130.297 48.6329ZM126.27 47.6425C126.27 47.6645 126.279 47.6857 126.294 47.7012C126.31 47.7168 126.331 47.7255 126.353 47.7255H130.333C131.066 47.6922 131.758 47.3786 132.266 46.8501C132.773 46.3216 133.056 45.6188 133.056 44.8879C133.056 44.1569 132.773 43.4541 132.266 42.9256C131.758 42.3971 131.066 42.0836 130.333 42.0502H126.353C126.331 42.0502 126.31 42.0589 126.294 42.0745C126.279 42.0901 126.27 42.1112 126.27 42.1332V47.6425Z" fill="black"/>
<path d="M137.285 47.4468C137.291 46.1579 137.68 44.8996 138.404 43.8307C139.128 42.7618 140.153 41.9303 141.351 41.4411C142.549 40.9519 143.866 40.827 145.135 41.082C146.404 41.3371 147.569 41.9607 148.482 42.8742C149.396 43.7877 150.017 44.9501 150.267 46.2147C150.518 47.4793 150.386 48.7894 149.889 49.9797C149.393 51.17 148.553 52.187 147.476 52.9025C146.399 53.618 145.133 53.9999 143.838 53.9999C142.975 53.9999 142.121 53.8302 141.324 53.5005C140.527 53.1708 139.803 52.6877 139.194 52.0788C138.585 51.4699 138.103 50.7472 137.775 49.9523C137.448 49.1575 137.281 48.306 137.285 47.4468ZM149.48 47.4468C149.473 46.3423 149.137 45.2646 148.516 44.3496C147.894 43.4347 147.014 42.7234 145.987 42.3056C144.96 41.8878 143.832 41.7821 142.744 42.0019C141.657 42.2217 140.659 42.7571 139.877 43.5406C139.095 44.3241 138.564 45.3206 138.35 46.4044C138.136 47.4882 138.249 48.6109 138.675 49.6307C139.102 50.6505 139.822 51.5218 140.745 52.1347C141.668 52.7476 142.753 53.0747 143.862 53.0748C144.604 53.0788 145.339 52.9356 146.025 52.6538C146.711 52.3719 147.333 51.957 147.856 51.4331C148.379 50.9092 148.792 50.2869 149.071 49.6025C149.349 48.9181 149.488 48.1853 149.48 47.4468Z" fill="black"/>
<path d="M162.812 45.0747C162.824 45.5954 162.729 46.113 162.533 46.5958C162.337 47.0787 162.044 47.5166 161.672 47.883C161.3 48.2493 160.857 48.5363 160.37 48.7264C159.883 48.9165 159.362 49.0058 158.839 48.9888H155.55C155.529 48.9901 155.508 48.9993 155.493 49.0146C155.478 49.0299 155.468 49.0502 155.467 49.0718V53.7509C155.467 53.7729 155.458 53.794 155.443 53.8096C155.427 53.8251 155.406 53.8339 155.384 53.8339H154.585C154.563 53.8339 154.542 53.8251 154.526 53.8096C154.511 53.794 154.502 53.7729 154.502 53.7509V41.2021C154.502 41.1801 154.511 41.159 154.526 41.1434C154.542 41.1279 154.563 41.1191 154.585 41.1191H158.827C159.354 41.101 159.88 41.1908 160.371 41.383C160.862 41.5753 161.308 41.8658 161.681 42.2366C162.055 42.6074 162.348 43.0506 162.543 43.5388C162.737 44.027 162.829 44.5497 162.812 45.0747ZM161.841 45.217C161.878 44.8087 161.828 44.3973 161.695 44.0096C161.561 43.6219 161.346 43.2666 161.065 42.9671C160.784 42.6676 160.442 42.4306 160.063 42.2716C159.683 42.1125 159.274 42.0351 158.863 42.0443H155.55C155.528 42.0443 155.507 42.053 155.491 42.0686C155.476 42.0841 155.467 42.1053 155.467 42.1273V47.9984C155.467 48.0204 155.476 48.0415 155.491 48.0571C155.507 48.0726 155.528 48.0814 155.55 48.0814H158.785C159.57 48.0883 160.328 47.7918 160.898 47.2543C161.468 46.7167 161.806 45.98 161.841 45.1992V45.217Z" fill="black"/>
<path d="M165.975 47.4468C165.981 46.1592 166.369 44.902 167.091 43.8338C167.814 42.7656 168.838 41.9341 170.034 41.444C171.23 40.9539 172.545 40.8272 173.813 41.0799C175.082 41.3325 176.247 41.9532 177.161 42.8638C178.076 43.7743 178.699 44.934 178.953 46.1966C179.207 47.4593 179.08 48.7685 178.587 49.9592C178.095 51.15 177.26 52.1691 176.187 52.8882C175.114 53.6072 173.851 53.9941 172.557 53.9999C171.692 54.0039 170.834 53.837 170.034 53.5091C169.233 53.1812 168.506 52.6986 167.894 52.0893C167.282 51.48 166.797 50.7561 166.468 49.9592C166.138 49.1624 165.971 48.3085 165.975 47.4468ZM178.169 47.4468C178.161 46.3437 177.825 45.2678 177.203 44.3546C176.582 43.4414 175.702 42.7318 174.676 42.3153C173.65 41.8989 172.523 41.7941 171.437 42.0144C170.352 42.2346 169.355 42.7699 168.575 43.5528C167.794 44.3357 167.264 45.3311 167.051 46.4137C166.838 47.4962 166.951 48.6173 167.377 49.6357C167.803 50.654 168.522 51.5241 169.444 52.1361C170.366 52.7481 171.449 53.0748 172.557 53.0748C173.301 53.0811 174.038 52.9398 174.726 52.659C175.414 52.3782 176.038 51.9636 176.563 51.4395C177.088 50.9154 177.502 50.2923 177.782 49.6067C178.062 48.9211 178.202 48.1868 178.193 47.4468H178.169Z" fill="black"/>
<path d="M190.199 52.9917V53.733C190.199 53.7551 190.19 53.7762 190.174 53.7918C190.159 53.8073 190.137 53.8161 190.115 53.8161H183.306C183.284 53.8161 183.263 53.8073 183.247 53.7918C183.231 53.7762 183.223 53.7551 183.223 53.733V41.2021C183.223 41.1801 183.231 41.159 183.247 41.1434C183.263 41.1278 183.284 41.1191 183.306 41.1191H184.104C184.126 41.1191 184.148 41.1278 184.163 41.1434C184.179 41.159 184.188 41.1801 184.188 41.2021V52.8257C184.188 52.8477 184.197 52.8688 184.212 52.8844C184.228 52.9 184.249 52.9087 184.271 52.9087H190.115C190.137 52.9087 190.159 52.9175 190.174 52.933C190.19 52.9486 190.199 52.9697 190.199 52.9917Z" fill="black"/>
<path d="M200.999 52.9917V53.733C200.999 53.7551 200.99 53.7762 200.975 53.7918C200.959 53.8073 200.938 53.8161 200.916 53.8161H193.767C193.745 53.8161 193.724 53.8073 193.708 53.7918C193.692 53.7762 193.684 53.7551 193.684 53.733V41.2021C193.684 41.1801 193.692 41.159 193.708 41.1434C193.724 41.1278 193.745 41.1191 193.767 41.1191H200.85C200.872 41.1191 200.894 41.1278 200.909 41.1434C200.925 41.159 200.934 41.1801 200.934 41.2021V41.9375C200.934 41.9601 200.925 41.9819 200.91 41.9984C200.894 42.0149 200.873 42.0249 200.85 42.0264H194.702C194.68 42.0264 194.659 42.0352 194.643 42.0508C194.628 42.0663 194.619 42.0874 194.619 42.1095V46.8538C194.619 46.8758 194.628 46.8969 194.643 46.9125C194.659 46.9281 194.68 46.9368 194.702 46.9368H200.368C200.39 46.9368 200.411 46.9455 200.427 46.9611C200.442 46.9767 200.451 46.9978 200.451 47.0198V47.7552C200.451 47.7778 200.443 47.7996 200.427 47.8161C200.412 47.8326 200.39 47.8427 200.368 47.8442H194.702C194.68 47.8442 194.659 47.8529 194.643 47.8685C194.628 47.884 194.619 47.9052 194.619 47.9272V52.802C194.619 52.824 194.628 52.8451 194.643 52.8607C194.659 52.8762 194.68 52.885 194.702 52.885H200.916C200.929 52.8856 200.941 52.889 200.953 52.8949C200.964 52.9008 200.974 52.9091 200.982 52.9192C200.99 52.9294 200.996 52.9411 200.999 52.9536C201.002 52.9661 201.002 52.9792 200.999 52.9917Z" fill="black"/>
<path d="M78.5583 46.9665H73.4291C73.383 46.9665 73.3457 47.0036 73.3457 47.0495V47.7789C73.3457 47.8248 73.383 47.862 73.4291 47.862H78.5583C78.6044 47.862 78.6417 47.8248 78.6417 47.7789V47.0495C78.6417 47.0036 78.6044 46.9665 78.5583 46.9665Z" fill="#222221"/>
</svg>