<?xml version="1.0" encoding="UTF-8" standalone="no"?>
<svg
   xmlns:dc="http://purl.org/dc/elements/1.1/"
   xmlns:cc="http://creativecommons.org/ns#"
   xmlns:rdf="http://www.w3.org/1999/02/22-rdf-syntax-ns#"
   xmlns:svg="http://www.w3.org/2000/svg"
   xmlns="http://www.w3.org/2000/svg"
   xmlns:sodipodi="http://sodipodi.sourceforge.net/DTD/sodipodi-0.dtd"
   xmlns:inkscape="http://www.inkscape.org/namespaces/inkscape"
   version="1.1"
   id="svg833"
   xml:space="preserve"
   width="600"
   height="231.32553"
   viewBox="0 0 600 231.32553"
   sodipodi:docname="Logo Le Havre Seine MeÌtropole copie.svg"
   inkscape:version="1.0.1 (c497b03c, 2020-09-10)"><sodipodi:namedview
     pagecolor="#ffffff"
     bordercolor="#666666"
     borderopacity="1"
     objecttolerance="10"
     gridtolerance="10"
     guidetolerance="10"
     inkscape:pageopacity="0"
     inkscape:pageshadow="2"
     inkscape:window-width="1920"
     inkscape:window-height="1080"
     id="namedview914"
     showgrid="false"
     inkscape:zoom="1.2483343"
     inkscape:cx="271.11757"
     inkscape:cy="291.09676"
     inkscape:window-x="0"
     inkscape:window-y="0"
     inkscape:window-maximized="0"
     inkscape:current-layer="svg833" /><metadata
     id="metadata839"><rdf:RDF><cc:Work
         rdf:about=""><dc:format>image/svg+xml</dc:format><dc:type
           rdf:resource="http://purl.org/dc/dcmitype/StillImage" /><dc:title></dc:title></cc:Work></rdf:RDF></metadata><defs
     id="defs837" /><g
     id="g1012"><path
       fill="#254a94"
       d="m 95.487903,40.725133 c -17.251568,0 -33.449587,4.599288 -47.429098,12.635327 V 0.12594153 H 0 V 128.00504 h 48.782969 c 3.901766,-22.25048 23.352467,-39.221102 46.704934,-39.221102 23.352467,0 42.803167,16.970622 46.702517,39.221102 h 48.40756 C 186.42011,79.18574 145.37286,40.725133 95.487903,40.725133"
       id="path853"
       style="stroke-width:2.42195" /><path
       fill="#00b2eb"
       d="m 95.352274,183.26431 c -24.091163,0 -44.03352,-18.0605 -47.027054,-41.35 H 0.08234639 c 3.14853841,49.82683 44.66322761,89.41123 95.26992761,89.41123 50.965146,0 92.126236,-39.5844 95.274776,-89.41123 h -48.2453 c -2.99596,23.2895 -22.93589,41.35 -47.029476,41.35"
       id="path889"
       style="stroke-width:2.42195" /></g><g
     id="g1008"><g
       id="g952"><path
         fill="#254a94"
         d="m 248.24772,19.298118 c 2.84095,-5.539005 8.15714,-8.668168 14.56562,-8.668168 6.99218,0 12.30594,3.57238 14.56563,9.106542 h 8.74082 C 283.49682,9.3220956 274.97881,2.913609 262.74068,2.913609 c -5.02555,0 -9.39233,1.0898786 -13.18268,3.2793238 -7.20774,4.2238852 -11.50912,11.7246722 -11.94023,21.1170052 h 8.51801 c 0.14531,-3.058927 0.87432,-5.679479 2.11194,-8.01182"
         id="path855"
         style="stroke-width:2.42195" /><path
         fill="#254a94"
         d="m 287.13701,26.869142 h -25.85434 v 6.120274 h 18.86459 c -1.23762,9.251859 -8.01182,14.85868 -16.53467,14.85868 -3.49488,0 -6.55623,-0.729008 -9.17436,-2.25726 -4.51452,-2.477658 -7.42813,-7.064836 -8.15471,-13.255347 h -8.59309 c 0.36087,3.785512 1.31027,7.210153 2.98384,10.269079 4.14881,7.939161 12.16305,12.671656 22.14149,12.671656 4.43944,0 8.44535,-0.946983 11.94265,-2.76587 6.91952,-3.715275 11.21607,-10.12134 12.3786,-17.699629 z"
         id="path857"
         style="stroke-width:2.42195" /><path
         fill="#254a94"
         d="m 303.4198,34.447432 c 0,-8.157137 4.80273,-11.434038 12.09039,-11.434038 h 2.47523 v -9.031462 c -6.62646,0 -11.87483,3.279324 -14.56804,8.518008 v -7.86408 h -8.30003 v 40.12691 h 8.30003 V 34.447432 Z"
         id="path859"
         style="stroke-width:2.42195" /><path
         fill="#254a94"
         d="m 353.46945,23.957955 c -2.11194,-5.899876 -7.50321,-9.833127 -14.7836,-9.833127 -3.4973,0 -6.62646,0.801666 -9.32209,2.472813 -5.53417,3.279324 -8.81349,9.690233 -8.81349,18.062923 0,4.221463 0.80167,7.868924 2.32992,10.998086 3.12916,6.195355 8.81348,9.61273 15.80324,9.61273 7.28281,0 12.67166,-3.933251 14.7836,-9.828283 v 9.319673 h 8.30245 V 14.63586 h -8.30245 v 9.322095 z m -1.60333,17.69963 c -2.10952,4.003487 -5.97012,6.258325 -10.63237,6.258325 -7.35547,0 -12.16305,-5.023129 -12.16305,-13.252924 0,-8.224951 4.80758,-13.255347 12.16305,-13.255347 2.33234,0 4.44428,0.513454 6.26074,1.603333 3.7177,2.182179 5.97496,6.408486 5.97496,11.652014 0,2.695633 -0.51103,5.027973 -1.60333,6.994599"
         id="path861"
         style="stroke-width:2.42195" /><path
         fill="#254a94"
         d="m 393.43409,13.981932 c -6.62646,0 -12.02015,3.424641 -14.13209,9.467413 v -8.815907 h -8.30003 V 54.76277 H 379.302 V 33.425368 c 0,-8.157137 4.29896,-12.456102 10.92785,-12.456102 6.40848,0 10.34416,4.076146 10.34416,11.286299 V 54.76277 h 8.30245 V 31.390928 c 0,-11.148248 -6.12027,-17.408996 -15.44237,-17.408996"
         id="path863"
         style="stroke-width:2.42195" /><path
         fill="#254a94"
         d="m 449.05181,18.276054 c -3.4973,-2.695633 -7.94643,-4.2917 -12.67408,-4.2917 -10.63721,0 -19.3732,7.861658 -20.61324,18.128316 h 8.08448 c 1.23762,-5.897455 6.40849,-10.266658 12.52876,-10.191577 6.11785,0.07266 11.28872,4.371624 12.52634,10.191577 h 8.23222 V 0 h -8.08448 z"
         id="path865"
         style="stroke-width:2.42195" /><path
         fill="#254a94"
         d="m 436.38015,47.339486 c -6.12027,0 -11.2209,-4.298966 -12.53118,-10.196421 h -8.08448 c 1.31028,10.266657 9.97603,18.058079 20.61566,18.058079 10.19158,0 19.5161,-7.716341 20.53574,-18.058079 h -8.08206 c -0.9494,5.534162 -6.26801,10.196421 -12.45368,10.196421"
         id="path867"
         style="stroke-width:2.42195" /></g><g
       id="g964"><path
         fill="#254a94"
         d="m 266.01759,101.53794 c 5.53416,-1.38536 9.24701,-5.466346 9.24701,-11.947491 0,-8.084478 -5.67948,-12.964713 -15.94614,-12.964713 H 239.21868 V 104.81 h 18.71685 c 6.33583,0 9.97844,3.06377 9.97844,8.23222 0,5.17571 -3.57238,8.15713 -9.9082,8.15713 h -10.48948 v -11.43646 h -8.30003 v 18.28332 h 20.46308 c 10.85034,0 16.75264,-5.39126 16.75264,-13.91412 0.002,-6.18808 -4.22146,-11.35653 -10.41439,-12.59415 m -8.2298,-2.770713 h -10.2715 V 83.40236 h 9.98087 c 6.19051,0 9.24943,2.911187 9.24943,7.648526 0,4.875391 -3.134,7.716341 -8.9588,7.716341"
         id="path869"
         style="stroke-width:2.42195" /><path
         fill="#254a94"
         d="m 301.60091,87.408269 c -3.86059,0 -7.28281,0.801667 -10.26665,2.475236 -5.97496,3.279324 -9.61273,9.68781 -9.61273,18.062925 0,4.22388 0.86948,7.87134 2.54789,10.99808 3.42464,6.19294 9.54249,9.61273 17.33392,9.61273 3.35198,0 6.40848,-0.65635 9.10412,-1.88912 5.02312,-2.2621 8.37753,-6.33583 9.68538,-11.3638 h -8.8813 c -1.38535,3.93083 -5.24595,6.48114 -10.2715,6.48114 -6.19051,0 -10.78011,-3.71043 -11.3638,-11.50427 h 30.80966 c 0.21798,-1.01964 0.36571,-2.84095 0.36571,-4.22389 0,-3.49972 -0.80651,-6.701538 -2.33476,-9.542489 -3.20424,-5.684323 -9.24701,-9.106542 -17.11594,-9.106542 M 289.9489,104.8875 c 0.36329,-3.42464 1.53067,-6.04277 3.49488,-7.864079 2.18702,-2.041706 4.95289,-2.986267 8.15713,-2.986267 2.03929,0 3.93325,0.360871 5.68433,1.235195 1.74622,0.799245 3.05892,2.187024 4.00106,3.930829 0.94941,1.530672 1.38051,3.494882 1.38051,5.681902 H 289.9489 Z"
         id="path871"
         style="stroke-width:2.42195" /><path
         fill="#254a94"
         d="m 343.86156,105.25079 c -2.25726,-0.50861 -4.00348,-1.01479 -5.24352,-1.45559 -2.47766,-0.87432 -4.37405,-2.33234 -4.37405,-4.882656 0,-3.427063 2.40742,-5.536583 6.55865,-5.536583 5.02555,0 8.22495,2.91603 8.8813,7.285229 h 7.8665 c -1.23762,-8.084474 -7.13507,-13.255343 -16.53225,-13.255343 -9.02904,0 -14.4203,4.664681 -14.4203,11.436461 0,2.620552 0.65635,4.662262 1.97147,6.190512 2.54547,3.0565 5.89745,4.00591 11.72467,5.38884 2.25484,0.50861 4.08099,0.94699 5.38884,1.38536 2.62056,0.94456 4.58718,2.47281 4.58718,5.31376 0,3.20909 -2.40258,5.53417 -6.40849,5.53417 -5.53658,0 -9.10654,-2.98385 -9.61757,-7.35547 h -8.08206 c 1.24004,8.37511 7.71877,13.2505 17.69963,13.2505 8.66575,0 14.12725,-4.58234 14.12725,-11.2863 0,-2.69563 -0.65635,-4.87539 -1.9642,-6.48115 -2.69321,-3.12916 -6.12027,-4.14638 -12.16305,-5.53174"
         id="path873"
         style="stroke-width:2.42195" /><path
         fill="#254a94"
         d="m 396.15152,97.241397 c -2.11194,-5.899877 -7.50321,-9.833128 -14.7836,-9.833128 -3.4973,0 -6.62404,0.801667 -9.32209,2.475236 -5.53659,3.279324 -8.81349,9.68781 -8.81349,18.062925 0,4.22146 0.79925,7.86892 2.33234,10.99566 3.12916,6.19536 8.80864,9.61273 15.80082,9.61273 7.28281,0 12.67166,-3.93083 14.7836,-9.82828 v 9.32452 h 8.30245 V 87.919301 h -8.30245 v 9.322096 z m -1.60333,17.699633 c -2.11194,4.00106 -5.97254,6.2559 -10.6348,6.2559 -7.35304,0 -12.16062,-5.02071 -12.16062,-13.25292 0,-8.224956 4.80758,-13.255351 12.16062,-13.255351 2.33234,0 4.44429,0.513454 6.2656,1.605754 3.71527,2.18218 5.97253,6.406067 5.97253,11.652017 0,2.69321 -0.51103,5.02797 -1.60333,6.9946"
         id="path875"
         style="stroke-width:2.42195" /><path
         fill="#254a94"
         d="m 436.11374,87.265374 c -6.62889,0 -12.01773,3.424641 -14.13209,9.467413 v -8.815908 h -8.30246 v 40.131751 h 8.30246 v -21.34224 c 0,-8.157139 4.29896,-12.453683 10.92785,-12.453683 6.40848,0 10.33931,4.076147 10.33931,11.286303 v 22.50962 h 8.30488 v -23.3791 c -0.002,-11.14583 -6.12028,-17.404156 -15.43995,-17.404156"
         id="path877"
         style="stroke-width:2.42195" /><path
         fill="#254a94"
         d="m 478.04258,94.620844 c 5.60924,0 9.62,3.056504 10.56214,8.077216 h 8.81106 c -1.66872,-9.389914 -8.81106,-15.289791 -19.22788,-15.289791 -3.85575,0 -7.27555,0.801667 -10.26424,2.472814 -5.97253,3.279324 -9.61515,9.690232 -9.61515,18.062927 0,4.22388 0.87433,7.87134 2.55032,10.99808 3.42464,6.19778 9.54491,9.61273 17.32907,9.61273 10.41924,0 17.55916,-5.96527 19.22788,-15.36487 h -8.81106 c -0.94456,5.02798 -4.9529,8.15472 -10.56214,8.15472 -6.40606,0 -11.21122,-4.65984 -11.21122,-13.40066 0,-8.73841 4.80516,-13.323166 11.21122,-13.323166"
         id="path879"
         style="stroke-width:2.42195" /><path
         fill="#254a94"
         d="m 481.03127,132.05454 h -6.55622 v 4.9529 h 6.33582 c 1.53068,0 2.47282,1.16011 2.47282,2.69805 0,1.52825 -0.94456,2.68595 -2.47282,2.68595 h -9.75804 v 4.95289 h 9.97844 c 4.21904,0 7.64611,-3.41737 7.64611,-7.63884 0,-4.23115 -3.42707,-7.65095 -7.64611,-7.65095"
         id="path881"
         style="stroke-width:2.42195" /><path
         fill="#254a94"
         d="m 529.84815,118.5788 c -1.96905,1.31512 -4.44428,2.10952 -7.06726,2.10952 -5.02313,0 -9.39233,-2.76345 -11.57693,-6.91467 -0.58369,-1.09231 -0.94941,-2.25726 -1.16738,-3.34957 h -8.1523 c 0.1429,0.80167 0.29064,1.52826 0.51104,2.3275 2.18217,8.88372 10.19157,15.51019 19.87938,15.73301 l 0.50861,0.0702 c 10.70503,0 19.5936,-7.93431 20.90388,-18.13074 h -8.15714 c -0.65393,3.42222 -2.76345,6.33583 -5.6819,8.15472"
         id="path883"
         style="stroke-width:2.42195" /><path
         fill="#254a94"
         d="m 522.78331,86.972318 c -10.84792,0 -19.73649,8.084478 -20.89903,18.421372 h 8.08206 c 1.0923,-6.042772 6.41091,-10.629951 12.81697,-10.629951 6.41333,0 11.7271,4.587179 12.88963,10.629951 h 8.01425 C 542.5198,95.056796 533.63366,86.972318 522.78331,86.972318"
         id="path885"
         style="stroke-width:2.42195" /><path
         fill="#254a94"
         d="m 573.01219,87.265374 c -6.62646,0 -12.02258,3.424641 -14.1321,9.467413 v -8.815908 h -8.30003 v 40.131751 h 8.30003 v -21.34224 c 0,-8.157139 4.29655,-12.453683 10.92785,-12.453683 6.40849,0 10.34174,4.076147 10.34174,11.286303 v 22.50962 h 8.30246 v -23.3791 c -0.002,-11.14583 -6.12512,-17.404156 -15.43995,-17.404156"
         id="path887"
         style="stroke-width:2.42195" /></g><g
       id="g976"><polygon
         fill="#00b2eb"
         points="102.244,79.212 108.321,94.886 111.328,94.886 117.375,79.212 117.375,94.886 120.835,94.886 120.835,73.979 116.684,73.979 109.885,90.672 102.967,73.979 98.814,73.979 98.814,94.886 102.244,94.886 "
         id="polygon891"
         transform="matrix(2.4219526,0,0,2.4219526,-0.10656591,-21.562644)" /><polygon
         fill="#00b2eb"
         points="130.481,74.608 130.481,77.015 137.131,73.617 137.131,70.938 "
         id="polygon893"
         transform="matrix(2.4219526,0,0,2.4219526,-0.10656591,-21.562644)" /><path
         fill="#00b2eb"
         d="m 330.95982,170.03076 c -2.94267,-1.62755 -6.377,-2.44375 -10.31509,-2.44375 -3.88482,0 -7.31914,0.82589 -10.30541,2.48008 -2.98627,1.64451 -5.3283,4.02771 -7.03093,7.13265 -1.69537,3.10979 -2.54789,6.75725 -2.54789,10.93269 0,4.22389 0.85252,7.8883 2.54789,11.00051 1.70263,3.10495 4.04466,5.48815 7.03093,7.13992 2.98384,1.65177 6.42059,2.47523 10.30541,2.47523 3.35682,0 6.39153,-0.62002 9.10896,-1.86006 2.7247,-1.23761 4.93352,-2.94993 6.63373,-5.13696 1.69779,-2.17975 2.81431,-4.68405 3.34956,-7.50321 h -8.89099 c -0.43837,2.33234 -1.61302,4.19967 -3.52878,5.60925 -1.92303,1.41442 -4.26506,2.11436 -7.03578,2.11436 -3.1558,0 -5.80057,-0.993 -7.93673,-2.98869 -2.13859,-1.99084 -3.27933,-5.04977 -3.42222,-9.18162 h 30.88958 c 0.19133,-1.01964 0.28579,-2.20882 0.28579,-3.56996 0,-3.49003 -0.78713,-6.66279 -2.36383,-9.50374 -1.57669,-2.84095 -3.83879,-5.07157 -6.7742,-6.6967 m -22.03734,15.99215 c 0.19133,-3.88723 1.38293,-6.82506 3.56995,-8.82075 2.18218,-1.98842 4.90204,-2.98384 8.15472,-2.98384 2.04413,0 3.92598,0.42626 5.65041,1.27394 1.72201,0.85253 3.08315,2.16523 4.08099,3.93568 0.993,1.77044 1.44591,3.96958 1.34661,6.59497 z"
         id="path895"
         style="stroke-width:2.42195" /><path
         fill="#00b2eb"
         d="m 358.95033,199.71906 c -0.85253,-0.87433 -1.27637,-2.45344 -1.27637,-4.73492 V 175.1653 h 9.69265 v -7.0721 h -9.69265 v -9.98087 h -8.37511 v 9.98087 h -5.75698 v 7.0721 h 5.75698 v 19.6711 c 0,4.80515 1.10441,8.24675 3.31081,10.31025 2.21366,2.0635 5.44939,3.09768 9.72898,3.09768 h 5.09821 v -7.21015 h -4.00349 c -2.14342,0.002 -3.63535,-0.43596 -4.48303,-1.31512"
         id="path897"
         style="stroke-width:2.42195" /><path
         fill="#00b2eb"
         d="m 382.60796,175.96697 v -7.86893 h -8.3073 v 40.14871 h 8.3073 v -20.33229 c 0,-4.08099 1.10199,-7.00671 3.31566,-8.77716 2.20639,-1.76802 5.13453,-2.6593 8.77231,-2.6593 h 2.48492 v -9.03631 c -3.30839,0 -6.222,0.76776 -8.75051,2.29359 -2.5261,1.5331 -4.46851,3.61113 -5.82238,6.23169"
         id="path899"
         style="stroke-width:2.42195" /><path
         fill="#00b2eb"
         d="m 431.57742,170.06709 c -3.10979,-1.65419 -6.60709,-2.47766 -10.49432,-2.47766 -3.88481,0 -7.36758,0.82589 -10.45315,2.47766 -3.08556,1.64935 -5.51236,4.03013 -7.28523,7.13507 -1.77287,3.10979 -2.66173,6.75725 -2.66173,10.9327 0,4.17544 0.88644,7.83017 2.66173,10.96175 1.77045,3.13643 4.19724,5.52448 7.28523,7.17867 3.08799,1.65419 6.56834,2.47281 10.45315,2.47281 3.88723,0 7.38453,-0.82104 10.49432,-2.47281 3.10494,-1.65419 5.53416,-4.03497 7.28281,-7.13992 1.7535,-3.10978 2.62298,-6.77662 2.62298,-11.0005 0,-4.17545 -0.86948,-7.82049 -2.62298,-10.9327 -1.74865,-3.10494 -4.17544,-5.48572 -7.28281,-7.13507 m -0.25673,25.49832 c -1.08987,1.99569 -2.5382,3.47308 -4.33287,4.44428 -1.79709,0.97362 -3.76856,1.45802 -5.90472,1.45802 -2.13858,0 -4.10279,-0.48197 -5.89988,-1.45802 -1.79951,-0.9712 -3.24299,-2.44859 -4.33529,-4.44428 -1.0923,-1.99327 -1.64208,-4.46608 -1.64208,-7.43055 0,-2.91603 0.54978,-5.37916 1.64208,-7.39665 1.0923,-2.01506 2.53578,-3.50698 4.33529,-4.48545 1.79467,-0.96636 3.7613,-1.45802 5.89988,-1.45802 2.13616,0 4.10521,0.48924 5.90472,1.45802 1.79467,0.97604 3.243,2.47039 4.33287,4.48545 1.09231,2.01749 1.64209,4.48062 1.64209,7.39665 0,2.96689 -0.54978,5.43728 -1.64209,7.43055"
         id="path901"
         style="stroke-width:2.42195" /><path
         fill="#00b2eb"
         d="m 481.51566,170.06709 c -2.74165,-1.65419 -5.86354,-2.47766 -9.35842,-2.47766 -3.64504,0 -6.74998,0.90097 -9.33179,2.69321 -2.56969,1.79951 -4.3692,4.18029 -5.38642,7.13992 v -9.32936 h -8.3073 v 59.23369 h 8.3073 v -28.41192 c 1.01722,2.96689 2.81673,5.35009 5.38642,7.14234 2.57938,1.79224 5.68675,2.69078 9.33179,2.69078 3.49488,0 6.61677,-0.82104 9.35842,-2.47281 2.74407,-1.65419 4.89477,-4.03497 6.44966,-7.13992 1.55247,-3.10978 2.32992,-6.77662 2.32992,-11.0005 0,-4.17545 -0.77745,-7.82049 -2.32992,-10.9327 -1.55489,-3.10494 -3.70559,-5.48572 -6.44966,-7.13507 m -3.01775,27.79675 c -2.24031,2.35414 -5.19993,3.53363 -8.89341,3.53363 -2.32992,0 -4.41764,-0.54978 -6.26559,-1.64451 -1.84553,-1.08988 -3.30355,-2.63024 -4.3692,-4.6235 -1.07051,-1.99085 -1.60576,-4.31835 -1.60576,-6.9946 0,-2.6254 0.53525,-4.94079 1.60576,-6.95827 1.06323,-2.01022 2.52367,-3.56996 4.3692,-4.66468 1.84795,-1.09231 3.93567,-1.63967 6.26559,-1.63967 3.69106,0 6.6531,1.1916 8.89341,3.57238 2.23062,2.38078 3.34956,5.6044 3.34956,9.69024 0,4.127 -1.11894,7.37484 -3.34956,9.72898"
         id="path903"
         style="stroke-width:2.42195" /><path
         fill="#00b2eb"
         d="m 526.94907,170.06709 c -3.10494,-1.65419 -6.60466,-2.47766 -10.48948,-2.47766 -3.88723,0 -7.37,0.82589 -10.45314,2.47766 -3.08557,1.64935 -5.51237,4.03013 -7.28524,7.13507 -1.77044,3.10979 -2.66414,6.75725 -2.66414,10.9327 0,4.17544 0.89127,7.83017 2.66414,10.96175 1.77045,3.13643 4.19725,5.52448 7.28524,7.17867 3.08314,1.65419 6.56591,2.47281 10.45314,2.47281 3.88482,0 7.38454,-0.82104 10.48948,-2.47281 3.10979,-1.65419 5.53658,-4.03497 7.28766,-7.13992 1.75107,-3.10978 2.62297,-6.77662 2.62297,-11.0005 0,-4.17545 -0.8719,-7.82049 -2.62297,-10.9327 -1.75108,-3.10494 -4.17787,-5.48572 -7.28766,-7.13507 m -0.25188,25.49832 c -1.0923,1.99569 -2.53821,3.47308 -4.3353,4.44428 -1.79709,0.97362 -3.76613,1.45802 -5.9023,1.45802 -2.13858,0 -4.10521,-0.48197 -5.90229,-1.45802 -1.79709,-0.9712 -3.24542,-2.44859 -4.3353,-4.44428 -1.0923,-1.99327 -1.63966,-4.46608 -1.63966,-7.43055 0,-2.91603 0.54736,-5.37916 1.63966,-7.39665 1.08988,-2.01506 2.53821,-3.50698 4.3353,-4.48545 1.79466,-0.96636 3.76371,-1.45802 5.90229,-1.45802 2.13617,0 4.10279,0.48924 5.9023,1.45802 1.79709,0.97604 3.243,2.47039 4.3353,4.48545 1.08988,2.01749 1.64208,4.48062 1.64208,7.39665 -0.002,2.96689 -0.5522,5.43728 -1.64208,7.43055"
         id="path905"
         style="stroke-width:2.42195" /><rect
         x="544.59058"
         y="154.32924"
         fill="#00b2eb"
         width="8.3048754"
         height="53.917507"
         id="rect907"
         style="stroke-width:2.42195" /><path
         fill="#00b2eb"
         d="m 600.00001,186.23847 c 0,-3.49004 -0.78472,-6.66279 -2.36625,-9.50374 -1.57669,-2.84096 -3.83638,-5.07884 -6.7742,-6.70397 -2.94025,-1.62755 -6.37458,-2.44375 -10.31026,-2.44375 -3.88481,0 -7.32156,0.82589 -10.30783,2.48008 -2.98626,1.64451 -5.33314,4.02771 -7.03335,7.13265 -1.69779,3.10979 -2.55031,6.75725 -2.55031,10.93269 0,4.22389 0.85252,7.8883 2.55031,11.00051 1.70021,3.10495 4.04709,5.48815 7.03335,7.13992 2.98385,1.65177 6.42302,2.47523 10.30783,2.47523 3.35199,0 6.38912,-0.62002 9.10897,-1.86006 2.71985,-1.23761 4.92867,-2.94993 6.6313,-5.13696 1.69537,-2.17975 2.81431,-4.68405 3.34956,-7.50321 h -8.88856 c -0.43837,2.33234 -1.61787,4.19967 -3.53121,5.60925 -1.92545,1.41442 -4.26506,2.11436 -7.03577,2.11436 -3.15823,0 -5.80058,-0.993 -7.93674,-2.98869 -2.13858,-1.99084 -3.27932,-5.04977 -3.42464,-9.18162 h 30.88958 c 0.19618,-1.01238 0.28822,-2.20398 0.28822,-3.56269 m -31.1778,-0.21556 c 0.19133,-3.88723 1.38293,-6.82506 3.56996,-8.82075 2.18702,-1.98842 4.90445,-2.98384 8.15956,-2.98384 2.0417,0 3.92114,0.42626 5.64799,1.27394 1.72201,0.85253 3.08072,2.16523 4.07857,3.93568 0.99784,1.77044 1.44833,3.96958 1.35145,6.59497 z"
         id="path909"
         style="stroke-width:2.42195" /></g></g></svg>
