<svg xmlns="http://www.w3.org/2000/svg" width="61" height="72" fill="none"><path fill="#00489A" d="M0 71.21h60.407V0H0z"/><path fill="#fff" d="M1.346 69.867h57.72V1.343H1.346z"/><path fill="#8F9ACE" d="M18.34 40.014a14.3 14.3 0 0 0 11.946 6.423c7.907 0 14.316-6.411 14.316-14.317q-.001-1.157-.178-2.265a14.33 14.33 0 0 0-6.623-9.922 14.25 14.25 0 0 0-7.515-2.129c-2.433 0-4.726.606-6.731 1.676a14.4 14.4 0 0 0-4.375 3.604 14.27 14.27 0 0 0-3.211 9.036c0 2.917.873 5.631 2.371 7.894"/><path fill="#00489A" d="m37.766 20.362-2.242.478 1.546.89.521-.608.634-.405zm.032-.425a14.33 14.33 0 0 1 6.622 9.923v-.003l-1.12.957-.714-.168-.334.293.023.199q.019.137.121.554c.144.57.216 1.14.216 1.694 0 .516-.02.684-.135 1.183l-.61.003-1.714-1.39-1.306.295-.842-.143-1.07.327.484.417.839-.237.725.58-.115.254-.299.482-.644.921-.992.8-1.834-1.903-.474.051 1.956 2.242.794-.16.197.406-.799 1.306-1.553 1.484-.7 1.771c-.015.045-.088.102-.2.156-.225.107-.488.3-.78.575q-.563.525-.63.584-.464.408-1.112.845-.645.435-1.284.76c-.752.383-1.596.596-2.36.596-.502 0-1.01-.085-1.505-.253-.068-.023-.112-.057-.112-.087l.339-.959c.014-.045.302-.37.843-.96.245-.268.444-.63.582-1.062.206-.636.35-1.028.436-1.166.31-.501.458-.929.355-1.034l-2.03-2.041-.851-1.583.09-.375c.063-.26.27-.719.665-1.474.213-.41.39-.625.585-.721l1.358-.67 2.636.398.803.536.378-.047 1.61.42.403-1.05-2.047-.575-.724-.72-.1.027.338.855-.408.082-.044-.1.142-.027c.007.01-.122-.526-.44-.676-.114-.052-.189-.103-.305-.103a.95.95 0 0 0-.544.22c-.447.411-.797.694-.83.669l-.84-.636.312-.783.128.031q.116.027.239.027c.264 0 .426-.153.46-.304a.28.28 0 0 0-.09-.282 1 1 0 0 0-.08-.089c0 .01.12-.136.115-.136-.003 0 .32.082.503.092.215.013.425-.036.51-.13l.204-.323.343-.094.06-.454.21.015s.119.162.167.381l.592-.153.175-.608-.095-.107.26-.581-.225-.16-.38 1.074-.21.027-.092-.24-.534.041-.3-.48.65-.668.632-.848.892.28.218.442.272-.007-.1-.643.73-.686-.486-2.201.312-.691.353.02.048-.543-2.328-2.55.074-.689 1.928-.439.276.083 1.096-.107.254.114 1.768-.176zM18.335 40.014l.99-.82.813.204 2.173-1.635.106-.873-1.43-2.083c-.023-.03-.115-1.332-.391-2.308-.146-.509-.48-1.99-.492-2.02l-.19-.377-1.357-2.04.881-2.205.704-.03.041-.325-.52-.435-.016-.094-.017-.413c0-.281.477-.564.794-.564a1 1 0 0 1 .267.039c.222.06.432.244.62.381.035.025.627 1.406.627 1.406l-.502.403-.246.605.342.269.478-.826 1.982.665 1.214.692.368-.403 1.02.085.744-1.015-.673-.256.706-.851-.083-.286-1.078-.209.826-.866.783.512-.015.229.507.063.428-.813-.3-.263 1.262-1.213 1.142-.533.888-.583.172-.135.036-.626-.151-.442-.393-.152.504-.395-.14-.074c-.336.224-1.134.772-2.527.871-.991.07-2.997-.371-2.997-.371l-1.989-.298-.694-.123a14.4 14.4 0 0 0-4.375 3.601l-.06 1.879-.3.858-.71 2.486.228.7-1.13.161-1.14 1.269a15 15 0 0 0-.096 1.683c0 2.917.872 5.631 2.37 7.894zm2.232-9.215.063.271.259-.086-.086-.273zm10.691 1.874-.18-.022-.012.338.18.033.108-.434-.056-.023zm4.798 10.783c0 .004-.154-.17-.154-.17 0 .005-.24.145-.24.145s.182.18.176.18zm.334-1.74-.452.262-.577.122-1.267 1.245.078.277.184-.025.723-.312c.188-.08.78-.412 1.089-.744.29-.315.378-.436.546-.756zm-6.721-11.262.312.087.094-.29-.222-.053zm.84-.618s-.363.89-.363.894c0 0 .574.055.574.06l.135-.732-.1-.075.069-.25-.288-.157-.094.188zM21 30.67c.005 0 .2-.076.2-.076l-.076-.169s-.113.098-.11.109zm-.142-.54.08.19.232-.103s-.063-.174-.071-.174zm-.156-.625.044.293.277-.001-.037-.314zm-.262-.542.143.224.273.04.122-.548-.446-.108zm-.237-.698.45.054.139-1.061.003-.32-.079-.323-.231-.018zm9.964-5.754-1.295 1.03.46.332 1.034-1.053zm-1.14 1.775-.184-.008-.353.643-.55.043-.628.904.343.216.845-.538.646-.69zm-.314 1.507-.64.564v.382l1.016.251 2.026-1.375-.054-.561-.803-.278zm-3.07 1.672.762.122-.262.502-.655-.362z"/><path fill="#E42313" d="m12.611 8.383-.719 2.136h1.393zm1.561 4.969-.37-1.192h-2.46l-.394 1.192H8.893l2.91-8.003h1.516l2.91 8.003zm8.074-5.799c-.18-.27-.45-.45-.944-.45h-.865V11.6h.865c.495 0 .764-.18.944-.45.157-.224.213-.438.213-1.798 0-1.349-.056-1.574-.213-1.798m1.348 5.012c-.551.551-1.325.787-2.158.787h-2.965V5.35h2.965c.833 0 1.607.236 2.158.787.932.932.83 1.955.83 3.214s.102 2.282-.83 3.214m3.502.787V5.349h5.436v1.753h-3.471V8.44h2.967v1.753H29.06V11.6h3.471v1.753zm13.652 0V9.519l-1.135 1.978h-1.259L37.22 9.52v3.833h-1.966V5.349h1.933l1.797 3.53 1.797-3.53h1.932v8.003zm4.881 0V5.349h5.437v1.753h-3.471V8.44h2.967v1.753h-2.967V11.6h3.471v1.753zM10.44 53.256l.382-1.135.358 1.135zm.046-2.316-1.272 3.5h.831l.176-.534h1.164l.166.534h.832l-1.274-3.501zm4.168 3.53c.444 0 .747-.115 1.012-.389.255-.26.351-.576.351-1.164v-.456h-1.322v.65h.53v.093c0 .17-.053.318-.15.412q-.142.153-.421.153c-.16 0-.3-.06-.381-.167-.085-.11-.14-.233-.14-.911 0-.673.055-.796.14-.908a.47.47 0 0 1 .38-.171c.3 0 .464.12.547.402h.805c-.066-.368-.324-1.105-1.351-1.105-.4 0-.697.121-.968.391-.351.351-.351.828-.35 1.331v.12c-.001.503-.001.979.35 1.33.266.266.573.39.968.39m3.506-1.445h1.33v-.702h-1.33v-.683h1.556v-.701h-2.353v3.502h2.353v-.702H18.16zm5.637 1.414v-3.5h-.798v1.905l-1.214-1.906h-.705v3.502h.797v-1.904l1.213 1.904zm3.163-1.053c-.053.173-.163.383-.49.383a.47.47 0 0 1-.38-.168c-.084-.11-.144-.241-.144-.911 0-.671.06-.802.144-.913a.47.47 0 0 1 .38-.166c.327 0 .437.208.49.382h.816c-.134-.69-.608-1.085-1.31-1.085-.394 0-.702.124-.968.392-.35.35-.35.826-.35 1.329v.12c0 .504 0 .98.35 1.33.266.267.574.39.968.39.702 0 1.176-.393 1.31-1.083zm2.819-.361h1.33v-.702h-1.33v-.683h1.555v-.701h-2.352v3.502h2.352v-.702H29.78zm6.896.495c-.101.15-.246.22-.459.22h-.428v-2.098h.428c.213 0 .358.07.459.22.078.113.102.236.102.83 0 .625-.026.719-.102.828m.9-.678v-.304c.004-.498.007-.89-.361-1.257-.222-.224-.546-.341-.937-.341H34.99v3.502h1.287c.39 0 .715-.119.937-.341.368-.367.365-.761.361-1.259m2.145.185h1.33v-.703h-1.33v-.683h1.556v-.701h-2.352v3.502h2.352v-.702H39.72zm6.01-2.088h-.796v3.501h2.303v-.702H45.73zm3.506 2.316.382-1.135.358 1.135zm1.11 1.185h.833l-1.275-3.501h-.621l-1.273 3.5h.83l.177-.534h1.164zm-40.119 5.708h.798v-2.8h.883v-.702H9.344v.702h.883zm5.103-1.986h-.541v-.808h.54c.277 0 .426.208.426.404a.406.406 0 0 1-.426.404m.662.495c.13-.066.561-.326.561-.899 0-.552-.406-1.112-1.183-1.112h-1.38v3.502h.799v-1.335h.365l.636 1.335h.928l-.764-1.472zm3.657.306.383-1.134.36 1.134zm.047-2.317L18.42 60.15h.833l.176-.535h1.165l.167.535h.832l-1.275-3.503zm3.842 0v3.503h.798v-1.906l1.215 1.906h.707v-3.503h-.799v1.905l-1.214-1.905zm6.401 1.405-.433-.06a.46.46 0 0 1-.272-.117.3.3 0 0 1-.083-.197c0-.18.149-.375.476-.375h.027c.159 0 .432-.001.653.195l.497-.494c-.285-.268-.642-.387-1.152-.387-.759 0-1.269.438-1.269 1.091 0 .297.08.53.235.691q.234.238.698.306l.433.06a.45.45 0 0 1 .261.106q.084.093.083.242c0 .166-.097.364-.557.364-.163 0-.558-.023-.8-.235l-.506.505c.31.302.702.432 1.301.432.67 0 1.345-.336 1.345-1.086 0-.341-.082-.589-.254-.756q-.222-.22-.683-.285m3.883-1.405h-.798v3.502h.798zm2.966 3.502h.8v-2.8h.88v-.702h-2.563v.702h.883zm3.763 0h.799v-3.502h-.798zm4.685-.849a.49.49 0 0 1-.386.177.5.5 0 0 1-.387-.177c-.087-.114-.14-.232-.14-.902 0-.673.055-.796.14-.907a.49.49 0 0 1 .387-.173c.158 0 .302.065.386.173.084.111.14.234.14.907 0 .67-.053.788-.14.902m.938-.962c.001-.504.001-.979-.35-1.331-.272-.27-.571-.391-.974-.391s-.703.12-.974.392c-.352.351-.352.826-.352 1.33v.12c0 .503 0 .978.352 1.33.27.27.57.391.974.391.403 0 .702-.12.973-.39.352-.353.352-.828.351-1.331zm4.897 1.811v-3.502h-.8v1.906l-1.214-1.906h-.706v3.502h.797v-1.905l1.216 1.905zm-40.922 4.295h1.334v-.704h-1.334v-.685h1.563v-.705H9.348v3.514h2.362v-.704h-1.562zm.342-3.357-.224.825h.422l.542-.825zm5.022 2.321h.819c-.134-.692-.61-1.088-1.316-1.088-.395 0-.703.125-.97.391-.353.354-.353.83-.351 1.336v.12c-.002.506-.002.983.351 1.335.267.268.575.393.97.393.706 0 1.182-.396 1.316-1.09h-.819c-.053.175-.165.384-.491.384a.47.47 0 0 1-.382-.167c-.085-.112-.145-.243-.145-.915s.06-.803.145-.914a.47.47 0 0 1 .382-.17c.326 0 .438.211.491.385m4.364 1.604a.49.49 0 0 1-.388.178.48.48 0 0 1-.387-.178c-.087-.114-.14-.232-.14-.905 0-.677.053-.796.14-.91a.49.49 0 0 1 .387-.172c.16 0 .304.064.387.172.087.114.14.233.14.91 0 .673-.053.791-.14.905m-.388-2.692c-.404 0-.706.12-.977.392-.351.353-.351.83-.35 1.335v.12c-.001.506-.001.983.35 1.335.271.271.573.393.977.393s.705-.122.977-.392c.35-.353.35-.83.35-1.335v-.122c0-.505 0-.982-.35-1.334-.271-.271-.573-.392-.977-.392m4.218.03h-.8v3.514h2.31v-.704h-1.51zm4.965 2.662a.49.49 0 0 1-.388.178.49.49 0 0 1-.387-.178c-.087-.114-.14-.232-.14-.905 0-.675.056-.798.14-.91a.49.49 0 0 1 .387-.172c.16 0 .304.064.388.172.087.114.14.233.14.91 0 .673-.053.791-.14.905m-.388-2.692c-.404 0-.705.12-.975.392-.353.353-.352.83-.352 1.335v.12c0 .506-.001.983.352 1.335.27.271.571.393.975.393.405 0 .705-.122.977-.392.352-.353.35-.83.35-1.336v-.12c0-.506.002-.982-.35-1.335-.27-.271-.572-.392-.977-.392m5.168 1.11h.808c-.066-.37-.324-1.11-1.356-1.11-.4 0-.7.121-.97.392-.353.352-.353.83-.352 1.336v.12c-.001.505-.001.982.351 1.335.268.268.576.392.971.392.446 0 .75-.118 1.016-.392.257-.26.352-.578.352-1.169v-.458h-1.325v.654h.53v.092a.57.57 0 0 1-.149.414q-.145.153-.424.154a.47.47 0 0 1-.382-.168c-.084-.11-.14-.234-.14-.914 0-.676.056-.8.14-.91a.47.47 0 0 1 .382-.173c.3 0 .465.12.548.404m2.907 2.435h.8V62.35h-.8zm4.72-1.222-.008.09-.205-.207-.391.391.253.254-.077.015c-.03.005-.053.005-.08.005a.49.49 0 0 1-.386-.178c-.087-.114-.14-.233-.14-.906 0-.674.055-.797.14-.908a.49.49 0 0 1 .387-.173c.16 0 .304.065.388.173.084.11.14.234.14.908 0 .262-.013.43-.02.536m.62.671c.202-.323.2-.723.2-1.148v-.117c0-.506.002-.984-.352-1.337-.27-.27-.57-.39-.975-.39-.404 0-.704.12-.975.39-.353.353-.353.83-.353 1.337v.12c0 .505 0 .982.353 1.335.27.27.57.392.975.392.267 0 .489-.053.676-.162l.029-.016.27.271.391-.39-.256-.257zm3.026-.69v-2.272h-.8v2.292c0 .725.554 1.252 1.318 1.252.77 0 1.327-.527 1.327-1.252v-2.292h-.8v2.272c0 .35-.202.567-.527.567-.32 0-.518-.217-.518-.567m4.782-.179h1.334v-.704h-1.335v-.685h1.562v-.705h-2.362v3.514h2.362v-.704h-1.562z"/></svg>