<svg xmlns="http://www.w3.org/2000/svg" width="112" height="19" fill="none"><g clip-path="url(#a)"><path fill="#08080A" fill-rule="evenodd" d="m.143 15.965.165-3.69L.218 8l.045-1.8-.12-2.7v-.885c0-.675.195-1.005.585-1.005h.12c.405 0 1.38 1.35 2.94 4.035a13.5 13.5 0 0 0 1.35 1.935h.045c.3-.465.825-1.755 1.56-3.855q.325-.976.795-1.89l.165-.12h.375c.36 0 .63.105.795.3q-.336 4.862-.33 9.735v1.95c0 1.53.06 2.685.21 3.435v.045c0 .36-.12.54-.375.54h-.18c-.51 0-.75-.645-.75-1.935l-.09-4.11v-1.98c0-1.53.045-3 .12-4.41a11.3 11.3 0 0 0-.885 2.265c-.165.12-.36.69-.585 1.725-.15.255-.33.375-.585.375-.435 0-.87-.51-1.305-1.56-.465-.675-1.185-1.83-2.145-3.435l-.75-.96c.09 1.905.12 4.11.12 6.585v4.875L1.388 17c-.09.42-.165.63-.255.63H.878q-.63 0-.63-.585a4.8 4.8 0 0 1-.105-1.08m13.23-6.93c1.59-.225 2.4-.39 2.4-.465l.045-.465c0-.195-.165-1.2-.51-2.985 0-.57-.09-1.095-.255-1.59v-.09h-.045a96 96 0 0 1-1.635 5.595m-2.94 8.1c0-1.155.525-3.525 1.59-7.14 0-.285.3-1.2.93-2.775l1.635-5.325c0-.135.09-.27.3-.42h.165c.315 0 .54.315.675.93.27.6.525 1.68.75 3.225q.18 1.832.63 3.615l-.045.51c.14 2.484.74 4.92 1.77 7.185l.09.585c0 .09-.12.15-.375.21h-.09c-.465 0-.975-1.095-1.515-3.27a13.9 13.9 0 0 1-.93-4.41v-.42h-.045c-1.965.255-2.94.465-2.94.63-.615 1.8-1.17 3.915-1.635 6.345-.12.54-.27.795-.42.795h-.12a.51.51 0 0 1-.42-.27m9.345.195v-.165l.12-11.625-.12-2.01v-.465c0-.39.165-.585.51-.585h.09c.345 0 .675.615.96 1.845.645 1.62 1.32 3.795 2.055 6.51.465 1.485.945 2.745 1.425 3.78h.045v-.09q0-1.755.585-11.295c.09-.435.21-.735.375-.885h.21c.15 0 .33.075.585.21q-.63 9-.63 12.42l.09 2.475c0 .585-.165.885-.465.885h-.045c-.57 0-1.11-.93-1.59-2.805a66 66 0 0 1-2.94-9.03h-.09c-.09.465-.12.855-.12 1.215v8.43c0 .645.015 1.125.09 1.425 0 .57-.195.84-.585.84-.375.015-.555-.345-.555-1.08m7.455-7.785V8.96c0-1.905.855-4.065 2.595-6.465.51-.555 1.095-.84 1.725-.84h.33a11.4 11.4 0 0 1 3.24.75c.225.18.33.345.33.51v.165c-.045.12-.15.165-.3.165-.12 0-.45-.135-1.005-.42a7 7 0 0 0-2.01-.33h-.24c-.72 0-1.275.48-1.725 1.425a9.53 9.53 0 0 0-1.845 5.085v.675c0 .765.3 1.995.885 3.69a5.55 5.55 0 0 0 2.685 2.985c.645.315 1.17.465 1.56.465h.165c1.2 0 1.8-1.185 1.8-3.57l-.12-2.64-1.215.12c-.615-.06-.93-.195-.93-.375v-.21c0-.42.78-.63 2.355-.63h.255c1.35 0 2.01.225 2.01.675v.045c0 .225-.15.36-.465.42l-.84-.12-.045.42v2.805c0 2.205-.675 3.51-2.01 3.9l-.675.09c-.96 0-2.1-.42-3.435-1.26a9.3 9.3 0 0 1-2.265-3.03 11.1 11.1 0 0 1-.81-3.915m11.595 7.935v-.12c0-.195.21-.375.63-.585l.045-.165c0-2.265.105-4.515.33-6.72 0-.405-.12-.72-.33-.93.255-.225.375-.69.375-1.35V6.26l.09-2.475v-.12c0-.69-.165-1.05-.465-1.05-.195-.105-.3-.225-.3-.375 0-.255.3-.42.885-.51 0-.06.06-.09.165-.09l1.305.165 2.775-.12c1.305 0 1.98.21 1.98.63 0 .21-.195.33-.585.375h-.18l-1.35-.09h-.21l-3.195.12.09 1.845V8l.045.3.42-.045h.675l3.78.12c.42.09.63.255.63.54v.045c-.165.225-.435.33-.795.33l-2.01-.12h-.09c-1.755.03-2.64.105-2.64.21a112 112 0 0 0-.255 7.425h.045c0-.045 1.44-.09 4.32-.165l.675-.09a1.2 1.2 0 0 1 .885.33c0 .45-.315.675-.93.675h-.51l-2.52.12h-1.17a1.65 1.65 0 0 0-1.17.54h-.12c-.09 0-.36-.165-.84-.51-.33-.03-.48-.12-.48-.225m9.54-14.565.045.12c.135 3.21.21 5.505.21 6.84l-.045.84a5.66 5.66 0 0 0 2.775-3.06 8.7 8.7 0 0 0 .42-2.4c0-1.17-.165-1.755-.51-1.755a3.42 3.42 0 0 0-2.1-.675zm-1.14 12.63v-1.59l.21-6.585v-.21c0-1.815-.06-3.33-.165-4.575 0-.42.165-.63.51-.63h1.14c1.38 0 2.505.36 3.405 1.095.465.54.72 1.26.72 2.175a7.5 7.5 0 0 1-1.725 4.785l-.465.375c.69 1.14 1.335 2.58 1.935 4.365l.675 2.64c-.12.315-.36.465-.72.465s-.54-.165-.54-.51a22.8 22.8 0 0 0-2.265-6.045c-.501.147-.98.358-1.425.63l-.09 1.56.045 4.155-.465.165q-.495 0-.585-.63a6.2 6.2 0 0 1-.195-1.635M58.223 1.7l.12 2.94-.09 3.99h.375l.84.045 2.01-1.14q1.215-1.013 1.215-2.43c0-1.485-1.125-2.655-3.36-3.48h-.51zm-.165 13.755.09 1.26 2.265-1.005c.9-.585 1.56-1.5 1.98-2.73l.045-.465v-.045c0-1.38-.96-2.265-2.895-2.685-.3 0-.735.06-1.305.165l.045 1.17zm-1.185 1.05v-.63l.09-1.8v-1.38l.12-2.19v-.255l.21-6.465c0-.72-.105-1.53-.3-2.475 0-.33.465-.555 1.425-.675h.585c.855 0 2.04.615 3.525 1.8a4.14 4.14 0 0 1 1.215 2.94c0 1.41-.735 2.52-2.19 3.36l-.54.42V9.2c.795.405 1.455.885 1.98 1.47.3.525.465 1.08.465 1.68v.375c0 1.245-.72 2.475-2.145 3.69-1 .513-2.039.95-3.105 1.305h-.3c-.27 0-.615-.33-1.005-1.005zm8.91-6.3a10.35 10.35 0 0 0 1.305 5.34c.9.93 1.86 1.395 2.85 1.395h.3c1.335 0 2.28-1.41 2.85-4.245.195-1.32.3-2.445.3-3.375q0-4.927-2.385-6.345a2.7 2.7 0 0 0-1.425-.435c-1.68 0-2.85 1.65-3.525 4.935-.172.87-.257 1.754-.255 2.64v.09zm-1.095.09v-1.08c0-2.145.525-4.275 1.59-6.375.885-1.005 1.725-1.53 2.52-1.53h.375a3.9 3.9 0 0 1 2.52.78c.72.195 1.2.51 1.425.96a12.1 12.1 0 0 1 1.425 5.91c0 1.785-.33 3.84-.96 6.165-.765 1.905-1.935 2.865-3.525 2.865-1.515 0-2.88-.735-4.11-2.22-.84-1.275-1.26-3.105-1.26-5.475m10.68-.915v-1.8c.09-3.75.225-5.625.42-5.625l.045-.045h.255c.24 0 .45.105.63.3v.045l-.165 7.8c0 3.9.555 6.21 1.68 6.93.27.165.54.255.795.255h.165c1.035 0 1.875-.72 2.52-2.145.285-1.28.41-2.589.375-3.9a131 131 0 0 0-.51-8.61q0-.63.585-.63h.045c.435 0 .675.48.675 1.425.225 3.69.33 6.54.33 8.52v.63c0 2.22-.405 3.615-1.215 4.2-.84 1.005-1.785 1.515-2.85 1.515-1.59 0-2.655-.96-3.195-2.895a27 27 0 0 1-.585-5.97m8.655.54v-.585c0-1.905.855-4.065 2.595-6.465.51-.555 1.095-.84 1.725-.84h.33c.705 0 1.785.255 3.225.75.225.18.33.345.33.51v.165c-.045.12-.15.165-.3.165-.12 0-.45-.135-1.005-.42a7 7 0 0 0-2.01-.33h-.255c-.72 0-1.275.48-1.725 1.425a9.53 9.53 0 0 0-1.845 5.085v.675c0 .765.3 1.995.885 3.69a5.55 5.55 0 0 0 2.685 2.985c.645.315 1.17.465 1.56.465h.165c1.2 0 1.8-1.185 1.8-3.57l-.12-2.64-1.215.12c-.615-.06-.93-.195-.93-.375v-.21c0-.42.78-.63 2.355-.63h.255c1.35 0 2.01.225 2.01.675v.045c0 .225-.15.36-.465.42l-.84-.12-.045.42v2.805c0 2.205-.675 3.51-2.01 3.9l-.675.09c-.96 0-2.1-.42-3.435-1.26a9.3 9.3 0 0 1-2.265-3.03 11.6 11.6 0 0 1-.78-3.915m11.97 7.305v-.12c0-.195.21-.375.63-.585l.045-.165c0-2.265.105-4.515.33-6.72 0-.405-.12-.72-.33-.93.255-.225.375-.69.375-1.35v-1.35l.09-2.475v-.12c0-.69-.165-1.05-.465-1.05-.195-.105-.3-.225-.3-.375 0-.255.3-.42.885-.51 0-.06.06-.09.165-.09l1.305.165 2.775-.12c1.305 0 1.965.21 1.965.63 0 .21-.195.33-.585.375h-.165l-1.335-.09h-.21l-3.195.12.09 1.845v3.405l.045.3.42-.045h.675l3.78.12c.42.09.63.255.63.54v.045c-.165.225-.435.33-.795.33l-2.01-.12h-.09c-1.77.03-2.64.105-2.64.21a112 112 0 0 0-.255 7.425h.045c0-.045 1.44-.09 4.32-.165l.675-.09a1.2 1.2 0 0 1 .885.33c0 .45-.315.675-.93.675h-.51l-2.52.12h-1.17a1.65 1.65 0 0 0-1.17.54h-.15c-.09 0-.36-.165-.84-.51-.315 0-.465-.09-.465-.195m9.915-14.055.045.12c.135 3.21.21 5.505.21 6.84l-.045.84a5.66 5.66 0 0 0 2.775-3.06 8.7 8.7 0 0 0 .42-2.4c0-1.17-.165-1.755-.51-1.755a3.42 3.42 0 0 0-2.1-.675zm-1.125 12.63v-1.59l.21-6.585V7.4c0-1.815-.06-3.33-.165-4.575 0-.42.165-.63.51-.63h1.14c1.38 0 2.505.36 3.405 1.095.465.54.72 1.26.72 2.175 0 1.747-.611 3.44-1.725 4.785l-.465.375c.69 1.14 1.335 2.58 1.935 4.365l.675 2.64c-.12.315-.36.465-.72.465-.375 0-.54-.165-.54-.51a22.8 22.8 0 0 0-2.265-6.045c-.501.147-.98.359-1.425.63l-.09 1.56.015 4.17-.465.165q-.495 0-.585-.63c-.12-.495-.165-1.035-.165-1.635" clip-rule="evenodd"/></g><defs><clipPath id="a"><path fill="#fff" d="M.098.5h111v18h-111z"/></clipPath></defs></svg>