<svg width="61" height="72" viewBox="0 0 61 72" fill="none" xmlns="http://www.w3.org/2000/svg">
<path d="M0 71.21H60.4072V0H0V71.21Z" fill="#00489A"/>
<path d="M1.3457 69.8667H59.066V1.34253H1.3457V69.8667Z" fill="white"/>
<path d="M18.3404 40.0135C20.902 43.8824 25.2973 46.4372 30.2859 46.4372C38.1929 46.4372 44.6018 40.0259 44.6018 32.12C44.6018 31.3489 44.5407 30.5925 44.4237 29.8554C43.7573 25.6636 41.2718 22.0781 37.8015 19.9331C35.6168 18.5829 33.0426 17.804 30.2859 17.804C27.8532 17.804 25.5603 18.4102 23.5549 19.4804C21.866 20.3825 20.3804 21.6119 19.1804 23.084C17.5066 25.1398 16.3922 27.6675 16.0669 30.4368C16.0027 30.99 15.9688 31.5499 15.9688 32.12C15.9688 35.0372 16.8415 37.7512 18.3404 40.0135Z" fill="#8F9ACE"/>
<path d="M37.7657 20.3623L35.5237 20.8398L37.0697 21.7294L37.5914 21.122L38.225 20.7167L37.7657 20.3623ZM37.7984 19.9366C41.2687 22.0816 43.7542 25.6672 44.4205 29.86L44.4193 29.8566L43.3005 30.814L42.5863 30.6458L42.2515 30.9393L42.2755 31.138C42.2868 31.2283 42.3277 31.4146 42.3963 31.6923C42.5397 32.2624 42.6121 32.8314 42.6121 33.3857C42.6121 33.9016 42.592 34.0698 42.4768 34.5688L41.8671 34.5722L40.153 33.1825L38.8467 33.4771L38.0048 33.3338L36.9357 33.6612L37.419 34.0777L38.2577 33.8406L38.9826 34.4209L38.8681 34.6749L38.5692 35.157L37.9255 36.0782L36.9332 36.8786L35.099 34.9752L34.6245 35.0261L36.5815 37.2681L37.3749 37.1089L37.5725 37.5142L36.7734 38.8204L35.2198 40.3038L34.5207 42.0751C34.5049 42.1202 34.432 42.1767 34.32 42.2309C34.0953 42.3381 33.8323 42.5312 33.5397 42.8055C33.1653 43.1566 32.9551 43.3508 32.9098 43.3903C32.6009 43.6613 32.2302 43.9446 31.798 44.2347C31.3688 44.5249 30.9397 44.7789 30.5143 44.9957C29.7624 45.3784 28.9179 45.5906 28.1534 45.5906C27.6525 45.5906 27.1435 45.5059 26.6489 45.3377C26.5809 45.3152 26.5369 45.2813 26.5369 45.2508L26.876 44.2923C26.8905 44.2472 27.1781 43.9221 27.7192 43.3316C27.964 43.064 28.1628 42.7028 28.3013 42.2704C28.507 41.6337 28.6517 41.2419 28.7373 41.1042C29.0475 40.603 29.1954 40.1751 29.0916 40.0701L27.0623 38.029L26.2109 36.4462L26.3009 36.0714C26.3644 35.8107 26.5708 35.3523 26.966 34.597C27.1793 34.1872 27.3555 33.9716 27.5506 33.8756L28.9091 33.2062L31.545 33.6036L32.3479 34.1398L32.7261 34.0935L34.3357 34.5123L34.739 33.4636L32.6921 32.8878L31.9685 32.1675L31.8678 32.1947L32.2063 33.0504L31.798 33.1317L31.7539 33.0312L31.8961 33.0052C31.903 33.0142 31.774 32.4791 31.4556 32.329C31.3417 32.2771 31.2675 32.2262 31.1511 32.2262C30.995 32.2262 30.7389 32.3222 30.6068 32.4453C30.16 32.8573 29.8095 33.1396 29.7768 33.1147L28.9374 32.4791L29.2489 31.6957L29.3773 31.7273C29.4534 31.7453 29.5346 31.7544 29.6157 31.7544C29.88 31.7544 30.0424 31.6008 30.0751 31.4496C30.116 31.261 29.9857 31.1684 29.9857 31.1684C29.9908 31.164 29.9058 31.0793 29.9058 31.0793C29.9058 31.0894 30.0266 30.9426 30.021 30.9426C30.0178 30.9426 30.3406 31.0251 30.5244 31.0352C30.7389 31.0477 30.9491 30.9991 31.0347 30.9043L31.2379 30.5825L31.5809 30.4877L31.6413 30.0338L31.8508 30.0486C31.8508 30.0486 31.9697 30.2111 32.0182 30.4301L32.6097 30.2766L32.7846 29.6692L32.6896 29.562L32.9495 28.9806L32.7248 28.8214L32.3441 29.895L32.1352 29.9221L32.0427 29.6828L31.5091 29.7234L31.2096 29.2436L31.859 28.5753L32.4907 27.7274L33.383 28.0074L33.6007 28.4488L33.8726 28.442L33.7738 27.7986L34.5037 27.1133L34.0173 24.9119L34.3288 24.221L34.6824 24.2413L34.7296 23.6983L32.402 21.148L32.4763 20.4594L34.4036 20.0202L34.6799 20.1026L35.776 19.9965L36.0302 20.1105L37.7984 19.9344V19.9366ZM18.3353 40.0137L19.3251 39.1941L20.1381 39.3984L22.3115 37.7626L22.4166 36.8899L20.987 34.807C20.9643 34.7766 20.8718 33.4748 20.5956 32.4995C20.4496 31.9903 20.1167 30.5092 20.1035 30.4786L19.9147 30.1016L18.5568 28.0616L19.4384 25.8568L20.1419 25.8263L20.1834 25.5023L19.663 25.0665L19.6473 24.9728L19.6303 24.5596C19.6303 24.2785 20.1066 23.9963 20.4238 23.9963C20.5087 23.9963 20.5974 24.0087 20.6906 24.0347C20.9127 24.0957 21.1229 24.2785 21.311 24.4163C21.3463 24.4411 21.9377 25.8218 21.9377 25.8218L21.4356 26.2248L21.1896 26.8299L21.5325 27.0986L22.0101 26.2734L23.9916 26.9383L25.206 27.6304L25.5741 27.2273L26.5935 27.312L27.3385 26.2971L26.6646 26.0408L27.3712 25.1896L27.2876 24.9039L26.2097 24.6951L27.0358 23.8292L27.8193 24.3406L27.8035 24.5698L28.3107 24.6331L28.7386 23.8202L28.4391 23.5572L29.7013 22.3436L30.8428 21.8107L31.7313 21.2282L31.903 21.0927L31.9389 20.4672L31.7879 20.0247L31.3946 19.8734L31.8986 19.4783L31.7596 19.4038C31.4229 19.6284 30.625 20.176 29.2319 20.2753C28.2408 20.3453 26.2355 19.9039 26.2355 19.9039L24.2464 19.6059L23.5524 19.4828C21.8635 20.3837 20.3778 21.6109 19.1773 23.0841L19.1175 24.9627L18.8173 25.8207L18.1063 28.3066L18.3353 29.0077L17.2052 29.168L16.065 30.4369C16.0021 30.989 15.9688 31.5511 15.9688 32.1201C15.9688 35.0373 16.8409 37.7513 18.3385 40.0137H18.3353ZM20.5672 30.7993L20.6302 31.0702L20.8888 30.9844L20.8032 30.7112L20.5672 30.7993ZM31.2581 32.6733L31.0787 32.6507L31.0661 32.9894L31.2467 33.0222L31.3543 32.5876L31.2977 32.565L31.2581 32.6733ZM36.056 43.4558C36.056 43.4603 35.9019 43.2853 35.9019 43.2853C35.9025 43.2909 35.6621 43.431 35.6621 43.431C35.6621 43.431 35.844 43.6116 35.8383 43.6116L36.056 43.4558ZM36.3895 41.7161L35.9377 41.978L35.3607 42.0999L34.0941 43.3452L34.1721 43.6217L34.3558 43.597L35.0788 43.2853C35.267 43.2052 35.8597 42.8733 36.168 42.5413C36.4581 42.2264 36.5462 42.1045 36.7142 41.785L36.3895 41.7161ZM29.6686 30.4539L29.9813 30.5408L30.0751 30.2506L29.853 30.1976L29.6686 30.4539ZM30.5099 29.8363C30.5099 29.8363 30.1462 30.7259 30.1462 30.7304C30.1462 30.7304 30.7201 30.7846 30.7201 30.7891L30.8553 30.0576L30.7559 29.9831L30.8239 29.7336L30.5357 29.5755L30.4419 29.764L30.5099 29.8363ZM20.9995 30.6694C21.0039 30.6694 21.1996 30.5927 21.1996 30.5927L21.1229 30.4245C21.1229 30.4245 21.0096 30.5216 21.0121 30.5328L20.9995 30.6694ZM20.8573 30.1298L20.9366 30.3195L21.1688 30.2156C21.1688 30.2156 21.1059 30.0418 21.0977 30.0418L20.8573 30.1298ZM20.7006 29.5044L20.7453 29.7968L21.0222 29.7957L20.9851 29.4818L20.7006 29.5044ZM20.4395 28.9625L20.5817 29.1861L20.8548 29.2266L20.9769 28.678L20.5314 28.5697L20.4395 28.9625ZM20.2023 28.2637L20.6522 28.3179L20.7906 27.2567L20.7944 26.9372L20.7151 26.6143L20.4836 26.5962L20.2023 28.2637ZM30.1663 22.5095L28.8707 23.5402L29.3313 23.8721L30.3652 22.8188L30.1663 22.5095ZM29.0255 24.2853L28.8424 24.2774L28.4888 24.9198L27.9394 24.9627L27.3115 25.8669L27.6538 26.0826L28.4988 25.5452L29.1451 24.8554L29.0255 24.2853ZM28.7115 25.7924L28.0722 26.3558V26.7385L29.0884 26.9891L31.114 25.614L31.0599 25.053L30.2569 24.7753L28.7115 25.7924ZM25.6421 27.4644L26.4041 27.5863L26.1417 28.0876L25.4873 27.7263L25.6421 27.4644Z" fill="#00489A"/>
<path d="M12.6114 8.38346L11.8922 10.5194H13.2853L12.6114 8.38346ZM14.1725 13.3519L13.8025 12.1598H11.3428L10.9483 13.3519H8.89258L11.8022 5.34888H13.3193L16.2283 13.3519H14.1725Z" fill="#E42313"/>
<path d="M22.2462 7.55263C22.0662 7.28281 21.7969 7.10329 21.3023 7.10329H20.4371V11.5987H21.3023C21.7969 11.5987 22.0662 11.4193 22.2462 11.1494C22.4028 10.9248 22.4595 10.7114 22.4595 9.351C22.4595 8.00197 22.4028 7.77727 22.2462 7.55263ZM23.594 12.5651C23.0428 13.1161 22.2688 13.352 21.4363 13.352H18.4707V5.3501H21.4363C22.2688 5.3501 23.0428 5.586 23.594 6.13696C24.5265 7.06944 24.4246 8.09227 24.4246 9.351C24.4246 10.6098 24.5265 11.6326 23.594 12.5651Z" fill="#E42313"/>
<path d="M27.0957 13.3519V5.34888H32.5323V7.10207H29.0608V8.4399H32.0277V10.1932H29.0608V11.5986H32.5323V13.3519H27.0957Z" fill="#E42313"/>
<path d="M40.7478 13.3519V9.51917L39.6133 11.4971H38.3542L37.2197 9.51917V13.3519H35.2539V5.34888H37.1869L38.984 8.87905L40.7812 5.34888H42.7129V13.3519H40.7478Z" fill="#E42313"/>
<path d="M45.6289 13.3519V5.34888H51.0662V7.10207H47.5947V8.4399H50.5615V10.1932H47.5947V11.5986H51.0662V13.3519H45.6289Z" fill="#E42313"/>
<path d="M10.4393 53.2559L10.8219 52.1214L11.1799 53.2559H10.4393ZM10.4865 50.9397L9.21289 54.4414H10.0441L10.2203 53.9072H11.3844L11.5499 54.4414H12.3824L11.1075 50.9397H10.4865Z" fill="#E42313"/>
<path d="M14.6537 54.4709C15.098 54.4709 15.4006 54.3552 15.6662 54.0814C15.921 53.8216 16.0173 53.505 16.0173 52.9167V52.4605H14.6952V53.1118H15.2244V53.2043C15.2244 53.3748 15.1716 53.522 15.0759 53.6164C14.9809 53.7184 14.8387 53.7687 14.6537 53.7687C14.4933 53.7687 14.3542 53.7089 14.273 53.6019C14.1881 53.4912 14.1327 53.3685 14.1327 52.6908C14.1327 52.0181 14.1881 51.8948 14.273 51.7834C14.3555 51.6746 14.4977 51.6117 14.6537 51.6117C14.9526 51.6117 15.1175 51.7325 15.1999 52.0137H16.0047C15.9393 51.6463 15.6806 50.9094 14.6537 50.9094C14.2548 50.9094 13.9571 51.0302 13.6859 51.3002C13.3348 51.6513 13.3348 52.1276 13.3361 52.631V52.7506C13.3348 53.254 13.3348 53.7297 13.6859 54.0808C13.9521 54.347 14.2592 54.4709 14.6537 54.4709Z" fill="#E42313"/>
<path d="M18.1599 53.0263H19.4901V52.324H18.1599V51.6407H19.716V50.9397H17.3633V54.4421H19.716V53.7398H18.1599V53.0263Z" fill="#E42313"/>
<path d="M23.7965 54.4402V50.9385H22.9993V52.8444L21.7854 50.9385H21.0801V54.4402H21.8773V52.5361L23.0905 54.4402H23.7965Z" fill="#E42313"/>
<path d="M26.9608 53.3874C26.9073 53.5598 26.7972 53.77 26.4706 53.77C26.3102 53.77 26.1717 53.7089 26.0899 53.6019C26.0056 53.4912 25.9458 53.3609 25.9458 52.6908C25.9458 52.02 26.0056 51.8892 26.0899 51.7784C26.1717 51.6721 26.3102 51.6117 26.4706 51.6117C26.7972 51.6117 26.9073 51.8199 26.9608 51.9942H27.7757C27.6423 51.3046 27.1684 50.9094 26.4662 50.9094C26.0723 50.9094 25.764 51.0334 25.4984 51.3008C25.1473 51.6507 25.1473 52.127 25.1486 52.6298V52.7506C25.1473 53.254 25.1473 53.7291 25.4984 54.0802C25.764 54.347 26.0723 54.4709 26.4662 54.4709C27.1684 54.4709 27.6423 54.077 27.7757 53.3874H26.9608Z" fill="#E42313"/>
<path d="M29.779 53.0263H31.1093V52.324H29.779V51.6407H31.3345V50.9397H28.9824V54.4421H31.3345V53.7398H29.779V53.0263Z" fill="#E42313"/>
<path d="M36.6747 53.5214C36.574 53.6706 36.4293 53.7404 36.216 53.7404H35.7875V51.6431H36.216C36.4293 51.6431 36.574 51.713 36.6747 51.8621C36.7534 51.976 36.7773 52.0993 36.7773 52.6921C36.7773 53.3182 36.7515 53.4119 36.6747 53.5214ZM37.5752 52.8431C37.5745 52.7934 37.5745 52.7424 37.5745 52.6921C37.5745 52.6399 37.5745 52.5902 37.5752 52.5392C37.5789 52.0415 37.5821 51.6488 37.214 51.282C36.9918 51.058 36.6678 50.9409 36.277 50.9409H34.9902V54.4426H36.277C36.6678 54.4426 36.9918 54.3243 37.214 54.1016C37.5821 53.7347 37.5789 53.3408 37.5752 52.8431Z" fill="#E42313"/>
<path d="M39.7205 53.0275H41.0507V52.3252H39.7205V51.6419H41.2759V50.9409H38.9238V54.4433H41.2759V53.741H39.7205V53.0275Z" fill="#E42313"/>
<path d="M45.7308 50.9397H44.9336V54.4414H47.2366V53.7392H45.7308V50.9397Z" fill="#E42313"/>
<path d="M49.2355 53.2559L49.6181 52.1214L49.9761 53.2559H49.2355ZM50.3468 54.4414H51.1786L49.9038 50.9397H49.2827L48.0098 54.4414H48.8404L49.0166 53.9072H50.1807L50.3468 54.4414Z" fill="#E42313"/>
<path d="M10.2266 60.1489H11.0251V57.3494H11.9079V56.6472H9.34375V57.3494H10.2266V60.1489Z" fill="#E42313"/>
<path d="M15.3293 58.1631H14.7887V57.3551H15.3293C15.6061 57.3551 15.7553 57.5628 15.7553 57.7591C15.7553 57.9542 15.6061 58.1631 15.3293 58.1631ZM15.9919 58.6576C16.1227 58.5922 16.5531 58.3323 16.5531 57.7591C16.5531 57.2072 16.1467 56.6472 15.3702 56.6472H13.9902V60.1489H14.7887V58.8143H15.1543L15.7899 60.1489H16.718L15.9535 58.6771L15.9919 58.6576Z" fill="#E42313"/>
<path d="M19.6482 58.9641L20.0308 57.8296L20.3901 58.9641H19.6482ZM19.6954 56.6472L18.4199 60.1496H19.253L19.4292 59.6153H20.594L20.7613 60.1496H21.5932L20.3177 56.6472H19.6954Z" fill="#E42313"/>
<path d="M23.5371 56.6472V60.1496H24.335V58.2436L25.5501 60.1496H26.2567V56.6472H25.4582V58.5519L24.2437 56.6472H23.5371Z" fill="#E42313"/>
<path d="M29.9382 58.052L29.5046 57.9916C29.3895 57.9771 29.2976 57.9375 29.2334 57.8746C29.1592 57.799 29.1497 57.7116 29.1497 57.6782C29.1497 57.4976 29.2989 57.3032 29.6261 57.3032H29.6531C29.8117 57.3032 30.0848 57.3019 30.3056 57.4983L30.8027 57.0043C30.5183 56.7363 30.1615 56.6167 29.6512 56.6167C28.8924 56.6167 28.3821 57.0547 28.3821 57.7084C28.3821 58.0054 28.4613 58.2383 28.6168 58.3993C28.7716 58.5573 29.0056 58.6605 29.3146 58.7045L29.7481 58.7643C29.8645 58.78 29.9526 58.8159 30.0093 58.8713C30.0653 58.9336 30.0917 59.0122 30.0917 59.1129C30.0917 59.279 29.9954 59.4772 29.5348 59.4772C29.3725 59.4772 28.9773 59.454 28.7344 59.2419L28.2285 59.7472C28.5381 60.0486 28.9307 60.1788 29.5304 60.1788C30.1999 60.1788 30.8751 59.8435 30.8751 59.0928C30.8751 58.7517 30.7927 58.5044 30.6209 58.337C30.4743 58.1904 30.244 58.0948 29.9382 58.052Z" fill="#E42313"/>
<path d="M33.8213 56.6472H33.0234V60.1489H33.8213V56.6472Z" fill="#E42313"/>
<path d="M36.7871 60.1489H37.5863V57.3494H38.4678V56.6472H35.9043V57.3494H36.7871V60.1489Z" fill="#E42313"/>
<path d="M40.5508 60.1489H41.3487V56.6472H40.5508V60.1489Z" fill="#E42313"/>
<path d="M45.235 59.2997C45.1695 59.3853 45.033 59.4771 44.8486 59.4771C44.6636 59.4771 44.5283 59.3853 44.4616 59.2997C44.3748 59.1858 44.3213 59.0681 44.3213 58.398C44.3213 57.7247 44.3767 57.602 44.4616 57.4912C44.5453 57.383 44.6894 57.3182 44.8486 57.3182C45.0066 57.3182 45.1513 57.383 45.235 57.4912C45.3193 57.602 45.3747 57.7247 45.3747 58.398C45.3747 59.0681 45.3218 59.1858 45.235 59.2997ZM46.1732 58.3376C46.1744 57.8342 46.1744 57.3591 45.8221 57.0067C45.5509 56.7368 45.252 56.616 44.8486 56.616C44.4459 56.616 44.1458 56.7368 43.8746 57.008C43.5234 57.3591 43.5234 57.8342 43.5234 58.3376V58.4578C43.5234 58.9612 43.5234 59.4362 43.8746 59.7886C44.1458 60.0585 44.4459 60.1794 44.8486 60.1794C45.252 60.1794 45.5509 60.0585 45.8221 59.7886C46.1744 59.4362 46.1744 58.9612 46.1732 58.4578V58.3376Z" fill="#E42313"/>
<path d="M51.0692 60.1489V56.6472H50.2707V58.5526L49.0563 56.6472H48.3496V60.1489H49.1475V58.2442L50.3626 60.1489H51.0692Z" fill="#E42313"/>
<path d="M10.1481 64.4442H11.4821V63.7401H10.1481V63.0548H11.7105V62.3501H9.34766V65.8644H11.7105V65.1603H10.1481V64.4442Z" fill="#E42313"/>
<path d="M10.4903 61.0874L10.2656 61.9123H10.6878L11.2296 61.0874H10.4903Z" fill="#E42313"/>
<path d="M15.512 63.4078H16.3306C16.1972 62.7162 15.7209 62.3198 15.0149 62.3198C14.6197 62.3198 14.312 62.445 14.0452 62.7112C13.6922 63.0648 13.6922 63.5412 13.6935 64.0471V64.1679C13.6922 64.6726 13.6922 65.1502 14.0452 65.5019C14.312 65.77 14.6197 65.8952 15.0149 65.8952C15.7209 65.8952 16.1972 65.4988 16.3306 64.8053H15.512C15.4591 64.9796 15.3471 65.1892 15.0206 65.1892C14.8595 65.1892 14.7204 65.1288 14.6392 65.0224C14.5537 64.9104 14.4939 64.7795 14.4939 64.1069C14.4939 63.4348 14.5537 63.304 14.6392 63.1926C14.7204 63.085 14.8595 63.0239 15.0206 63.0239C15.3471 63.0239 15.4591 63.2341 15.512 63.4078Z" fill="#E42313"/>
<path d="M19.8755 65.0123C19.7893 65.1244 19.6452 65.1898 19.4879 65.1898C19.3312 65.1898 19.1865 65.1244 19.1009 65.0123C19.0141 64.8985 18.9606 64.7802 18.9606 64.1069C18.9606 63.4298 19.0141 63.3109 19.1009 63.197C19.1846 63.0888 19.3287 63.0246 19.4879 63.0246C19.6471 63.0246 19.7918 63.0888 19.8755 63.197C19.9624 63.3109 20.0152 63.4298 20.0152 64.1069C20.0152 64.7802 19.9624 64.8985 19.8755 65.0123ZM19.4879 62.3198C19.0839 62.3198 18.7825 62.4406 18.5113 62.7118C18.1596 63.0648 18.1596 63.5412 18.1602 64.0471V64.1666C18.1596 64.6726 18.1596 65.1502 18.5113 65.5025C18.7825 65.7731 19.0839 65.8952 19.4879 65.8952C19.8925 65.8952 20.1926 65.7731 20.4645 65.5025C20.8156 65.1502 20.8156 64.6726 20.8156 64.1679V64.0458C20.8156 63.5412 20.8156 63.0636 20.4645 62.7118C20.1939 62.4406 19.8925 62.3198 19.4879 62.3198Z" fill="#E42313"/>
<path d="M23.7047 62.3501H22.9043V65.8644H25.2149V65.1603H23.7047V62.3501Z" fill="#E42313"/>
<path d="M28.6698 65.0123C28.5836 65.1244 28.4395 65.1898 28.2822 65.1898C28.0972 65.1898 27.9606 65.0979 27.8952 65.0123C27.8083 64.8985 27.7555 64.7802 27.7555 64.1069C27.7555 63.4317 27.8108 63.309 27.8952 63.197C27.9789 63.0888 28.123 63.0246 28.2822 63.0246C28.4414 63.0246 28.5861 63.0888 28.6698 63.197C28.7566 63.3109 28.8095 63.4298 28.8095 64.1069C28.8095 64.7802 28.7566 64.8985 28.6698 65.0123ZM28.2822 62.3198C27.8782 62.3198 27.5768 62.4406 27.3068 62.7118C26.9538 63.0648 26.9551 63.5412 26.9551 64.0471V64.1666C26.9551 64.6726 26.9538 65.1502 27.3068 65.5025C27.5768 65.7731 27.8782 65.8952 28.2822 65.8952C28.6868 65.8952 28.9869 65.7731 29.2587 65.5025C29.6111 65.1502 29.6099 64.6726 29.6099 64.1666V64.0471C29.6099 63.5412 29.6111 63.0648 29.2587 62.7118C28.9882 62.4406 28.6868 62.3198 28.2822 62.3198Z" fill="#E42313"/>
<path d="M33.4497 63.4293H34.2576C34.1922 63.0599 33.9342 62.3206 32.9023 62.3206C32.5014 62.3206 32.2019 62.4414 31.9313 62.7119C31.579 63.0643 31.579 63.5419 31.5802 64.0478V64.1674C31.579 64.6733 31.579 65.1496 31.9313 65.5026C32.1988 65.7707 32.5071 65.8946 32.9023 65.8946C33.3478 65.8946 33.6529 65.777 33.9178 65.5026C34.1746 65.2421 34.2702 64.925 34.2702 64.3341V63.876H32.945V64.5298H33.4742V64.6223C33.4742 64.7941 33.4226 64.9407 33.3264 65.0364C33.2307 65.1383 33.0872 65.1899 32.9023 65.1899C32.7418 65.1899 32.6015 65.1289 32.5203 65.0219C32.436 64.9111 32.3806 64.7884 32.3806 64.1076C32.3806 63.4324 32.436 63.3085 32.5203 63.1977C32.6053 63.087 32.7443 63.0247 32.9023 63.0247C33.2024 63.0247 33.3673 63.1455 33.4497 63.4293Z" fill="#E42313"/>
<path d="M36.3574 65.8644H37.1578V62.3501H36.3574V65.8644Z" fill="#E42313"/>
<path d="M41.0771 64.6418L41.0689 64.7318L40.8637 64.5254L40.473 64.9162L40.7259 65.1698L40.6492 65.1849C40.6196 65.1899 40.5957 65.1899 40.5699 65.1899C40.3849 65.1899 40.2483 65.0987 40.1829 65.0118C40.0961 64.8979 40.0426 64.779 40.0426 64.1063C40.0426 63.4324 40.098 63.3085 40.1829 63.1977C40.2666 63.0895 40.4107 63.0247 40.5699 63.0247C40.7291 63.0247 40.8738 63.0895 40.9575 63.1977C41.0418 63.3085 41.0972 63.4324 41.0972 64.1063C41.0972 64.3675 41.0846 64.5367 41.0771 64.6418ZM41.6969 65.3132C41.8989 64.9904 41.8976 64.5896 41.8976 64.1649V64.0478C41.8976 63.5419 41.8988 63.0643 41.5452 62.7113C41.2759 62.4414 40.9745 62.3206 40.5699 62.3206C40.1659 62.3206 39.8658 62.4414 39.5946 62.7119C39.2416 63.0643 39.2422 63.5419 39.2422 64.0478V64.1674C39.2422 64.6733 39.2416 65.1496 39.5946 65.5026C39.8658 65.7738 40.1659 65.8946 40.5699 65.8946C40.8373 65.8946 41.0588 65.8418 41.2463 65.7329L41.2746 65.7172L41.5452 65.9884L41.936 65.5976L41.6799 65.3415L41.6969 65.3132Z" fill="#E42313"/>
<path d="M44.7242 64.623V62.3508H43.9238V64.6432C43.9238 65.368 44.4782 65.8953 45.2415 65.8953C46.0116 65.8953 46.5692 65.368 46.5692 64.6432V62.3508H45.7688V64.623C45.7688 64.9729 45.5668 65.19 45.2415 65.19C44.9218 65.19 44.7242 64.9729 44.7242 64.623Z" fill="#E42313"/>
<path d="M49.5055 64.4442H50.8401V63.7401H49.5055V63.0548H51.0672V62.3501H48.7051V65.8644H51.0672V65.1603H49.5055V64.4442Z" fill="#E42313"/>
</svg>
