<?xml version="1.0" encoding="utf-8"?>
<!-- Generator: Adobe Illustrator 21.1.0, SVG Export Plug-In . SVG Version: 6.00 Build 0)  -->
<svg version="1.1" id="Calque_1" xmlns="http://www.w3.org/2000/svg" xmlns:xlink="http://www.w3.org/1999/xlink" x="0px" y="0px"
	 viewBox="0 0 370 260.7" style="enable-background:new 0 0 370 260.7;" xml:space="preserve">
<style type="text/css">
	.st0{fill:#177DAF;}
	.st1{fill:#189B3C;}
	.st2{fill:#AD167E;}
	.st3{fill:#E10C19;}
	.st4{fill:#F1910D;}
	.st5{fill:#ABC81E;}
	.st6{fill:#010202;}
</style>
<path class="st0" d="M126.8,206.3c2.4,9.4,3.8,19.2,4,29.4c0.2,8.6-0.5,16.9-2,25c8.7-3.5,17.3-7.3,25.7-11.4
	c1.6-8.1,2.4-16.5,2.3-25.1c-0.1-7.8-1.1-15.3-2.7-22.6c-8.2,3.1-17.1,4.7-26.4,4.7C127.5,206.3,127.1,206.3,126.8,206.3"/>
<path class="st1" d="M35.5,220.6c9,5.8,18.3,11.1,27.8,16.1c12.6-10,24.6-23.1,33.2-37.2c-7.3-3.3-14-7.8-19.8-13.2
	C67.2,201.6,52,214.1,35.5,220.6"/>
<path class="st2" d="M40.1,48.4L16.8,63.9C26.1,79,41.3,96.3,56,107.6c3-9.2,7.7-17.7,13.8-25C58.8,72.9,47.3,59.5,40.1,48.4"/>
<path class="st3" d="M122.1,29.3c0-10.1,1.1-19.9,3.2-29.3C115.1,4.1,105,8.5,95.2,13.3c0,1.4-0.1,2.9-0.1,4.3
	c0,14.8,1.6,29.2,4.7,43.1c7.7-3.1,16.1-4.9,24.9-5.3C123,47,122.1,38.2,122.1,29.3"/>
<path class="st4" d="M181.5,77.9c7.6-15.7,21.1-28.9,31.1-37.4c-7.2-5.5-13.7-12.1-19.1-19.6c-11.7,8.1-26.4,23.7-35.4,40.8
	C167,65.6,174.9,71.1,181.5,77.9"/>
<path class="st5" d="M32.1,140.1c-11.6,1.7-21.9,1.8-32.1-0.8l9.7,27c8.5,1,14.9,1.1,23.7,0.2c9.2-0.9,17.3-2.5,25.2-5.5
	c-3.5-8-5.7-16.8-6.2-26C47.1,137,40.9,138.8,32.1,140.1"/>
<path class="st2" d="M168.6,171.8v13.3h-4.8v-12.9c0-3.4-1.9-5.6-5-5.6c-3.2,0-5.5,2.2-5.5,5.6v12.9h-4.9v-12.9c0-3.4-1.9-5.6-5-5.6
	s-5.4,2.2-5.4,5.6v12.9h-4.9v-16.5c0-1.2-0.2-1.9-1-1.9c-0.3,0-0.5,0.1-0.7,0.3l-0.3-0.1l-0.7-3.3l0.2-0.3c0.6-0.4,1.5-0.8,2.7-0.8
	c2,0,3.5,1,4,2.8c1.7-1.7,4.2-2.8,7.1-2.8c3.4,0,5.9,1.4,7.4,3.8c1.7-2.3,4.5-3.8,7.9-3.8C165.2,162.5,168.6,166.3,168.6,171.8z"/>
<path class="st2" d="M180.2,175.3c0.4,4.2,3.8,6.4,7.5,6.4c2.6,0,5.4-1,7.1-3h0.3l2.5,2.3v0.4c-2.3,3-6.4,4.2-10,4.2
	c-6.4,0-12.2-4.1-12.2-11.5c0-6.7,4.7-11.7,11.6-11.7c6.8,0,11.4,4.9,11.4,11.3c0,0.7,0,1.1-0.1,1.6H180.2z M180.2,172.2h13.4
	c-0.4-3.9-3-6-6.6-6C183.4,166.2,180.7,168.4,180.2,172.2z M183.5,160.4l-1.5-1.9v-0.3l7.8-6.5h0.3l2.4,3v0.3l-8.7,5.5H183.5z"/>
<path class="st2" d="M218.3,184.1l-0.1,0.4c-1.2,0.8-2.6,1.2-4.1,1.2c-4.2,0-7.5-2.9-7.5-7.9v-11h-3.8V163h3.8v-6.5l4.5-0.7l0.4,0.2
	v6.9h6.7v3.8h-6.7v10.6c0,2.6,1.2,4.1,3.3,4.1c0.7,0,1.2-0.2,1.9-0.6l0.3,0.2L218.3,184.1z"/>
<path class="st2" d="M239.2,163.6l-1.2,3.5l-0.3,0.1c-0.8-0.5-1.6-0.6-2.6-0.6c-2.8,0-4.8,2.2-4.8,5.8v12.6h-4.8v-16.5
	c0-1.2-0.2-1.9-1-1.9c-0.3,0-0.5,0.1-0.7,0.3l-0.3-0.1l-0.7-3.3l0.2-0.3c0.6-0.4,1.5-0.8,2.7-0.8c1.9,0,3.3,1,3.8,2.8
	c1.5-1.8,3.5-2.8,6-2.8c1.3,0,2.4,0.3,3.5,0.8L239.2,163.6z"/>
<path class="st2" d="M266.3,174c0,6.6-5,11.6-12.1,11.6s-12-5-12-11.6s5-11.6,12-11.6S266.3,167.5,266.3,174z M261.4,174
	c0-4.2-2.9-7.4-7.1-7.4c-4.2,0-7.1,3.1-7.1,7.4c0,4.2,3,7.4,7.1,7.4C258.4,181.4,261.4,178.3,261.4,174z"/>
<path class="st2" d="M297.3,174c0,6.4-4.5,11.6-11.2,11.6c-2.8,0-5.3-1.1-7.1-2.7v8.8h-4.8v-23.1c0-1.2-0.2-1.9-1-1.9
	c-0.3,0-0.5,0.1-0.7,0.3l-0.3-0.1l-0.7-3.3l0.2-0.3c0.6-0.4,1.5-0.8,2.7-0.8c2.1,0,3.6,1.2,4.1,3.2c1.9-1.9,4.5-3.2,7.7-3.2
	C292.8,162.5,297.3,167.6,297.3,174z M292.4,174c0-4.1-2.8-7.4-6.9-7.4c-3.9,0-7,2.6-7,7.4s3.1,7.4,7,7.4
	C289.6,181.4,292.4,178.1,292.4,174z"/>
<path class="st2" d="M327.1,174c0,6.6-5,11.6-12.1,11.6c-7,0-12-5-12-11.6s5-11.6,12-11.6C322.1,162.5,327.1,167.5,327.1,174z
	 M322.2,174c0-4.2-2.9-7.4-7.1-7.4c-4.2,0-7.1,3.1-7.1,7.4c0,4.2,3,7.4,7.1,7.4C319.3,181.4,322.2,178.3,322.2,174z"/>
<path class="st2" d="M334.3,155.6l4.5-0.7l0.4,0.2v24.3c0,1.2,0.2,1.9,1,1.9c0.4,0,0.6-0.1,0.8-0.3l0.3,0.1l0.7,3.3l-0.2,0.3
	c-0.6,0.4-1.6,0.8-2.8,0.8c-3,0-4.6-2-4.6-5.1V155.6z"/>
<path class="st2" d="M351.8,175.3c0.4,4.2,3.8,6.4,7.5,6.4c2.6,0,5.4-1,7.1-3h0.3l2.5,2.3v0.4c-2.3,3-6.4,4.2-10,4.2
	c-6.4,0-12.2-4.1-12.2-11.5c0-6.7,4.7-11.7,11.6-11.7s11.4,4.9,11.4,11.3c0,0.7,0,1.1-0.1,1.6H351.8z M351.8,172.2h13.4
	c-0.4-3.9-3-6-6.6-6C355,166.2,352.3,168.4,351.8,172.2z"/>
<rect x="131.9" y="91.7" class="st6" width="12.7" height="56.4"/>
<path class="st6" d="M243.4,119.5c0-18.5-10.6-29-28.2-29c-16.9,0-28.3,12-28.3,29.6c0,18.5,10.7,29.2,28.3,29.2
	C232.1,149.2,243.4,137,243.4,119.5 M230.9,119.8c0,10.3-4.9,19.7-15.7,19.7c-10.7,0-15.8-9.6-15.8-19.7c0-10.3,5-19.7,15.8-19.7
	C226,100.1,230.9,109.7,230.9,119.8"/>
<path class="st6" d="M289.9,148v-35.2c0-6.7-0.9-11-8.3-11c-6.6,0-12.8,4.2-16.1,10.2c-0.2,0.4-1,2.1-1,2.4V148h-12.7V91.7h12.7v10
	c4.7-6,12.9-10.4,20.5-10.4c13.8,0,17.7,4.5,17.7,18.8v38H289.9z"/>
<path class="st6" d="M90.5,139.1v-38.5c10.8,0,21.1,2.1,21.1,18.9C111.6,134.9,102.9,138.9,90.5,139.1 M104.5,92.7
	c-4.2-0.9-8.6-0.9-12.9-0.9H77.9V148h14.6c18.2,0,31.1-7.7,31.1-28.3C123.6,105.4,118.5,95.7,104.5,92.7"/>
<path class="st6" d="M165.9,91.7V122c0,2.8,0,5.6-0.2,8.3c-0.6,5.8-1.9,8.7-8,8.7c-0.4,0-4.4-0.4-4.8-0.4v9.5c0.9,0.2,5,0.5,6,0.5
	c15.5,0,19.8-9.7,19.8-24.3V91.7H165.9z"/>
</svg>
