<svg width="209" height="99" viewBox="0 0 209 99" fill="none" xmlns="http://www.w3.org/2000/svg">
    <path d="M21.4558 65.4723C21.4558 65.4723 27.7005 64.304 37.753 68.4662C47.8056 72.6284 48.406 78.416 48.406 78.416L45.9963 85.0203L17.583 71.7684L21.4558 65.4723Z" fill="#3A1058"/>
    <path d="M31.2535 49.3812C31.2535 49.3812 26.8884 32.8243 29.3252 26.3336C29.3252 26.3336 24.1461 10.6963 25.3658 9.17365C26.5855 7.65102 27.5997 9.17365 27.5997 9.17365C27.5997 9.17365 24.7573 3.49423 26.2799 2.47465C26.6759 2.18025 27.1563 2.02128 27.6497 2.02128C28.1432 2.02128 28.6235 2.18025 29.0196 2.47465C29.0196 2.47465 28.5138 -0.370469 31.2535 0.0406124C33.9931 0.451693 35.5184 2.98309 35.5184 2.98309C35.5184 2.98309 35.6185 0.343516 39.0721 2.37458C42.5257 4.40565 51.3559 22.1741 52.6757 27.8589C52.6757 27.8589 55.3152 20.143 61.5112 19.7455C61.5112 19.7455 64.2508 19.4399 63.3367 22.0794C62.4226 24.719 59.28 29.3815 58.9717 34.6688C58.6634 39.956 56.3321 50.4062 50.6473 51.8287C50.6473 51.8287 41.8631 91.9821 38.0552 99.1409H10.0449V87.7091C10.0449 87.7091 25.5173 62.2247 31.2535 49.3812Z" fill="#F4B9A4"/>
    <path d="M35.5186 2.98145C35.5186 2.98145 42.6773 13.4911 43.9971 21.7641" stroke="#3A1058" stroke-width="0.8" stroke-linecap="round" stroke-linejoin="round"/>
    <path d="M29.0195 2.4751C29.0195 2.4751 32.1162 4.20056 34.5529 9.42832C36.8355 14.3261 40.6461 24.5058 40.6461 24.5058" stroke="#3A1058" stroke-width="0.8" stroke-linecap="round" stroke-linejoin="round"/>
    <path d="M27.6006 9.17432C27.6006 9.17432 32.896 15.4352 35.2813 25.4877" stroke="#3A1058" stroke-width="0.8" stroke-linecap="round" stroke-linejoin="round"/>
    <path d="M34.3008 25.7247C34.3008 25.7247 41.9166 23.5909 47.2985 25.7247" stroke="#3A1058" stroke-width="0.8" stroke-linecap="round" stroke-linejoin="round"/>
    <path d="M52.3896 26.8047L53.6932 31.6133" stroke="#3A1058" stroke-width="0.8" stroke-linecap="round" stroke-linejoin="round"/>
    <path d="M37.2451 30.6992C37.2451 30.6992 43.4384 34.1528 45.1638 40.7518C45.1638 40.7518 45.775 44.914 44.7582 48.4677" stroke="#3A1058" stroke-width="0.8" stroke-linecap="round" stroke-linejoin="round"/>
    <path d="M30.832 47.6582C30.832 47.6582 31.4108 50.9441 33.0822 52.1206" stroke="#3A1058" stroke-width="0.8" stroke-linecap="round" stroke-linejoin="round"/>
    <path d="M47.2969 53.2375L52.0378 51.2578" stroke="#3A1058" stroke-width="0.8" stroke-linecap="round" stroke-linejoin="round"/>
    <path d="M21.4552 65.4746C21.4552 65.4746 26.4828 78.4183 48.4054 78.4183L40.8545 99.1319H0.628906L21.4552 65.4746Z" fill="#AC9087"/>
    <path d="M15.4912 75.1758C15.4912 75.1758 18.8664 82.3021 30.831 86.2371C41.9789 89.9044 44.3534 89.5176 44.3534 89.5176" stroke="#3A1058" stroke-width="0.8" stroke-linecap="round" stroke-linejoin="round"/>
    <path d="M67.6007 99.1298C67.6007 99.1298 72.6256 79.6359 75.9846 69.7375C79.3435 59.8391 80.09 53.9947 80.09 53.9947C80.09 53.9947 73.6154 49.0996 73.0827 43.8475C72.5499 38.5954 68.8961 31.5611 66.9922 30.6983C65.0882 29.8356 69.886 26.9932 74.8352 30.6983C74.8352 30.6983 76.8906 32.4995 77.4991 34.3277C78.1076 36.156 79.7086 37.9085 80.6985 37.5271C81.6883 37.1458 82.5916 31.1905 83.2109 27.8857C83.8303 24.5808 87.4002 6.60951 91.6624 5.61967C95.9247 4.62983 89.7693 21.687 90.5212 29.53C91.6773 26.9104 92.5679 24.1814 93.1797 21.3841C94.2614 16.5863 98.2127 5.38708 101.023 5.5791C103.833 5.77112 102.318 11.1044 102.318 11.1044C102.318 11.1044 105.442 9.12468 105.293 13.3869C105.144 17.6492 103.078 33.035 103.078 33.035C103.078 33.035 109.474 24.8107 110.845 22.3739C112.216 19.9372 114.816 20.9243 114.166 24.8864C113.517 28.8485 109.569 34.7091 108.338 36.2452C107.108 37.7814 106.131 54.3652 99.2783 57.2617C99.2783 57.2617 96.6901 74.9274 96.6901 81.0963C96.6901 87.2652 95.1647 99.1433 95.1647 99.1433L67.6007 99.1298Z" fill="#DE957E"/>
    <path d="M96.5537 84.9326L80.0889 83.126C80.0889 83.126 87.1935 89.2057 96.1345 90.2712C96.2995 88.5052 96.451 86.6553 96.5537 84.9326Z" fill="#3A1058"/>
    <path d="M97.3773 72.0106L78.9463 68.584C78.9463 68.584 87.0597 77.4114 96.8689 77.3357C96.9933 75.7211 97.1718 73.8902 97.3773 72.0106Z" fill="#3A1058"/>
    <path d="M78.1963 35.7979C78.1963 35.7979 79.5756 38.6294 81.301 38.9351" stroke="#3A1058" stroke-width="0.8" stroke-linecap="round" stroke-linejoin="round"/>
    <path d="M83.8457 39.584C83.8457 39.584 91.0991 43.3486 90.4149 52.3545" stroke="#3A1058" stroke-width="0.8" stroke-linecap="round" stroke-linejoin="round"/>
    <path d="M80.0869 53.9941L82.1694 55.5736" stroke="#3A1058" stroke-width="0.8" stroke-linecap="round" stroke-linejoin="round"/>
    <path d="M97.8545 57.754C97.8545 57.754 99.4907 57.3158 100.289 56.6992" stroke="#3A1058" stroke-width="0.8" stroke-linecap="round" stroke-linejoin="round"/>
    <path d="M88.3115 29.7324C88.3115 29.7324 97.45 29.8866 103.389 35.2658" stroke="#3A1058" stroke-width="0.8" stroke-linecap="round" stroke-linejoin="round"/>
    <path d="M102.322 11.1035C100.758 14.1764 99.5333 17.4101 98.6682 20.7477C97.2971 26.1296 96.5723 31.3438 96.5723 31.3438" stroke="#3A1058" stroke-width="0.8" stroke-linecap="round" stroke-linejoin="round"/>
    <path d="M102.074 34.1944L103.754 32.166" stroke="#3A1058" stroke-width="0.8" stroke-linecap="round" stroke-linejoin="round"/>
    <path d="M79.3775 57.7573C79.3775 57.7573 76.1863 56.7405 74.9855 59.0014C73.0058 62.7309 76.7812 69.3839 88.0833 73.7733C98.6686 77.8841 103.694 74.8388 103.694 71.7179C103.694 68.5969 98.1845 65.2514 98.1845 65.2514L97.6679 69.3568C97.6679 69.3568 94.6011 70.0411 89.1651 67.8342C83.729 65.6274 78.6581 60.7214 78.6581 60.7214L79.3775 57.7573Z" fill="#666A51"/>
    <path d="M78.0059 59.1777C78.0059 59.1777 78.0248 60.292 79.8855 61.8173" stroke="#3A1058" stroke-width="0.8" stroke-linecap="round" stroke-linejoin="round"/>
    <path d="M95.9805 69.4504C95.9805 69.4504 98.8202 69.5342 99.2772 68.6201" stroke="#3A1058" stroke-width="0.8" stroke-linecap="round" stroke-linejoin="round"/>
    <path d="M76.5105 68.1216C76.5105 68.1216 72.2023 67.5266 70.5769 69.9931C68.9515 72.4596 70.036 79.5859 84.4536 85.0246C98.8712 90.4633 101.205 86.1984 101.762 83.8509C102.536 80.6542 96.8564 77.3385 96.8564 77.3385L96.6779 81.0842C96.6779 81.0842 93.162 82.6825 86.4144 79.7319C82.2463 77.8704 78.4529 75.2638 75.2205 72.0404L76.5105 68.1216Z" fill="#E5BB22"/>
    <path d="M74.4824 70.6025C74.4824 70.6025 74.6339 71.7303 76.6866 73.4314" stroke="#87613E" stroke-width="0.8" stroke-linecap="round" stroke-linejoin="round"/>
    <path d="M94.6934 81.4865C94.6934 81.4865 96.6866 81.3621 97.8522 80.5508" stroke="#87613E" stroke-width="0.8" stroke-linecap="round" stroke-linejoin="round"/>
    <path d="M129.435 99.13L134.002 54.7765C134.002 54.7765 127.376 51.9855 126.844 47.4176C126.311 42.8497 123.493 37.3028 118.087 34.2116C118.087 34.2116 116.794 34.0926 117.097 32.4916C117.4 30.8905 122.506 30.1982 126.462 33.1731C130.419 36.148 130.957 37.5949 132.25 37.7464C132.25 37.7464 133.164 34.9472 132.556 32.1589C131.947 29.3706 123.447 14.7502 125.524 9.95243C127.601 5.15468 132.556 17.0355 134 19.2423C135.444 21.4492 138.724 26.8744 138.724 26.8744L138.419 6.16075C138.419 6.16075 138.267 3.18582 140.312 3.03978C142.357 2.89374 142.746 7.83753 143.206 13.0923C143.666 18.3471 145.808 26.5606 145.808 26.5606L151.216 9.50349C151.216 9.50349 151.825 6.68812 153.883 6.99102C155.941 7.29393 154.492 16.8137 153.883 19.6318C153.275 22.4498 152.282 30.1414 152.282 30.1414C152.282 30.1414 156.928 17.0436 159.898 17.195C162.867 17.3465 156.625 35.6991 156.625 38.0601C156.625 40.4211 155.636 50.7712 151.906 52.9077L157.083 99.13H129.435Z" fill="#A35C47"/>
    <path d="M131.473 37.4678C132.143 37.8178 132.905 37.9537 133.655 37.8572" stroke="#3A1058" stroke-width="0.8" stroke-linecap="round" stroke-linejoin="round"/>
    <path d="M136.133 38.5166C136.133 38.5166 142.529 40.0392 142.732 48.9234" stroke="#3A1058" stroke-width="0.8" stroke-linecap="round" stroke-linejoin="round"/>
    <path d="M139.432 55.0134C139.432 55.0134 141.617 54.6078 142.731 53.8965C142.731 53.8965 144.508 54.9134 145.373 55.0134" stroke="#3A1058" stroke-width="0.8" stroke-linecap="round" stroke-linejoin="round"/>
    <path d="M149.483 53.8967C149.483 53.8967 151.874 53.1043 152.458 52.5039" stroke="#3A1058" stroke-width="0.8" stroke-linecap="round" stroke-linejoin="round"/>
    <path d="M136.438 28.5666C136.438 28.5666 145.576 25.2671 153.292 31.3062" stroke="#3A1058" stroke-width="0.8" stroke-linecap="round" stroke-linejoin="round"/>
    <path d="M138.69 24.6562V28.0044" stroke="#3A1058" stroke-width="0.8" stroke-linecap="round" stroke-linejoin="round"/>
    <path d="M145.595 25.7324L146.009 28.0042" stroke="#3A1058" stroke-width="0.8" stroke-linecap="round" stroke-linejoin="round"/>
    <path d="M133.012 54.3037C133.012 54.3037 134.407 55.2178 135.27 55.2692" stroke="#3A1058" stroke-width="0.8" stroke-linecap="round" stroke-linejoin="round"/>
    <path d="M178.776 99.1308C178.776 99.1308 178.371 88.97 180.808 80.9539C183.244 72.9379 184.359 58.1119 184.359 58.1119C184.359 58.1119 176.245 53.1384 176.34 48.9167C176.434 44.695 174.663 38.6613 172.937 36.8331C171.212 35.0048 170.961 32.5789 175.288 33.136C179.615 33.6931 182.647 39.735 182.647 39.735C182.647 39.735 183.866 33.2875 183.918 30.8102C183.969 28.3329 181.327 19.6407 181.327 19.6407C181.327 19.6407 180.364 15.6813 182.392 14.6671C184.421 13.6529 188.778 21.358 190.806 28.7683C190.806 28.7683 186.898 12.4224 189.689 9.8829C192.48 7.34339 194.717 15.062 194.717 15.062C194.717 15.062 194.563 12.2196 196.745 12.3196C198.928 12.4197 203.347 22.3722 203.904 25.2146C204.461 28.057 205.072 33.5985 205.072 33.5985C205.072 33.5985 207.777 34.4612 208.017 36.6951C208.258 38.929 208.22 46.9505 206.849 51.3155C205.951 54.0774 204.687 56.7069 203.092 59.1342C203.092 59.1342 204.361 84.3129 203.752 99.1362L178.776 99.1308Z" fill="#F4B9A4"/>
    <path d="M182.265 39.0654C182.265 39.0654 183.855 42.0187 184.006 42.7814" stroke="#3A1058" stroke-width="0.8" stroke-linecap="round" stroke-linejoin="round"/>
    <path d="M190.665 28.2588C190.665 28.2588 191.476 33.0349 191.42 35.166" stroke="#3A1058" stroke-width="0.8" stroke-linecap="round" stroke-linejoin="round"/>
    <path d="M194.719 15.0635C194.719 15.0635 194.719 19.7341 195.784 22.4738C196.85 25.2134 197.613 31.3985 197.613 31.3985" stroke="#3A1058" stroke-width="0.8" stroke-linecap="round" stroke-linejoin="round"/>
    <path d="M205.075 33.5919C205.075 33.5919 197.002 31.5094 196.166 30.7495C195.331 29.9895 191.882 31.2498 194.719 35.8258C197.613 40.4964 203.501 40.2936 203.501 40.2936" stroke="#3A1058" stroke-width="0.8" stroke-linecap="round" stroke-linejoin="round"/>
    <path d="M199.523 39.5859C199.523 39.5859 193.602 44.5 195.531 51.9616" stroke="#3A1058" stroke-width="0.8" stroke-linecap="round" stroke-linejoin="round"/>
    <path d="M186.595 35.7746C186.595 35.7746 192.079 34.9632 194.708 35.8259" stroke="#3A1058" stroke-width="0.8" stroke-linecap="round" stroke-linejoin="round"/>
    <path d="M183.525 57.5645C183.525 57.5645 185.529 59.1871 186.595 59.2791" stroke="#3A1058" stroke-width="0.8" stroke-linecap="round" stroke-linejoin="round"/>
    <path d="M201.874 60.2933C202.777 59.5388 203.52 58.6109 204.059 57.5645" stroke="#3A1058" stroke-width="0.8" stroke-linecap="round" stroke-linejoin="round"/>
</svg>
