<svg width="284" height="300" viewBox="0 0 284 300" fill="none" xmlns="http://www.w3.org/2000/svg">
    <g clip-path="url(#clip0_11203_17547)">
        <path d="M267.805 191.516H225.41C224.127 191.516 223.087 192.48 223.087 193.668V215.724C223.087 216.913 222.047 217.876 220.764 217.876H180.401C179.135 217.876 178.101 218.817 178.079 219.991L177.736 237.932C177.714 239.106 176.681 240.047 175.414 240.047H132.09C130.817 240.047 129.781 240.996 129.767 242.176L129.479 265.748C129.465 266.928 128.429 267.877 127.156 267.877H83.0047C81.7218 267.877 80.6818 268.841 80.6818 270.03V285.64C80.6818 286.828 79.6418 287.792 78.359 287.792L31.7039 287.794H2.32283C1.03999 287.794 0 288.758 0 289.947V311.555C0 312.745 1.03999 313.708 2.32283 313.708H268.161C269.447 313.708 270.487 312.741 270.484 311.55L270.128 193.661C270.124 192.476 269.085 191.516 267.805 191.516Z" fill="#7CA860"/>
        <path d="M17.8542 192.323C19.9008 192.323 21.5599 190.667 21.5599 188.625C21.5599 186.582 19.9008 184.926 17.8542 184.926C15.8075 184.926 14.1484 186.582 14.1484 188.625C14.1484 190.667 15.8075 192.323 17.8542 192.323Z" fill="#659960"/>
        <path d="M132.157 3.12939C132.157 4.85757 130.753 6.25879 129.022 6.25879C127.291 6.25879 125.887 4.85757 125.887 3.12939C125.887 1.40122 127.291 0 129.022 0C130.753 0 132.157 1.40042 132.157 3.12939Z" fill="white"/>
        <path d="M282.081 163.302C283.34 163.302 284.361 162.283 284.361 161.026C284.361 159.769 283.34 158.75 282.081 158.75C280.822 158.75 279.801 159.769 279.801 161.026C279.801 162.283 280.822 163.302 282.081 163.302Z" fill="#ADD596"/>
        <path d="M130.086 51.6391C130.086 51.6391 130.222 39.099 127.984 36.4174C125.742 33.7293 124.798 36.0815 124.798 36.0815C123.696 34.2873 121.636 35.5122 121.732 36.8377C120.758 34.8124 118.547 35.968 118.699 37.1494C117.945 36.2434 116.266 36.3916 115.803 38.0368C115.343 39.6885 116.555 42.7301 116.555 42.7301C115.356 43.5088 114.215 45.3111 115.156 46.978C116.098 48.6442 120.518 52.5056 120.518 52.5056C120.518 52.5056 118.354 74.9203 118.107 89.1008C117.984 96.1641 121.382 101.912 124.943 102.426C138.284 104.351 130.086 51.6391 130.086 51.6391Z" fill="#C7CCF5"/>
        <path d="M110.816 92.6354L119.545 86.7156C123.297 84.1202 125.004 85.7356 128.139 89.0486C131.883 93.0074 131.393 99.3258 127.082 102.661L120.075 108.083L110.816 92.6354Z" fill="#C7CCF5"/>
        <path d="M102.273 233.385L98.2422 242.285L112.787 250.045L117.975 236.127C117.975 236.127 108.636 230.664 102.273 233.385Z" fill="#C7CCF5"/>
        <path d="M99.1024 239.363C98.6054 239.078 98.0011 239.206 97.7308 239.647C94.8875 244.29 90.158 250.056 92.9883 251.681C95.4507 253.095 120.183 267.297 121.275 267.924C122.366 268.551 123.932 265.144 121.356 262.682C118.94 260.372 114.694 251.675 114.476 248.706C114.451 248.369 114.249 248.06 113.933 247.879L99.1024 239.363Z" fill="white"/>
        <path d="M69.6377 146.531C68.9721 146.834 63.1469 156.817 66.3975 167.585C67.5101 171.268 71.6386 178.499 78.1908 180.269C91.2193 183.788 99.6723 186.357 107.476 189.103C109.566 189.839 109.294 191.035 108.993 192.499L97.2535 233.698C96.8856 234.396 97.3269 234.984 98.976 235.681L116.789 244.197C117.727 244.646 118.869 244.235 119.263 243.274C119.266 243.266 120.269 240.413 120.272 240.405C125.725 226.973 140.81 182.427 134.84 173.133C130.423 166.255 88.1155 153.524 82.9494 151.735C82.5218 151.587 88.3583 146.95 87.9468 147.138L69.6377 146.531Z" fill="#4A15A8"/>
        <path d="M117.234 239.615L101.637 233.023" stroke="#ECE7FD" stroke-width="0.5" stroke-miterlimit="10" stroke-linecap="round" stroke-linejoin="round"/>
        <path d="M101.867 181.305L113.557 186.666C114.765 187.22 115.385 188.573 115.015 189.847L105.223 223.533" stroke="#ECE7FD" stroke-width="0.5" stroke-miterlimit="10" stroke-linecap="round" stroke-linejoin="round"/>
        <path d="M21.4098 248.404L15.0859 255.857L26.9373 267.305L35.755 255.342C35.755 255.342 28.2766 247.532 21.4098 248.404Z" fill="#C7CCF5"/>
        <path d="M16.0719 253.925C15.6725 253.514 15.0561 253.472 14.6745 253.823C10.6638 257.509 4.52954 261.757 6.80396 264.094C8.78309 266.129 28.6582 286.563 29.5353 287.465C30.4123 288.367 32.8553 285.519 31.0553 282.446C29.3666 279.563 27.6772 270.037 28.2839 267.121C28.3533 266.79 28.2427 266.439 27.9886 266.178L16.0719 253.925Z" fill="white"/>
        <path d="M83.7393 162.075C84.0895 162.393 83.4295 167.777 83.4473 168.249C83.6699 174.181 75.6873 209.896 74.9555 214.439C74.2511 218.811 39.9049 254.306 35.5198 263.111C35.064 264.026 33.9272 264.359 33.0469 263.837L16.3773 249.125C15.6019 248.666 15.3002 247.696 15.6778 246.879L49.715 206.73C49.7803 206.588 49.8263 206.439 49.8521 206.286L54.1759 161.2C54.8262 152.317 60.2924 146.119 61.3227 147.054L83.7393 162.075Z" fill="#4A15A8"/>
        <path d="M27.6992 240.212L54.0991 210.764C54.6808 210.114 55.0415 209.298 55.1302 208.431L57.512 185.066" stroke="#ECE7FD" stroke-width="0.5" stroke-miterlimit="10" stroke-linecap="round" stroke-linejoin="round"/>
        <path d="M34.4202 259.106L22.5664 248.863" stroke="#ECE7FD" stroke-width="0.5" stroke-miterlimit="10" stroke-linecap="round" stroke-linejoin="round"/>
        <path d="M142.376 203.365L137.633 211.908L151.497 220.824L157.802 207.372C157.802 207.372 148.939 201.17 142.376 203.365Z" fill="#C7CCF5"/>
        <path d="M138.216 209.825C137.744 209.501 137.131 209.58 136.826 209.998C133.614 214.395 128.43 219.757 131.119 221.607C133.458 223.216 156.951 239.38 157.987 240.092C159.024 240.806 160.863 237.537 158.496 234.874C156.275 232.376 152.753 223.363 152.777 220.386C152.779 220.047 152.603 219.724 152.303 219.518L138.216 209.825Z" fill="#4A15A8"/>
        <path d="M203.704 108.771C204.109 109.015 204.517 114.424 204.627 114.883C206.006 120.658 188.063 155.015 188.234 159.613C188.4 164.038 161.665 205.548 159.089 215.039C158.821 216.024 157.771 216.572 156.806 216.232L137.577 205.055C136.727 204.756 136.241 203.864 136.451 202.99L161.972 156.976C162.008 156.824 162.024 156.669 162.019 156.514L174.54 113.68C173.438 104.841 177.586 97.6969 178.779 98.4128L203.704 108.771Z" fill="#13BF89"/>
        <path d="M146.93 194.104L167.738 158.92L171.913 137.047" stroke="#4A15A8" stroke-width="0.5" stroke-miterlimit="10" stroke-linecap="round" stroke-linejoin="round"/>
        <path d="M157.228 211.326L143.598 203.594" stroke="#4A15A8" stroke-width="0.5" stroke-miterlimit="10" stroke-linecap="round" stroke-linejoin="round"/>
        <path d="M227.314 169.647L227.277 179.414L243.729 180.567L242.769 165.747C242.769 165.747 232.009 164.57 227.314 169.647Z" fill="#C7CCF5"/>
        <path d="M226.894 177.254C226.321 177.251 225.858 177.66 225.842 178.177C225.664 183.616 224.399 190.959 227.664 190.979C230.505 190.997 259.038 191.174 260.298 191.181C261.557 191.189 261.235 187.454 257.778 186.581C254.535 185.762 246.543 180.287 244.886 177.811C244.697 177.529 244.369 177.362 244.005 177.359L226.894 177.254Z" fill="#4A15A8"/>
        <path d="M175.517 96.0334C174.825 96.2669 168.65 100.012 170.787 111.054C171.518 114.831 174.89 122.443 181.228 124.869C193.832 129.691 214.58 124.508 222.688 122.835C224.858 122.388 224.923 125.457 224.88 126.939L222.402 172.075C222.681 173.15 223.573 173.324 224.876 173.214L247.133 172.854C247.886 172.489 248.01 171.67 248.067 170.835C248.808 159.819 250.229 100.591 243.903 95.6259C237.469 90.5767 193.825 99.2683 188.868 96.9651C188.458 96.7743 194.736 92.7534 194.308 92.8984L175.517 96.0334Z" fill="#13BF89"/>
        <path d="M208.328 122.57C214.825 121.058 221.799 118.265 224.956 117.883C226.391 117.71 227.711 118.672 227.98 120.09C229.755 129.472 226.678 163.446 226.678 163.446" stroke="#4A15A8" stroke-width="0.5" stroke-miterlimit="10" stroke-linecap="round" stroke-linejoin="round"/>
        <path d="M244.754 169.645L228.469 169.935" stroke="#4A15A8" stroke-width="0.5" stroke-miterlimit="10" stroke-linecap="round" stroke-linejoin="round"/>
        <path d="M170.785 111.055C171.516 114.832 173.749 121.861 181.226 124.87C190.568 128.628 196.427 127.069 199.894 127.039" stroke="#4A15A8" stroke-width="0.5" stroke-miterlimit="10" stroke-linecap="round" stroke-linejoin="round"/>
        <path d="M211.417 76.1351C210.683 77.877 210.959 86.4156 210.591 88.5907C210.507 89.0739 210.462 89.5128 210.475 89.8929C210.529 91.791 210.863 93.5634 211.087 94.558C211.185 94.9969 210.878 95.4148 210.429 95.4527C207.825 95.6717 199.871 96.4706 194.319 98.4331C187.815 100.731 180.634 104.664 170.742 107.385C170.235 107.524 169.739 107.109 169.796 106.588C169.971 105.007 170.441 102.045 171.605 100.199C171.605 100.199 176.026 92.4408 176.681 90.8174C179.434 83.9385 178.683 78.1492 177.977 75.66C177.815 75.0867 177.074 74.9353 176.692 75.3927C175.925 76.3115 174.652 77.8359 173.061 79.7421C165.091 89.2776 149.071 108.415 147.969 109.59C146.485 111.162 144.081 111.882 143.162 111.336C142.602 111.005 134.509 102.708 134.594 102.363C134.779 101.681 134.012 99.9897 135.41 98.3606C136.657 96.9199 160.29 67.297 168.451 56.816C169.508 55.4551 170.313 54.4202 170.765 53.8066C174.715 48.4884 177.129 45.8543 183.103 44.0085C183.16 44.0005 183.219 43.9924 183.277 43.9844L206.223 44.4764C211.249 44.5843 211.127 47.1548 212.38 53.5997C212.978 56.6743 215.202 58.8293 215.505 64.3488C215.753 68.8939 211.535 75.8533 211.417 76.1351Z" fill="#A1D45A"/>
        <path d="M143.512 110.301C140.718 112.875 133.374 119.544 133.374 119.544L122.703 113.875C122.703 113.875 131.873 105.604 135.457 102.269C135.887 101.868 136.532 101.83 137.021 102.158C139.485 103.809 141.951 106.228 143.676 108.653C144.043 109.169 143.979 109.872 143.512 110.301Z" fill="#848DDA"/>
        <path d="M186.598 63.2891C186.598 63.2891 185.847 64.2675 184.622 65.8209C182.911 67.9622 180.301 71.1923 177.5 74.4264" stroke="#13BF89" stroke-width="0.5" stroke-miterlimit="10" stroke-linecap="round" stroke-linejoin="round"/>
        <path d="M124.38 105.862L103.951 123.309L89.9527 154.127C89.9527 154.127 78.9073 154.341 72.6085 159.412C66.3032 164.483 56.907 167.031 53.2263 167.168C53.2263 167.168 52.0556 156.527 53.5627 144.49C55.0771 132.458 59.396 114.003 59.396 114.003C59.3081 113.44 59.2451 112.876 59.1951 112.323C58.377 102.863 62.9807 95.0844 71.1893 95.1279C79.8779 95.1835 88.911 97.9054 88.911 97.9054C88.911 97.9054 88.8804 98.0866 96.4153 97.1411C96.4153 97.1411 113.267 88.1178 113.569 88.8071C115.388 92.9576 119.707 100.48 124.38 105.862Z" fill="white"/>
        <path d="M137.214 118.469C137.244 120.891 132.909 120.522 132.909 120.522C134.111 122.383 131.025 123.802 129.449 123.976C127.881 124.158 126.337 123.636 126.337 123.636C126.337 123.636 111.697 138.138 106.224 143.59C100.751 149.043 90.5273 157.601 83.2675 157.027C76.0078 156.454 73.6058 149.249 69.9453 141.111C71.1386 140.963 72.8079 140.636 74.9355 139.92C79.1277 138.504 85.9131 134.849 87.4525 134.012C87.7082 134.942 87.9712 135.904 88.2359 136.884C100.742 128.917 114.988 121.185 116.136 119.968C117.284 118.757 121.757 112.116 123.178 110.405C124.605 108.693 127.536 110.045 126.432 111.018C125.335 111.997 124.829 112.911 129.612 115.508C135.627 118.785 137.176 115.562 137.214 118.469Z" fill="#C7CCF5"/>
        <path d="M59.2539 113.893C59.2539 113.893 65.7359 137.251 67.7021 141.182C67.7021 141.182 68.4557 141.288 69.9418 141.111C71.1351 140.963 72.8044 140.636 74.932 139.92C77.2225 139.145 80.282 137.708 82.838 136.42C84.972 135.353 86.747 134.395 87.4482 134.013C86.2516 129.67 85.1544 125.857 84.1079 122.623C81.7214 115.219 79.5922 110.889 77.1136 110.336" stroke="#8EAADB" stroke-width="0.5" stroke-miterlimit="10" stroke-linecap="round" stroke-linejoin="round"/>
        <path d="M88.2351 136.883C84.61 139.473 84.1211 141.454 84.1211 141.454" stroke="#4A15A8" stroke-width="0.5" stroke-miterlimit="10" stroke-linecap="round" stroke-linejoin="round"/>
        <path d="M132.908 120.522C130.121 120.43 128.824 120.297 128.824 120.297" stroke="#4A15A8" stroke-width="0.5" stroke-miterlimit="10" stroke-linecap="round" stroke-linejoin="round"/>
        <path d="M126.332 123.634C126.332 123.634 127.88 124.158 129.45 123.98C131.02 123.802 134.106 122.385 132.905 120.524C132.905 120.524 137.242 120.89 137.211 118.469C137.174 115.561 135.623 118.785 129.606 115.511C124.828 112.911 125.331 111.996 126.432 111.021C127.532 110.046 124.602 108.692 123.178 110.406C122.447 111.284 121.094 114.121 119.52 115.586" stroke="#4A15A8" stroke-width="0.5" stroke-miterlimit="10" stroke-linecap="round" stroke-linejoin="round"/>
        <path d="M119.488 113.565C121.021 111.527 122.01 113.443 121.582 115.363C121.153 117.283 118.652 118.366 118.229 117.21C117.804 116.054 118.627 114.709 119.488 113.565Z" fill="#848DDA"/>
        <path d="M123 125.96C121.175 125.172 119.984 126.585 121.551 128.089C123.119 129.593 125.799 128.746 126.222 127.107L123 125.96Z" fill="#848DDA"/>
        <path d="M123 125.96C121.175 125.172 119.984 126.585 121.551 128.089C123.119 129.593 125.799 128.746 126.222 127.107L123 125.96Z" stroke="#4A15A8" stroke-width="0.5" stroke-miterlimit="10" stroke-linecap="round" stroke-linejoin="round"/>
        <path d="M125.189 124.114C123.313 123.87 121.785 124.573 122.459 126.019C123.132 127.464 127.47 128.898 129.118 125.655L125.189 124.114Z" fill="#848DDA"/>
        <path d="M125.189 124.114C123.313 123.87 121.785 124.573 122.459 126.019C123.132 127.464 127.47 128.898 129.118 125.655L125.189 124.114Z" stroke="#4A15A8" stroke-width="0.5" stroke-miterlimit="10" stroke-linecap="round" stroke-linejoin="round"/>
        <path d="M119.488 113.565C121.021 111.527 122.01 113.443 121.582 115.363C121.153 117.283 118.652 118.366 118.229 117.21C117.804 116.054 118.627 114.709 119.488 113.565Z" stroke="#4A15A8" stroke-width="0.5" stroke-miterlimit="10" stroke-linecap="round" stroke-linejoin="round"/>
        <path d="M125.145 124.81C123.835 123.63 124.468 121.794 126.182 122.13C127.896 122.467 128.294 123.449 131.21 123.464C133.152 123.473 128.687 127.999 125.145 124.81Z" fill="#848DDA"/>
        <path d="M125.145 124.81C123.835 123.63 124.468 121.794 126.182 122.13C127.896 122.467 128.294 123.449 131.21 123.464C133.152 123.473 128.687 127.999 125.145 124.81Z" stroke="#4A15A8" stroke-width="0.5" stroke-miterlimit="10" stroke-linecap="round" stroke-linejoin="round"/>
        <path d="M82.0742 181.364L84.9796 167.027" stroke="#ECE7FD" stroke-width="0.5" stroke-miterlimit="10" stroke-linecap="round" stroke-linejoin="round"/>
        <path d="M227.385 60.9124C227.385 60.9124 228.719 61.882 228.178 63.1696C227.64 64.4654 219.723 75.8644 214.736 80.8733C214.518 81.1004 214.277 81.3106 214.034 81.528C213.858 81.6843 213.675 81.8381 213.489 81.983C213.102 82.289 212.702 82.5757 212.287 82.8423C212.093 82.9695 211.902 83.0911 211.706 83.2039C211.493 83.3238 211.277 83.4503 211.054 83.5598C210.843 83.6734 210.629 83.7788 210.414 83.8843C209.964 84.0937 209.499 84.2838 209.03 84.4489C208.795 84.5318 208.562 84.6083 208.324 84.6824C207.163 85.044 205.946 85.2686 204.73 85.3419C204.715 85.3435 204.694 85.3427 204.678 85.3435C204.427 85.3556 204.179 85.3605 203.934 85.3596C203.688 85.3588 203.442 85.358 203.195 85.3419L203.188 85.3395C199.265 82.5475 198.937 79.1468 200.043 75.9884C201.884 70.7274 207.734 66.1452 207.734 66.1452C207.734 66.1452 207.739 66.1323 207.759 66.1186C208.195 65.6073 216.33 55.6304 217.334 55.1134C218.372 54.5819 219.525 55.6473 219.525 55.6473" fill="#A1D45A"/>
        <path d="M231.476 55.3918L227.076 61.5716C226.741 62.0266 226.157 62.2151 225.615 62.0524C224.755 61.7939 223.775 61.3864 222.705 60.7526C221.495 60.0359 220.325 58.8554 219.5 57.7159C219.158 57.2432 219.191 56.5957 219.556 56.1407L225.151 49.0887C225.151 49.0887 224.858 45.1435 225.3 43.5716C225.742 41.9988 227.522 41.601 228.717 41.8555C228.717 41.8555 229.83 39.2906 231.108 38.5723C232.383 37.8596 233.485 38.7841 233.391 39.7851C234.015 38.9814 236.048 39.6184 235.408 41.4279C236.153 40.571 238.137 41.076 237.715 42.8227C237.715 42.8227 239.709 41.9747 239.432 44.9478C239.156 47.9146 231.476 55.3918 231.476 55.3918Z" fill="#848DDA"/>
        <path d="M225.061 47.2599C225.031 46.0116 225.052 44.4341 225.295 43.5716C225.737 41.9988 227.517 41.601 228.712 41.8555C228.712 41.8555 229.825 39.2906 231.103 38.5723C232.378 37.8596 233.48 38.7841 233.386 39.7851C234.011 38.9814 236.043 39.6184 235.403 41.4279C236.148 40.571 238.132 41.076 237.71 42.8227C237.71 42.8227 239.704 41.9747 239.427 44.9478" stroke="#4A15A8" stroke-width="0.5" stroke-miterlimit="10" stroke-linecap="round" stroke-linejoin="round"/>
        <path d="M229.772 49.3062C232.18 46.1011 229.317 44.538 229.317 44.538C229.317 44.538 232.057 44.4994 232.258 43.7996C232.458 43.0998 230.835 42.2623 228.715 41.8516" stroke="#4A15A8" stroke-width="0.5" stroke-miterlimit="10" stroke-linecap="round" stroke-linejoin="round"/>
        <path d="M233.391 39.6367C233.391 39.6367 231.872 42.2974 231.438 42.7629" stroke="#4A15A8" stroke-width="0.5" stroke-miterlimit="10" stroke-linecap="round" stroke-linejoin="round"/>
        <path d="M232.352 43.8487C233.033 44.3504 234.059 43.8551 235.533 41.1992" stroke="#4A15A8" stroke-width="0.5" stroke-miterlimit="10" stroke-linecap="round" stroke-linejoin="round"/>
        <path d="M233.434 43.8516C233.223 44.706 233.905 45.384 234.495 45.5838" stroke="#4A15A8" stroke-width="0.5" stroke-miterlimit="10" stroke-linecap="round" stroke-linejoin="round"/>
        <path d="M237.71 42.8203C236.872 43.0547 234.108 45.382 234.699 46.445C235.387 47.6811 237.01 45.8925 237.01 45.8925" stroke="#4A15A8" stroke-width="0.5" stroke-miterlimit="10" stroke-linecap="round" stroke-linejoin="round"/>
        <path d="M100.243 75.9446C100.14 75.6225 100.799 73.8025 100.453 73.6841L85.2641 91.1639L84.9034 91.0166L82.8396 89.9882C79.8907 90.9634 74.0719 86.9893 75.2119 84.8882C74.8327 85.2281 71.7668 83.2704 73.0642 80.8972C70.0927 79.2536 70.3436 73.6728 73.3869 72.485C69.8353 68.0374 75.9017 62.0338 79.179 64.6511C78.0503 62.9849 80.6846 58.9487 84.6243 60.4957C86.4323 55.9836 93.2233 56.5159 93.964 58.7861C99.8013 56.8856 103.182 63.0952 101.118 65.4886C103.202 65.2124 106.291 68.2387 104.389 71.7385C105.765 76.2353 102.058 81.655 100.243 75.9446Z" fill="#322D52"/>
        <path d="M97.1421 99.2194C97.1421 99.2194 96.1997 105.184 92.3028 105.845C85.9418 106.924 80.2134 97.4348 80.2134 97.4348C80.8008 89.1886 80.1093 83.3679 80.1093 83.3679C78.9871 78.1745 89.6814 71.3834 94.027 86.6221L94.528 88.6555L96.2869 95.7703L97.1421 99.2194Z" fill="#C7CCF5"/>
        <path d="M96.3433 96.0151C92.2285 96.5812 87.0019 94.5156 84.1055 89.4551L94.5296 88.6562L96.3433 96.0151Z" fill="#4A15A8"/>
        <path d="M94.3579 94.6494C88.8054 95.0255 82.8333 90.4587 80.0239 82.8832C76.8903 74.4324 79.8723 70.8778 80.997 67.812C82.1217 64.7455 83.1439 62.9907 92.2723 62.5124C100.233 62.0952 101.183 64.4717 102.38 78.3333C102.483 79.5227 102.909 84.9681 102.21 87.475C100.973 91.9155 98.471 94.3708 94.3579 94.6494Z" fill="#C7CCF5"/>
        <path d="M82.0459 80.7611C82.0451 77.7437 77.811 75.0813 76.1739 78.9379C74.7571 82.2767 78.1781 83.8366 81.1504 83.723L82.0459 80.7611Z" fill="#C7CCF5"/>
        <path d="M84.51 67.6367C84.51 67.6367 86.8958 79.0228 79.991 77.376C76.8396 76.6239 75.5664 74.5768 75.5664 74.5768L84.51 67.6367Z" fill="#322D52"/>
        <path d="M102.51 72.2277C102.51 72.2277 94.8944 60.1651 83.5457 76.2591L77.0977 73.8995L77.7818 65.973L88.0244 61.8643L94.37 61.8555L98.5251 62.5198L99.0754 62.912C100.941 64.2432 100.405 66.0889 102.471 68.5556L102.51 72.2277Z" fill="#322D52"/>
        <path d="M91.2327 77.772C91.5417 77.6487 91.8967 77.9193 92.025 78.3751C92.154 78.8317 92.0072 79.3012 91.6982 79.4244C91.3892 79.5476 91.0342 79.2771 90.9059 78.8213C90.7776 78.3646 90.9237 77.8952 91.2327 77.772Z" fill="black"/>
        <path d="M92.4899 76.6121C92.4261 76.8907 91.5378 76.8013 90.5664 76.8851C89.574 77.0614 88.7317 77.3361 88.6131 77.0985C88.5026 77.0131 88.6986 76.7273 89.0141 76.4808C89.3304 76.2344 89.8588 76.0073 90.4462 75.8986C91.0739 75.8036 91.6484 75.9405 91.9598 76.0911C92.3414 76.3141 92.5213 76.4728 92.4899 76.6121Z" fill="#2C2E38"/>
        <path d="M95.7305 79.4219C95.7305 79.4219 97.9742 82.4176 97.8645 82.9362C97.8443 83.2108 97.24 83.4468 96.7672 83.574" stroke="black" stroke-width="0.5" stroke-miterlimit="10" stroke-linecap="round"/>
        <path d="M99.7323 76.992C99.412 76.9027 99.0885 77.2095 99.0094 77.6766C98.9311 78.1436 99.1272 78.5954 99.4475 78.684C99.7678 78.7734 100.092 78.4665 100.17 77.9987C100.249 77.5324 100.053 77.0814 99.7323 76.992Z" fill="black"/>
        <path d="M96.7448 76.0637C96.8521 76.327 97.7137 76.0846 98.6843 75.9977C99.6912 75.9985 100.565 76.1233 100.644 75.868C100.739 75.7641 100.501 75.5169 100.151 75.3284C99.801 75.1408 99.2435 75.0079 98.6472 75.0039C98.0131 75.0192 97.4685 75.2544 97.1845 75.4581C96.844 75.7448 96.6915 75.9324 96.7448 76.0637Z" fill="#2C2E38"/>
        <path d="M97.1926 86.2011C96.0179 86.3405 95.0328 85.9885 94.4946 85.7308C94.297 85.6358 94.0751 85.7985 94.1041 86.0159C94.2034 86.7479 94.3583 87.7248 95.3603 88.0356C96.3761 88.3513 96.9925 87.36 97.4613 86.6167C97.5839 86.421 97.4226 86.1738 97.1926 86.2011Z" fill="white"/>
        <path d="M102.244 70.3211C102.244 70.3211 102.501 72.6291 100.651 71.3986C98.8005 70.1673 99.3145 68.6799 99.3145 68.6799C99.3145 68.6799 98.5649 71.1352 96.1388 71.5806C93.1149 72.1346 91.757 70.3485 91.757 70.3485C91.757 70.3485 91.3867 73.3667 87.5971 74.5272C85.6284 75.1303 82.8086 74.9065 82.8086 74.9065L82.8175 71.6547L89.1897 66.3711L99.2112 66.8325L102.244 70.3211Z" fill="#322D52"/>
        <path d="M193.022 9.9844C193.022 9.9844 189.066 7.06761 184.864 10.1036C180.662 13.1396 181.676 17.4407 181.429 21.009C180.729 31.1259 177.25 37.0038 176.264 40.6945C175.979 41.7607 177.089 42.6659 178.091 42.1964L184.771 39.0581C185.501 38.7159 186.075 38.1135 186.382 37.3694L186.664 36.6889C187.573 34.273 188.122 36.1003 188.185 36.9297C188.222 37.4137 188.683 37.7503 189.156 37.6384L189.636 37.5256C190.345 37.3581 190.876 36.7719 190.972 36.0511C191.321 33.4154 192.105 27.0729 192.059 23.5996C192.001 19.1399 193.488 10.6077 193.488 10.6077L193.022 9.9844Z" fill="#362C37"/>
        <path d="M190.184 11.7041C193.179 8.19456 197.147 6.21916 201.766 6.23446C204.372 6.24332 205.439 6.80462 207.305 7.34739C209.171 7.89016 210.844 8.92819 211.93 10.5356C213.222 12.4449 214.297 14.5758 214.503 16.8709C214.714 19.228 214.925 21.6012 214.7 23.9567C214.475 26.313 213.786 28.6757 212.356 30.5634L206.32 31.487C202.996 31.5337 199.234 38.3627 196.014 37.5421C192.792 36.7215 189.852 29.4086 188.175 26.5433C185.845 22.5635 187.189 15.2135 190.184 11.7041Z" fill="#362C37"/>
        <path d="M208.005 42.886C208.005 42.886 207.193 48.5376 203.517 49.2116C197.518 50.3149 191.979 44.0609 191.979 44.0609C192.427 36.2576 191.697 28.1209 191.697 28.1209C190.569 23.2262 200.59 16.6671 204.897 31.0167L205.397 32.9325L206.306 43.5488L208.005 42.886Z" fill="#848DDA"/>
        <path d="M205.979 39.8881C202.096 40.4768 197.866 38.5682 195.062 33.8218L205.462 33.0664L205.979 39.8881Z" fill="#4A15A8"/>
        <path d="M204.829 38.601C199.584 39.0286 194.673 36.3929 192.551 30.9273C189.469 22.983 193.081 21.1526 195.144 18.8526C197.971 15.7007 201.709 12.9941 204.938 12.8218C208.821 12.614 210.827 12.2822 212.2 23.0724C212.343 24.1926 212.786 29.3376 212.158 31.7173C211.047 35.9314 208.714 38.2845 204.829 38.601Z" fill="#848DDA"/>
        <path d="M193.005 25.6298C192.965 22.7766 188.927 20.3148 187.43 23.9821C186.134 27.1566 189.389 28.5868 192.197 28.4411L193.005 25.6298Z" fill="#848DDA"/>
        <path d="M201.653 22.6866C201.943 22.5658 202.282 22.817 202.41 23.2462C202.537 23.6763 202.406 24.1216 202.114 24.2424C201.824 24.3624 201.485 24.1119 201.357 23.6827C201.23 23.2527 201.362 22.8073 201.653 22.6866Z" fill="black"/>
        <path d="M202.821 21.5714C202.764 21.8356 201.923 21.7631 201.006 21.8541C200.071 22.0337 199.278 22.3042 199.163 22.0812C199.058 22.0014 199.239 21.7293 199.534 21.4917C199.83 21.2549 200.326 21.0327 200.88 20.9223C201.472 20.8241 202.017 20.9457 202.313 21.085C202.677 21.2928 202.849 21.4393 202.821 21.5714Z" fill="#2C2E38"/>
        <path d="M205.918 24.1836C205.918 24.1836 208.079 26.9868 207.981 27.4781C207.966 27.7382 207.398 27.9693 206.951 28.0949" stroke="black" stroke-width="0.5" stroke-miterlimit="10" stroke-linecap="round"/>
        <path d="M209.673 21.8373C209.369 21.7575 209.067 22.0515 208.998 22.4944C208.93 22.9373 209.121 23.3609 209.425 23.4414C209.729 23.5211 210.031 23.2272 210.1 22.7843C210.168 22.3414 209.977 21.9178 209.673 21.8373Z" fill="black"/>
        <path d="M206.843 20.9995C206.948 21.2475 207.759 21.0067 208.676 20.9117C209.627 20.8996 210.455 21.0059 210.527 20.7635C210.615 20.6645 210.387 20.4334 210.053 20.2602C209.719 20.0871 209.191 19.9695 208.627 19.9727C208.028 19.9953 207.516 20.2248 207.251 20.4205C206.932 20.6967 206.79 20.8755 206.843 20.9995Z" fill="#2C2E38"/>
        <path d="M190.319 21.4209L192.141 23.1306C204.265 18.8585 208.179 10.522 207.526 11.0616C207.526 11.0616 204.768 9.03703 201.283 8.82524C197.797 8.61345 191.036 8.81799 190.136 12.8678C189.234 16.9177 190.319 21.4209 190.319 21.4209Z" fill="#362C37"/>
        <path d="M203.574 10.5859C203.574 10.5859 208.101 17.2965 213.375 19.2381C213.375 19.2381 213.554 11.5354 203.574 10.5859Z" fill="#362C37"/>
        <path d="M206.792 51.7773L191.297 50.8109C190.686 50.8109 190.205 50.2907 190.253 49.6827L190.804 42.7748C190.848 42.2313 191.302 41.8125 191.848 41.8125H206.868C207.41 41.8125 207.863 42.2256 207.911 42.7652L208.531 49.673C208.586 50.2834 207.408 51.7773 206.792 51.7773Z" fill="#A1D45A"/>
        <path d="M212.377 53.6016C212.974 56.6762 215.199 58.8312 215.501 64.3507C215.75 68.895 211.533 75.8544 211.414 76.1363" stroke="#13BF89" stroke-width="0.5" stroke-miterlimit="10" stroke-linecap="round" stroke-linejoin="round"/>
        <path d="M204.566 30.3203C204.566 30.3203 205.413 32.559 207.708 31.0499" stroke="black" stroke-width="0.5" stroke-miterlimit="10" stroke-linecap="round"/>
        <path d="M123.617 48.0198C122.945 43.3764 119.278 44.4539 119.278 44.4539C119.278 44.4539 121.512 42.1532 121.096 41.4091C120.679 40.6642 118.642 41.3148 116.547 42.7314" stroke="#4A15A8" stroke-width="0.5" stroke-miterlimit="10" stroke-linecap="round" stroke-linejoin="round"/>
        <path d="M118.578 37.0273C118.578 37.0273 119.533 40.4837 119.561 41.2294" stroke="#4A15A8" stroke-width="0.5" stroke-miterlimit="10" stroke-linecap="round" stroke-linejoin="round"/>
        <path d="M121.219 41.3675C122.199 41.2177 122.636 39.9599 121.647 36.543" stroke="#4A15A8" stroke-width="0.5" stroke-miterlimit="10" stroke-linecap="round" stroke-linejoin="round"/>
        <path d="M122.109 40.4766C122.645 41.3568 123.773 41.3543 124.426 41.0306" stroke="#4A15A8" stroke-width="0.5" stroke-miterlimit="10" stroke-linecap="round" stroke-linejoin="round"/>
        <path d="M124.793 36.082C124.296 36.9695 123.943 41.182 125.315 41.5718C126.91 42.0243 126.767 39.2018 126.767 39.2018" stroke="#4A15A8" stroke-width="0.5" stroke-miterlimit="10" stroke-linecap="round" stroke-linejoin="round"/>
        <path d="M103.949 123.31C103.949 123.31 104.575 116.06 104.3 114.961" stroke="#8EAADB" stroke-width="0.5" stroke-miterlimit="10" stroke-linecap="round" stroke-linejoin="round"/>
    </g>
    <defs>
        <clipPath id="clip0_11203_17547">
            <rect width="284" height="300" fill="white"/>
        </clipPath>
    </defs>
</svg>
