<svg width="100" height="100" viewBox="0 0 100 100" fill="none" xmlns="http://www.w3.org/2000/svg">
    <g clip-path="url(#clip0_17036_511660)">
        <path d="M69.5778 47.7145V50.7237L72.1326 49.1945L69.5778 47.7145Z" fill="#FFB63C"/>
        <path d="M57.6394 29.197C58.0145 28.9771 58.5331 29.0092 59.1073 29.3406L86.0375 44.9006C87.1801 45.5573 88.1001 47.1579 88.0973 48.4687L88.0094 79.4332C88.0064 80.0871 87.778 80.5444 87.4047 80.7615L91.3075 78.491C91.6796 78.2769 91.9122 77.8161 91.9122 77.1657L92.0001 46.2012C92.0059 44.8875 91.0829 43.2897 89.9431 42.63L63.0101 27.07C62.4359 26.7387 61.9171 26.7093 61.5422 26.9264L57.6394 29.197Z" fill="#804F59"/>
        <path d="M91.9987 46.2035L91.9152 77.1703C91.9152 77.8166 91.6754 78.2755 91.3105 78.4944L87.4036 80.7673C87.7787 80.5483 88.0082 80.0897 88.0082 79.4327L88.1012 48.4661C88.1012 47.163 87.184 45.5573 86.0382 44.9003L89.9452 42.6272C91.0817 43.2946 92.0089 44.8887 91.9987 46.2035Z" fill="#613941"/>
        <path d="M56.948 61.4896C56.945 62.8002 57.865 64.3985 59.0078 65.0577L85.938 80.6177C87.0775 81.2775 88.0078 80.7469 88.0096 79.4332L88.0975 48.4687C88.1003 47.1581 87.1803 45.5573 86.0378 44.9006L59.1075 29.3406C57.968 28.6809 57.0378 29.2117 57.0361 30.5251L56.948 61.4896Z" fill="#FFB63C"/>
        <path d="M60.5963 62.315C60.3972 62.1614 60.1544 61.7472 60.1149 61.4984L60.1937 33.6285L84.4544 47.6463C84.6512 47.7999 84.8907 48.2118 84.9256 48.4071L84.9302 48.4331L84.8514 76.3293L60.5963 62.315ZM83.5302 48.4787L61.377 35.6797L61.2991 61.1073C61.3223 61.1922 61.476 61.4456 61.5177 61.4808L83.6679 74.2775L83.7404 48.8329C83.7051 48.7364 83.5677 48.5113 83.5302 48.4787Z" fill="#804F59"/>
        <path d="M65.7168 59.7592L78.5056 67.1428C81.6305 64.0296 81.6451 57.3625 78.5468 50.6539L65.7719 43.2565C62.6468 46.3834 62.6193 53.0508 65.7168 59.7592Z" fill="#804F59"/>
        <path d="M69.5721 47.7115L74.4391 50.5233L74.4321 53.536L69.5721 50.7283V47.7115Z" fill="#FFDE9B"/>
        <path d="M69.5721 56.9368L74.4391 59.7487L74.4321 62.7613L69.5721 59.9535V56.9368Z" fill="#FFDE9B"/>
        <path d="M73.5 49.9813C71.8264 50.94 69.3155 52.3835 65.5495 54.5737C65.3444 54.6942 65.0188 54.6942 64.8207 54.5737L63.3616 53.7234C63.2556 53.6666 63.2061 53.5886 63.2061 53.5109V52.9373C63.2061 53.0071 63.2556 53.086 63.3547 53.1497L64.8198 53.9994C65.0179 54.1127 65.3435 54.1127 65.5486 53.9994L73 49.6906L73.5 49.9813Z" fill="#C9CEE2"/>
        <path d="M70.801 48.4243L63.3547 52.7255C63.1493 52.8388 63.1565 53.0299 63.3547 53.1504L64.8198 54C65.0179 54.1134 65.3435 54.1134 65.5486 54L73 49.6913L70.801 48.4243Z" fill="#F3F1FC"/>
        <path d="M74.438 60.7284C72.815 61.6567 70.0976 63.2127 65.5496 65.8576C65.3445 65.9781 65.0189 65.9781 64.8208 65.8576L63.3629 65.008C63.2568 64.9512 63.2073 64.8735 63.2073 64.7955V64.2219C63.2073 64.2917 63.2568 64.3706 63.3559 64.4343L64.821 65.2842C65.0191 65.3973 65.3447 65.3973 65.5498 65.2842L74.438 60.1444V60.7284Z" fill="#C9CEE2"/>
        <path d="M72.5813 58.6793L63.3547 64.0092C63.1493 64.1225 63.1565 64.3138 63.3547 64.4341L64.8198 65.284C65.0179 65.3971 65.3435 65.3971 65.5486 65.284L74.4515 60.1357C74.4515 60.0056 74.4515 59.7305 74.4515 59.7305L72.5813 58.6793Z" fill="#F3F1FC"/>
        <path d="M65.9636 70.3892L62.9711 68.6487L62.9634 65.9472L65.9559 67.6876L65.9636 70.3892Z" fill="#3D4449"/>
        <path d="M65.9468 64.4664L62.9543 62.7262L62.9233 51.7953L65.9159 53.5356L65.9468 64.4664Z" fill="#3D4449"/>
        <path d="M55.9747 66.9337L52.9819 65.1935L62.9543 62.7263L65.9468 64.4665L55.9747 66.9337Z" fill="#4F575F"/>
        <path d="M65.9068 50.3144L62.914 48.5742L62.9064 45.8727L65.8992 47.6129L65.9068 50.3144Z" fill="#3D4449"/>
        <path d="M65.8992 47.6128L62.9064 45.8726L65.5903 44.3221L68.5831 46.0623L65.8992 47.6128Z" fill="#4F575F"/>
        <path d="M55.9531 59.3538L52.9606 57.6134L62.9141 48.5742L65.9068 50.3144L55.9531 59.3538Z" fill="#4F575F"/>
        <path d="M53.2638 59.0236L50.2712 57.2834L52.9552 55.7328L55.9478 57.473L53.2638 59.0236Z" fill="#4F575F"/>
        <path d="M53.3052 73.5862L50.3124 71.8457L50.2712 57.2834L53.2638 59.0236L53.3052 73.5862Z" fill="#3D4449"/>
        <path d="M65.8991 47.6128L68.5829 46.0623L68.6475 68.8386L65.9636 70.3892L65.9559 67.6876L55.9838 70.16L55.9891 72.0354L53.3052 73.5862L53.2638 59.0236L55.9477 57.473L55.9536 59.355L65.907 50.3155L65.8991 47.6128ZM65.9468 64.4664L65.9159 53.5356L55.9624 62.5801L55.9747 66.9336L65.9468 64.4669" fill="#2A3134"/>
        <path d="M52.4997 66.8326L51.3997 67.4728C51.6183 67.3479 51.7509 67.0747 51.7586 66.6921C51.7586 65.4601 50.4316 64.0476 49.676 64.5067L50.7758 63.8665C50.9942 63.7339 51.2986 63.7574 51.6416 63.9524C52.7104 64.5618 53.2723 66.391 52.4997 66.8326Z" fill="#4F575F"/>
        <path d="M50.5443 64.591C51.2117 64.9763 51.7577 65.9174 51.7554 66.6903C51.7531 67.4631 51.2036 67.7768 50.5364 67.3912C49.8589 66.9998 49.318 66.0564 49.3201 65.2833C49.3222 64.5102 49.8668 64.2005 50.5443 64.591Z" fill="#2A3134"/>
        <path d="M69.5778 56.9398V59.949L72.1326 58.4199L69.5778 56.9398Z" fill="#FFB63C"/>
        <path d="M27.845 100C23.1908 100 19.4161 97.2281 18.1536 93.7866C17.3196 91.5079 17.3247 88.024 17.582 85.7327C17.6135 85.4584 17.7524 85.2079 17.9683 85.036C18.1842 84.8641 18.4593 84.7848 18.7335 84.8156C19.0077 84.8464 19.2584 84.9848 19.4308 85.2003C19.6032 85.4158 19.6831 85.691 19.6531 85.9654C19.411 88.1219 19.4508 91.2647 20.1108 93.0684C20.9826 95.4463 23.4994 97.3487 26.374 97.8013C31.7861 98.6542 37.4273 94.9252 38.7519 88.5394C39.2415 86.1816 39.1403 84.4598 38.8722 79.9315C38.6606 76.4664 38.2675 70.018 49.6722 65.3319C49.7991 65.2778 49.9356 65.2495 50.0735 65.2486C50.2115 65.2477 50.3483 65.2742 50.4759 65.3267C50.6036 65.3791 50.7195 65.4564 50.8171 65.554C50.9147 65.6517 50.9919 65.7677 51.0442 65.8955C51.0966 66.0232 51.1231 66.1601 51.1221 66.2982C51.1212 66.4362 51.0929 66.5727 51.0388 66.6998C50.9847 66.8268 50.9059 66.9418 50.8071 67.0381C50.7082 67.1344 50.5912 67.2101 50.4629 67.2608C40.4368 71.3798 40.7585 76.6533 40.9513 79.8039C41.1871 83.851 41.3671 86.1937 40.7915 88.9632C39.4101 95.6234 33.9303 100 27.845 100Z" fill="#49E4A3"/>
        <path d="M25.8372 76.3214L25.814 84.9939C25.8109 86.0285 25.1314 87.0617 23.7744 87.8509C19.4149 90.386 11.7591 88.5993 11.7695 84.9536L11.794 76.2812C11.7837 79.9347 19.4316 81.7182 23.7991 79.1784C25.1554 78.3893 25.8349 77.3561 25.8372 76.3214Z" fill="#4F575F"/>
        <path d="M29.5895 66.832L29.5519 80.1298C29.5363 85.662 17.9472 88.4119 11.1956 84.5108C9.0728 83.2844 8.01233 81.6752 8.01698 80.0683L8.05466 66.7705C8.05001 68.3774 9.11047 69.9864 11.2333 71.2128C15.4523 73.6504 22.2684 73.6518 26.4623 71.2128C28.5433 70.0027 29.5851 68.4186 29.5895 66.832Z" fill="#DBE6FA"/>
        <path d="M29.5519 76.8969C29.7026 78.6592 28.4854 80.1905 27.0361 81.2309C22.2017 84.7044 12.8501 84.1798 9.21472 80.0129C8.44518 79.1428 7.9217 77.9827 8.02542 76.8355C8.55123 83.0882 22.9256 84.6629 28.0396 79.7732C28.8424 79.0348 29.4522 78.0391 29.5519 76.8969Z" fill="#BBCFEF"/>
        <path d="M29.5519 74.0195C29.6501 75.1679 29.1173 76.3233 28.3443 77.1895C24.2352 81.8437 13.2559 81.7673 9.21472 77.1355C8.44518 76.2654 7.9217 75.1051 8.02542 73.958C8.54798 80.1696 22.8984 81.8116 28.0396 76.8958C28.8424 76.1567 29.4522 75.1616 29.5519 74.0195Z" fill="#BBCFEF"/>
        <path d="M29.5519 71.142C29.6501 72.2904 29.1173 73.4458 28.3443 74.3117C24.2252 78.9781 13.247 78.8796 9.21472 74.2578C8.44518 73.3876 7.9217 72.2276 8.02542 71.0803C8.55449 77.3707 22.9491 78.8854 28.0396 74.0181C28.8424 73.2797 29.4522 72.2839 29.5519 71.142Z" fill="#BBCFEF"/>
        <path d="M26.4105 62.9729C30.6298 65.4103 30.6521 69.3627 26.4626 71.7989C22.2684 74.238 15.4521 74.2366 11.2328 71.7989C7.01353 69.3613 6.99143 65.412 11.1863 62.9729C15.3752 60.5367 22.1912 60.5353 26.4105 62.9729Z" fill="#ECF0F1"/>
        <path d="M37.5911 54.6642L36.7611 65.9407C36.569 68.3446 34.6864 70.6959 31.1834 72.4617C24.2955 75.9363 13.3927 75.9363 6.45733 72.4617C2.88872 70.674 0.971282 68.2834 0.796631 65.8487L0.792212 65.7615L0.0322124 54.804L0.0147705 54.5637C0.019154 54.6471 0.027926 54.7303 0.0410497 54.8129C0.338026 57.3829 2.33849 59.886 5.94617 61.7709C13.188 65.5516 24.5576 65.5516 31.7469 61.7709C34.5962 60.276 37.3369 57.8751 37.5911 54.6642Z" fill="#3D4449"/>
        <path d="M32.4561 47.0092C39.6908 51.2659 39.177 57.871 31.7489 61.7728C24.5559 65.5516 13.1875 65.5518 5.94798 61.7717C-1.52202 57.871 -2.11319 51.2662 5.06914 47.0108C12.5005 42.6082 24.9768 42.6079 32.4561 47.0092Z" fill="#4F575F"/>
        <path d="M23.341 54.2632C25.3991 54.2632 27.0675 53.2961 27.0675 52.1032C27.0675 50.9103 25.3991 49.9432 23.341 49.9432C21.2829 49.9432 19.6145 50.9103 19.6145 52.1032C19.6145 53.2961 21.2829 54.2632 23.341 54.2632Z" fill="#2A3134"/>
        <path d="M14.496 54.2632C16.5541 54.2632 18.2226 53.2961 18.2226 52.1032C18.2226 50.9103 16.5541 49.9432 14.496 49.9432C12.4379 49.9432 10.7695 50.9103 10.7695 52.1032C10.7695 53.2961 12.4379 54.2632 14.496 54.2632Z" fill="#2A3134"/>
        <path d="M11.6001 7.2773V51.8879C11.6829 53.8427 14.8266 54.5534 16.6308 53.5097C17.3108 53.1292 17.7094 52.5323 17.7259 51.8486V7.2773C17.7259 6.96099 17.8515 6.65764 18.075 6.43398C18.2985 6.21031 18.6017 6.08466 18.9178 6.08466C19.2339 6.08466 19.537 6.21031 19.7605 6.43398C19.9841 6.65764 20.1096 6.96099 20.1096 7.2773C20.115 15.2637 20.0943 -14.6208 20.1406 52.1395C20.381 53.3961 21.8906 53.9907 23.1871 53.9907C24.4836 53.9907 26.0029 53.3831 26.2124 52.1083L26.2357 7.64871C26.2352 -2.67131 11.6001 -2.30386 11.6001 7.2773Z" fill="#FFB42F"/>
        <path d="M23.5198 63.3578C25.5779 63.3578 27.2464 62.3908 27.2464 61.1978C27.2464 60.0049 25.5779 59.0378 23.5198 59.0378C21.4618 59.0378 19.7933 60.0049 19.7933 61.1978C19.7933 62.3908 21.4618 63.3578 23.5198 63.3578Z" fill="#2A3134"/>
        <path d="M32.0844 57.3041C34.1425 57.3041 35.8109 56.337 35.8109 55.1441C35.8109 53.9511 34.1425 52.984 32.0844 52.984C30.0263 52.984 28.3579 53.9511 28.3579 55.1441C28.3579 56.337 30.0263 57.3041 32.0844 57.3041Z" fill="#2A3134"/>
        <path d="M5.56916 57.3041C7.62726 57.3041 9.29567 56.337 9.29567 55.1441C9.29567 53.9511 7.62726 52.984 5.56916 52.984C3.51107 52.984 1.84265 53.9511 1.84265 55.1441C1.84265 56.337 3.51107 57.3041 5.56916 57.3041Z" fill="#2A3134"/>
        <path d="M13.8021 63.3578C15.8602 63.3578 17.5286 62.3908 17.5286 61.1978C17.5286 60.0049 15.8602 59.0378 13.8021 59.0378C11.744 59.0378 10.0756 60.0049 10.0756 61.1978C10.0756 62.3908 11.744 63.3578 13.8021 63.3578Z" fill="#2A3134"/>
        <path d="M20.5557 15.8613V60.361C20.5757 61.0167 20.965 61.5985 21.6543 62.0009C22.2173 62.3267 22.9247 62.4896 23.6285 62.4896C24.3322 62.4896 25.0361 62.3267 25.5936 62.0039C26.2736 61.615 26.6722 61.0123 26.6831 60.3347V15.8613C26.6831 15.5453 26.8086 15.2421 27.0319 15.0186C27.2553 14.7952 27.5582 14.6696 27.874 14.6696C28.1899 14.6696 28.4928 14.7952 28.7162 15.0186C28.9395 15.2421 29.065 15.5453 29.065 15.8613V54.5157C29.085 55.1631 29.4836 55.7596 30.1636 56.1547C32.0036 57.2187 35.1708 56.4805 35.1924 54.4883V16.2323C35.1924 5.91386 20.5557 6.27573 20.5557 15.8613Z" fill="#FFCA5F"/>
        <path d="M2.4187 16.2323V54.4992C2.44056 56.4773 5.5987 57.2208 7.45126 56.1528C8.13126 55.7558 8.52986 55.1578 8.54428 54.4883V15.8613C8.54866 15.5479 8.67617 15.2487 8.89923 15.0286C9.12229 14.8085 9.42298 14.6851 9.73626 14.6851C10.0495 14.6851 10.3502 14.8085 10.5733 15.0286C10.7964 15.2487 10.9239 15.5479 10.9282 15.8613V60.3444C10.9501 62.3353 14.1185 63.0606 15.9624 61.9981C16.6406 61.6001 17.0392 61.0021 17.0538 60.3335V15.8613C17.0531 6.23663 2.4187 5.9383 2.4187 16.2323Z" fill="#FFCA5F"/>
    </g>
    <defs>
        <clipPath id="clip0_17036_511660">
            <rect width="100" height="100" fill="white"/>
        </clipPath>
    </defs>
</svg>
