<svg width="100" height="100" viewBox="0 0 100 100" fill="none" xmlns="http://www.w3.org/2000/svg">
    <g clip-path="url(#clip0_17624_519001)">
        <path d="M65.6394 24.197C66.0145 23.9771 66.5331 24.0092 67.1073 24.3406L94.0375 39.9006C95.1801 40.5573 96.1001 42.1579 96.0973 43.4687L96.0094 74.4332C96.0064 75.0871 95.778 75.5444 95.4047 75.7615L99.3075 73.491C99.6796 73.2769 99.9122 72.8161 99.9122 72.1657L100 41.2012C100.006 39.8875 99.0829 38.2897 97.9431 37.63L71.0101 22.07C70.4359 21.7387 69.9171 21.7093 69.5422 21.9264L65.6394 24.197Z" fill="#76879C"/>
        <path d="M99.9987 41.2035L99.9152 72.1703C99.9152 72.8166 99.6754 73.2755 99.3105 73.4944L95.4036 75.7673C95.7787 75.5483 96.0082 75.0897 96.0082 74.4327L96.1012 43.4661C96.1012 42.163 95.184 40.5573 94.0382 39.9003L97.9452 37.6272C99.0817 38.2946 100.009 39.8887 99.9987 41.2035Z" fill="#5A667A"/>
        <path d="M64.948 56.4896C64.945 57.8002 65.865 59.3985 67.0078 60.0578L93.938 75.6177C95.0775 76.2775 96.0078 75.7469 96.0096 74.4332L96.0975 43.4688C96.1003 42.1581 95.1803 40.5573 94.0378 39.9006L67.1075 24.3406C65.968 23.6809 65.0378 24.2117 65.0361 25.5251L64.948 56.4896Z" fill="#ABBBC6"/>
        <path d="M68.5963 57.315C68.3972 57.1614 68.1544 56.7472 68.1149 56.4984L68.1937 28.6285L92.4544 42.6463C92.6512 42.7999 92.8907 43.2118 92.9256 43.4071L92.9302 43.4331L92.8514 71.3293L68.5963 57.315ZM91.5302 43.4787L69.377 30.6797L69.2991 56.1073C69.3223 56.1922 69.476 56.4456 69.5177 56.4808L91.6679 69.2775L91.7404 43.8329C91.7051 43.7364 91.5677 43.5113 91.5302 43.4787Z" fill="#76879C"/>
        <path d="M73.7168 54.7592L86.5056 62.1428C89.6305 59.0296 89.6451 52.3625 86.5468 45.6539L73.7719 38.2565C70.6468 41.3834 70.6193 48.0508 73.7168 54.7592Z" fill="#76879C"/>
        <path d="M77.5721 42.7115L82.4391 45.5233L82.4321 48.536L77.5721 45.7283V42.7115Z" fill="#DBE9F3"/>
        <path d="M77.5721 51.9368L82.4391 54.7487L82.4321 57.7613L77.5721 54.9535V51.9368Z" fill="#DBE9F3"/>
        <path d="M69.3273 48.8085L69.3289 49.3859C69.3289 48.9977 70.1238 48.8123 70.5875 49.082C70.7342 49.1674 70.8068 49.277 70.8073 49.3857L70.8056 48.8083C70.8056 48.415 69.9898 48.2454 69.5547 48.4969C69.4019 48.5851 69.3268 48.6975 69.3273 48.8085Z" fill="white"/>
        <path d="M72.8372 48.3506V48.9312C72.8372 49.1695 73.2163 48.7888 61.5495 55.5737C61.3444 55.6942 61.0188 55.6942 60.8207 55.5737L59.3616 54.7234C59.2556 54.6666 59.2061 54.5886 59.2061 54.5109V53.9373C59.2061 54.0071 59.2556 54.086 59.3547 54.1497L60.8198 54.9994C61.0179 55.1127 61.3435 55.1127 61.5486 54.9994L72.6805 48.5624C72.7795 48.5065 72.8372 48.4285 72.8372 48.3506Z" fill="#C9CEE2"/>
        <path d="M72.6803 48.1454L71.2296 47.2955C71.0245 47.1752 70.6917 47.1752 70.4865 47.2955L59.3547 53.7255C59.1493 53.8389 59.1565 54.0299 59.3547 54.1505L60.8198 55.0001C61.0179 55.1134 61.3435 55.1134 61.5486 55.0001L72.6805 48.5631C72.8856 48.4497 72.8856 48.2587 72.6803 48.1454ZM69.5454 49.1083C69.2552 48.9384 69.2552 48.6694 69.5524 48.4993C69.8354 48.3364 70.2954 48.3364 70.5856 48.5065C71.277 48.9114 70.2233 49.5053 69.5454 49.1083Z" fill="#F3F1FC"/>
        <path d="M69.3273 60.0918L69.3289 60.6691C69.3289 60.5581 69.4035 60.4457 69.5563 60.3575C70.0045 60.0985 70.8061 60.29 70.8073 60.6689L70.8056 60.0915C70.8056 59.6983 69.9898 59.5288 69.5547 59.7802C69.4019 59.8686 69.3268 59.9808 69.3273 60.0918Z" fill="white"/>
        <path d="M72.8373 59.6335V60.2153C72.8373 60.4534 73.2163 60.0727 61.5496 66.8576C61.3445 66.9781 61.0189 66.9781 60.8208 66.8576L59.3629 66.008C59.2568 65.9512 59.2073 65.8734 59.2073 65.7955V65.2219C59.2073 65.2917 59.2568 65.3706 59.3559 65.4343L60.821 66.2842C61.0191 66.3973 61.3447 66.3973 61.5498 66.2842L72.6817 59.8469C72.7796 59.7897 72.8373 59.7117 72.8373 59.6335Z" fill="#C9CEE2"/>
        <path d="M72.6803 59.4286L71.2296 58.5787C71.0245 58.4584 70.6917 58.4584 70.4865 58.5787L59.3547 65.0092C59.1493 65.1225 59.1565 65.3138 59.3547 65.4341L60.8198 66.284C61.0179 66.3971 61.3435 66.3971 61.5486 66.284L72.6805 59.8467C72.8856 59.7329 72.8856 59.5419 72.6803 59.4286ZM69.5454 60.3915C69.2552 60.2216 69.2552 59.9526 69.5524 59.7825C69.8354 59.6196 70.2954 59.6196 70.5856 59.7897C71.277 60.1946 70.2233 60.7888 69.5454 60.3915Z" fill="#F3F1FC"/>
        <path d="M61.9636 71.3892L58.9711 69.6487L58.9634 66.9472L61.9559 68.6876L61.9636 71.3892Z" fill="#3D4449"/>
        <path d="M61.9468 65.4664L58.9543 63.7262L58.9233 52.7953L61.9159 54.5356L61.9468 65.4664Z" fill="#3D4449"/>
        <path d="M51.9747 67.9337L48.9819 66.1935L58.9543 63.7263L61.9468 65.4665L51.9747 67.9337Z" fill="#4F575F"/>
        <path d="M61.9068 51.3144L58.914 49.5742L58.9064 46.8726L61.8992 48.6128L61.9068 51.3144Z" fill="#3D4449"/>
        <path d="M61.8992 48.6128L58.9064 46.8726L61.5903 45.3221L64.5831 47.0623L61.8992 48.6128Z" fill="#4F575F"/>
        <path d="M51.9531 60.3538L48.9606 58.6133L58.9141 49.5742L61.9068 51.3144L51.9531 60.3538Z" fill="#4F575F"/>
        <path d="M49.2638 60.0236L46.2712 58.2834L48.9552 56.7328L51.9478 58.4731L49.2638 60.0236Z" fill="#4F575F"/>
        <path d="M49.3052 74.5862L46.3124 72.8457L46.2712 58.2834L49.2638 60.0236L49.3052 74.5862Z" fill="#3D4449"/>
        <path d="M61.8991 48.6129L64.5829 47.0623L64.6475 69.8386L61.9636 71.3892L61.9559 68.6877L51.9838 71.16L51.9891 73.0354L49.3052 74.5862L49.2638 60.0236L51.9477 58.4731L51.9536 60.355L61.907 51.3156L61.8991 48.6129ZM61.9468 65.4665L61.9159 54.5356L51.9624 63.5801L51.9747 67.9337L61.9468 65.4669" fill="#2A3134"/>
        <path d="M48.4997 67.8326L47.3997 68.4728C47.6183 68.3479 47.7509 68.0747 47.7586 67.6921C47.7586 66.4601 46.4316 65.0476 45.676 65.5067L46.7758 64.8665C46.9942 64.7339 47.2986 64.7574 47.6416 64.9524C48.7104 65.5618 49.2723 67.391 48.4997 67.8326Z" fill="#4F575F"/>
        <path d="M46.5443 65.591C47.2117 65.9763 47.7577 66.9174 47.7554 67.6903C47.7531 68.4631 47.2036 68.7768 46.5364 68.3912C45.8589 67.9998 45.318 67.0564 45.3201 66.2833C45.3222 65.5102 45.8668 65.2005 46.5443 65.591Z" fill="#2A3134"/>
        <path d="M77.5778 42.7145V45.7237L80.1326 44.1945L77.5778 42.7145Z" fill="#ABBBC6"/>
        <path d="M77.5778 51.9399V54.9491L80.1326 53.4199L77.5778 51.9399Z" fill="#ABBBC6"/>
        <path d="M27.845 100C23.1908 100 19.4161 97.2282 18.1536 93.7866C17.3196 91.5079 17.3247 88.024 17.582 85.7327C17.6135 85.4585 17.7524 85.2079 17.9683 85.036C18.1842 84.8641 18.4593 84.7849 18.7335 84.8157C19.0077 84.8465 19.2584 84.9848 19.4308 85.2003C19.6032 85.4159 19.6831 85.691 19.6531 85.9654C19.411 88.122 19.4508 91.2647 20.1108 93.0685C20.9826 95.4463 23.4994 97.3487 26.374 97.8013C31.7861 98.6542 37.4273 94.9253 38.7519 88.5394C39.2415 86.1816 39.1403 84.4598 38.8722 79.9315C38.6606 76.4664 35 68.2609 45.6722 66.3319C45.7991 66.2778 45.9356 66.2495 46.0735 66.2486C46.2115 66.2477 46.3483 66.2743 46.4759 66.3267C46.6036 66.3791 46.7195 66.4564 46.8171 66.5541C46.9147 66.6517 46.9919 66.7678 47.0442 66.8955C47.0966 67.0232 47.1231 67.1601 47.1221 67.2982C47.1212 67.4363 47.0929 67.5728 47.0388 67.6998C46.9847 67.8268 46.9059 67.9418 46.8071 68.0381C46.7082 68.1344 46.5912 68.2101 46.4629 68.2609C37.5 69 40.7585 76.6533 40.9513 79.804C41.1871 83.851 41.3671 86.1937 40.7915 88.9632C39.4101 95.6234 33.9303 100 27.845 100Z" fill="#A6B4BE"/>
        <path d="M25.8372 76.3214L25.814 84.9939C25.8109 86.0285 25.1314 87.0617 23.7744 87.8509C19.4149 90.386 11.7591 88.5993 11.7695 84.9536L11.794 76.2812C11.7837 79.9347 19.4316 81.7182 23.7991 79.1784C25.1554 78.3893 25.8349 77.3561 25.8372 76.3214Z" fill="#4F575F"/>
        <path d="M29.5895 66.8319L29.5519 80.1297C29.5363 85.662 17.9472 88.4119 11.1956 84.5107C9.0728 83.2844 8.01233 81.6752 8.01698 80.0683L8.05466 66.7705C8.05001 68.3774 9.11047 69.9863 11.2333 71.2127C15.4523 73.6504 22.2684 73.6518 26.4623 71.2127C28.5433 70.0026 29.5851 68.4186 29.5895 66.8319Z" fill="#DBE6FA"/>
        <path d="M29.5519 76.8969C29.7026 78.6593 28.4854 80.1905 27.0361 81.231C22.2017 84.7044 12.8501 84.1799 9.21472 80.0129C8.44518 79.1428 7.9217 77.9828 8.02542 76.8355C8.55123 83.0882 22.9256 84.663 28.0396 79.7733C28.8424 79.0349 29.4522 78.0391 29.5519 76.8969Z" fill="#BBCFEF"/>
        <path d="M29.5519 74.0194C29.6501 75.1679 29.1173 76.3233 28.3443 77.1894C24.2352 81.8436 13.2559 81.7673 9.21472 77.1354C8.44518 76.2653 7.9217 75.105 8.02542 73.958C8.54798 80.1695 22.8984 81.8115 28.0396 76.8957C28.8424 76.1567 29.4522 75.1616 29.5519 74.0194Z" fill="#BBCFEF"/>
        <path d="M29.5519 71.142C29.6501 72.2904 29.1173 73.4458 28.3443 74.3117C24.2252 78.9781 13.247 78.8796 9.21472 74.2578C8.44518 73.3876 7.9217 72.2276 8.02542 71.0803C8.55449 77.3707 22.9491 78.8854 28.0396 74.0181C28.8424 73.2797 29.4522 72.2839 29.5519 71.142Z" fill="#BBCFEF"/>
        <path d="M26.4105 62.9729C30.6298 65.4103 30.6521 69.3627 26.4626 71.7989C22.2684 74.238 15.4521 74.2366 11.2328 71.7989C7.01353 69.3613 6.99143 65.412 11.1863 62.9729C15.3752 60.5367 22.1912 60.5353 26.4105 62.9729Z" fill="#ECF0F1"/>
        <path d="M37.5911 54.6642L36.7611 65.9407C36.569 68.3446 34.6864 70.6959 31.1834 72.4617C24.2955 75.9363 13.3927 75.9363 6.45733 72.4617C2.88872 70.674 0.971282 68.2834 0.796631 65.8488L0.792212 65.7615L0.0322124 54.8041L0.0147705 54.5637C0.019154 54.6472 0.027926 54.7304 0.0410497 54.813C0.338026 57.383 2.33849 59.886 5.94617 61.771C13.188 65.5516 24.5576 65.5516 31.7469 61.771C34.5962 60.2761 37.3369 57.8752 37.5911 54.6642Z" fill="#3D4449"/>
        <path d="M32.4561 47.0092C39.6908 51.266 39.177 57.871 31.7489 61.7728C24.5559 65.5516 13.1875 65.5518 5.94798 61.7717C-1.52202 57.871 -2.11319 51.2662 5.06914 47.0108C12.5005 42.6082 24.9768 42.608 32.4561 47.0092Z" fill="#4F575F"/>
        <path d="M23.341 54.2632C25.3991 54.2632 27.0675 53.2961 27.0675 52.1032C27.0675 50.9103 25.3991 49.9432 23.341 49.9432C21.2829 49.9432 19.6145 50.9103 19.6145 52.1032C19.6145 53.2961 21.2829 54.2632 23.341 54.2632Z" fill="#2A3134"/>
        <path d="M14.496 54.2632C16.5541 54.2632 18.2226 53.2961 18.2226 52.1032C18.2226 50.9103 16.5541 49.9432 14.496 49.9432C12.4379 49.9432 10.7695 50.9103 10.7695 52.1032C10.7695 53.2961 12.4379 54.2632 14.496 54.2632Z" fill="#2A3134"/>
        <path d="M11.6001 7.27729V51.8879C11.6829 53.8427 14.8266 54.5534 16.6308 53.5097C17.3108 53.1292 17.7094 52.5323 17.7259 51.8486V7.27729C17.7259 6.96099 17.8515 6.65763 18.075 6.43397C18.2985 6.2103 18.6017 6.08465 18.9178 6.08465C19.2339 6.08465 19.537 6.2103 19.7605 6.43397C19.9841 6.65763 20.1096 6.96099 20.1096 7.27729C20.115 15.2637 20.0943 -14.6208 20.1406 52.1395C20.381 53.3961 21.8906 53.9907 23.1871 53.9907C24.4836 53.9907 26.0029 53.3831 26.2124 52.1083L26.2357 7.6487C26.2356 4.91651 25.2097 2.93342 23.7012 1.67207L22.1509 2.25405L22.5 4.5L21.6376 4.2295L20.5 5.5L19.9127 3.68851L19.0503 3.41802L17 5L17.5 3.03134L16.5 2.5L17.5 1.09402V0.125366C14.3701 0.684531 11.6001 3.10896 11.6001 7.27729Z" fill="#ABBFCA"/>
        <path d="M23.5198 63.3578C25.5779 63.3578 27.2464 62.3908 27.2464 61.1978C27.2464 60.0049 25.5779 59.0378 23.5198 59.0378C21.4618 59.0378 19.7933 60.0049 19.7933 61.1978C19.7933 62.3908 21.4618 63.3578 23.5198 63.3578Z" fill="#2A3134"/>
        <path d="M32.0844 57.3041C34.1425 57.3041 35.8109 56.337 35.8109 55.1441C35.8109 53.9511 34.1425 52.9841 32.0844 52.9841C30.0263 52.9841 28.3579 53.9511 28.3579 55.1441C28.3579 56.337 30.0263 57.3041 32.0844 57.3041Z" fill="#2A3134"/>
        <path d="M5.56916 57.3041C7.62726 57.3041 9.29567 56.337 9.29567 55.1441C9.29567 53.9511 7.62726 52.9841 5.56916 52.9841C3.51107 52.9841 1.84265 53.9511 1.84265 55.1441C1.84265 56.337 3.51107 57.3041 5.56916 57.3041Z" fill="#2A3134"/>
        <path d="M13.8021 63.3578C15.8602 63.3578 17.5286 62.3908 17.5286 61.1978C17.5286 60.0049 15.8602 59.0378 13.8021 59.0378C11.744 59.0378 10.0756 60.0049 10.0756 61.1978C10.0756 62.3908 11.744 63.3578 13.8021 63.3578Z" fill="#2A3134"/>
        <path d="M20.5557 15.8613V60.361C20.5757 61.0168 20.965 61.5985 21.6543 62.0009C22.2173 62.3267 22.9247 62.4896 23.6285 62.4896C24.3322 62.4896 25.0361 62.3267 25.5936 62.0039C26.2736 61.6151 26.6722 61.0123 26.6831 60.3347V15.8613C26.6831 15.5453 26.8086 15.2422 27.0319 15.0187C27.2553 14.7952 27.5582 14.6696 27.874 14.6696C28.1899 14.6696 28.4928 14.7952 28.7162 15.0187C28.9395 15.2422 29.065 15.5453 29.065 15.8613V54.5158C29.085 55.1632 29.4836 55.7596 30.1636 56.1547C32.0036 57.2187 35.1708 56.4805 35.1924 54.4883V21L31 21.5L35.1924 14.6696L31.5 16.5L33.5 13L31 13.5L32.7401 10.3256C28.5727 6.72509 20.5557 8.76715 20.5557 15.8613Z" fill="#D7E5EF"/>
        <path d="M2 18L4 20.5L6 22L3.5 25.5L5.5 29L3.5 27.5L2.4187 30V54.4992C2.44056 56.4773 5.5987 57.2208 7.45126 56.1528C8.13126 55.7558 8.52986 55.1578 8.54428 54.4883V15.8613C8.54866 15.5479 8.67617 15.2487 8.89923 15.0286C9.12229 14.8085 9.42298 14.6851 9.73626 14.6851C10.0495 14.6851 10.3502 14.8085 10.5733 15.0286C10.7964 15.2487 10.9239 15.5479 10.9282 15.8613V60.3444C10.9501 62.3353 14.1185 63.0606 15.9624 61.9981C16.6406 61.6001 17.0392 61.0021 17.0538 60.3335V15.8613C17.0534 10.5244 12.5536 8.05509 8.54428 8.66922L8 12.5L6 9.53718L7 16.2323L3.21246 12.5L4.5 15.8613L2 18Z" fill="#D7E5EF"/>
    </g>
    <defs>
        <clipPath id="clip0_17624_519001">
            <rect width="100" height="100" fill="white"/>
        </clipPath>
    </defs>
</svg>
