<svg xmlns="http://www.w3.org/2000/svg" width="156" height="156" fill="none"><g opacity=".5"><path fill="#DBBC78" d="M121.057 114.242c1.584.849 3.5.936 5.244.509.994-.26 1.948-.652 2.836-1.167.749-.424 1.56-1.351 2.437-1.195 2.053.362 4.056.733 6.168.481 2.278-.275 4.559-1.311 5.881-3.186a7 7 0 0 0 .709-1.295c.463-1.169.716-2.411.749-3.669.081-1.728-.122-3.535-1.03-4.992s-2.649-2.524-4.368-2.218a4.16 4.16 0 0 0 .606-4.016 4.16 4.16 0 0 0-3.102-2.62 22 22 0 0 0-.481-4.368 7.4 7.4 0 0 0-2.109-3.785 6.17 6.17 0 0 0-5.872-1.164 7.6 7.6 0 0 0-4.489 4.097 9.9 9.9 0 0 0-.593 6.127 5.36 5.36 0 0 0-3.742 6.159 5.36 5.36 0 0 0 1.106 2.362q-.608.622-1.133 1.314c-1.292 1.7-2.184 3.7-2.318 5.815-.144 2.684 1.129 5.538 3.501 6.811"/><path fill="#CFAD65" d="M121.056 114.241c1.585.849 3.5.936 5.244.509.994-.26 1.948-.652 2.836-1.167.749-.424 1.56-1.351 2.437-1.195 2.053.362 4.056.733 6.168.481 2.278-.275 4.559-1.311 5.882-3.186q.424-.61.708-1.295a10.1 10.1 0 0 1-12.92-1.248 10.5 10.5 0 0 1-8.561-1.89 10.35 10.35 0 0 1-2.964-3.629c-1.292 1.7-2.184 3.7-2.318 5.816-.156 2.677 1.116 5.532 3.488 6.804"/><path fill="#C09A47" d="M126.397 102.941a.07.07 0 0 1 .034-.027.1.1 0 0 1 .044-.001l.023.013.017.02.007.025-.003.027a4.5 4.5 0 0 0-.06 2.449c.095.384.248.751.453 1.089.195.332.437.636.717.901.069.066.144.125.216.188.071.062.153.112.231.162q.236.152.492.265c.166.081.334.147.503.218q.253.108.521.216.348.138.724.268l.056-1.388.062-2.203v-2.206c0-2.945-.134-5.9-.343-8.86a.17.17 0 0 1 .03-.111.17.17 0 0 1 .161-.068.17.17 0 0 1 .111.066.2.2 0 0 1 .029.06 76 76 0 0 1 1.348 6.579l.084-.081a1.9 1.9 0 0 1 .458-.331q.26-.124.478-.312.214-.181.38-.408.184-.229.312-.49a2.3 2.3 0 0 0 .247-1.192.1.1 0 0 1 .008-.037.1.1 0 0 1 .026-.029.07.07 0 0 1 .094.025c.235.427.33.918.271 1.401a3.3 3.3 0 0 1-.165.73q-.136.36-.343.684a8 8 0 0 1-.443.624 1.6 1.6 0 0 1-.599.452q-.302.128-.624.169.07.501.143 1.004l.265 2.231.238 2.265.14 2.25.087 2.252c0 .752.038 1.504.069 2.259l.047 2.265c0 .752-.035 1.507-.091 2.259a21 21 0 0 1-.312 2.243l-.224 1.111c-.082.371-.16.74-.247 1.108a47 47 0 0 1-.624 2.184 29 29 0 0 1-.789 2.143q-.453 1.066-1.014 2.078a.18.18 0 0 1-.131.087.17.17 0 0 1-.13-.036.17.17 0 0 1-.067-.116c-.103-.777-.137-1.532-.162-2.284a50 50 0 0 1-.038-2.24c.01-.74 0-1.479.029-2.212 0-.369.018-.734.025-1.102l.053-1.092c.025-.73.071-1.457.149-2.184s.15-1.448.259-2.184l.297-2.184c.081-.727.159-1.454.215-2.184l.119-1.897a4.6 4.6 0 0 1-1.046-.087 3.35 3.35 0 0 1-1.341-.59 5.7 5.7 0 0 1-1.042-1.026 5 5 0 0 1-.727-1.233 4.7 4.7 0 0 1-.312-1.373 4.5 4.5 0 0 1 .605-2.602"/><path fill="#fff" d="M135.72 94.056c0 .695.371 1.248.833 1.248s.836-.562.836-1.248c0-.687-.374-1.248-.836-1.248s-.833.552-.833 1.248m-6-4.823c.46 0 .833-.563.833-1.258 0-.694-.373-1.257-.833-1.257s-.833.563-.833 1.257c0 .695.373 1.258.833 1.258m3.65-2.094c.262 0 .474-.32.474-.715s-.212-.714-.474-.714-.474.32-.474.714c0 .395.212.715.474.715m-4.483 5.058c0 .393.212.714.471.714s.474-.312.474-.714c0-.403-.212-.715-.474-.715s-.471.319-.471.715m5.629-2.266c0 .272.146.49.312.49.165 0 .312-.219.312-.49s-.147-.487-.312-.487c-.166 0-.312.219-.312.487" opacity=".3" style="mix-blend-mode:overlay"/><path fill="#DBBC78" d="M138.915 128.197a2.07 2.07 0 0 0-1.753-.405c.571-1.036 1.132-2.116 1.248-3.292.115-1.176-.331-2.496-1.358-3.064-1.092-.624-2.542-.234-3.463.624-.92.858-1.398 2.078-1.722 3.289a1.27 1.27 0 0 0-1.179-1.145 1.27 1.27 0 0 0-1.317.982 6.9 6.9 0 0 0-.92-1.946 2.32 2.32 0 0 0-1.829-.993c-.861.029-1.594.73-1.872 1.545a4.7 4.7 0 0 0-.019 2.549 1.47 1.47 0 0 0-1.584-.593c.021-1.067.037-2.184-.387-3.154-.425-.971-1.414-1.804-2.475-1.676-1.06.128-1.759 1.049-2.152 2a6.6 6.6 0 0 0-.038 4.88 1.99 1.99 0 0 0-2.299 0 1.87 1.87 0 0 0-.668 2.122h24.62a2.28 2.28 0 0 0-.833-1.723"/><path fill="#DBBC78" d="M136.001 129.031a1.05 1.05 0 0 0-.902-.209 4.5 4.5 0 0 0 .64-1.695 1.63 1.63 0 0 0-.699-1.56 1.56 1.56 0 0 0-1.782.312 3.5 3.5 0 0 0-.883 1.691.65.65 0 0 0-.609-.599.65.65 0 0 0-.679.518 3.5 3.5 0 0 0-.471-1.001 1.18 1.18 0 0 0-.936-.512 1.14 1.14 0 0 0-.967.793 2.4 2.4 0 0 0 0 1.313.76.76 0 0 0-.815-.312 3.9 3.9 0 0 0-.199-1.622 1.32 1.32 0 0 0-1.273-.861c-.528.062-.908.539-1.108 1.026a3.4 3.4 0 0 0-.019 2.512 1.02 1.02 0 0 0-1.182 0 .96.96 0 0 0-.347 1.092h12.668a1.17 1.17 0 0 0-.437-.886" style="mix-blend-mode:multiply"/><path fill="#DBBC78" d="M11.722 128.198a2.1 2.1 0 0 1 .83-.405c.304-.07.62-.07.924-.001-.571-1.036-1.133-2.115-1.248-3.292-.116-1.176.33-2.496 1.357-3.063 1.092-.624 2.543-.234 3.463.624s1.398 2.078 1.722 3.288a1.266 1.266 0 0 1 2.496-.162 6.9 6.9 0 0 1 .92-1.947 2.31 2.31 0 0 1 1.838-.998c.861.028 1.595.73 1.872 1.544a4.7 4.7 0 0 1 .019 2.549 1.47 1.47 0 0 1 1.585-.593c-.022-1.067-.038-2.184.387-3.154.424-.97 1.413-1.803 2.474-1.676 1.06.128 1.76 1.049 2.153 2a6.6 6.6 0 0 1 .037 4.88 1.99 1.99 0 0 1 2.3 0 1.87 1.87 0 0 1 .667 2.122h-24.62a2.28 2.28 0 0 1 .824-1.716"/><path fill="#DBBC78" d="M14.636 129.031a1.04 1.04 0 0 1 .902-.209 4.5 4.5 0 0 1-.624-1.695 1.63 1.63 0 0 1 .699-1.56 1.56 1.56 0 0 1 1.781.312 3.5 3.5 0 0 1 .883 1.691.652.652 0 0 1 1.289-.081 3.5 3.5 0 0 1 .471-1.001 1.18 1.18 0 0 1 .936-.512 1.14 1.14 0 0 1 .967.793 2.4 2.4 0 0 1 0 1.313.76.76 0 0 1 .814-.312 3.9 3.9 0 0 1 .2-1.622 1.32 1.32 0 0 1 1.273-.861c.524.062.908.539 1.108 1.026.327.804.334 1.703.018 2.512a1.02 1.02 0 0 1 1.183 0 .95.95 0 0 1 .343 1.092H14.212a1.17 1.17 0 0 1 .424-.886" style="mix-blend-mode:multiply"/><path fill="#DBBC78" d="M46.943 112.442c-1.634 1.969-4.249 2.923-6.804 3.054-2.138.109-4.256-.296-6.315-.83-.378-.099-.911-.374-1.298-.368s-.977.353-1.38.509a29 29 0 0 1-2.95.976 16 16 0 0 1-3.342.54c-2.056.097-4.21-.359-5.903-1.482a6.905 6.905 0 0 1 3.157-12.67 11.265 11.265 0 0 1 5.785-18.851 11.264 11.264 0 0 1 12.873 14.935c1.02-.474 2.315-.586 3.198.106.883.693.914 2.346-.112 2.808.457.161.897.37 1.31.624a7.13 7.13 0 0 1 3.184 7.954 7.1 7.1 0 0 1-1.403 2.698z"/><path fill="#CFAD65" d="M46.944 112.441c-1.635 1.969-4.25 2.924-6.805 3.055-2.137.109-4.256-.297-6.315-.83-.377-.1-.91-.375-1.298-.368-.387.006-.976.352-1.379.508q-1.448.567-2.951.977a16.2 16.2 0 0 1-3.342.54c-2.056.096-4.209-.359-5.903-1.482a22.3 22.3 0 0 0 4.172-.234c3.616-.568 7.216-2.387 9.048-5.554 2.056.203 4.14.374 6.184.059 2.043-.315 4.077-1.16 5.44-2.72a6 6 0 0 0 1.498-3.52 6 6 0 0 0-.13-1.092 7.13 7.13 0 0 1 3.184 7.954 7.1 7.1 0 0 1-1.403 2.698z"/><path fill="#C09A47" d="M36.719 104.473a.064.064 0 0 0-.072-.028.06.06 0 0 0-.035.031.07.07 0 0 0-.006.047 4.14 4.14 0 0 1 .057 2.23 3.6 3.6 0 0 1-.415.99 3.6 3.6 0 0 1-.652.82c-.063.062-.131.116-.197.172a3.3 3.3 0 0 1-.658.39c-.15.071-.312.134-.459.199l-.474.197q-.316.126-.658.243l-.05-1.263-.057-2.006v-2.01c0-2.683.125-5.37.312-8.068a.15.15 0 0 0-.115-.16.15.15 0 0 0-.184.113 68 68 0 0 0-1.23 5.991l-.074-.075a1.7 1.7 0 0 0-.418-.312 2 2 0 0 1-.447-.262 2.4 2.4 0 0 1-.346-.375 2.2 2.2 0 0 1-.28-.446 2.1 2.1 0 0 1-.225-1.083.06.06 0 0 0-.032-.056.06.06 0 0 0-.069.003l-.015.019a2.13 2.13 0 0 0-.25 1.276q.04.34.154.665.12.328.312.624.185.297.405.571c.145.179.331.32.543.411q.27.117.562.153-.072.459-.131.918l-.244 2.031-.196 2.04-.125 2.047-.081 2.05c0 .683-.035 1.369-.063 2.056l-.043 2.062q.002 1.03.084 2.059c.053.687.16 1.364.271 2.041l.203 1.014c.078.334.147.671.228 1.005.175.667.359 1.332.565 1.99s.458 1.307.72 1.95q.417.972.936 1.894.02.032.05.053a.17.17 0 0 0 .131.022.16.16 0 0 0 .116-.134q.127-1.037.15-2.081.044-1.031.034-2.038c-.006-.671 0-1.348-.025-2.015 0-.334-.019-.668-.025-1.002l-.047-.995a30 30 0 0 0-.137-1.988 47 47 0 0 0-.234-1.974l-.272-1.982a70 70 0 0 1-.196-1.987l-.11-1.729q.474.013.937-.081c.442-.085.86-.268 1.223-.533a5 5 0 0 0 .936-.936c.274-.34.496-.719.661-1.123.157-.4.253-.821.284-1.248a4.1 4.1 0 0 0-.527-2.387"/><path fill="#fff" d="M26.12 94.449c0 .998-.623 1.806-1.39 1.806-.768 0-1.392-.808-1.392-1.806s.624-1.803 1.391-1.803c.768 0 1.392.808 1.392 1.803m2.162-5.949c.505 0 .915-.532.915-1.186 0-.655-.41-1.186-.915-1.186s-.914.53-.914 1.186c0 .654.41 1.185.914 1.185m2.453 1.807a.51.51 0 1 1-.493-.64.58.58 0 0 1 .493.64m-7.476 7.263a.512.512 0 1 1-.483-.643.58.58 0 0 1 .483.643m.709-7.903a.278.278 0 0 1-.545-.045.277.277 0 0 1 .277-.305.31.31 0 0 1 .268.35m6.404-2.349c.304 0 .55-.32.55-.715s-.246-.714-.55-.714c-.303 0-.549.32-.549.714 0 .395.246.715.55.715" opacity=".3" style="mix-blend-mode:overlay"/><path fill="#DBBC78" d="M115.692 34.086h-79.84v17.263h79.84z"/><path fill="#DBBC78" d="M115.692 34.086h-79.84v1.432h79.84z" style="mix-blend-mode:multiply"/><path fill="#DBBC78" d="M115.115 28.242h-78.69v4.05h78.69z"/><path fill="#DBBC78" d="M115.115 28.242h-78.69v.761h78.69z" style="mix-blend-mode:multiply"/><path fill="#B48F4B" d="M116.66 31.462H34.881a.424.424 0 0 0-.424.424v2.371c0 .235.19.425.424.425h81.779c.234 0 .424-.19.424-.425v-2.37a.424.424 0 0 0-.424-.425m.034-6.374H34.847a.39.39 0 0 0-.39.39v2.44c0 .215.175.39.39.39h81.847a.39.39 0 0 0 .39-.39v-2.44a.39.39 0 0 0-.39-.39"/><path fill="#DBBC78" d="M115.69 73.177H37.35v56.718h78.34z"/><path fill="#C7A355" d="M116.242 121.384H36.8a.46.46 0 0 0-.458.458v7.598c0 .253.205.458.458.458h79.442a.46.46 0 0 0 .459-.458v-7.598a.46.46 0 0 0-.459-.458"/><path fill="#D2C29F" d="M115.69 73.177v7.338h-.203a3.32 3.32 0 0 1-3.065-2.052 3.3 3.3 0 0 1-.252-1.27 3.32 3.32 0 0 1-3.319 3.322h-.899a3.32 3.32 0 0 1-3.32-3.323 3.317 3.317 0 0 1-3.316 3.323h-.899a3.32 3.32 0 0 1-3.323-3.323 3.32 3.32 0 0 1-3.316 3.323h-.896a3.32 3.32 0 0 1-3.316-3.323 3.32 3.32 0 0 1-3.32 3.323h-.895a3.32 3.32 0 0 1-3.32-3.323 3.32 3.32 0 0 1-3.316 3.323h-.899a3.32 3.32 0 0 1-3.317-3.323 3.32 3.32 0 0 1-3.32 3.323h-.895a3.32 3.32 0 0 1-3.323-3.323 3.32 3.32 0 0 1-3.313 3.323h-.895a3.32 3.32 0 0 1-3.32-3.323 3.32 3.32 0 0 1-3.317 3.323h-.892a3.32 3.32 0 0 1-3.316-3.323 3.32 3.32 0 0 1-3.32 3.323h-.896a3.32 3.32 0 0 1-3.32-3.323 3.32 3.32 0 0 1-3.316 3.323h-.898a3.31 3.31 0 0 1-2.808-1.535v-5.803z" style="mix-blend-mode:multiply"/><path fill="#E09764" d="M61.012 84.293h-19.68v40.257h19.68z"/><path fill="#F2F1D0" d="M59.939 85.366H42.404v38.114H59.94z"/><path fill="#fff" d="M59.939 85.366v1.545l-10.153 36.566h-3.713l10.583-38.11z" opacity=".5" style="mix-blend-mode:overlay"/><path fill="#E09764" d="M59.938 104.81h-2.714a.39.39 0 0 1-.358-.536.38.38 0 0 1 .21-.209.4.4 0 0 1 .148-.029h2.714zm51.77-20.517H63.935v26.124h47.773z"/><path fill="#F2F1D0" d="M110.458 85.363H65.19v23.977h45.268z"/><path fill="#fff" d="M83.345 85.363 77.05 109.34h-2.034l6.293-23.977zm17.203 0-6.293 23.977h-2.04l6.3-23.977z" opacity=".5" style="mix-blend-mode:overlay"/><path fill="#B55134" d="M64.054 127.1H38.289v2.795h25.765z"/><path fill="#CE6F54" d="M64.054 127.1H38.289l1.142-.671h23.481z"/><path fill="#B55134" d="M62.169 124.847H40.173v1.582h21.996z"/><path fill="#CE6F54" d="M62.17 124.847H40.174l.976-.377h20.043z"/><path fill="#F2F1D0" d="M36.099 71.828h-7.351l3.675-19.693h6.786z"/><path fill="#CE6F54" d="M43.45 71.828h-7.351l3.11-19.693h6.783z"/><path fill="#F2F1D0" d="M50.797 71.828h-7.348l2.543-19.693h6.783z"/><path fill="#CE6F54" d="M58.148 71.828h-7.351l1.978-19.693h6.786z"/><path fill="#F2F1D0" d="M65.495 71.828h-7.348l1.414-19.693h6.783z"/><path fill="#CE6F54" d="M72.846 71.828h-7.35l.848-19.693h6.783z"/><path fill="#F2F1D0" d="M80.196 71.828h-7.35l.28-19.693h6.786z"/><path fill="#CE6F54" d="M87.544 71.828h-7.348l-.284-19.693h6.783z"/><path fill="#F2F1D0" d="M94.895 71.828h-7.351l-.849-19.693h6.786z"/><path fill="#CE6F54" d="M102.242 71.828h-7.347L93.48 52.135h6.783z"/><path fill="#F2F1D0" d="M109.592 71.828h-7.35l-1.978-19.693h6.783z"/><path fill="#CE6F54" d="M116.94 71.828h-7.347l-2.546-19.693h6.786z"/><path fill="#F2F1D0" d="M124.291 71.828h-7.35l-3.108-19.693h6.783z"/><path fill="#E5D995" d="M28.751 71.83h7.348v3.066a3.12 3.12 0 0 1-3.12 3.12h-1.092a3.12 3.12 0 0 1-3.12-3.12V71.83z"/><path fill="#B55134" d="M36.099 71.83h7.35v3.066a3.12 3.12 0 0 1-3.12 3.12h-1.092a3.12 3.12 0 0 1-3.12-3.12V71.83z"/><path fill="#E5D995" d="M43.45 71.83h7.35v3.066a3.12 3.12 0 0 1-3.12 3.12h-1.092a3.12 3.12 0 0 1-3.12-3.12V71.83z"/><path fill="#B55134" d="M50.797 71.83h7.35v3.066a3.12 3.12 0 0 1-3.12 3.12h-1.091a3.12 3.12 0 0 1-3.12-3.12V71.83z"/><path fill="#E5D995" d="M58.148 71.83h7.35v3.066a3.12 3.12 0 0 1-3.12 3.12h-1.092a3.12 3.12 0 0 1-3.12-3.12V71.83z"/><path fill="#B55134" d="M65.495 71.83h7.35v3.066a3.12 3.12 0 0 1-3.12 3.12h-1.091a3.12 3.12 0 0 1-3.12-3.12V71.83z"/><path fill="#E5D995" d="M72.846 71.83h7.338v3.066a3.12 3.12 0 0 1-3.12 3.12h-1.092a3.12 3.12 0 0 1-3.12-3.12V71.83z"/><path fill="#B55134" d="M80.184 71.83h7.35v3.066a3.12 3.12 0 0 1-3.12 3.12h-1.092a3.12 3.12 0 0 1-3.12-3.12V71.83z"/><path fill="#E5D995" d="M87.544 71.83h7.35v3.066a3.12 3.12 0 0 1-3.12 3.12h-1.091a3.12 3.12 0 0 1-3.12-3.12V71.83z"/><path fill="#B55134" d="M94.895 71.83h7.347v3.066a3.12 3.12 0 0 1-3.12 3.12H98.03a3.12 3.12 0 0 1-3.12-3.12V71.83z"/><path fill="#E5D995" d="M102.242 71.83h7.351v3.066a3.12 3.12 0 0 1-3.12 3.12h-1.092a3.12 3.12 0 0 1-3.12-3.12V71.83zm14.699 0h7.351v3.066a3.12 3.12 0 0 1-3.12 3.12h-1.092a3.12 3.12 0 0 1-3.12-3.12V71.83z"/><path fill="#B55134" d="M109.594 71.83h7.35v3.066a3.12 3.12 0 0 1-3.12 3.12h-1.092a3.12 3.12 0 0 1-3.12-3.12V71.83z"/><path fill="#F2F1D0" d="M124.292 71.829H28.748l.053-.278c15.475-.237 31.01-.708 46.176-3.797a116 116 0 0 0 15.84-4.368c7.722-2.758 15.157-6.443 21.812-11.232h8.003z" style="mix-blend-mode:multiply"/><path fill="#CE6F54" d="M120.647 52.475H32.392a.8.8 0 0 1-.805-.805.804.804 0 0 1 .805-.808h88.255a.809.809 0 0 1 .572 1.379.82.82 0 0 1-.572.234"/><path fill="#E09764" d="M113.493 37.515H38.935v10.402h74.558z"/><path fill="#F2F1D0" d="M112.42 38.467H40.008v8.499h72.412z"/><path fill="#F2F1D0" d="M40.008 38.467v.614h71.797v7.885h.615v-8.5z" style="mix-blend-mode:multiply"/><path fill="#fff" d="m77.36 38.467-4.293 8.499h-3.329l4.293-8.5zm14.758 0-4.287 8.499h-1.535l4.293-8.5z" opacity=".5" style="mix-blend-mode:overlay"/><path fill="#DBBC78" d="M107.306 114.255h-6.414v2.256h6.414zm-5.339 3.531h-6.414v2.256h6.414zm-11.671-6.087H83.88v2.256h6.415zM40.557 94.1H37.35v2.255h3.207zm.773 13.291h-2.599v2.255h2.6zm74.359-26.333h-3.55v2.255h3.55z" style="mix-blend-mode:multiply"/><path fill="#F9A66A" d="M108.732 123.399h-3.457v1.255h3.457zm-11.451 2.455h-3.457v1.252h3.457zm-2.193-1.678H91.63v1.251h3.457zm-6.062 1.853H85.57v1.251h3.457zm-23.244-3.803h-3.457v1.251h3.457z" style="mix-blend-mode:multiply"/><path fill="#B55134" d="M28.205 110.354h-1.061v-39.87a3.994 3.994 0 0 0-7.987 0v1.788h-1.061v-1.788a5.051 5.051 0 0 1 10.102 0z"/><path fill="#CE6F54" d="M23.762 66.49h-.312a3.994 3.994 0 0 1 3.694 3.994v39.87h.624v-39.87a4 4 0 0 0-4.006-3.994"/><path fill="#F9A66A" d="M22.623 74.603a.6.6 0 0 1-.125.025h-7.756a.6.6 0 0 1-.125-.025 5.232 5.232 0 1 0 8.006 0"/><path fill="#fff" d="M16.967 80.2a2.42 2.42 0 0 1-1.314-1.142l.019.05a1.7 1.7 0 0 1-.11-.44c0-.15.032-.29.032-.437a.53.53 0 0 0-.384-.52.537.537 0 0 0-.652.367 2.41 2.41 0 0 0 .518 2.038c.432.5.987.88 1.61 1.104a.524.524 0 0 0 .649-.368.55.55 0 0 0-.334-.624z" opacity=".3" style="mix-blend-mode:overlay"/><g style="mix-blend-mode:multiply"><path fill="#F2F1D0" d="M14.743 74.628a.6.6 0 0 1-.125-.025l-.022.025z"/><path fill="#F9A66A" d="M22.623 74.603a.6.6 0 0 1-.125.025h-1.56a5.224 5.224 0 0 1-3.17 8.492 5.223 5.223 0 0 0 4.858-8.517z"/></g><path fill="#DBBC78" d="M21.313 73.56h-5.385a1.56 1.56 0 0 1 1.56-1.56h2.246a1.56 1.56 0 0 1 1.56 1.56z"/><path fill="#9AC3B1" d="M22.501 73.008h-7.76a.52.52 0 0 0-.52.52v.575a.52.52 0 0 0 .52.521h7.76a.52.52 0 0 0 .521-.521v-.574a.52.52 0 0 0-.52-.521"/><path fill="#CE6F54" d="M26.717 109.952h1.915a.16.16 0 0 1 .16.159v.446h-2.234v-.446a.16.16 0 0 1 .159-.159"/><path fill="#B55134" d="M27.019 110.407h1.31a1.413 1.413 0 0 1 1.414 1.414v17.659h-4.137v-17.659a1.415 1.415 0 0 1 1.413-1.414"/><path fill="#CE6F54" d="M28.33 110.407h-1.317a1.414 1.414 0 0 1 1.404 1.414v17.659h1.329v-17.659a1.415 1.415 0 0 0-1.417-1.414"/><path fill="#B55134" d="M31.1 129.221h-6.85a.337.337 0 0 0 0 .674h6.85a.337.337 0 0 0 0-.674"/><path fill="#D2B067" d="M122.164 120.029a2.2 2.2 0 0 1-.387.652 2 2 0 0 1-.902.337q-1.359.33-2.749.487a22 22 0 0 1-5.553-.081 2.26 2.26 0 0 1-1.111-.381c-.399-.312-.543-.855-.643-1.354a7 7 0 0 1-.115-.739 2.9 2.9 0 0 1 .044-.852 1.56 1.56 0 0 1 .964-1.192 1.37 1.37 0 0 1 .911-2.446 6.3 6.3 0 0 1 .24-2.496 3.2 3.2 0 0 1 1.582-1.891c1.111-.53 2.533-.146 3.36.765a3.99 3.99 0 0 1 .846 3.457 1.08 1.08 0 0 1 .746.428 1.07 1.07 0 0 1 .19.838q.387.006.758.119a3.08 3.08 0 0 1 1.953 1.697 3.14 3.14 0 0 1-.134 2.652"/><path fill="#AA7729" d="M122.164 120.03a2.3 2.3 0 0 1-.387.652 2 2 0 0 1-.902.337q-1.359.33-2.748.486a22 22 0 0 1-5.554-.081 2.26 2.26 0 0 1-1.111-.38c-.399-.312-.543-.855-.642-1.355a7 7 0 0 1-.116-.739c2.617.054 5.22-.403 7.663-1.345a3.66 3.66 0 0 0 1.666-1.07c.184-.252.292-.552.312-.864a3.08 3.08 0 0 1 1.953 1.697 3.15 3.15 0 0 1-.134 2.662"/><path fill="#F2F1D0" d="m122.182 121.471-.255 1.797-.958 6.748h-8.54l-.954-6.748-.256-1.797z"/><path fill="#F2F1D0" d="m122.182 121.471-.255 1.797h-10.452l-.256-1.797z" style="mix-blend-mode:multiply"/><path fill="#F2F1D0" d="M122.501 122.553h-11.6l-.309-2.936h12.215z"/><path fill="#fff" d="M114.785 113.162c0 .481-.265.871-.593.871s-.592-.39-.592-.871c0-.48.265-.87.592-.87.328 0 .593.39.593.87m1.183 1.029c0 .247-.134.446-.312.446s-.312-.199-.312-.446c0-.246.137-.446.312-.446.174 0 .312.203.312.446m-2.263.79c0 .247-.137.446-.312.446s-.312-.199-.312-.446c0-.246.137-.446.312-.446s.312.2.312.446m2.115-3.285c0 .128-.069.231-.156.231s-.159-.103-.159-.231.072-.231.159-.231.156.09.156.231" opacity=".3" style="mix-blend-mode:overlay"/><path fill="#D2B067" d="M36.389 118.716a6.8 6.8 0 0 1-.428 2.287c-.15.399-.34 1.051-.764 1.248-.543.256-1.289.284-1.872.368a25.5 25.5 0 0 1-4.368.253h-.312a3.84 3.84 0 0 1-2.125-.609 2.6 2.6 0 0 1-.337-.312 4.5 4.5 0 0 1-.88-1.638 6.2 6.2 0 0 1-.312-1.188 3.15 3.15 0 0 1 .047-1.267c.215-.808.958-1.529 1.791-1.457a1.513 1.513 0 0 1 1.872-2.378 2.598 2.598 0 0 1 4.752-1.906 3.6 3.6 0 0 1 .293 2.739.74.74 0 0 1 .758 1.13c.285.003.563.084.805.234.284.175.519.418.684.708.288.55.425 1.167.396 1.788"/><path fill="#CFAD65" d="M36.388 118.716a6.8 6.8 0 0 1-.427 2.287c-.15.4-.34 1.052-.765 1.248-.543.256-1.288.284-1.872.368-1.446.21-2.907.294-4.368.253h-.312a7.8 7.8 0 0 1-2.436-.914 4.5 4.5 0 0 1-.88-1.638 6.2 6.2 0 0 1-.312-1.189c2.224.624 4.642.509 6.926.063.874-.172 1.772-.403 2.459-.971.348-.283.613-.656.764-1.079.103-.287.056-.624.165-.917.284.174.52.418.684.708.28.55.409 1.165.374 1.781" style="mix-blend-mode:multiply"/><path fill="#F2F1D0" d="m35.714 122.061-.234 1.65-.88 6.203h-7.846l-.88-6.203-.237-1.65z"/><path fill="#F2F1D0" d="m35.714 122.061-.234 1.65h-9.606l-.237-1.65z" style="mix-blend-mode:multiply"/><path fill="#F2F1D0" d="M36.008 123.053H25.346l-.284-2.696h11.226z"/><path fill="#fff" d="M30.701 114.423c0 .443-.243.802-.543.802s-.546-.359-.546-.802.244-.799.546-.799.543.359.543.799m1.089.951c0 .224-.125.408-.28.408-.157 0-.282-.184-.282-.408 0-.225.128-.412.281-.412s.281.184.281.412m-4.084.437c.22 0 .4-.263.4-.587s-.18-.586-.4-.586-.4.262-.4.586.18.587.4.587m2.004.283c0 .228-.126.412-.282.412s-.28-.184-.28-.412.127-.411.28-.411.281.184.281.411m1.997-3.029c0 .159-.088.287-.197.287s-.197-.128-.197-.287.088-.287.197-.287.197.128.197.287" opacity=".3" style="mix-blend-mode:overlay"/></g></svg>