<svg width="156" height="156" viewBox="0 0 156 156" fill="none" xmlns="http://www.w3.org/2000/svg">
<g opacity="0.5">
<path d="M121.057 114.242C122.641 115.091 124.557 115.178 126.301 114.751C127.295 114.491 128.249 114.099 129.137 113.584C129.886 113.16 130.697 112.233 131.574 112.389C133.627 112.751 135.63 113.122 137.742 112.87C140.02 112.595 142.301 111.559 143.623 109.684C143.905 109.279 144.143 108.845 144.332 108.389C144.795 107.22 145.048 105.978 145.081 104.72C145.162 102.992 144.959 101.185 144.051 99.7281C143.143 98.271 141.402 97.204 139.683 97.5097C140.119 96.9479 140.403 96.2839 140.509 95.5809C140.615 94.878 140.54 94.1595 140.289 93.4941C140.039 92.8287 139.623 92.2385 139.08 91.7797C138.536 91.321 137.885 91.009 137.187 90.8735C137.172 89.4052 137.011 87.942 136.706 86.5055C136.396 85.062 135.662 83.7442 134.597 82.721C133.798 82.0447 132.839 81.5831 131.812 81.3795C130.785 81.1759 129.723 81.237 128.725 81.5572C127.735 81.8934 126.825 82.4309 126.052 83.1359C125.28 83.8409 124.661 84.6982 124.236 85.6537C123.393 87.5817 123.186 89.7277 123.643 91.7814C122.797 92.0314 122.025 92.4867 121.397 93.1067C120.769 93.7268 120.303 94.4925 120.043 95.3356C119.782 96.1788 119.733 97.0734 119.901 97.9399C120.07 98.8063 120.449 99.6178 121.007 100.302C120.602 100.716 120.224 101.155 119.874 101.616C118.582 103.316 117.69 105.316 117.556 107.431C117.412 110.115 118.685 112.969 121.057 114.242Z" fill="#DBBC78"/>
<path d="M121.056 114.241C122.641 115.09 124.556 115.177 126.3 114.75C127.294 114.49 128.248 114.098 129.136 113.583C129.885 113.159 130.696 112.232 131.573 112.388C133.626 112.75 135.629 113.121 137.741 112.869C140.019 112.594 142.3 111.558 143.623 109.683C143.905 109.278 144.142 108.844 144.331 108.388C142.374 109.732 140.006 110.343 137.644 110.115C135.281 109.887 133.075 108.833 131.411 107.14C129.932 107.461 128.401 107.458 126.924 107.131C125.446 106.805 124.056 106.163 122.85 105.25C121.597 104.282 120.583 103.041 119.886 101.621C118.594 103.321 117.702 105.321 117.568 107.437C117.412 110.114 118.684 112.969 121.056 114.241Z" fill="#CFAD65"/>
<path d="M126.397 102.941C126.405 102.929 126.417 102.919 126.431 102.914C126.445 102.909 126.461 102.909 126.475 102.913C126.483 102.916 126.491 102.92 126.498 102.926C126.505 102.931 126.511 102.938 126.515 102.946C126.519 102.954 126.521 102.963 126.522 102.971C126.523 102.98 126.522 102.989 126.519 102.998C126.274 103.793 126.253 104.64 126.459 105.447C126.554 105.831 126.707 106.198 126.912 106.536C127.107 106.868 127.349 107.172 127.629 107.437C127.698 107.503 127.773 107.562 127.845 107.625C127.916 107.687 127.998 107.737 128.076 107.787C128.233 107.888 128.397 107.977 128.568 108.052C128.734 108.133 128.902 108.199 129.071 108.27C129.239 108.342 129.414 108.414 129.592 108.486C129.823 108.579 130.066 108.667 130.316 108.754L130.372 107.366L130.434 105.163V102.957C130.434 100.012 130.3 97.0571 130.091 94.0962C130.088 94.057 130.098 94.0179 130.121 93.9858C130.144 93.9538 130.178 93.931 130.216 93.9215C130.237 93.9159 130.26 93.9146 130.282 93.9176C130.304 93.9207 130.325 93.9281 130.344 93.9394C130.363 93.9508 130.38 93.9657 130.393 93.9835C130.407 94.0014 130.416 94.0216 130.422 94.0432C130.971 96.2116 131.414 98.4112 131.77 100.623L131.854 100.542C131.989 100.409 132.144 100.298 132.312 100.211C132.485 100.129 132.645 100.024 132.79 99.8994C132.932 99.7786 133.06 99.6414 133.17 99.4907C133.292 99.3393 133.397 99.1751 133.482 99.0008C133.67 98.633 133.755 98.2212 133.729 97.809C133.729 97.796 133.731 97.7832 133.737 97.7717C133.743 97.7602 133.752 97.7505 133.763 97.7435C133.779 97.7344 133.798 97.732 133.815 97.7366C133.833 97.7413 133.848 97.7528 133.857 97.7684C134.092 98.1954 134.187 98.6855 134.128 99.1693C134.101 99.4182 134.046 99.6631 133.963 99.8994C133.873 100.138 133.758 100.367 133.62 100.583C133.483 100.798 133.335 101.007 133.177 101.207C133.016 101.403 132.81 101.558 132.578 101.659C132.378 101.744 132.168 101.801 131.954 101.828C132 102.161 132.05 102.498 132.097 102.832L132.362 105.063L132.6 107.328L132.74 109.578L132.827 111.83C132.827 112.582 132.865 113.334 132.896 114.089L132.943 116.354C132.943 117.106 132.908 117.861 132.852 118.613C132.796 119.365 132.678 120.114 132.54 120.856L132.316 121.967C132.234 122.338 132.156 122.707 132.069 123.075C131.876 123.808 131.673 124.538 131.445 125.259C131.217 125.979 130.943 126.694 130.656 127.402C130.354 128.112 130.016 128.806 129.642 129.48C129.628 129.504 129.609 129.524 129.586 129.539C129.564 129.554 129.538 129.564 129.511 129.567C129.464 129.573 129.418 129.56 129.381 129.531C129.344 129.503 129.32 129.461 129.314 129.415C129.211 128.638 129.177 127.883 129.152 127.131C129.127 126.379 129.105 125.63 129.114 124.891C129.124 124.151 129.114 123.412 129.143 122.679C129.143 122.31 129.161 121.945 129.168 121.577L129.221 120.485C129.246 119.755 129.292 119.028 129.37 118.301C129.448 117.574 129.52 116.853 129.629 116.117L129.926 113.933C130.007 113.206 130.085 112.479 130.141 111.749L130.26 109.852C129.909 109.863 129.558 109.834 129.214 109.765C128.729 109.67 128.271 109.468 127.873 109.175C127.483 108.879 127.132 108.534 126.831 108.149C126.531 107.775 126.286 107.36 126.104 106.916C125.932 106.477 125.826 106.014 125.792 105.543C125.727 104.635 125.938 103.728 126.397 102.941Z" fill="#C09A47"/>
<g style="mix-blend-mode:overlay" opacity="0.3">
<path d="M135.72 94.0556C135.72 94.7514 136.091 95.3036 136.553 95.3036C137.015 95.3036 137.389 94.742 137.389 94.0556C137.389 93.3692 137.015 92.8076 136.553 92.8076C136.091 92.8076 135.72 93.3599 135.72 94.0556Z" fill="white"/>
<path d="M129.72 89.2325C130.18 89.2325 130.553 88.6696 130.553 87.9751C130.553 87.2807 130.18 86.7178 129.72 86.7178C129.26 86.7178 128.887 87.2807 128.887 87.9751C128.887 88.6696 129.26 89.2325 129.72 89.2325Z" fill="white"/>
<path d="M133.37 87.1389C133.632 87.1389 133.844 86.819 133.844 86.4244C133.844 86.0298 133.632 85.71 133.37 85.71C133.108 85.71 132.896 86.0298 132.896 86.4244C132.896 86.819 133.108 87.1389 133.37 87.1389Z" fill="white"/>
<path d="M128.887 92.1969C128.887 92.59 129.099 92.9114 129.358 92.9114C129.617 92.9114 129.832 92.5994 129.832 92.1969C129.832 91.7944 129.62 91.4824 129.358 91.4824C129.096 91.4824 128.887 91.8007 128.887 92.1969Z" fill="white"/>
<path d="M134.516 89.9311C134.516 90.2025 134.662 90.4209 134.828 90.4209C134.993 90.4209 135.14 90.2025 135.14 89.9311C135.14 89.6596 134.993 89.4443 134.828 89.4443C134.662 89.4443 134.516 89.6627 134.516 89.9311Z" fill="white"/>
</g>
<path d="M138.915 128.197C138.672 128.002 138.389 127.863 138.085 127.793C137.781 127.723 137.465 127.722 137.162 127.792C137.733 126.756 138.294 125.676 138.41 124.5C138.525 123.324 138.079 122.004 137.052 121.436C135.96 120.812 134.51 121.202 133.589 122.06C132.669 122.918 132.191 124.138 131.867 125.349C131.838 125.049 131.704 124.769 131.488 124.559C131.272 124.35 130.988 124.224 130.688 124.204C130.388 124.185 130.09 124.273 129.849 124.453C129.607 124.633 129.438 124.893 129.371 125.186C129.168 124.493 128.858 123.836 128.451 123.24C128.244 122.943 127.971 122.699 127.654 122.527C127.336 122.355 126.983 122.259 126.622 122.247C125.761 122.276 125.028 122.977 124.75 123.792C124.508 124.623 124.502 125.506 124.731 126.341C124.56 126.091 124.316 125.9 124.033 125.794C123.749 125.688 123.44 125.672 123.147 125.748C123.168 124.681 123.184 123.564 122.76 122.594C122.335 121.623 121.346 120.79 120.285 120.918C119.225 121.046 118.526 121.967 118.133 122.918C117.497 124.48 117.483 126.226 118.095 127.798C117.759 127.56 117.357 127.432 116.946 127.432C116.534 127.432 116.132 127.56 115.796 127.798C115.472 128.034 115.233 128.367 115.113 128.749C114.993 129.131 114.998 129.541 115.128 129.92H118.442H139.748C139.742 129.589 139.665 129.264 139.521 128.967C139.377 128.669 139.17 128.407 138.915 128.197Z" fill="#DBBC78"/>
<g style="mix-blend-mode:multiply">
<path d="M136.001 129.031C135.876 128.929 135.73 128.858 135.574 128.822C135.418 128.786 135.255 128.785 135.099 128.822C135.426 128.306 135.643 127.73 135.739 127.127C135.779 126.828 135.734 126.524 135.611 126.248C135.488 125.973 135.29 125.737 135.04 125.567C134.747 125.428 134.419 125.383 134.099 125.439C133.78 125.495 133.486 125.649 133.258 125.879C132.813 126.35 132.507 126.936 132.375 127.57C132.363 127.414 132.295 127.267 132.183 127.157C132.071 127.047 131.923 126.981 131.766 126.971C131.61 126.961 131.455 127.008 131.33 127.103C131.205 127.198 131.119 127.336 131.087 127.489C130.984 127.132 130.825 126.794 130.616 126.488C130.511 126.335 130.372 126.209 130.209 126.12C130.046 126.031 129.865 125.982 129.68 125.976C129.459 125.999 129.25 126.087 129.078 126.228C128.906 126.369 128.779 126.557 128.713 126.769C128.591 127.198 128.591 127.653 128.713 128.082C128.625 127.953 128.5 127.853 128.355 127.797C128.209 127.741 128.05 127.732 127.898 127.77C127.947 127.221 127.879 126.668 127.699 126.148C127.602 125.889 127.428 125.668 127.2 125.513C126.972 125.359 126.701 125.28 126.426 125.287C125.898 125.349 125.518 125.826 125.318 126.313C124.991 127.117 124.984 128.016 125.299 128.825C125.126 128.702 124.92 128.637 124.708 128.637C124.496 128.637 124.29 128.702 124.117 128.825C123.95 128.946 123.826 129.117 123.764 129.314C123.702 129.51 123.704 129.722 123.77 129.917H125.474H136.438C136.434 129.746 136.393 129.578 136.317 129.425C136.242 129.272 136.134 129.137 136.001 129.031Z" fill="#DBBC78"/>
</g>
<path d="M11.7221 128.198C11.9647 128.002 12.2486 127.864 12.5523 127.793C12.856 127.723 13.1716 127.723 13.4756 127.792C12.9046 126.756 12.343 125.677 12.2276 124.5C12.1121 123.324 12.5583 122.004 13.5848 121.437C14.6768 120.813 16.1276 121.203 17.048 122.061C17.9684 122.919 18.4457 124.139 18.7702 125.349C18.7986 125.049 18.9329 124.77 19.149 124.56C19.365 124.35 19.6486 124.224 19.9491 124.205C20.2495 124.185 20.5471 124.273 20.7885 124.453C21.0298 124.633 21.1992 124.893 21.2662 125.187C21.4687 124.493 21.7793 123.836 22.1866 123.24C22.3934 122.941 22.6675 122.695 22.9866 122.522C23.3058 122.349 23.6612 122.253 24.0243 122.242C24.8854 122.27 25.6186 122.972 25.8963 123.786C26.1383 124.618 26.1447 125.5 25.915 126.335C26.0862 126.085 26.3302 125.894 26.6138 125.788C26.8975 125.682 27.2069 125.666 27.5 125.742C27.4781 124.675 27.4625 123.558 27.8868 122.588C28.3112 121.618 29.3002 120.785 30.361 120.912C31.4218 121.04 32.1207 121.961 32.5138 122.912C33.15 124.474 33.1634 126.221 32.5512 127.792C32.8873 127.554 33.289 127.426 33.701 127.426C34.1129 127.426 34.5147 127.554 34.8507 127.792C35.1742 128.028 35.4136 128.361 35.5338 128.743C35.6539 129.125 35.6485 129.535 35.5184 129.914H32.2049H10.8984C10.904 129.585 10.9805 129.262 11.1227 128.966C11.2649 128.669 11.4693 128.407 11.7221 128.198Z" fill="#DBBC78"/>
<g style="mix-blend-mode:multiply">
<path d="M14.6362 129.031C14.7607 128.929 14.9067 128.858 15.0629 128.822C15.2192 128.786 15.3816 128.785 15.5379 128.822C15.2168 128.305 15.0045 127.729 14.9139 127.127C14.874 126.828 14.9183 126.524 15.0417 126.248C15.1652 125.973 15.3629 125.737 15.6128 125.567C15.9054 125.428 16.2341 125.383 16.5534 125.439C16.8727 125.495 17.1666 125.649 17.3943 125.879C17.8402 126.35 18.146 126.936 18.2773 127.57C18.2896 127.414 18.358 127.267 18.4699 127.157C18.5818 127.047 18.7297 126.981 18.8864 126.971C19.0431 126.961 19.198 127.008 19.3229 127.103C19.4477 127.198 19.534 127.336 19.5658 127.489C19.6683 127.132 19.8273 126.794 20.037 126.488C20.1416 126.335 20.281 126.209 20.4436 126.12C20.6063 126.031 20.7877 125.982 20.973 125.976C21.1939 125.999 21.4032 126.087 21.575 126.228C21.7469 126.369 21.8738 126.557 21.9402 126.769C22.0618 127.198 22.0618 127.653 21.9402 128.082C22.0273 127.953 22.1522 127.853 22.298 127.797C22.4437 127.741 22.6031 127.732 22.7545 127.77C22.7055 127.221 22.7735 126.668 22.9542 126.148C23.0502 125.889 23.2246 125.668 23.4528 125.513C23.681 125.359 23.9517 125.28 24.2271 125.287C24.7513 125.349 25.135 125.826 25.3347 126.313C25.6622 127.117 25.6689 128.016 25.3534 128.825C25.5263 128.702 25.7329 128.637 25.9447 128.637C26.1565 128.637 26.363 128.702 26.5359 128.825C26.7031 128.945 26.8267 129.117 26.8886 129.314C26.9504 129.51 26.9471 129.722 26.8791 129.917H25.1756H14.2119C14.2142 129.747 14.2533 129.58 14.3266 129.427C14.3998 129.274 14.5055 129.139 14.6362 129.031Z" fill="#DBBC78"/>
</g>
<path d="M46.9434 112.442C45.3085 114.411 42.694 115.365 40.1387 115.496C38.0015 115.605 35.883 115.2 33.8238 114.666C33.4463 114.567 32.9128 114.292 32.5259 114.298C32.139 114.304 31.5493 114.651 31.1469 114.807C30.1812 115.185 29.196 115.511 28.1953 115.783C27.1035 116.08 25.9835 116.261 24.8538 116.323C22.7977 116.42 20.6449 115.964 18.9508 114.841C17.7447 114.058 16.813 112.919 16.2857 111.581C15.7585 110.244 15.6619 108.775 16.0096 107.38C16.3572 105.984 17.1318 104.733 18.2251 103.799C19.3184 102.865 20.6759 102.296 22.1082 102.171C20.7089 100.723 19.7232 98.927 19.2538 96.9691C18.7843 95.0113 18.8482 92.9634 19.4388 91.0386C20.0294 89.1139 21.1251 87.3826 22.612 86.0251C24.0988 84.6675 25.9223 83.7333 27.8927 83.3197C29.863 82.9067 31.9081 83.0292 33.815 83.6747C35.7219 84.3202 37.4209 85.4649 38.7353 86.9898C40.0496 88.5147 40.9312 90.3641 41.2884 92.3453C41.6455 94.3266 41.465 96.3673 40.7658 98.2552C41.7861 97.7809 43.0809 97.6686 43.9638 98.3613C44.8468 99.0539 44.878 100.707 43.8515 101.169C44.3092 101.33 44.7485 101.539 45.1619 101.793C46.0389 102.325 46.7908 103.039 47.3663 103.888C47.9418 104.736 48.3273 105.699 48.4964 106.71C48.6656 107.722 48.6144 108.758 48.3463 109.747C48.0783 110.737 47.5998 111.657 46.9434 112.445V112.442Z" fill="#DBBC78"/>
<path d="M46.9438 112.441C45.3089 114.41 42.6944 115.365 40.1391 115.496C38.0019 115.605 35.8834 115.199 33.8242 114.666C33.4467 114.566 32.9132 114.291 32.5263 114.298C32.1394 114.304 31.5497 114.65 31.1473 114.806C30.1816 115.184 29.1964 115.51 28.1957 115.783C27.1039 116.079 25.9839 116.26 24.8542 116.323C22.7981 116.419 20.6453 115.964 18.9512 114.841C20.3459 114.894 21.7426 114.815 23.1226 114.607C26.7387 114.039 30.3392 112.22 32.1706 109.053C34.2267 109.256 36.3109 109.427 38.3545 109.112C40.3981 108.797 42.4323 107.952 43.7957 106.392C44.6663 105.414 45.1923 104.178 45.2933 102.872C45.2819 102.505 45.238 102.14 45.1623 101.78C46.0393 102.312 46.7912 103.026 47.3667 103.875C47.9422 104.723 48.3276 105.686 48.4968 106.697C48.6659 107.709 48.6147 108.745 48.3467 109.734C48.0787 110.724 47.6002 111.644 46.9438 112.432V112.441Z" fill="#CFAD65"/>
<path d="M36.7188 104.473C36.7113 104.461 36.7004 104.452 36.6875 104.447C36.6746 104.442 36.6604 104.441 36.647 104.445C36.6318 104.45 36.6192 104.461 36.6117 104.476C36.6042 104.49 36.6023 104.507 36.6065 104.523C36.8287 105.247 36.8481 106.019 36.6626 106.753C36.5751 107.102 36.4352 107.436 36.2477 107.743C36.0711 108.046 35.8515 108.323 35.5956 108.563C35.5332 108.625 35.4645 108.679 35.399 108.735C35.3308 108.788 35.26 108.838 35.1869 108.884C35.0446 108.976 34.8954 109.056 34.7407 109.125C34.5909 109.196 34.4287 109.259 34.2821 109.324L33.8078 109.521C33.5988 109.605 33.3773 109.686 33.1495 109.764L33.0996 108.501L33.0434 106.495V104.485C33.0434 101.802 33.1682 99.1157 33.3554 96.4169C33.3586 96.3809 33.3487 96.345 33.3275 96.3158C33.3062 96.2865 33.2752 96.2659 33.24 96.2578C33.2205 96.2527 33.2002 96.2516 33.1803 96.2545C33.1604 96.2575 33.1412 96.2644 33.1241 96.2748C33.1069 96.2853 33.092 96.2992 33.0803 96.3155C33.0686 96.3319 33.0603 96.3505 33.0559 96.3701C32.5536 98.342 32.1511 100.345 31.8266 102.361L31.7517 102.286C31.6294 102.161 31.4883 102.055 31.3337 101.974C31.1742 101.906 31.0242 101.818 30.8875 101.712C30.7587 101.6 30.6426 101.474 30.5412 101.337C30.4304 101.2 30.3361 101.05 30.2604 100.891C30.0911 100.556 30.0136 100.183 30.0357 99.8084C30.0361 99.7971 30.0334 99.7859 30.0279 99.776C30.0224 99.7661 30.0143 99.7579 30.0045 99.7522C29.9977 99.7478 29.9899 99.7448 29.9819 99.7436C29.9738 99.7423 29.9656 99.7427 29.9576 99.7447C29.9497 99.7468 29.9423 99.7504 29.9359 99.7555C29.9295 99.7605 29.9242 99.7668 29.9203 99.774C29.7064 100.163 29.6191 100.609 29.6707 101.05C29.6972 101.277 29.7485 101.499 29.8236 101.715C29.9046 101.933 30.0092 102.143 30.1356 102.339C30.2594 102.537 30.3948 102.727 30.5412 102.91C30.6863 103.089 30.8725 103.23 31.0841 103.321C31.263 103.399 31.4521 103.45 31.6457 103.474C31.5978 103.78 31.5541 104.086 31.5146 104.392L31.2713 106.423L31.0747 108.463L30.9499 110.51L30.8688 112.56C30.8688 113.243 30.8345 113.929 30.8064 114.616L30.7627 116.678C30.7627 117.365 30.7939 118.051 30.8469 118.737C30.9 119.424 31.0061 120.101 31.1184 120.778L31.3212 121.792C31.3992 122.126 31.4678 122.463 31.5489 122.797C31.7237 123.464 31.9077 124.129 32.1137 124.787C32.3196 125.445 32.5723 126.094 32.8344 126.737C33.1122 127.385 33.4246 128.017 33.7704 128.631C33.7828 128.652 33.7999 128.67 33.8205 128.684C33.841 128.697 33.8645 128.706 33.8889 128.709C33.9097 128.712 33.9308 128.711 33.9511 128.706C33.9714 128.7 33.9904 128.691 34.007 128.678C34.0236 128.665 34.0375 128.649 34.0477 128.631C34.058 128.613 34.0645 128.592 34.0668 128.572C34.1515 127.881 34.2015 127.186 34.2165 126.491C34.2477 125.804 34.2571 125.124 34.2509 124.453C34.2446 123.782 34.2509 123.105 34.2259 122.438C34.2259 122.104 34.2072 121.77 34.2009 121.436L34.1541 120.441C34.1292 119.776 34.0855 119.115 34.0169 118.453C33.9482 117.792 33.8796 117.137 33.7829 116.479L33.5114 114.497C33.4397 113.836 33.3679 113.174 33.3149 112.51L33.2057 110.781C33.5197 110.79 33.8338 110.763 34.1417 110.7C34.5836 110.615 35.0013 110.432 35.3647 110.167C35.7161 109.897 36.0308 109.582 36.3007 109.231C36.5747 108.891 36.7975 108.512 36.9621 108.108C37.1191 107.708 37.2148 107.287 37.2461 106.86C37.3171 106.029 37.1331 105.196 36.7188 104.473Z" fill="#C09A47"/>
<g style="mix-blend-mode:overlay" opacity="0.3">
<path d="M26.1209 94.4489C26.1209 95.4473 25.4969 96.2553 24.7294 96.2553C23.9619 96.2553 23.3379 95.4473 23.3379 94.4489C23.3379 93.4505 23.9619 92.6455 24.7294 92.6455C25.4969 92.6455 26.1209 93.4536 26.1209 94.4489Z" fill="white"/>
<path d="M28.2833 88.4991C28.7882 88.4991 29.1975 87.9683 29.1975 87.3135C29.1975 86.6587 28.7882 86.1279 28.2833 86.1279C27.7784 86.1279 27.3691 86.6587 27.3691 87.3135C27.3691 87.9683 27.7784 88.4991 28.2833 88.4991Z" fill="white"/>
<path d="M30.7356 90.3056C30.7117 90.3984 30.6622 90.4826 30.5927 90.5486C30.5233 90.6146 30.4367 90.6598 30.3428 90.679C30.249 90.6982 30.1516 90.6907 30.0618 90.6573C29.972 90.6239 29.8934 90.5659 29.8349 90.49C29.7764 90.4142 29.7404 90.3234 29.731 90.228C29.7216 90.1327 29.7391 90.0366 29.7816 89.9508C29.8241 89.8649 29.8898 89.7927 29.9713 89.7423C30.0529 89.692 30.1469 89.6656 30.2427 89.666C30.3918 89.6878 30.5266 89.7666 30.6186 89.886C30.7106 90.0054 30.7526 90.1559 30.7356 90.3056Z" fill="white"/>
<path d="M23.2602 97.5686C23.2356 97.6614 23.1853 97.7455 23.1152 97.8111C23.0451 97.8767 22.9579 97.9212 22.8637 97.9397C22.7694 97.9581 22.6719 97.9496 22.5823 97.9152C22.4926 97.8808 22.4145 97.8218 22.3567 97.7451C22.299 97.6684 22.264 97.5769 22.2558 97.4813C22.2476 97.3856 22.2664 97.2895 22.3102 97.2041C22.354 97.1186 22.421 97.0472 22.5035 96.998C22.5859 96.9488 22.6806 96.9238 22.7766 96.9259C22.9246 96.9498 23.0576 97.0301 23.1478 97.1499C23.2379 97.2697 23.2782 97.4198 23.2602 97.5686Z" fill="white"/>
<path d="M23.9688 89.6659C23.9554 89.7159 23.9282 89.7612 23.8904 89.7967C23.8526 89.8321 23.8056 89.8563 23.7548 89.8664C23.704 89.8765 23.6513 89.8722 23.6028 89.854C23.5543 89.8358 23.5119 89.8043 23.4803 89.7632C23.4487 89.7221 23.4293 89.673 23.4242 89.6214C23.4191 89.5698 23.4285 89.5178 23.4515 89.4713C23.4744 89.4249 23.5098 89.3857 23.5538 89.3583C23.5978 89.3309 23.6486 89.3164 23.7005 89.3164C23.7823 89.3273 23.8565 89.3702 23.9068 89.4357C23.9571 89.5012 23.9794 89.584 23.9688 89.6659Z" fill="white"/>
<path d="M30.3733 87.3167C30.6766 87.3167 30.9225 86.9968 30.9225 86.6022C30.9225 86.2076 30.6766 85.8877 30.3733 85.8877C30.0701 85.8877 29.8242 86.2076 29.8242 86.6022C29.8242 86.9968 30.0701 87.3167 30.3733 87.3167Z" fill="white"/>
</g>
<path d="M115.692 34.0859H35.8516V51.3489H115.692V34.0859Z" fill="#DBBC78"/>
<g style="mix-blend-mode:multiply">
<path d="M115.692 34.0859H35.8516V35.518H115.692V34.0859Z" fill="#DBBC78"/>
</g>
<path d="M115.115 28.2422H36.4258V32.2919H115.115V28.2422Z" fill="#DBBC78"/>
<g style="mix-blend-mode:multiply">
<path d="M115.115 28.2422H36.4258V29.0035H115.115V28.2422Z" fill="#DBBC78"/>
</g>
<path d="M116.66 31.4619H34.8814C34.647 31.4619 34.457 31.6519 34.457 31.8862V34.2574C34.457 34.4918 34.647 34.6818 34.8814 34.6818H116.66C116.894 34.6818 117.084 34.4918 117.084 34.2574V31.8862C117.084 31.6519 116.894 31.4619 116.66 31.4619Z" fill="#B48F4B"/>
<path d="M116.694 25.0879H34.847C34.6316 25.0879 34.457 25.2625 34.457 25.4779V27.9177C34.457 28.1331 34.6316 28.3077 34.847 28.3077H116.694C116.909 28.3077 117.084 28.1331 117.084 27.9177V25.4779C117.084 25.2625 116.909 25.0879 116.694 25.0879Z" fill="#B48F4B"/>
<path d="M115.69 73.1768H37.3496V129.895H115.69V73.1768Z" fill="#DBBC78"/>
<path d="M116.242 121.384H36.8004C36.5471 121.384 36.3418 121.589 36.3418 121.842V129.44C36.3418 129.693 36.5471 129.898 36.8004 129.898H116.242C116.495 129.898 116.701 129.693 116.701 129.44V121.842C116.701 121.589 116.495 121.384 116.242 121.384Z" fill="#C7A355"/>
<g style="mix-blend-mode:multiply">
<path d="M115.69 73.1768V80.515H115.487C115.051 80.5146 114.619 80.4283 114.217 80.2611C113.814 80.0939 113.448 79.849 113.14 79.5405C112.832 79.2319 112.588 78.8657 112.422 78.4628C112.255 78.0599 112.17 77.6281 112.17 77.1922C112.171 77.6284 112.085 78.0604 111.919 78.4635C111.752 78.8667 111.507 79.233 111.199 79.5416C110.891 79.8502 110.525 80.095 110.122 80.262C109.719 80.429 109.287 80.515 108.851 80.515H107.952C107.516 80.515 107.084 80.429 106.681 80.262C106.278 80.095 105.912 79.8502 105.604 79.5416C105.295 79.233 105.051 78.8667 104.884 78.4635C104.718 78.0604 104.632 77.6284 104.632 77.1922C104.633 77.6281 104.547 78.0599 104.381 78.4628C104.214 78.8657 103.97 79.2319 103.662 79.5405C103.354 79.849 102.989 80.0939 102.586 80.2611C102.183 80.4283 101.752 80.5146 101.316 80.515H100.417C99.9809 80.515 99.5489 80.4291 99.1457 80.2621C98.7426 80.0951 98.3763 79.8503 98.0677 79.5418C97.7592 79.2332 97.5144 78.8669 97.3474 78.4638C97.1804 78.0606 97.0945 77.6286 97.0945 77.1922C97.0949 77.6281 97.0094 78.0599 96.843 78.4628C96.6765 78.8657 96.4324 79.2319 96.1244 79.5405C95.8164 79.849 95.4507 80.0939 95.0481 80.2611C94.6455 80.4283 94.2139 80.5146 93.7779 80.515H92.8825C92.4465 80.5146 92.0149 80.4283 91.6123 80.2611C91.2097 80.0939 90.844 79.849 90.536 79.5405C90.2281 79.2319 89.9839 78.8657 89.8174 78.4628C89.651 78.0599 89.5655 77.6281 89.5659 77.1922C89.5663 77.6284 89.4808 78.0604 89.3141 78.4635C89.1475 78.8667 88.903 79.233 88.5947 79.5416C88.2864 79.8502 87.9203 80.095 87.5174 80.262C87.1144 80.429 86.6825 80.515 86.2463 80.515H85.3508C84.9146 80.515 84.4827 80.429 84.0797 80.262C83.6767 80.095 83.3106 79.8502 83.0023 79.5416C82.694 79.233 82.4496 78.8667 82.2829 78.4635C82.1163 78.0604 82.0307 77.6284 82.0311 77.1922C82.0315 77.6281 81.9461 78.0599 81.7796 78.4628C81.6132 78.8657 81.369 79.2319 81.061 79.5405C80.7531 79.849 80.3873 80.0939 79.9847 80.2611C79.5821 80.4283 79.1505 80.5146 78.7146 80.515H77.816C77.3801 80.5146 76.9485 80.4283 76.5459 80.2611C76.1433 80.0939 75.7775 79.849 75.4696 79.5405C75.1616 79.2319 74.9174 78.8657 74.7509 78.4628C74.5845 78.0599 74.499 77.6281 74.4995 77.1922C74.4999 77.6284 74.4143 78.0604 74.2477 78.4635C74.081 78.8667 73.8365 79.233 73.5282 79.5416C73.2199 79.8502 72.8538 80.095 72.4509 80.262C72.0479 80.429 71.616 80.515 71.1798 80.515H70.2843C69.848 80.515 69.4159 80.4291 69.0128 80.2621C68.6096 80.0951 68.2433 79.8503 67.9348 79.5418C67.6262 79.2332 67.3814 78.8669 67.2145 78.4638C67.0475 78.0606 66.9615 77.6286 66.9615 77.1922C66.9624 78.0721 66.6138 78.9163 65.9925 79.5394C65.3712 80.1624 64.528 80.5133 63.6481 80.515H62.7527C62.3164 80.515 61.8845 80.429 61.4815 80.262C61.0786 80.095 60.7125 79.8502 60.4042 79.5416C60.0959 79.233 59.8514 78.8667 59.6848 78.4635C59.5181 78.0604 59.4326 77.6284 59.433 77.1922C59.4334 77.6281 59.3479 78.0599 59.1815 78.4628C59.015 78.8657 58.7708 79.2319 58.4629 79.5405C58.1549 79.849 57.7892 80.0939 57.3866 80.2611C56.984 80.4283 56.5524 80.5146 56.1164 80.515H55.2241C54.7881 80.5146 54.3565 80.4283 53.9539 80.2611C53.5513 80.0939 53.1856 79.849 52.8776 79.5405C52.5697 79.2319 52.3255 78.8657 52.159 78.4628C51.9926 78.0599 51.9071 77.6281 51.9075 77.1922C51.9079 77.6284 51.8224 78.0604 51.6557 78.4635C51.4891 78.8667 51.2446 79.233 50.9363 79.5416C50.628 79.8502 50.2619 80.095 49.859 80.262C49.456 80.429 49.0241 80.515 48.5878 80.515H47.6924C47.2562 80.515 46.8243 80.429 46.4213 80.262C46.0183 80.095 45.6522 79.8502 45.3439 79.5416C45.0356 79.233 44.7912 78.8667 44.6245 78.4635C44.4579 78.0604 44.3723 77.6284 44.3727 77.1922C44.3731 77.6281 44.2877 78.0599 44.1212 78.4628C43.9548 78.8657 43.7106 79.2319 43.4026 79.5405C43.0947 79.849 42.7289 80.0939 42.3263 80.2611C41.9237 80.4283 41.4921 80.5146 41.0562 80.515H40.1576C39.598 80.5171 39.047 80.3774 38.556 80.109C38.065 79.8405 37.65 79.4521 37.3496 78.98V73.1768H115.69Z" fill="#D2C29F"/>
</g>
<path d="M61.012 84.293H41.3311V124.55H61.012V84.293Z" fill="#E09764"/>
<path d="M59.9387 85.3662H42.4043V123.48H59.9387V85.3662Z" fill="#F2F1D0"/>
<g style="mix-blend-mode:overlay" opacity="0.5">
<path d="M59.9385 85.3662V86.9106L49.786 123.477H46.0732L56.6563 85.3662H59.9385Z" fill="white"/>
</g>
<path d="M59.9382 104.81H57.2238C57.1212 104.81 57.0228 104.769 56.9502 104.697C56.8777 104.624 56.8369 104.526 56.8369 104.423C56.8365 104.372 56.8462 104.322 56.8655 104.274C56.8848 104.227 56.9133 104.185 56.9493 104.149C56.9853 104.113 57.0281 104.084 57.0753 104.065C57.1224 104.045 57.1729 104.036 57.2238 104.036H59.9382V104.81Z" fill="#E09764"/>
<path d="M111.708 84.293H63.9346V110.417H111.708V84.293Z" fill="#E09764"/>
<path d="M110.458 85.3633H65.1895V109.34H110.458V85.3633Z" fill="#F2F1D0"/>
<g style="mix-blend-mode:overlay" opacity="0.5">
<path d="M83.3451 85.3633L77.0489 109.34H75.0146L81.3077 85.3633H83.3451Z" fill="white"/>
<path d="M100.548 85.3633L94.2553 109.34H92.2148L98.5141 85.3633H100.548Z" fill="white"/>
</g>
<path d="M64.054 127.1H38.2891V129.895H64.054V127.1Z" fill="#B55134"/>
<path d="M64.054 127.1H38.2891L39.431 126.429H62.9121L64.054 127.1Z" fill="#CE6F54"/>
<path d="M62.1689 124.847H40.1729V126.429H62.1689V124.847Z" fill="#B55134"/>
<path d="M62.1698 124.847H40.1738L41.1504 124.47H61.1933L62.1698 124.847Z" fill="#CE6F54"/>
<path d="M36.0988 71.8282H28.748L32.4234 52.1348H39.2094L36.0988 71.8282Z" fill="#F2F1D0"/>
<path d="M43.4494 71.8282H36.0986L39.2093 52.1348H45.9922L43.4494 71.8282Z" fill="#CE6F54"/>
<path d="M50.7968 71.8282H43.4492L45.992 52.1348H52.7749L50.7968 71.8282Z" fill="#F2F1D0"/>
<path d="M58.1476 71.8282H50.7969L52.775 52.1348H59.561L58.1476 71.8282Z" fill="#CE6F54"/>
<path d="M65.4951 71.8282H58.1475L59.5608 52.1348H66.3437L65.4951 71.8282Z" fill="#F2F1D0"/>
<path d="M72.8458 71.8282H65.4951L66.3438 52.1348H73.1266L72.8458 71.8282Z" fill="#CE6F54"/>
<path d="M80.1964 71.8282H72.8457L73.1265 52.1348H79.9125L80.1964 71.8282Z" fill="#F2F1D0"/>
<path d="M87.5436 71.8282H80.196L79.9121 52.1348H86.695L87.5436 71.8282Z" fill="#CE6F54"/>
<path d="M94.8947 71.8282H87.544L86.6953 52.1348H93.4813L94.8947 71.8282Z" fill="#F2F1D0"/>
<path d="M102.242 71.8282H94.8948L93.4814 52.1348H100.264L102.242 71.8282Z" fill="#CE6F54"/>
<path d="M109.592 71.8282H102.242L100.264 52.1348H107.047L109.592 71.8282Z" fill="#F2F1D0"/>
<path d="M116.94 71.8282H109.593L107.047 52.1348H113.833L116.94 71.8282Z" fill="#CE6F54"/>
<path d="M124.291 71.8282H116.941L113.833 52.1348H120.616L124.291 71.8282Z" fill="#F2F1D0"/>
<path d="M28.751 71.8291H36.0986V74.8961C36.0986 75.7235 35.7699 76.5171 35.1847 77.1022C34.5996 77.6873 33.8061 78.0161 32.9786 78.0161H31.8866C31.0591 78.0161 30.2655 77.6873 29.6804 77.1022C29.0953 76.5171 28.7666 75.7235 28.7666 74.8961V71.8291H28.751Z" fill="#E5D995"/>
<path d="M36.0986 71.8291H43.4494V74.8961C43.4494 75.7235 43.1206 76.5171 42.5355 77.1022C41.9504 77.6873 41.1568 78.0161 40.3294 78.0161H39.2374C38.4099 78.0161 37.6163 77.6873 37.0312 77.1022C36.4461 76.5171 36.1174 75.7235 36.1174 74.8961V71.8291H36.0986Z" fill="#B55134"/>
<path d="M43.4492 71.8291H50.7999V74.8961C50.7999 75.7235 50.4712 76.5171 49.8861 77.1022C49.301 77.6873 48.5074 78.0161 47.6799 78.0161H46.5879C45.7605 78.0161 44.9669 77.6873 44.3818 77.1022C43.7967 76.5171 43.4679 75.7235 43.4679 74.8961V71.8291H43.4492Z" fill="#E5D995"/>
<path d="M50.7969 71.8291H58.1476V74.8961C58.1476 75.7235 57.8189 76.5171 57.2338 77.1022C56.6487 77.6873 55.8551 78.0161 55.0276 78.0161H53.9356C53.1081 78.0161 52.3145 77.6873 51.7294 77.1022C51.1443 76.5171 50.8156 75.7235 50.8156 74.8961V71.8291H50.7969Z" fill="#B55134"/>
<path d="M58.1475 71.8291H65.4982V74.8961C65.4982 75.7235 65.1695 76.5171 64.5844 77.1022C63.9992 77.6873 63.2057 78.0161 62.3782 78.0161H61.2862C60.4587 78.0161 59.6651 77.6873 59.08 77.1022C58.4949 76.5171 58.1662 75.7235 58.1662 74.8961V71.8291H58.1475Z" fill="#E5D995"/>
<path d="M65.4951 71.8291H72.8458V74.8961C72.8458 75.7235 72.5171 76.5171 71.932 77.1022C71.3469 77.6873 70.5533 78.0161 69.7258 78.0161H68.6338C67.8064 78.0161 67.0128 77.6873 66.4277 77.1022C65.8426 76.5171 65.5138 75.7235 65.5138 74.8961V71.8291H65.4951Z" fill="#B55134"/>
<path d="M72.8457 71.8291H80.1839V74.8961C80.1839 75.7235 79.8552 76.5171 79.2701 77.1022C78.685 77.6873 77.8914 78.0161 77.0639 78.0161H75.9719C75.1445 78.0161 74.3509 77.6873 73.7658 77.1022C73.1807 76.5171 72.8519 75.7235 72.8519 74.8961V71.8291H72.8457Z" fill="#E5D995"/>
<path d="M80.1836 71.8291H87.5343V74.8961C87.5343 75.7235 87.2056 76.5171 86.6205 77.1022C86.0354 77.6873 85.2418 78.0161 84.4143 78.0161H83.3223C82.4948 78.0161 81.7013 77.6873 81.1161 77.1022C80.531 76.5171 80.2023 75.7235 80.2023 74.8961V71.8291H80.1836Z" fill="#B55134"/>
<path d="M87.5439 71.8291H94.8947V74.8961C94.8947 75.7235 94.566 76.5171 93.9808 77.1022C93.3957 77.6873 92.6021 78.0161 91.7747 78.0161H90.6827C89.8552 78.0161 89.0616 77.6873 88.4765 77.1022C87.8914 76.5171 87.5627 75.7235 87.5627 74.8961V71.8291H87.5439Z" fill="#E5D995"/>
<path d="M94.8945 71.8291H102.242V74.8961C102.242 75.3058 102.161 75.7115 102.005 76.09C101.848 76.4686 101.618 76.8125 101.328 77.1022C101.039 77.392 100.695 77.6218 100.316 77.7786C99.9376 77.9354 99.5319 78.0161 99.1221 78.0161H98.0301C97.2027 78.0161 96.4091 77.6873 95.824 77.1022C95.2388 76.5171 94.9101 75.7235 94.9101 74.8961V71.8291H94.8945Z" fill="#B55134"/>
<path d="M102.242 71.8291H109.593V74.8961C109.593 75.7235 109.264 76.5171 108.679 77.1022C108.094 77.6873 107.3 78.0161 106.473 78.0161H105.381C104.553 78.0161 103.76 77.6873 103.175 77.1022C102.59 76.5171 102.261 75.7235 102.261 74.8961V71.8291H102.242Z" fill="#E5D995"/>
<path d="M116.941 71.8291H124.292V74.8961C124.292 75.7235 123.963 76.5171 123.378 77.1022C122.793 77.6873 122 78.0161 121.172 78.0161H120.08C119.253 78.0161 118.459 77.6873 117.874 77.1022C117.289 76.5171 116.96 75.7235 116.96 74.8961V71.8291H116.941Z" fill="#E5D995"/>
<path d="M109.594 71.8291H116.944V74.8961C116.944 75.7235 116.616 76.5171 116.031 77.1022C115.446 77.6873 114.652 78.0161 113.824 78.0161H112.732C111.905 78.0161 111.111 77.6873 110.526 77.1022C109.941 76.5171 109.612 75.7235 109.612 74.8961V71.8291H109.594Z" fill="#B55134"/>
<g style="mix-blend-mode:multiply">
<path d="M124.292 71.829H28.748L28.8011 71.5513C44.2763 71.3142 59.8108 70.8431 74.9771 67.7543C80.3538 66.6748 85.6472 65.2151 90.8173 63.3863C98.5393 60.6282 105.974 56.9435 112.629 52.1543H120.632L124.292 71.829Z" fill="#F2F1D0"/>
</g>
<path d="M120.647 52.4753H32.3919C32.2861 52.4758 32.1812 52.4552 32.0833 52.4149C31.9855 52.3746 31.8966 52.3153 31.8218 52.2405C31.7469 52.1657 31.6877 52.0768 31.6474 51.9789C31.607 51.8811 31.5865 51.7762 31.5869 51.6704C31.5865 51.5644 31.607 51.4594 31.6473 51.3614C31.6876 51.2634 31.7468 51.1742 31.8216 51.0992C31.8964 51.0241 31.9852 50.9645 32.0831 50.9239C32.181 50.8832 32.2859 50.8623 32.3919 50.8623H120.647C120.862 50.8623 121.067 50.9474 121.219 51.099C121.37 51.2505 121.455 51.4561 121.455 51.6704C121.455 51.7764 121.434 51.8813 121.394 51.9792C121.353 52.077 121.294 52.1659 121.219 52.2407C121.143 52.3155 121.054 52.3747 120.956 52.415C120.858 52.4552 120.753 52.4758 120.647 52.4753Z" fill="#CE6F54"/>
<path d="M113.493 37.5146H38.9346V47.9167H113.493V37.5146Z" fill="#E09764"/>
<path d="M112.42 38.4668H40.0078V46.9657H112.42V38.4668Z" fill="#F2F1D0"/>
<g style="mix-blend-mode:multiply">
<path d="M40.0078 38.4668V39.0814H111.805V46.9657H112.42V38.4668H40.0078Z" fill="#F2F1D0"/>
</g>
<g style="mix-blend-mode:overlay" opacity="0.5">
<path d="M77.3604 38.4668L73.0673 46.9657H69.7383L74.0314 38.4668H77.3604Z" fill="white"/>
<path d="M92.1178 38.4668L87.8309 46.9657H86.2959L90.589 38.4668H92.1178Z" fill="white"/>
</g>
<g style="mix-blend-mode:multiply">
<path d="M107.306 114.255H100.892V116.511H107.306V114.255Z" fill="#DBBC78"/>
</g>
<g style="mix-blend-mode:multiply">
<path d="M101.967 117.786H95.5527V120.042H101.967V117.786Z" fill="#DBBC78"/>
</g>
<g style="mix-blend-mode:multiply">
<path d="M90.2956 111.699H83.8809V113.955H90.2956V111.699Z" fill="#DBBC78"/>
</g>
<g style="mix-blend-mode:multiply">
<path d="M40.557 94.0996H37.3496V96.3554H40.557V94.0996Z" fill="#DBBC78"/>
</g>
<g style="mix-blend-mode:multiply">
<path d="M41.3304 107.391H38.7314V109.646H41.3304V107.391Z" fill="#DBBC78"/>
</g>
<g style="mix-blend-mode:multiply">
<path d="M115.689 81.0576H112.139V83.3134H115.689V81.0576Z" fill="#DBBC78"/>
</g>
<g style="mix-blend-mode:multiply">
<path d="M108.732 123.399H105.275V124.654H108.732V123.399Z" fill="#F9A66A"/>
</g>
<g style="mix-blend-mode:multiply">
<path d="M97.2812 125.854H93.8242V127.106H97.2812V125.854Z" fill="#F9A66A"/>
</g>
<g style="mix-blend-mode:multiply">
<path d="M95.0878 124.176H91.6309V125.427H95.0878V124.176Z" fill="#F9A66A"/>
</g>
<g style="mix-blend-mode:multiply">
<path d="M89.0263 126.029H85.5693V127.28H89.0263V126.029Z" fill="#F9A66A"/>
</g>
<g style="mix-blend-mode:multiply">
<path d="M65.7822 122.226H62.3252V123.477H65.7822V122.226Z" fill="#F9A66A"/>
</g>
<path d="M28.2045 110.354H27.1437V70.4839C27.1437 69.4247 26.7229 68.4089 25.974 67.66C25.2251 66.9111 24.2093 66.4903 23.1501 66.4903C22.0909 66.4903 21.0751 66.9111 20.3262 67.66C19.5773 68.4089 19.1565 69.4247 19.1565 70.4839V72.2717H18.0957V70.4839C18.0957 69.1442 18.6279 67.8594 19.5752 66.9121C20.5225 65.9648 21.8073 65.4326 23.147 65.4326C24.4867 65.4326 25.7715 65.9648 26.7188 66.9121C27.6661 67.8594 28.1983 69.1442 28.1983 70.4839L28.2045 110.354Z" fill="#B55134"/>
<path d="M23.7622 66.4902C23.6592 66.4902 23.5594 66.4902 23.4502 66.4902C24.4566 66.5659 25.3971 67.0199 26.0824 67.7608C26.7677 68.5017 27.1471 69.4746 27.1443 70.4838V110.354H27.7683V70.4838C27.7675 69.9586 27.6632 69.4386 27.4614 68.9536C27.2597 68.4687 26.9643 68.0282 26.5923 67.6573C26.2203 67.2865 25.7789 66.9926 25.2933 66.7923C24.8077 66.5921 24.2875 66.4894 23.7622 66.4902Z" fill="#CE6F54"/>
<path d="M22.6229 74.6025C22.5824 74.6156 22.5405 74.624 22.4981 74.6275H14.7418C14.6994 74.624 14.6575 74.6156 14.617 74.6025C13.9752 75.365 13.5645 76.295 13.4333 77.283C13.302 78.271 13.4557 79.2759 13.8762 80.1795C14.2967 81.0831 14.9666 81.8478 15.807 82.3837C16.6473 82.9195 17.6233 83.2041 18.6199 83.2041C19.6166 83.2041 20.5925 82.9195 21.4329 82.3837C22.2733 81.8478 22.9431 81.0831 23.3637 80.1795C23.7842 79.2759 23.9379 78.271 23.8066 77.283C23.6754 76.295 23.2647 75.365 22.6229 74.6025Z" fill="#F9A66A"/>
<g style="mix-blend-mode:overlay" opacity="0.3">
<path d="M16.9665 80.1999C16.4019 79.9958 15.9336 79.5887 15.6529 79.058L15.6717 79.1079C15.6163 78.9667 15.5796 78.8188 15.5625 78.668C15.5625 78.5183 15.5937 78.3779 15.5937 78.2312C15.5967 78.1141 15.5606 77.9993 15.4911 77.9049C15.4216 77.8105 15.3227 77.742 15.2099 77.7102C15.0747 77.6745 14.9308 77.693 14.809 77.7617C14.6872 77.8305 14.5971 77.9441 14.5578 78.0783C14.4848 78.435 14.4934 78.8036 14.5831 79.1564C14.6728 79.5093 14.8412 79.8372 15.0757 80.1157C15.5085 80.6162 16.063 80.9966 16.6857 81.2202C16.7525 81.2391 16.8223 81.2445 16.8912 81.2362C16.9602 81.2279 17.0267 81.206 17.0871 81.1717C17.1475 81.1375 17.2004 81.0916 17.2429 81.0367C17.2854 80.9818 17.3166 80.919 17.3346 80.852C17.3609 80.7254 17.3418 80.5935 17.2808 80.4795C17.2198 80.3655 17.1207 80.2765 17.0008 80.228L16.9665 80.1999Z" fill="white"/>
</g>
<g style="mix-blend-mode:multiply">
<path d="M14.7433 74.6277C14.7006 74.6242 14.6584 74.6157 14.6177 74.6025C14.6177 74.6025 14.6177 74.6025 14.5957 74.6277H14.7433Z" fill="#F2F1D0"/>
<path d="M22.6233 74.6025C22.5828 74.6156 22.5409 74.624 22.4985 74.6275H20.9385C21.5266 75.335 21.9174 76.1852 22.0714 77.0922C22.2253 77.9992 22.137 78.9308 21.8153 79.7927C21.4936 80.6546 20.9499 81.4162 20.2393 82.0005C19.5287 82.5848 18.6764 82.971 17.7686 83.1201C18.8231 83.2972 19.9065 83.1464 20.8726 82.688C21.8386 82.2296 22.6407 81.4857 23.1704 80.5569C23.7002 79.6281 23.9321 78.559 23.8348 77.4942C23.7375 76.4293 23.3157 75.42 22.6264 74.6025H22.6233Z" fill="#F9A66A"/>
</g>
<path d="M21.3129 73.56H15.9277C15.9277 73.1463 16.0921 72.7495 16.3846 72.4569C16.6772 72.1644 17.074 72 17.4877 72H19.7341C20.1479 72 20.5447 72.1644 20.8372 72.4569C21.1298 72.7495 21.2941 73.1463 21.2941 73.56H21.3129Z" fill="#DBBC78"/>
<path d="M22.5012 73.0078H14.7417C14.454 73.0078 14.2207 73.2411 14.2207 73.5289V74.1029C14.2207 74.3907 14.454 74.624 14.7417 74.624H22.5012C22.7889 74.624 23.0222 74.3907 23.0222 74.1029V73.5289C23.0222 73.2411 22.7889 73.0078 22.5012 73.0078Z" fill="#9AC3B1"/>
<path d="M26.7167 109.952H28.6324C28.6746 109.952 28.7151 109.969 28.7449 109.999C28.7748 110.029 28.7915 110.069 28.7915 110.111V110.557H26.5576V110.111C26.5576 110.069 26.5744 110.029 26.6042 109.999C26.6341 109.969 26.6745 109.952 26.7167 109.952Z" fill="#CE6F54"/>
<path d="M27.0188 110.407H28.3292C28.7041 110.407 29.0636 110.556 29.3286 110.821C29.5937 111.086 29.7426 111.446 29.7426 111.821V129.48H25.6055V111.821C25.6055 111.446 25.7544 111.086 26.0194 110.821C26.2845 110.556 26.644 110.407 27.0188 110.407Z" fill="#B55134"/>
<path d="M28.3293 110.407H27.0127C27.3859 110.41 27.743 110.56 28.006 110.824C28.2691 111.089 28.4167 111.447 28.4167 111.821V129.48H29.7458V111.821C29.7458 111.635 29.7092 111.451 29.6379 111.279C29.5667 111.107 29.4623 110.951 29.3307 110.82C29.1992 110.689 29.043 110.585 28.8712 110.514C28.6993 110.443 28.5152 110.407 28.3293 110.407Z" fill="#CE6F54"/>
<path d="M31.1006 129.221H24.2491C24.063 129.221 23.9121 129.372 23.9121 129.558C23.9121 129.744 24.063 129.895 24.2491 129.895H31.1006C31.2867 129.895 31.4376 129.744 31.4376 129.558C31.4376 129.372 31.2867 129.221 31.1006 129.221Z" fill="#B55134"/>
<path d="M122.164 120.029C122.073 120.267 121.942 120.487 121.777 120.681C121.508 120.865 121.199 120.98 120.875 121.018C119.97 121.238 119.052 121.4 118.126 121.505C116.279 121.714 114.413 121.686 112.573 121.424C112.176 121.397 111.792 121.266 111.462 121.043C111.063 120.731 110.919 120.188 110.819 119.689C110.767 119.445 110.729 119.198 110.704 118.95C110.676 118.665 110.691 118.378 110.748 118.098C110.792 117.833 110.904 117.584 111.073 117.375C111.242 117.167 111.462 117.005 111.712 116.906C111.485 116.726 111.321 116.478 111.244 116.199C111.166 115.92 111.179 115.624 111.28 115.352C111.381 115.081 111.565 114.849 111.806 114.688C112.048 114.528 112.333 114.448 112.623 114.46C112.534 113.62 112.616 112.771 112.863 111.964C112.989 111.56 113.193 111.185 113.465 110.86C113.736 110.536 114.069 110.268 114.445 110.073C115.556 109.543 116.978 109.927 117.805 110.838C118.204 111.309 118.488 111.867 118.634 112.467C118.781 113.067 118.787 113.692 118.651 114.295C118.798 114.311 118.94 114.357 119.068 114.43C119.197 114.504 119.309 114.604 119.397 114.723C119.485 114.842 119.547 114.978 119.58 115.122C119.612 115.266 119.615 115.416 119.587 115.561C119.844 115.565 120.099 115.605 120.345 115.68C120.774 115.804 121.172 116.02 121.509 116.313C121.846 116.606 122.116 116.969 122.298 117.377C122.47 117.802 122.548 118.26 122.524 118.718C122.501 119.176 122.378 119.624 122.164 120.029Z" fill="#D2B067"/>
<path d="M122.164 120.03C122.073 120.267 121.942 120.488 121.777 120.682C121.508 120.865 121.199 120.981 120.875 121.019C119.97 121.238 119.052 121.401 118.127 121.505C116.279 121.714 114.413 121.687 112.573 121.424C112.176 121.398 111.792 121.266 111.462 121.044C111.063 120.732 110.919 120.189 110.82 119.689C110.767 119.445 110.729 119.198 110.704 118.95C113.321 119.004 115.924 118.547 118.367 117.605C119.01 117.408 119.586 117.038 120.033 116.535C120.217 116.283 120.325 115.983 120.345 115.671C120.774 115.795 121.172 116.011 121.509 116.304C121.846 116.597 122.116 116.96 122.298 117.368C122.472 117.795 122.55 118.254 122.527 118.714C122.504 119.174 122.38 119.623 122.164 120.03Z" fill="#AA7729"/>
<path d="M122.182 121.471L121.927 123.268L120.969 130.016H112.429L111.475 123.268L111.219 121.471H122.182Z" fill="#F2F1D0"/>
<g style="mix-blend-mode:multiply">
<path d="M122.182 121.471L121.927 123.268H111.475L111.219 121.471H122.182Z" fill="#F2F1D0"/>
</g>
<path d="M122.501 122.553H110.901L110.592 119.617H122.807L122.501 122.553Z" fill="#F2F1D0"/>
<g style="mix-blend-mode:overlay" opacity="0.3">
<path d="M114.785 113.162C114.785 113.643 114.52 114.033 114.192 114.033C113.865 114.033 113.6 113.643 113.6 113.162C113.6 112.682 113.865 112.292 114.192 112.292C114.52 112.292 114.785 112.682 114.785 113.162Z" fill="white"/>
<path d="M115.968 114.191C115.968 114.438 115.834 114.637 115.656 114.637C115.478 114.637 115.344 114.438 115.344 114.191C115.344 113.945 115.481 113.745 115.656 113.745C115.83 113.745 115.968 113.948 115.968 114.191Z" fill="white"/>
<path d="M113.705 114.981C113.705 115.228 113.568 115.427 113.393 115.427C113.218 115.427 113.081 115.228 113.081 114.981C113.081 114.735 113.218 114.535 113.393 114.535C113.568 114.535 113.705 114.735 113.705 114.981Z" fill="white"/>
<path d="M115.82 111.696C115.82 111.824 115.751 111.927 115.664 111.927C115.577 111.927 115.505 111.824 115.505 111.696C115.505 111.568 115.577 111.465 115.664 111.465C115.751 111.465 115.82 111.555 115.82 111.696Z" fill="white"/>
</g>
<path d="M36.3888 118.716C36.3782 119.497 36.2336 120.271 35.9613 121.003C35.8116 121.402 35.6212 122.054 35.1969 122.251C34.654 122.507 33.9084 122.535 33.3249 122.619C31.8788 122.828 30.4175 122.913 28.9569 122.872H28.6449C27.8923 122.882 27.1533 122.67 26.5202 122.263C26.399 122.169 26.2862 122.065 26.1832 121.951C25.7798 121.472 25.4802 120.914 25.3034 120.313C25.1604 119.928 25.0559 119.53 24.9914 119.125C24.921 118.704 24.9369 118.273 25.0382 117.858C25.2535 117.05 25.996 116.329 26.8291 116.401C26.5213 116.15 26.3243 115.789 26.2807 115.394C26.237 114.999 26.3502 114.603 26.5958 114.291C26.8414 113.98 27.1998 113.777 27.5936 113.727C27.9874 113.676 28.3852 113.783 28.7011 114.023C28.5748 113.425 28.6635 112.801 28.9516 112.262C29.2397 111.723 29.7088 111.302 30.2763 111.075C30.8438 110.847 31.4735 110.827 32.0545 111.017C32.6355 111.208 33.1306 111.597 33.4528 112.117C33.9089 112.956 34.0144 113.94 33.7461 114.856C33.8885 114.829 34.0357 114.845 34.1694 114.901C34.3031 114.956 34.4175 115.05 34.4983 115.171C34.5791 115.291 34.6227 115.433 34.6238 115.577C34.6248 115.722 34.5833 115.864 34.5043 115.986C34.7889 115.989 35.0673 116.07 35.3092 116.22C35.5929 116.395 35.828 116.638 35.9925 116.928C36.2813 117.478 36.4181 118.095 36.3888 118.716Z" fill="#D2B067"/>
<g style="mix-blend-mode:multiply">
<path d="M36.388 118.716C36.3775 119.497 36.2329 120.271 35.9606 121.003C35.8108 121.403 35.6205 122.055 35.1962 122.251C34.6533 122.507 33.9076 122.535 33.3242 122.619C31.8781 122.829 30.4167 122.913 28.9562 122.872H28.6442C27.7866 122.705 26.963 122.397 26.2075 121.958C25.804 121.479 25.5044 120.921 25.3276 120.32C25.1846 119.935 25.0801 119.537 25.0156 119.131C27.2402 119.755 29.6582 119.64 31.942 119.194C32.8156 119.022 33.7142 118.791 34.4006 118.223C34.7492 117.94 35.0136 117.567 35.165 117.144C35.2679 116.857 35.2211 116.52 35.3303 116.227C35.614 116.401 35.8491 116.645 36.0136 116.935C36.2938 117.485 36.423 118.1 36.388 118.716Z" fill="#CFAD65"/>
</g>
<path d="M35.7143 122.061L35.4803 123.711L34.6005 129.914H26.7537L25.8738 123.711L25.6367 122.061H35.7143Z" fill="#F2F1D0"/>
<g style="mix-blend-mode:multiply">
<path d="M35.7143 122.061L35.4803 123.711H25.8738L25.6367 122.061H35.7143Z" fill="#F2F1D0"/>
</g>
<path d="M36.0075 123.053H25.3464L25.0625 120.357H36.2883L36.0075 123.053Z" fill="#F2F1D0"/>
<g style="mix-blend-mode:overlay" opacity="0.3">
<path d="M30.7012 114.423C30.7012 114.866 30.4578 115.225 30.1583 115.225C29.8588 115.225 29.6123 114.866 29.6123 114.423C29.6123 113.98 29.8557 113.624 30.1583 113.624C30.4609 113.624 30.7012 113.983 30.7012 114.423Z" fill="white"/>
<path d="M31.7901 115.374C31.7901 115.598 31.6653 115.782 31.5093 115.782C31.3533 115.782 31.2285 115.598 31.2285 115.374C31.2285 115.149 31.3564 114.962 31.5093 114.962C31.6622 114.962 31.7901 115.146 31.7901 115.374Z" fill="white"/>
<path d="M27.706 115.811C27.9266 115.811 28.1054 115.548 28.1054 115.224C28.1054 114.9 27.9266 114.638 27.706 114.638C27.4854 114.638 27.3066 114.9 27.3066 115.224C27.3066 115.548 27.4854 115.811 27.706 115.811Z" fill="white"/>
<path d="M29.7091 116.094C29.7091 116.322 29.5843 116.506 29.4283 116.506C29.2723 116.506 29.1475 116.322 29.1475 116.094C29.1475 115.867 29.2754 115.683 29.4283 115.683C29.5811 115.683 29.7091 115.867 29.7091 116.094Z" fill="white"/>
<path d="M31.7056 113.065C31.7056 113.224 31.6183 113.352 31.5091 113.352C31.3999 113.352 31.3125 113.224 31.3125 113.065C31.3125 112.906 31.3999 112.778 31.5091 112.778C31.6183 112.778 31.7056 112.906 31.7056 113.065Z" fill="white"/>
</g>
</g>
</svg>
