<svg width="174" height="9" viewBox="0 0 174 9" fill="none" xmlns="http://www.w3.org/2000/svg">
    <path d="M174 3.36605C173.097 4.45583 171.913 4.23223 170.765 4.27263C166.839 4.40885 162.98 3.40457 159.05 3.49757C154.743 3.59904 150.448 4.06501 146.131 3.91188C142.665 3.78881 139.183 3.71271 135.722 3.92503C129.543 4.30363 123.362 4.08004 117.185 4.25102C113.861 4.34309 110.548 4.90958 107.226 4.99977C104.599 5.07023 101.98 5.27222 99.3195 5.02232C96.8435 4.78933 94.2349 4.40322 91.7598 5.34644C90.5902 5.79268 89.4385 5.38496 88.2779 5.46105C84.4926 5.70719 80.6957 5.71094 76.9069 5.89884C73.8572 6.05009 70.8138 6.46721 67.7659 6.50197C66.2053 6.51982 64.6768 6.50385 63.1914 7.0478C62.7413 7.21314 62.4737 6.77629 62.0925 6.82702C61.9949 6.63819 61.8974 6.63725 61.7981 6.8289C60.5417 6.78663 59.2871 7.8144 58.0271 6.83924C58.0262 6.8383 58.0263 6.83736 58.0254 6.83548C57.5224 7.37097 57.007 7.70542 56.4057 6.95104C56.301 6.81951 56.267 6.68141 55.9904 6.7669C53.5716 7.51283 51.0616 7.15114 48.5971 7.44519C47.2244 7.60866 45.8222 7.67348 44.4324 7.81064C42.8432 7.96753 41.2351 7.92056 39.653 8.131C39.0857 8.20615 39.0382 7.7787 38.7671 7.55041C38.7653 7.54853 38.7644 7.54759 38.7626 7.54571C38.0432 8.2954 36.5452 8.06054 36.1326 7.11356C36.1219 7.10229 36.1085 7.08632 36.0959 7.07129C36.1129 7.09759 36.1299 7.12389 36.1469 7.1502C36.2821 7.99102 35.9903 8.53308 35.2619 8.10563C34.3026 7.54195 33.3586 8.17327 32.4261 7.9074C31.8785 7.75145 31.7183 8.59603 31.2109 8.60918L31.2458 8.5716C31.2413 8.57724 31.2109 8.60918 31.2109 8.60918L31.1617 8.56502C31.1617 8.56502 31.236 8.56691 31.2431 8.56879C30.8556 8.13194 30.444 8.09154 29.9572 8.38841C29.0418 8.94739 28.1925 8.06148 27.2878 8.16482C27.2574 8.16858 27.1992 7.85574 27.1491 7.65281C26.7115 7.87077 26.9872 8.25219 26.9594 8.58757C26.9263 8.99248 26.6068 8.82996 26.4225 8.68904C26.0297 8.38653 25.7299 8.00511 26.2856 7.57295C26.8028 7.17087 26.691 6.56022 26.4932 6.18537C26.1988 5.62827 25.8811 5.97024 25.7719 6.45406C25.7317 6.63068 25.9151 6.88527 25.8596 7.0431C25.7666 7.30897 25.5796 7.53256 25.423 7.77213C25.4292 7.77119 25.4328 7.77213 25.4391 7.77119C25.2672 8.14791 25.5983 8.35365 25.7603 9C24.9156 7.89425 24.0628 8.97275 23.2923 8.49269C23.2601 8.42975 23.2288 8.3668 23.1965 8.30385C23.1339 8.3668 23.0722 8.43069 23.0095 8.49363C23.0167 8.50584 23.0238 8.51712 23.0319 8.52933C23.0131 8.52933 22.9934 8.52933 22.9746 8.53027L23.0041 8.48423C22.9093 8.5002 22.8144 8.51712 22.7205 8.53309C22.716 8.53121 22.7124 8.52839 22.7079 8.52651C22.7151 8.52651 22.7223 8.52651 22.7303 8.52651C22.7303 8.29822 22.682 8.07745 22.4404 8.09718C22.2408 8.11315 22.0994 8.2644 22.103 8.52557C22.1236 8.52557 22.1451 8.52557 22.1657 8.52557C22.1531 8.54436 22.1397 8.54624 22.1272 8.56973L22.129 8.5716C21.9357 8.54624 21.7424 8.52181 21.5491 8.49645C21.5384 8.46638 21.5258 8.43538 21.533 8.41284C21.5464 8.36962 21.5715 8.33111 21.593 8.29259C21.4811 8.36399 21.3701 8.43538 21.2601 8.50772C21.2636 8.51524 21.2681 8.52275 21.2717 8.53121C21.2556 8.53121 21.2386 8.53215 21.2225 8.53215L21.2475 8.48423C20.8789 8.0812 19.6654 8.62046 20.1835 7.19999C20.3249 6.81293 19.8936 6.87869 19.6905 6.87776C17.9205 6.86648 16.1513 6.87118 14.3428 6.87118C14.5262 7.59269 15.0301 7.65 15.3101 7.45835C16.4019 6.71053 17.5437 7.69884 18.673 7.21502C19.2028 6.98767 19.678 7.71199 19.8677 8.39592C19.8641 8.40813 19.8614 8.41941 19.8578 8.43162C19.8489 8.41189 19.839 8.39217 19.8301 8.37244C18.2811 8.44008 16.7321 8.50772 15.1831 8.57536C15.1258 8.73131 14.9943 8.87411 14.8994 8.72098C14.7867 8.53966 14.9925 8.52463 15.1034 8.48611C15.1034 8.48611 15.1231 8.50866 15.1437 8.53027L15.1034 8.48611C13.7092 7.76179 12.1057 7.99478 10.6318 6.83173C10.8188 7.7787 11.8121 7.11074 11.5428 7.91586C11.3558 8.47484 10.6515 8.24279 10.2381 8.12066C9.54278 7.91586 10.0985 7.16805 9.91325 6.71617C9.76828 6.36481 10.7473 6.77535 10.1593 6.23892C10.0421 6.13182 9.64658 6.06325 9.52041 6.58559C9.12219 8.23904 8.5119 8.57912 7.14456 7.82849C6.21748 7.3193 5.24925 7.681 4.28548 7.4621C4.61121 6.71711 5.43806 7.56074 5.7271 6.81105C2.90203 5.90635 0.964658 4.86919 0 3.72681C3.2904 2.04141 6.63001 3.41114 9.93562 3.39705C12.1987 3.38766 14.469 4.12326 16.7303 3.2815C18.0314 2.79674 19.354 3.40456 20.707 3.26834C24.776 2.85874 28.8691 2.69246 32.9559 2.60978C39.1394 2.48484 45.33 2.67273 51.5081 2.42189C56.522 2.21803 61.5162 1.45894 66.5462 1.46176C68.8684 1.46364 71.1977 0.921575 73.51 1.784C74.0308 1.97847 74.7234 1.65811 75.3185 1.49182C75.9905 1.30487 76.5928 0.806959 77.2129 1.76145C77.6809 2.48296 78.0872 0.671674 78.7172 1.49088C79.4877 1.47491 80.3843 0.26113 81.008 1.80466C81.0438 1.89203 81.3803 1.85916 81.5682 1.82534C83.3257 1.50498 85.0922 1.34433 86.8658 1.54537C87.6327 1.6318 88.1723 0.890569 88.9231 0.956331C90.5213 1.09537 92.1445 1.1198 93.7231 1.18932C94.9249 1.24193 96.2493 1.30957 97.5092 1.17429C99.1173 1.00143 100.611 1.90989 102.211 1.76145C108.512 2.04047 114.817 1.72387 121.116 1.85633C126.492 1.97001 131.849 1.45988 137.22 1.50404C140.597 1.53222 143.972 1.08128 147.332 0.776899C152.003 0.354142 156.676 -0.0686171 161.349 0.00935819C163.544 0.0459972 165.786 -0.0385578 167.986 0.446204C168.721 0.608731 169.721 -0.279055 169.802 1.54632C169.825 2.05832 170.946 1.90237 171.55 1.84224C172.714 1.72481 173.644 1.94089 174 3.36605ZM6.25507 6.03036C6.22196 5.98996 6.18348 5.91105 6.15753 5.91668C6.06983 5.93359 5.9875 5.97963 5.90249 6.01439C5.93471 6.05479 5.97319 6.13277 5.99914 6.12807C6.08773 6.1121 6.17006 6.06606 6.25507 6.03036ZM8.07611 7.17275C8.03047 7.09665 7.98483 7.01961 7.93919 6.94258C7.84523 7.04404 7.7468 7.14081 7.66537 7.25354C7.65821 7.26388 7.75395 7.41607 7.81749 7.43674C8.00273 7.49686 8.05552 7.34937 8.07611 7.17275ZM13.2833 6.5527C13.2734 6.50855 13.2645 6.46533 13.2555 6.42118C13.226 6.43339 13.1714 6.44373 13.1714 6.45688C13.1696 6.50009 13.1875 6.54519 13.1983 6.58934C13.226 6.57713 13.2547 6.56491 13.2833 6.5527ZM21.1661 7.01868C21.1402 6.98767 21.1151 6.93224 21.0883 6.93036C21.0605 6.92849 21.031 6.98016 21.0023 7.00834C21.0283 7.04028 21.0534 7.09477 21.0802 7.09665C21.107 7.09853 21.1366 7.0478 21.1661 7.01868ZM22.0144 7.31178C22.0314 7.28172 22.0475 7.2526 22.0645 7.22348C22.0574 7.22818 22.0493 7.231 22.0431 7.23663C22.0261 7.24978 22.0234 7.28548 22.0144 7.31178ZM22.2507 6.94446C22.2247 7.00364 22.1988 7.06377 22.1728 7.12389C22.2623 7.12296 22.3786 7.14738 22.2507 6.94446ZM24.1174 7.95156C24.1308 7.72797 24.0986 7.58705 23.9178 7.63027C23.8399 7.64906 23.7173 7.73924 23.7165 7.79937C23.7147 7.91492 23.7854 8.03236 23.8256 8.14885C23.9303 8.07839 24.035 8.00793 24.1174 7.95156ZM25.3487 7.774C24.929 7.51753 25.1545 6.94822 25.0489 6.31408C24.6086 7.23757 24.3276 7.8548 25.3487 7.774ZM27.6332 6.58371C26.9165 6.56398 27.1447 7.1286 27.1599 7.56169C27.32 7.23663 27.6216 6.99989 27.6332 6.58371ZM28.8556 7.0525C28.8279 7.0121 28.8001 6.9717 28.7724 6.9313C28.7241 6.98203 28.6758 7.03277 28.6274 7.0835C28.6659 7.10229 28.7035 7.12014 28.742 7.13893C28.7796 7.1098 28.818 7.08162 28.8556 7.0525ZM36.5899 6.31032L36.5022 6.34508L36.5792 6.40427L36.5899 6.31032ZM37.4606 6.11115C37.4123 6.0313 37.3478 5.90823 37.3407 5.91293C37.2351 5.97493 37.117 6.03506 37.049 6.13652C37.0203 6.17879 37.1018 6.31689 37.1322 6.41178C37.2378 6.31502 37.3434 6.21825 37.4606 6.11115ZM43.5573 5.85562C43.5573 5.85468 43.4866 5.99654 43.4714 6.14685C43.4544 6.31314 43.4991 6.50949 43.6987 6.44654C43.8159 6.4099 43.9537 6.28683 44.0002 6.16376C44.0834 5.94299 43.9072 5.91763 43.5573 5.85562ZM46.2678 6.02942C46.2705 5.99936 46.2239 5.96366 46.1998 5.92984C46.1703 5.95802 46.1193 5.98433 46.1175 6.01439C46.1148 6.04539 46.1613 6.0811 46.1855 6.11398C46.215 6.08673 46.2651 6.06042 46.2678 6.02942ZM54.0924 6.31596L54.0137 6.34602L54.0826 6.39957L54.0924 6.31596ZM57.9976 6.78944C57.9636 6.73589 57.9305 6.68141 57.8974 6.62692C57.8768 6.67765 57.8553 6.72838 57.8347 6.77912C57.8893 6.78381 57.943 6.78663 57.9976 6.78944ZM97.9048 1.72293C97.9074 1.69193 97.8609 1.65717 97.8367 1.62335C97.8072 1.65153 97.7571 1.67784 97.7544 1.7079C97.7526 1.7389 97.7983 1.77367 97.8224 1.80749C97.852 1.78024 97.903 1.75393 97.9048 1.72293ZM102.352 2.03296C102.306 1.94841 102.259 1.8648 102.213 1.78118C102.229 1.88546 102.052 2.12033 102.352 2.03296Z" fill="#D5D3BF"/>
</svg>
