<svg width="568" height="313" viewBox="0 0 568 313" fill="none" xmlns="http://www.w3.org/2000/svg">
<path d="M171.031 121.469L172.665 109.566L164.704 108.473L163.07 120.376L154.533 119.204C152.339 118.903 150.334 120.548 150.255 122.762C149.67 139.132 154.019 156.794 161.975 157.887C169.931 158.979 178.88 143.143 182.729 127.222C183.249 125.069 181.761 122.944 179.567 122.642L171.031 121.469Z" fill="#7D726B"/>
<path d="M163.071 120.376L161.733 130.12C161.733 130.12 159.609 125.779 159.965 119.949L163.071 120.376Z" fill="#2A302A"/>
<path d="M171.03 121.471L169.692 131.215C169.692 131.215 172.907 127.608 174.135 121.897L171.03 121.471Z" fill="#2A302A"/>
<path d="M176.065 55.2748C172.803 54.8268 169.829 57.193 169.53 60.4716L165.159 108.535L172.21 109.504L180.956 62.0407C181.555 58.8028 179.327 55.7228 176.065 55.2748Z" fill="#BA885F"/>
<path d="M165.327 106.706C165.398 105.929 166.236 105.458 166.924 105.825C168.794 106.82 171.415 108.981 172.321 108.916L172.212 109.504L165.161 108.535L165.327 106.706Z" fill="#2A302A"/>
<path d="M232.553 95.642C232.407 92.2866 232.26 88.9313 232.115 85.5767C232.042 83.9006 231.954 82.164 231.216 80.629C230.479 79.0939 228.898 77.8139 227.305 78.0238C225.182 78.3035 224.259 80.8275 223.923 83.0107C223.473 85.9404 223.376 88.9497 223.638 91.9465C223.755 93.2867 223.943 94.6423 223.764 95.9568C223.587 97.2716 222.976 98.5743 221.858 99.1831C220.739 99.7919 219.078 99.4544 218.433 98.2538C213.249 88.6123 211.816 77.5857 207.237 67.6488C206.656 66.3893 206.012 65.118 205.02 64.1588C204.027 63.1996 202.609 62.6014 201.358 62.9601C199.941 63.366 199.096 64.8951 198.97 66.4242C198.844 67.9541 199.295 69.4996 199.741 70.9997C201.69 77.5599 203.641 84.1206 205.59 90.6808C205.931 91.8301 206.275 93.0604 205.952 94.1752C205.628 95.2891 204.253 96.2574 203.323 95.5117C201.063 93.6998 196.92 79.6975 193.12 70.7152C191.819 67.6428 189.023 62.5635 186.06 64.2704C184.314 65.2761 182.969 67.2318 184.007 71.0516C185.116 75.1319 186.261 77.7052 187.785 81.1969C190.537 87.5038 192 92.2559 194.445 99.2331C194.676 99.8922 194.544 100.836 193.902 100.98C193.356 101.101 192.884 100.519 192.573 100.011C191.551 98.3397 190.563 96.6468 189.609 94.9344C187.745 91.5866 185.556 88.4085 183.575 85.1283C182.784 83.8183 181.99 82.5044 181.069 81.2846C180.238 80.1858 179.219 79.1126 177.928 78.7895C176.638 78.4664 175.09 79.2399 175.03 80.5898C174.968 81.9926 175.065 83.0742 175.605 84.3997C177.272 88.4918 179.233 92.4703 181.465 96.2896C182.449 97.9734 183.273 99.4073 184.317 101.054C185.36 102.701 186.301 104.487 186.525 106.401C186.578 106.848 186.564 107.362 186.236 107.633C185.96 107.861 185.539 107.831 185.207 107.658C184.875 107.485 184.613 107.192 184.365 106.902C183.409 105.788 182.515 104.618 181.691 103.4C179.205 99.7263 177.001 96.1337 174.368 92.5674C173.574 91.4914 172.525 90.3098 171.264 90.4164C170.031 90.52 169.275 91.9135 169.357 93.2011C169.439 94.4896 170.125 95.6778 170.792 96.8044C174.534 103.13 178.275 109.455 182.017 115.78C183.58 118.424 184.761 121.172 186.362 123.792C187.656 125.908 189.017 127.994 190.647 129.853C196.292 136.294 202.406 139.615 210.292 136.197C216.559 133.481 222.448 129.931 227.781 125.659C235.683 119.326 232.976 105.367 232.553 95.642Z" fill="#355154"/>
<path d="M189.214 117.906C193.078 115.895 197.559 115.708 201.671 116.631C203.741 117.094 205.733 117.874 207.608 118.883C209.471 119.912 211.229 121.18 212.725 122.762C212.992 123.044 212.98 123.49 212.697 123.757C212.415 124.024 211.969 124.011 211.702 123.729C211.69 123.715 211.676 123.699 211.664 123.685C209.158 120.562 205.446 118.368 201.495 117.359C199.516 116.84 197.446 116.66 195.414 116.843C193.388 117.046 191.391 117.654 189.697 118.742C189.473 118.887 189.173 118.822 189.029 118.597C188.885 118.372 188.949 118.072 189.175 117.929C189.186 117.921 189.201 117.912 189.214 117.906Z" fill="#2A302A"/>
<path d="M218.307 104.157C216.906 105.577 215.808 107.307 215.168 109.207C214.512 111.103 214.241 113.124 214.271 115.134C214.301 117.146 214.566 119.156 215.054 121.112C215.538 123.067 216.227 124.976 217.139 126.766C217.306 127.089 217.179 127.485 216.856 127.651C216.533 127.818 216.137 127.691 215.971 127.368C215.954 127.335 215.938 127.295 215.927 127.26C214.709 123.302 213.69 119.275 213.719 115.134C213.748 113.077 214.023 111.004 214.707 109.047C215.392 107.096 216.459 105.264 217.905 103.762C218.013 103.651 218.192 103.647 218.304 103.755C218.416 103.863 218.42 104.042 218.311 104.154L218.307 104.157Z" fill="#2A302A"/>
<path d="M186.781 111.379C194.479 104.569 203.489 99.2474 213.169 95.7945" stroke="#2A302A" stroke-width="0.9667" stroke-miterlimit="10" stroke-linecap="round" stroke-linejoin="round"/>
<path d="M243.402 142.559C244.167 142.127 244.438 141.169 243.999 140.407C240.434 134.214 236.52 127.489 233.012 121.382C232.895 121.178 232.768 120.964 232.563 120.85C232.374 120.745 232.176 120.748 232.011 120.871C231.038 121.602 230.18 122.477 229.122 123.081C219.964 128.303 210.68 133.305 201.282 138.081C200.805 138.356 200.984 139.193 201.245 139.678L211.424 158.643C211.825 159.388 212.746 159.695 213.507 159.324C219.008 156.646 224.204 153.515 229.678 150.5C234.23 147.993 238.84 145.13 243.402 142.559Z" fill="#BA885F"/>
<path d="M212.741 156.808C222.471 151.925 231.893 146.427 240.931 140.359" stroke="#FFF6F0" stroke-width="0.9667" stroke-miterlimit="10" stroke-linecap="round" stroke-linejoin="round"/>
<path d="M205.183 139.1C206.889 142.41 208.593 145.72 210.298 149.029C211.505 151.371 212.72 153.727 214.314 155.827" stroke="#FFF6F0" stroke-width="0.9667" stroke-miterlimit="10" stroke-linecap="round" stroke-linejoin="round"/>
<path d="M208.379 136.793C209.349 138.922 210.533 140.945 211.669 142.989C213.701 146.643 215.59 150.376 217.33 154.178" stroke="#FFF6F0" stroke-width="0.9667" stroke-miterlimit="10" stroke-linecap="round" stroke-linejoin="round"/>
<path d="M212.17 135.655C215.21 141.182 218.174 146.751 221.059 152.36" stroke="#FFF6F0" stroke-width="0.9667" stroke-miterlimit="10" stroke-linecap="round" stroke-linejoin="round"/>
<path d="M215.882 133.35C219.073 138.825 221.992 144.46 224.621 150.227" stroke="#FFF6F0" stroke-width="0.9667" stroke-miterlimit="10" stroke-linecap="round" stroke-linejoin="round"/>
<path d="M219.219 130.994C220.924 134.304 222.628 137.614 224.333 140.923C225.54 143.266 226.755 145.622 228.349 147.721" stroke="#FFF6F0" stroke-width="0.9667" stroke-miterlimit="10" stroke-linecap="round" stroke-linejoin="round"/>
<path d="M222.415 128.688C223.384 130.816 224.568 132.839 225.704 134.883C227.736 138.537 229.625 142.27 231.365 146.073" stroke="#FFF6F0" stroke-width="0.9667" stroke-miterlimit="10" stroke-linecap="round" stroke-linejoin="round"/>
<path d="M226.207 127.55C229.247 133.076 232.211 138.645 235.096 144.254" stroke="#FFF6F0" stroke-width="0.9667" stroke-miterlimit="10" stroke-linecap="round" stroke-linejoin="round"/>
<path d="M229.918 125.247C233.109 130.722 236.027 136.356 238.657 142.123" stroke="#FFF6F0" stroke-width="0.9667" stroke-miterlimit="10" stroke-linecap="round" stroke-linejoin="round"/>
<path d="M228.273 81.7844C228.273 81.7844 228.294 81.9556 228.334 82.2766" stroke="#2A302A" stroke-width="0.5" stroke-linecap="round" stroke-linejoin="round"/>
<path d="M228.559 84.2366C229.373 91.6549 231.403 113.825 227.601 121.451" stroke="#2A302A" stroke-width="0.5" stroke-linecap="round" stroke-linejoin="round" stroke-dasharray="0.99 1.97"/>
<path d="M227.106 122.308C227.011 122.45 226.914 122.583 226.813 122.708" stroke="#2A302A" stroke-width="0.5" stroke-linecap="round" stroke-linejoin="round"/>
<path d="M225.924 54.6641C225.924 54.6641 236.563 52.9994 232.735 43.6641C232.735 43.6641 223.679 44.1819 225.924 54.6641Z" fill="#8D9E36"/>
<path d="M231.566 66.1616C231.566 66.1616 245.769 74.7629 249.566 60.0728C249.566 60.0728 238.281 51.7052 231.566 66.1616Z" fill="#8D9E36"/>
<path d="M392.997 192.6L358.465 80.8385C357.964 79.2151 358.873 77.4928 360.496 76.9913L387.265 68.7205C388.887 68.219 390.61 69.1285 391.111 70.7517L425.643 182.514C426.145 184.137 425.236 185.859 423.613 186.361L396.844 194.632C395.221 195.133 393.499 194.224 392.997 192.6Z" fill="#8AD8FF"/>
<path d="M396.056 191.655L361.524 79.8932C361.022 78.2698 361.932 76.5475 363.555 76.046L390.323 67.7751C391.946 67.2737 393.668 68.1832 394.17 69.8064L428.702 181.568C429.203 183.191 428.294 184.914 426.671 185.415L399.903 193.686C398.28 194.188 396.557 193.278 396.056 191.655Z" fill="#EEFBFF"/>
<g opacity="0.3">
<path d="M406.79 191.557L399.906 193.685C398.282 194.186 396.56 193.277 396.059 191.653L361.527 79.892C361.025 78.2676 361.934 76.5461 363.558 76.0443L390.327 67.7733C391.948 67.2723 393.672 68.1806 394.174 69.8049L396.423 77.0833L376.538 83.2272C374.914 83.729 374.005 85.4507 374.507 87.075L406.79 191.557Z" fill="#8AD8FF"/>
</g>
<path d="M385.718 100.318C383.284 101.07 380.783 100.973 378.532 100.198C375.562 99.174 373.017 96.9639 371.617 93.9494C371.388 93.4554 371.187 92.9395 371.021 92.4032C370.855 91.8669 370.73 91.3277 370.64 90.7876C370.099 87.5074 370.95 84.2481 372.825 81.7277C374.246 79.815 376.257 78.3268 378.691 77.5748C381.125 76.8227 383.625 76.9169 385.877 77.6948C388.847 78.7183 391.389 80.9293 392.792 83.943C393.022 84.4399 393.223 84.9557 393.389 85.492C393.555 86.0283 393.68 86.5674 393.769 87.1048C394.313 90.3841 393.459 93.6443 391.584 96.1646C390.163 98.0744 388.152 99.5656 385.718 100.318Z" fill="#75D1FF"/>
<path d="M396.103 133.939C393.669 134.691 391.167 134.594 388.916 133.819C385.947 132.795 383.402 130.585 382.001 127.57C381.772 127.077 381.571 126.561 381.406 126.024C381.24 125.488 381.115 124.949 381.025 124.409C380.484 121.128 381.335 117.869 383.21 115.349C384.63 113.436 386.642 111.948 389.076 111.196C391.51 110.444 394.01 110.538 396.262 111.316C399.232 112.339 401.773 114.55 403.177 117.564C403.407 118.061 403.608 118.577 403.774 119.113C403.939 119.649 404.064 120.189 404.154 120.726C404.698 124.005 403.844 127.265 401.969 129.786C400.547 131.695 398.537 133.187 396.103 133.939Z" fill="#75D1FF"/>
<path d="M406.495 167.558C404.061 168.31 401.56 168.213 399.309 167.438C396.339 166.414 393.795 164.204 392.394 161.19C392.165 160.696 391.964 160.18 391.798 159.643C391.633 159.107 391.507 158.568 391.417 158.028C390.876 154.748 391.727 151.488 393.602 148.968C395.023 147.055 397.034 145.567 399.468 144.815C401.902 144.063 404.403 144.157 406.655 144.935C409.624 145.959 412.166 148.17 413.57 151.183C413.8 151.68 414.001 152.196 414.166 152.732C414.332 153.269 414.457 153.808 414.546 154.345C415.09 157.624 414.236 160.885 412.361 163.405C410.94 165.315 408.929 166.806 406.495 167.558Z" fill="#75D1FF"/>
<g opacity="0.5">
<path d="M375.818 98.8594C374.04 97.6751 372.564 95.9988 371.613 93.9532C371.383 93.4588 371.183 92.9409 371.018 92.4065C370.852 91.8694 370.726 91.3314 370.636 90.7908C370.096 87.5106 370.946 84.2516 372.821 81.7292C374.242 79.8177 376.253 78.3297 378.686 77.5778C381.122 76.8251 383.623 76.9195 385.874 77.6961C388.823 78.7137 391.346 80.8991 392.757 83.8785C391.915 83.3151 391.003 82.8621 390.046 82.5321C387.793 81.7528 385.293 81.6583 382.86 82.4102C380.426 83.1621 378.413 84.6509 376.993 86.5652C375.119 89.0842 374.267 92.344 374.807 95.6241C374.899 96.164 375.023 96.7028 375.189 97.2398C375.355 97.7769 375.557 98.2914 375.784 98.7866C375.795 98.8119 375.807 98.8339 375.818 98.8594Z" fill="#36A3EE"/>
<path d="M386.205 132.479C384.427 131.294 382.951 129.618 382 127.572C381.77 127.078 381.571 126.563 381.405 126.026C381.239 125.489 381.113 124.951 381.023 124.41C380.483 121.13 381.333 117.871 383.209 115.351C384.629 113.437 386.64 111.949 389.073 111.197C391.509 110.444 394.009 110.539 396.262 111.318C399.209 112.333 401.733 114.518 403.144 117.498C402.301 116.934 401.39 116.481 400.432 116.152C398.18 115.372 395.68 115.278 393.247 116.03C390.813 116.782 388.8 118.271 387.379 120.185C385.506 122.703 384.654 125.963 385.194 129.244C385.286 129.783 385.41 130.322 385.575 130.859C385.741 131.396 385.943 131.911 386.171 132.406C386.182 132.431 386.194 132.453 386.205 132.479Z" fill="#36A3EE"/>
<path d="M396.597 166.098C394.82 164.914 393.343 163.237 392.393 161.192C392.163 160.697 391.963 160.182 391.797 159.645C391.631 159.108 391.505 158.57 391.416 158.029C390.876 154.749 391.725 151.49 393.601 148.97C395.021 147.056 397.032 145.568 399.466 144.816C401.902 144.063 404.402 144.158 406.654 144.937C409.602 145.952 412.125 148.138 413.537 151.117C412.694 150.554 411.782 150.101 410.825 149.771C408.573 148.994 406.074 148.899 403.64 149.651C401.206 150.403 399.193 151.892 397.772 153.804C395.899 156.323 395.046 159.582 395.586 162.863C395.679 163.402 395.803 163.944 395.968 164.478C396.134 165.015 396.336 165.53 396.564 166.025C396.574 166.05 396.587 166.073 396.597 166.098Z" fill="#36A3EE"/>
</g>
<path d="M393.769 87.1092L389.543 88.415L388.566 85.2533L392.793 83.9474C393.023 84.4443 393.224 84.9601 393.389 85.4964C393.555 86.0328 393.68 86.5719 393.769 87.1092Z" fill="#36A3EE"/>
<path d="M375.842 92.6481L371.616 93.954C371.386 93.46 371.186 92.9442 371.02 92.4079C370.854 91.8715 370.729 91.3323 370.639 90.7922L374.865 89.4863L375.842 92.6481Z" fill="#36A3EE"/>
<path d="M380.61 78.1922L377.45 79.1684L377.771 80.2056L372.824 81.7339C374.245 79.8212 376.257 78.3329 378.691 77.5809C381.124 76.8289 383.625 76.923 385.877 77.7009L380.931 79.2293L380.61 78.1922Z" fill="#36A3EE"/>
<path d="M385.718 100.325C383.284 101.077 380.783 100.98 378.532 100.205L383.478 98.6764L383.798 99.7136L386.958 98.7373L386.638 97.7002L391.584 96.1719C390.163 98.0816 388.152 99.5728 385.718 100.325Z" fill="#36A3EE"/>
<path d="M379.04 84.388C379.318 85.2882 380.261 85.7961 381.146 85.5225C382.032 85.249 382.524 84.2975 382.246 83.3974C381.968 82.4973 381.024 81.9893 380.139 82.2629C379.254 82.5364 378.761 83.4879 379.04 84.388Z" fill="#473B54"/>
<path d="M382.163 94.4994C382.441 95.3995 383.384 95.9074 384.269 95.6339C385.155 95.3603 385.647 94.4089 385.369 93.5088C385.091 92.6086 384.148 92.1007 383.262 92.3742C382.377 92.6478 381.885 93.5993 382.163 94.4994Z" fill="#473B54"/>
<path d="M404.156 120.728L399.93 122.034L398.953 118.872L403.179 117.567C403.409 118.063 403.61 118.579 403.776 119.116C403.942 119.652 404.067 120.191 404.156 120.728Z" fill="#36A3EE"/>
<path d="M386.229 126.265L382.002 127.571C381.773 127.077 381.572 126.561 381.407 126.025C381.241 125.489 381.116 124.95 381.025 124.409L385.252 123.104L386.229 126.265Z" fill="#36A3EE"/>
<path d="M390.997 111.811L387.837 112.788L388.157 113.825L383.211 115.353C384.632 113.44 386.643 111.952 389.077 111.2C391.511 110.448 394.012 110.542 396.264 111.32L391.317 112.848L390.997 111.811Z" fill="#36A3EE"/>
<path d="M396.105 133.944C393.671 134.696 391.169 134.599 388.918 133.824L393.865 132.296L394.185 133.333L397.345 132.356L397.024 131.319L401.971 129.791C400.549 131.701 398.539 133.192 396.105 133.944Z" fill="#36A3EE"/>
<path d="M389.426 118.007C389.704 118.907 390.648 119.415 391.533 119.142C392.418 118.868 392.911 117.917 392.632 117.017C392.354 116.116 391.411 115.608 390.526 115.882C389.64 116.156 389.148 117.107 389.426 118.007Z" fill="#473B54"/>
<path d="M392.553 128.12C392.831 129.021 393.775 129.529 394.66 129.255C395.545 128.981 396.038 128.03 395.759 127.13C395.481 126.23 394.538 125.722 393.653 125.995C392.767 126.269 392.275 127.22 392.553 128.12Z" fill="#473B54"/>
<path d="M414.549 154.353L410.322 155.659L409.345 152.497L413.572 151.192C413.802 151.688 414.003 152.204 414.169 152.741C414.334 153.277 414.46 153.816 414.549 154.353Z" fill="#36A3EE"/>
<path d="M396.621 159.892L392.395 161.198C392.166 160.704 391.965 160.188 391.799 159.652C391.633 159.116 391.508 158.576 391.418 158.036L395.645 156.73L396.621 159.892Z" fill="#36A3EE"/>
<path d="M401.391 145.436L398.232 146.413L398.552 147.45L393.606 148.978C395.026 147.065 397.038 145.577 399.472 144.825C401.906 144.073 404.406 144.167 406.658 144.945L401.712 146.473L401.391 145.436Z" fill="#36A3EE"/>
<path d="M406.499 167.567C404.065 168.319 401.564 168.222 399.313 167.447L404.259 165.919L404.58 166.956L407.739 165.98L407.419 164.942L412.365 163.414C410.944 165.324 408.933 166.815 406.499 167.567Z" fill="#36A3EE"/>
<path d="M399.815 151.624C400.093 152.525 401.036 153.032 401.922 152.759C402.807 152.485 403.299 151.534 403.021 150.634C402.743 149.734 401.8 149.226 400.915 149.499C400.029 149.773 399.537 150.724 399.815 151.624Z" fill="#473B54"/>
<path d="M402.938 161.738C403.216 162.638 404.159 163.146 405.045 162.872C405.93 162.599 406.422 161.647 406.144 160.747C405.866 159.847 404.923 159.339 404.038 159.613C403.152 159.886 402.66 160.837 402.938 161.738Z" fill="#473B54"/>
<path d="M402.37 184.96L400.146 177.764C399.996 177.277 400.268 176.76 400.755 176.61L416.335 171.796C416.822 171.645 417.339 171.918 417.489 172.405L419.713 179.602C419.863 180.089 419.591 180.606 419.104 180.756L403.524 185.57C403.037 185.72 402.52 185.447 402.37 184.96Z" fill="#FF6A6A"/>
<path d="M401.659 185.174L399.44 177.991C399.166 177.103 399.653 176.16 400.528 175.89L416.122 171.072C416.996 170.802 417.93 171.305 418.205 172.194L420.424 179.376C420.699 180.264 420.211 181.207 419.337 181.477L403.743 186.295C402.868 186.565 401.934 186.062 401.659 185.174ZM416.783 172.633C416.755 172.541 416.658 172.489 416.568 172.517L400.974 177.335C400.884 177.363 400.833 177.461 400.862 177.552L403.081 184.734C403.109 184.826 403.206 184.878 403.296 184.85L418.89 180.032C418.98 180.004 419.031 179.907 419.002 179.815L416.783 172.633Z" fill="#473B54"/>
<path d="M411.416 178.224C411.056 177.058 411.697 175.821 412.846 175.466C413.995 175.111 415.223 175.771 415.583 176.936C415.943 178.102 415.301 179.339 414.152 179.694C413.003 180.049 411.776 179.389 411.416 178.224ZM415.059 177.098C414.788 176.221 413.868 175.724 413.008 175.99C412.148 176.256 411.669 177.185 411.94 178.062C412.211 178.939 413.131 179.436 413.991 179.17C414.851 178.904 415.33 177.975 415.059 177.098Z" fill="#EEFBFF"/>
<path d="M405.558 182.106L404.391 178.328L403.953 178.463L405.121 182.241L405.558 182.106Z" fill="#EEFBFF"/>
<path d="M350.248 90.9919L350.215 90.958C349.088 89.7895 347.207 89.7681 346.016 90.9101L326.646 109.48C325.455 110.622 325.404 112.495 326.532 113.664L326.564 113.698C327.692 114.866 329.572 114.887 330.763 113.745L350.133 95.1753C351.325 94.0333 351.376 92.1604 350.248 90.9919Z" fill="#FF875F"/>
<path d="M356.313 99.3503L356.242 99.277C355.204 98.2013 353.473 98.1817 352.376 99.2329L333.047 117.764C331.95 118.816 331.903 120.54 332.941 121.615L333.012 121.689C334.05 122.764 335.781 122.784 336.877 121.733L356.207 103.201C357.304 102.15 357.351 100.426 356.313 99.3503Z" fill="#FF875F"/>
<path d="M363.012 107.606L362.941 107.533C361.903 106.457 360.172 106.438 359.076 107.489L339.746 126.02C338.649 127.072 338.602 128.796 339.64 129.871L339.711 129.945C340.749 131.02 342.48 131.04 343.576 129.989L362.906 111.457C364.003 110.406 364.05 108.682 363.012 107.606Z" fill="#FF875F"/>
<path d="M369.363 115.636L369.282 115.574C368.094 114.665 366.375 114.9 365.444 116.098L349.021 137.221C348.09 138.419 348.298 140.128 349.486 141.037L349.567 141.098C350.756 142.007 352.474 141.773 353.406 140.575L369.828 119.452C370.76 118.253 370.552 116.545 369.363 115.636Z" fill="#FF875F"/>
<path d="M350.868 91.8052L350.853 91.7678C350.269 90.2483 348.552 89.5076 347.016 90.1133L330.359 96.6867C328.824 97.2925 328.053 99.0154 328.637 100.535L328.652 100.572C329.236 102.092 330.954 102.833 332.489 102.227L349.146 95.6535C350.681 95.0477 351.452 93.3248 350.868 91.8052Z" fill="#FFC859"/>
<path d="M357.166 99.7527L357.151 99.7147C356.533 98.2089 354.8 97.5061 353.278 98.1446L327.616 108.913C326.095 109.552 325.361 111.29 325.979 112.796L325.994 112.834C326.611 114.34 328.345 115.042 329.867 114.404L355.528 103.635C357.05 102.997 357.783 101.258 357.166 99.7527Z" fill="#FFC859"/>
<path d="M363.699 108.044L363.684 108.006C363.067 106.5 361.333 105.797 359.811 106.436L334.15 117.204C332.628 117.843 331.895 119.581 332.512 121.087L332.527 121.125C333.145 122.631 334.878 123.334 336.4 122.695L362.062 111.926C363.583 111.288 364.317 109.55 363.699 108.044Z" fill="#FFC859"/>
<path d="M370.278 116.397L370.262 116.359C369.645 114.854 367.911 114.151 366.389 114.789L340.728 125.558C339.206 126.196 338.473 127.934 339.09 129.44L339.105 129.478C339.723 130.984 341.457 131.687 342.978 131.048L368.64 120.28C370.161 119.641 370.895 117.903 370.278 116.397Z" fill="#FFC859"/>
<path d="M373.652 147.006C375.655 145.429 376 142.527 374.423 140.524L370.444 135.473L363.19 141.185L367.169 146.236C368.746 148.238 371.649 148.583 373.652 147.006Z" fill="#433651"/>
<path d="M374.172 125.046L352.182 142.36L352.216 142.403C356.611 147.982 364.697 148.943 370.277 144.549L372.059 143.146C377.639 138.752 378.6 130.667 374.205 125.088L374.172 125.046Z" fill="#433651"/>
<path d="M352.744 144.243L375.869 126.033C376.61 125.451 376.737 124.378 376.154 123.639C375.571 122.899 374.499 122.771 373.759 123.354L350.633 141.563C349.893 142.146 349.766 143.218 350.349 143.958C350.931 144.698 352.004 144.825 352.744 144.243Z" fill="#433651"/>
<path d="M350.67 141.612L373.795 123.403C374.535 122.82 374.663 121.748 374.08 121.008C373.497 120.268 372.425 120.14 371.684 120.723L348.559 138.932C347.819 139.515 347.692 140.587 348.274 141.327C348.857 142.067 349.93 142.195 350.67 141.612Z" fill="#433651"/>
<g opacity="0.5">
<path d="M370.047 144.729C369.966 144.595 369.878 144.464 369.782 144.335C371.215 142.372 372.035 140.068 372.21 137.713C372.398 135.177 371.84 132.579 370.489 130.277L371.154 129.753C371.895 129.17 372.023 128.097 371.439 127.357C371.414 127.325 371.388 127.294 371.36 127.264C371.075 126.95 370.696 126.765 370.301 126.719C370.01 126.685 369.709 126.725 369.432 126.843C369.391 126.86 369.351 126.879 369.312 126.9C369.341 126.867 369.369 126.832 369.395 126.796C369.845 126.194 369.854 125.344 369.366 124.725C369.075 124.355 368.661 124.138 368.227 124.087C367.793 124.036 367.341 124.15 366.97 124.442L371.687 120.728C372.058 120.436 372.51 120.322 372.944 120.372C373.378 120.424 373.791 120.641 374.083 121.011C374.599 121.665 374.558 122.58 374.029 123.186C374.339 123.024 374.685 122.965 375.018 123.005C375.451 123.055 375.865 123.272 376.156 123.643C376.739 124.383 376.612 125.456 375.871 126.039L375.206 126.563C377.81 131.003 377.473 136.545 374.499 140.621C375.994 142.621 375.628 145.457 373.657 147.01C372.757 147.718 371.673 148.04 370.612 147.995C370.829 146.9 370.65 145.734 370.047 144.729Z" fill="#272031"/>
</g>
<path d="M373.682 123.208L350.559 141.422L350.837 141.775L373.96 123.562L373.682 123.208Z" fill="#272031"/>
<path d="M500.087 105.331C497.665 105.932 495.149 106.051 492.682 105.68C490.215 105.309 487.845 104.457 485.708 103.171C483.57 101.885 481.708 100.191 480.226 98.185C478.744 96.1795 477.672 93.9019 477.071 91.4822L455.942 6.39487C455.341 3.97517 455.223 1.46077 455.595 -1.00476C455.966 -3.47029 456.82 -5.83868 458.108 -7.97469C459.395 -10.1107 461.091 -11.9725 463.098 -13.4538C465.106 -14.935 467.385 -16.0068 469.807 -16.6079C472.228 -17.2089 474.745 -17.3275 477.212 -16.9568C479.679 -16.5861 482.049 -15.7334 484.186 -14.4474C486.323 -13.1613 488.186 -11.4672 489.668 -9.4617C491.149 -7.45618 492.221 -5.17855 492.822 -2.75887L513.952 82.3294C514.553 84.7491 514.671 87.2634 514.299 89.7289C513.928 92.1943 513.074 94.5626 511.786 96.6985C510.499 98.8345 508.803 100.696 506.796 102.177C504.788 103.658 502.509 104.73 500.087 105.331Z" fill="#F1EDEA"/>
<path d="M490.246 66.5188C489.646 66.6164 489.032 66.485 488.525 66.1508C488.018 65.8165 487.655 65.3039 487.509 64.7147L471.282 -0.627217C471.138 -1.24556 471.244 -1.89569 471.576 -2.43716C471.908 -2.97863 472.439 -3.36797 473.056 -3.52108C473.672 -3.67419 474.324 -3.57878 474.871 -3.25545C475.418 -2.93212 475.815 -2.40683 475.977 -1.79306L492.205 63.5546C492.359 64.1769 492.26 64.835 491.929 65.3842C491.598 65.9333 491.062 66.3287 490.439 66.4834C490.374 66.4941 490.311 66.5081 490.246 66.5188Z" fill="#D5D5D5"/>
<path d="M462.845 7.92701C462.722 7.94522 462.598 7.91594 462.496 7.84517C462.395 7.77441 462.324 7.66753 462.299 7.54649C462.274 7.42544 462.297 7.29941 462.362 7.19427C462.427 7.08913 462.53 7.01286 462.649 6.98112L487.16 0.897233C487.284 0.86953 487.413 0.891143 487.521 0.95745C487.628 1.02376 487.706 1.1295 487.736 1.25206C487.767 1.37463 487.748 1.5043 487.684 1.61334C487.62 1.72239 487.516 1.80216 487.394 1.8356L462.883 7.91948L462.845 7.92701Z" fill="#C8C8C8"/>
<path d="M479.797 76.175C479.673 76.1967 479.545 76.1693 479.441 76.0985C479.337 76.0277 479.264 75.9192 479.239 75.7959C479.214 75.6726 479.237 75.5443 479.305 75.4382C479.373 75.3321 479.48 75.2566 479.602 75.2278L504.114 69.145C504.176 69.1277 504.241 69.1231 504.305 69.1314C504.369 69.1398 504.431 69.1608 504.487 69.1934C504.543 69.226 504.592 69.2694 504.63 69.3212C504.669 69.3729 504.697 69.4319 504.713 69.4946C504.728 69.5573 504.731 69.6225 504.721 69.6864C504.711 69.7502 504.688 69.8114 504.654 69.8663C504.62 69.9212 504.575 69.9687 504.522 70.006C504.469 70.0433 504.41 70.0697 504.347 70.0836L479.835 76.1663L479.797 76.175Z" fill="#C8C8C8"/>
<path d="M475.557 59.1166C475.435 59.1346 475.31 59.1051 475.209 59.0342C475.108 58.9633 475.037 58.8564 475.012 58.7354C474.988 58.6144 475.01 58.4884 475.075 58.3834C475.14 58.2784 475.243 58.2022 475.363 58.1705L499.874 52.0867C499.936 52.0694 500.001 52.0648 500.065 52.0731C500.129 52.0814 500.191 52.1025 500.247 52.1351C500.303 52.1676 500.352 52.2111 500.391 52.2628C500.429 52.3145 500.457 52.3735 500.473 52.4362C500.488 52.4989 500.491 52.5642 500.481 52.628C500.471 52.6918 500.448 52.753 500.414 52.8079C500.38 52.8628 500.335 52.9103 500.282 52.9477C500.23 52.985 500.17 53.0113 500.107 53.0252L475.595 59.1091L475.557 59.1166Z" fill="#C8C8C8"/>
<path d="M471.318 42.0576C471.196 42.0756 471.071 42.0461 470.97 41.9752C470.869 41.9043 470.799 41.7974 470.774 41.6764C470.749 41.5554 470.771 41.4295 470.836 41.3244C470.902 41.2194 471.004 41.1432 471.124 41.1115L495.635 35.0288C495.76 34.9979 495.891 35.0177 496.001 35.0838C496.111 35.1498 496.19 35.2568 496.221 35.3811C496.252 35.5054 496.232 35.6369 496.166 35.7466C496.099 35.8564 495.992 35.9353 495.868 35.9662L471.358 42.0499L471.318 42.0576Z" fill="#C8C8C8"/>
<path d="M467.086 24.9936C466.964 25.0115 466.839 24.982 466.738 24.9111C466.637 24.8402 466.567 24.7333 466.542 24.6123C466.517 24.4913 466.539 24.3654 466.604 24.2604C466.67 24.1553 466.772 24.0792 466.892 24.0475L491.403 17.9636C491.465 17.9463 491.531 17.9417 491.595 17.95C491.659 17.9583 491.721 17.9794 491.776 18.012C491.832 18.0446 491.881 18.088 491.92 18.1397C491.959 18.1915 491.987 18.2504 492.002 18.3132C492.018 18.3759 492.021 18.4411 492.01 18.505C492 18.5688 491.978 18.63 491.943 18.6849C491.909 18.7398 491.865 18.7873 491.812 18.8246C491.759 18.8619 491.699 18.8883 491.636 18.9022L467.125 24.9849L467.086 24.9936Z" fill="#C8C8C8"/>
<path d="M468.721 15.5326C468.599 15.5506 468.474 15.5211 468.373 15.4502C468.272 15.3793 468.202 15.2724 468.177 15.1514C468.152 15.0304 468.175 14.9045 468.24 14.7994C468.305 14.6944 468.408 14.6182 468.527 14.5866L485.525 10.3674C485.648 10.3404 485.777 10.3625 485.884 10.429C485.991 10.4955 486.068 10.6011 486.099 10.7234C486.129 10.8457 486.11 10.975 486.047 11.0838C485.983 11.1926 485.88 11.2723 485.758 11.306L468.76 15.5251L468.721 15.5326Z" fill="#C8C8C8"/>
<path d="M472.962 32.5911C472.837 32.6129 472.71 32.5854 472.606 32.5147C472.502 32.4439 472.429 32.3353 472.404 32.212C472.379 32.0887 472.402 31.9604 472.47 31.8543C472.538 31.7483 472.645 31.6728 472.767 31.6439L489.767 27.4257C489.829 27.4085 489.894 27.4039 489.958 27.4122C490.022 27.4205 490.084 27.4416 490.14 27.4741C490.196 27.5067 490.245 27.5502 490.283 27.6019C490.322 27.6536 490.35 27.7126 490.366 27.7753C490.381 27.838 490.384 27.9032 490.374 27.9671C490.364 28.0309 490.341 28.0921 490.307 28.147C490.273 28.2019 490.228 28.2494 490.175 28.2868C490.122 28.3241 490.063 28.3504 490 28.3643L473 32.5825L472.962 32.5911Z" fill="#C8C8C8"/>
<path d="M477.198 49.6539C477.076 49.6718 476.951 49.6423 476.85 49.5714C476.749 49.5005 476.679 49.3936 476.654 49.2726C476.629 49.1516 476.651 49.0257 476.717 48.9207C476.782 48.8156 476.884 48.7395 477.004 48.7078L494.003 44.4885C494.066 44.4712 494.131 44.4666 494.195 44.4749C494.259 44.4832 494.321 44.5043 494.377 44.5369C494.433 44.5695 494.481 44.6129 494.52 44.6646C494.559 44.7164 494.587 44.7753 494.602 44.8381C494.618 44.9008 494.621 44.966 494.611 45.0298C494.601 45.0937 494.578 45.1549 494.544 45.2098C494.51 45.2647 494.465 45.3122 494.412 45.3495C494.359 45.3868 494.299 45.4132 494.236 45.427L477.237 49.6463L477.198 49.6539Z" fill="#C8C8C8"/>
<path d="M481.435 66.7144C481.312 66.7323 481.188 66.7029 481.086 66.632C480.985 66.5611 480.915 66.4542 480.89 66.3332C480.865 66.2122 480.888 66.0862 480.953 65.9812C481.018 65.8762 481.121 65.8 481.24 65.7683L498.24 61.549C498.302 61.5318 498.367 61.5271 498.431 61.5355C498.495 61.5438 498.557 61.5648 498.613 61.5974C498.669 61.63 498.718 61.6734 498.756 61.7252C498.795 61.7769 498.823 61.8359 498.839 61.8986C498.854 61.9613 498.857 62.0265 498.847 62.0904C498.837 62.1542 498.814 62.2154 498.78 62.2703C498.746 62.3252 498.701 62.3727 498.648 62.41C498.595 62.4473 498.536 62.4737 498.473 62.4876L481.473 66.7057L481.435 66.7144Z" fill="#C8C8C8"/>
<path d="M497.173 96.563C502.005 95.7687 505.279 91.211 504.485 86.3831C503.691 81.5551 499.131 78.2852 494.299 79.0794C489.468 79.8737 486.194 84.4314 486.988 89.2594C487.781 94.0873 492.342 97.3573 497.173 96.563Z" fill="#FF821C"/>
<path d="M496.123 90.2078C495.523 90.3054 494.909 90.1743 494.402 89.8403C493.895 89.5064 493.532 88.9941 493.385 88.4051L478.895 29.9876C478.814 29.6777 478.794 29.3547 478.838 29.0373C478.882 28.7198 478.989 28.4143 479.153 28.1385C479.316 27.8627 479.533 27.6221 479.79 27.4307C480.047 27.2393 480.34 27.1009 480.651 27.0236C480.963 26.9463 481.286 26.9317 481.603 26.9805C481.92 27.0293 482.224 27.1406 482.498 27.3079C482.771 27.4752 483.009 27.6952 483.196 27.9551C483.384 28.215 483.518 28.5096 483.591 28.8217L498.082 87.2402C498.236 87.8625 498.137 88.5206 497.806 89.0698C497.474 89.619 496.939 90.0144 496.316 90.169C496.252 90.1843 496.187 90.1973 496.123 90.2078Z" fill="#FF821C"/>
<path d="M538.215 303.542L482.793 320.472L460.943 248.945L516.365 232.015L538.215 303.542ZM483.06 319.971L537.713 303.275L516.098 232.517L461.445 249.212L483.06 319.971Z" fill="#2F4672"/>
<g opacity="0.7">
<path d="M512.72 239.493L468.166 253.104L486.46 312.991L531.014 299.381L512.72 239.493Z" fill="#4593CE"/>
</g>
<path d="M461.209 249.072L482.941 320.215L537.978 303.403L516.246 232.26L461.209 249.072ZM531.017 299.377L486.463 312.987L468.168 253.099L512.723 239.489L531.017 299.377Z" fill="#EEFBFF"/>
<g opacity="0.7">
<path d="M533.721 300.848L485.031 315.722L465.459 251.652L514.149 236.779L533.721 300.848ZM486.358 313.256L531.242 299.545L512.822 239.244L467.937 252.955L486.358 313.256Z" fill="#8AD8FF"/>
</g>
<path d="M483.037 320.424C482.856 320.479 482.665 320.377 482.609 320.196L460.948 249.285C460.893 249.104 460.994 248.912 461.175 248.857C461.265 248.829 461.364 248.841 461.446 248.889L468.286 252.845C468.361 252.888 468.416 252.958 468.442 253.041L486.725 312.893C486.75 312.976 486.744 313.064 486.706 313.142L483.244 320.247C483.202 320.332 483.127 320.396 483.037 320.424ZM461.694 249.713L482.989 319.424L486.133 312.972L467.907 253.307L461.694 249.713Z" fill="#7AC2EA"/>
<path d="M512.785 239.787L468.27 253.386C468.18 253.413 468.082 253.402 468 253.355L461.151 249.393C461.033 249.325 460.966 249.193 460.982 249.058C460.997 248.922 461.091 248.809 461.222 248.769L516.05 232.02C516.18 231.981 516.322 232.022 516.41 232.126C516.499 232.23 516.517 232.376 516.458 232.499L512.992 239.61C512.951 239.695 512.875 239.76 512.785 239.787ZM468.2 252.79L512.51 239.255L515.679 232.75L461.937 249.167L468.2 252.79Z" fill="#7AC2EA"/>
<path d="M537.992 303.638C537.902 303.665 537.803 303.654 537.721 303.607L530.881 299.65C530.806 299.607 530.75 299.537 530.725 299.453L512.442 239.602C512.416 239.518 512.423 239.428 512.462 239.35L515.923 232.248C515.964 232.163 516.04 232.098 516.13 232.071C516.31 232.016 516.502 232.118 516.557 232.299L538.219 303.21C538.247 303.301 538.236 303.4 538.188 303.481C538.145 303.557 538.075 303.612 537.992 303.638ZM531.26 299.188L537.473 302.782L516.178 233.071L513.034 239.523L531.26 299.188Z" fill="#7AC2EA"/>
<path d="M537.959 303.726L483.131 320.475C483 320.514 482.859 320.473 482.77 320.369C482.682 320.265 482.663 320.119 482.723 319.996L486.189 312.885C486.23 312.8 486.305 312.735 486.396 312.708L530.911 299.109C531.002 299.082 531.101 299.093 531.183 299.141L538.03 303.102C538.148 303.17 538.214 303.302 538.199 303.437C538.183 303.573 538.089 303.686 537.959 303.726ZM483.502 319.745L537.243 303.328L530.98 299.705L486.671 313.24L483.502 319.745Z" fill="#7AC2EA"/>
<path d="M470.309 237.592L492.829 311.315L549.863 293.892L527.343 220.169L470.309 237.592ZM496.479 303.823L477.522 241.765L523.693 227.661L542.65 289.719L496.479 303.823Z" fill="#EEFBFF"/>
<g opacity="0.5">
<path d="M523.686 227.667L477.516 241.771L496.473 303.829L542.643 289.725L523.686 227.667Z" fill="#4593CE"/>
</g>
<g opacity="0.7">
<path d="M545.354 291.162L495.046 306.53L474.824 240.332L525.132 224.964L545.354 291.162ZM496.417 303.983L542.793 289.816L523.761 227.511L477.385 241.678L496.417 303.983Z" fill="#8AD8FF"/>
</g>
<path d="M492.93 311.52C492.75 311.575 492.558 311.473 492.503 311.293L470.053 237.8C469.998 237.619 470.1 237.428 470.28 237.373C470.37 237.345 470.468 237.357 470.55 237.404L477.644 241.507C477.72 241.551 477.775 241.621 477.8 241.703L496.746 303.727C496.772 303.809 496.765 303.897 496.727 303.975L493.137 311.343C493.096 311.428 493.02 311.493 492.93 311.52ZM470.8 238.229L492.883 310.519L496.155 303.805L477.265 241.969L470.8 238.229Z" fill="#99D6FF"/>
<path d="M549.877 294.125C549.787 294.152 549.688 294.141 549.606 294.094L542.513 289.991C542.438 289.947 542.382 289.878 542.357 289.794L523.41 227.771C523.385 227.688 523.392 227.599 523.43 227.521L527.02 220.155C527.061 220.07 527.137 220.005 527.227 219.978C527.407 219.922 527.598 220.024 527.654 220.205L550.104 293.698C550.132 293.788 550.12 293.887 550.073 293.969C550.03 294.044 549.96 294.1 549.877 294.125ZM542.892 289.529L549.357 293.268L527.274 220.978L524.002 227.692L542.892 289.529Z" fill="#99D6FF"/>
<path d="M523.756 227.964L477.625 242.056C477.534 242.084 477.436 242.072 477.354 242.025L470.252 237.916C470.134 237.848 470.068 237.716 470.083 237.581C470.099 237.446 470.193 237.333 470.323 237.293L527.15 219.933C527.28 219.894 527.421 219.935 527.51 220.039C527.598 220.142 527.617 220.288 527.557 220.411L523.964 227.787C523.922 227.872 523.847 227.936 523.756 227.964ZM477.555 241.46L523.481 227.431L526.778 220.664L471.039 237.691L477.555 241.46Z" fill="#99D6FF"/>
<path d="M549.84 294.211L493.013 311.57C492.883 311.61 492.742 311.569 492.653 311.465C492.565 311.361 492.547 311.216 492.606 311.093L496.2 303.717C496.241 303.632 496.316 303.568 496.407 303.54L542.539 289.448C542.629 289.42 542.728 289.432 542.81 289.479L549.911 293.588C550.029 293.656 550.095 293.787 550.08 293.923C550.065 294.058 549.971 294.171 549.84 294.211ZM493.385 310.84L549.124 293.813L542.608 290.043L496.682 304.073L493.385 310.84Z" fill="#99D6FF"/>
<g opacity="0.5">
<path d="M498.519 235.673L484.206 262.626L482.96 258.549L494.449 236.916L498.519 235.673Z" fill="#EEFBFF"/>
</g>
<g opacity="0.5">
<path d="M529.023 246.174L530.268 250.251L515.502 278.055L512.844 276.639L529.023 246.174Z" fill="#EEFBFF"/>
</g>
<g opacity="0.5">
<path d="M523.464 228.062L523.742 228.972L494.053 284.877L490.543 283.416L487.559 273.646L509.499 232.327L523.464 228.062Z" fill="#EEFBFF"/>
</g>
<path d="M543.035 260.324L467.031 283.541L479.901 325.671L555.904 302.454L543.035 260.324Z" fill="#F8CD9E"/>
<path d="M482.773 278.732L467.031 283.541L479.901 325.671L495.642 320.862L482.773 278.732Z" fill="#FB9D7E"/>
<path d="M556.281 280.312L496.365 298.615L483.166 278.615L543.081 260.313L556.281 280.312Z" fill="#FB9D7E"/>
<g opacity="0.3">
<path d="M544.052 263.698L495.583 320.884L555.893 302.46L544.052 263.698Z" fill="#FB9D7E"/>
</g>
<path d="M541.346 304.07L548.354 301.93L548.013 300.815L541.005 302.955L541.346 304.07Z" fill="#70617F"/>
<path d="M545.2 296.835L544.398 297.08L545.628 301.107L546.43 300.862L545.2 296.835Z" fill="#70617F"/>
<path d="M546.103 296.951L544.268 295.237L543.704 297.684L546.103 296.951Z" fill="#70617F"/>
<path d="M541.933 297.835L541.131 298.08L542.361 302.107L543.163 301.862L541.933 297.835Z" fill="#70617F"/>
<path d="M542.837 297.949L541.002 296.235L540.438 298.682L542.837 297.949Z" fill="#70617F"/>
<path d="M530.142 302.115C529.065 301.931 527.96 302.776 527.96 302.776C526.908 302.677 526.261 303.272 526.261 303.272C526.261 303.272 526.337 301.233 529.505 300.032C532.804 299.257 534.006 300.906 534.006 300.906C534.006 300.906 533.137 300.774 532.32 301.444C532.32 301.444 530.932 301.361 530.142 302.115C530.146 302.116 530.139 302.118 530.142 302.115Z" fill="#70617F"/>
<path d="M531.45 306.679L531.642 306.621L531.534 306.267L529.571 299.841C529.555 299.79 529.501 299.761 529.45 299.777L529.425 299.784C529.373 299.8 529.345 299.854 529.36 299.905L531.293 306.231L531.41 306.614L531.45 306.679Z" fill="#70617F"/>
<path d="M531.286 306.238L531.391 306.581C531.402 306.618 531.42 306.653 531.443 306.685L531.443 306.685C531.582 306.88 531.835 306.975 532.074 306.903L532.099 306.895C532.237 306.853 532.359 306.764 532.434 306.64C532.494 306.539 532.522 306.426 532.515 306.312C532.511 306.236 532.435 306.185 532.362 306.208C532.313 306.224 532.279 306.271 532.282 306.323C532.286 306.384 532.274 306.445 532.245 306.501C532.202 306.582 532.131 306.642 532.043 306.669L532.007 306.68C531.831 306.733 531.643 306.634 531.587 306.459L531.527 306.273L531.494 306.171L531.286 306.238Z" fill="#70617F"/>
<path d="M519.186 306.795C520.491 306.396 521.225 305.013 520.826 303.706L520.464 302.523L515.738 303.967L516.1 305.15C516.499 306.457 517.881 307.193 519.186 306.795Z" fill="#70617F"/>
<path d="M519.874 310.077L520.457 309.898L519.185 305.735L518.602 305.913L519.874 310.077Z" fill="#70617F"/>
<path d="M518.945 310.229L521.293 309.512C521.465 309.46 521.646 309.556 521.698 309.728C521.751 309.9 521.654 310.081 521.483 310.133L519.135 310.851C518.963 310.903 518.782 310.806 518.73 310.635C518.677 310.463 518.774 310.282 518.945 310.229Z" fill="#70617F"/>
<path d="M468.619 283.92L467.965 284.391L494.042 320.694L494.696 320.223L468.619 283.92Z" fill="#EA876C"/>
<path d="M482.179 280.329L480.41 324.723L481.216 324.755L482.984 280.362L482.179 280.329Z" fill="#EA876C"/>
<path d="M467.131 307.487L482.982 302.644L482.753 278.683L466.901 283.525L467.131 307.487Z" fill="#D16247"/>
<path d="M494.657 307.106L501.73 304.945L500.909 302.256L493.836 304.417L494.657 307.106Z" fill="#FB9D7E"/>
<path d="M544.753 213.158C538.282 217.021 537.428 218.811 538.179 226.928C534.265 219.776 532.557 218.77 525.032 219.183C531.503 215.32 532.358 213.531 531.607 205.414C535.52 212.565 537.228 213.571 544.753 213.158Z" fill="#FFDC62"/>
<path d="M237.055 272.971L233.402 273.207L234.149 284.742L237.802 284.505L237.055 272.971Z" fill="#E0E0E0"/>
<path d="M241.324 283.043L230.459 283.746L230.652 286.729L241.517 286.026L241.324 283.043Z" fill="#E0E0E0"/>
<path d="M296.075 269.502L292.422 269.738L293.168 281.273L296.822 281.037L296.075 269.502Z" fill="#E0E0E0"/>
<path d="M300.34 279.574L289.475 280.277L289.668 283.26L300.533 282.557L300.34 279.574Z" fill="#E0E0E0"/>
<path d="M262.888 240.521L259.234 240.758L261.568 276.82L265.221 276.584L262.888 240.521Z" fill="#E0E0E0"/>
<path d="M268.742 275.119L257.877 275.822L258.07 278.805L268.935 278.102L268.742 275.119Z" fill="#E0E0E0"/>
<path d="M320.11 208.717L316.457 208.953L320.602 273.005L324.255 272.769L320.11 208.717Z" fill="#E0E0E0"/>
<path d="M327.783 271.309L316.918 272.012L317.111 274.994L327.976 274.291L327.783 271.309Z" fill="#E0E0E0"/>
<path d="M219.95 275.313L219.669 270.964L240.961 209.928L320.38 204.788L321.79 209.119L304.283 269.856L219.95 275.313Z" fill="#E0E0E0"/>
<path d="M225.654 266.345L243.686 214.656L313.605 210.131L298.763 261.614L225.654 266.345Z" fill="#455A64"/>
<g opacity="0.3">
<path d="M305.397 210.657C304.926 210.688 234.009 242.387 234.009 242.387L227.884 259.944L309.378 224.784L313.604 210.125L305.397 210.656L305.397 210.657Z" fill="white"/>
</g>
<g opacity="0.3">
<path d="M219.669 270.964L302.104 265.921L320.38 204.788L321.79 209.119L304.283 269.856L219.95 275.313L219.669 270.964Z" fill="black"/>
</g>
<path d="M237.747 231.608C257.087 230.357 276.429 229.105 295.77 227.853C301.257 227.498 306.745 227.143 312.232 226.788C313.97 226.675 313.797 223.975 312.057 224.087C292.716 225.339 273.375 226.591 254.034 227.842C248.547 228.198 243.059 228.553 237.572 228.908C235.834 229.02 236.006 231.721 237.747 231.608Z" fill="#E0E0E0"/>
<path d="M231.118 250.429C250.459 249.178 269.8 247.926 289.141 246.674C294.628 246.319 300.116 245.964 305.603 245.609C307.341 245.497 307.169 242.795 305.428 242.908C286.087 244.159 266.746 245.411 247.405 246.663C241.918 247.018 236.43 247.373 230.943 247.728C229.205 247.841 229.377 250.542 231.118 250.429Z" fill="#E0E0E0"/>
<path d="M250.372 268.262C252.429 261.778 254.484 255.295 256.541 248.811C259.803 238.525 263.065 228.238 266.328 217.951C267.081 215.578 267.833 213.205 268.585 210.832C269.112 209.17 266.456 208.638 265.934 210.282C263.878 216.766 261.822 223.25 259.766 229.733C256.503 240.02 253.241 250.307 249.979 260.593C249.226 262.966 248.473 265.339 247.721 267.712C247.194 269.373 249.851 269.906 250.372 268.262Z" fill="#E0E0E0"/>
<path d="M275.029 265.873C277.028 259.567 279.029 253.261 281.028 246.954C284.2 236.951 287.373 226.949 290.545 216.945C291.276 214.638 292.008 212.332 292.74 210.025C293.267 208.364 290.61 207.831 290.089 209.475C288.089 215.782 286.089 222.088 284.089 228.395C280.917 238.397 277.744 248.4 274.572 258.404C273.84 260.71 273.109 263.017 272.377 265.324C271.851 266.985 274.507 267.518 275.029 265.873Z" fill="#E0E0E0"/>
<path d="M115.954 224.44C114.981 224.224 113.991 224.194 113.005 224.342C112.225 224.458 112.372 225.681 113.155 225.563C114.041 225.43 114.9 225.464 115.775 225.658C116.548 225.83 116.721 224.611 115.954 224.44Z" fill="#2E194C"/>
<path d="M116.026 237.664C116.229 239.316 115.111 240.827 113.5 241.127C113.437 241.14 113.372 241.149 113.307 241.157C111.595 241.369 110.035 240.148 109.825 238.43C109.689 237.327 110.143 236.287 110.938 235.629C111.381 235.261 111.93 235.012 112.544 234.936C114.257 234.724 115.815 235.946 116.026 237.664Z" fill="#808FFF"/>
<path d="M118.188 226.659C119.433 227.037 120.682 228.291 121.267 229.43C121.625 230.128 122.764 229.667 122.402 228.96C122.019 228.214 121.488 227.543 120.885 226.962C120.312 226.409 119.442 225.762 118.673 225.528C117.924 225.301 117.433 226.43 118.188 226.659Z" fill="#2E194C"/>
<path d="M114.313 235.705C114.568 235.069 114.666 234.385 114.92 233.749C115.214 233.013 114.086 232.525 113.792 233.262C113.538 233.898 113.44 234.583 113.185 235.218C112.891 235.954 114.018 236.441 114.313 235.705Z" fill="#2E194C"/>
<path d="M112.764 242.417C112.931 241.824 113.071 241.227 113.196 240.624C113.358 239.847 112.142 239.672 111.982 240.444C111.857 241.048 111.716 241.644 111.549 242.237C111.459 242.557 111.769 242.892 112.067 242.936C112.43 242.989 112.673 242.738 112.764 242.417Z" fill="#2E194C"/>
<path d="M114.659 244.797C114.804 243.072 113.527 241.556 111.807 241.41C110.088 241.265 108.576 242.545 108.431 244.27C108.286 245.994 109.562 247.511 111.282 247.656C113.002 247.802 114.513 246.522 114.659 244.797Z" fill="#DA5ED2"/>
<path d="M110.083 248.393C110.399 247.914 110.695 247.422 110.973 246.92C111.134 246.629 110.935 246.234 110.652 246.111C110.321 245.969 110.007 246.142 109.845 246.434C109.618 246.844 109.374 247.244 109.116 247.636C108.933 247.913 108.946 248.284 109.222 248.5C109.468 248.692 109.9 248.672 110.083 248.393Z" fill="#2E194C"/>
<path d="M112.509 252.267C112.005 251.57 111.372 251.203 110.911 250.916C110.64 250.747 110.287 250.629 110.222 250.295C110.165 250.004 110.313 249.669 110.346 249.38C110.39 248.984 110.43 248.581 110.404 248.182C110.354 247.429 110.002 246.845 109.168 247.059C108.444 247.245 107.732 247.506 107.02 247.737C106.902 247.776 106.778 247.815 106.655 247.799C106.455 247.772 106.288 247.61 106.121 247.508C105.791 247.306 105.461 247.104 105.131 246.903C104.569 246.56 103.892 246.26 103.309 246.739C102.769 247.183 102.777 247.933 102.759 248.57C102.748 248.952 102.737 249.335 102.726 249.718C102.717 250.014 102.779 250.351 102.548 250.572C102.149 250.953 101.678 251.243 101.236 251.57C100.948 251.781 100.287 252.551 100.352 252.986C100.422 253.452 101.297 253.795 101.66 253.919C102.238 254.115 102.842 254.2 103.422 254.385C103.542 254.424 103.664 254.47 103.761 254.551C104.122 254.852 104.07 255.185 104.181 255.61C104.354 256.274 104.587 257.225 105.088 257.721C106.289 258.909 107.504 256.977 107.812 255.966C107.972 255.441 108.043 254.836 108.594 254.578C109.216 254.287 111.111 254.436 112.361 253.862C113.088 253.527 112.896 252.803 112.509 252.267Z" fill="#FBB436"/>
<path d="M121.233 225.91C121.444 227.628 120.226 229.192 118.514 229.403C118.336 229.425 118.161 229.432 117.989 229.424C117.439 229.4 116.918 229.23 116.471 228.947C116.367 228.882 116.266 228.809 116.169 228.731C116.145 228.712 116.122 228.693 116.101 228.673L116.099 228.674C116.092 228.666 116.082 228.659 116.075 228.652C115.914 228.51 115.767 228.353 115.639 228.181C115.316 227.756 115.099 227.244 115.03 226.677C114.908 225.683 115.263 224.74 115.916 224.082C115.926 224.072 115.937 224.063 115.948 224.052C115.979 224.021 116.011 223.991 116.044 223.961C116.131 223.882 116.222 223.809 116.317 223.742C116.38 223.697 116.445 223.655 116.51 223.614C116.543 223.594 116.577 223.574 116.61 223.556C116.641 223.538 116.67 223.522 116.702 223.507C116.705 223.504 116.709 223.502 116.713 223.5C116.749 223.482 116.786 223.465 116.823 223.447C116.856 223.432 116.887 223.418 116.92 223.404C116.926 223.401 116.934 223.399 116.941 223.395L116.949 223.393L117.019 223.365C117.034 223.359 117.048 223.353 117.064 223.348C117.094 223.336 117.125 223.325 117.155 223.316C117.192 223.303 117.228 223.292 117.263 223.282C117.294 223.273 117.324 223.265 117.355 223.257C117.398 223.246 117.44 223.235 117.483 223.227C117.513 223.221 117.544 223.214 117.573 223.209L117.584 223.208C117.604 223.204 117.624 223.2 117.645 223.198C117.68 223.191 117.715 223.186 117.75 223.182C119.462 222.971 121.022 224.192 121.233 225.91Z" fill="#808FFF"/>
<path d="M112.79 228.586C114.407 227.98 115.228 226.175 114.624 224.553C114.02 222.932 112.22 222.108 110.603 222.714C108.986 223.32 108.165 225.125 108.769 226.746C109.373 228.368 111.173 229.191 112.79 228.586Z" fill="#DA5ED2"/>
<path d="M109.153 225.938C108.589 226.334 108.066 226.767 107.544 227.218C106.948 227.732 107.688 228.716 108.288 228.197C108.81 227.747 109.333 227.313 109.897 226.917C110.544 226.462 109.8 225.483 109.153 225.938Z" fill="#2E194C"/>
<path d="M109.308 229.151C109.337 230.882 107.962 232.309 106.236 232.338C104.511 232.367 103.088 230.988 103.059 229.257C103.03 227.527 104.405 226.1 106.131 226.071C107.856 226.042 109.279 227.421 109.308 229.151Z" fill="#808FFF"/>
<path d="M104.507 228.948C104.217 228.601 103.838 228.314 103.411 228.16C103.193 228.081 102.955 228.046 102.723 228.066C102.451 228.09 102.205 228.194 101.961 228.312C100.953 228.803 99.9457 229.298 98.9371 229.791L97.4387 230.524C97.3351 230.575 97.2313 230.625 97.1291 230.677C96.8132 230.836 96.5058 231.006 96.2263 231.225C95.9442 231.446 95.7322 231.723 95.5979 232.027C95.4485 232.367 95.3984 232.743 95.4582 233.117C95.4846 233.287 95.5345 233.459 95.6101 233.627C95.6368 233.687 95.6685 233.744 95.7029 233.8C95.758 234.104 95.8466 234.4 95.9683 234.687C96.1379 235.083 96.38 235.455 96.6718 235.771C96.808 235.919 96.9649 236.077 97.1412 236.204C97.3554 236.359 97.5957 236.47 97.8543 236.46C98.3849 236.44 98.9267 236.186 99.3945 235.956C99.8817 235.717 100.354 235.446 100.829 235.186C101.813 234.651 102.797 234.115 103.782 233.58C104.196 233.354 104.682 233.15 105.012 232.802C105.355 232.438 105.435 231.962 105.41 231.477C105.361 230.571 105.097 229.654 104.507 228.948Z" fill="#FBB436"/>
<path d="M97.4087 234.497C97.483 235.102 97.3804 235.688 97.1413 236.203C96.7009 237.149 95.7982 237.854 94.6883 237.991C93.9994 238.076 93.3355 237.93 92.773 237.612C92.0716 237.215 91.5312 236.551 91.3009 235.739C91.2574 235.586 91.2254 235.426 91.2054 235.263C91.09 234.323 91.4022 233.43 91.9887 232.779C92.4748 232.24 93.1489 231.866 93.9244 231.77C94.5173 231.697 95.0914 231.795 95.5979 232.026C95.918 232.171 96.2118 232.371 96.4657 232.614C96.97 233.096 97.317 233.75 97.4087 234.497Z" fill="#DA5ED2"/>
<path d="M92.1362 234.809C91.0817 234.743 90.0274 234.678 88.9709 234.654C88.1903 234.637 88.0037 235.855 88.7917 235.873C89.8482 235.896 90.9025 235.961 91.957 236.027C92.7409 236.075 92.9248 234.857 92.1362 234.809Z" fill="#2E194C"/>
<path d="M89.5843 237.37C90.2637 235.779 89.5285 233.937 87.9422 233.256C86.3558 232.574 84.5191 233.311 83.8396 234.902C83.1602 236.493 83.8954 238.336 85.4817 239.017C87.068 239.698 88.9048 238.961 89.5843 237.37Z" fill="#808FFF"/>
<path d="M84.5522 235.729C83.3208 236.377 82.275 237.248 81.2757 238.21C80.7126 238.752 81.4495 239.739 82.0201 239.189C82.9345 238.309 83.8918 237.461 85.0207 236.867C85.7134 236.502 85.2535 235.36 84.5522 235.729Z" fill="#2E194C"/>
<path d="M119.036 231.402C119.117 232.066 118.984 232.708 118.692 233.258C118.342 233.918 117.759 234.444 117.039 234.716C116.811 234.803 116.568 234.864 116.315 234.895C114.888 235.071 113.566 234.252 113.045 232.98C112.939 232.727 112.868 232.454 112.832 232.168C112.621 230.449 113.839 228.885 115.551 228.674C115.711 228.654 115.87 228.647 116.025 228.652C116.042 228.652 116.06 228.652 116.076 228.653C116.125 228.655 116.172 228.658 116.219 228.663C116.887 228.723 117.504 228.999 117.99 229.425C118.549 229.916 118.938 230.605 119.036 231.402Z" fill="#DA5ED2"/>
<path d="M83.7837 240.399C83.9802 238.68 82.7497 237.126 81.0351 236.929C79.3205 236.731 77.7712 237.966 77.5747 239.685C77.3781 241.405 78.6087 242.959 80.3233 243.156C82.0378 243.353 83.5871 242.119 83.7837 240.399Z" fill="#DA5ED2"/>
<path d="M79.1164 241.408C78.3956 242.644 77.9451 244.001 77.8193 245.429C77.7499 246.216 78.9642 246.399 79.0338 245.609C79.1513 244.276 79.5717 243.048 80.2439 241.895C80.6426 241.211 79.5102 240.733 79.1164 241.408Z" fill="#2E194C"/>
<path d="M79.4455 249.681C80.9979 248.925 81.6451 247.05 80.8911 245.493C80.1371 243.936 78.2674 243.287 76.7151 244.043C75.1627 244.799 74.5155 246.674 75.2695 248.231C76.0235 249.788 77.8932 250.437 79.4455 249.681Z" fill="#808FFF"/>
<path d="M78.5098 249.282C78.8091 250.16 79.1785 251.004 79.6109 251.824C79.9767 252.517 81.1161 252.056 80.7458 251.354C80.3133 250.534 79.9439 249.69 79.6446 248.812C79.3892 248.063 78.2546 248.534 78.5098 249.282Z" fill="#2E194C"/>
<path d="M84.5906 248.307C84.2603 247.876 83.6933 247.687 83.1602 247.598C81.5804 247.334 80.7081 248.441 80.2495 249.783C80.1581 250.051 80.078 250.323 80.0089 250.597C79.4283 250.459 78.8127 250.447 78.2199 250.486C76.5058 250.598 74.1933 252.334 75.9402 254.545C77.7847 256.88 82.6934 258.112 84.3257 255.542C84.9162 254.612 85.2655 253.444 85.4797 252.362C85.7308 251.094 85.3448 249.289 84.5906 248.307Z" fill="#FBB436"/>
<path d="M82.8858 256.571C83.3676 257.081 83.8411 257.6 84.3654 258.067C84.6133 258.288 85.0319 258.211 85.2268 257.961C85.4418 257.685 85.3692 257.318 85.1207 257.097C84.6742 256.699 84.2723 256.259 83.862 255.824C83.6344 255.583 83.2852 255.491 83.0017 255.708C82.7599 255.893 82.6565 256.328 82.8858 256.571Z" fill="#2E194C"/>
<path d="M89.7828 258.786C89.9033 257.059 88.6053 255.561 86.8836 255.441C85.162 255.32 83.6686 256.622 83.5482 258.348C83.4277 260.075 84.7257 261.573 86.4474 261.693C88.169 261.814 89.6624 260.512 89.7828 258.786Z" fill="#DA5ED2"/>
<path d="M102.438 256.292C103.231 255.767 103.973 255.194 104.681 254.559C105.266 254.034 104.528 253.05 103.937 253.58C103.228 254.215 102.487 254.788 101.694 255.313C101.034 255.749 101.78 256.727 102.438 256.292Z" fill="#2E194C"/>
<path d="M88.4227 259.883C89.2144 260.061 90.0129 260.165 90.8231 260.203C91.6061 260.241 91.791 259.023 91.0023 258.985C90.1922 258.947 89.3937 258.843 88.6019 258.665C87.8297 258.492 87.6561 259.711 88.4227 259.883Z" fill="#2E194C"/>
<path d="M96.3833 259.647C96.9011 257.996 95.9862 256.236 94.34 255.717C92.6938 255.198 90.9396 256.115 90.4218 257.766C89.9041 259.417 90.8189 261.177 92.4651 261.696C94.1114 262.215 95.8656 261.298 96.3833 259.647Z" fill="#808FFF"/>
<path d="M102.103 258.972C103.324 257.748 103.324 255.764 102.103 254.54C100.883 253.316 98.9045 253.316 97.6842 254.54C96.4639 255.764 96.4639 257.748 97.6842 258.972C98.9045 260.196 100.883 260.196 102.103 258.972Z" fill="#DA5ED2"/>
<path d="M95.3562 259.258C96.3892 259.13 97.3403 258.957 98.2674 258.462C98.9574 258.093 98.4978 256.951 97.7989 257.324C96.9616 257.771 96.1391 257.921 95.2061 258.036C94.4223 258.133 94.571 259.355 95.3562 259.258Z" fill="#2E194C"/>
<path d="M121.858 228.635C120.846 228.737 119.879 228.874 118.941 229.29C118.529 229.472 118.139 229.691 117.749 229.916C117.446 230.091 117.132 230.388 116.828 230.534C116.119 230.874 116.581 232.015 117.296 231.672C117.557 231.546 117.753 231.34 117.996 231.185C118.379 230.942 118.784 230.721 119.193 230.527C120.103 230.095 121.016 229.957 122.008 229.856C122.795 229.777 122.645 228.555 121.858 228.635Z" fill="#2E194C"/>
<path d="M112.545 234.938C111.931 235.014 111.382 235.263 110.939 235.631C111.403 236.159 111.873 236.687 112.281 237.258C112.516 237.586 112.726 237.931 112.89 238.299C113.059 238.682 113.18 239.086 113.267 239.494C113.355 239.902 113.411 240.316 113.458 240.73C113.469 240.825 113.478 240.921 113.489 241.017C113.493 241.054 113.495 241.091 113.501 241.129C115.112 240.829 116.23 239.318 116.027 237.666C115.816 235.948 114.258 234.726 112.545 234.938Z" fill="#808FFF"/>
<path d="M122.893 224.166C122.515 223.327 121.966 222.618 121.347 222.169C121.295 222.131 121.242 222.096 121.19 222.062C121.564 221.078 121.495 219.843 120.929 218.651C120.79 218.356 120.528 218.14 120.211 218.058C119.891 217.974 119.553 218.037 119.283 218.229L118.837 218.547L118.396 217.874L119.999 216.743C120.384 216.57 120.677 216.115 120.396 215.731L111.047 202.929C111.03 202.904 111.009 202.882 110.99 202.862C110.953 202.804 110.915 202.748 110.873 202.691C109.63 200.989 107.031 200.772 105.067 202.207C103.103 203.642 102.52 206.185 103.763 207.888C103.804 207.944 103.846 207.998 103.89 208.051C103.903 208.076 103.919 208.101 103.936 208.126L112.993 220.524C113.255 221.005 113.786 221.134 114.181 220.845L115.809 219.697L116.26 220.386L115.551 220.892C115.282 221.084 115.112 221.385 115.085 221.716C115.059 222.043 115.177 222.361 115.409 222.59C116.268 223.439 117.296 223.905 118.269 223.953C118.276 224.617 118.443 225.344 118.758 226.042C119.489 227.664 120.781 228.661 121.869 228.526C122.022 228.508 122.17 228.467 122.313 228.402L122.313 228.402C123.472 227.876 123.727 226.015 122.893 224.166ZM109.763 212.824C109.571 212.96 109.312 212.925 109.186 212.747L105.101 207.175C104.193 205.887 104.589 204.485 106.01 203.479C107.431 202.472 108.88 202.566 109.788 203.854L113.836 209.601C113.962 209.78 113.908 210.037 113.716 210.173L109.763 212.824ZM116.079 221.908C116.04 221.87 116.035 221.824 116.037 221.792C116.039 221.764 116.051 221.71 116.104 221.672L116.785 221.187L117.166 221.769C117.648 222.505 120.29 220.767 119.808 220.03L119.362 219.348L119.837 219.009C119.862 218.991 119.887 218.983 119.91 218.98C119.935 218.977 119.957 218.98 119.972 218.984C120.002 218.992 120.044 219.012 120.067 219.062C120.506 219.986 120.57 220.951 120.299 221.695C119.961 221.636 119.636 221.671 119.338 221.806C118.881 222.014 118.555 222.427 118.39 222.992C117.624 222.975 116.777 222.598 116.079 221.908ZM121.919 227.53C121.353 227.787 120.272 227.077 119.628 225.648C119.356 225.046 119.213 224.407 119.223 223.859C119.555 223.772 119.871 223.628 120.158 223.424C120.37 223.272 120.554 223.093 120.714 222.895C120.738 222.911 120.763 222.927 120.788 222.945C121.267 223.292 121.717 223.881 122.024 224.561C122.668 225.99 122.486 227.273 121.919 227.53Z" fill="#D5CEE3"/>
<path d="M116.127 219.783C116.89 219.257 117.653 218.732 118.416 218.206C118.524 218.131 118.4 217.968 118.291 218.043C117.529 218.568 116.766 219.094 116.003 219.62C115.894 219.695 116.018 219.858 116.127 219.783Z" fill="black"/>
<path d="M116.155 220.718C116.186 220.811 116.235 220.899 116.284 220.983C116.331 221.064 116.385 221.15 116.459 221.208C116.501 221.241 116.571 221.236 116.603 221.191C116.635 221.145 116.63 221.082 116.585 221.047C116.578 221.042 116.572 221.036 116.566 221.03C116.554 221.02 116.581 221.047 116.573 221.037C116.57 221.034 116.566 221.03 116.563 221.027C116.549 221.011 116.537 220.996 116.525 220.979C116.496 220.941 116.471 220.9 116.447 220.859C116.437 220.843 116.454 220.873 116.448 220.862C116.445 220.856 116.442 220.85 116.438 220.844C116.433 220.834 116.427 220.823 116.421 220.813C116.41 220.792 116.4 220.771 116.39 220.75C116.373 220.714 116.357 220.678 116.344 220.64C116.327 220.589 116.258 220.562 116.21 220.584C116.157 220.609 116.137 220.663 116.155 220.718Z" fill="black"/>
<path d="M118.968 218.717C119.065 218.89 119.188 219.044 119.302 219.206C119.333 219.249 119.404 219.26 119.446 219.225C119.489 219.188 119.498 219.128 119.465 219.081C119.411 219.005 119.355 218.931 119.3 218.855C119.273 218.818 119.247 218.78 119.221 218.741C119.209 218.724 119.198 218.705 119.186 218.687C119.18 218.677 119.174 218.666 119.167 218.656C119.161 218.645 119.161 218.645 119.167 218.655C119.164 218.649 119.161 218.644 119.158 218.638C119.132 218.592 119.078 218.558 119.024 218.583C118.979 218.604 118.941 218.667 118.968 218.717Z" fill="black"/>
<path d="M118.778 222.913C118.977 222.702 119.283 222.641 119.563 222.66C119.83 222.678 120.158 222.752 120.36 222.94C120.457 223.03 120.582 222.867 120.486 222.778C120.25 222.558 119.856 222.466 119.543 222.454C119.198 222.441 118.859 222.53 118.617 222.787C118.526 222.883 118.688 223.009 118.778 222.913Z" fill="black"/>
<path d="M118.49 224.213C118.692 224.195 118.893 224.192 119.087 224.128C119.138 224.111 119.165 224.041 119.143 223.994C119.118 223.94 119.064 223.92 119.009 223.938C118.962 223.954 118.936 223.96 118.883 223.97C118.837 223.978 118.791 223.984 118.745 223.988C118.652 223.997 118.558 224.001 118.465 224.009C118.412 224.014 118.367 224.07 118.376 224.123C118.386 224.18 118.433 224.218 118.49 224.213Z" fill="black"/>
<path d="M120.524 221.663C120.574 221.669 120.624 221.678 120.672 221.69C120.679 221.692 120.685 221.694 120.692 221.695C120.707 221.699 120.676 221.69 120.69 221.695C120.702 221.699 120.713 221.702 120.725 221.706C120.749 221.714 120.773 221.723 120.797 221.733C120.819 221.743 120.841 221.753 120.862 221.764C120.873 221.769 120.884 221.775 120.894 221.781C120.904 221.787 120.9 221.785 120.893 221.78C120.899 221.784 120.904 221.787 120.91 221.791C120.953 221.818 120.994 221.85 121.033 221.884C121.073 221.919 121.145 221.909 121.176 221.866C121.21 221.818 121.202 221.76 121.159 221.722C120.989 221.572 120.777 221.488 120.554 221.46C120.501 221.453 120.444 221.49 120.438 221.546C120.433 221.601 120.468 221.656 120.524 221.663Z" fill="black"/>
<path d="M114.26 209.737C114.425 209.593 114.608 209.467 114.804 209.367C114.889 209.324 114.974 209.281 115.056 209.233C115.128 209.19 115.204 209.141 115.252 209.07C115.327 208.962 115.166 208.835 115.091 208.944C115.057 208.994 114.992 209.035 114.93 209.071C114.852 209.116 114.771 209.154 114.691 209.195C114.493 209.299 114.304 209.427 114.136 209.574C114.037 209.661 114.16 209.825 114.26 209.737Z" fill="black"/>
<path d="M110.226 204.18C110.339 204.201 110.446 204.172 110.559 204.173C110.67 204.174 110.753 204.236 110.834 204.306C110.989 204.443 111.114 204.61 111.27 204.747C111.569 205.011 111.915 205.096 112.307 205.052C112.438 205.037 112.413 204.834 112.282 204.849C112.1 204.869 111.912 204.87 111.739 204.803C111.567 204.737 111.421 204.618 111.293 204.488C111.156 204.349 111.034 204.188 110.873 204.075C110.788 204.016 110.697 203.975 110.592 203.969C110.479 203.964 110.368 203.998 110.256 203.977C110.126 203.953 110.097 204.156 110.226 204.18Z" fill="black"/>
<path d="M114.274 212.849C113.926 212.474 114.028 211.838 114.339 211.472C114.683 211.066 115.356 210.997 115.788 211.297C116.466 211.768 116.327 212.882 115.584 213.216C115.354 213.319 115.08 213.34 114.837 213.27C114.557 213.189 114.364 212.973 114.203 212.741C114.127 212.633 113.965 212.757 114.04 212.866C114.204 213.101 114.404 213.321 114.676 213.43C114.934 213.533 115.232 213.539 115.5 213.464C115.961 213.335 116.292 212.936 116.401 212.477C116.509 212.018 116.371 211.522 116.012 211.211C115.543 210.805 114.785 210.81 114.313 211.21C113.835 211.615 113.66 212.487 114.111 212.973C114.2 213.069 114.364 212.946 114.274 212.849Z" fill="black"/>
<path d="M98.435 235.982C99.0635 235.314 98.999 234.281 98.724 233.47C98.5652 233.002 98.3169 232.584 97.9645 232.236C97.7728 232.047 97.5601 231.857 97.3072 231.756C97.0524 231.654 96.7749 231.635 96.5232 231.523C96.4024 231.47 96.3219 231.658 96.4423 231.712C96.6706 231.813 96.9159 231.839 97.1509 231.917C97.3957 231.998 97.5936 232.165 97.7787 232.34C98.122 232.665 98.3632 233.061 98.5201 233.506C98.7861 234.261 98.8623 235.23 98.2737 235.856C98.1833 235.952 98.3453 236.077 98.435 235.982Z" fill="black"/>
<path d="M79.674 217.227C78.9486 218.709 78.2231 220.192 77.4977 221.674C75.7202 225.306 73.9426 228.939 72.165 232.571C69.932 237.135 67.6989 241.698 65.4659 246.261C65.2258 246.752 64.9858 247.242 64.7457 247.733L59.5443 245.173C59.4764 245.139 59.3944 245.167 59.3611 245.236L57.3427 249.36C57.3094 249.428 57.3374 249.51 57.4053 249.544L60.4175 251.027C60.4854 251.06 60.5134 251.142 60.4801 251.21L59.7998 252.601C59.7665 252.669 59.6845 252.697 59.6166 252.663L56.6044 251.181C56.5366 251.147 56.4545 251.175 56.4211 251.244L51.014 262.293C50.9807 262.361 51.0087 262.444 51.0767 262.477L54.0888 263.96C54.1567 263.993 54.1848 264.075 54.1513 264.143L52.8456 266.812C52.8123 266.88 52.8403 266.962 52.9082 266.996L54.8307 267.942C54.7146 268.165 54.5986 268.393 54.5523 268.634C54.3378 269.752 56.118 270.674 56.9254 270.017C57.1542 269.83 57.3283 269.549 57.4762 269.244L62.9488 271.938C63.0167 271.971 63.0987 271.943 63.1321 271.875L66.5408 264.909C66.5741 264.841 66.5461 264.759 66.4782 264.725L63.4661 263.243C63.3982 263.209 63.3702 263.127 63.4034 263.059L64.0837 261.669C64.117 261.601 64.1991 261.572 64.267 261.606L67.2791 263.089C67.347 263.122 67.429 263.094 67.4623 263.026L68.0826 261.758C68.1159 261.69 68.0878 261.608 68.0199 261.575L65.0078 260.092C64.9399 260.059 64.9118 259.976 64.9452 259.908L65.6261 258.517C65.6594 258.449 65.7414 258.421 65.8093 258.454L68.8215 259.937C68.8894 259.97 68.9714 259.942 69.0048 259.874L72.9055 251.902C72.9389 251.834 72.9108 251.752 72.843 251.719L67.276 248.978C69.44 244.556 71.604 240.134 73.7679 235.712C75.666 231.833 77.564 227.955 79.4621 224.076C80.3642 222.232 81.2663 220.389 82.1684 218.546C82.1803 218.521 82.1923 218.497 82.2044 218.472C82.2547 218.369 82.2651 218.258 82.2478 218.146C82.1277 217.365 80.2518 216.046 79.674 217.227Z" fill="#D5CEE3"/>
<path d="M91.1674 202.48C90.5268 201.986 89.8273 201.548 89.0741 201.177C82.9552 198.165 75.5607 200.7 72.5587 206.835C69.5554 212.972 72.0792 220.389 78.1981 223.401C80.4898 224.529 82.9607 224.878 85.3117 224.553C89.2394 224.011 92.8365 221.58 94.7149 217.742C97.3479 212.362 95.7309 205.997 91.1674 202.48ZM87.242 208.75C87.0184 208.842 86.7787 208.905 86.5283 208.936C84.9893 209.126 83.5876 208.028 83.3981 206.485C83.2085 204.94 84.3028 203.534 85.8418 203.344C87.0396 203.196 88.1546 203.827 88.6791 204.843C88.8286 205.132 88.9312 205.453 88.9734 205.796C89.1321 207.089 88.3912 208.284 87.242 208.75Z" fill="#2E194C"/>
<path d="M91.1684 202.48C90.4448 202.989 89.778 203.578 89.1868 204.236C89.0103 204.432 88.8415 204.635 88.6802 204.844C88.8297 205.133 88.9323 205.454 88.9745 205.797C89.1331 207.089 88.3922 208.285 87.2431 208.75C87.1777 208.811 87.1076 208.866 87.0339 208.915C87.0162 208.927 86.9976 208.938 86.9786 208.95C86.9707 209.007 86.9603 209.064 86.945 209.121C86.8721 209.393 86.7167 209.643 86.5628 209.877C86.4044 210.116 86.2278 210.343 86.0498 210.569C85.8678 210.799 85.6836 211.029 85.5139 211.269C85.3408 211.513 85.1917 211.772 85.0512 212.037C84.7759 212.556 84.5396 213.096 84.3511 213.652C83.9794 214.749 83.7971 215.917 83.8785 217.075C83.9194 217.658 84.0256 218.237 84.1996 218.794C84.6961 220.385 85.2693 222.012 85.4194 223.173C85.4734 223.59 85.3634 224.022 85.3127 224.554C89.2404 224.011 92.8376 221.581 94.716 217.743C97.3489 212.363 95.732 205.997 91.1684 202.48Z" fill="#200F38"/>
<path d="M108.731 189.352C109 189.765 110.252 192.686 110.669 193.937C111.528 194.865 112.683 194.129 112.756 193.937C112.91 193.529 110.669 188.096 109.613 187.052C106.351 182.854 101.034 180.424 95.3944 181.12C86.859 182.174 80.7701 189.996 81.8211 198.557C81.8818 199.05 81.9651 199.536 82.0694 200.013C82.7566 199.924 83.4532 199.893 84.1524 199.921C84.0223 199.395 83.9191 198.857 83.8514 198.306C82.9382 190.868 88.2285 184.072 95.6444 183.156C100.993 182.496 106.008 185.074 108.731 189.352Z" fill="#9F99BF"/>
<path d="M83.8555 204.571C84.67 205.956 85.6886 207.198 86.8648 208.259C87.3056 207.736 87.7968 207.254 88.3334 206.824C87.2322 205.849 86.2881 204.694 85.5458 203.398C84.835 203.564 84.2417 203.995 83.8555 204.571Z" fill="#9F99BF"/>
<path d="M109.159 203.209C107.127 206.89 103.429 209.581 98.9562 210.133C97.1336 210.359 95.3498 210.207 93.682 209.741C93.2834 210.296 93.0817 210.996 93.1715 211.728C95.0809 212.256 97.1214 212.427 99.2062 212.17C104.061 211.57 108.124 208.78 110.532 204.911L109.789 203.856C109.601 203.589 109.389 203.374 109.159 203.209Z" fill="#9F99BF"/>
<path d="M112.588 193.599C112.584 193.592 112.579 193.585 112.574 193.578C112.56 193.559 112.546 193.542 112.531 193.525C112.524 193.518 112.518 193.511 112.512 193.505C112.496 193.489 112.479 193.475 112.462 193.462C112.455 193.457 112.449 193.451 112.442 193.446C112.417 193.429 112.391 193.414 112.363 193.401C112.094 193.281 111.758 193.094 111.464 193.096C111.404 193.096 111.348 193.101 111.295 193.108C111.278 193.11 111.263 193.114 111.247 193.117C111.211 193.124 111.177 193.131 111.144 193.14C111.127 193.145 111.111 193.151 111.095 193.157C111.066 193.167 111.037 193.179 111.009 193.192C110.995 193.199 110.981 193.205 110.967 193.213C110.939 193.228 110.913 193.245 110.888 193.263C110.877 193.27 110.867 193.277 110.857 193.284C110.826 193.308 110.798 193.333 110.772 193.36C110.768 193.363 110.764 193.366 110.761 193.37C110.698 193.435 110.645 193.51 110.599 193.592C110.598 193.594 110.597 193.596 110.596 193.598C110.575 193.637 110.555 193.677 110.537 193.719C110.536 193.721 110.535 193.722 110.535 193.724C110.625 194.136 110.698 194.556 110.75 194.984C111.043 197.37 110.697 199.689 109.848 201.77C110.244 202.001 110.595 202.309 110.876 202.694C110.917 202.75 110.955 202.806 110.992 202.864C111.012 202.884 111.032 202.906 111.049 202.931L111.374 203.376C112.616 200.775 113.157 197.802 112.78 194.733C112.734 194.359 112.675 193.989 112.603 193.624C112.598 193.616 112.594 193.607 112.588 193.599Z" fill="#9F99BF"/>
<path d="M54.8633 267.725C55.5149 266.418 56.1655 265.111 56.8146 263.803C57.3382 262.748 57.8607 261.693 58.3828 260.637C58.8985 259.594 59.4138 258.551 59.9297 257.508C60.5504 256.253 61.172 254.999 61.7944 253.745C62.6365 252.049 63.4801 250.353 64.3247 248.658C64.449 248.409 64.5732 248.16 64.6975 247.91C64.7566 247.792 64.5683 247.711 64.5096 247.829C63.6298 249.594 62.751 251.359 61.8738 253.126C61.233 254.416 60.5933 255.706 59.9544 256.997C59.4314 258.054 58.909 259.111 58.3864 260.168C57.8692 261.215 57.3516 262.261 56.833 263.306C56.2054 264.572 55.5765 265.836 54.9464 267.1C54.8561 267.281 54.7658 267.462 54.6754 267.644C54.6163 267.762 54.8046 267.842 54.8633 267.725Z" fill="black"/>
<path d="M57.6973 269.061C58.3482 267.756 58.9982 266.45 59.6466 265.143C60.1686 264.092 60.6895 263.039 61.21 261.987C61.7237 260.948 62.237 259.909 62.751 258.87C63.37 257.618 63.9899 256.367 64.6106 255.117C65.4519 253.422 66.2947 251.728 67.1385 250.035C67.2627 249.786 67.387 249.536 67.5113 249.287C67.5703 249.169 67.382 249.088 67.3233 249.206C66.4442 250.97 65.5661 252.734 64.6896 254.498C64.0504 255.785 63.4123 257.073 62.775 258.36C62.254 259.413 61.7335 260.467 61.2129 261.52C60.6973 262.563 60.1814 263.605 59.6644 264.648C59.0377 265.911 58.4095 267.174 57.7804 268.436C57.69 268.617 57.5997 268.799 57.5094 268.98C57.4503 269.098 57.6386 269.178 57.6973 269.061Z" fill="black"/>
<path d="M52.6554 259.541C54.2807 260.345 55.9254 261.109 57.5507 261.913C57.669 261.972 57.7493 261.783 57.6316 261.725C56.0063 260.921 54.3616 260.157 52.7363 259.353C52.6178 259.294 52.5377 259.483 52.6554 259.541Z" fill="black"/>
<path d="M55.3155 254.227C56.9162 255.019 58.517 255.812 60.1177 256.604C60.2361 256.663 60.3163 256.474 60.1986 256.416C58.5979 255.623 56.9971 254.831 55.3964 254.038C55.278 253.98 55.1978 254.169 55.3155 254.227Z" fill="black"/>
<path d="M65.9522 252.914C67.5884 253.724 69.2247 254.534 70.8609 255.344C70.9793 255.403 71.0594 255.214 70.9418 255.156C69.3056 254.346 67.6693 253.536 66.0331 252.726C65.9147 252.667 65.8346 252.856 65.9522 252.914Z" fill="black"/>
<path d="M58.7843 266.985C60.501 267.835 62.2178 268.684 63.9345 269.534C64.0529 269.593 64.1331 269.404 64.0154 269.346C62.2986 268.496 60.5819 267.646 58.8652 266.796C58.7468 266.738 58.6666 266.927 58.7843 266.985Z" fill="black"/>
<path d="M83.7778 203.692C81.9 203.499 80.0396 204.051 78.5663 205.235C77.1314 206.388 76.1258 208.028 75.6395 209.798C75.1335 211.639 75.2318 213.594 75.9157 215.376C76.5812 217.11 77.7674 218.646 79.2915 219.705C80.8174 220.765 82.6635 221.318 84.5216 221.19C84.7635 221.174 85.0043 221.145 85.2437 221.107C85.3735 221.086 85.3491 220.883 85.2187 220.903C83.4052 221.191 81.5553 220.824 79.9713 219.898C78.4114 218.986 77.1533 217.575 76.3804 215.942C75.5893 214.271 75.33 212.397 75.6695 210.577C75.9997 208.805 76.8648 207.112 78.1653 205.86C79.471 204.604 81.1902 203.854 83.0082 203.855C83.2554 203.855 83.5021 203.87 83.7479 203.895C83.8787 203.908 83.9089 203.705 83.7778 203.692Z" fill="black"/>
</svg>
