<svg width="126" height="109" viewBox="0 0 126 109" fill="none" xmlns="http://www.w3.org/2000/svg">
    <path fill-rule="evenodd" clip-rule="evenodd" d="M92.8671 7.35272C89.6865 -1.73648 81.428 4.02336 78.3325 12.2485C75.3973 20.048 69.7425 48.8842 63.4368 59.1685L65.9175 60.3354C78.5315 49.2788 96.9388 18.9897 92.8671 7.35272Z" fill="#3AC491"/>
    <path fill-rule="evenodd" clip-rule="evenodd" d="M65.0055 59.9062C81.2288 40.757 88.0126 6.92902 88.0362 6.81389C88.0794 6.60458 87.944 6.39975 87.7341 6.35654C87.5241 6.31396 87.3199 6.44938 87.2767 6.65869C87.2531 6.77382 80.4626 40.6413 64.2877 59.5686L65.0055 59.9062Z" fill="#1D8C63"/>
    <path fill-rule="evenodd" clip-rule="evenodd" d="M97.7271 31.6867C105.193 31.8955 102.883 39.3544 97.5343 43.5795C93.9154 46.4384 82.706 52.8456 74.3606 58.8541C71.3093 60.4823 69.4956 60.9092 66.0281 60.0027L69.2044 56.4282C76.7579 44.9516 90.0096 31.471 97.7271 31.6867Z" fill="#1D8C63"/>
    <path fill-rule="evenodd" clip-rule="evenodd" d="M71.046 57.296C82.458 44.4545 99.1956 35.1677 99.263 35.1299C99.4077 35.0493 99.5908 35.1008 99.6724 35.2458C99.7533 35.3905 99.7015 35.5736 99.5568 35.6549C99.4901 35.6924 82.9284 44.8829 71.6056 57.5594L71.046 57.296Z" fill="#4ED0A0"/>
    <path opacity="0.25" d="M93 78L32.9423 98.5587L7.54203 57.3634C3.29181 50.2263 0.200739 39.9275 0.640028 34.3599C0.801133 32.3264 1.40795 31.2044 2.32282 30.9495L2.3273 30.9474C3.91953 30.5092 6.43382 32.6782 9.12769 37.2043L9.6701 38.1171L13.8677 45.1688C14.4284 46.1065 15.6359 46.5258 16.7183 46.1559L26.7511 42.7208L64.2154 29.8975C65.2033 32.3383 66.3523 34.7083 67.5997 36.8046L93 78Z" fill="#A1B7CF"/>
    <path d="M93.4669 77.1232L33.1994 98.626L9.37124 54.4529C5.19522 46.7038 2.21107 35.5565 2.70807 29.5541C2.89024 27.3617 3.50865 26.158 4.42611 25.8933L4.43063 25.8911C6.02731 25.4363 8.51898 27.8051 11.1658 32.7193L11.6988 33.7103H28.7311V38.8711L66.3263 25.459C67.2888 28.1038 68.4132 30.6741 69.6389 32.9501L70.9139 35.3144L93.4669 77.1232Z" fill="#F4F8FF"/>
    <path d="M9.9365 42.3188C9.42806 42.3188 8.95166 42.0011 8.77131 41.4917C8.54209 40.8442 8.87791 40.1324 9.52144 39.9019L60.8688 21.5003C61.5124 21.2695 62.2197 21.6075 62.449 22.2549C62.6782 22.9024 62.3423 23.6142 61.6988 23.8448L10.3514 42.2464C10.2143 42.2955 10.0742 42.3188 9.9365 42.3188Z" fill="#E4ECF9"/>
    <path d="M14.2355 53.987C13.7271 53.987 13.2507 53.6692 13.0703 53.1598C12.8411 52.5123 13.1769 51.8007 13.8204 51.57L65.1678 33.1683C65.8115 32.9375 66.5188 33.2755 66.748 33.9229C66.9772 34.5704 66.6414 35.2822 65.9978 35.5127L14.6504 53.9145C14.5133 53.9637 14.3732 53.987 14.2355 53.987Z" fill="#E4ECF9"/>
    <path d="M33.1287 87.8521C32.6203 87.8521 32.1439 87.5344 31.9635 87.025C31.7343 86.3775 32.0702 85.6659 32.7137 85.4352L84.061 67.0335C84.7046 66.8028 85.4119 67.1407 85.6412 67.7881C85.8704 68.4356 85.5346 69.1473 84.8912 69.3779L33.5437 87.7796C33.4065 87.8288 33.2664 87.8521 33.1287 87.8521Z" fill="#E4ECF9"/>
    <path d="M27.041 77.1187C26.5326 77.1187 26.0562 76.8009 25.8758 76.2915C25.6466 75.644 25.9824 74.9324 26.626 74.7017L77.9732 56.3C78.6167 56.0694 79.3242 56.4074 79.5534 57.0546C79.7826 57.7021 79.4468 58.4139 78.8034 58.6445L27.456 77.0462C27.3188 77.0954 27.1787 77.1187 27.041 77.1187Z" fill="#E4ECF9"/>
    <path d="M20.337 65.7368C19.8285 65.7368 19.3521 65.4191 19.1718 64.9097C18.9426 64.2622 19.2784 63.5504 19.9219 63.3198L71.2693 44.9182C71.9127 44.6876 72.6202 45.0255 72.8494 45.6728C73.0786 46.3203 72.7428 47.0321 72.0993 47.2627L20.7519 65.6643C20.6148 65.7135 20.4747 65.7368 20.337 65.7368Z" fill="#E4ECF9"/>
    <path opacity="0.25" d="M123.227 72.2562C123.226 72.2267 123.223 72.199 123.22 72.1693C123.216 72.1316 123.212 72.0959 123.206 72.058C123.194 71.9824 123.18 71.9065 123.16 71.832C123.16 71.83 123.158 71.828 123.159 71.826C123.146 71.7796 123.133 71.7332 123.118 71.6886C123.066 71.5227 122.996 71.3647 122.91 71.2168C122.89 71.1815 122.868 71.146 122.844 71.1103C122.794 71.0308 122.739 70.9566 122.68 70.8859C122.66 70.8624 122.641 70.839 122.62 70.8172C122.594 70.7872 122.568 70.7571 122.537 70.7285C122.534 70.7243 122.528 70.7198 122.523 70.7153L122.409 70.6078C122.409 70.6078 122.409 70.6058 122.407 70.6077L95.3118 45.2575C94.5154 44.5108 93.3214 44.3906 92.3937 44.9635L60.8394 64.4067L60.7065 64.4893C60.7003 64.4926 60.6942 64.4959 60.6899 64.4994C60.3371 64.7363 60.0491 65.066 59.8622 65.4567C59.7441 65.7035 59.6666 65.974 59.638 66.2612L56.3502 99.3039L56.3457 99.3492L56.3051 99.7574C56.299 99.8194 56.2949 99.8798 56.2947 99.9405C56.2942 99.9548 56.2944 99.9686 56.2941 99.9824C56.294 99.9931 56.2936 100.004 56.2936 100.014C56.2936 100.02 56.2932 100.026 56.2933 100.032C56.2933 100.033 56.2935 100.033 56.2934 100.033C56.2935 100.039 56.2945 100.045 56.2946 100.051C56.2948 100.088 56.2962 100.126 56.2979 100.162C56.2993 100.168 56.2986 100.176 56.2999 100.182C56.3012 100.197 56.3031 100.211 56.3045 100.225C56.3059 100.24 56.3076 100.255 56.3093 100.27C56.3102 100.278 56.3108 100.286 56.3119 100.294C56.3127 100.301 56.3137 100.308 56.3146 100.315C56.3199 100.356 56.3263 100.396 56.3331 100.436C56.3348 100.445 56.3367 100.452 56.3383 100.461C56.3417 100.478 56.3456 100.495 56.3493 100.512C56.3531 100.53 56.3562 100.549 56.361 100.566L56.3611 100.567C56.3611 100.567 56.3611 100.567 56.3611 100.567C56.3725 100.609 56.3836 100.653 56.3951 100.693C56.3956 100.695 56.3963 100.696 56.3968 100.698C56.4054 100.726 56.4163 100.754 56.426 100.782C56.4302 100.794 56.4328 100.807 56.4372 100.819C56.4492 100.856 56.465 100.893 56.4788 100.929C56.4813 100.935 56.4839 100.94 56.4863 100.945C56.4897 100.953 56.4936 100.961 56.497 100.969C56.5066 100.991 56.5158 101.012 56.5269 101.034C56.536 101.053 56.5466 101.072 56.5562 101.091C56.5683 101.114 56.58 101.138 56.5928 101.162C56.5988 101.173 56.6045 101.184 56.6107 101.195C56.6112 101.196 56.6115 101.197 56.6119 101.197C56.6327 101.235 56.6557 101.27 56.6791 101.306C56.6902 101.323 56.7013 101.34 56.7129 101.357C56.7298 101.382 56.7469 101.407 56.7641 101.43C56.7711 101.44 56.7797 101.448 56.7869 101.458C56.8204 101.502 56.8554 101.545 56.8919 101.586C56.9034 101.6 56.9148 101.613 56.9266 101.626C56.9415 101.642 56.9558 101.659 56.9712 101.675C57.032 101.738 57.0958 101.798 57.1633 101.854C57.1747 101.864 57.1869 101.873 57.1985 101.882C57.2153 101.895 57.2317 101.909 57.2489 101.922C57.2761 101.942 57.3033 101.963 57.3305 101.983C57.3492 101.996 57.3691 102.007 57.3882 102.019C57.4095 102.033 57.4312 102.046 57.453 102.059C57.4743 102.072 57.4951 102.085 57.5167 102.097C57.5515 102.117 57.5874 102.134 57.6232 102.152C57.6291 102.155 57.6349 102.158 57.6408 102.161C57.6545 102.168 57.6669 102.177 57.6807 102.183C57.6981 102.191 57.7169 102.199 57.7352 102.207C57.7446 102.211 57.7539 102.215 57.7633 102.219C57.7651 102.22 57.7667 102.221 57.7685 102.221C57.8151 102.242 57.8622 102.258 57.9093 102.275C57.9224 102.28 57.9335 102.285 57.9469 102.288C57.953 102.29 57.9596 102.292 57.9658 102.294C57.9746 102.297 57.9837 102.299 57.9926 102.302C58.0219 102.311 58.0512 102.32 58.0813 102.327C58.0834 102.328 58.086 102.328 58.0881 102.329C58.0956 102.331 58.103 102.333 58.1105 102.334C58.1192 102.336 58.1275 102.339 58.1365 102.341C58.1544 102.346 58.1724 102.349 58.1904 102.353C58.1986 102.354 58.2067 102.356 58.2149 102.358C58.2212 102.359 58.2274 102.361 58.2337 102.362C58.2624 102.367 58.293 102.372 58.3218 102.377C58.364 102.383 58.4063 102.389 58.4487 102.394L117.268 108.318C117.31 108.322 117.353 108.324 117.396 108.327C117.425 108.328 117.456 108.329 117.485 108.33C117.495 108.331 117.503 108.33 117.51 108.33C117.524 108.33 117.54 108.329 117.553 108.329C117.561 108.33 117.569 108.329 117.577 108.329C117.594 108.329 117.61 108.329 117.625 108.328C117.628 108.327 117.629 108.327 117.633 108.327C117.653 108.325 117.675 108.323 117.694 108.322C117.71 108.321 117.727 108.321 117.743 108.319C117.746 108.318 117.749 108.318 117.753 108.317C117.753 108.317 117.753 108.317 117.754 108.317C117.776 108.314 117.798 108.312 117.82 108.309C117.87 108.302 117.919 108.295 117.969 108.285C117.971 108.284 117.972 108.284 117.974 108.283C117.986 108.281 117.998 108.278 118.009 108.276C118.024 108.272 118.04 108.269 118.054 108.266C118.062 108.264 118.072 108.262 118.08 108.26C118.088 108.259 118.094 108.256 118.102 108.255C118.129 108.248 118.155 108.239 118.181 108.231C118.198 108.226 118.216 108.221 118.233 108.216C118.288 108.198 118.342 108.178 118.396 108.156C118.412 108.15 118.429 108.144 118.445 108.137C118.449 108.135 118.453 108.134 118.457 108.132C118.473 108.126 118.49 108.117 118.506 108.109C118.522 108.103 118.537 108.097 118.551 108.088C118.57 108.08 118.588 108.07 118.607 108.061C118.614 108.057 118.622 108.052 118.63 108.047C118.639 108.043 118.647 108.038 118.655 108.034C118.684 108.018 118.713 108.001 118.741 107.986C118.745 107.982 118.749 107.979 118.753 107.977C118.772 107.966 118.79 107.953 118.808 107.941C118.825 107.93 118.842 107.919 118.858 107.908C118.864 107.903 118.87 107.9 118.876 107.896C118.881 107.892 118.887 107.889 118.891 107.885C118.908 107.873 118.924 107.861 118.939 107.849C118.954 107.841 118.966 107.83 118.979 107.82C118.99 107.811 119 107.803 119.01 107.794C119.022 107.785 119.033 107.775 119.044 107.766C119.066 107.747 119.088 107.729 119.109 107.709C119.13 107.691 119.152 107.669 119.173 107.648C119.186 107.636 119.198 107.625 119.209 107.612C119.242 107.58 119.272 107.547 119.304 107.514C119.315 107.498 119.328 107.484 119.341 107.468C119.349 107.459 119.356 107.449 119.364 107.44C119.383 107.416 119.402 107.393 119.42 107.368C119.433 107.354 119.442 107.337 119.453 107.323C119.465 107.306 119.476 107.292 119.487 107.275C119.499 107.259 119.51 107.24 119.52 107.226C119.552 107.178 119.58 107.126 119.608 107.076C119.609 107.072 119.613 107.066 119.616 107.061C119.623 107.044 119.633 107.027 119.642 107.009C119.652 106.99 119.662 106.969 119.672 106.949C119.674 106.947 119.674 106.945 119.674 106.943C119.682 106.927 119.689 106.909 119.697 106.892C119.704 106.876 119.711 106.86 119.717 106.844C119.72 106.836 119.724 106.829 119.727 106.821C119.73 106.818 119.732 106.812 119.732 106.808C119.741 106.785 119.751 106.761 119.759 106.736C119.764 106.723 119.77 106.71 119.773 106.696C119.776 106.689 119.778 106.681 119.779 106.674C119.782 106.665 119.786 106.657 119.789 106.648C119.79 106.645 119.791 106.642 119.792 106.64C119.792 106.636 119.795 106.63 119.795 106.626C119.804 106.6 119.813 106.571 119.819 106.544C119.826 106.516 119.835 106.487 119.839 106.458C119.842 106.447 119.846 106.435 119.849 106.422C119.85 106.414 119.852 106.407 119.853 106.399C119.857 106.38 119.861 106.36 119.863 106.343C119.866 106.324 119.87 106.304 119.872 106.285C119.878 106.243 119.884 106.202 119.888 106.161L119.899 106.056L119.899 106.056L119.92 105.842L123.221 72.6651C123.225 72.6244 123.228 72.5815 123.23 72.5405C123.233 72.5114 123.234 72.4802 123.233 72.4507C123.234 72.4156 123.234 72.3802 123.232 72.3448C123.231 72.3154 123.23 72.2859 123.227 72.2562Z" fill="#919191"/>
    <path d="M125.374 73.0132L120.291 106.286C120.285 106.326 120.277 106.367 120.268 106.409C120.265 106.428 120.26 106.447 120.256 106.466C120.253 106.483 120.248 106.502 120.243 106.521C120.242 106.529 120.239 106.536 120.238 106.544C120.234 106.557 120.23 106.569 120.226 106.58C120.22 106.609 120.21 106.637 120.202 106.665C120.194 106.691 120.184 106.719 120.174 106.745C120.17 106.759 120.164 106.771 120.158 106.784C120.156 106.794 120.153 106.805 120.147 106.814C120.143 106.828 120.138 106.84 120.132 106.853C120.122 106.877 120.111 106.901 120.101 106.924C120.101 106.927 120.098 106.933 120.095 106.937C120.076 106.977 120.058 107.017 120.036 107.056C120.036 107.057 120.035 107.059 120.033 107.061C120.022 107.081 120.011 107.101 120.001 107.119C119.99 107.137 119.98 107.153 119.971 107.17C119.969 107.175 119.964 107.181 119.963 107.184C119.932 107.233 119.901 107.283 119.867 107.329C119.857 107.344 119.844 107.361 119.832 107.377C119.82 107.393 119.808 107.407 119.796 107.423C119.784 107.437 119.773 107.453 119.759 107.467C119.735 107.496 119.709 107.526 119.683 107.554C119.667 107.573 119.651 107.588 119.636 107.605C119.597 107.643 119.56 107.68 119.519 107.716C119.49 107.743 119.461 107.768 119.431 107.791C119.402 107.816 119.371 107.839 119.34 107.862C119.327 107.873 119.312 107.883 119.296 107.894C119.283 107.904 119.27 107.914 119.255 107.921C119.239 107.933 119.222 107.944 119.204 107.955C119.2 107.958 119.194 107.961 119.189 107.965C119.148 107.992 119.105 108.017 119.062 108.04C119.058 108.041 119.053 108.044 119.049 108.047C119.015 108.064 118.981 108.082 118.945 108.098C118.933 108.104 118.922 108.111 118.911 108.115C118.892 108.124 118.873 108.133 118.855 108.14C118.84 108.147 118.825 108.153 118.809 108.158C118.792 108.165 118.775 108.173 118.758 108.178C118.642 108.223 118.521 108.258 118.397 108.282C118.39 108.283 118.383 108.286 118.375 108.287C118.367 108.287 118.357 108.29 118.349 108.29C118.321 108.296 118.293 108.301 118.263 108.305C118.212 108.313 118.163 108.317 118.113 108.321C118.087 108.323 118.062 108.325 118.036 108.327C118.02 108.328 118.002 108.328 117.987 108.327C117.967 108.328 117.945 108.329 117.925 108.329C117.922 108.329 117.92 108.329 117.918 108.33C117.902 108.33 117.886 108.329 117.869 108.329C117.861 108.327 117.853 108.328 117.845 108.327C117.832 108.327 117.816 108.326 117.802 108.326C117.795 108.325 117.787 108.326 117.777 108.324C117.748 108.322 117.717 108.319 117.688 108.316C117.646 108.312 117.603 108.307 117.561 108.301L59.1339 99.2662C59.0917 99.2597 59.0498 99.2512 59.008 99.2428C58.9796 99.2364 58.9492 99.2297 58.9208 99.2233C58.8885 99.2164 58.8565 99.2075 58.8248 99.1967C58.806 99.1918 58.7871 99.1869 58.7704 99.1804C58.7253 99.1675 58.6808 99.1507 58.6382 99.1343C58.6251 99.1303 58.6142 99.1246 58.6014 99.1187C58.5553 99.0998 58.5092 99.0808 58.4636 99.058C58.4363 99.0439 58.4107 99.032 58.3853 99.0183C58.2637 98.9541 58.1477 98.8789 58.0387 98.7969C58.0126 98.7751 57.9865 98.7533 57.9604 98.7315C57.9308 98.7072 57.9015 98.681 57.874 98.655C57.7041 98.4966 57.5591 98.3163 57.4406 98.1165C57.4123 98.0707 57.3862 98.0232 57.3623 97.9741C57.2793 97.8114 57.2153 97.6397 57.1722 97.4594C57.1628 97.4185 57.154 97.3737 57.1449 97.3308C57.1357 97.288 57.1307 97.2438 57.1238 97.1993C57.1187 97.1551 57.1137 97.111 57.1106 97.0671C57.1073 97.0251 57.1054 96.9854 57.1039 96.9437C57.1029 96.9377 57.1041 96.9299 57.1031 96.9239C57.1032 96.8844 57.1037 96.8431 57.1057 96.8039C57.1041 96.8017 57.1047 96.7979 57.1052 96.794C57.1061 96.7626 57.1086 96.7334 57.1114 96.7022C57.1148 96.6416 57.122 96.5815 57.1314 96.5199L62.2142 63.247C62.2577 62.9617 62.3494 62.6958 62.4802 62.4555C62.6874 62.0752 62.9922 61.7613 63.3569 61.5434C63.3614 61.5401 63.3677 61.5372 63.374 61.5342L63.511 61.4587C63.9382 61.2426 64.4343 61.1536 64.9439 61.2324L123.371 70.2669C123.429 70.2758 123.484 70.2863 123.539 70.3007C123.549 70.3002 123.56 70.304 123.569 70.3073C123.622 70.3195 123.677 70.3339 123.727 70.3496C123.738 70.3533 123.752 70.3573 123.763 70.361C123.808 70.3758 123.852 70.3926 123.894 70.4109C123.906 70.4147 123.917 70.4183 123.928 70.424C123.981 70.446 124.032 70.4698 124.084 70.4954C124.131 70.5185 124.18 70.5458 124.225 70.5725C124.29 70.6101 124.352 70.6532 124.411 70.698C124.445 70.721 124.479 70.7459 124.51 70.7724C124.566 70.8166 124.619 70.8644 124.668 70.9154C124.671 70.9137 124.67 70.9157 124.67 70.9157L124.779 71.0291C124.784 71.0338 124.789 71.0385 124.792 71.043C124.821 71.0731 124.846 71.1045 124.87 71.1359C124.89 71.1587 124.908 71.1832 124.926 71.2077C124.981 71.2813 125.032 71.3583 125.079 71.4405C125.1 71.4774 125.12 71.5139 125.138 71.5503C125.217 71.7025 125.279 71.864 125.322 72.0324C125.334 72.0778 125.345 72.1248 125.355 72.1718C125.355 72.1737 125.356 72.1759 125.356 72.1778C125.372 72.2533 125.382 72.3298 125.39 72.4059C125.394 72.4441 125.396 72.4799 125.398 72.5177C125.4 72.5476 125.401 72.5754 125.401 72.6049C125.402 72.6347 125.402 72.6642 125.401 72.6938C125.401 72.7293 125.4 72.7646 125.396 72.7996C125.396 72.8291 125.393 72.8602 125.389 72.8892C125.384 72.93 125.38 72.9727 125.374 73.0132Z" fill="#C9DA2F"/>
    <path d="M125.356 72.177L62.4802 62.4546C62.6874 62.0743 62.9922 61.7604 63.3569 61.5425C63.3614 61.5392 63.3677 61.5363 63.374 61.5333L63.511 61.4578L96.0399 43.7147C96.9964 43.1918 98.1823 43.3752 98.9385 44.163L124.668 70.9145C124.671 70.9128 124.67 70.9148 124.67 70.9148L124.779 71.0282C124.784 71.0329 124.789 71.0376 124.792 71.0421C124.821 71.0722 124.845 71.1036 124.87 71.135C124.89 71.1579 124.908 71.1823 124.926 71.2068C124.981 71.2804 125.032 71.3574 125.078 71.4396C125.1 71.4765 125.12 71.513 125.138 71.5494C125.217 71.7016 125.279 71.8631 125.321 72.0315C125.334 72.0769 125.345 72.1239 125.355 72.1709C125.355 72.1729 125.356 72.1751 125.356 72.177Z" fill="#C9DA2F"/>
    <path d="M91.1172 85.6592L91.1168 85.6611C91.0096 85.7471 90.8863 85.8228 90.75 85.8806L59.2641 99.2864L59.1339 99.2662C58.8944 99.2292 58.6698 99.159 58.4636 99.058C58.4344 99.0436 58.4053 99.0293 58.378 99.0152C58.0205 98.8258 57.7197 98.5484 57.502 98.2149C57.4812 98.184 57.4607 98.1513 57.4405 98.1165C57.381 98.0186 57.3303 97.914 57.2859 97.8065C57.2699 97.7705 57.2576 97.7351 57.2434 97.6993C57.2315 97.662 57.2176 97.6243 57.2076 97.5872C57.1059 97.2519 57.0749 96.89 57.1314 96.5199L62.2142 63.247C62.2577 62.9617 62.3494 62.6958 62.4802 62.4555C62.6874 62.0752 62.9922 61.7613 63.3569 61.5434C63.3614 61.5401 63.3677 61.5372 63.374 61.5342L63.511 61.4587C63.9382 61.2426 64.4343 61.1536 64.9439 61.2324C65.2971 61.287 65.6282 61.4394 65.9004 61.6724L67.7699 63.2735L88.8398 81.3235L89.6323 82.0024L91.1445 83.2977C91.2573 83.3941 91.3524 83.5035 91.429 83.6179L91.4286 83.6198C91.8604 84.2726 91.7235 85.1689 91.1172 85.6592Z" fill="#DAE958"/>
    <path d="M125.374 73.0123L120.291 106.285C120.285 106.326 120.277 106.366 120.268 106.408C120.265 106.427 120.26 106.446 120.256 106.465C120.253 106.483 120.248 106.501 120.243 106.52C120.242 106.528 120.239 106.536 120.238 106.543C120.234 106.556 120.23 106.568 120.226 106.579C120.22 106.608 120.21 106.636 120.202 106.664C120.194 106.69 120.184 106.718 120.174 106.745C120.173 106.748 120.17 106.754 120.17 106.758C120.167 106.765 120.163 106.774 120.158 106.784C120.156 106.793 120.153 106.804 120.147 106.813C120.143 106.827 120.137 106.84 120.132 106.852C120.122 106.877 120.113 106.899 120.101 106.923C120.101 106.927 120.098 106.932 120.095 106.936C120.077 106.976 120.058 107.017 120.036 107.055C120.036 107.057 120.035 107.059 120.033 107.06C120.022 107.08 120.014 107.099 120.001 107.118C119.992 107.135 119.982 107.151 119.971 107.169C119.969 107.173 119.966 107.178 119.963 107.184C119.932 107.232 119.901 107.282 119.867 107.328C119.857 107.343 119.844 107.361 119.832 107.376C119.82 107.392 119.808 107.406 119.796 107.422C119.784 107.436 119.773 107.452 119.759 107.466C119.735 107.496 119.709 107.525 119.683 107.553C119.667 107.572 119.651 107.587 119.636 107.605C119.597 107.644 119.558 107.679 119.519 107.715C119.49 107.742 119.461 107.767 119.431 107.79C119.402 107.815 119.371 107.838 119.34 107.861C119.327 107.872 119.312 107.882 119.296 107.893C119.283 107.903 119.27 107.913 119.255 107.92C119.239 107.932 119.222 107.943 119.204 107.954C119.2 107.957 119.194 107.96 119.189 107.964C119.148 107.991 119.105 108.016 119.062 108.039C119.058 108.04 119.053 108.043 119.049 108.047C119.015 108.063 118.981 108.081 118.945 108.098C118.933 108.104 118.922 108.11 118.911 108.114C118.892 108.123 118.873 108.132 118.855 108.139C118.84 108.146 118.825 108.152 118.809 108.157C118.792 108.165 118.775 108.172 118.758 108.177C118.642 108.222 118.521 108.257 118.397 108.281C118.39 108.282 118.381 108.285 118.375 108.286C118.367 108.286 118.357 108.289 118.349 108.29C118.321 108.295 118.293 108.3 118.263 108.304C118.212 108.312 118.163 108.316 118.113 108.32C118.087 108.322 118.061 108.324 118.036 108.326C118.02 108.327 118.002 108.327 117.987 108.326C117.967 108.327 117.945 108.328 117.925 108.329L117.92 108.328C117.902 108.327 117.884 108.328 117.869 108.328C117.861 108.327 117.853 108.327 117.845 108.326C117.832 108.326 117.818 108.326 117.802 108.325C117.795 108.324 117.787 108.325 117.777 108.323C117.748 108.321 117.717 108.318 117.688 108.316C117.646 108.311 117.603 108.306 117.561 108.3L117.431 108.28L91.3994 85.9801C91.2866 85.8837 91.1916 85.7743 91.1168 85.6602L91.1172 85.6583C90.6835 85.0052 90.8198 84.1127 91.4287 83.6189L91.429 83.617C91.5344 83.5307 91.6577 83.455 91.794 83.3972L93.6211 82.6182L94.5797 82.2101L120.067 71.3591L122.378 70.375C122.674 70.2491 122.999 70.2084 123.317 70.2575L123.371 70.266C123.429 70.2749 123.484 70.2854 123.539 70.2998C123.548 70.2993 123.56 70.303 123.569 70.3064C123.622 70.3185 123.677 70.3329 123.727 70.3486C123.738 70.3524 123.752 70.3563 123.763 70.3601C123.808 70.3749 123.852 70.3916 123.894 70.41C123.906 70.4137 123.917 70.4174 123.928 70.4231C123.981 70.4451 124.032 70.4688 124.083 70.4944C124.131 70.5176 124.18 70.5449 124.225 70.5715C124.29 70.6092 124.352 70.6523 124.411 70.6971C124.445 70.7201 124.479 70.745 124.51 70.7715C124.566 70.8157 124.619 70.8634 124.668 70.9144C124.671 70.9127 124.67 70.9148 124.67 70.9148L124.779 71.0281C124.784 71.0329 124.789 71.0376 124.792 71.042C124.821 71.0721 124.846 71.1036 124.87 71.135C124.89 71.1578 124.908 71.1823 124.926 71.2067C124.981 71.2804 125.032 71.3574 125.079 71.4395C125.1 71.4764 125.12 71.513 125.138 71.5493C125.217 71.7016 125.279 71.8631 125.322 72.0314C125.334 72.0768 125.345 72.1238 125.355 72.1708C125.355 72.1728 125.356 72.1749 125.356 72.1769C125.372 72.2523 125.382 72.3289 125.39 72.405C125.394 72.4431 125.396 72.479 125.398 72.5168C125.4 72.5466 125.401 72.5745 125.401 72.604C125.402 72.6338 125.402 72.6633 125.401 72.6928C125.401 72.7284 125.4 72.7637 125.396 72.7987C125.396 72.8282 125.393 72.8593 125.389 72.8882C125.384 72.9292 125.38 72.9718 125.374 73.0123Z" fill="#DAE958"/>
    <path opacity="0.15" d="M120.36 105.835L120.307 106.181C120.097 107.553 118.868 108.502 117.561 108.3L59.1339 99.2652C57.8273 99.0631 56.9378 97.7867 57.1474 96.4145L57.2003 96.0685L87.9166 77.8983C88.944 77.4249 90.1318 77.6086 90.9704 78.3705L120.36 105.835Z" fill="#3E800E"/>
    <path d="M120.342 105.954L120.291 106.286C120.09 107.6 118.868 108.502 117.561 108.3L59.1339 99.2657C57.8273 99.0637 56.9307 97.834 57.1315 96.5194L57.1821 96.1879L95.5155 79.848C96.5389 79.4005 97.7267 79.5842 98.5693 80.3202L120.342 105.954Z" fill="#E6F370"/>
    <path opacity="0.25" d="M70.9139 35.3144L27.7708 50.8691C26.6846 51.2583 25.4815 50.7922 24.9306 49.7718L20.2733 41.1268C17.6265 36.2126 15.1348 33.8438 13.5382 34.2985L15.173 33.7103H28.731V38.8711L66.3262 25.459C67.2887 28.1038 68.4131 30.6741 69.6387 32.9501L70.9139 35.3144Z" fill="#3A7EC1"/>
    <path d="M11.1648 32.72L15.8238 41.3663C16.373 42.3856 17.578 42.8511 18.6642 42.4636L66.3253 25.4597L74.4654 22.5546C75.8204 22.071 76.426 20.4842 75.7409 19.2125L71.4323 11.215C68.7158 6.17186 66.1635 3.81211 64.5736 4.43203L64.5691 4.43428L4.4297 25.8918C6.02626 25.4371 8.51794 27.8059 11.1648 32.72Z" fill="#BFD6EF"/>
    <path fill-rule="evenodd" clip-rule="evenodd" d="M87.7191 86.4205C90.0492 89.0199 91.0194 91.2316 90.2899 92.8001C89.0719 95.4205 83.4263 95.5718 75.285 93.6977C67.4161 91.8872 57.0901 88.2284 46.1734 83.1533C40.1642 80.3592 34.5984 77.4251 29.7322 74.5435C26.9696 72.9071 24.4312 71.2864 22.1641 69.7173C21.4754 69.2445 21.4136 68.5457 21.6513 68.3165C21.8893 68.0867 22.3541 68.29 22.3541 68.29H22.3544C24.728 69.9568 27.4238 71.6884 30.3826 73.4411C35.2119 76.301 40.7398 79.2152 46.7127 81.9921C57.5464 87.029 67.7818 90.6563 75.5715 92.4495C83.089 94.1795 88.2019 94.2537 89.1284 92.2609C89.5683 91.3151 89.0438 89.9474 87.7114 88.2766C87.7164 88.1756 87.7186 88.0739 87.7186 87.9721V86.4205H87.7191Z" fill="#10BC7C"/>
    <path fill-rule="evenodd" clip-rule="evenodd" d="M21.1267 62.0771L17.488 70.4471L4.17699 55.5088L21.0901 60.1248L21.1267 62.0771Z" fill="#418265"/>
    <path fill-rule="evenodd" clip-rule="evenodd" d="M17.4879 70.4469L12.3546 64.6861C12.4522 64.004 12.4463 63.209 12.4463 63.209L17.6562 64.7802L17.4879 70.4469Z" fill="#5EBA9A"/>
    <path fill-rule="evenodd" clip-rule="evenodd" d="M4.17699 55.5088L26.508 59.9354L21.1267 62.0771L4.17699 55.5088Z" fill="#78D1B2"/>
    <path fill-rule="evenodd" clip-rule="evenodd" d="M4.17699 55.5088L10.6191 70.5884L17.656 64.7804L4.17699 55.5088Z" fill="#78D1B2"/>
</svg>
