<svg xmlns="http://www.w3.org/2000/svg" width="1818" height="1743" fill="none"><path fill="#fff" d="M0 0h1818v1743H0z"/><path fill="#D7D9D9" d="M489.275 1535.69H254.688v31.34h234.587z"/><path fill="#F9F9F9" d="M286.646 1536.98c.812 0 1.475 6.58 1.475 14.69s-.663 14.68-1.475 14.68-1.475-6.57-1.475-14.68.662-14.69 1.475-14.69m-5.109-.63c.817 0 1.476 6.57 1.476 14.68s-.659 14.68-1.476 14.68c-.812 0-1.475-6.57-1.475-14.68s.663-14.68 1.475-14.68m189.601.63c.813 0 1.475 6.58 1.475 14.69s-.662 14.68-1.475 14.68c-.817 0-1.475-6.57-1.475-14.68s.658-14.69 1.475-14.69m-5.108-.63c.816 0 1.475 6.57 1.475 14.68s-.659 14.68-1.475 14.68-1.475-6.57-1.475-14.68.658-14.68 1.475-14.68m-30.642 15.96c0 .81-26.871 1.47-60.009 1.47-33.145 0-60.008-.66-60.008-1.47 0-.82 26.863-1.48 60.008-1.48 33.138 0 60.009.66 60.009 1.48"/><path fill="#D7D9D9" d="M488.263 1676.79H253.671v62.68h234.592z"/><path fill="#F9F9F9" d="M491.267 1721.83c.021.05-.408.3-1.271.74-.858.45-2.166 1.05-3.908 1.79-3.487 1.42-8.754 3.44-15.904 4.55-7.033 1-16.471 1.28-25.813-3.67a34.3 34.3 0 0 1-12.254-11.11c-3.246-4.92-5.329-11.36-4.271-18.05.559-3.33 1.954-6.62 4.317-9.33 2.292-2.73 5.971-4.73 9.892-4.5 3.929.17 7.479 2.43 9.946 5.36 2.483 2.95 4.183 6.71 4.537 10.69.929 7.95-2.421 16.19-8.092 22.22-5.575 6.24-13.916 10.04-22.541 11.02-8.68 1.03-17.655-.35-26.171-3.26-8.517-2.93-16.925-7.7-22.867-15.36-2.912-3.8-5.017-8.52-5.325-13.53-.437-4.99 1.158-10.36 4.992-14.08 1.908-1.86 4.575-3.1 7.337-3.22 2.771-.13 5.442.77 7.671 2.16 4.525 2.81 7.417 7.61 8.633 12.64 2.205 10.25-1.854 20.93-9.25 27.62-7.42 6.74-17.137 9.74-26.412 10.75-9.338.93-18.725.24-27.379-2.7-8.617-2.87-16.371-8.54-20.829-16.19-4.538-7.48-6.025-16.95-2.609-24.9 1.604-3.94 5.234-7.44 9.571-8.1 4.225-.79 8.554.38 11.817 2.85 6.621 5.25 7.725 14.26 5.587 21.12-2.171 7.05-6.912 12.45-11.825 16.66-10.029 8.46-21.9 12.13-32.171 12.49-10.379.37-19.104-2.49-25.487-5.79-6.433-3.34-10.667-7.14-13.292-9.85-1.291-1.38-2.237-2.47-2.808-3.26-.588-.77-.867-1.18-.825-1.21.296-.41 4.696 6.84 17.442 13.3 6.325 3.07 14.87 5.68 24.895 5.16 9.934-.51 21.355-4.2 30.888-12.43 4.687-4.08 9.096-9.29 11-15.72 1.917-6.21.675-14.25-4.879-18.52-2.713-2.04-6.442-3-9.863-2.32-3.483.58-6.237 3.22-7.671 6.66-2.958 6.96-1.666 15.59 2.563 22.46 4.146 7.03 11.25 12.22 19.408 14.92 8.15 2.75 17.217 3.41 26.154 2.49 8.88-.97 17.992-3.87 24.75-10.05 6.671-5.98 10.313-15.8 8.35-24.77-1.066-4.39-3.583-8.5-7.316-10.81-3.663-2.43-8.45-2.35-11.438.69-3.029 2.93-4.496 7.47-4.096 11.75.263 4.36 2.08 8.52 4.725 11.99 5.38 6.99 13.363 11.64 21.467 14.44 8.196 2.82 16.779 4.15 24.938 3.21 8.15-.9 15.771-4.34 20.971-10.09 5.287-5.55 8.345-13.07 7.554-20.18-.571-6.89-5.829-13.61-12.167-14.04-3.125-.2-6.117 1.33-8.142 3.67-2.062 2.33-3.366 5.28-3.887 8.24-1.025 6.05.791 12.01 3.779 16.68a32.8 32.8 0 0 0 11.479 10.69c8.754 4.83 17.954 4.79 24.859 3.96 7.037-.9 12.316-2.72 15.845-3.96 3.53-1.29 5.346-2.07 5.396-1.97"/><path fill="#E5E5E4" d="M488.263 1567.93H274.621v108.75h213.642z"/><path fill="#D7D9D9" d="M310.117 1571.66c.817 0 1.475 23.57 1.475 52.63 0 29.08-.658 52.64-1.475 52.64-.812 0-1.475-23.56-1.475-52.64 0-29.06.663-52.63 1.475-52.63m16.196-1.35c.817 0 1.479 23.27 1.479 51.96 0 28.7-.662 51.96-1.479 51.96-.813 0-1.475-23.26-1.475-51.96 0-28.69.662-51.96 1.475-51.96m137.8-3.49c.812 0 1.475 24.5 1.475 54.71 0 30.23-.663 54.73-1.475 54.73-.817 0-1.475-24.5-1.475-54.73 0-30.21.658-54.71 1.475-54.71m-19.037 1.47c.812 0 1.475 23.87 1.475 53.31s-.663 53.31-1.475 53.31c-.817 0-1.475-23.87-1.475-53.31s.658-53.31 1.475-53.31"/><path fill="#E5E5E4" d="M1595.05 1330.54c22.14-11.43 48.22-12.91 72.81-8.85 13.21 2.18 26.97 6.14 35.97 16.06 8.98 9.92 10.69 27.38.36 35.91-6.14 5.07-14.71 5.84-22.67 5.75-19.25-.23-40.61-3.61-55.99 7.97-8.77 6.6-14.6 17.59-25.1 20.84-10.26 3.18-21.84-2.88-27.28-12.14-5.44-9.27-5.62-20.84-3.09-31.28 0 0 2.68-22.75 24.99-34.26m-50.74-97.95c13.54 19.34 39.86 12.94 52.06 1.13 12.21-11.81 17.36-28.91 22.06-45.24 10.73-37.27 21.54-76.38 13.57-114.35-2.39-11.35-6.63-22.67-14.61-31.09s-20.24-13.43-31.45-10.46c-13.27 3.5-21.52 16.5-27.48 28.86-17.53 36.34-26.8 76.64-26.94 116.99-.06 18.84 2.16 38.6 12.79 54.16m-37.19 27.75c14.7-17.45 17.49-42.9 10.95-64.76s-21.33-40.46-38.36-55.65c-19.98-17.8-43.45-31.65-68.69-40.52-9.94-3.5-20.41-6.25-30.89-5.25s-21.04 6.35-25.93 15.68c-7.22 13.79-.29 30.51 7.2 44.15a523.4 523.4 0 0 0 45.12 68.71c13.52 17.43 29.01 34.63 49.62 42.51 20.61 7.87 42.02 6.95 52.94-7.34"/><path fill="#D7D9D9" d="M1543.39 1524.36c.25.01.67-3.13 1.23-8.79.62-6.4 1.4-14.43 2.33-23.99 1.12-10.09 2.59-22.1 5.39-35.18 2.8-13.05 7.17-27.19 12.79-41.53 5.82-14.25 12.91-27.21 21.2-37.56 8.24-10.41 17.81-17.95 26.81-22.29 8.97-4.43 17.02-6.23 22.58-7.03 5.61-.58 8.74-1.02 8.74-1.27.01-.25-3.13-.29-8.9-.14-5.7.39-14.08 1.83-23.54 6.13-9.48 4.2-19.64 11.85-28.28 22.48-8.7 10.58-16.05 23.82-21.97 38.32-5.72 14.6-10.03 28.88-12.7 42.21-2.66 13.31-3.88 25.45-4.68 35.63-.76 10.18-1.05 18.43-1.18 24.13s-.07 8.86.18 8.88"/><path fill="#D7D9D9" d="M1545.04 1505.9c.13-.01.21-1.42.24-4.08-.01-3.07-.02-6.92-.03-11.66-.03-10.13-.02-24.77.52-42.85.89-36.18 4.01-75.1 10.02-129.99 5.69-51.6 13.34-111.66 21.41-150.71a670 670 0 0 1 5.11-23.87c1.57-7.01 2.91-13.06 4.19-17.95 1.11-4.61 2.01-8.36 2.73-11.33.58-2.61.83-3.99.71-4.03-.12-.03-.6 1.28-1.41 3.83-.89 2.93-2.02 6.63-3.39 11.17-1.5 4.85-3.04 10.85-4.8 17.84-1.83 6.97-3.75 14.94-5.65 23.81-7.98 35.38-16.43 84.83-22.51 139.84-6.02 55-8.74 105.08-8.97 141.34-.22 18.13.16 32.8.62 42.93.29 4.74.53 8.59.72 11.66.2 2.66.37 4.06.49 4.05"/><path fill="#D7D9D9" d="M1545.28 1409.32c.25-.01.21-4.34-.08-12.19-.45-7.82-1.52-19.14-3.73-33-2.34-13.83-5.61-30.25-10.74-48.09-2.22-8.15-7.45-27.7-20.1-56.9-16.69-39.57-39.34-71.91-59.05-91.95-4.63-5.31-9.78-9.15-13.9-12.91-2.13-1.8-4.01-3.6-5.93-5.03-1.93-1.32-3.73-2.57-5.39-3.71-6.49-4.44-10.13-6.78-10.26-6.56-.58.78 14.53 9.68 33.62 29.98 19.01 20.26 41.04 52.39 57.58 91.62 9.22 21.28 15.66 40.26 20.22 56.38 5.27 17.67 8.78 33.92 11.42 47.61 2.52 13.72 3.97 24.92 4.85 32.68.72 7.77 1.24 12.07 1.49 12.07"/><path fill="#E5E5E4" d="m1445.47 1565.02 9.68 132.58h170.33l9.68-132.58zm210.01-52.26h-226.47v52.26h226.47z"/><path fill="#D7D9D9" d="M1429.01 1692.53v14.48h222.73v-14.48z"/><path fill="#D7D9D9" d="m1450.08 1730.91-10.42-25.5h203.96l-12.17 25.5z"/><path fill="#F0F0F0" d="M1631.99 1608.35c.04.03-.23.44-.79 1.21-.68.9-1.52 2.02-2.54 3.38-2.43 3.1-5.75 7.35-9.93 12.7l-.44.56-.43-.59c-6.23-8.63-14.57-20.15-24.38-33.71h1.41c-7.25 10.27-15.33 21.7-24.01 33.98l-.75 1.07-.84-1c-8.86-10.54-18.48-21.99-28.46-33.87l1.64-.02c-.49.62-1.03 1.29-1.57 1.97-8.82 11.06-17.37 21.77-25.44 31.9l-.86 1.07-.78-1.11c-8.64-12.23-16.71-23.65-24.01-33.98l1.4.07c-11.84 13.48-21.88 24.92-29.58 33.69l-.52.6-.4-.67c-3.9-6.55-7.01-11.77-9.26-15.56-.97-1.68-1.76-3.05-2.38-4.14-.52-.94-.77-1.45-.73-1.48.05-.02.39.42.99 1.31.7 1.05 1.56 2.37 2.63 3.99 2.37 3.72 5.64 8.84 9.72 15.27l-.92-.07c7.58-8.88 17.45-20.46 29.1-34.1l.73-.86.67.92c7.36 10.28 15.51 21.65 24.22 33.83l-1.62-.05c8.05-10.14 16.57-20.87 25.39-31.95.53-.68 1.06-1.35 1.56-1.97l.81-1.02.83 1c9.96 11.9 19.55 23.37 28.39 33.93l-1.59.06c8.75-12.22 16.91-23.59 24.23-33.81l.71-.99.7.99c9.6 13.71 17.76 25.36 23.86 34.08l-.87-.03c4.35-5.21 7.81-9.36 10.33-12.37 1.12-1.3 2.02-2.35 2.76-3.2.64-.71.99-1.07 1.02-1.03m5.53-44.21c0 .59-42.68 1.06-95.31 1.06-52.65 0-95.32-.47-95.32-1.06 0-.58 42.67-1.06 95.32-1.06 52.63 0 95.31.48 95.31 1.06"/><path fill="#D7D9D9" d="M666.438 182.988c-.017.033-.346-.067-.971-.3-.75-.292-1.654-.65-2.758-1.084q-3.884-1.614-10.517-4.379c-9.287-3.975-22.396-9.587-38.508-16.487l-126.696-55.196c-1.504-.658-3.004-1.317-4.392-1.925l.913.004c-48.559 20.767-92.309 39.471-124.146 53.083-15.73 6.609-28.509 11.98-37.559 15.784l-10.241 4.179c-2.35.933-3.6 1.387-3.634 1.312-.029-.07 1.159-.662 3.45-1.733l10.075-4.567c8.984-3.962 21.667-9.558 37.275-16.445 31.767-13.78 75.421-32.709 123.871-53.721l.459-.196.458.2c1.387.608 2.887 1.267 4.392 1.925 49.283 21.754 93.9 41.454 126.425 55.808l38.216 17.159q6.526 3.007 10.346 4.77c1.067.521 1.942.942 2.667 1.296.596.3.892.475.875.513"/><path fill="#D7D9D9" d="M864.08 164.796H50.35v609.276h813.73z"/><path fill="#F9F9F9" d="M838.684 193.121H78.792v555.913h759.892z"/><path fill="#D7D9D9" d="M246.638 436.005s.791 93.321 5.537 121.791l117.046-5.537s-10.279-91.738-6.325-116.254z"/><path fill="#fff" d="m304.292 449.2.425-.045 1.267-.05c1.108-.08 2.754 0 4.871.241 2.095.334 4.675.9 7.441 2.213 2.754 1.308 5.613 3.441 8.1 6.408 2.396 3.017 4.592 6.763 5.613 11.271.962 4.512.471 9.579-1.229 14.462-.83 2.45-1.959 4.867-3.288 7.225-1.321 2.359-2.65 4.73-3.75 7.3-2.208 5.109-3.958 10.734-4.729 16.613l-.054.387-.375.005c-3.696.062-7.6.125-11.559.187-4.154.067-8.245.133-12.125.192l-.429.008-.012-.437c-.2-5.892-2.846-11.25-5.625-16-1.404-2.396-2.942-4.646-4.379-6.921-1.409-2.229-2.996-4.371-4.113-6.704-2.308-4.659-2.704-9.817-1.833-14.255.837-4.454 2.316-8.487 4.512-11.666s4.988-5.388 7.621-6.859c2.65-1.475 5.142-2.275 7.188-2.779a31 31 0 0 1 4.779-.775c.55-.033.971-.058 1.254-.05zl-.425.055c-.325.033-.733.075-1.242.129a35 35 0 0 0-4.716.921c-2.013.545-4.459 1.383-7.038 2.87-2.571 1.48-5.266 3.68-7.366 6.792-2.1 3.096-3.525 7.083-4.313 11.446-.817 4.354-.404 9.304 1.85 13.8 1.092 2.258 2.646 4.333 4.1 6.617 1.429 2.237 2.988 4.508 4.417 6.92 2.816 4.8 5.55 10.234 5.771 16.413l-.442-.429 12.121-.196 11.558-.183-.425.395c.796-6.041 2.575-11.679 4.829-16.862 1.117-2.592 2.492-5.029 3.809-7.358 1.32-2.321 2.437-4.688 3.262-7.084 1.688-4.775 2.183-9.691 1.288-14.062-.946-4.354-3.084-8.088-5.392-11.046-2.4-2.925-5.163-5.042-7.846-6.363-2.692-1.329-5.221-1.937-7.287-2.312-2.084-.288-3.717-.417-4.825-.392-.513-.016-.93-.025-1.259-.033z"/><path fill="#fff" d="m310.292 514.213-.071-.371-.175-1.083c-.15-.971-.366-2.375-.641-4.175-.525-3.634-1.305-8.896-1.83-15.442a134 134 0 0 1-.3-5.146c-.058-1.791-.137-3.658-.033-5.591.108-1.934.421-3.963 1.321-5.859.896-1.862 2.387-3.612 4.462-4.466 2.059-.892 4.68-.43 6.371 1.212.834.817 1.392 1.988 1.367 3.204-.004 1.209-.471 2.384-1.2 3.35-.717.984-1.721 1.738-2.813 2.275-1.095.55-2.283.892-3.479 1.154-2.4.509-4.875.784-7.387.863-2.513.054-5 .008-7.434-.363-1.212-.2-2.408-.512-3.52-1.016a9.1 9.1 0 0 1-2.95-2.096c-.817-.883-1.442-1.963-1.7-3.133-.271-1.171-.092-2.413.416-3.467.504-1.05 1.363-1.954 2.45-2.383 1.088-.438 2.321-.313 3.329.154 1.021.471 1.867 1.233 2.488 2.116.621.896.996 1.905 1.242 2.913.479 2.037.466 4.054.591 5.975l.559 10.717c.329 6.545.6 11.841.783 15.52.083 1.821.15 3.242.196 4.225q.024.705.041 1.096v.375l-.037-.371c-.017-.262-.046-.629-.075-1.095-.063-.98-.154-2.4-.267-4.221-.212-3.675-.516-8.975-.896-15.513-.187-3.279-.387-6.866-.604-10.721-.133-1.92-.129-3.933-.6-5.908-.241-.983-.612-1.962-1.2-2.804-.596-.842-1.404-1.558-2.358-1.996-.946-.437-2.079-.546-3.067-.146-.991.392-1.787 1.229-2.262 2.217-.471.992-.638 2.146-.384 3.242.242 1.1.834 2.12 1.617 2.962 1.571 1.729 3.896 2.633 6.267 3 2.387.367 4.875.413 7.362.354 2.492-.075 4.95-.35 7.325-.85 1.179-.258 2.338-.596 3.396-1.121 1.054-.52 2.004-1.237 2.688-2.166.691-.917 1.125-2.025 1.129-3.142.025-1.121-.484-2.183-1.259-2.954-1.583-1.538-4.054-1.988-6-1.15-1.975.804-3.429 2.487-4.3 4.296-.875 1.833-1.195 3.829-1.308 5.733-.108 1.917-.037 3.783.013 5.567a139 139 0 0 0 .279 5.137c.491 6.542 1.229 11.804 1.712 15.442l.571 4.187q.089.7.142 1.088z"/><path fill="#fff" d="M294.884 514.83c.058.054.158 1.45.304 3.891q.22 4.231.521 10.138l-.096-.246 7.879 9.079-.404-.171c2.871-.162 5.933-.337 9.108-.512l-.379.192a2880 2880 0 0 1 4.533-5.542c.767-.933 1.529-1.854 2.275-2.767l-.121.354c-.125-5.341-.241-10.391-.345-15.004l.495.471c-6.637.075-12.391.138-17.016.188-1.846 0-3.467-.005-4.921-.005-1.154-.012-1.792-.029-1.833-.066-.038-.038.529-.088 1.625-.154 1.416-.075 2.995-.159 4.8-.25 4.708-.188 10.566-.417 17.32-.68l.484-.02.016.491c.138 4.609.292 9.663.45 15l.009.2-.129.159q-1.12 1.37-2.271 2.77a5347 5347 0 0 0-4.55 5.53l-.15.183-.234.012-9.112.446-.25.009-.158-.184c-2.813-3.354-5.421-6.458-7.73-9.208l-.095-.113v-.137c-.038-4.038-.071-7.5-.1-10.4 0-2.417.016-3.708.075-3.654"/><path fill="#fff" d="M318.396 528.013c-.013.025-.317-.117-.863-.367-.55-.25-1.35-.587-2.366-.933a23.4 23.4 0 0 0-8.225-1.254 23.5 23.5 0 0 0-8.138 1.75 27 27 0 0 0-2.304 1.079c-.529.283-.825.442-.837.417-.013-.017.254-.217.77-.542a19 19 0 0 1 2.271-1.187c1.967-.896 4.896-1.78 8.225-1.88 3.329-.104 6.304.605 8.325 1.375 1.013.384 1.809.759 2.342 1.05.529.288.812.471.8.492m-.004-3.646c-.013.025-.317-.116-.863-.366-.55-.246-1.35-.588-2.362-.934a23.5 23.5 0 0 0-8.229-1.254 23.5 23.5 0 0 0-8.138 1.75c-.991.413-1.771.8-2.3 1.079-.533.284-.825.442-.841.417-.013-.017.258-.217.77-.538.513-.32 1.28-.75 2.271-1.191 1.971-.896 4.9-1.779 8.225-1.879 3.329-.105 6.304.604 8.325 1.375 1.017.383 1.809.758 2.342 1.05.533.287.812.47.8.491m-.213-3.466c-.016.025-.316-.117-.866-.363a26 26 0 0 0-2.363-.937 23.5 23.5 0 0 0-8.229-1.255c-3.271.1-6.163.934-8.133 1.755-.992.408-1.775.795-2.305 1.079-.529.279-.825.437-.841.416-.013-.02.258-.22.771-.541a19.5 19.5 0 0 1 2.27-1.192c1.971-.892 4.9-1.779 8.23-1.879 3.325-.104 6.304.604 8.32 1.375 1.017.383 1.813.762 2.342 1.05.534.287.813.475.804.492"/><path fill="#E5E5E4" d="M116.279 283.446s.792 93.321 5.538 121.792l117.05-5.537s-10.283-91.738-6.329-116.255z"/><path fill="#fff" d="M214.896 322.646c.041.634-17.513 2.2-39.2 3.509-21.692 1.3-39.309 1.845-39.342 1.212-.042-.629 17.508-2.2 39.204-3.504 21.684-1.308 39.3-1.85 39.338-1.217m.033 19.763c.038.633-17.516 2.204-39.204 3.508-21.692 1.308-39.304 1.85-39.342 1.217-.037-.63 17.513-2.2 39.205-3.509 21.687-1.304 39.304-1.846 39.341-1.216m-19.896 19.408c.038.634-9.95 1.75-22.304 2.492-12.362.742-22.408.833-22.446.2-.037-.634 9.946-1.746 22.304-2.492 12.359-.742 22.409-.829 22.446-.2"/><path fill="#E5E5E4" d="M110.742 558s.791 93.321 5.533 121.792l117.05-5.537S223.042 582.517 226.996 558z"/><path fill="#fff" d="M209.358 597.196c.034.634-17.516 2.205-39.204 3.509-21.696 1.308-39.304 1.85-39.341 1.216-.038-.629 17.512-2.2 39.204-3.504 21.687-1.308 39.3-1.854 39.341-1.221m.03 19.767c.037.633-17.517 2.204-39.2 3.508-21.696 1.309-39.304 1.85-39.346 1.217-.038-.633 17.512-2.204 39.208-3.508 21.684-1.304 39.3-1.846 39.338-1.217m-19.896 19.408c.037.634-9.95 1.75-22.304 2.492-12.359.746-22.409.834-22.446.2s9.95-1.746 22.308-2.487c12.354-.746 22.404-.838 22.442-.205"/><path fill="#E5E5E4" d="m430.613 308.179 11.591 269.163 336.013 4.054-15.083-269.658z"/><path fill="#F0F0F0" d="M760.496 306.25H426.717v252.034h333.779z"/><path fill="#D7D9D9" d="M760.496 558.288s-.066-1.625-.1-4.675c-.029-3.121-.062-7.608-.108-13.45-.058-11.817-.138-29.033-.242-51-.121-43.946-.287-106.833-.491-182.913l.941.942c-94.358.058-209.537.129-333.75.208h-.029l1.15-1.15c-.042 90.646-.079 176.471-.117 252.034l-1.033-1.034c98.762.213 182.067.392 240.763.517 29.354.117 52.537.213 68.475.275l18.2.125c2.025.025 3.579.046 4.708.059 1.063.02 1.633.062 1.633.062s-.491.037-1.512.058c-1.1.017-2.621.034-4.596.059l-17.996.125c-15.883.066-38.987.158-68.237.275-58.859.129-142.401.304-241.438.516h-1.033v-1.037c-.038-75.563-.075-161.388-.113-252.034l-.004-1.146h1.179c124.213.075 239.392.146 333.75.205h.946v.941c-.208 76.325-.375 139.417-.492 183.505-.104 21.875-.187 39.016-.241 50.787-.046 5.763-.084 10.192-.109 13.271-.033 2.987-.104 4.475-.104 4.475"/><path fill="#F0F0F0" d="M602.288 359.646H466.984V529.93h135.304z"/><path fill="#D7D9D9" d="M602.288 529.93q-.027-.033-.058-.859c-.017-.646-.034-1.437-.059-2.425q-.045-3.362-.121-9.312c-.066-8.225-.158-20.029-.275-34.934-.125-29.975-.304-72.387-.512-122.754l1.025 1.029-135.288.117c-.275.246 2.159-2.154 1.129-1.117v23.384l-.012 22.95-.038 44.183c-.05 28.6-.1 55.404-.141 79.738l-.954-.955c40.591.209 74.279.375 97.962.496 11.75.104 21.013.188 27.488.246 3.091.046 5.512.083 7.287.108a50 50 0 0 1 2.567.105c.037.037-.767.07-2.363.104-1.733.029-4.091.062-7.104.108-6.425.058-15.616.142-27.275.246-23.829.117-57.721.287-98.562.496l-.95.004-.005-.958c-.041-24.334-.091-51.138-.141-79.738l-.038-44.183-.012-22.95V365.53l-.004-2.946v-2.909c-1.021 1.017 1.391-1.433 1.166-1.179 48.821.046 94.967.088 135.288.121h1.033l-.004 1.029c-.208 50.638-.387 93.284-.517 123.421-.112 14.804-.204 26.529-.27 34.7-.05 3.883-.092 6.917-.121 9.113-.025.941-.046 1.695-.059 2.308-.02.512-.041.762-.062.742"/><path fill="#F0F0F0" d="M731.471 320.679H472.167v24.538h259.304z"/><path fill="#D7D9D9" d="M731.476 345.217c-.034-.029-.059-.6-.092-1.679-.029-1.196-.063-2.767-.113-4.763-.058-4.262-.15-10.316-.262-18.091l.462.462c-43.729.4-143.408.679-259.292.679h-.012c2.292-2.291.637-.629 1.146-1.141v12.479c0 4.108-.004 8.146-.004 12.054l-1.142-1.146c72.517.196 137.138.367 183.804.488 23.263.146 42.042.258 55.163.341l15.012.159 3.934.079c.895.025 1.366.05 1.396.079.025.025-.392.05-1.238.079-.971.021-2.217.046-3.783.075-3.517.042-8.455.092-14.755.163-13.058.079-31.745.196-54.9.337-46.875.125-111.787.296-184.633.488l-1.146.004v-13.2q-.005-3.081-.004-6.213v-6.266c.517-.513-1.146 1.141 1.15-1.15h.012c115.884 0 215.563.279 259.292.683l.475.004-.008.463c-.113 7.891-.204 14.037-.263 18.362-.05 1.95-.083 3.488-.112 4.654-.033 1.034-.058 1.546-.087 1.517"/><path fill="#F0F0F0" d="M731.471 359.646H618.854v102.625h112.617z"/><path fill="#D7D9D9" d="M731.476 462.271c-.038-.033-.076-.708-.113-1.983-.025-1.421-.063-3.258-.108-5.571-.063-5.017-.15-12.05-.254-20.917-.125-18.058-.296-43.55-.505-74.154l.975.975-112.608.171c-.263.246 2.162-2.167 1.137-1.129v13.883c-.004 4.596-.004 9.154-.008 13.667l-.025 26.475c-.037 17.217-.075 33.525-.104 48.583l-1.008-1.004c33.4.208 61.383.388 81.237.508 9.767.113 17.525.205 23.042.267 2.558.05 4.591.088 6.15.117 1.404.037 2.15.079 2.192.112.037.042-.634.079-1.967.117-1.508.033-3.479.071-5.954.121l-22.821.262-81.879.509-1.005.008-.004-1.017c-.033-15.058-.066-31.366-.104-48.583l-.025-26.475q-.001-6.771-.008-13.667v-13.883c-1.029 1.017 1.391-1.417 1.154-1.167l112.608.171.988.004-.009.975c-.208 30.859-.379 56.567-.5 74.771-.108 8.775-.195 15.738-.258 20.7-.042 2.233-.083 4.013-.108 5.388-.038 1.204-.075 1.804-.108 1.766"/><path fill="#F0F0F0" d="M731.471 478.363H618.854v51.567h112.617z"/><path fill="#D7D9D9" d="M731.476 529.93c-.058-.059-.117-1.346-.179-3.738-.05-2.596-.121-6.037-.209-10.358-.108-9.096-.262-21.838-.446-37.471l.83.833c-29.371.084-68.996.192-112.609.313-1.029 1.025 1.388-1.396 1.138-1.142v6.754q.001 3.365-.004 6.692c0 4.438-.009 8.817-.009 13.133-.016 8.625-.029 16.98-.046 24.984l-1.087-1.088 80.533.517c9.842.125 17.755.229 23.467.3 2.6.058 4.696.1 6.338.137 1.458.046 2.237.088 2.283.134.042.046-.65.087-2.021.133-1.583.033-3.604.079-6.113.138-5.654.07-13.483.175-23.22.3-20.288.129-48.488.308-81.267.52l-1.088.005v-1.096c-.016-8.004-.029-16.359-.045-24.984-.005-4.316-.005-8.695-.009-13.133l-.004-6.692v-6.754c-.25.242 2.175-2.179 1.154-1.154 43.613.125 83.238.233 112.609.317l.846.004-.013.829c-.183 15.846-.337 28.758-.446 37.983-.087 4.238-.158 7.621-.208 10.163-.063 2.304-.121 3.479-.175 3.421"/><path fill="#fff" d="M598.942 359.938c-41.883 57.858-90.075 112.138-131.958 169.992Z"/><path fill="#D7D9D9" d="M466.984 529.93c-.063-.046.316-.7 1.104-1.9.958-1.404 2.125-3.117 3.537-5.184 3.096-4.487 7.725-10.87 13.546-18.683 11.625-15.637 28.263-36.8 46.892-59.946 18.637-23.146 35.462-44.125 47.404-59.496 5.796-7.483 10.563-13.641 14.117-18.225 1.546-1.966 2.825-3.596 3.879-4.929.904-1.112 1.417-1.671 1.479-1.625s-.321.696-1.104 1.896l-3.538 5.187c-3.091 4.484-7.725 10.867-13.545 18.68-11.625 15.637-28.263 36.804-46.9 59.954-18.634 23.141-35.45 44.121-47.392 59.492-5.8 7.479-10.571 13.637-14.121 18.225a2863 2863 0 0 1-3.879 4.925c-.908 1.112-1.417 1.675-1.479 1.629"/><path fill="#D7D9D9" d="M602.288 529.93c-.496.395-31.188-37.409-68.546-84.425-37.371-47.034-67.254-85.467-66.758-85.859.495-.396 31.183 37.4 68.554 84.429 37.358 47.017 67.25 85.459 66.75 85.855M442.205 360.009c0 11.691-9.475 21.166-21.171 21.166-11.688 0-21.167-9.475-21.167-21.166s9.479-21.171 21.167-21.171c11.696 0 21.171 9.479 21.171 21.171m346.196-51.384c0 11.692-9.475 21.171-21.167 21.171-11.687 0-21.167-9.479-21.167-21.171 0-11.687 9.48-21.166 21.167-21.166 11.692 0 21.167 9.479 21.167 21.166m828.029 147.438H1372.5V809.63h243.93z"/><path fill="#F0F0F0" d="M1604.21 456.063h-243.93V809.63h243.93z"/><path fill="#fff" d="M1573.9 494.355h-183.32v276.979h183.32z"/><path fill="#D7D9D9" d="M1573.9 771.334s-.02-.471-.04-1.354c0-.913-.02-2.221-.03-3.925-.02-3.483-.04-8.579-.07-15.196-.04-13.275-.1-32.617-.17-57.054-.07-48.842-.18-118.004-.3-199.45l.61.608c-56.01.017-118.07.033-183.29.054h-.03l.67-.662c-.06 104.487-.1 200.829-.14 276.979l-.53-.529 133.43.279c15.93.058 28.37.104 36.87.133 4.22.03 7.45.046 9.67.063 2.2.017 3.35.054 3.35.054s-1.08.042-3.23.058l-9.58.059c-8.47.029-20.87.079-36.75.133l-133.76.279h-.52v-.529c-.04-76.15-.09-172.492-.14-276.979v-.663h.69c65.22.017 127.28.038 183.29.054h.61v.609c-.13 81.612-.23 150.908-.3 199.85-.07 24.379-.13 43.675-.17 56.917-.03 6.562-.06 11.616-.07 15.07-.01 1.68-.02 2.959-.03 3.859a24 24 0 0 1-.04 1.283"/><path fill="#D7D9D9" d="M1604.89 456.063c.14.108-1.51 2.525-4.35 6.317-2.83 3.787-6.85 8.941-11.44 14.516s-8.88 10.509-12.06 14.017-5.23 5.596-5.36 5.475c-.15-.121 1.66-2.429 4.65-6.087l11.74-14.246 11.74-14.259c3.02-3.633 4.93-5.85 5.08-5.733"/><path fill="#fff" d="M1574.83 770.442a226.8 226.8 0 0 0 31.98 39.988Z"/><path fill="#D7D9D9" d="M1606.81 810.43c-.13.121-2.3-1.767-5.58-5.071-3.27-3.304-7.62-8.054-12.06-13.604s-8.11-10.833-10.61-14.758c-2.51-3.925-3.87-6.463-3.73-6.555.17-.104 1.81 2.255 4.5 6.03 2.69 3.77 6.47 8.937 10.88 14.454 4.41 5.516 8.62 10.337 11.71 13.791s5.03 5.575 4.89 5.713"/><path fill="#fff" d="m1360.24 809.351 31.95-39.425Z"/><path fill="#D7D9D9" d="M1392.19 769.926c.29.233-6.63 9.246-15.46 20.129-8.82 10.887-16.2 19.525-16.49 19.296-.28-.234 6.64-9.242 15.47-20.129 8.82-10.888 16.2-19.525 16.48-19.296m-31.92-313.863c.29-.229 7.24 8.071 15.51 18.537 8.28 10.467 14.76 19.138 14.48 19.363-.3.229-7.24-8.071-15.52-18.542-8.27-10.462-14.75-19.133-14.47-19.358m156.51 94.529h-61.38v174.28h61.38zm44.34-296.396-34.91.188-.94-173.746 34.92-.188z"/><path fill="#E5E5E4" d="m1313.71 176.825-90.43.484-.51-95.921 90.43-.484z"/><path fill="#F0F0F0" d="m1403.7 176.342-90.42.483-.52-95.917 90.43-.487z"/><path fill="#D7D9D9" d="M1222.91 107.879c60.09.496 120.33.146 180.42-.829 1.24-.021 1.23-1.917-.01-1.921-60.09-.333-120.33-.037-180.41 1.1-1.06.021-1.06 1.638 0 1.65"/><path fill="#E5E5E4" d="m1331.09 253.392-164.28.879-.42-78.166 164.29-.88z"/><path fill="#F0F0F0" d="m1494.61 252.517-164.29.879-.42-78.166 164.28-.884z"/><path fill="#D7D9D9" d="M1166.51 197.846c109.14 1.233 218.66.125 327.79-1.621 1.23-.021 1.23-1.916-.01-1.921-109.14-.579-218.67-.512-327.78 1.892-1.07.025-1.06 1.638 0 1.65m575.05 56.425h-636.49v28.004h636.49z"/><path fill="#D7D9D9" d="M1235.12 267.734h-25.84v95.558h25.84zm385.71 0h-25.84v95.558h25.84z"/><path fill="#E5E5E4" d="m1595.54 254.625-34.91.184-1.28-238.963 34.91-.188z"/><path fill="#F0F0F0" d="m1649.86 253.796-54.25.292-1.04-193.654 54.25-.292z"/><path fill="#D7D9D9" d="M1648.46 97.45c0 .521-12.15.942-27.13.942-14.99 0-27.13-.421-27.13-.942 0-.517 12.14-.937 27.13-.937 14.98 0 27.13.42 27.13.937m0-8.133c0 .52-12.15.937-27.13.937-14.99 0-27.13-.416-27.13-.937 0-.52 12.14-.942 27.13-.942 14.98 0 27.13.421 27.13.942m0 135.342c0 .521-12.15.941-27.13.941-14.99 0-27.13-.42-27.13-.941 0-.517 12.14-.938 27.13-.938 14.98 0 27.13.421 27.13.938m0-8.134c0 .517-12.15.942-27.13.942-14.99 0-27.13-.425-27.13-.942 0-.521 12.14-.942 27.13-.942 14.98 0 27.13.421 27.13.942m-26.25-17.75c-.53 0-.95-19.537-.95-43.633 0-24.104.42-43.638.95-43.638.51 0 .93 19.534.93 43.638 0 24.096-.42 43.633-.93 43.633"/><path fill="#E5E5E4" d="M1708.11 107.7h-59.07v146.167h59.07z"/><path fill="#F9F9F9" d="M1680.24 215.963c-7.77 0-13.2-5.529-13.2-13.15 0-4.134 1.6-7.717 4.79-9.863l1.34 1.846c-2.64 1.892-3.89 4.779-3.89 8.017 0 6.129 4.39 10.608 10.96 10.608 6.58 0 10.96-4.479 10.96-10.608 0-3.238-1.25-6.125-3.89-8.017l1.35-1.846c3.14 2.146 4.78 5.729 4.78 9.863 0 7.621-5.48 13.15-13.2 13.15m9.86-26.638-1.99-1.146c1.69-1.996 3.14-5.529 3.14-9.362 0-5.479-1.94-7.671-4.89-7.671-7.56 0-1.98 17.233-12.2 17.233-3.93 0-7.12-3.287-7.12-9.862 0-3.288 1-6.871 2.54-8.913l1.99 1.146c-1.59 2.192-2.34 5.029-2.34 7.817 0 5.079 2.1 7.321 4.89 7.321 7.81 0 2.29-17.234 12.19-17.234 4.24 0 7.13 3.638 7.13 10.263 0 4.283-1.44 8.366-3.34 10.408m0-23.8-1.99-1.145c1.69-1.992 3.14-5.53 3.14-9.367 0-5.475-1.94-7.667-4.89-7.667-7.56 0-1.98 17.229-12.2 17.229-3.93 0-7.12-3.283-7.12-9.858 0-3.292 1-6.875 2.54-8.917l1.99 1.146c-1.59 2.196-2.34 5.033-2.34 7.821 0 5.075 2.1 7.321 4.89 7.321 7.81 0 2.29-17.234 12.19-17.234 4.24 0 7.13 3.638 7.13 10.263 0 4.279-1.44 8.367-3.34 10.408"/><path fill="#D7D9D9" d="M1586.33 56.458c0 5.542-4.5 10.038-10.04 10.038s-10.03-4.496-10.03-10.038 4.49-10.037 10.03-10.037 10.04 4.496 10.04 10.037m-6.94 27.601h-6.2v142.158h6.2z"/><path fill="#0C2B34" d="M1814.78 1737.89c0 .6-402.45 1.09-898.787 1.09-496.509 0-898.872-.49-898.872-1.09s402.363-1.08 898.872-1.08c496.337 0 898.787.48 898.787 1.08"/><path fill="#F9F9F9" d="M503.834 305.467c-66.863 105.175-62.484 250.992 10.571 351.967 48.704 67.313 121.758 112.429 179.771 171.908 58.008 59.48 102.07 147.13 71.454 224.368-31.167 78.62-122.45 110.61-190.813 160.42-74.462 54.25-126.762 138.04-142.783 228.77-16.025 90.72 4.412 187.36 55.791 263.83h710.095s124.74-237.72-35.64-418.89-246.504-184.13-240.571-302.935c5.942-118.8 89.101-157.408 136.621-201.958 47.52-44.546 279.18-148.496 142.55-477.48z"/><path fill="#0C2B34" d="M503.834 305.467s4.125-.067 12.229-.1l35.992-.096c31.691-.046 78.404-.112 138.566-.2 120.455-.087 294.763-.212 510.259-.371h.53l.19.471c9.7 24.642 19.51 50.009 26.46 76.892 7.15 26.767 13.01 54.65 15.08 83.554 2.18 28.842 1.24 58.625-4.5 88.2-5.93 29.496-16.5 58.713-32.1 85.742-7.76 13.542-16.88 26.4-26.74 38.808-9.98 12.334-21.02 23.925-32.72 34.996-11.7 11.054-24.17 21.467-37.12 31.429-12.93 10-26.41 19.446-39.58 29.421-6.6 4.975-12.62 10.554-18.91 16.146-6.31 5.483-12.82 10.775-19.38 16.017-13.12 10.491-26.38 20.987-38.885 32.475-25.258 22.596-46.588 50.812-58.321 83.65-5.696 16.383-9.775 33.554-11.104 51.129-.354 4.392-.946 8.771-1.108 13.183-.088 4.413-.338 8.834-.125 13.257.054 8.85 1.054 17.7 2.662 26.42 3.333 17.44 10.658 34.15 21.317 48.64 10.491 14.63 23.433 27.5 36.825 39.88 26.959 24.65 55.559 48.17 82.949 73.58 27.52 25.26 54.25 51.93 80 79.96 12.77 14.06 25.76 28.22 36.93 43.91 11.55 15.4 21.24 32.23 29.77 49.64 16.79 34.98 27.17 73.36 30.58 112.61 3.65 39.24.86 79.23-6.92 118.37-3.85 19.58-8.96 38.98-15.24 58.07s-13.52 37.91-22.54 56.09l-.29.58h-18.96c-242.396-.02-476.279-.04-691.805-.05h-.558l-.304-.46c-33.833-50.79-53.921-109.14-59.463-167.61-5.887-58.49 3.113-117.14 24.567-169.19 21.175-52.25 54.096-98.06 93.867-134.08 19.829-18.15 41.933-33 64.083-46.74 22.171-13.76 44.525-26.49 65.667-40.42 21.046-13.96 41.329-28.83 57.8-47.01 16.525-18.04 29.15-39.23 35.767-62.01 6.637-22.79 6.7-46.699 2.816-69.203-3.937-22.588-11.887-43.946-21.946-63.621-10.087-19.7-22.32-37.783-35.741-54.292-13.388-16.558-28.267-31.254-43.25-45.129-30.059-27.671-60.821-51.871-88.513-76.742-13.867-12.408-27.012-24.933-39.104-37.804-12.004-12.942-22.983-26.212-32.413-39.958-19.02-27.429-32.062-56.321-40.629-84.213-8.583-27.925-12.846-54.921-13.825-79.758-.583-6.2-.354-12.284-.346-18.221.08-5.933-.1-11.738.513-17.371.437-5.637.858-11.133 1.271-16.487.641-5.321 1.521-10.48 2.237-15.505 6.254-40.229 18.388-69.616 27.85-88.429 2.267-4.779 4.267-8.983 6.425-12.387 2.029-3.455 3.729-6.355 5.096-8.688 2.738-4.65 4.142-6.975 4.142-6.975-.288.513-1.446 2.558-4.021 7.113a4118 4118 0 0 0-4.996 8.704c-2.112 3.387-4.087 7.6-6.325 12.391-9.346 18.842-21.35 48.221-27.479 88.38-.7 5.016-1.567 10.162-2.192 15.479-.4 5.337-.808 10.825-1.229 16.45-.6 5.617-.408 11.408-.475 17.329.004 5.921-.212 11.992.383 18.175 1.03 24.771 5.338 51.683 13.942 79.504 8.588 27.788 21.629 56.554 40.613 83.842 9.408 13.683 20.37 26.892 32.358 39.783 12.079 12.817 25.208 25.3 39.071 37.675 27.683 24.805 58.471 48.971 88.621 76.663 15.016 13.875 29.971 28.608 43.433 45.238 13.496 16.562 25.804 34.72 35.967 54.52 10.137 19.784 18.162 41.275 22.154 64.059 3.937 22.696 3.896 46.868-2.804 69.938-6.675 23.05-19.442 44.5-36.104 62.7-16.605 18.37-36.992 33.33-58.092 47.34-21.196 13.98-43.563 26.73-65.683 40.49-22.109 13.74-44.084 28.52-63.796 46.58-39.542 35.84-72.271 81.45-93.309 133.42-21.312 51.79-30.241 110.1-24.362 168.27 5.529 58.15 25.533 116.16 59.175 166.65l-.859-.47c215.526-.01 449.409-.03 691.805-.04h18.29l-.96.58c8.91-17.96 16.16-36.77 22.4-55.76 6.25-19 11.34-38.31 15.17-57.81 7.75-38.96 10.53-78.75 6.9-117.76-3.38-39.01-13.69-77.13-30.37-111.88-8.46-17.29-18.08-34-29.56-49.3-11.08-15.59-23.99-29.66-36.77-43.73a1328 1328 0 0 0-79.85-79.86c-27.35-25.38-55.9-48.87-82.933-73.6-13.43-12.43-26.459-25.39-37.096-40.2-10.788-14.68-18.267-31.74-21.642-49.45-1.633-8.86-2.633-17.82-2.692-26.77-.208-4.472.042-8.926.138-13.38.167-4.454.754-8.867 1.112-13.296 1.35-17.716 5.48-35.058 11.234-51.616 11.866-33.184 33.479-61.705 58.879-84.405 12.59-11.546 25.89-22.066 39-32.541 6.57-5.238 13.05-10.513 19.33-15.959 6.18-5.491 12.37-11.212 19.01-16.212 13.24-10.017 26.69-19.434 39.59-29.4 12.92-9.925 25.35-20.292 37.01-31.292 11.64-11.008 22.63-22.537 32.56-34.792 9.81-12.333 18.89-25.108 26.6-38.558 15.53-26.846 26.04-55.858 31.95-85.175 5.73-29.396 6.69-59.021 4.55-87.742-2.05-28.771-7.87-56.562-14.97-83.258-6.91-26.809-16.67-52.125-26.33-76.721l.7.471c-215.367-.154-389.571-.284-509.954-.375-60.209-.084-106.959-.15-138.671-.196l-36.088-.096c-8.137-.033-12.333-.1-12.333-.1"/><path fill="#6B6BB9" d="M1172.55 498.363c104.58 17.192-60.32 202.425-153.65 275.513-54.053 42.325-112.099 88.221-137.762 151.887-29.121 72.234-7.537 153.417-21.65 226.087-2.346 12.06-20.175 10.16-19.996-2.12.696-47.7-.579-95.37-8.483-142.32-11.208-66.601-36.813-132.484-83.488-181.293-38.1-39.837-88.058-66.312-128.7-103.554-59.337-54.379-120.287-124.512-126.233-204.775 0 0 113.929-91.763 177.167-80.183 73.9 13.537 146.658 127.575 261.171 114.512 79.954-9.116 120.304-73.696 241.624-53.754m9.28 991.437c-2.64-26.15-9.61-55.75-32.82-68.09-14.07-7.48-31.19-6.65-46.58-2.6-15.41 4.06-29.88 11.06-45.14 15.59-30.04 8.92-62.947 7.88-92.356-2.92-28.379-10.43-52.737-29.27-79.083-44.09-26.35-14.81-57.192-25.85-86.529-18.55-50.584 12.59-76.905 73.49-126.913 88.19-22.229 6.53-46.1 2.87-68.696-2.25s-45.279-11.69-68.429-10.83c-18.142.68-37.017 6.95-49.733 19.38l.133-.17-.367.4a52 52 0 0 0-5.733 6.72c-15.513 20.68-17.992 48.48-13.221 73.73 5.346 28.28 18.55 54.41 32.725 79.45 16.696 29.49 35.658 58.85 63.263 78.52 22.875 16.3 49.712 14.09 77.5 11.88 13.575-1.08 27.379-2.15 41.058-1.08 97.217 7.68 201.817 12.91 299.046 5.38 51.355-3.98 99.505 1.58 140.255-29.93 28.68-22.17 47.32-55.58 56.32-90.69 8.99-35.11 8.95-71.98 5.3-108.04"/><path fill="#B4B6B7" d="M998.388 1439.71h-.037z"/><path fill="#3636A1" d="M1051.99 1703.46c-9.55 0-19.16-4.95-26.94-10.95-22.33-17.23-36.645-43.89-40.803-71.79-4.159-27.9 1.45-56.84 13.779-82.21 6.674-13.74 15.554-28.26 12.824-43.11.43-.26.86-.51 1.28-.75l10.1-6.08c1.05-.66 1.9-1.19 2.6-1.63.58-.37.87-.58.85-.61h-.02c-.06 0-.38.14-.95.43-.72.38-1.61.86-2.71 1.44-2.5 1.39-5.94 3.3-10.29 5.71-.34.19-.68.39-1.04.58-.04-.17-.07-.35-.12-.53-2.29-9.77-9.45-17.53-14.737-26.06-5.291-8.53-2.954-19.79 2.538-28.19h.037c5.282 1 10.612 1.32 15.962 1.32 2.49 0 4.98-.07 7.48-.17 6.27 8.98 14.13 16.6 23.57 22.18l4.94 91.77 25.15-4.36c-1.25 30.17 0 60.43 3.76 90.39 1.47 11.65 3.3 23.52 1.07 35.06-2.22 11.53-9.47 22.89-20.67 26.41-2.52.79-5.09 1.15-7.66 1.15"/><path fill="#0C2B34" d="M435.705 1738.98s-1.95-32.6 40.554-50.74h746.881s38.95 19.71 43.74 50.06zM1207.31 309.438c-.38.183-.78.367-1.18.55l-702.296-4.521s-2.492-1.596-6.225-4.517c-20.008-15.65-8.779-47.796 16.621-47.591l681.63 5.508c28.14.225 36.9 38.55 11.45 50.571"/><path fill="#3636A1" d="M851.246 715.222c-17.77 0-35.533-3.013-51.67-8.525-18.721-6.5-34.688-15.65-48.65-24.838-14-9.283-26.067-18.446-37.442-27.217-11.329-8.791-21.654-17.262-30.884-25.233-36.887-31.967-56.291-55.467-52.55-60.004.48-.584 1.296-.867 2.442-.867 8.104 0 32.571 14.192 68.234 36.108 10.175 6.246 21.3 13.08 33.241 20.413 11.929 7.267 24.763 15.283 37.846 22.704 13.125 7.413 26.821 14.159 41.025 18.538 11.883 3.55 24.433 5.533 37.658 5.533 2.48 0 4.975-.071 7.5-.212 31.988-1.63 63.03-12.905 89.926-25.884 27.033-13.229 51.208-28.196 72.288-40 21.06-11.937 39.07-20.758 52.19-25.446 8.28-2.971 14.54-4.408 18.37-4.408 2.23 0 3.64.492 4.14 1.45 1.42 2.708-3.85 8.567-13.93 17.5-10.1 8.946-24.84 21.217-43.58 36.329-18.85 14.983-41.678 33.05-70.758 49.909a286 286 0 0 1-48.516 22.266c-8.917 2.992-18.159 5.771-27.88 7.709-9.666 2.07-19.75 3.445-30.12 3.92q-4.434.256-8.88.255"/><path fill="#6B6BB9" d="M840.013 1238.9c7.708-2.72 16.925 5.04 15.563 13.1-1.359 8.06-12.605 12.36-18.996 7.27-6.392-5.09-4.713-17.01 2.837-20.14"/><path fill="#0C2B34" d="M588.817 693.559c-.054.05-.904-.813-2.479-2.5l-6.8-7.458c-2.875-3.309-6.659-7.134-10.525-12.021-3.925-4.884-8.367-10.413-13.267-16.504-4.525-6.405-9.667-13.305-14.837-20.946-2.455-3.913-4.996-7.959-7.613-12.121-1.283-2.096-2.683-4.167-3.929-6.367l-3.663-6.762c-10.254-18.05-19.383-39.196-25.875-62.292-6.495-23.108-9.541-45.95-9.816-66.75-.021-5.192.266-10.263.383-15.183.113-2.459.071-4.892.317-7.263q.376-3.562.746-7.012c.525-4.588.891-9.038 1.508-13.284l2.196-12.129c1.191-7.767 3.246-14.587 4.716-20.642.8-3.012 1.43-5.85 2.221-8.395.825-2.517 1.584-4.838 2.271-6.938l3.213-9.575c.758-2.179 1.187-3.312 1.258-3.287s-.225 1.204-.846 3.425c-.696 2.404-1.637 5.625-2.817 9.683-.629 2.112-1.325 4.442-2.083 6.971-.733 2.558-1.3 5.4-2.042 8.416-1.354 6.059-3.295 12.875-4.383 20.625-.654 3.855-1.337 7.888-2.046 12.088-.566 4.221-.891 8.65-1.375 13.212l-.687 6.967c-.225 2.363-.163 4.779-.263 7.221-.079 4.887-.333 9.917-.291 15.071.387 20.637 3.466 43.271 9.908 66.191 6.437 22.909 15.442 43.917 25.542 61.921 1.216 2.275 2.416 4.525 3.604 6.742 1.225 2.196 2.604 4.267 3.866 6.363l7.484 12.112c5.079 7.654 10.129 14.575 14.562 21.017l12.975 16.654c3.767 4.95 7.45 8.846 10.225 12.237 2.717 3.234 4.88 5.805 6.488 7.721 1.467 1.784 2.212 2.742 2.154 2.792m-39.546 619.011c-.029-.02.234-.48.784-1.37.616-.98 1.433-2.27 2.479-3.92 1.129-1.75 2.496-3.86 4.091-6.34.821-1.25 1.7-2.6 2.634-4.03 1.025-1.38 2.225-2.77 3.437-4.28l8.175-9.99c3.209-3.45 6.888-7.03 10.738-10.97 7.912-7.65 17.479-15.81 28.604-24.07 22.117-16.76 50.65-33.42 81.579-52.86 15.346-9.88 31.504-20.29 46.779-32.96 15.296-12.57 30.042-27.06 41.98-44.35 23.541-35 33.104-75.55 33.941-111.8.95-36.521-6.821-69.046-15.971-94.971-9.266-26.025-19.887-45.829-27.604-59.187a410 410 0 0 0-9.208-15.234c-1.033-1.654-1.846-2.95-2.454-3.929-.546-.892-.809-1.358-.775-1.379.033-.021.354.404.958 1.258.654.946 1.525 2.209 2.638 3.813 2.3 3.358 5.591 8.396 9.566 15.041 7.959 13.255 18.825 33.017 28.321 59.101 9.383 25.987 17.371 58.695 16.525 95.537-.154 9.18-.896 18.58-2.3 28.1a205.5 205.5 0 0 1-6.1 28.78c-5.358 19.27-13.958 38.4-25.737 56.08-12.1 17.53-27.017 32.15-42.438 44.79-15.408 12.74-31.642 23.15-47.05 33-31.046 19.38-59.592 35.86-81.738 52.4-11.141 8.15-20.725 16.19-28.675 23.72-3.87 3.88-7.575 7.39-10.812 10.79-3.021 3.58-5.783 6.86-8.279 9.82-1.234 1.48-2.454 2.84-3.5 4.19-.963 1.41-1.867 2.73-2.7 3.96-1.667 2.43-3.084 4.5-4.259 6.21-1.116 1.59-1.995 2.85-2.658 3.79-.604.85-.933 1.28-.971 1.26m-38.746 73.62c.063.04-.254.71-.912 1.94-.8 1.43-1.779 3.18-2.967 5.3-1.341 2.27-2.933 5.07-4.541 8.45-1.642 3.36-3.717 7.09-5.475 11.45l-2.934 6.78c-1.004 2.36-1.825 4.91-2.8 7.5-2.037 5.14-3.616 10.84-5.416 16.78-3.209 12-5.888 25.44-7.28 39.72-1.233 14.29-1.041 27.99-.07 40.37.691 6.18 1.208 12.07 2.27 17.5.492 2.72.834 5.37 1.396 7.88q.857 3.75 1.65 7.2c.929 4.61 2.296 8.65 3.296 12.25.967 3.62 2.021 6.67 2.929 9.14.784 2.31 1.425 4.21 1.95 5.76.425 1.32.617 2.03.546 2.06-.067.03-.396-.63-.95-1.9-.629-1.52-1.404-3.37-2.337-5.63a87 87 0 0 1-3.292-9.06c-1.121-3.59-2.596-7.62-3.629-12.25-.575-2.31-1.175-4.72-1.8-7.22-.609-2.52-.996-5.18-1.529-7.92-1.15-5.46-1.738-11.4-2.492-17.63-1.092-12.48-1.346-26.32-.096-40.75 1.4-14.42 4.167-27.98 7.513-40.05 1.87-5.99 3.529-11.72 5.654-16.88 1.021-2.6 1.887-5.15 2.941-7.51 1.071-2.34 2.1-4.6 3.084-6.77 1.858-4.36 4.046-8.07 5.8-11.39a88 88 0 0 1 4.883-8.31c1.333-2.05 2.429-3.73 3.325-5.11.779-1.15 1.221-1.74 1.283-1.7m515.155 100.14c.02.03-.27.24-.85.61-.7.44-1.55.97-2.6 1.63l-10.1 6.08c-2.22 1.31-4.67 2.76-7.34 4.34-2.73 1.5-5.806 2.94-9.052 4.58-6.554 3.16-13.829 7.19-22.416 10.43-4.242 1.74-8.688 3.56-13.313 5.46-4.646 1.86-9.658 3.3-14.75 5.07-10.146 3.7-21.371 6.34-33.104 9.4-23.663 5.26-50.142 9.13-78.137 10.02-28.021.57-54.663-1.9-78.576-5.93-11.879-2.44-23.229-4.49-33.554-7.66-5.175-1.5-10.258-2.67-14.996-4.29-4.716-1.65-9.25-3.24-13.579-4.76-8.746-2.79-16.221-6.43-22.929-9.24-3.329-1.48-6.471-2.75-9.275-4.11-2.75-1.43-5.271-2.75-7.554-3.95l-10.413-5.54c-1.079-.6-1.962-1.09-2.679-1.49-.596-.34-.891-.53-.871-.57.017-.03.346.1.98.38.745.35 1.658.77 2.779 1.29 2.579 1.26 6.112 2.99 10.579 5.17q3.46 1.725 7.621 3.78c2.82 1.3 5.979 2.51 9.316 3.92 6.734 2.71 14.221 6.23 22.963 8.92 4.325 1.46 8.854 3 13.567 4.6 4.725 1.57 9.8 2.7 14.962 4.15 10.296 3.08 21.6 5.05 33.429 7.44 23.804 3.89 50.309 6.29 78.171 5.72 27.846-.89 54.179-4.67 77.746-9.8 11.688-2.99 22.875-5.55 32.992-9.17 5.083-1.71 10.087-3.1 14.725-4.92q6.943-2.76 13.312-5.31c8.584-3.13 15.879-7.05 22.463-10.1 3.258-1.58 6.353-2.95 9.103-4.4 2.69-1.52 5.17-2.91 7.41-4.17 4.35-2.41 7.79-4.32 10.3-5.71 1.09-.58 1.98-1.06 2.7-1.44.62-.32.95-.46.97-.43m43.45-881.834c.03.03-.27.309-.88.83-.71.583-1.61 1.32-2.73 2.25-2.56 2.037-6.12 4.879-10.64 8.487-9.27 7.329-22.67 17.958-39.61 30.621-16.969 12.592-37.528 27.258-61.974 40.971-12.341 6.592-25.487 13.329-39.925 18.367-14.391 5.079-29.862 8.966-46.07 10.25-32.555 2.2-63.417-6.046-88.521-18.413-12.554-6.292-23.88-13.342-34.188-20.333-10.175-7.18-19.462-14.125-27.679-20.784-16.5-13.237-29.421-24.437-38.404-32.121-4.375-3.783-7.821-6.762-10.292-8.895-1.087-.971-1.958-1.746-2.646-2.359-.587-.537-.875-.829-.85-.858s.359.204.996.687c.721.571 1.638 1.292 2.779 2.192 2.534 2.063 6.071 4.938 10.559 8.588 9.145 7.479 22.22 18.504 38.808 31.562 8.262 6.571 17.575 13.421 27.746 20.504 10.3 6.888 21.587 13.834 34.05 20.021 24.912 12.146 55.396 20.209 87.483 18.042 15.967-1.263 31.254-5.083 45.513-10.083 14.304-4.963 27.379-11.613 39.675-18.121 24.366-13.538 44.971-28.038 62.03-40.455 17.03-12.483 30.57-22.929 40-30.05 4.63-3.475 8.27-6.208 10.89-8.166 1.18-.859 2.12-1.542 2.86-2.084.65-.458 1-.679 1.02-.65"/><path fill="#3636A1" d="M825.838 1541.86c-24.892 0-48.571-2.29-70.05-5.8-11.829-2.39-23.133-4.36-33.429-7.44-5.163-1.45-10.238-2.58-14.963-4.15-4.341-1.47-8.529-2.89-12.541-4.26 10.254-7.28 22.512-9.76 35.271-9.76 11.666 0 23.754 2.07 35.12 4.46 20.421 4.29 40.976 10.84 61.609 10.84 4.029 0 8.058-.25 12.096-.82 18.616-2.6 35.7-11.77 54.071-15.75 4.75-1.02 9.77-1.59 14.77-1.59 14.046 0 27.967 4.47 35.621 15.67-9.775 3.39-20.512 5.85-31.708 8.72-23.567 5.13-49.9 8.91-77.746 9.8-2.721.06-5.429.08-8.121.08m-131.679-20.25c-.271-.1-.538-.19-.808-.28h.004c.266.09.537.18.804.28"/><path fill="#021C25" d="M822.572 1543.01c-43.604 0-87.2-7.15-128.413-21.4-.267-.1-.537-.19-.804-.28.496-.39.996-.76 1.5-1.12 4.012 1.37 8.2 2.79 12.542 4.26 4.725 1.57 9.8 2.7 14.962 4.15 10.296 3.08 21.6 5.05 33.429 7.44 21.48 3.51 45.159 5.8 70.05 5.8 2.692 0 5.4-.02 8.121-.08 27.846-.89 54.179-4.67 77.746-9.8 11.196-2.87 21.933-5.33 31.709-8.72q.23.345.454.69c-39.088 12.71-80.196 19.06-121.296 19.06"/><path fill="#6B6BB9" d="m1382.39 1408.26-89.73-100.47-.91 122.13 27.01 78.34-268.42 46.55-11.39-211.79-19.32-162.65c-2.37-19.93 9-38.95 27.68-46.31l73.87-29.09 104.03 19.09 41.86 15.91a114.7 114.7 0 0 1 45.61 31.72l125.98 144.07z"/><path fill="#fff" d="M1286.36 1283.76c.02-.43 5.91.45 15.16-1.06 9.16-1.43 21.82-5.91 32.32-15.57 10.48-9.7 15.97-21.95 18.14-30.96 2.25-9.1 1.85-15.04 2.28-15.02.13-.01.35 1.46.38 4.12.05 2.67-.21 6.55-1.17 11.24-1.83 9.32-7.27 22.15-18.16 32.21-10.91 10.04-24.13 14.43-33.57 15.49-4.76.58-8.64.53-11.29.27-2.66-.26-4.1-.59-4.09-.72"/><path fill="#0C2B34" d="M1294.21 1424.72c.63 0 .79-42.31.37-94.49-.43-52.19-1.29-94.49-1.91-94.48-.63.01-.79 42.31-.36 94.5.42 52.17 1.27 94.48 1.9 94.47"/><path fill="#6B6BB9" d="m1284.38 1455.77-162.19-65.29a37.06 37.06 0 0 1-23.11-31.56l-11.87-155.51s1.4-66.13-39.91-69.35l-23.5 9.26c-30.37 16.13-37.891 60.35-33.758 94.49 5.875 48.51 8.321 117.16 14.898 159.27 5.38 34.44 25.1 64.73 58.81 73.6l199.77 43.25z"/><path fill="#0C2B34" d="M1089.53 1227.14c.08-.01.25 1.22.52 3.56.25 2.53.6 5.95 1.04 10.24.82 9.12 1.99 21.95 3.43 37.72 1.37 15.99 3 34.93 4.8 55.95.45 5.26.9 10.65 1.36 16.17.49 5.51.82 11.15 2.07 16.63 1.19 5.5 3.83 10.66 8.06 14.58 4.21 3.93 9.48 6.82 14.97 9.31 44.72 19.35 85.94 35.33 115.86 46.53 14.85 5.48 26.94 9.93 35.52 13.09 4.06 1.49 7.27 2.68 9.66 3.56 2.21.84 3.35 1.31 3.32 1.38-.02.07-1.21-.26-3.46-.96-2.42-.79-5.69-1.84-9.79-3.18-8.49-2.81-20.73-7.03-35.78-12.44-30.09-10.85-71.38-26.6-116.23-46.01-5.58-2.54-11.05-5.5-15.55-9.71-4.53-4.19-7.44-9.92-8.65-15.66-1.29-5.76-1.6-11.44-2.06-16.94-.44-5.52-.86-10.91-1.29-16.18-1.63-21.04-3.1-40-4.35-56-1.14-15.8-2.07-28.65-2.73-37.77-.27-4.31-.49-7.73-.64-10.28-.12-2.35-.15-3.59-.08-3.59m-92.921 84.53c.079 0 .18.72.321 2.09.146 1.62.321 3.6.538 6 .479 5.54 1.133 13 1.921 22.07.891 9.3 2.021 20.38 3.641 32.62 1.67 12.22 3.63 25.71 7.32 39.39 1.75 6.92 4.2 13.3 7.91 18.78 3.72 5.53 7.85 10.49 12.12 14.89 8.58 8.77 17.73 15.2 25.95 19.47 16.6 8.63 28.66 8.75 28.49 9.33-.01.07-.73.05-2.11-.05s-3.42-.26-6-.78c-5.17-.91-12.61-2.94-21.08-7.13-8.45-4.17-17.86-10.59-26.67-19.44-4.39-4.44-8.64-9.47-12.46-15.1-3.88-5.65-6.51-12.47-8.24-19.39-3.74-13.9-5.65-27.43-7.22-39.71-1.51-12.3-2.485-23.42-3.176-32.75a614 614 0 0 1-1.238-22.15c-.054-2.41-.096-4.4-.129-6.03-.004-1.38.041-2.1.112-2.11"/><path fill="#0C2B34" d="M1065.97 1420.48c-.23-.05.46-3.52 2.95-8.64 2.45-5.1 7-11.7 13.61-17.37 6.65-5.65 13.87-9.1 19.29-10.73 5.44-1.66 8.97-1.79 9-1.56.07.36-3.34 1.03-8.5 3.01-5.14 1.95-11.98 5.49-18.38 10.93-6.37 5.47-10.93 11.66-13.67 16.45-2.76 4.78-3.96 8.04-4.3 7.91"/><path fill="#fff" d="M1097.87 1302.23c.01-.03.36.12 1.02.45.77.4 1.72.9 2.91 1.53 2.6 1.22 6.4 3.15 11.57 4.9 10.2 3.54 26.18 7.15 45.46 3.88 19.03-3.11 41.17-14.33 56.5-35.1 7.6-10.26 13.47-22.9 14.8-36.75.68-6.88.11-14.05-2.16-20.79-2.23-6.73-6.3-12.97-11.69-17.87-5.37-4.9-12.04-8.35-19.05-9.25-6.9-1.09-14.29.73-19.08 5.36-2.31 2.33-3.75 5.44-3.72 8.64-.01 3.19 1.22 6.35 3.14 8.91 3.84 5.24 10.31 7.69 16.5 8.61 12.63 1.73 25.05-.55 35.45-5.08 10.44-4.55 18.98-11.32 25.12-18.79 6.16-7.5 9.95-15.6 12.22-22.96 2.28-7.39 2.98-14.08 3.09-19.51.08-5.45-.49-9.68-.91-12.51-.24-1.32-.44-2.37-.59-3.23-.13-.72-.18-1.1-.14-1.11 0 0 2.3 5.78 2.48 16.85.02 5.5-.56 12.31-2.76 19.85-2.2 7.52-5.97 15.85-12.2 23.59-6.22 7.71-14.9 14.73-25.59 19.47-10.65 4.71-23.36 7.14-36.47 5.4-6.44-.93-13.51-3.46-17.87-9.34-2.13-2.85-3.57-6.4-3.57-10.16-.05-3.76 1.67-7.47 4.32-10.13 5.43-5.26 13.47-7.13 20.88-6 7.5.96 14.56 4.63 20.2 9.79 5.68 5.15 9.94 11.69 12.29 18.79 2.37 7.08 2.94 14.54 2.23 21.67-1.42 14.34-7.51 27.27-15.31 37.74-15.77 21.18-38.44 32.45-57.86 35.43a90.6 90.6 0 0 1-46-4.6c-10.31-3.94-15.21-7.68-15.21-7.68m-106.244-41.48c-.104-.09.804-1.3 2.658-3.32 1.875-2 4.771-4.75 8.766-7.62 7.88-5.92 20.91-11.31 35.88-12.71 7.48-.8 14.75-.44 21.15.88a64.7 64.7 0 0 1 16.29 5.73c4.38 2.22 7.7 4.42 9.91 6.03 2.2 1.62 3.33 2.63 3.25 2.74-.22.34-5.07-3.32-13.82-7.39-8.66-4.14-21.9-7.6-36.55-5.84-14.67 1.4-27.32 6.36-35.24 11.82-8.028 5.35-11.998 9.99-12.294 9.68m25.934-111.19c.34-.37 4.17 4.94 13.13 9.55 4.43 2.29 10.16 4.22 16.72 4.9 6.52.69 13.9-.06 20.91-2.9 6.97-2.95 12.72-7.63 16.85-12.74 4.16-5.11 6.85-10.52 8.36-15.27 3.09-9.59 2.05-16.05 2.54-16.03.12-.01.45 1.54.55 4.41.11 2.88-.23 7.08-1.63 12.06-1.36 4.98-4.01 10.68-8.26 16.08-4.22 5.4-10.22 10.39-17.58 13.5-7.4 2.99-15.17 3.7-21.97 2.87-6.82-.81-12.72-2.98-17.21-5.53-4.5-2.54-7.72-5.28-9.66-7.39-1.96-2.11-2.83-3.44-2.75-3.51m141.34 255.7c-.07-.02.04-1.07.34-3.08.46-1.96 1.1-4.93 2.87-8.39 3.28-6.99 11.42-15.74 24.28-21.08 12.68-5.69 30.12-6.79 47.69-1.7 8.57 2.55 18.41 5.69 24.85 14.07 3.14 4.11 4.23 10.25 1.83 15.25-2.3 5.03-6.82 8.49-11.57 10.91-4.83 2.36-10.08 3.7-15.35 3.8-5.22.1-10.67-1.2-14.74-4.57-4.12-3.33-6.28-8.46-6.6-13.36-.39-4.95.62-9.72 2.2-14.05 6.91-17.35 20.9-28.39 33.43-33.85 12.75-5.57 24.29-6.16 31.91-5.48 7.67.8 11.65 2.46 11.65 2.46-.06.28-4.13-1.1-11.72-1.61-7.53-.42-18.82.4-31.21 6.03-6.14 2.81-12.48 6.84-18.2 12.36-5.68 5.49-10.8 12.51-13.98 20.76-1.49 4.15-2.39 8.68-2.02 13.2.33 4.51 2.27 8.98 5.89 11.89 3.57 2.96 8.48 4.16 13.36 4.06 4.9-.09 9.88-1.37 14.42-3.58 4.46-2.27 8.59-5.52 10.55-9.86 2.05-4.31 1.2-9.41-1.58-13.12-2.74-3.79-6.76-6.51-10.85-8.61-4.12-2.08-8.54-3.5-12.82-4.78-17.2-5.08-34.1-4.17-46.55 1.2-12.63 5.04-20.69 13.35-24.12 20.05-3.55 6.73-3.65 11.16-3.96 11.08m-107.99 58.55c-.06-.41 6.19-.93 15.56-4.28 9.31-3.26 21.72-9.94 31.88-21.18s15.56-24.26 17.87-33.86c2.38-9.65 2.28-15.92 2.69-15.9.13 0 .28 1.56.23 4.38-.04 2.82-.4 6.91-1.42 11.87-1.97 9.87-7.29 23.39-17.76 34.97-10.47 11.57-23.38 18.23-33 21.18-4.83 1.51-8.86 2.29-11.67 2.61-2.8.33-4.36.34-4.38.21m-52.559-120.87c-.021-.08.65-.35 1.959-.79 1.31-.43 3.25-1.03 5.79-1.67 5.06-1.22 12.61-2.9 22.09-2.24 4.72.37 9.88 1.44 15.02 3.71 5.11 2.27 10.22 5.82 14.02 11 3.72 5.16 6 11.89 5.45 18.91-.27 3.49-1.34 7-3.22 10.14-1.9 3.09-4.75 5.89-8.5 7.11-3.7 1.16-8.04.57-10.96-2.17-2.88-2.79-3.6-6.71-3.78-10.1-.26-6.92 1.23-13.55 3.82-19.3 5.16-11.63 14.76-19.26 23.66-22.44 8.96-3.32 16.91-3.07 22.06-2.19 2.59.45 4.56 1.03 5.86 1.49 1.29.48 1.96.78 1.94.85-.08.21-2.79-.87-7.93-1.5-5.07-.62-12.8-.61-21.38 2.78-8.51 3.25-17.54 10.66-22.38 21.83-2.43 5.5-3.8 11.85-3.53 18.37.17 3.19.91 6.53 3.14 8.64 2.2 2.09 5.77 2.64 8.82 1.67 3.08-.99 5.61-3.4 7.32-6.17 1.69-2.81 2.68-5.99 2.94-9.19.54-6.43-1.54-12.73-4.96-17.57-3.48-4.85-8.27-8.29-13.13-10.52-4.88-2.24-9.85-3.37-14.41-3.83-9.19-.83-16.7.58-21.78 1.55-5.09 1.04-7.879 1.79-7.929 1.63"/><path fill="#3636A1" d="M1232.98 1434.57c-8.28-3.13-17.26-6.56-26.82-10.29l-47.25-19.02c.23 0 .37-2.61 2.01-6.85 7.69 5.12 16.01 9.44 24.41 13.26 16.46 7.48 31.95 14.37 47.65 22.9m-74.08-29.32-4.26-1.71c-9.4-3.91-19.04-7.99-28.86-12.24-5.49-2.49-10.76-5.38-14.97-9.31-4.23-3.92-6.87-9.08-8.06-14.58-1.25-5.48-1.58-11.12-2.07-16.63-.39-4.67-.77-9.25-1.15-13.73-.06-1.21-.14-2.42-.22-3.62l-4.5-60.06c8.02 10.42 12.92 22.52 16.87 35.14-4.32-1.58-7.57-3.22-9.88-4.3-1.19-.63-2.14-1.13-2.91-1.53-.6-.3-.94-.46-1.01-.46-.01 0-.01.01-.01.01s4.54 3.47 14.1 7.24c7.14 23.19 11.24 48.04 25.59 67.39 6.24 8.4 14.1 15.3 22.79 21.17-.54 1.64-.85 3.05-1.11 4.15-.29 1.96-.41 3.01-.34 3.07"/><path fill="#BA3D48" d="M1206.16 1424.28c-15.81-6.17-33.19-13.12-51.52-20.74l4.26 1.71v.01h.01zm-48.1-17.02c-1.76-.61-3.52-1.2-5.27-1.78-9.18-3.03-20.9-7.64-30.63-13.49.9.44 1.81.87 2.72 1.28 11.33 4.91 22.43 9.57 33.18 13.99"/><path fill="#011721" d="M1237.77 1437.23c-25.87-8.53-53.6-20.95-79.71-29.97-10.75-4.42-21.85-9.08-33.18-13.99-.91-.41-1.82-.84-2.72-1.28-1.04-.63-2.06-1.26-3.05-1.92-.04-.96-.12-1.48-.2-1.48-.1 0-.18.41-.26 1.17-3.31-2.22-6.29-4.6-8.73-7.13.61-.2.92-.34.9-.45 0-.06-.19-.09-.55-.09-.21 0-.49.01-.83.04-10.77-11.64-9.08-28.12-9.91-45.08.38 4.48.76 9.06 1.15 13.73.49 5.51.82 11.15 2.07 16.63 1.19 5.5 3.83 10.66 8.06 14.58 4.21 3.93 9.48 6.82 14.97 9.31 9.82 4.25 19.46 8.33 28.86 12.24 18.33 7.62 35.71 14.57 51.52 20.74 9.56 3.73 18.54 7.16 26.82 10.29 1.59.87 3.19 1.76 4.79 2.66"/><path fill="#011721" d="m1109.92 1382.63-.24-.24c-.08-.09-.16-.17-.24-.26.34-.03.61-.04.83-.04.36 0 .55.03.55.09.02.11-.29.25-.9.45"/><path fill="#A8ABAB" d="M1111.97 1309.47c-9.56-3.77-14.1-7.24-14.1-7.24s0-.01.01-.01c.07 0 .41.16 1.01.46.77.4 1.72.9 2.91 1.53 2.31 1.08 5.56 2.72 9.88 4.3.1.32.19.65.29.96m46.94 95.79h-.01v-.01c-.07-.06.05-1.11.34-3.07.26-1.1.57-2.51 1.11-4.15.19.12.38.25.57.38-1.64 4.24-1.78 6.85-2.01 6.85m-39.8-15.19-.46-.31c.08-.76.15-1.17.26-1.17.08 0 .16.52.2 1.48"/><path fill="#6B6BB9" d="M1519.6 1665.78s135.7 37.56 141.15 39.48c8.18 2.87 6.8 32.82-5.92 32.36-6.02-.22-104.24 3.65-116.65 2.88-12.41-.78-49.85-15.53-49.85-15.53z"/><path fill="#0C2B34" d="M1576.13 1717.56c.68.1 1.6-7.08 5.98-14.57 4.27-7.56 10.02-11.95 9.59-12.49-.23-.53-6.97 3.3-11.56 11.36-4.66 8-4.58 15.76-4.01 15.7m-14.15-6.42c.67.12 2.04-6.3 5.65-13.38 3.55-7.13 7.88-12.05 7.39-12.52-.37-.45-5.67 3.99-9.41 11.49-3.8 7.48-4.21 14.38-3.63 14.41m-13.27-3.55c.68-.04.16-6.82 3.17-14.34 2.88-7.57 7.87-12.19 7.39-12.69-.27-.52-6.35 3.68-9.5 11.87-3.24 8.14-1.61 15.35-1.06 15.16"/><path fill="#0C2B34" d="M1551.11 1690.06c.25.06 1.45-3.73 1.46-10.1-.01-3.17-.37-6.97-1.37-11.07-.5-2.04-1.17-4.16-2.02-6.29-.44-1.08-.94-2.32-2.17-3.33-1.27-1.14-3.58-.9-4.67.23-1.24 1.08-1.63 2.61-1.81 3.84-.13 1.24-.2 2.41-.17 3.59.03 2.33.33 4.57.83 6.63 1.01 4.15 2.62 7.63 4.18 10.38 3.16 5.51 5.91 8.32 6.1 8.17.31-.21-1.96-3.38-4.67-8.91-1.34-2.77-2.73-6.17-3.56-10.09-.42-1.96-.66-4.05-.66-6.2.06-2.08.03-4.69 1.25-5.69.65-.54 1.23-.58 1.8-.16.6.46 1.1 1.39 1.48 2.37.85 2.03 1.53 4.05 2.06 5.99 1.07 3.91 1.59 7.54 1.8 10.6.39 6.14-.23 9.99.14 10.04"/><path fill="#0C2B34" d="M1550.95 1688.68c.06-.25-3.22-1.37-8.75-1.41-2.77-.01-6.07.28-9.64 1.18-1.75.47-3.64.93-5.54 2.04-1.86.94-3.8 3.52-3.06 6.2.57 2.53 2.74 4.29 4.88 4.84 2.16.61 4.26.39 6.09-.01 3.73-.86 6.62-2.69 8.82-4.34 4.35-3.41 6.47-6.02 6.31-6.21-.24-.29-2.81 1.95-7.23 4.9-2.22 1.42-5.01 2.96-8.32 3.6-1.66.31-3.43.41-5.04-.07-1.6-.44-2.92-1.66-3.3-3.23-.39-1.51.53-2.9 2.01-3.78 1.45-.91 3.25-1.42 4.93-1.92 3.35-.96 6.49-1.4 9.14-1.6 5.31-.37 8.64.17 8.7-.19m46.03 30.33c.67-.08.01-5.87 2.68-12.24 2.54-6.41 7.07-10.1 6.64-10.62-.22-.55-5.9 2.66-8.74 9.76-2.93 7.07-1.13 13.34-.58 13.1m-94.69 6.27c-.06.14 1.81 1.01 5.25 2.46 3.49 1.32 8.59 3.17 15.1 4.69 12.98 3.27 31.48 5.13 51.81 4.9 20.34-.22 38.66-1.14 51.95-1.67 6.29-.34 11.57-.62 15.73-.84 3.71-.24 5.76-.46 5.76-.61-.01-.16-2.06-.25-5.79-.27-4.17.03-9.45.07-15.74.11-13.75.27-31.88.62-51.92 1.01-20.24.22-38.52-1.37-51.45-4.2-12.97-2.66-20.55-6-20.7-5.58"/><path fill="#0C2B34" d="M1498.28 1728.37c.18.31 3.89-1.86 10.16-4.61 6.2-2.65 15.49-5.84 25.68-4.26 10.23 1.56 17.48 8.43 22.2 13.2 4.76 4.94 7.55 8.22 7.82 7.99.21-.17-2.11-3.78-6.64-9.08-2.29-2.63-5.2-5.66-9-8.41-3.76-2.77-8.6-5.12-14.02-5.95-10.94-1.67-20.58 1.98-26.71 5.06-6.23 3.18-9.63 5.84-9.49 6.06"/><path fill="#6B6BB9" d="M1375.55 1628.31s-128.42 84.08-133.02 87.56c-6.92 5.23 1.01 30.11 13 25.8 5.66-2.04 113.42-32.01 125.01-36.52s42.77-29.94 42.77-29.94z"/><path fill="#0C2B34" d="M1337.41 1694.81c.57-.11-1.71-7.53-8.59-13.74-6.81-6.29-14.4-7.88-14.46-7.31-.25.65 6.57 3.1 12.93 8.99 6.45 5.8 9.5 12.36 10.12 12.06m11.54-10.4c.54-.22-1.95-6.67-7.83-12.63-5.85-6.02-12.25-8.63-12.46-8.1-.33.6 5.29 3.98 10.83 9.69 5.6 5.65 8.86 11.34 9.46 11.04m11.56-7.42c.59.02-.06-7.35-5.61-14.13-5.49-6.84-12.56-8.99-12.67-8.41-.3.61 5.86 3.51 10.9 9.84 5.15 6.25 6.72 12.87 7.38 12.7"/><path fill="#0C2B34" d="M1352.89 1661.02c.34-.16-1.42-3.64-2.9-9.61-.73-2.99-1.35-6.6-1.51-10.65-.09-2.01-.05-4.14.14-6.32.07-1.06.26-2.1.69-2.72.42-.57.98-.71 1.76-.39 1.47.58 2.23 3.07 2.92 5.04a29 29 0 0 1 1.26 6.11c.4 3.99.11 7.64-.33 10.69-.9 6.1-2.1 9.8-1.74 9.91.23.08 1.98-3.43 3.33-9.64.64-3.09 1.13-6.9.82-11.15-.15-2.12-.54-4.35-1.22-6.58-.33-1.13-.74-2.22-1.25-3.36-.53-1.12-1.38-2.46-2.89-3.11-1.39-.75-3.65-.27-4.51 1.19-.87 1.34-.97 2.68-1.06 3.83-.17 2.3-.16 4.52-.02 6.62.3 4.21 1.1 7.93 2.06 10.96 1.94 6.07 4.24 9.31 4.45 9.18"/><path fill="#0C2B34" d="M1352.63 1659.65c.17.33 3.18-1.19 8.35-2.46 2.58-.61 5.7-1.15 9.2-1.25 1.74-.03 3.61-.09 5.27.33 1.68.39 2.98 1.44 3.07 3 .12 1.61-.78 3.17-2.16 4.07-1.39.95-3.11 1.4-4.78 1.6-3.35.39-6.47-.23-9.02-.91-5.11-1.47-8.24-2.81-8.38-2.46-.1.22 2.72 2.07 7.9 4 2.59.9 5.91 1.76 9.72 1.45 1.86-.17 3.92-.6 5.8-1.83 1.88-1.18 3.4-3.52 3.18-6.1-.1-2.78-2.74-4.64-4.8-4.98-2.15-.48-4.08-.34-5.9-.26-3.67.23-6.91.96-9.53 1.8-5.27 1.72-8.05 3.78-7.92 4m-80.75 77.33c.15.2 2.17-1.3 3.15-4.98 1.07-3.59.4-9.1-2.41-13.94-1.34-2.43-2.88-4.55-4.3-6.4-1.4-1.87-2.86-3.55-4.36-4.68-1.48-1.16-3.03-1.68-4.1-1.72-1.08-.05-1.63.22-1.61.35.01.35 2.3.18 4.67 2.59 1.21 1.15 2.41 2.76 3.71 4.68 1.31 1.92 2.75 4 4 6.28 2.6 4.52 3.38 9.21 2.82 12.52-.46 3.33-1.87 5.08-1.57 5.3m46.11-34.45c.59.06.41-6.46-4.53-12.3-4.87-5.91-11.25-7.25-11.3-6.65-.24.63 5.19 2.76 9.56 8.1 4.47 5.25 5.61 10.98 6.27 10.85"/><path fill="#0C2B34" d="M1410.11 1679.74c-.11-.13-2.08 1.32-5.65 3.88-3.6 2.49-8.91 6-15.83 9.7-6.9 3.71-15.43 7.56-25.15 11.19s-20.62 7.05-32.16 10.39c-23.11 6.66-44.02 12.73-59.11 17.28-7.24 2.22-13.24 4.06-17.85 5.47-4.19 1.35-6.5 2.16-6.45 2.31.04.15 2.43-.38 6.7-1.46 4.65-1.23 10.72-2.84 18.04-4.78 15.21-4.15 36.18-9.98 59.3-16.64 11.56-3.35 22.52-6.85 32.28-10.61 9.75-3.77 18.3-7.82 25.18-11.74 6.89-3.93 12.11-7.67 15.58-10.41 3.43-2.79 5.21-4.47 5.12-4.58"/><path fill="#0C2B34" d="M1414.87 1681.47c.07-.26-3.98-1.75-10.88-2.89-6.78-1.07-17.07-1.62-26.99 3.3-4.91 2.43-8.81 6.14-11.55 9.91-2.79 3.78-4.64 7.56-6.02 10.76-2.71 6.42-3.82 10.56-3.57 10.66.33.13 1.99-3.83 5.02-9.98 3.05-5.98 7.88-14.73 17.14-19.33 9.24-4.6 19.05-4.38 25.77-3.73 6.81.71 11 1.66 11.08 1.3m227.54-258.22s38.53 13.76 38.69 56.96c.31 82.74-167.19 173.95-167.19 173.95l-222.89-147.69-13.97-5.65s300.89-113.03 365.36-77.57"/><path fill="#335863" d="M1403.93 1581.06c.09.13 2.15-1.28 5.8-3.93 3.66-2.65 8.87-6.58 15.25-11.52 12.76-9.86 30.13-23.84 48.8-39.87 18.68-16.05 35.13-31.1 46.81-42.22 5.84-5.56 10.52-10.12 13.68-13.33 3.18-3.2 4.88-5.03 4.78-5.14-.12-.12-2.02 1.5-5.38 4.51-3.64 3.28-8.41 7.59-14.17 12.78-11.95 10.82-28.54 25.65-47.19 41.68-18.65 16.01-35.83 30.16-48.33 40.34-6 4.9-10.98 8.97-14.78 12.07-3.48 2.86-5.37 4.51-5.27 4.63m175.56-126.88c.09-.55-9.86-1.52-21.48 1.95-11.64 3.39-19.46 9.61-19.1 10.03.37.59 8.5-4.59 19.75-7.85 11.2-3.37 20.85-3.43 20.83-4.13"/><path fill="#335863" d="M1560.29 1441.14c-.2-.54-7.34 2.6-13.21 9.94-5.94 7.28-7.5 14.93-6.94 15.01.65.22 3.09-6.72 8.7-13.58 5.53-6.94 11.81-10.78 11.45-11.37"/><path fill="#0C2B34" d="M1654.68 1703.13c.11-.25-2.67-.79-5.75 1.75-3.04 2.42-5.62 7.28-6.45 12.94-.83 5.7.43 10.94 2.04 14.26 1.57 3.39 3.31 4.98 3.5 4.82.31-.22-.91-2.09-2.01-5.42-1.14-3.28-2.05-8.12-1.28-13.35.77-5.19 2.9-9.69 5.28-12.06 2.36-2.48 4.71-2.57 4.67-2.94"/><path fill="#335863" d="m1591.15 1288.08-79.39 201.24-341.82 5.57-6.33-18.5 119.8-4.34 57.57-178.52z"/><path fill="#E5E5E4" d="M1431.52 1375.2c4.38-2.98 12.49-1.79 16.43 1.75 3.95 3.54 5.23 9.66 3.22 14.56-2 4.91-7.06 8.35-12.34 8.63-5.63.3-11.49-3.22-13.06-8.62-1.57-5.41.17-13.47 5.75-16.32"/><path fill="#0C2B34" d="M1535.02 1664.21s-314.92-206.57-327.82-210.87c-12.89-4.3-44.06-24.71-75.22-16.12-31.17 8.6-59.1 36.54-73.07 77.37-7.98 23.33-11.75 63.14-13.52 92.99-2.12 35.69 8.94 71.28 32.28 98.35 10.62 12.33 23.73 23.05 39.26 27.88 3.28 1.02 6.69 1.9 10.18 2.66 59.55 12.91 120.74-13.81 154.19-64.74l7.35-11.18s206.01 75.68 209.23 74.61z"/><path fill="#335863" d="M1145.41 1607.35s.57.29 1.72.76c1.25.5 2.96 1.18 5.16 2.05l19.97 7.69c17.51 6.59 42.78 16.12 74.19 27.95 31.52 11.76 69.28 25.74 111.63 41.15 42.37 15.4 89.31 32.31 139.45 49.28l.9.31.45-.86c7.88-15.03 16.18-30.89 24.6-46.98 4.3-8.21 8.57-16.36 12.55-23.97l.48-.92-.88-.55c-94.56-60.03-179.16-113.74-240.22-152.5-30.48-19.23-55.08-34.75-72.15-45.51-8.46-5.28-15.04-9.39-19.61-12.23-2.18-1.34-3.88-2.38-5.11-3.13-1.16-.69-1.78-1-1.78-1s.54.43 1.66 1.19c1.21.79 2.86 1.9 5 3.31 4.51 2.93 11.02 7.15 19.38 12.58 16.98 10.91 41.45 26.63 71.78 46.11 60.95 38.91 145.42 92.82 239.83 153.08l-.39-1.48c-3.98 7.61-8.25 15.76-12.55 23.96-8.42 16.1-16.72 31.96-24.59 47l1.36-.55c-50.11-16.93-97.07-33.75-139.48-49.02-42.33-15.41-80.14-29.17-111.78-40.69-31.52-11.56-56.87-20.85-74.43-27.3-8.68-3.16-15.43-5.62-20.11-7.32-2.24-.78-3.97-1.4-5.23-1.85-1.18-.4-1.8-.56-1.8-.56"/><path fill="#0C2B34" d="M1178.09 873.797c5.37-14.521 17.24-20.825 32.29-24.463 15.04-3.641 31.78.667 43.18 11.125 7.64 6.992 13.23 16.654 22.66 20.929 15.52 7.038 35.42-3.245 50.13 5.355 8.71 5.091 12.99 16.679 9.67 26.212-3.31 9.529-13.86 15.958-23.85 14.542 10.12 4.779 12.01 20.004 5.04 28.758-6.96 8.754-19.84 11.125-30.6 8.079-10.77-3.046-19.71-10.562-27.31-18.762-7.61-8.209-14.27-17.313-22.49-24.884-8.24-7.575-18.51-13.675-29.69-14.091-15.14-.567-29.1 9.608-37.04 22.504-7.95 12.887-10.91 28.175-13.13 43.158-2.21 14.979-3.88 30.271-9.66 44.261-.68 1.65-1.64 3.47-3.39 3.83-2.51.53-4.35-2.26-5.36-4.62-11.38-26.675-17.46-55.6-17.76-84.604-.18-16.842 1.7-32.604 12.16-45.808 10.47-13.205 34.59-21.43 45.15-11.521"/><path fill="#F6AA63" d="m1142.58 941.013-23.15 168.237c-3.94 28.61 16.87 54.69 45.64 57.21 26.85 2.35 50.81-16.81 54.46-43.52 1.73-12.66 3.2-23.22 3.46-24.51 0 0 43.39 1.87 52.31-40.1 4.31-20.28 9.8-62.771 14.31-101.267 4.85-41.346-22.92-79.475-63.74-87.629l-4.06-.812c-44.28-6.188-74.27 27.958-79.23 72.391"/><path fill="#F79570" d="M1223.18 1097.84s-27.01-3.15-51.72-26.55c0 0 6.91 32.87 49.65 37.47z"/><path fill="#0C2B34" d="M1271.73 982.788c-.52 3.196-3.66 5.388-7.01 4.905-3.34-.484-5.63-3.459-5.11-6.655.52-3.191 3.66-5.391 7-4.908 3.35.483 5.64 3.467 5.12 6.658m4.72-6.887c-.9.633-4.78-3.642-11.25-4.921-6.44-1.363-11.85 1.012-12.39.083-.28-.421.76-1.679 3.13-2.771 2.33-1.095 6.09-1.854 10.12-1.033 4.02.825 7.11 2.988 8.75 4.892 1.69 1.925 2.08 3.475 1.64 3.75m-68.57-3.583c-.52 3.191-3.65 5.387-7 4.9-3.34-.484-5.63-3.459-5.11-6.65.52-3.196 3.66-5.392 7-4.909 3.34.479 5.64 3.463 5.11 6.659m4.78-7.909c-.9.638-4.78-3.641-11.25-4.916-6.44-1.367-11.85 1.012-12.39.079-.28-.421.76-1.679 3.14-2.771 2.32-1.092 6.09-1.854 10.11-1.033 4.02.825 7.11 2.987 8.76 4.891 1.67 1.921 2.07 3.475 1.63 3.75m13.89 52.631c.04-.37 4.19-.26 10.87.21 1.69.16 3.32.14 3.82-.93.62-1.11.29-3.04-.12-5.11-.76-4.31-1.54-8.83-2.38-13.551-3.2-19.25-5.17-34.95-4.39-35.071.78-.125 4.01 15.384 7.21 34.634.75 4.738 1.47 9.258 2.15 13.578.25 2 .9 4.35-.44 6.66-.69 1.14-2.09 1.79-3.2 1.86-1.12.11-2.05-.05-2.88-.16-6.63-.97-10.69-1.75-10.64-2.12m-19.92.67c1.06.15-.33 7.17 4.68 13.35 5 6.2 12.64 6.9 12.5 7.9 0 .45-1.94 1.02-5.12.48-3.11-.51-7.44-2.41-10.51-6.19-3.05-3.79-3.81-8.18-3.47-11.1.32-2.99 1.45-4.57 1.92-4.44m12.77-78.301c-.99 1.629-7.28-.491-15.05-1.096-7.76-.754-14.32.242-15.01-1.533-.29-.846 1.1-2.288 3.92-3.496 2.78-1.208 7.02-2.041 11.67-1.637 4.65.416 8.68 1.971 11.22 3.646 2.56 1.675 3.68 3.337 3.25 4.116m58.41 17.309c-1.43 1.237-5.58-1.175-10.92-2.317-5.3-1.329-10.09-.988-10.82-2.729-.31-.842.7-2.171 2.96-3.163 2.23-.996 5.72-1.475 9.38-.629 3.65.85 6.57 2.821 8.14 4.696 1.58 1.887 1.91 3.525 1.26 4.142"/><path fill="#F6AA63" d="M1139.79 972.851c-.66-.454-27.19-14.325-32.02 14.617s25.22 27.822 25.41 27.002 6.61-41.619 6.61-41.619"/><path fill="#F79570" d="M1126.17 1002.03c-.12-.12-.57.27-1.48.52-.9.23-2.37.26-3.78-.56-2.87-1.63-4.64-6.91-3.91-12.152.37-2.645 1.34-5.062 2.62-6.983 1.23-1.975 2.85-3.221 4.43-3.237 1.6-.1 2.53 1.004 2.75 1.879.25.871-.03 1.421.12 1.491.07.088.7-.379.67-1.616a3.28 3.28 0 0 0-.84-2c-.6-.684-1.57-1.138-2.67-1.204-2.25-.217-4.6 1.5-6.01 3.608-1.53 2.1-2.68 4.804-3.09 7.775-.79 5.867 1.28 11.819 5.27 13.729 1.95.87 3.74.54 4.74 0 1.01-.56 1.27-1.18 1.18-1.25"/><path fill="#0C2B34" d="M1300.26 950.109c-19.51 1.225-39.39-7.625-51.54-22.946-8.5-10.725-13.9-24.775-25.94-31.283-8.1-4.379-18.07-4.433-26.84-1.646-8.78 2.788-16.52 8.179-23.45 14.246 3.86 23.008-6.37 45.779-16.34 66.867-1.1 2.329-2.36 4.825-4.67 5.966-3.93 1.938-8.61-1.129-10.96-4.82-3.76-5.917-4.2-13.309-4.05-20.313.31-15.958 3.11-32.008 9.59-46.596s16.78-27.679 30.26-36.233c16.84-10.692 38.06-13.742 57.56-9.529 19.5 4.208 37.21 15.379 50.47 30.287 6.15 6.917 11.5 14.863 13.59 23.879M134.167 1628.84c-.042-.02.208-.61.729-1.76.583-1.24 1.366-2.9 2.362-5.03 2.005-4.44 4.613-11.18 6.938-20.15 4.587-17.92 6.187-45.29-.596-77.82-3.15-16.28-8.229-33.74-14.429-52.26-6.113-18.55-13.204-38.23-19-59.51-5.729-21.23-10.254-44.27-9.384-68.42.88-24.2 8.046-48.36 15.925-72.41 7.863-24.08 15.996-47.62 18.434-71.3 2.754-23.64-2.309-46.84-13.075-65.85-10.429-19.22-23.55-35.65-33.371-52.67-9.975-16.97-16.213-34.42-20.058-50.64-7.45-32.715-4.842-60.282-1.271-78.448 3.87-18.263 8.187-27.704 8.187-27.704.038.016-.125.637-.487 1.837-.409 1.317-.954 3.075-1.654 5.313-1.446 4.666-3.317 11.637-5.088 20.737-3.262 18.129-5.57 45.504 2.033 77.855 3.921 16.05 10.188 33.27 20.126 50 9.795 16.82 22.974 33.19 33.612 52.63 10.992 19.22 16.283 43.18 13.479 67.19-2.45 24.08-10.646 47.78-18.487 71.83-7.88 24.03-14.963 47.93-15.859 71.72-.891 23.79 3.521 46.6 9.159 67.73 5.7 21.17 12.712 40.86 18.745 59.46 6.125 18.57 11.142 36.18 14.196 52.58 6.609 32.76 4.725 60.41-.195 78.39-2.488 9-5.263 15.72-7.426 20.12-1.091 2.09-1.95 3.72-2.591 4.94-.596 1.11-.917 1.66-.954 1.64"/><path fill="#6B6BB9" d="M102.038 1098.45s-19.942-63.77 15.829-101.103c1.254-1.309 3.467-.692 3.792 1.095 1.908 10.528 4.295 42.608-19.621 100.008"/><path fill="#0C2B34" d="M113.988 1018.6c.337.06-.238 4.55-1.346 11.76-1.313 8.1-2.85 17.62-4.55 28.12-1.667 10.52-3.179 20.03-4.463 28.13-1.095 7.2-1.745 11.67-2.112 11.64-.321-.03-.288-4.56.358-11.85.659-7.29 1.946-17.32 3.75-28.32 1.8-11 3.717-20.91 5.279-28.05 1.559-7.13 2.742-11.5 3.084-11.43"/><path fill="#6B6BB9" d="M125.462 1248.84s12.196-65.69 61.271-81.96c1.725-.57 3.388 1.01 2.838 2.74-3.234 10.2-16.125 39.67-64.109 79.22"/><path fill="#0C2B34" d="M173.367 1183.84c.266.22-2.338 3.92-6.688 9.78-4.95 6.54-10.758 14.24-17.175 22.73-6.392 8.51-12.175 16.21-17.1 22.77-4.333 5.85-7 9.49-7.308 9.3-.275-.17 1.879-4.17 5.858-10.31 3.992-6.13 9.813-14.39 16.554-23.27 6.738-8.88 13.067-16.74 17.784-22.32 4.716-5.59 7.808-8.89 8.075-8.68"/><path fill="#6B6BB9" d="M112.2 1413.63s-7.408-66.4 34.825-96.22c1.483-1.05 3.537-.02 3.512 1.8-.133 10.7-3.908 42.64-38.337 94.42"/><path fill="#0C2B34" d="M139.163 1337.53c.32.13-1.096 4.42-3.563 11.29-2.833 7.7-6.158 16.75-9.833 26.74-3.642 10-6.938 19.05-9.746 26.75-2.45 6.86-3.942 11.12-4.292 11.02-.312-.08.584-4.53 2.609-11.56 2.037-7.03 5.212-16.62 9.087-27.08 3.863-10.46 7.638-19.81 10.529-26.52s4.888-10.77 5.209-10.64"/><path fill="#6B6BB9" d="M149.167 1579.39s-5.025-66.62 38.254-94.91c1.517-1 3.529.1 3.442 1.92-.517 10.68-5.434 42.47-41.696 92.99"/><path fill="#0C2B34" d="M178.837 1504.29c.317.15-1.254 4.39-3.962 11.16-3.108 7.6-6.754 16.52-10.783 26.37-4 9.86-7.617 18.79-10.7 26.39-2.688 6.77-4.334 10.97-4.684 10.87-.308-.1.746-4.52 3.025-11.47 2.288-6.95 5.8-16.43 10.046-26.73 4.238-10.32 8.346-19.53 11.475-26.14 3.129-6.6 5.271-10.59 5.583-10.45"/><path fill="#6B6BB9" d="M73.38 1042.43S14.157 1011.5 13 959.809c-.037-1.821 1.958-2.942 3.45-1.912 8.804 6.087 33.196 27.054 56.93 84.533"/><path fill="#0C2B34" d="M25.296 977.559c.288-.187 3.058 3.384 7.38 9.263 4.807 6.654 10.453 14.458 16.69 23.088 6.263 8.61 11.93 16.4 16.76 23.02 4.324 5.87 7.02 9.48 6.74 9.72-.24.21-3.428-3.02-8.132-8.62-4.692-5.62-10.88-13.6-17.392-22.66-6.517-9.04-12.175-17.398-16.125-23.548-3.95-6.142-6.208-10.067-5.921-10.263"/><path fill="#6B6BB9" d="M136.975 1179.37s-60.991-27.28-65.291-78.8c-.15-1.81 1.775-3.06 3.333-2.12 9.154 5.55 34.771 24.99 61.958 80.92"/><path fill="#0C2B34" d="M85.038 1117.55c.275-.22 3.258 3.18 7.925 8.79l18.066 22.03c6.775 8.21 12.9 15.64 18.121 21.96 4.675 5.59 7.588 9.04 7.325 9.3-.233.22-3.612-2.81-8.646-8.12-5.02-5.32-11.683-12.92-18.733-21.56-7.054-8.63-13.208-16.63-17.525-22.52-4.317-5.9-6.808-9.67-6.533-9.88"/><path fill="#6B6BB9" d="M101.879 1332.12s-41.875-52.06-22.233-99.89c.688-1.68 2.975-1.91 3.93-.36 5.624 9.1 19.574 38.08 18.303 100.25"/><path fill="#0C2B34" d="M83.8 1253.43c.337-.06 1.45 4.32 3.05 11.44 1.746 8.02 3.792 17.44 6.05 27.84 2.292 10.39 4.362 19.8 6.13 27.81 1.616 7.1 2.641 11.49 2.287 11.6-.305.1-1.934-4.14-3.996-11.16-2.054-7.02-4.521-16.82-6.863-27.73-2.346-10.89-4.183-20.82-5.341-28.02-1.159-7.22-1.659-11.72-1.317-11.78"/><path fill="#6B6BB9" d="M143.358 1511.88s-60.525-28.3-63.954-79.89c-.12-1.81 1.83-3.03 3.367-2.06 9.063 5.69 34.346 25.57 60.587 81.95"/><path fill="#0C2B34" d="M92.47 1449.19c.276-.21 3.205 3.24 7.78 8.92 5.096 6.44 11.079 13.99 17.692 22.34 6.633 8.32 12.637 15.85 17.75 22.26 4.579 5.67 7.433 9.16 7.166 9.41-.233.22-3.562-2.86-8.508-8.26-4.933-5.4-11.467-13.11-18.367-21.86-6.912-8.75-12.929-16.85-17.145-22.82-4.217-5.96-6.646-9.79-6.367-9.99m171.442-199.99c.058.01.079.51.075 1.47l-.104 4.27c-.179 4.02-.421 9.44-.717 16.2-.783 14.24-1.867 34.1-3.171 57.85l-.004.06-.012.08c-4.321 24.18-16.634 50.97-33.171 76.99-12.134 19.16-24.85 36.59-35.817 52.79-11.037 16.16-20.358 31.13-26.854 44.39-6.538 13.24-10.338 24.62-12.563 32.57-1.062 3.99-1.862 7.11-2.321 9.24-.5 2.12-.804 3.23-.887 3.21-.083-.01.054-1.15.392-3.31.3-2.17.95-5.33 1.875-9.38 1.946-8.07 5.525-19.65 11.916-33.1 6.346-13.47 15.575-28.64 26.534-44.91 10.891-16.32 23.541-33.76 35.608-52.83 16.454-25.89 28.7-52.28 33.183-76.06l-.016.13c1.666-23.73 3.062-43.57 4.058-57.8.55-6.75.988-12.15 1.308-16.16l.43-4.25c.112-.96.2-1.45.258-1.45"/><path fill="#F15B66" d="M227.875 1401.15s25.629-61.7-6.608-102.12c-1.133-1.42-3.392-1-3.875.74-2.858 10.32-8.138 42.04 10.483 101.38"/><path fill="#0C2B34" d="M223.204 1320.54c.346-.04 1.13 4.42 2.034 11.67.908 7.25 1.925 17.29 2.721 28.41.8 11.12 1.175 21.22 1.17 28.54-.016 7.31-.391 11.83-.716 11.83-.367-.01-.617-4.51-1.05-11.78-.546-8.19-1.188-17.79-1.9-28.41l-1.984-28.42c-.454-7.28-.616-11.8-.275-11.84"/><mask id="a" width="24" height="104" x="214" y="1298" maskUnits="userSpaceOnUse" style="mask-type:luminance"><path fill="#fff" d="M227.875 1401.15c-10.529-33.55-13.416-58.27-13.42-75.29-.005-13.08 1.695-21.6 2.937-26.09.288-1.03 1.188-1.6 2.113-1.6.641 0 1.295.28 1.762.86 12.433 15.59 16.263 34.35 16.267 51.51.008 22.03-6.275 41.44-8.709 48.12.167-2.03.296-5.3.305-9.5.004-7.32-.371-17.42-1.171-28.54-.796-11.12-1.813-21.16-2.721-28.41-.9-7.22-1.683-11.67-2.029-11.67-.342.04-.184 4.56.271 11.84l1.983 28.42c.712 10.62 1.354 20.22 1.9 28.41.342 5.69.567 9.68.825 11.15-.2.52-.313.79-.313.79"/></mask><g mask="url(#a)"><path fill="#3636A1" d="M237.542 1298.17H214.45v102.98h23.092z"/></g><path fill="#011721" d="M228.188 1400.36c-.259-1.47-.484-5.46-.825-11.15-.546-8.19-1.188-17.79-1.9-28.41l-1.984-28.42c-.454-7.28-.616-11.8-.275-11.84.346 0 1.134 4.45 2.034 11.67.908 7.25 1.925 17.29 2.721 28.41.8 11.12 1.175 21.22 1.17 28.54-.008 4.2-.137 7.47-.304 9.5-.262.72-.479 1.29-.637 1.7"/><path fill="#F15B66" d="M148.484 1549.83s20.546-63.58-14.871-101.25c-1.242-1.32-3.458-.72-3.8 1.06-2.008 10.51-4.7 42.56 18.671 100.19"/><path fill="#0C2B34" d="M137.296 1469.86c.337-.06 1.483 4.32 2.971 11.47 1.491 7.15 3.32 17.08 5.012 28.1 1.7 11.01 2.892 21.05 3.483 28.35.575 7.29.567 11.83.242 11.85-.362.02-.975-4.45-2-11.66-1.208-8.11-2.625-17.64-4.196-28.16-1.6-10.53-3.046-20.06-4.283-28.17-1.042-7.22-1.571-11.71-1.229-11.78"/><path fill="#3636A1" d="M148.484 1549.83c-16.342-40.3-19.942-68.09-19.942-84.75 0-7.17.667-12.28 1.271-15.44.216-1.12 1.175-1.78 2.166-1.78.584 0 1.176.23 1.634.72 16.396 17.44 20.8 40.43 20.8 60.09 0 17.76-3.596 32.82-5.183 38.61 0-2.04-.138-5.32-.467-9.5-.592-7.3-1.783-17.34-3.483-28.35-1.692-11.02-3.521-20.95-5.013-28.1-1.479-7.1-2.617-11.47-2.962-11.47h-.009c-.342.07.188 4.56 1.229 11.78 1.238 8.11 2.684 17.64 4.284 28.17 1.571 10.52 2.987 20.05 4.196 28.16.8 5.64 1.35 9.61 1.725 11.05-.155.53-.246.81-.246.81"/><path fill="#011721" d="M148.729 1549.02c-.375-1.44-.925-5.41-1.725-11.05-1.208-8.11-2.625-17.64-4.196-28.16-1.6-10.53-3.046-20.06-4.283-28.17-1.042-7.22-1.571-11.71-1.229-11.78h.008c.346 0 1.483 4.37 2.963 11.47 1.491 7.15 3.32 17.08 5.012 28.1 1.7 11.01 2.892 21.05 3.483 28.35.33 4.18.467 7.46.467 9.5-.204.73-.375 1.32-.5 1.74"/><path fill="#F15B66" d="M260.517 1325.75s54.733-38.32 49.213-89.73c-.196-1.81-2.325-2.66-3.671-1.45-7.946 7.18-29.425 31.11-45.542 91.18"/><path fill="#3636A1" d="M260.517 1325.75c16.117-60.07 37.596-84 45.542-91.18.433-.39.946-.56 1.45-.56 1.062 0 2.087.78 2.221 2.01.262 2.46.387 4.89.391 7.29.017 47.7-49.604 82.44-49.604 82.44"/><path fill="#0C2B34" d="M299.825 1255.21c.308.16-1.421 4.35-4.546 10.95s-7.654 15.62-12.95 25.43c-5.287 9.82-10.391 18.54-14.321 24.71-3.937 6.17-6.683 9.78-6.954 9.6-.304-.2 1.9-4.13 5.438-10.51 3.929-7.19 8.541-15.65 13.641-24.99l13.571-25.05c3.525-6.39 5.813-10.29 6.121-10.14"/><path fill="#F15B66" d="M170.554 1486.8s66.013-10.29 83.696-58.88c.621-1.71-.912-3.41-2.658-2.91-10.288 2.93-40.117 14.97-81.038 61.79"/><path fill="#3636A1" d="M170.554 1486.8c40.921-46.82 70.75-58.86 81.038-61.79q.314-.09.616-.09c1.209 0 2.184 1.02 2.184 2.21 0 .26-.046.53-.142.79-15.475 42.52-67.971 55.71-80.833 58.34-1.304.27-2.204.43-2.613.5-.166.02-.25.04-.25.04"/><path fill="#0C2B34" d="M236.908 1440.79c.209.28-3.191 3.27-8.904 7.82-5.712 4.56-13.754 10.66-22.825 17.13-9.071 6.49-17.496 12.07-23.741 15.88-6.25 3.8-10.309 5.84-10.471 5.56-.188-.32 3.529-2.87 9.508-7.04l23.254-16.43c8.675-6.17 16.529-11.75 23.217-16.51 5.979-4.19 9.75-6.68 9.962-6.41"/><path fill="#335863" d="m107.579 1608.28-19.258 129.61h120.004l-15.558-129.61z"/><path fill="#0C2B34" d="M197.567 1648.44c0 .69-21.671 1.25-48.392 1.25-26.729 0-48.392-.56-48.392-1.25 0-.68 21.663-1.25 48.392-1.25 26.721 0 48.392.57 48.392 1.25m2.375 10.32c0 .69-22.375 1.25-49.971 1.25-27.608 0-49.98-.56-49.98-1.25s22.372-1.25 49.98-1.25c27.596 0 49.971.56 49.971 1.25"/></svg>