<?xml version="1.0" encoding="UTF-8"?><svg xmlns="http://www.w3.org/2000/svg" viewBox="0 0 51 50"><defs><style>.d{fill:#dea08f;}</style></defs><g id="a"/><g id="b"><g id="c"><g><path class="d" d="M17.36,31.84c-.99-.74-2.58-1.07-3.79-.83-.94,.18-1.1,.43-1.44,1.42-.42,1.2-.12,2.33-.11,3.58,.02,1.92,.09,3.54,.46,5.39s.57,3.57,1.74,5.15c1.38,1.87,3.36,2.53,5.57,2.94,5.16,.95,10.85,.38,16.02-.22,5.37-.62,10.62-1.58,13.5-6.98,2.04-3.82-.18-10.89-4.16-12.57-2.79-1.18-5.75,.43-8,2.06-.87,.63-1.74,1.2-2.39,2.1s-1.02,1.95-1.89,2.63c-5.39,4.23-10.98-2.59-15.51-4.68Z"/><g><path d="M11.89,47.17V30.83c4.02,.99,10.71,6.15,10.71,6.15,0,0,2.5,1.62,5.84,1.76,3.33,.14,4.7-.39,7.43-4.07,2.71-3.65,2.64-3.98,4.52-4.15,1.88-.17,7.56,.36,7.56,.36,.53,.06,1-.32,1.06-.85,.06-.53-.32-1-.85-1.06,0,0-.46-.08-1.19-.19l-.06-14.88,2.16,1.87c.22,.19,.49,.29,.76,.29,.33,0,.65-.14,.89-.41,.42-.49,.37-1.23-.12-1.65L34.44,0,18.29,13.98c-.49,.42-.54,1.16-.12,1.65,.42,.49,1.16,.54,1.65,.12l2.16-1.87,.09,18.74h1.3l1.97-1.87,1.14-1.02h10.5c-2.3,2.14-3.98,6.65-7.3,6.73-4.06,.09-7.1-2.26-7.1-2.26,0,0-7.54-5.47-10.87-5.47H.96c-.53,0-.96,.43-.96,.96s.43,.96,.96,.96H6.44l-5.72,2.84,.51,1.04,7.8-3.88h1.67v2.81L.71,38.84l.54,1.02,9.46-5.08v3.14L.71,43.3l.54,1.02,9.46-5.08v3.76l-7.73,4.15v.03H.96c-.27,0-.48,.22-.48,.48s.21,.48,.48,.48H3.51v.03l.07-.03H11.91l-.03-.96Zm-4.41,0h-2.11l5.34-2.87v2.87h-3.23ZM40.81,28.41c-.77,.05-1.5,.14-2.13,.31h-4.16v-6.7c0-1.78,1.41-3,3.15-3s3.15,1.21,3.15,3v6.39Zm1.15-.03v-6.15c0-2.42-1.65-4.38-4.37-4.38-2.41,0-4.37,1.97-4.37,4.38v6.5h-6.54v-1.07h2.54v-5.2h2.31v-6.38h2.72v-4.96h2.59v-2.48l-1.04-1.4h0v2.07h-2.8v4.8h-3.16v5.89h-2.45v5.49h-2.36v2.31l-1.38,.93V12.38L34.37,3.1l10.72,9.28V28.54c-.96-.09-2.06-.17-3.13-.17Z"/><path d="M35.87,22.87c-.27,0-.49,.22-.49,.5s.22,.5,.49,.5,.49-.22,.49-.5-.22-.5-.49-.5Z"/><circle cx="41.11" cy="39.07" r=".72"/><circle cx="34.38" cy="42.08" r=".48"/><path d="M42.07,45.09c.6,0,1.08-.49,1.08-1.08s-.48-1.08-1.08-1.08-1.08,.49-1.08,1.08,.48,1.08,1.08,1.08Z"/><path d="M34.98,37.86c0,.6,.48,1.08,1.08,1.08s1.08-.49,1.08-1.08-.48-1.08-1.08-1.08-1.08,.49-1.08,1.08Z"/><circle cx="13.29" cy="40.63" r=".72"/><path d="M17.07,36.24c0-.6-.48-1.08-1.08-1.08s-1.08,.49-1.08,1.08,.48,1.08,1.08,1.08,1.08-.49,1.08-1.08Z"/><path d="M28.01,41.59c-.6,0-1.08,.49-1.08,1.08s.48,1.08,1.08,1.08,1.08-.49,1.08-1.08-.48-1.08-1.08-1.08Z"/><circle cx="47.12" cy="42.2" r=".48"/><circle cx="22.73" cy="45.79" r=".48"/><circle cx="29.69" cy="46.03" r=".72"/><path d="M47.24,37.14c0-.6-.48-1.08-1.08-1.08s-1.08,.49-1.08,1.08,.48,1.08,1.08,1.08,1.08-.49,1.08-1.08Z"/><circle cx="22.24" cy="41.35" r=".72"/><path d="M17.32,45.31c.6,0,1.08-.49,1.08-1.08s-.48-1.08-1.08-1.08-1.08,.49-1.08,1.08,.48,1.08,1.08,1.08Z"/><circle cx="41.11" cy="33.54" r=".48"/></g></g></g></g></svg>