<?xml version="1.0" encoding="UTF-8"?><svg xmlns="http://www.w3.org/2000/svg" viewBox="0 0 55 50"><defs><style>.d{fill:#86c5d3;}</style></defs><g id="a"/><g id="b"><g id="c"><g><path class="d" d="M25.59,27.33c-3.19,.06-6.64,.82-9.83,.36-.78-.11-1.27-1.14-1.61-1.14-1.39-.01-1.25,.55-2.48,.7-2.72,.35-8.21,.73-10.24,2.45-4.35,3.66,2.53,11.38,3.94,15.71,1,3.07,17.59,2.03,23.6,2.03,6.97,0,15.08-1.36,20.32-4.8,3.45-2.27,2.43-5.72,2.94-9.86,.42-3.42-2.37-3.6-5.78-4.76-4.46-1.53-4.97-1.3-9.39-.34-4.06,.88-8.5-1.69-11.47-.35Z"/><path d="M40,32.47c-.67,0-1.21,.55-1.21,1.24s.54,1.24,1.21,1.24,1.21-.55,1.21-1.24-.54-1.24-1.21-1.24Zm0,1.98c-.4,0-.73-.33-.73-.74s.33-.74,.73-.74,.73,.33,.73,.74-.33,.74-.73,.74Zm-30.91-1.86c-.53,0-.97,.44-.97,.99s.43,.99,.97,.99,.97-.44,.97-.99-.43-.99-.97-.99Zm0,1.48c-.27,0-.48-.22-.48-.49s.22-.49,.48-.49,.48,.22,.48,.49-.22,.49-.48,.49Zm45.4-10.31c-.47-.26-1.06-.08-1.31,.4-.95,1.81-3.04,2.99-5.3,2.99-1.35,0-2.63-.42-3.66-1.15l1.57-6.84,2.74,3.88c.19,.27,.49,.41,.79,.41,.2,0,.39-.06,.57-.19,.43-.32,.53-.94,.22-1.38L34.64,0,11.18,12.44c-.47,.25-.66,.85-.41,1.33,.25,.49,.83,.67,1.31,.42l4.16-2.21-3.55,15.17c-2.25-.02-4.3-1.18-5.25-2.98-.25-.48-.84-.66-1.31-.4-.47,.26-.65,.86-.39,1.34,1.29,2.45,4.04,4.03,7.01,4.03,2.29,0,4.39-.89,5.86-2.43,1.46,1.54,3.57,2.43,5.86,2.43s4.39-.89,5.86-2.43c1.46,1.54,3.57,2.43,5.86,2.43s4.39-.89,5.86-2.43c1.46,1.54,3.57,2.43,5.86,2.43,2.97,0,5.72-1.58,7.01-4.03,.25-.48,.08-1.08-.39-1.34Zm-23.38,.82l-.8-1.22-.8,1.22c-1.02,1.54-2.87,2.5-4.88,2.56l1.52-6.77,7.08,1.72-.9,3.77c-.48-.37-.9-.79-1.22-1.29Zm10.91-1.22l-.8,1.22c-1.04,1.58-2.98,2.57-5.05,2.57-1.06,0-2.08-.26-2.97-.72l1.21-5.06-8.98-2.19-1.78,7.92c-1.76-.22-3.34-1.14-4.24-2.51l-.8-1.22-.8,1.22c-.69,1.05-1.78,1.83-3.04,2.24l3.76-16.05L34.05,2.54l10.23,14.51-1.66,7.25-.61-.92ZM12.24,42.41c-.89,0-1.61,.74-1.61,1.65s.72,1.65,1.61,1.65,1.61-.74,1.61-1.65-.72-1.65-1.61-1.65Zm0,2.8c-.62,0-1.13-.52-1.13-1.15s.51-1.15,1.13-1.15,1.13,.52,1.13,1.15-.51,1.15-1.13,1.15Zm4.27-10.55c-.89,0-1.61,.74-1.61,1.65s.72,1.65,1.61,1.65,1.61-.74,1.61-1.65-.72-1.65-1.61-1.65Zm0,2.8c-.62,0-1.13-.52-1.13-1.15s.51-1.15,1.13-1.15,1.13,.52,1.13,1.15-.51,1.15-1.13,1.15Zm27.8,2.06c-1.25,0-2.26,1.04-2.26,2.31s1.01,2.31,2.26,2.31,2.26-1.04,2.26-2.31-1.01-2.31-2.26-2.31Zm0,4.12c-.98,0-1.78-.81-1.78-1.81s.8-1.81,1.78-1.81,1.78,.81,1.78,1.81-.8,1.81-1.78,1.81Zm-9.88-4.38c-.53,0-.97,.44-.97,.99s.43,.99,.97,.99,.97-.44,.97-.99-.43-.99-.97-.99Zm0,1.48c-.27,0-.48-.22-.48-.49s.22-.49,.48-.49,.48,.22,.48,.49-.22,.49-.48,.49Zm-5.25-7.87c-.89,0-1.61,.74-1.61,1.65s.72,1.65,1.61,1.65,1.61-.74,1.61-1.65-.72-1.65-1.61-1.65Zm0,2.8c-.62,0-1.13-.52-1.13-1.15s.51-1.15,1.13-1.15,1.13,.52,1.13,1.15-.51,1.15-1.13,1.15Zm-6.37,5.56c-.53,0-.97,.44-.97,.99s.43,.99,.97,.99,.97-.44,.97-.99-.43-.99-.97-.99Zm0,1.48c-.27,0-.48-.22-.48-.49s.22-.49,.48-.49,.48,.22,.48,.49-.22,.49-.48,.49Zm6.37,3.96c-.89,0-1.61,.74-1.61,1.65s.72,1.65,1.61,1.65,1.61-.74,1.61-1.65-.72-1.65-1.61-1.65Zm0,2.8c-.62,0-1.13-.52-1.13-1.15s.51-1.15,1.13-1.15,1.13,.52,1.13,1.15-.51,1.15-1.13,1.15Zm20.82-14.92c-.53,0-.97,.44-.97,.99s.43,.99,.97,.99,.97-.44,.97-.99-.43-.99-.97-.99Zm0,1.48c-.27,0-.48-.22-.48-.49s.22-.49,.48-.49,.48,.22,.48,.49-.22,.49-.48,.49Z"/></g></g></g></svg>