<?xml version="1.0" encoding="UTF-8"?><svg xmlns="http://www.w3.org/2000/svg" viewBox="0 0 47 50"><defs><style>.d{fill:#d3bd36;}</style></defs><g id="a"/><g id="b"><g id="c"><g><path class="d" d="M27.12,10.04c-4.28,0-6.67,1.13-8.81,4.84-1.42,2.45-.51,6.84,1.3,8.9,2.32,2.65,6.88,3.64,9.81,1.81,2.19-1.36,3.18-4.1,3.04-6.81-.11-2.06-.68-3.59-1.82-5.34-.6-.92-1.82-3.07-3.51-3.41Z"/><g><path d="M46.09,29.47h-6.87V13.76l2.91,2.52c.36,.32,.97,.27,1.28-.09,.33-.38,.29-.96-.09-1.29L26.16,0,9.01,14.9c-.38,.33-.42,.91-.09,1.29,.33,.38,.9,.42,1.28,.09l2.9-2.52v15.71H.91c-.5,0-.91,.41-.91,.91s.41,.91,.91,.91H46.09c.5,0,.91-.41,.91-.91s-.41-.91-.91-.91Zm-8.68-.11H14.92V12.18L26.16,2.41l11.25,9.77V29.36Z"/><path d="M16.7,18.55c0,2.55,.98,4.94,2.76,6.74,1.78,1.8,4.16,2.79,6.68,2.79h.02c2.53,0,4.9-.99,6.69-2.78,1.79-1.8,2.78-4.19,2.78-6.73,0-2.54-.98-4.93-2.77-6.73-1.78-1.79-4.16-2.79-6.69-2.79h0c-2.53,0-4.91,.99-6.7,2.78-1.79,1.79-2.77,4.18-2.78,6.72Zm9.47-8.08c4.44,.02,8.05,3.65,8.05,8.1,0,2.17-.84,4.2-2.36,5.73-1.52,1.52-3.54,2.36-5.69,2.36h-.02c-4.44,0-8.04-3.65-8.04-8.11,0-4.45,3.62-8.08,8.06-8.09Z"/><path d="M28.37,18.61c.17,.04,4.64,.04,4.82,0,0-.03,.01-.06,.01-.09-.01-.28-.01-.55-.05-.83-.08-.56-.21-1.11-.42-1.64-.31-.79-.74-1.51-1.3-2.15-.34-.39-.73-.74-1.15-1.04-.17-.12-.35-.23-.54-.36-.83,1.41-1.64,2.8-2.46,4.19,.69,.46,1.05,1.09,1.09,1.91Z"/><path d="M19.15,18.63c.06,0,.11,0,.17,0,1.48,0,2.96,0,4.44,0,.04,0,.08,0,.12,0,.06,0,.09-.04,.1-.1,0-.08,0-.16,.01-.23,.11-.64,.42-1.15,.95-1.52,.04-.02,.07-.06,.1-.08-.01-.03-.02-.04-.03-.06-.35-.59-.7-1.18-1.04-1.78-.44-.74-.87-1.49-1.31-2.23-.02-.04-.06-.07-.09-.11-2.54,1.5-3.55,4.29-3.42,6.1Z"/><path d="M25.06,20.55c-.26,.38-2.36,4.06-2.4,4.21,2.04,1.27,4.96,1.25,6.96,.02-.79-1.41-1.58-2.81-2.37-4.22-.74,.37-1.47,.37-2.19,0Z"/><path d="M26.16,19.73c.64,0,1.16-.52,1.16-1.17,0-.65-.53-1.16-1.17-1.16-.63,0-1.14,.52-1.15,1.16,0,.64,.51,1.17,1.16,1.17Z"/><path d="M34.48,34.03c-.7,0-1.27,.57-1.27,1.28s.57,1.28,1.27,1.28,1.27-.57,1.27-1.28-.57-1.28-1.27-1.28Zm0,2.2c-.51,0-.92-.42-.92-.93s.41-.93,.92-.93,.92,.42,.92,.93-.41,.93-.92,.93Z"/><path d="M34.48,34.47c-.46,0-.83,.38-.83,.84s.37,.84,.83,.84,.83-.38,.83-.84-.37-.84-.83-.84Zm0,1.32c-.27,0-.48-.22-.48-.49s.22-.49,.48-.49,.48,.22,.48,.49-.22,.49-.48,.49Z"/><path d="M6.48,34.14c-.58,0-1.05,.47-1.05,1.06s.47,1.06,1.05,1.06,1.05-.47,1.05-1.06-.47-1.06-1.05-1.06Zm0,1.76c-.39,0-.7-.32-.7-.71s.31-.71,.7-.71,.7,.32,.7,.71-.31,.71-.7,.71Z"/><path d="M6.48,34.58c-.34,0-.61,.28-.61,.62s.28,.62,.61,.62,.61-.28,.61-.62-.28-.62-.61-.62Zm0,.88c-.14,0-.26-.12-.26-.26s.12-.26,.26-.26,.26,.12,.26,.26-.12,.26-.26,.26Z"/><path d="M9.33,42.88c-.9,0-1.64,.74-1.64,1.65s.74,1.65,1.64,1.65,1.64-.74,1.64-1.65-.73-1.65-1.64-1.65Zm0,2.94c-.71,0-1.29-.58-1.29-1.29s.58-1.29,1.29-1.29,1.29,.58,1.29,1.29-.58,1.29-1.29,1.29Z"/><path d="M9.33,43.32c-.66,0-1.2,.54-1.2,1.21s.54,1.21,1.2,1.21,1.2-.54,1.2-1.21-.54-1.21-1.2-1.21Zm0,2.06c-.47,0-.85-.38-.85-.85s.38-.85,.85-.85,.85,.38,.85,.85-.38,.85-.85,.85Z"/><path d="M13.2,35.98c-.9,0-1.64,.74-1.64,1.65s.73,1.65,1.64,1.65,1.64-.74,1.64-1.65-.74-1.65-1.64-1.65Zm0,2.94c-.71,0-1.29-.58-1.29-1.29s.58-1.29,1.29-1.29,1.29,.58,1.29,1.29-.58,1.29-1.29,1.29Z"/><path d="M13.2,36.42c-.66,0-1.2,.54-1.2,1.21s.54,1.21,1.2,1.21,1.2-.54,1.2-1.21-.54-1.21-1.2-1.21Zm0,2.06c-.47,0-.85-.38-.85-.85s.38-.85,.85-.85,.85,.38,.85,.85-.38,.85-.85,.85Z"/><path d="M38.38,40.31c-1.23,0-2.22,1-2.22,2.23s1,2.23,2.22,2.23,2.22-1,2.22-2.23-1-2.23-2.22-2.23Zm0,4.12c-1.03,0-1.87-.84-1.87-1.88s.84-1.88,1.87-1.88,1.87,.84,1.87,1.88-.84,1.88-1.87,1.88Z"/><path d="M38.38,40.75c-.98,0-1.78,.8-1.78,1.79s.8,1.79,1.78,1.79,1.78-.8,1.78-1.79-.8-1.79-1.78-1.79Zm0,3.23c-.79,0-1.43-.65-1.43-1.44s.64-1.44,1.43-1.44,1.43,.65,1.43,1.44-.64,1.44-1.43,1.44Z"/><path d="M29.43,40.09c-.58,0-1.05,.47-1.05,1.06s.47,1.06,1.05,1.06,1.05-.47,1.05-1.06-.47-1.06-1.05-1.06Zm0,1.76c-.39,0-.7-.32-.7-.71s.31-.71,.7-.71,.7,.32,.7,.71-.31,.71-.7,.71Z"/><path d="M29.43,40.53c-.34,0-.61,.28-.61,.62s.28,.62,.61,.62,.61-.28,.61-.62-.28-.62-.61-.62Zm0,.88c-.14,0-.26-.12-.26-.26s.12-.26,.26-.26,.26,.12,.26,.26-.12,.26-.26,.26Z"/><path d="M24.68,34.4c-.9,0-1.64,.74-1.64,1.65s.73,1.65,1.64,1.65,1.64-.74,1.64-1.65-.74-1.65-1.64-1.65Zm0,2.94c-.71,0-1.29-.58-1.29-1.29s.58-1.29,1.29-1.29,1.29,.58,1.29,1.29-.58,1.29-1.29,1.29Z"/><path d="M24.68,34.84c-.66,0-1.2,.54-1.2,1.21s.54,1.21,1.2,1.21,1.2-.54,1.2-1.21-.54-1.21-1.2-1.21Zm0,2.06c-.47,0-.85-.38-.85-.85s.38-.85,.85-.85,.85,.38,.85,.85-.38,.85-.85,.85Z"/><path d="M18.91,41.85c-.58,0-1.05,.47-1.05,1.06s.47,1.06,1.05,1.06,1.05-.47,1.05-1.06-.47-1.06-1.05-1.06Zm0,1.76c-.39,0-.7-.32-.7-.71s.31-.71,.7-.71,.7,.32,.7,.71-.31,.71-.7,.71Z"/><path d="M18.91,42.29c-.34,0-.61,.28-.61,.62s.28,.62,.61,.62,.61-.28,.61-.62-.28-.62-.61-.62Zm0,.88c-.14,0-.26-.12-.26-.26s.12-.26,.26-.26,.26,.12,.26,.26-.12,.26-.26,.26Z"/><path d="M24.68,46.71c-.9,0-1.64,.74-1.64,1.65s.73,1.65,1.64,1.65,1.64-.74,1.64-1.65-.74-1.65-1.64-1.65Zm0,2.94c-.71,0-1.29-.58-1.29-1.29s.58-1.29,1.29-1.29,1.29,.58,1.29,1.29-.58,1.29-1.29,1.29Z"/><path d="M24.68,47.15c-.66,0-1.2,.54-1.2,1.21s.54,1.21,1.2,1.21,1.2-.54,1.2-1.21-.54-1.21-1.2-1.21Zm0,2.06c-.47,0-.85-.38-.85-.85s.38-.85,.85-.85,.85,.38,.85,.85-.38,.85-.85,.85Z"/><path d="M43.54,35.9c-.58,0-1.05,.47-1.05,1.06s.47,1.06,1.05,1.06,1.05-.47,1.05-1.06-.47-1.06-1.05-1.06Zm0,1.76c-.39,0-.7-.32-.7-.71s.31-.71,.7-.71,.7,.32,.7,.71-.31,.71-.7,.71Z"/><path d="M43.54,36.35c-.34,0-.61,.28-.61,.62s.28,.62,.61,.62,.61-.28,.61-.62-.28-.62-.61-.62Zm0,.88c-.14,0-.26-.12-.26-.26s.12-.26,.26-.26,.26,.12,.26,.26-.12,.26-.26,.26Z"/></g></g></g></g></svg>