<?xml version="1.0" encoding="UTF-8"?><svg xmlns="http://www.w3.org/2000/svg" viewBox="0 0 47 50"><defs><style>.d{fill:#d3b5a2;}</style></defs><g id="a"/><g id="b"><g id="c"><g><path class="d" d="M2.05,23.08c-1.14,0-.62,1.34-1.47,2.47-.71,.95-.08,4.09-.13,5.17-.12,2.85-.81,5.76-.2,8.62,.36,1.7,1.55,3.66,2.47,5.22,2.87,4.88,7.23,4.13,12.41,3.7,4.06-.34,8.09-.49,12.13-.96,3.99-.46,8.7-.23,12.55-1.26,3.99-1.07,5.94-5.56,6.91-9.23,.66-2.48-.3-5-.32-7.56-.02-2.26,1.09-4.26-1.19-5.42-1.87-.95-2.92-.65-4.97-.7-4.5-.13-11.26,.66-15.78,.66s-7.88-3.51-7.25,1.32c.47,3.63-2.15,8.79-3.98,11.4-.73,1.04-.68,2.26-1.15,3.46-.68,1.76,.94,4.88-1.15,5.65-1.36-1.98-1.09-4.31-2.09-6.41-.75-1.57-2.34-3.34-1.77-5.31,.11-.38,1.19-1.28,1.45-1.75,.64-1.14,1.73-1.45,1.65-2.79-.12-2.1-2.09-3.55-2.97-5.32-.61-.22-4.58-2.32-5.17-.95Z"/><g><path d="M40.47,37.1c.56,0,1.02-.45,1.02-1s-.45-1-1.02-1-1.02,.45-1.02,1,.45,1,1.02,1Z"/><ellipse cx="39.57" cy="31.56" rx=".68" ry=".66"/><path d="M33.81,30.45c0,.55,.45,1,1.02,1s1.02-.45,1.02-1-.45-1-1.02-1-1.02,.45-1.02,1Z"/><path d="M22.18,22.06h-6.26l.64,7.07-5.06,6.72-.56,6-2.68-7.32,3.67-5.11-4.28-7.38H1.85c-.5,0-.9,.4-.9,.89s.4,.89,.9,.89H6.6l.76,1.31H1.85c-.25,0-.45,.2-.45,.44s.2,.44,.45,.44H7.87l1.92,3.31-3.55,4.94,1.74,4.75H1.85c-.25,0-.45,.2-.45,.44s.2,.44,.45,.44h6.45l1.35,3.68-3.18,1.95-1.71-4.68-3.56,3.37c-.18,.17-.19,.46-.01,.64,.18,.18,.47,.19,.66,.01l2.53-2.39,1.61,4.42,3.99-2.45,2.02,5.53,.67-7.18,.81-.5,2.77,4.94,1.83-4.1,1.03,4.76,1.78-5.03,2.02,4.3,2.28-3.67,.77,1.49h18.68c.26,0,.46-.2,.46-.45s-.21-.45-.46-.45H26.52l-1.26-2.45-2.24,3.6-2.26-4.8-1.44,4.07-.94-4.34-2.23,5-2.33-4.16-1.05,.64,.16-1.77H46.1c.25,0,.45-.2,.45-.44s-.2-.44-.45-.44H13.01l.23-2.51,5.17-6.87-.32-3.62h28.01c.25,0,.45-.2,.45-.44s-.2-.44-.45-.44H18.01l-.12-1.31h28.21c.5,0,.9-.4,.9-.89s-.4-.89-.9-.89H22.18Z"/><ellipse cx="45.21" cy="34.44" rx=".45" ry=".44"/><path d="M45.32,29.79c0-.55-.45-1-1.02-1s-1.02,.45-1.02,1,.45,1,1.02,1,1.02-.45,1.02-1Z"/><path d="M32.79,34.33c0,.24,.2,.44,.45,.44s.45-.2,.45-.44-.2-.44-.45-.44-.45,.2-.45,.44Z"/><path d="M3.22,37.1c.37,0,.68-.3,.68-.66s-.3-.66-.68-.66-.68,.3-.68,.66,.3,.66,.68,.66Z"/><path d="M3.67,30.23c.56,0,1.02-.45,1.02-1s-.45-1-1.02-1-1.02,.45-1.02,1,.45,1,1.02,1Z"/><ellipse cx="5.59" cy="32" rx=".45" ry=".44"/><path d="M17.22,35.66c0,.55,.45,1,1.02,1s1.02-.45,1.02-1-.45-1-1.02-1-1.02,.45-1.02,1Z"/><path d="M27.26,33.89c-.56,0-1.02,.45-1.02,1s.45,1,1.02,1,1.02-.45,1.02-1-.45-1-1.02-1Z"/><path d="M28.84,30.01c.37,0,.68-.3,.68-.66s-.3-.66-.68-.66-.68,.3-.68,.66,.3,.66,.68,.66Z"/><path d="M21.84,33c-.37,0-.68,.3-.68,.66s.3,.66,.68,.66,.68-.3,.68-.66-.3-.66-.68-.66Z"/><path d="M23.43,29.35c0-.55-.45-1-1.02-1s-1.02,.45-1.02,1,.45,1,1.02,1,1.02-.45,1.02-1Z"/></g><g><path d="M27.16,15.21c-.19-.08-.42,0-.5,.19s0,.41,.19,.49,.42,0,.5-.19,0-.41-.19-.49Z"/><path d="M17.58,16.72l15.34,6.7c.46,.2,2.96-.65,2.96-.65l4.23-9.33,.94,1.96c.1,.2,.26,.35,.45,.43,.23,.1,.5,.11,.75,0,.45-.21,.64-.74,.43-1.18L35.67,0l-15.78,4.69c-.48,.14-.75,.64-.6,1.1,.14,.47,.65,.73,1.13,.59l2.11-.63-4.23,9.33m10.91,4.68l-4.17-1.82,1.92-4.24c.51-1.13,1.86-1.64,3.02-1.14s1.67,1.83,1.16,2.96l-1.92,4.24Zm5.06,2.21l-4.23-1.85,1.92-4.24c.71-1.58-.01-3.43-1.62-4.13s-3.49,.01-4.21,1.59l-1.92,4.24-4.23-1.85,4.83-10.67,9.89-2.94,4.4,9.17-4.83,10.67Z"/></g></g></g></g></svg>