<?xml version="1.0" encoding="UTF-8"?><svg xmlns="http://www.w3.org/2000/svg" viewBox="0 0 56 50"><defs><style>.d{fill:#48bff4;}</style></defs><g id="a"/><g id="b"><g id="c"><g><path class="d" d="M51.08,50c-12.64-4.06-22.91-3.29-24.46-18.19-.73-7.04,2.09-14.35,8.23-18.15-3.15,.05-12.13,1.75-10.18-3.38-.85,1.04-2.35,1.61-3.92,1.59C17.98-.68,35.91,6.33,39.42,2.17c-4.69-3.45-15.62-.44-20.05,2.74-3.92,2.82-6.36,7.7-8.27,11.88-1.75,3.83-1.21,7.23-4.23,10.06-3.11,2.91-6.4,9.55-4.88,10.19-5.25,2.17,1.03,9.3,5.24,9.42,5.07,.14,9.66,.52,14.68,1.23,10.07,1.43,19.86,2.31,29.16,2.31Z"/><g><path d="M39.61,19.93c-.88,0-1.6,.71-1.6,1.59s.72,1.59,1.6,1.59,1.6-.71,1.6-1.59-.72-1.59-1.6-1.59Zm0,2.6c-.56,0-1.02-.45-1.02-1.01s.46-1.01,1.02-1.01,1.02,.45,1.02,1.01-.46,1.01-1.02,1.01Z"/><path d="M34.69,25.74c.61,0,1.1-.49,1.1-1.09s-.49-1.09-1.1-1.09-1.1,.49-1.1,1.09,.49,1.09,1.1,1.09Zm0-1.61c.29,0,.52,.23,.52,.52s-.23,.52-.52,.52-.52-.23-.52-.52,.23-.52,.52-.52Z"/><g><path d="M14.29,16.09c.03-.06,.05-.13,.07-.21l.02-.06c.86-1.66,1.87-3.19,2.99-4.54C22.67,4.89,30.97,1.66,42.02,1.65h.02l1.35,.08c2.35,0,4.26,1.9,4.26,4.23s-1.91,4.23-4.27,4.23c-.73,0-1.46-.19-2.1-.55l-.21-.12,.11-.21c.37-.71,.56-1.48,.56-2.27,0-1.35-.54-2.61-1.51-3.55-.33-.32-.86-.31-1.18,.01-.32,.33-.31,.85,.01,1.17,.65,.63,1.01,1.47,1.01,2.37,0,1.83-1.5,3.31-3.34,3.31-.78,0-1.52-.27-2.14-.78l-.07-.06-.02-.09c-.17-.85-.59-1.62-1.22-2.22-.16-.15-.37-.24-.59-.23-.22,0-.43,.1-.58,.26-.15,.16-.24,.37-.23,.59,0,.22,.1,.43,.26,.58,.49,.47,.77,1.1,.79,1.78s-.24,1.32-.71,1.81c-.47,.49-1.11,.77-1.79,.78-.68,.01-1.33-.23-1.83-.7-1.02-.97-1.06-2.58-.08-3.59,.15-.16,.24-.37,.23-.59,0-.22-.1-.43-.26-.58-.16-.15-.37-.23-.57-.23-.22,0-.44,.09-.6,.25-.78,.81-1.19,1.87-1.17,2.99,.02,.94,.35,1.82,.95,2.55l.1,.12-.06,.14c-.88,1.95-1.95,5.11-2.07,9.16-.24,7.77,2.59,14.54,7.98,19.05,.98,.82,2.06,1.57,3.21,2.23l.08,.06c.12,.1,.23,.15,.35,.18,5.31,2.86,11.9,3.69,18.47,2.38,.45-.09,.74-.53,.65-.97-.09-.44-.52-.73-.98-.65-1.08,.22-2.22,.38-3.39,.47l-.27,.02v-7.77l.92,.79c.35,.3,.87,.26,1.17-.09,.15-.17,.22-.38,.2-.6-.02-.22-.12-.42-.29-.56l-9.19-7.88-9.19,7.88c-.17,.14-.27,.34-.29,.56-.02,.22,.06,.43,.2,.6,.29,.33,.84,.37,1.17,.09l.92-.79v4.56l-.42-.38c-3.94-3.59-6.09-8.1-6.04-12.7,.05-4.7,2.39-9.08,6.59-12.32,1.77-1.37,3.88-2.41,5.95-2.95l.21-.05,.09,.2c.79,1.83,2.6,3.01,4.6,3.01,2.76,0,5-2.23,5-4.96,0-2.11-1.35-4-3.36-4.69l-.19-.07,.03-.2c.04-.3,.06-.54,.06-.78,0-3.23-2.65-5.86-5.9-5.88l-1.36-.08c-11.59,0-20.33,3.44-25.96,10.23-1.61,1.93-2.97,4.16-4.06,6.63-2.47,4.64-6.15,9.58-9.09,9.6-.22,0-.43,.09-.59,.24-.16,.16-.24,.36-.24,.58,0,.45,.38,.82,.83,.82,1.9,0,3.94-1.25,6.07-3.7l.46-.53-.02,.7c-.07,2.64-.78,11.33-6.88,12.21-.16,.02-.27,.17-.25,.33,.02,.14,.14,.25,.29,.25,2.58-.37,4.52-1.98,5.8-4.79l.49-1.09v1.19c-.02,.8-.02,1.6,.01,2.36v.05l-.02,.05c-1.19,2.95-3.04,4.63-5.52,4.98-.08,.01-.14,.05-.19,.11s-.07,.14-.05,.21c.02,.14,.14,.25,.29,.25,2.16-.31,3.88-1.52,5.15-3.6l.41-.67,.06,.78c.18,2.44,.48,4.09,.54,4.4,.02,.23,.06,1.3-.72,2.13-.77,.82-2.2,1.21-4.14,1.12-.45,0-.85,.33-.87,.79-.01,.22,.07,.43,.22,.59,.15,.16,.35,.26,.58,.27,2.5,.12,4.33-.45,5.46-1.67,1.38-1.49,1.14-3.37,1.13-3.45v-.06c-.03-.12-2.46-12.92,2.39-23.92,.25-.47,.46-.9,.64-1.27l.03-.06Zm31.4,28.86l-.29-.04c-1.01-.14-2-.33-2.93-.58l-.19-.05v-3.3c0-.93,.76-1.69,1.7-1.69s1.7,.76,1.7,1.69v3.97Zm-7.22-9.06l5.52-4.73,5.52,4.73v9.27h-.25c-.07,0-.13,0-.2,0-.86,0-1.72-.04-2.56-.12l-.23-.02v-4.04c0-1.25-1.02-2.26-2.28-2.26s-2.28,1.02-2.28,2.26v3.13l-.33-.1c-.97-.31-1.9-.67-2.76-1.07l-.14-.07v-6.98Zm-10.23-4.11c-1.11-2.9-1.62-6.07-1.51-9.43,.09-2.8,.69-5.6,1.73-8.09l.1-.23,.23,.09c.5,.2,1.03,.3,1.58,.3h.1c.48-.01,.96-.11,1.43-.29l.77-.3-.47,.67c-2.29,3.27-4.76,8.89-3.47,17.14l.37,2.35-.85-2.22Zm13.54-19.67c-2.1,.64-4.08,1.67-5.87,3.05-2.79,2.16-4.9,4.86-6.08,7.81l-.48-.14c1.17-6.2,4.52-9.72,5.91-10.94l.1-.09,.13,.03c1.6,.41,3.15,.04,4.37-.93l.14-.11,.15,.1c.51,.33,1.06,.58,1.63,.74l.83,.23-.82,.25Zm6.93-3.58l.21,.07c1.31,.48,2.19,1.72,2.19,3.1,0,1.83-1.5,3.31-3.34,3.31-1.72,0-3.19-1.34-3.33-3.04l-.02-.22,.21-.05c1.7-.37,3.15-1.46,3.97-2.99l.1-.19Z"/><path d="M18.56,18.19c.06-.15,0-.32-.15-.38-.04-.02-.07-.02-.11-.02-.04,0-.07,0-.11,.02-.07,.03-.13,.08-.16,.15-.07,.15-6.48,15.58,4.46,29.23,.08,.11,.22,.2,.41,.05,.06-.05,.1-.12,.11-.19s-.01-.15-.06-.21c-10.72-13.38-4.46-28.46-4.38-28.65Z"/><path d="M31.06,43.68c4.76,3.99,11.15,6.19,17.98,6.19,2.22,0,4.48-.23,6.72-.68,.08-.02,.14-.06,.18-.12,.04-.06,.06-.14,.04-.22-.03-.16-.19-.26-.34-.23-2.21,.44-4.43,.66-6.61,.66-6.7,0-12.95-2.15-17.61-6.05-5.98-5.01-9.13-12.47-8.86-21.01,.15-4.81,1.5-8.52,2.61-10.79,.03-.07,.04-.15,.01-.22-.03-.07-.08-.13-.15-.16-.04-.02-.08-.03-.13-.03-.03,0-.06,0-.1,.02-.07,.02-.13,.08-.17,.15-1.13,2.32-2.52,6.11-2.67,11.02-.27,8.72,2.95,16.35,9.07,21.47Z"/></g></g></g></g></g></svg>