<?xml version="1.0" encoding="UTF-8"?><svg xmlns="http://www.w3.org/2000/svg" viewBox="0 0 62 42"><defs><style>.d{fill:#b4b883;}</style></defs><g id="a"/><g id="b"><g id="c"><g><path class="d" d="M5.96,9.65c-.15-1.8,2.01-2.55,3.31-2.78,3.07-.55,5.61,1.24,8.03,3.04,4.17,3.1,6.45,8.52,8.11,13.51,1.31,3.92-1.21,5.7-4.52,6.59-4.79,1.28-9.34-.32-12.7-4.28-2.11-2.48-2.11-5.94-2.74-9.08-.3-1.5-1.28-5.53,.51-7Z"/><g><polygon points="4.63 20.49 2.75 21.17 .62 21.03 2.25 19.81 4.63 20.49"/><polygon points="2.5 14.37 1.37 13.7 2.75 12.88 4.13 13.29 2.5 14.37"/><path d="M1.66,41.18c0,.45,.34,.82,.75,.82H58.21c.41,0,.75-.37,.75-.82,0-.45-.34-.82-.75-.82h-11.8c.44-.17,.74-.29,.74-.29,1.51-1.35,3.29-3.45,3.74-6.12,.41-2.41-.33-4.81-2.18-7.12-2.53-3.15-3.67-6.05-3.39-8.61,.27-2.45,1.82-4.74,4.74-6.99,.38-.3,.48-.88,.2-1.29-.27-.42-.81-.52-1.19-.22-.3,.23-.58,.46-.85,.69l-12.45-.72,16.89-1.66c.47-.05,.82-.5,.77-1.01-.04-.51-.46-.88-.93-.84l-21.19,2.09c-.36,.04-.65,.31-.74,.67-.08,.08-.15,.17-.2,.28-1.7,3.63-1.94,7.07-.71,10.24,1.58,4.07,5.76,7.59,11.19,9.42,2.53,.85,4.03,2.15,4.47,3.86,.73,2.87-1.58,6.3-2.34,7.33,0,0-.16,.12-.38,.29h-13.32c-.05-.35-.19-1.36-.51-2.84,.8-.44,1.5-1.06,2.03-1.89,.54-.85,1.27-1.37,2.17-1.52,2.66-.47,5.99,2.2,6.02,2.23,.17,.13,.4,.1,.53-.08,.12-.18,.09-.44-.07-.57-.15-.12-3.61-2.91-6.59-2.38-1.11,.2-2.01,.82-2.67,1.87-.42,.66-.97,1.16-1.6,1.54-.42-1.75-1.06-4.01-2.02-6.56,1.34-.97,2.25-2.47,2.52-4.23,.38-2.46-.26-6.61-5.52-12.41C17.31,6.67,13.22,4.18,10.38,5.38l-8.12,.87,2.57,1.78L0,9.81l7.59,2.87-3.24,2.21,4.32,1.47c.02,.07,.05,.14,.07,.21l-3.73,2.03,4.73,2.13-4.5,1.92,7.01,1.79-4.95,3.51,7.17,.45-2.44,2.65,8.47,.52c.44,.1,.89,.16,1.35,.16h0c1.05,0,2.14-.27,3.32-.82,.94,2.5,1.56,4.72,1.95,6.41-3.15,.95-7.27-.11-8.61-.86-.07-.04-7.2-3.87-9.75-2.49-.51,.27-.82,.74-.92,1.35-.09,.58-.33,.96-.73,1.19-1.28,.71-3.92-.39-4.83-.87-.19-.1-.41-.02-.5,.19-.09,.2-.01,.45,.17,.55,.15,.08,3.62,1.91,5.5,.87,.62-.34,1-.94,1.13-1.78,.06-.36,.22-.6,.52-.76,1.94-1.05,8.03,1.89,9.07,2.48,1.05,.59,3.54,1.32,6.12,1.32,1.02,0,2.05-.12,3.01-.4,.23,1.06,.36,1.84,.42,2.25H2.41c-.41,0-.75,.37-.75,.82Zm23.51-12.05c-1.22,.65-2.3,.97-3.3,.97h0c-.37,0-.73-.04-1.08-.13l-.12-.02-5.19-.32,2.44-2.65-5.96-.37,2.95-2.1-.88-1.29-3.77-.96,2.43-1.04-.73-1.26-3.34-1.5,2.04-1.11-.27-.7c-.17-.43-.31-.83-.43-1.21l-.12-.39-1.93-.66,1.5-1.02-.09-.54c-.04-.27-.08-.53-.11-.78l-.05-.51-4.52-1.71,3.67-1.35-1.55-1.07,4.02-.43,.11-.05c.3-.14,.63-.21,.99-.21,2.28,0,5.75,2.6,10.6,7.94,4.82,5.31,5.44,8.91,5.11,11-.33,2.09-1.64,3.08-2.4,3.48Zm9.55-5.68l8.9-3.43c.14,1.28,.53,2.6,1.17,3.96l-7.83,1.11c-.81-.5-1.56-1.05-2.24-1.63Zm-3.05-3.74l12.17-2.93c-.01,.09,0-.09,0,0-.04,.34-.27,1.92-.27,2.27l-9.6,3.7c-.96-.94-1.74-1.97-2.3-3.05Zm-1.07-4.25l13.76-.18c-.22,.49-.38,.99-.51,1.5l-12.58,2.05s-.03-.06-.04-.09c-.41-1.05-.62-2.15-.63-3.28Zm11.42-4.01l-11.02,1c.14-.53,.33-1.06,.55-1.61l10.47,.6Zm2.34,3.83l-13.68-1.21c0-.06,.02-.13,.03-.19l15.44-1.41c-.39,.46-1.49,2.33-1.79,2.81Zm3.07,12.78l-5-.59s-.07,0-.11,.01c-.31-.13-.63-.25-.97-.37-1.08-.36-2.09-.8-3.05-1.29l6.95-.98c.58,1.05,1.3,2.12,2.18,3.21h0Zm1.68,3.23l-2.37,.31c-.44-1.16-1.22-2.15-2.33-2.96l3.66,.44s.03,0,.05,0h.02c.46,.74,.79,1.48,.97,2.21Zm-2.02,3.6c.1-.78,.08-1.59-.08-2.38l2.26-.3c.04,.47,.02,.95-.05,1.41-.14,.82-.45,1.58-.85,2.28l-1.27-1.01Zm-1.34,4.03c.46-.88,.89-1.92,1.15-3.03l.97,.77c-.65,.91-1.43,1.68-2.12,2.26Z"/><polygon points="3.88 27.56 2.31 26.88 3.13 25.79 6.38 25.93 3.88 27.56"/><path d="M27.51,.9c.01-.51,.34-.91,.75-.9L61.29,1.17c.4,.01,.72,.44,.71,.95-.01,.5-.33,.9-.73,.9h-.02L28.22,1.85c-.4-.01-.72-.44-.71-.95Z"/><path d="M58.3,4.74c.11-.13,.17-.3,.17-.48,0-.36-.28-.65-.61-.65l-26.22,.67c-.16,0-.31,.08-.43,.2-.11,.13-.17,.3-.17,.48,0,.36,.28,.65,.61,.65l26.22-.67c.16,0,.31-.08,.43-.2Z"/></g></g></g></g></svg>